<?xml version="1.0" encoding="UTF-8"?>
<!DOCTYPE svg PUBLIC "-//W3C//DTD SVG 1.1//EN" "http://www.w3.org/Graphics/SVG/1.1/DTD/svg11.dtd">
<svg xmlns="http://www.w3.org/2000/svg" version="1.1" width="512px" height="512px" style="shape-rendering:geometricPrecision; text-rendering:geometricPrecision; image-rendering:optimizeQuality; fill-rule:evenodd; clip-rule:evenodd" xmlns:xlink="http://www.w3.org/1999/xlink">
<g><path style="opacity:0.94" fill="#000000" d="M 100.5,-0.5 C 203.833,-0.5 307.167,-0.5 410.5,-0.5C 410.021,11.526 410.021,23.526 410.5,35.5C 432.382,28.2653 454.382,27.7653 476.5,34C 490.333,39.8333 500.167,49.6667 506,63.5C 508.419,70.1419 510.252,76.8086 511.5,83.5C 511.5,96.1667 511.5,108.833 511.5,121.5C 505.932,185.49 476.598,235.323 423.5,271C 395.727,287.443 365.727,294.443 333.5,292C 324.431,301.693 314.098,309.693 302.5,316C 296.526,320.302 292.526,325.968 290.5,333C 307.743,342.398 311.909,355.898 303,373.5C 299.804,377.848 295.638,380.848 290.5,382.5C 289.501,392.812 289.168,403.145 289.5,413.5C 303.167,413.5 316.833,413.5 330.5,413.5C 330.5,424.5 330.5,435.5 330.5,446.5C 344.167,446.5 357.833,446.5 371.5,446.5C 371.5,468.167 371.5,489.833 371.5,511.5C 294.167,511.5 216.833,511.5 139.5,511.5C 139.5,489.833 139.5,468.167 139.5,446.5C 153.167,446.5 166.833,446.5 180.5,446.5C 180.5,435.5 180.5,424.5 180.5,413.5C 194.167,413.5 207.833,413.5 221.5,413.5C 221.832,403.145 221.499,392.812 220.5,382.5C 206.617,376.715 201.117,366.381 204,351.5C 206.651,342.846 212.151,336.679 220.5,333C 218.474,325.968 214.474,320.302 208.5,316C 196.902,309.693 186.569,301.693 177.5,292C 134.959,295.04 97.6259,282.707 65.5,255C 26.054,219.183 4.05398,174.683 -0.5,121.5C -0.5,108.833 -0.5,96.1667 -0.5,83.5C 5.10619,47.4046 26.2729,29.4046 63,29.5C 75.8036,29.6276 88.3036,31.6276 100.5,35.5C 101.036,23.5234 101.036,11.5234 100.5,-0.5 Z M 117.5,15.5 C 209.5,15.5 301.5,15.5 393.5,15.5C 393.5,18.5 393.5,21.5 393.5,24.5C 301.5,24.5 209.5,24.5 117.5,24.5C 117.5,21.5 117.5,18.5 117.5,15.5 Z M 118.5,40.5 C 209.833,40.5 301.167,40.5 392.5,40.5C 390.263,89.3247 382.763,137.325 370,184.5C 360.981,217.199 346.648,247.199 327,274.5C 317.603,285.905 306.436,295.071 293.5,302C 282.729,309.37 276.396,319.537 274.5,332.5C 261.833,332.5 249.167,332.5 236.5,332.5C 234.604,319.537 228.271,309.37 217.5,302C 201.819,292.986 188.652,281.153 178,266.5C 161.079,240.983 148.746,213.316 141,183.5C 128.331,136.651 120.831,88.9839 118.5,40.5 Z M 55.5,45.5 C 71.5235,45.5598 87.1902,47.8931 102.5,52.5C 103.422,57.4724 103.588,62.4724 103,67.5C 85.9804,61.6479 68.8138,60.8146 51.5,65C 38.9342,69.9368 31.4342,79.1035 29,92.5C 28.3699,134.938 40.0366,173.605 64,208.5C 76.0558,224.895 90.8892,238.061 108.5,248C 122.747,254.645 137.747,258.312 153.5,259C 157.167,264.667 160.833,270.333 164.5,276C 141.382,276.075 119.715,270.408 99.5,259C 51.7901,228.557 24.2901,185.057 17,128.5C 14.6693,111.092 15.0026,93.7582 18,76.5C 23.4309,57.5438 35.9309,47.2105 55.5,45.5 Z M 441.5,45.5 C 452.932,44.8708 463.932,46.7041 474.5,51C 487.271,59.2242 494.104,71.0576 495,86.5C 499.661,146.879 480.494,198.046 437.5,240C 419.734,256.219 399.067,267.219 375.5,273C 365.874,274.9 356.208,275.9 346.5,276C 350.167,270.333 353.833,264.667 357.5,259C 382.931,257.973 405.265,249.307 424.5,233C 457.899,201.031 477.066,161.865 482,115.5C 482.881,106.438 482.548,97.4377 481,88.5C 478,76.834 470.833,69.0006 459.5,65C 442.186,60.8146 425.02,61.6479 408,67.5C 407.412,62.4724 407.578,57.4724 408.5,52.5C 419.477,49.506 430.477,47.1726 441.5,45.5 Z M 62.5,78.5 C 77.1921,78.0045 91.5254,80.0045 105.5,84.5C 110.417,130.253 120.25,174.919 135,218.5C 138.069,225.874 141.236,233.208 144.5,240.5C 143.667,240.833 142.833,241.167 142,241.5C 115.243,235.787 93.9095,221.787 78,199.5C 56.3674,168.266 45.3674,133.6 45,95.5C 47.4704,86.1939 53.3037,80.5272 62.5,78.5 Z M 430.5,78.5 C 460.655,75.4977 472.155,88.831 465,118.5C 459.328,157.007 443.161,190.174 416.5,218C 403.563,229.635 388.563,237.302 371.5,241C 369.741,241.798 368.074,241.631 366.5,240.5C 382.141,204.943 392.974,167.943 399,129.5C 401.495,114.534 403.662,99.5338 405.5,84.5C 413.906,82.314 422.24,80.314 430.5,78.5 Z M 227.5,348.5 C 246.17,348.333 264.836,348.5 283.5,349C 292.001,352.135 293.668,357.468 288.5,365C 286.913,365.862 285.246,366.529 283.5,367C 264.833,367.667 246.167,367.667 227.5,367C 219.233,364.17 217.399,359.003 222,351.5C 223.876,350.391 225.709,349.391 227.5,348.5 Z M 237.5,383.5 C 249.5,383.5 261.5,383.5 273.5,383.5C 273.5,393.5 273.5,403.5 273.5,413.5C 261.5,413.5 249.5,413.5 237.5,413.5C 237.5,403.5 237.5,393.5 237.5,383.5 Z M 196.5,429.5 C 235.833,429.5 275.167,429.5 314.5,429.5C 314.5,435.167 314.5,440.833 314.5,446.5C 275.167,446.5 235.833,446.5 196.5,446.5C 196.5,440.833 196.5,435.167 196.5,429.5 Z M 155.5,462.5 C 222.167,462.5 288.833,462.5 355.5,462.5C 355.5,473.5 355.5,484.5 355.5,495.5C 288.833,495.5 222.167,495.5 155.5,495.5C 155.5,484.5 155.5,473.5 155.5,462.5 Z"/></g>
<g><path style="opacity:0.914" fill="#000000" d="M 158.5,160.5 C 162.821,174.75 167.321,189.084 172,203.5C 176.286,214.74 181.12,225.74 186.5,236.5C 182.454,240.022 177.954,243.022 173,245.5C 159.6,219.965 149.766,193.132 143.5,165C 148.593,163.425 153.593,161.925 158.5,160.5 Z"/></g>
<g><path style="opacity:0.876" fill="#000000" d="M 190.5,245.5 C 192.017,245.511 193.184,246.177 194,247.5C 197.308,252.308 200.808,256.975 204.5,261.5C 201.148,265.686 197.314,269.353 193,272.5C 187.404,266.907 182.57,260.74 178.5,254C 182.68,251.304 186.68,248.47 190.5,245.5 Z"/></g>
<g><path style="opacity:0.853" fill="#000000" d="M 47.5,287.5 C 52.8333,287.5 58.1667,287.5 63.5,287.5C 63.5,292.833 63.5,298.167 63.5,303.5C 58.1667,303.5 52.8333,303.5 47.5,303.5C 47.5,298.167 47.5,292.833 47.5,287.5 Z"/></g>
<g><path style="opacity:0.93" fill="#000000" d="M 414.5,304.5 C 419.833,304.5 425.167,304.5 430.5,304.5C 430.5,308.833 430.5,313.167 430.5,317.5C 434.833,317.5 439.167,317.5 443.5,317.5C 443.5,322.833 443.5,328.167 443.5,333.5C 439.167,333.5 434.833,333.5 430.5,333.5C 430.5,337.833 430.5,342.167 430.5,346.5C 425.167,346.5 419.833,346.5 414.5,346.5C 414.5,342.167 414.5,337.833 414.5,333.5C 410.167,333.5 405.833,333.5 401.5,333.5C 401.5,328.167 401.5,322.833 401.5,317.5C 405.833,317.5 410.167,317.5 414.5,317.5C 414.5,313.167 414.5,308.833 414.5,304.5 Z"/></g>
<g><path style="opacity:0.91" fill="#000000" d="M 140.5,332.5 C 145.5,332.5 150.5,332.5 155.5,332.5C 155.5,337.833 155.5,343.167 155.5,348.5C 150.5,348.5 145.5,348.5 140.5,348.5C 140.5,343.167 140.5,337.833 140.5,332.5 Z"/></g>
<g><path style="opacity:0.856" fill="#000000" d="M 371.5,377.5 C 376.5,377.5 381.5,377.5 386.5,377.5C 386.5,383.167 386.5,388.833 386.5,394.5C 381.5,394.5 376.5,394.5 371.5,394.5C 371.5,388.833 371.5,383.167 371.5,377.5 Z"/></g>
<g><path style="opacity:0.929" fill="#000000" d="M 85.5,385.5 C 90.8333,385.5 96.1667,385.5 101.5,385.5C 101.5,389.167 101.5,392.833 101.5,396.5C 105.167,396.5 108.833,396.5 112.5,396.5C 112.5,401.833 112.5,407.167 112.5,412.5C 108.818,412.335 105.152,412.501 101.5,413C 102.456,416.394 102.789,419.894 102.5,423.5C 96.8333,423.5 91.1667,423.5 85.5,423.5C 85.5,419.833 85.5,416.167 85.5,412.5C 82.1667,412.5 78.8333,412.5 75.5,412.5C 75.5,407.167 75.5,401.833 75.5,396.5C 78.8333,396.5 82.1667,396.5 85.5,396.5C 85.5,392.833 85.5,389.167 85.5,385.5 Z"/></g>
</svg>
