<?xml version="1.0" encoding="UTF-8"?>
<!DOCTYPE svg PUBLIC "-//W3C//DTD SVG 1.1//EN" "http://www.w3.org/Graphics/SVG/1.1/DTD/svg11.dtd">
<svg xmlns="http://www.w3.org/2000/svg" version="1.1" width="512px" height="512px" style="shape-rendering:geometricPrecision; text-rendering:geometricPrecision; image-rendering:optimizeQuality; fill-rule:evenodd; clip-rule:evenodd" xmlns:xlink="http://www.w3.org/1999/xlink">
<g><path style="opacity:0.939" fill="#000000" d="M 120.5,-0.5 C 233.167,-0.5 345.833,-0.5 458.5,-0.5C 476.011,4.84857 486.845,16.5152 491,34.5C 491.667,54.8333 491.667,75.1667 491,95.5C 490.097,96.7014 488.931,97.5348 487.5,98C 464.169,98.5 440.836,98.6666 417.5,98.5C 417.667,113.17 417.5,127.837 417,142.5C 414.503,144.478 411.669,144.978 408.5,144C 407.299,143.097 406.465,141.931 406,140.5C 405.333,106.5 405.333,72.5 406,38.5C 407.058,27.8862 411.225,18.7196 418.5,11C 321.167,10.3333 223.833,10.3333 126.5,11C 119.185,12.3162 114.352,16.4829 112,23.5C 111.667,71.8333 111.333,120.167 111,168.5C 110.626,169.416 110.126,170.25 109.5,171C 105.219,172.458 102.053,171.292 100,167.5C 99.3333,119.5 99.3333,71.5 100,23.5C 101.971,11.161 108.804,3.16102 120.5,-0.5 Z M 447.5,10.5 C 463.842,11.5758 474.342,19.9091 479,35.5C 479.5,52.4967 479.667,69.4967 479.5,86.5C 458.833,86.5 438.167,86.5 417.5,86.5C 417.333,70.4965 417.5,54.4965 418,38.5C 421.584,22.4128 431.417,13.0794 447.5,10.5 Z"/></g>
<g><path style="opacity:0.905" fill="#000000" d="M 158.5,64.5 C 225.501,64.3333 292.501,64.5 359.5,65C 364.833,68.6667 364.833,72.3333 359.5,76C 292.5,76.6667 225.5,76.6667 158.5,76C 154.673,72.2482 154.673,68.4148 158.5,64.5 Z"/></g>
<g><path style="opacity:0.903" fill="#000000" d="M 211.5,108.5 C 226.549,107.012 235.215,113.678 237.5,128.5C 234.197,143.645 226.531,156.145 214.5,166C 209.833,169.333 205.167,172.667 200.5,176C 206.696,189.703 216.696,193.37 230.5,187C 234.842,183.149 237.176,178.315 237.5,172.5C 240.208,170.564 243.208,170.064 246.5,171C 250.333,178.833 256.167,184.667 264,188.5C 266.571,187.599 268.904,186.266 271,184.5C 274.779,179.277 277.779,173.61 280,167.5C 282.264,164.48 285.097,163.813 288.5,165.5C 292.408,172.417 298.075,177.084 305.5,179.5C 308.622,178.897 311.122,177.23 313,174.5C 315.087,171.327 316.921,167.994 318.5,164.5C 319.688,163.16 321.188,162.493 323,162.5C 327.576,165.204 332.409,167.537 337.5,169.5C 341.901,167.974 345.568,165.474 348.5,162C 354.829,161.332 357.329,164.166 356,170.5C 348.135,180.927 338.135,183.593 326,178.5C 314.554,194.299 301.554,195.632 287,182.5C 283.5,190 278,195.5 270.5,199C 259.991,201.164 251.491,197.998 245,189.5C 235.857,200.103 224.357,203.937 210.5,201C 200.777,197.444 193.777,190.944 189.5,181.5C 179.396,186.815 168.729,189.982 157.5,191C 155.09,190.242 154.09,188.575 154.5,186C 154.354,183.966 155.02,182.299 156.5,181C 166.602,178.244 176.268,174.411 185.5,169.5C 178.039,142.107 186.705,121.773 211.5,108.5 Z M 214.5,120.5 C 223.061,120.967 226.227,125.301 224,133.5C 218.136,146.53 208.97,156.53 196.5,163.5C 191.607,144.491 197.607,130.158 214.5,120.5 Z"/></g>
<g><path style="opacity:0.848" fill="#000000" d="M 407.5,160.5 C 411.257,160.071 414.757,160.737 418,162.5C 421.139,169.555 418.973,173.888 411.5,175.5C 405.357,174.189 403.191,170.523 405,164.5C 405.662,163.016 406.496,161.683 407.5,160.5 Z"/></g>
<g><path style="opacity:0.901" fill="#000000" d="M 511.5,331.5 C 511.5,335.167 511.5,338.833 511.5,342.5C 510.163,345.991 508.163,349.157 505.5,352C 492.287,360.441 478.62,368.108 464.5,375C 460.833,375.667 457.167,375.667 453.5,375C 451.671,374.727 450.171,373.893 449,372.5C 438.908,382.929 427.408,391.429 414.5,398C 406.895,398.844 404.395,395.677 407,388.5C 419.872,382.302 431.038,373.802 440.5,363C 417.793,323.751 394.96,284.585 372,245.5C 361.259,248.561 350.426,251.394 339.5,254C 333.167,254.667 326.833,254.667 320.5,254C 304.028,248.731 287.694,243.065 271.5,237C 260.952,234.262 250.952,235.595 241.5,241C 222.5,252.667 203.5,264.333 184.5,276C 171.393,292.44 159.059,309.44 147.5,327C 148.167,328.333 148.833,329.667 149.5,331C 170.11,340.203 187.943,336.37 203,319.5C 208.805,311.394 214.972,303.561 221.5,296C 231.761,292.469 242.094,289.135 252.5,286C 255.634,285.21 258.634,285.543 261.5,287C 306.667,326.167 351.833,365.333 397,404.5C 406.127,422.445 401.961,436.279 384.5,446C 378.535,447.77 372.535,447.937 366.5,446.5C 365.345,462.657 356.678,471.657 340.5,473.5C 334.364,473.178 328.864,471.178 324,467.5C 321.598,482.875 312.598,490.875 297,491.5C 291.91,491.562 287.244,490.228 283,487.5C 280.651,499.003 274.151,507.003 263.5,511.5C 258.833,511.5 254.167,511.5 249.5,511.5C 238.302,504.488 227.469,496.822 217,488.5C 206.458,502.012 193.625,504.845 178.5,497C 174.213,493.71 171.047,489.543 169,484.5C 155.825,491.272 144.158,489.272 134,478.5C 131.398,474.526 129.898,470.193 129.5,465.5C 110.41,468.245 99.41,460.078 96.5,441C 96.5589,439.564 96.8922,438.231 97.5,437C 75.0257,433.211 66.859,420.377 73,398.5C 75.5,394.833 78,391.167 80.5,387.5C 73.8745,381.376 67.3745,375.042 61,368.5C 53.4328,372.624 45.9328,372.458 38.5,368C 28.3396,360.753 18.0063,353.753 7.5,347C 3.78928,344.145 1.12261,340.645 -0.5,336.5C -0.5,332.5 -0.5,328.5 -0.5,324.5C 28.1323,280.687 57.7989,237.521 88.5,195C 96.1667,190.333 103.833,190.333 111.5,195C 122.833,202.667 134.167,210.333 145.5,218C 150.483,224.604 152.483,231.937 151.5,240C 154.674,241.725 158.007,243.058 161.5,244C 173.921,245.817 186.088,248.65 198,252.5C 209.686,246.07 221.186,239.237 232.5,232C 245.208,223.991 258.875,221.658 273.5,225C 289.844,230.67 306.178,236.337 322.5,242C 338.14,242.506 353.14,239.673 367.5,233.5C 366.409,226.799 368.409,220.966 373.5,216C 385.5,209 397.5,202 409.5,195C 419.055,190.755 427.555,192.255 435,199.5C 460.793,243.431 486.293,287.431 511.5,331.5 Z M 97.5,203.5 C 99.9892,203.298 102.323,203.798 104.5,205C 114.5,211.667 124.5,218.333 134.5,225C 140.588,229.261 141.088,234.094 136,239.5C 109.276,277.893 82.9423,316.559 57,355.5C 54.5881,358.792 51.4214,359.959 47.5,359C 36.672,351.419 25.672,344.085 14.5,337C 11.8059,334.347 10.9726,331.18 12,327.5C 37.6667,289.5 63.3333,251.5 89,213.5C 91.6244,209.869 94.4577,206.536 97.5,203.5 Z M 417.5,204.5 C 422.444,204.602 425.944,206.935 428,211.5C 451.667,252.5 475.333,293.5 499,334.5C 499.895,337.466 499.395,340.133 497.5,342.5C 485.833,349.333 474.167,356.167 462.5,363C 458.82,364.027 455.653,363.194 453,360.5C 428.027,317.383 403.193,274.216 378.5,231C 379.104,228.532 380.438,226.532 382.5,225C 394.23,218.14 405.896,211.307 417.5,204.5 Z M 142.5,250.5 C 148.168,252.222 153.835,254.056 159.5,256C 167.905,257.345 176.239,259.012 184.5,261C 180.4,263.467 176.566,266.301 173,269.5C 160.507,286.485 148.507,303.818 137,321.5C 134.571,335.423 140.405,343.59 154.5,346C 177.995,351.502 197.495,345.002 213,326.5C 218.5,319.667 224,312.833 229.5,306C 238.017,303.161 246.517,300.328 255,297.5C 297.74,334.452 340.573,371.285 383.5,408C 391.5,416.333 391.5,424.667 383.5,433C 377.804,436.257 372.138,436.257 366.5,433C 343.317,414.573 320.317,395.906 297.5,377C 292.31,375.195 288.976,376.862 287.5,382C 288.716,385.221 290.716,387.888 293.5,390C 313.29,405.455 332.79,421.288 352,437.5C 357.695,450.111 353.695,458.111 340,461.5C 337.416,460.896 334.916,460.063 332.5,459C 309.683,440.094 286.683,421.427 263.5,403C 256.333,401.5 253.5,404.333 255,411.5C 273.651,426.487 291.984,441.82 310,457.5C 313.868,471.958 308.368,479.124 293.5,479C 279.479,469.644 266.146,459.311 253.5,448C 245.391,443.974 241.891,446.474 243,455.5C 251.333,462.5 259.667,469.5 268,476.5C 272.233,484.867 270.733,492.033 263.5,498C 258.245,500.302 253.245,499.969 248.5,497C 240.167,490.667 231.833,484.333 223.5,478C 230.173,470.987 234.173,462.653 235.5,453C 234.096,438.163 226.096,429.496 211.5,427C 218.651,411.407 214.984,399.073 200.5,390C 192.067,386.409 183.9,386.909 176,391.5C 167.874,375.676 155.374,370.843 138.5,377C 135.035,379.463 131.869,382.296 129,385.5C 123.39,374.778 114.557,369.945 102.5,371C 97.487,372.009 92.8203,373.842 88.5,376.5C 81.0919,371.929 74.7585,366.096 69.5,359C 94.2252,323.035 118.559,286.868 142.5,250.5 Z M 103.5,382.5 C 114.48,382.977 119.647,388.643 119,399.5C 114.224,407.275 109.057,414.775 103.5,422C 94.266,426.148 87.4327,423.648 83,414.5C 82.3333,411.833 82.3333,409.167 83,406.5C 86.4175,400.663 90.0842,394.996 94,389.5C 96.529,386.115 99.6956,383.782 103.5,382.5 Z M 146.5,386.5 C 159.158,385.326 164.991,390.992 164,403.5C 154.086,419.245 143.586,434.578 132.5,449.5C 123.889,456.744 116.389,455.744 110,446.5C 108.682,443.594 108.348,440.594 109,437.5C 118.942,421.894 129.275,406.56 140,391.5C 141.965,389.45 144.132,387.783 146.5,386.5 Z M 186.5,399.5 C 196.227,399.201 201.894,403.868 203.5,413.5C 202.825,416.691 201.658,419.691 200,422.5C 188.333,439.167 176.667,455.833 165,472.5C 155.494,478.955 147.827,477.288 142,467.5C 140.993,462.889 141.66,458.555 144,454.5C 155.667,437.833 167.333,421.167 179,404.5C 181.426,402.548 183.926,400.881 186.5,399.5 Z M 205.5,439.5 C 218.804,439.293 224.304,445.627 222,458.5C 215.779,468.441 208.946,477.941 201.5,487C 194.058,491.091 187.558,489.924 182,483.5C 180.069,480.386 179.402,477.053 180,473.5C 185.243,464.584 190.909,455.917 197,447.5C 199.074,443.923 201.907,441.256 205.5,439.5 Z"/></g>
<g><path style="opacity:0.899" fill="#000000" d="M 41.5,314.5 C 52.3181,313.817 57.1514,318.817 56,329.5C 52.9596,335.603 48.1263,337.769 41.5,336C 35.3974,332.96 33.2307,328.126 35,321.5C 36.6941,318.642 38.8607,316.309 41.5,314.5 Z"/></g>
<g><path style="opacity:0.897" fill="#000000" d="M 461.5,319.5 C 473.615,318.442 478.449,323.776 476,335.5C 469.286,343.485 462.619,343.485 456,335.5C 453.548,328.622 455.381,323.289 461.5,319.5 Z"/></g>
</svg>
