<?xml version="1.0" encoding="UTF-8"?>
<svg version="1.1" xmlns="http://www.w3.org/2000/svg" width="512" height="512">
<path d="M0 0 C1.19320862 0.00031723 1.19320862 0.00031723 2.41052246 0.00064087 C14.84617868 0.03361633 26.49910705 0.8975491 38.5 4.375 C39.53229736 4.65585449 39.53229736 4.65585449 40.58544922 4.94238281 C85.36266552 17.19185517 121.49466459 47.10125673 144.9609375 86.84960938 C150.70077984 97.00783317 155.51788534 107.41219035 159.5 118.375 C160.14195312 120.04949219 160.14195312 120.04949219 160.796875 121.7578125 C177.78399695 168.62968603 175.10472994 225.56742901 154.5234375 270.875 C152.96336426 274.13520293 151.29034812 277.32296892 149.54296875 280.48632812 C148.44488539 282.47480491 147.37850996 284.47854353 146.3125 286.484375 C141.7121986 295.02177186 136.57354743 302.78839339 130.5 310.375 C129.82710938 311.2515625 129.15421875 312.128125 128.4609375 313.03125 C113.93181738 331.53275127 96.1403504 346.60777753 75.27246094 357.44775391 C73.69059382 358.27529265 72.12884051 359.1410211 70.5703125 360.01171875 C64.1506259 363.47616718 57.51732078 365.79779216 50.60546875 368.0546875 C49.63234741 368.3755835 48.65922607 368.69647949 47.65661621 369.02709961 C45.27210286 369.81291346 42.88656748 370.59545159 40.5 371.375 C40.58547592 372.32696762 40.67095184 373.27893524 40.75901794 374.25975037 C41.57080306 383.30464444 42.37982199 392.3497824 43.18624783 401.39515591 C43.60075793 406.04358899 44.01618622 410.69193593 44.43383789 415.34008789 C44.83811207 419.83976065 45.23981121 424.33965701 45.63984871 428.83970833 C45.79163098 430.54225649 45.94428556 432.24472716 46.09789848 433.94711113 C46.87052956 442.51601701 47.59241033 451.08507905 48.13305664 459.67211914 C48.17871734 460.35821731 48.22437803 461.04431547 48.27142239 461.75120449 C49.04315609 474.8442658 45.02730703 486.12489597 37.09375 496.53125 C29.59103888 504.757114 18.82675437 511.55278491 7.4921875 512.55200195 C-8.22566924 513.00693531 -20.43222538 511.16606407 -32.65625 500.4921875 C-37.11778788 496.2470675 -40.75657774 491.9008968 -43.5 486.375 C-43.89316406 485.58351563 -44.28632813 484.79203125 -44.69140625 483.9765625 C-52.94067334 463.91388505 -46.28289665 436.41333839 -44.25506592 415.40325928 C-43.7426624 410.07311013 -43.24323338 404.74173172 -42.74320221 399.41040993 C-42.35525108 395.27445872 -41.96501493 391.13877472 -41.56726074 387.00375366 C-41.49539047 386.2497377 -41.4235202 385.49572174 -41.34947205 384.71885681 C-41.15603613 382.68952733 -40.96095315 380.66035504 -40.76574707 378.63119507 C-40.44577179 375.25504606 -40.44577179 375.25504606 -40.5 371.375 C-41.55574219 371.05789063 -42.61148438 370.74078125 -43.69921875 370.4140625 C-90.50653695 355.86678292 -126.92221227 323.37087696 -149.59765625 280.28955078 C-174.59491976 231.48262437 -177.55482309 174.17842318 -160.82080078 122.26806641 C-157.53298039 112.47421328 -153.22334242 103.26777882 -148.41992188 94.13378906 C-147.62104593 92.60642645 -146.84728288 91.0659794 -146.078125 89.5234375 C-139.11295482 75.96184145 -129.69442356 63.79527941 -119.04296875 52.94873047 C-117.45092796 51.32494963 -115.88160097 49.68108971 -114.3125 48.03515625 C-91.37207592 24.23701693 -61.76481054 9.01279348 -29.5 2.375 C-28.66355957 2.19694824 -27.82711914 2.01889648 -26.96533203 1.83544922 C-17.97903354 0.11388305 -9.11567913 -0.02236439 0 0 Z M-35.5 22.375 C-36.26554199 22.58930664 -37.03108398 22.80361328 -37.81982422 23.02441406 C-59.08498436 29.14087419 -77.77685987 39.96124588 -94.5 54.375 C-95.22960937 54.98214844 -95.95921875 55.58929688 -96.7109375 56.21484375 C-101.4702699 60.23565905 -105.50333033 64.60689922 -109.5 69.375 C-110.26183594 70.23738281 -111.02367187 71.09976563 -111.80859375 71.98828125 C-136.18335602 100.08960624 -152.47183789 140.14980661 -152.703125 177.44921875 C-152.71018463 178.20660843 -152.71724426 178.96399811 -152.72451782 179.74433899 C-152.89596391 203.55844395 -150.85394663 224.60089106 -143.5 247.375 C-143.27473633 248.08076172 -143.04947266 248.78652344 -142.81738281 249.51367188 C-137.06910059 267.12798959 -128.03745583 283.8903088 -116.5 298.375 C-115.84281982 299.20136963 -115.84281982 299.20136963 -115.17236328 300.04443359 C-89.64683941 331.78358878 -54.77349516 353.21454429 -13.9375 357.80859375 C21.78149692 361.39329595 58.30848172 350.66516783 86.5625 328.5 C91.69174 324.28785512 96.64649347 319.90130384 101.5 315.375 C102.62728516 314.32892578 102.62728516 314.32892578 103.77734375 313.26171875 C136.0136738 282.27178459 151.86469043 236.25463714 153.5 192.375 C154.00371225 143.67764924 137.02232767 99.43288086 104.5 63.375 C103.48679687 62.25158203 103.48679687 62.25158203 102.453125 61.10546875 C92.98074224 51.1675629 81.42127398 43.06522997 69.5 36.375 C68.91057617 36.0440332 68.32115234 35.71306641 67.71386719 35.37207031 C36.5771101 18.16534839 -1.03621959 12.5282056 -35.5 22.375 Z M-21.5 374.375 C-22.64547156 377.81141469 -22.91939728 380.90277581 -23.25610352 384.51416016 C-23.32452454 385.23831619 -23.39294556 385.96247223 -23.46343994 386.70857239 C-23.68914285 389.11005827 -23.90935338 391.51200703 -24.12890625 393.9140625 C-24.28432691 395.59541661 -24.43984087 397.2767621 -24.59544373 398.95809937 C-24.92162848 402.49364193 -25.2447692 406.02944848 -25.56616211 409.56542969 C-25.97423927 414.04954743 -26.39258965 418.53263795 -26.81375217 423.01554298 C-27.13910648 426.49683898 -27.45730356 429.97876421 -27.77366447 433.46088791 C-27.92464704 435.11055811 -28.07807168 436.76000702 -28.2341938 438.40919876 C-29.0297558 446.8434703 -29.63871954 455.23326439 -29.69116211 463.70849609 C-29.69862489 464.40606836 -29.70608767 465.10364063 -29.71377659 465.82235146 C-29.67587122 474.58582564 -26.27492773 480.28846497 -20.43359375 486.58203125 C-12.92223818 493.54710641 -6.17706152 494.7893469 3.87890625 494.7265625 C9.22770402 494.20726175 13.05776117 492.28836122 17.5 489.375 C18.4075 488.818125 19.315 488.26125 20.25 487.6875 C28.51865269 479.18916252 29.87507315 470.52871094 29.74511719 459.21240234 C29.38007684 445.45268568 27.89541159 431.72173818 26.61914062 418.02319336 C26.20065335 413.52974429 25.79921274 409.03494983 25.40232277 404.53954792 C25.09341201 401.06210036 24.77560272 397.58551133 24.45502853 394.10912132 C24.30310981 392.44950987 24.15402896 390.78963612 24.00783157 389.12951088 C23.80419871 386.831888 23.58859156 384.53570737 23.36962891 382.23950195 C23.24971588 380.93414993 23.12980286 379.62879791 23.0062561 378.28388977 C22.83919159 377.32395615 22.67212708 376.36402252 22.5 375.375 C19.81332124 374.03166062 17.84138134 374.70309784 14.95214844 375.10839844 C10.19067716 375.62607333 5.40913766 375.51791812 0.625 375.5 C-0.39980469 375.50386719 -1.42460937 375.50773437 -2.48046875 375.51171875 C-8.88014105 375.50358702 -15.14698123 375.14821188 -21.5 374.375 Z " fill="#000000" transform="translate(281.5,-0.375)"/>
<path d="M0 0 C0.70592285 0.19867676 1.4118457 0.39735352 2.13916016 0.60205078 C19.20915109 5.53568098 33.97552794 13.14275674 48 24 C49.01320313 24.77730469 50.02640625 25.55460937 51.0703125 26.35546875 C55.96594847 30.23062474 60.3585485 34.17987153 64.3359375 38.99609375 C65.46624245 40.35723563 66.64072527 41.68262924 67.8515625 42.97265625 C95.93728736 72.90465386 108.00590626 116.61593941 106.92285156 156.8671875 C105.35417922 190.30166367 95.38303395 224.69886824 74 251 C73.29359375 251.90621094 72.5871875 252.81242188 71.859375 253.74609375 C49.63624323 281.75811824 19.1674287 299.24033114 -16.16796875 304.46875 C-18.7842777 304.74057431 -21.37158655 304.90713747 -24 305 C-24.89074219 305.03996094 -25.78148437 305.07992188 -26.69921875 305.12109375 C-62.42090801 305.94956403 -94.94528159 291.79261514 -120.6730957 267.42529297 C-141.56466795 246.9290652 -155.12620483 220.48044989 -162.75 192.4375 C-162.94875732 191.71908936 -163.14751465 191.00067871 -163.35229492 190.26049805 C-166.72286894 177.230405 -167.38046439 164.12662777 -167.3125 150.75 C-167.31034485 149.98242371 -167.3081897 149.21484741 -167.30596924 148.42401123 C-167.25336918 136.72581931 -166.81418754 125.40724149 -164 114 C-163.79600586 113.16404297 -163.59201172 112.32808594 -163.38183594 111.46679688 C-156.05632287 82.31402728 -142.87006876 57.64303427 -122 36 C-121.28457031 35.22140625 -120.56914062 34.4428125 -119.83203125 33.640625 C-90.57541083 2.68240001 -41.07862555 -11.56836958 0 0 Z M-61 19 C-61.68352539 19.20898926 -62.36705078 19.41797852 -63.07128906 19.63330078 C-80.55703191 25.16230758 -95.13797856 35.01528837 -108 48 C-108.69480469 48.64839844 -109.38960937 49.29679687 -110.10546875 49.96484375 C-133.42303172 72.05746908 -147.63024997 106.4822195 -149.16113281 138.35473633 C-149.52972194 161.35147607 -149.52972194 161.35147607 -146 184 C-145.81195801 184.8048584 -145.62391602 185.6097168 -145.43017578 186.43896484 C-139.11104244 212.92704245 -126.23307625 235.76692375 -107 255 C-106.20207031 255.79792969 -105.40414062 256.59585938 -104.58203125 257.41796875 C-84.59898599 276.35785341 -57.83554436 286.41850055 -30.5 287.25 C-1.56246251 286.36977072 23.84029436 275.4606995 45 256 C45.87269531 255.20980469 46.74539063 254.41960937 47.64453125 253.60546875 C74.44700641 228.1536695 87.69464409 190.58098952 88.9609375 154.21875 C89.51085453 123.47019755 80.78542524 95.16288073 65 69 C59.94751041 70.52727347 56.71194411 73.60582008 52.875 77.0625 C51.53229887 78.24988504 50.18854286 79.43607826 48.84375 80.62109375 C48.18761719 81.20101074 47.53148437 81.78092773 46.85546875 82.37841797 C43.56530807 85.25384523 40.1631958 87.98783573 36.765625 90.734375 C34.69251433 92.432686 32.64451952 94.14784692 30.609375 95.890625 C30.03010254 96.3861084 29.45083008 96.8815918 28.85400391 97.39208984 C27.73381174 98.35284206 26.6161293 99.31653142 25.50146484 100.28369141 C21.11233796 104.04481645 16.92847468 107.56620917 11 108 C7.6875 107.0625 7.6875 107.0625 5 106 C4.09042907 100.7244886 3.51922366 96.96155267 6 92 C6.55171875 91.73058594 7.1034375 91.46117187 7.671875 91.18359375 C11.06169084 89.46024778 13.72672475 86.9334302 16.5625 84.4375 C17.82206003 83.34276361 19.08248534 82.24902202 20.34375 81.15625 C20.96507812 80.61742188 21.58640625 80.07859375 22.2265625 79.5234375 C25.49495306 76.71578922 28.85002477 74.01572545 32.1953125 71.30078125 C36.03239055 68.15309466 39.81276023 64.94013753 43.58618164 61.71655273 C46.32711325 59.38238136 49.0885793 57.11867241 52 55 C50.63422544 50.71506993 48.79318655 48.56854295 45.375 45.6875 C44.55773437 44.99011719 43.74046875 44.29273437 42.8984375 43.57421875 C42.27195312 43.05472656 41.64546875 42.53523438 41 42 C36.96194134 43.36266644 34.45631882 45.1409151 31.375 48.0625 C27.01831707 52.09741905 22.53078811 55.88479243 17.9140625 59.6171875 C15.31405851 61.74319612 12.7553885 63.90660153 10.20654297 66.09301758 C5.39606833 70.20985235 0.5444148 74.27925342 -4.4375 78.1875 C-5.36433594 78.92355469 -6.29117188 79.65960938 -7.24609375 80.41796875 C-10.46867539 82.26923905 -12.34067938 82.38330872 -16 82 C-19.7 80.6 -19.7 80.6 -21 78 C-21.69767442 70.90697674 -21.69767442 70.90697674 -19.125 67.5625 C-18.09346425 66.69612587 -17.04982665 65.84411737 -16 65 C-14.45568059 63.58622558 -12.91432116 62.16921489 -11.375 60.75 C-6.99846861 56.83245492 -2.5018966 53.09404271 2.0625 49.3984375 C5.88533356 46.27713456 9.64866619 43.08864674 13.40942383 39.89306641 C16.9227724 36.90791175 20.45442197 33.94669863 24 31 C20.77853585 27.29043522 17.19602847 25.39592661 12.75 23.5 C12.05342285 23.19884277 11.3568457 22.89768555 10.63916016 22.58740234 C3.29200649 19.52567657 -4.21172708 17.6060075 -12 16 C-12.89976562 15.80792969 -13.79953125 15.61585937 -14.7265625 15.41796875 C-30.23710838 13.43750525 -46.07445247 14.37343479 -61 19 Z " fill="#000000" transform="translate(312,37)"/>
<path d="M0 0 C3.27361212 1.33920496 4.63077629 2.24211976 6.1875 5.4375 C6.90153651 8.56827546 7.4026503 11.63927892 7.875 14.8125 C9.66396219 25.94534932 15.05616938 35.4983315 23.90625 42.62109375 C31.3627839 47.53183342 39.2986829 49.55203469 48.08984375 50.4453125 C51.34739942 51.06621573 53.3522201 52.0165041 56 54 C57.5402467 57.61623139 58.25271313 59.88806222 57.375 63.75 C55.77523976 66.36778948 54.62977567 67.40920128 52 69 C49.47937656 69.53648404 47.04402147 69.95867978 44.5 70.3125 C33.76197954 72.06749445 23.42261202 76.2491219 16.453125 84.92578125 C11.07619229 92.41888302 8.28001171 100.27158675 7.0625 109.375 C6.48036089 113.20617192 6.0427944 114.93454974 3.875 118.25 C-0.20349132 120.73255993 -2.26420023 120.67654282 -7 120 C-10.17475298 117.70680275 -10.93443426 116.25858901 -11.90625 112.42578125 C-12.11628319 111.05649124 -12.31370889 109.68522164 -12.5 108.3125 C-14.73113739 94.50217996 -20.66734348 84.52427225 -32 76 C-39.42391092 71.99484985 -46.60100146 70.34023299 -54.96875 69.65234375 C-58.55329181 68.88092818 -59.79108968 67.88254964 -62 65 C-63.06435104 61.09737951 -63.39739585 58.94120071 -61.8125 55.1875 C-58.20421752 50.83267632 -53.72608268 50.519391 -48.375 49.6875 C-36.98621351 47.70706513 -27.27115787 43.20750158 -20.27734375 33.64453125 C-15.63166807 26.28221967 -13.27985519 19.33792316 -12.125 10.75 C-11.51097886 6.80415921 -11.07518683 5.1086032 -8.75 1.75 C-5.42743924 -0.36435685 -3.86961705 -0.64493618 0 0 Z M-3 41 C-3.4846875 41.64066406 -3.969375 42.28132813 -4.46875 42.94140625 C-14.32846715 55.66423358 -14.32846715 55.66423358 -21 59 C-19.6318615 62.2476015 -18.31142233 63.71808032 -15.375 65.625 C-10.24992237 69.26699656 -6.72295588 73.98985192 -3 79 C-0.21340573 76.29536439 2.36595502 73.57878834 4.8125 70.5625 C7.64335502 67.17730001 10.82906764 64.74417661 14.4609375 62.26171875 C15.22277344 61.63716797 15.22277344 61.63716797 16 61 C16 60.34 16 59.68 16 59 C14.47529586 57.72763034 14.47529586 57.72763034 12.5 56.4375 C8.31911494 53.42251006 5.09419643 49.96458363 1.76171875 46.05078125 C0.24020964 44.2796232 -1.3244712 42.62397407 -3 41 Z " fill="#000000" transform="translate(233,119)"/>
<path d="M0 0 C0.7528125 -0.0103125 1.505625 -0.020625 2.28125 -0.03125 C5.42966537 0.72259593 6.55453442 1.92845586 8.5 4.5 C9.37109375 7.671875 9.37109375 7.671875 9.9375 11.25 C11.44502794 18.97207133 13.43295184 24.58697356 19.9375 29.3125 C24.71622907 32.05364478 29.94319611 32.77648847 35.328125 33.62890625 C38.87456128 34.60286597 40.24129163 35.64689469 42.5 38.5 C43.58419635 41.52026127 43.63343632 43.03297289 42.75 46.125 C41.4743403 48.54875344 40.63148364 49.80586181 38.5 51.5 C35.64453125 52.2734375 35.64453125 52.2734375 32.3125 52.875 C23.46696806 54.77398517 17.734684 58.10985788 12.5 65.5 C10.87864895 69.01880174 10.1465929 72.23571127 9.625 76.0625 C9.0437368 79.3592829 8.63710285 81.2867289 6.8125 84.125 C3.61868866 86.02402296 1.20877123 86.43493384 -2.5 86.5 C-5.5904604 85.26381584 -7.02513726 84.32476159 -8.6875 81.4375 C-9.40591842 78.84014111 -9.86498012 76.34007237 -10.3125 73.6875 C-11.53224835 67.29335042 -14.22979746 62.71046037 -18.875 58.1875 C-23.74035889 55.05976929 -28.04094316 53.51743241 -33.6875 52.5625 C-36.81473306 51.97792604 -38.39481434 51.57183411 -41.0625 49.75 C-42.90182509 46.87105637 -43.43018534 44.9209181 -43.5 41.5 C-42.1260627 38.62127423 -40.75010563 36.75010563 -38.5 34.5 C-36.26385839 33.97823362 -34.0101548 33.53030202 -31.75 33.125 C-26.48349149 32.03945437 -22.58150663 31.17335597 -18.5 27.5 C-17.99210937 27.0875 -17.48421875 26.675 -16.9609375 26.25 C-12.20786096 21.75447933 -11.15720385 16.40099409 -9.96826172 10.18652344 C-8.73550117 4.09985921 -6.71223541 -0.09194843 0 0 Z M-0.5 35.5 C-2.81 37.81 -5.12 40.12 -7.5 42.5 C-6.571875 43.655 -5.64375 44.81 -4.6875 46 C-4.16542969 46.6496875 -3.64335938 47.299375 -3.10546875 47.96875 C-1.50795167 49.84509128 -1.50795167 49.84509128 1.5 49.5 C3.17845419 47.96646436 3.17845419 47.96646436 4.6875 46 C5.21730469 45.3503125 5.74710938 44.700625 6.29296875 44.03125 C6.69128906 43.5259375 7.08960938 43.020625 7.5 42.5 C6.736875 41.901875 5.97375 41.30375 5.1875 40.6875 C2.5 38.5 2.5 38.5 -0.5 35.5 Z " fill="#000000" transform="translate(102.5,-0.5)"/>
</svg>
