<?xml version="1.0" encoding="UTF-8"?>
<!DOCTYPE svg PUBLIC "-//W3C//DTD SVG 1.1//EN" "http://www.w3.org/Graphics/SVG/1.1/DTD/svg11.dtd">
<svg xmlns="http://www.w3.org/2000/svg" version="1.1" width="512px" height="512px" style="shape-rendering:geometricPrecision; text-rendering:geometricPrecision; image-rendering:optimizeQuality; fill-rule:evenodd; clip-rule:evenodd" xmlns:xlink="http://www.w3.org/1999/xlink">
<g><path style="opacity:0.939" fill="#000000" d="M 97.5,-0.5 C 100.5,-0.5 103.5,-0.5 106.5,-0.5C 107.458,0.961599 108.624,2.29493 110,3.5C 110.05,16.1247 115.55,25.2913 126.5,31C 131.114,32.2137 135.78,33.2137 140.5,34C 147.167,39.3333 147.167,44.6667 140.5,50C 121.632,51.5344 111.466,61.7011 110,80.5C 105.641,86.0068 100.641,86.6735 95,82.5C 93.5755,75.2066 91.2422,68.2066 88,61.5C 85.0111,57.5094 81.1778,54.676 76.5,53C 71.3673,52.1251 66.3673,50.7918 61.5,49C 57.2591,43.3769 57.9258,38.3769 63.5,34C 82.3292,32.5041 92.4959,22.3374 94,3.5C 95.3756,2.29493 96.5423,0.961599 97.5,-0.5 Z M 101.5,34.5 C 103.641,37.4718 106.308,39.9718 109.5,42C 107,44.5 104.5,47 102,49.5C 99.5,47 97,44.5 94.5,42C 97.0386,39.6303 99.3719,37.1303 101.5,34.5 Z"/></g>
<g><path style="opacity:0.937" fill="#000000" d="M 263.5,-0.5 C 275.5,-0.5 287.5,-0.5 299.5,-0.5C 362.065,10.552 406.898,44.8853 434,102.5C 459.087,160.791 458.421,218.791 432,276.5C 408.438,323.77 371.438,355.104 321,370.5C 323.678,402.126 326.511,433.793 329.5,465.5C 326.752,489.731 313.752,505.064 290.5,511.5C 284.167,511.5 277.833,511.5 271.5,511.5C 242.584,502.038 230.084,482.038 234,451.5C 236.578,424.475 238.912,397.475 241,370.5C 180.889,351.056 140.555,311.39 120,251.5C 100.02,184.004 110.354,121.671 151,64.5C 179.954,27.9428 217.454,6.27614 263.5,-0.5 Z M 265.5,17.5 C 326.561,15.2782 373.727,39.6116 407,90.5C 443.143,154.312 443.476,218.312 408,282.5C 366.837,345.493 309.67,367.993 236.5,350C 184.2,329.282 150.367,291.782 135,237.5C 117.713,167.801 133.879,107.301 183.5,56C 206.903,34.7984 234.237,21.9651 265.5,17.5 Z M 268.5,51.5 C 292.627,49.3558 314.96,54.5225 335.5,67C 320.945,79.8565 306.111,92.3565 291,104.5C 287.265,116.43 291.432,120.93 303.5,118C 319.354,104.644 335.354,91.4778 351.5,78.5C 356.5,81.5 360.5,85.5 363.5,90.5C 348.192,103.471 332.858,116.471 317.5,129.5C 313.03,136.923 314.864,142.256 323,145.5C 325.175,144.745 327.341,143.912 329.5,143C 344.688,130.311 360.022,117.811 375.5,105.5C 402.186,148.451 407.02,193.784 390,241.5C 374.723,281.113 346.89,307.279 306.5,320C 252.164,328.581 210.664,309.415 182,262.5C 158.289,217.128 156.289,170.795 176,123.5C 195.098,84.2155 225.931,60.2155 268.5,51.5 Z M 229.5,159.5 C 234.785,166.785 241.118,173.118 248.5,178.5C 241.173,183.661 235.006,189.994 230,197.5C 227.333,194.167 224.667,190.833 222,187.5C 218.328,184.658 214.828,181.658 211.5,178.5C 218.901,173.434 224.901,167.101 229.5,159.5 Z M 259.5,373.5 C 273.669,376.125 287.836,376.125 302,373.5C 305.259,399.333 307.925,425.333 310,451.5C 313.774,466.845 309.608,479.345 297.5,489C 275.808,498.734 260.641,492.567 252,470.5C 253.325,438.085 255.825,405.752 259.5,373.5 Z"/></g>
<g><path style="opacity:0.935" fill="#000000" d="M 266.5,33.5 C 325.351,31.1679 369.185,55.5012 398,106.5C 425.701,162.652 424.701,218.319 395,273.5C 355.274,334.438 300.774,353.605 231.5,331C 189.629,310.473 162.462,277.64 150,232.5C 137.166,180.975 145.499,133.308 175,89.5C 197.959,58.4404 228.459,39.7738 266.5,33.5 Z M 268.5,51.5 C 225.931,60.2155 195.098,84.2155 176,123.5C 156.289,170.795 158.289,217.128 182,262.5C 210.664,309.415 252.164,328.581 306.5,320C 346.89,307.279 374.723,281.113 390,241.5C 407.02,193.784 402.186,148.451 375.5,105.5C 360.022,117.811 344.688,130.311 329.5,143C 327.341,143.912 325.175,144.745 323,145.5C 314.864,142.256 313.03,136.923 317.5,129.5C 332.858,116.471 348.192,103.471 363.5,90.5C 360.5,85.5 356.5,81.5 351.5,78.5C 335.354,91.4778 319.354,104.644 303.5,118C 291.432,120.93 287.265,116.43 291,104.5C 306.111,92.3565 320.945,79.8565 335.5,67C 314.96,54.5225 292.627,49.3558 268.5,51.5 Z M 229.5,159.5 C 224.901,167.101 218.901,173.434 211.5,178.5C 214.828,181.658 218.328,184.658 222,187.5C 224.667,190.833 227.333,194.167 230,197.5C 235.006,189.994 241.173,183.661 248.5,178.5C 241.118,173.118 234.785,166.785 229.5,159.5 Z"/></g>
<g><path style="opacity:0.939" fill="#000000" d="M 226.5,118.5 C 230.422,118.069 233.922,119.069 237,121.5C 237.801,137.262 243.968,150.429 255.5,161C 263.972,166.602 273.305,169.602 283.5,170C 291.015,174.191 292.015,179.524 286.5,186C 273.848,186.994 262.514,191.327 252.5,199C 247.826,203.346 244.326,208.513 242,214.5C 240.414,221.537 238.747,228.537 237,235.5C 231.643,239.787 226.643,239.453 222,234.5C 220.156,204.656 204.322,188.822 174.5,187C 168.398,181.958 168.065,176.625 173.5,171C 203.218,168.948 219.385,153.115 222,123.5C 223.025,121.313 224.525,119.646 226.5,118.5 Z M 229.5,159.5 C 224.901,167.101 218.901,173.434 211.5,178.5C 214.828,181.658 218.328,184.658 222,187.5C 224.667,190.833 227.333,194.167 230,197.5C 235.006,189.994 241.173,183.661 248.5,178.5C 241.118,173.118 234.785,166.785 229.5,159.5 Z"/></g>
</svg>
