<?xml version="1.0" encoding="UTF-8"?>
<!DOCTYPE svg PUBLIC "-//W3C//DTD SVG 1.1//EN" "http://www.w3.org/Graphics/SVG/1.1/DTD/svg11.dtd">
<svg xmlns="http://www.w3.org/2000/svg" version="1.1" width="512px" height="512px" style="shape-rendering:geometricPrecision; text-rendering:geometricPrecision; image-rendering:optimizeQuality; fill-rule:evenodd; clip-rule:evenodd" xmlns:xlink="http://www.w3.org/1999/xlink">
<g><path style="opacity:0.946" fill="#000000" d="M 230.5,-0.5 C 247.167,-0.5 263.833,-0.5 280.5,-0.5C 304.582,1.35773 327.249,8.19107 348.5,20C 354.645,24.6938 354.979,29.6938 349.5,35C 346.833,35.6667 344.167,35.6667 341.5,35C 325.152,25.2171 307.485,19.2171 288.5,17C 260.705,13.7329 233.038,14.7329 205.5,20C 170.286,27.3183 147.786,48.1516 138,82.5C 131.909,104.912 132.243,127.246 139,149.5C 142.627,152.962 146.127,156.629 149.5,160.5C 152.142,156.691 154.975,153.024 158,149.5C 160.16,137.947 161.826,126.28 163,114.5C 166.339,92.1481 179.172,80.9814 201.5,81C 211.482,83.6595 221.482,86.3261 231.5,89C 256.164,93.4818 280.164,91.1485 303.5,82C 328.634,78.5008 343.468,89.3342 348,114.5C 349.385,125.508 350.718,136.508 352,147.5C 355.167,151.833 358.333,156.167 361.5,160.5C 364.873,156.629 368.373,152.962 372,149.5C 381.82,114.862 377.654,82.0288 359.5,51C 362.473,41.8069 367.64,40.3069 375,46.5C 393.892,80.2543 398.059,115.754 387.5,153C 400.371,161.402 406.704,173.402 406.5,189C 406.576,203.178 401.243,214.845 390.5,224C 383.996,228.212 376.996,229.712 369.5,228.5C 358.834,269.661 333.834,298.161 294.5,314C 293.167,316.333 293.167,318.667 294.5,321C 300.123,324.955 305.457,329.288 310.5,334C 355.038,335.006 386.871,355.506 406,395.5C 409.749,404.828 412.082,414.495 413,424.5C 413.5,438.496 413.667,452.496 413.5,466.5C 430.928,466.028 448.261,466.528 465.5,468C 467.617,469.731 469.117,471.898 470,474.5C 470.667,484.167 470.667,493.833 470,503.5C 468.695,506.961 466.529,509.628 463.5,511.5C 446.167,511.5 428.833,511.5 411.5,511.5C 406.232,506.663 406.232,501.829 411.5,497C 425.829,496.5 440.163,496.333 454.5,496.5C 454.5,491.5 454.5,486.5 454.5,481.5C 321.833,481.5 189.167,481.5 56.5,481.5C 56.5,486.5 56.5,491.5 56.5,496.5C 166.834,496.333 277.167,496.5 387.5,497C 390.366,498.393 391.699,500.726 391.5,504C 391.57,507.366 390.237,509.866 387.5,511.5C 274.167,511.5 160.833,511.5 47.5,511.5C 44.4713,509.628 42.3046,506.961 41,503.5C 40.3333,493.833 40.3333,484.167 41,474.5C 41.8834,471.898 43.3834,469.731 45.5,468C 62.739,466.528 80.0724,466.028 97.5,466.5C 97.5,462.5 97.5,458.5 97.5,454.5C 87.8276,454.666 78.1609,454.5 68.5,454C 63.0896,452.257 59.2563,448.757 57,443.5C 56.3333,424.833 56.3333,406.167 57,387.5C 63.4365,367.512 77.2698,357.679 98.5,358C 90.9336,343.7 83.7669,329.2 77,314.5C 75.0084,294.159 84.1751,284.659 104.5,286C 109.861,287.432 114.361,290.266 118,294.5C 126.823,312.814 136.156,330.814 146,348.5C 162.742,338.439 180.908,333.606 200.5,334C 205.724,329.141 211.224,324.641 217,320.5C 217.758,318.231 217.591,316.064 216.5,314C 204.855,310.097 194.355,304.264 185,296.5C 182.425,289.574 184.758,285.24 192,283.5C 202.643,289.904 213.809,295.404 225.5,300C 274.079,311.703 312.579,297.203 341,256.5C 348.572,243.786 352.906,230.119 354,215.5C 339.149,231.759 320.982,236.926 299.5,231C 280.759,223.756 269.426,210.256 265.5,190.5C 258.833,190.5 252.167,190.5 245.5,190.5C 241.574,210.256 230.241,223.756 211.5,231C 190.018,236.926 171.851,231.759 157,215.5C 157.252,224.845 159.252,233.845 163,242.5C 166.906,251.318 171.573,259.652 177,267.5C 177.054,276.396 172.887,279.229 164.5,276C 152.719,262.269 145.386,246.436 142.5,228.5C 118.607,230.462 104.773,219.462 101,195.5C 98.8071,175.678 105.974,160.511 122.5,150C 112.496,110.862 118.329,74.3623 140,40.5C 153.558,23.9597 170.724,12.793 191.5,7C 204.456,3.50764 217.456,1.00764 230.5,-0.5 Z M 194.5,96.5 C 206.211,99.0117 217.877,101.845 229.5,105C 246.833,108.333 264.167,108.333 281.5,105C 292.253,102.471 302.919,99.6376 313.5,96.5C 322.973,97.8046 328.806,103.138 331,112.5C 332.615,119.781 333.782,127.114 334.5,134.5C 334,134.833 333.5,135.167 333,135.5C 306.536,127.983 285.87,135.65 271,158.5C 268.261,163.885 266.427,169.551 265.5,175.5C 258.833,175.5 252.167,175.5 245.5,175.5C 238.401,145.587 219.401,131.42 188.5,133C 184.943,133.598 181.443,134.431 178,135.5C 176.999,126.922 177.999,118.256 181,109.5C 183.442,102.888 187.942,98.555 194.5,96.5 Z M 190.5,148.5 C 210.237,147.776 223.07,156.776 229,175.5C 231.674,197.808 222.174,211.642 200.5,217C 180.742,218.206 167.908,209.372 162,190.5C 159.529,168.17 169.029,154.17 190.5,148.5 Z M 310.5,148.5 C 330.237,147.776 343.07,156.776 349,175.5C 351.674,197.808 342.174,211.642 320.5,217C 300.742,218.206 287.908,209.372 282,190.5C 279.529,168.17 289.029,154.17 310.5,148.5 Z M 129.5,165.5 C 131.903,165.393 133.736,166.393 135,168.5C 137.133,172.232 138.466,176.232 139,180.5C 139.667,190.833 139.667,201.167 139,211.5C 132.169,214.339 126.502,212.672 122,206.5C 114.721,194.899 114.721,183.233 122,171.5C 124.478,169.361 126.978,167.361 129.5,165.5 Z M 377.5,166.5 C 383.557,168.731 387.39,173.064 389,179.5C 392.475,191.771 389.642,202.271 380.5,211C 377.688,212.549 374.688,213.382 371.5,213.5C 371.333,202.495 371.5,191.495 372,180.5C 372.57,175.283 374.403,170.617 377.5,166.5 Z M 134.5,364.5 C 129.143,360.654 123.143,358.321 116.5,357.5C 108.411,342.323 100.578,326.99 93,311.5C 91.4547,305.911 93.4547,302.578 99,301.5C 101.406,301.703 103.406,302.703 105,304.5C 115.116,324.399 124.95,344.399 134.5,364.5 Z M 233.5,319.5 C 233.735,318.903 234.235,318.57 235,318.5C 249.18,320.952 263.347,321.118 277.5,319C 270.299,323.698 262.965,328.198 255.5,332.5C 248.149,328.139 240.816,323.806 233.5,319.5 Z M 225.5,333.5 C 231.806,337.322 238.139,341.155 244.5,345C 240.791,350.919 236.958,356.752 233,362.5C 227.167,356.167 221.333,349.833 215.5,343.5C 218.867,340.16 222.2,336.827 225.5,333.5 Z M 284.5,333.5 C 288.365,336.602 292.032,339.935 295.5,343.5C 289.667,349.833 283.833,356.167 278,362.5C 274.042,356.752 270.209,350.919 266.5,345C 272.734,341.392 278.734,337.559 284.5,333.5 Z M 186.5,350.5 C 191.179,350.334 195.845,350.501 200.5,351C 209.13,361.298 218.13,371.298 227.5,381C 233.386,384.69 238.553,383.856 243,378.5C 246.916,371.665 251.083,364.998 255.5,358.5C 260.71,366.42 266.043,374.253 271.5,382C 275.698,384.161 279.698,383.828 283.5,381C 292.87,371.298 301.87,361.298 310.5,351C 349.296,351.131 376.462,368.964 392,404.5C 394.454,411.314 396.12,418.314 397,425.5C 397.5,439.163 397.667,452.829 397.5,466.5C 329.497,466.833 261.497,466.5 193.5,465.5C 192.741,456.519 191.908,447.519 191,438.5C 178.109,413.884 165.609,389.051 153.5,364C 156.569,360.952 160.235,358.619 164.5,357C 171.77,354.188 179.104,352.021 186.5,350.5 Z M 88.5,374.5 C 98.8387,374.334 109.172,374.5 119.5,375C 121.587,375.792 123.421,376.959 125,378.5C 126.639,396.409 126.973,414.409 126,432.5C 124.833,435 123,436.833 120.5,438C 104.503,438.5 88.5035,438.667 72.5,438.5C 72.3334,422.163 72.5001,405.83 73,389.5C 76.1058,382.225 81.2724,377.225 88.5,374.5 Z M 142.5,379.5 C 152.726,398.95 162.726,418.616 172.5,438.5C 168.993,440.754 165.327,442.754 161.5,444.5C 154.587,433.681 148.42,422.348 143,410.5C 142.5,400.172 142.334,389.839 142.5,379.5 Z M 253.5,415.5 C 260.465,415.961 263.632,419.628 263,426.5C 260.774,430.861 257.274,432.361 252.5,431C 245.754,425.512 246.088,420.346 253.5,415.5 Z M 139.5,440.5 C 143.226,446.947 146.726,453.614 150,460.5C 151.873,462.709 154.04,464.542 156.5,466C 142.171,466.5 127.837,466.667 113.5,466.5C 113.5,462.5 113.5,458.5 113.5,454.5C 125.435,455.538 134.102,450.871 139.5,440.5 Z M 174.5,455.5 C 175.693,455.97 176.36,456.97 176.5,458.5C 176.333,459.5 176.167,460.5 176,461.5C 174.647,460.315 173.48,458.981 172.5,457.5C 173.243,456.818 173.909,456.151 174.5,455.5 Z"/></g>
<g><path style="opacity:0.908" fill="#000000" d="M 237.5,248.5 C 243.509,249.035 249.509,249.701 255.5,250.5C 261.491,249.532 267.491,249.032 273.5,249C 277.861,251.226 279.361,254.726 278,259.5C 277.167,261.667 275.667,263.167 273.5,264C 261.5,267.333 249.5,267.333 237.5,264C 232.465,260.987 231.298,256.82 234,251.5C 235.145,250.364 236.312,249.364 237.5,248.5 Z"/></g>
<g><path style="opacity:0.929" fill="#000000" d="M 251.5,399.5 C 270.498,399.995 279.665,409.662 279,428.5C 274.612,443.12 264.779,449.287 249.5,447C 235.918,442.347 230.085,432.847 232,418.5C 235.095,408.57 241.595,402.237 251.5,399.5 Z M 253.5,415.5 C 246.088,420.346 245.754,425.512 252.5,431C 257.274,432.361 260.774,430.861 263,426.5C 263.632,419.628 260.465,415.961 253.5,415.5 Z"/></g>
</svg>
