<?xml version="1.0" encoding="UTF-8"?>
<!DOCTYPE svg PUBLIC "-//W3C//DTD SVG 1.1//EN" "http://www.w3.org/Graphics/SVG/1.1/DTD/svg11.dtd">
<svg xmlns="http://www.w3.org/2000/svg" version="1.1" width="512px" height="512px" style="shape-rendering:geometricPrecision; text-rendering:geometricPrecision; image-rendering:optimizeQuality; fill-rule:evenodd; clip-rule:evenodd" xmlns:xlink="http://www.w3.org/1999/xlink">
<g><path style="opacity:0.93" fill="#000000" d="M 271.5,-0.5 C 283.833,-0.5 296.167,-0.5 308.5,-0.5C 375.2,9.43062 421.7,45.4306 448,107.5C 468.831,167.882 460.164,223.549 422,274.5C 380.658,322.067 328.491,342.567 265.5,336C 262.126,341.916 258.626,347.75 255,353.5C 245.455,364.792 233.455,369.125 219,366.5C 194.414,408.67 170.081,451.004 146,493.5C 140.311,502.362 132.478,508.362 122.5,511.5C 116.833,511.5 111.167,511.5 105.5,511.5C 83.9159,503.704 75.0825,488.371 79,465.5C 80.3926,461.714 82.0593,458.048 84,454.5C 108.086,413.33 131.919,371.997 155.5,330.5C 146.615,318.474 144.782,305.474 150,291.5C 152.46,286.077 155.293,280.91 158.5,276C 150.962,265.768 144.295,254.935 138.5,243.5C 111.565,245.269 88.732,236.603 70,217.5C 46.6035,186.537 45.6035,154.87 67,122.5C 85.1209,100.235 108.454,90.9022 137,94.5C 165.864,40.3105 210.697,8.64381 271.5,-0.5 Z M 287.5,15.5 C 352.79,18.04 399.956,48.3733 429,106.5C 450.573,159.729 445.24,210.062 413,257.5C 370.842,310.001 316.675,329.167 250.5,315C 208.032,302.52 176.365,276.854 155.5,238C 159.971,234.927 164.638,232.094 169.5,229.5C 205.123,289.005 257.123,311.838 325.5,298C 388.174,277.339 421.174,234.006 424.5,168C 422.386,113.269 397.386,72.936 349.5,47C 295.755,24.1176 246.088,30.7843 200.5,67C 188.078,78.1969 178.078,91.1969 170.5,106C 165.857,104.184 161.19,102.017 156.5,99.5C 155.432,97.8125 155.599,96.1459 157,94.5C 186.554,45.2992 230.054,18.9659 287.5,15.5 Z M 280.5,50.5 C 340.064,49.848 380.564,77.1813 402,132.5C 414.823,179.713 403.99,220.546 369.5,255C 326.008,290.371 279.341,295.038 229.5,269C 208.986,256.481 193.653,239.314 183.5,217.5C 207.479,184.632 207.479,151.799 183.5,119C 203.659,78.9211 235.992,56.0877 280.5,50.5 Z M 285.5,97.5 C 313.201,98.6956 325.701,113.029 323,140.5C 316.218,158.947 303.051,167.114 283.5,165C 266.631,160.46 257.298,149.46 255.5,132C 257.221,113.123 267.221,101.623 285.5,97.5 Z M 118.5,110.5 C 151.86,109.379 173.36,124.712 183,156.5C 186.74,182.848 177.573,203.348 155.5,218C 123.632,232.594 97.4658,225.761 77,197.5C 64.9645,174.454 66.6312,152.454 82,131.5C 91.9306,120.456 104.097,113.456 118.5,110.5 Z M 254.5,170.5 C 259.647,173.432 264.981,176.265 270.5,179C 289.939,185.912 307.772,183.079 324,170.5C 333.152,176.436 339.152,184.769 342,195.5C 343.411,209.783 343.911,224.116 343.5,238.5C 337.833,238.5 332.167,238.5 326.5,238.5C 326.666,229.161 326.5,219.827 326,210.5C 322.634,205.391 318.134,204.224 312.5,207C 311.299,207.903 310.465,209.069 310,210.5C 309.5,219.827 309.334,229.161 309.5,238.5C 296.5,238.5 283.5,238.5 270.5,238.5C 270.666,229.161 270.5,219.827 270,210.5C 266.634,205.391 262.134,204.224 256.5,207C 255.299,207.903 254.465,209.069 254,210.5C 253.5,219.827 253.334,229.161 253.5,238.5C 247.833,238.5 242.167,238.5 236.5,238.5C 236.109,224.122 236.609,209.789 238,195.5C 241.029,185.415 246.529,177.082 254.5,170.5 Z M 170.5,289.5 C 192.963,309.24 218.63,323.573 247.5,332.5C 244.359,339.802 239.359,345.302 232.5,349C 226.718,351.07 221.051,350.737 215.5,348C 201.331,339.414 186.997,331.081 172.5,323C 164.362,315.963 162.195,307.463 166,297.5C 167.765,294.968 169.265,292.301 170.5,289.5 Z M 169.5,341.5 C 180.636,347.569 191.636,353.902 202.5,360.5C 178.134,402.371 153.967,444.371 130,486.5C 119.333,498.5 108.667,498.5 98,486.5C 93.9162,480.006 93.5828,473.339 97,466.5C 121.178,424.806 145.345,383.139 169.5,341.5 Z"/></g>
<g><path style="opacity:0.937" fill="#000000" d="M 283.5,80.5 C 309.13,79.3166 327.296,90.3166 338,113.5C 343.058,127.991 342.224,142.157 335.5,156C 349.472,166.773 357.639,180.94 360,198.5C 360.667,213.167 360.667,227.833 360,242.5C 358.311,247.525 355.144,251.359 350.5,254C 311.226,255.649 271.893,255.982 232.5,255C 227.475,253.311 223.641,250.144 221,245.5C 219.398,230.221 219.065,214.888 220,199.5C 222.579,181.842 230.745,167.342 244.5,156C 233.759,130.978 238.425,109.311 258.5,91C 266.14,85.6267 274.473,82.1267 283.5,80.5 Z M 285.5,97.5 C 267.221,101.623 257.221,113.123 255.5,132C 257.298,149.46 266.631,160.46 283.5,165C 303.051,167.114 316.218,158.947 323,140.5C 325.701,113.029 313.201,98.6956 285.5,97.5 Z M 254.5,170.5 C 246.529,177.082 241.029,185.415 238,195.5C 236.609,209.789 236.109,224.122 236.5,238.5C 242.167,238.5 247.833,238.5 253.5,238.5C 253.334,229.161 253.5,219.827 254,210.5C 254.465,209.069 255.299,207.903 256.5,207C 262.134,204.224 266.634,205.391 270,210.5C 270.5,219.827 270.666,229.161 270.5,238.5C 283.5,238.5 296.5,238.5 309.5,238.5C 309.334,229.161 309.5,219.827 310,210.5C 310.465,209.069 311.299,207.903 312.5,207C 318.134,204.224 322.634,205.391 326,210.5C 326.5,219.827 326.666,229.161 326.5,238.5C 332.167,238.5 337.833,238.5 343.5,238.5C 343.911,224.116 343.411,209.783 342,195.5C 339.152,184.769 333.152,176.436 324,170.5C 307.772,183.079 289.939,185.912 270.5,179C 264.981,176.265 259.647,173.432 254.5,170.5 Z"/></g>
<g><path style="opacity:0.905" fill="#000000" d="M 153.5,140.5 C 164.063,139.895 167.563,144.561 164,154.5C 150.471,168.363 136.638,181.863 122.5,195C 118.467,196.04 114.801,195.374 111.5,193C 103.302,185.137 95.469,176.97 88,168.5C 86.5,159.333 90.3333,155.5 99.5,157C 105.983,162.649 112.317,168.483 118.5,174.5C 130.214,163.118 141.881,151.785 153.5,140.5 Z"/></g>
</svg>
