<?xml version="1.0" encoding="UTF-8"?>
<svg version="1.1" xmlns="http://www.w3.org/2000/svg" width="512" height="512">
<path d="M0 0 C2.3230249 0.01611516 4.64431129 0.00000981 6.96728516 -0.01904297 C21.31314826 -0.03997634 35.35697663 1.95722816 49.13525391 6.01611328 C49.99932861 6.26917236 50.86340332 6.52223145 51.75366211 6.78295898 C94.59458518 19.83227241 129.94219062 49.11023055 151.66162109 88.16137695 C164.02942371 111.37222335 170.81988849 137.15991486 171.82275391 163.39111328 C171.86400391 164.39787109 171.90525391 165.40462891 171.94775391 166.44189453 C172.8921909 212.8963892 154.03714397 254.77990398 122.82275391 288.39111328 C122.24525391 289.03435547 121.66775391 289.67759766 121.07275391 290.34033203 C94.231627 318.9189426 51.62674515 336.52536837 12.83837891 338.34033203 C11.84322266 338.35708984 10.84806641 338.37384766 9.82275391 338.39111328 C8.58009766 338.41818359 7.33744141 338.44525391 6.05712891 338.47314453 C-3.38620386 338.60521108 -12.76309795 338.09216687 -22.17724609 337.39111328 C-22.81791016 338.53708984 -23.45857422 339.68306641 -24.11865234 340.86376953 C-31.62940353 354.11040118 -38.18782415 363.70300908 -53.68115234 368.10205078 C-56.58655734 368.43851396 -59.09443921 368.02057683 -61.98974609 367.64111328 C-65.75376957 367.66852122 -67.47765785 367.71036011 -70.20849609 370.36767578 C-71.94291021 373.18990226 -73.46371742 376.03616456 -74.94091797 378.99804688 C-76.92619238 382.8407917 -79.13574114 386.55001918 -81.31665039 390.28417969 C-83.28664207 393.65895025 -85.23630247 397.04476673 -87.18115234 400.43408203 C-91.00350659 407.09202047 -94.83910502 413.74226577 -98.67724609 420.39111328 C-99.92730721 422.55774469 -101.17730709 424.72441142 -102.42724609 426.89111328 C-104.92724609 431.22444661 -107.42724609 435.55777995 -109.92724609 439.89111328 C-110.54656006 440.96466064 -111.16587402 442.03820801 -111.80395508 443.14428711 C-113.04801401 445.30051541 -114.29231552 447.45660377 -115.53686523 449.61254883 C-118.75481401 455.18776842 -121.96792774 460.76570823 -125.17333984 466.34814453 C-139.43377384 491.16809872 -139.43377384 491.16809872 -144.17724609 498.39111328 C-144.58458984 499.01373047 -144.99193359 499.63634766 -145.41162109 500.27783203 C-149.98392574 506.49428733 -157.86426092 510.44455557 -165.17724609 512.39111328 C-177.73269519 513.45807832 -188.18282178 512.37459061 -198.29443359 504.20751953 C-206.28780034 496.49607651 -210.12044031 487.36556902 -210.55224609 476.32861328 C-210.07907708 466.34620622 -205.78990123 458.26731535 -200.86474609 449.76611328 C-200.24591553 448.67999756 -199.62708496 447.59388184 -198.98950195 446.47485352 C-197.06465312 443.1061854 -195.12395741 439.74718823 -193.17724609 436.39111328 C-192.58911133 435.37581543 -192.00097656 434.36051758 -191.39501953 433.31445312 C-188.52207087 428.36280335 -185.63516718 423.4194953 -182.73974609 418.48095703 C-179.04511299 412.17540909 -175.38871928 405.84816892 -171.73974609 399.51611328 C-171.11720947 398.43595947 -170.49467285 397.35580566 -169.85327148 396.24291992 C-168.59147783 394.05314994 -167.32984076 391.86328973 -166.06835938 389.67333984 C-163.5629556 385.32494735 -161.05508285 380.97798231 -158.54663086 376.63134766 C-157.30812398 374.48462396 -156.07032188 372.33749349 -154.83325195 370.18994141 C-151.90246738 365.10367938 -148.96522355 360.02146793 -146.0055542 354.95196533 C-144.60546441 352.55291758 -143.20896514 350.15178918 -141.81274414 347.75048828 C-140.82381372 346.05313102 -139.82968771 344.35880426 -138.83544922 342.66455078 C-138.23925781 341.63845703 -137.64306641 340.61236328 -137.02880859 339.55517578 C-136.23724365 338.20093506 -136.23724365 338.20093506 -135.4296875 336.81933594 C-134.29440309 334.61825626 -133.53583479 332.83389509 -133.17724609 330.39111328 C-134.06819548 328.39290364 -134.06819548 328.39290364 -135.48974609 326.51611328 C-140.5953205 318.8223945 -141.90543277 310.38589726 -140.73974609 301.26611328 C-139.38739394 294.60911219 -136.12366109 288.83711979 -132.95458984 282.89501953 C-131.07100932 279.25886905 -131.07100932 279.25886905 -130.17724609 275.39111328 C-131.73239985 272.78420814 -133.31220431 270.44133024 -135.11474609 268.01611328 C-138.95998756 262.64775268 -142.60155295 257.25987924 -145.86474609 251.51611328 C-146.82960937 249.81841797 -146.82960937 249.81841797 -147.81396484 248.08642578 C-149.17724609 245.39111328 -149.17724609 245.39111328 -149.17724609 243.39111328 C-149.79543213 243.41206055 -150.41361816 243.43300781 -151.05053711 243.45458984 C-173.39975336 244.11002858 -193.51394833 240.56805908 -210.94677734 225.50048828 C-226.47362678 210.81660265 -234.90135601 193.20307405 -236.34521484 171.91455078 C-236.54738417 149.67592536 -228.87393824 130.99701692 -213.72021484 114.77392578 C-201.9277557 103.72415608 -186.36501753 95.88383811 -170.17724609 94.39111328 C-168.61637504 94.54915907 -167.05874307 94.74157936 -165.50537109 94.96142578 C-160.27553806 95.60984939 -155.22858009 96.19160971 -150.17724609 94.39111328 C-145.3236025 90.0201454 -142.93238887 83.61678144 -140.30810547 77.76269531 C-137.75439939 72.40718994 -133.91907993 67.96171693 -130.17724609 63.39111328 C-129.73300293 62.84148926 -129.28875977 62.29186523 -128.83105469 61.72558594 C-106.48134935 34.20823003 -77.13093692 15.32837889 -43.05224609 5.57861328 C-42.42205566 5.39588867 -41.79186523 5.21316406 -41.14257812 5.02490234 C-27.58867946 1.39577135 -13.99140529 -0.11475601 0 0 Z M-104.17724609 60.39111328 C-104.94423828 61.09494141 -105.71123047 61.79876953 -106.50146484 62.52392578 C-116.69260426 72.14787431 -126.18775584 84.67399137 -132.17724609 97.39111328 C-132.17724609 98.38111328 -132.17724609 99.37111328 -132.17724609 100.39111328 C-130.07939379 101.59116859 -127.97522119 102.77614311 -125.86474609 103.95361328 C-125.26984375 104.29585938 -124.67494141 104.63810547 -124.06201172 104.99072266 C-122.4744205 105.8687759 -120.82730678 106.63697596 -119.17724609 107.39111328 C-116.06750175 106.71016227 -116.06750175 106.71016227 -114.88818359 104.30908203 C-114.44732422 103.40802734 -114.00646484 102.50697266 -113.55224609 101.57861328 C-98.29107816 72.55614649 -69.79882981 51.26846279 -38.95141602 41.21118164 C-4.99731715 30.91808814 31.9912283 33.58264775 63.82275391 49.39111328 C72.82142524 54.20736874 81.10814583 59.68613512 88.82275391 66.39111328 C89.65291016 67.10009766 90.48306641 67.80908203 91.33837891 68.53955078 C116.71499305 90.72462757 132.90296008 122.70394712 135.82275391 156.39111328 C137.64789407 195.04030966 127.54973213 230.70307727 101.41601562 259.96630859 C78.61785748 284.61087805 45.86664965 300.99827552 12.04760742 302.515625 C-27.49528489 303.53124367 -63.03631979 292.47231708 -92.20605469 264.76660156 C-102.53168245 254.64766874 -110.20367475 242.99896081 -117.17724609 230.39111328 C-120.71968061 231.75702497 -124.10352538 233.30042812 -127.48974609 235.01611328 C-128.37275391 235.46212891 -129.25576172 235.90814453 -130.16552734 236.36767578 C-131.16132813 236.87427734 -131.16132813 236.87427734 -132.17724609 237.39111328 C-131.62778692 242.31729902 -129.4044058 245.79708802 -126.80224609 249.89111328 C-126.13177246 250.94951416 -126.13177246 250.94951416 -125.44775391 252.02929688 C-120.92295113 259.01487443 -115.83347758 265.29754431 -110.17724609 271.39111328 C-109.38060547 272.25349609 -109.38060547 272.25349609 -108.56787109 273.13330078 C-80.89179966 302.74928377 -42.27581943 320.0154999 -1.80615234 321.51611328 C37.12819684 322.17531919 76.814371 308.38393723 105.02587891 281.12548828 C105.94884766 280.22314453 106.87181641 279.32080078 107.82275391 278.39111328 C108.74572266 277.53001953 109.66869141 276.66892578 110.61962891 275.78173828 C121.96243531 264.95160109 130.57266857 252.24340399 137.82275391 238.39111328 C138.42861328 237.23353516 139.03447266 236.07595703 139.65869141 234.88330078 C157.79573408 198.84966865 158.66684926 157.15619303 146.51416016 119.18017578 C139.10317793 97.46664043 126.65419716 78.78378939 110.82275391 62.39111328 C110.08412109 61.60091797 109.34548828 60.81072266 108.58447266 59.99658203 C88.14733685 38.66275288 60.34412785 25.71553672 31.82275391 19.39111328 C30.78119141 19.15650391 29.73962891 18.92189453 28.66650391 18.68017578 C-19.62488119 9.32032867 -69.33496745 26.79498194 -104.17724609 60.39111328 Z M-87.49853516 92.49658203 C-91.597688 97.12273475 -94.96133099 102.11594277 -98.17724609 107.39111328 C-98.80759766 108.41849609 -99.43794922 109.44587891 -100.08740234 110.50439453 C-103.1336446 115.15292046 -103.1336446 115.15292046 -104.02880859 120.41845703 C-102.9670885 122.87794624 -101.55745088 124.76475921 -99.92724609 126.89111328 C-88.81033384 142.40467321 -85.12289225 162.51300702 -87.89599609 181.20141602 C-90.04651652 193.72728107 -94.78716797 205.45854821 -103.08740234 215.18017578 C-104.48244285 217.43472447 -104.48244285 217.43472447 -103.55615234 220.30517578 C-99.39712147 229.61292194 -93.78685213 237.67576488 -87.17724609 245.39111328 C-86.51208984 246.20193359 -85.84693359 247.01275391 -85.16162109 247.84814453 C-75.44158699 259.27818464 -63.40562125 267.52555515 -50.17724609 274.39111328 C-49.27748047 274.86162109 -48.37771484 275.33212891 -47.45068359 275.81689453 C-42.04479955 278.45450865 -36.48628627 280.34757405 -30.73974609 282.07861328 C-30.07225342 282.28123779 -29.40476074 282.4838623 -28.71704102 282.69262695 C1.44341881 291.36208638 33.1761296 286.35092845 60.4519043 271.55957031 C66.66503499 268.04855366 72.31479362 263.92663368 77.82275391 259.39111328 C78.74701172 258.63185547 79.67126953 257.87259766 80.62353516 257.09033203 C102.43919857 238.23690863 117.58201832 209.25607487 119.82275391 180.39111328 C121.46566775 148.19524873 113.64879576 116.89980532 91.82275391 92.39111328 C70.79957554 69.24444265 42.41348149 53.06937394 10.6015625 51.26513672 C-28.01930216 49.97094868 -61.21548591 64.2461963 -87.49853516 92.49658203 Z M-206.40380859 132.95751953 C-216.10469183 145.43786932 -220.35678766 160.4058197 -218.70849609 176.10205078 C-215.92673033 193.32445355 -207.41733886 207.19711611 -193.29443359 217.49267578 C-179.46894006 226.15665173 -164.25402775 228.46950035 -148.34130859 225.73095703 C-131.98845049 221.5615197 -120.4138792 212.25459957 -111.17724609 198.39111328 C-103.14925568 184.5155743 -101.50991202 169.47364203 -105.07958984 154.08251953 C-109.40036493 139.55179906 -118.36605352 127.52741415 -131.17724609 119.39111328 C-157.52669794 105.20042591 -186.49592179 110.01106053 -206.40380859 132.95751953 Z M-117.17724609 290.39111328 C-123.11136116 299.81450537 -123.11136116 299.81450537 -123.76318359 310.57080078 C-121.15244373 319.91284583 -115.54406889 324.55616284 -107.24842834 329.24465942 C-105.41678759 330.26038507 -103.57853381 331.2633942 -101.73974609 332.26611328 C-99.84086443 333.32058576 -97.9445306 334.37954559 -96.04821777 335.43862915 C-94.80508624 336.13233119 -93.56103491 336.82438768 -92.31604004 337.51473999 C-86.45463553 340.76949979 -80.74633653 344.24076528 -75.06005859 347.78955078 C-69.68108158 350.77787134 -64.33495368 352.41377143 -58.17724609 351.39111328 C-51.20455947 349.16762498 -47.10741454 345.90371699 -43.33349609 339.67236328 C-42.12703626 337.29205065 -41.12543796 334.88450671 -40.17724609 332.39111328 C-40.71389893 332.22619385 -41.25055176 332.06127441 -41.8034668 331.89135742 C-69.09895983 323.40335454 -92.44024273 311.05131309 -113.58349609 291.64111328 C-115.10195181 290.18539997 -115.10195181 290.18539997 -117.17724609 290.39111328 Z M-118.17724609 342.39111328 C-122.7794503 349.02388462 -126.78834814 355.88374917 -130.67724609 362.95361328 C-135.40130593 371.46547246 -140.19226249 379.9298744 -145.11474609 388.32861328 C-149.97649353 396.62498738 -154.8133547 404.93463563 -159.61474609 413.26611328 C-160.23293213 414.33829102 -160.85111816 415.41046875 -161.48803711 416.51513672 C-164.70917414 422.10351465 -167.92666473 427.69397842 -171.14208984 433.28564453 C-172.44531538 435.55005947 -173.74869827 437.81438386 -175.05224609 440.07861328 C-175.67695801 441.16480957 -176.30166992 442.25100586 -176.9453125 443.37011719 C-181.03442772 450.46250038 -185.21641539 457.48646354 -189.54052734 464.43798828 C-193.1660396 470.97948533 -193.79242822 476.1640575 -192.17724609 483.39111328 C-189.4709475 488.7034772 -185.65895913 492.94587391 -180.10693359 495.25048828 C-175.11603687 496.67645877 -171.39387298 496.3492097 -166.51318359 494.70361328 C-158.37376472 490.13029431 -154.66109203 483.68530416 -150.36474609 475.57861328 C-149.1291712 473.30961886 -147.8921892 471.04139011 -146.65380859 468.77392578 C-145.75903809 467.12312012 -145.75903809 467.12312012 -144.84619141 465.43896484 C-142.7230053 461.56157232 -140.50488991 457.74928556 -138.23974609 453.95361328 C-134.10230524 446.98447694 -130.03601907 439.97607478 -125.98974609 432.95361328 C-125.35174072 431.84638916 -124.71373535 430.73916504 -124.05639648 429.59838867 C-122.74835133 427.32774261 -121.44049161 425.0569897 -120.1328125 422.78613281 C-116.98392558 417.31941352 -113.8304501 411.85534323 -110.67724609 406.39111328 C-107.13603034 400.25400434 -103.59509499 394.11673567 -100.05712891 387.97775269 C-98.67917672 385.58684731 -97.30090437 383.19612657 -95.92260742 380.80541992 C-94.95183627 379.12127365 -93.98152735 377.43686097 -93.01123047 375.75244141 C-92.42148438 374.72957031 -91.83173828 373.70669922 -91.22412109 372.65283203 C-90.70688477 371.7552417 -90.18964844 370.85765137 -89.65673828 369.93286133 C-88.62898385 368.16719278 -87.56984527 366.41957023 -86.48681641 364.68725586 C-85.01210522 362.54211922 -85.01210522 362.54211922 -85.17724609 360.39111328 C-88.58977971 358.46810447 -92.0037343 356.54764452 -95.41894531 354.62939453 C-97.14249688 353.66064463 -98.86496119 352.68996113 -100.58740234 351.71923828 C-106.38733868 348.46313367 -112.19286223 345.29529957 -118.17724609 342.39111328 Z " fill="#000000" transform="translate(288.17724609375,-0.39111328125)"/>
<path d="M0 0 C12.12763359 9.41061182 20.47866407 20.96619081 22.71484375 36.40234375 C22.85599609 37.68818359 22.85599609 37.68818359 23 39 C23.08378906 39.70253906 23.16757812 40.40507812 23.25390625 41.12890625 C23.79181223 50.27330793 20.57168499 60.6982457 17 69 C17.57105469 69.25007813 18.14210938 69.50015625 18.73046875 69.7578125 C30.24294518 76.05896139 36.48511949 89.25302933 40.2734375 101.2109375 C41.91474911 107.51145625 42.17298668 113.52783131 42.203125 120 C42.20882507 120.95390625 42.21452515 121.9078125 42.22039795 122.890625 C42.2298135 124.90103049 42.23636818 126.91145118 42.24023438 128.921875 C42.24996782 131.98985624 42.28103513 135.0571749 42.3125 138.125 C42.3190283 140.08332938 42.32427945 142.04166352 42.328125 144 C42.3404718 144.91265625 42.3528186 145.8253125 42.36553955 146.765625 C42.3444442 152.81843192 41.54348276 157.24263346 37.28125 161.86328125 C36.6934375 162.34152344 36.105625 162.81976563 35.5 163.3125 C34.9121875 163.80363281 34.324375 164.29476562 33.71875 164.80078125 C30.64568577 166.94494197 27.93992003 167.12756226 24.31376648 167.14044189 C22.86914536 167.14900711 22.86914536 167.14900711 21.39533997 167.15774536 C20.34021713 167.15886322 19.2850943 167.15998108 18.19799805 167.16113281 C17.08553711 167.16609772 15.97307617 167.17106262 14.8269043 167.17617798 C11.13850287 167.19080964 7.45014446 167.19760328 3.76171875 167.203125 C1.20205178 167.20887559 -1.35761517 167.21463333 -3.9172821 167.22039795 C-8.60144388 167.22956655 -13.28559271 167.23586571 -17.96976119 167.2388947 C-24.85780923 167.2433736 -31.74565865 167.26091485 -38.63364631 167.2898953 C-44.60463731 167.31414303 -50.57557899 167.32184032 -56.54662132 167.32357025 C-59.08435332 167.32659875 -61.62208444 167.33463385 -64.15978432 167.34775543 C-67.70994758 167.36480177 -71.25962692 167.36293882 -74.80981445 167.35644531 C-75.85886459 167.3656601 -76.90791473 167.37487488 -77.98875427 167.3843689 C-84.3500066 167.34790434 -88.95554205 166.75086242 -93.86328125 162.31640625 C-94.34152344 161.73761719 -94.81976563 161.15882813 -95.3125 160.5625 C-95.80363281 159.98628906 -96.29476562 159.41007813 -96.80078125 158.81640625 C-98.84323632 155.72278538 -99.12492494 152.58914109 -99.17700195 148.94433594 C-99.18983719 148.15540955 -99.20267242 147.36648315 -99.21589661 146.5536499 C-99.22328354 145.70578918 -99.23067047 144.85792847 -99.23828125 143.984375 C-99.246353 143.09574768 -99.25442474 142.20712036 -99.26274109 141.29156494 C-99.27656707 139.40533383 -99.28729587 137.51907786 -99.29516602 135.6328125 C-99.30659328 133.73234558 -99.32689489 131.83190834 -99.35668945 129.93164062 C-99.69883633 108.08011492 -96.16695169 89.6583328 -80.5859375 73.3984375 C-78.39068904 71.36236114 -76.74794725 70.09659867 -74 69 C-74.34933594 68.06800781 -74.69867188 67.13601562 -75.05859375 66.17578125 C-80.64395357 50.76157277 -82.06590849 36.09474929 -74.9375 20.8125 C-67.88512234 7.69857459 -57.73362326 -1.42105786 -43.640625 -6.2734375 C-28.91336458 -10.3256127 -12.89570307 -8.30186635 0 0 Z M-55.875 22.375 C-61.43993506 30.09119467 -63.88012139 38.46317608 -62.59765625 47.98828125 C-60.33048903 58.54603629 -55.03295017 66.93614128 -46 73 C-37.31554694 77.65189403 -27.83364501 78.45951966 -18.23828125 76.41015625 C-9.05286331 73.28105783 -2.0580595 66.60154987 2.5625 58.1875 C6.88137383 48.46695777 6.85973412 40.04539326 3.35546875 30.046875 C-0.69901639 20.93304673 -7.26146184 15.12649222 -16.22265625 10.96875 C-30.74061578 5.43809875 -46.18606275 10.5939023 -55.875 22.375 Z M-65.67578125 82.828125 C-74.64660444 90.62139383 -80.45116657 101.22886595 -82 113 C-82.12562667 115.89442035 -82.11686402 118.78300544 -82.09765625 121.6796875 C-82.0962413 122.49245148 -82.09482635 123.30521545 -82.09336853 124.14260864 C-82.08780335 126.72011101 -82.0752574 129.2975242 -82.0625 131.875 C-82.0574805 133.63020707 -82.05291838 135.38541552 -82.04882812 137.140625 C-82.0386993 141.42714473 -82.01911731 145.71347338 -82 150 C-76.39 150 -70.78 150 -65 150 C-64.97421875 148.02515625 -64.9484375 146.0503125 -64.921875 144.015625 C-64.86560187 141.42706099 -64.80825437 138.83852018 -64.75 136.25 C-64.73582031 134.94804687 -64.72164062 133.64609375 -64.70703125 132.3046875 C-64.67480469 131.05429688 -64.64257812 129.80390625 -64.609375 128.515625 C-64.5779541 126.78747559 -64.5779541 126.78747559 -64.54589844 125.02441406 C-63.88983803 121.38967512 -62.93497236 120.18578551 -60 118 C-56.13543195 117.44791885 -54.00298081 117.25304206 -50.81933594 119.62402344 C-48.4480744 122.72079172 -48.46108221 124.64047819 -48.390625 128.515625 C-48.34470215 130.20606934 -48.34470215 130.20606934 -48.29785156 131.93066406 C-48.27416504 134.06873535 -48.27416504 134.06873535 -48.25 136.25 C-48.1675 140.7875 -48.085 145.325 -48 150 C-35.13 150 -22.26 150 -9 150 C-8.82968613 140.96564494 -8.82968613 140.96564494 -8.70214844 131.93066406 C-8.6715332 130.80370117 -8.64091797 129.67673828 -8.609375 128.515625 C-8.58842773 127.36352539 -8.56748047 126.21142578 -8.54589844 125.02441406 C-7.88983803 121.38967512 -6.93497236 120.18578551 -4 118 C-0.13543195 117.44791885 1.99701919 117.25304206 5.18066406 119.62402344 C7.5519256 122.72079172 7.53891779 124.64047819 7.609375 128.515625 C7.64160156 129.76601562 7.67382812 131.01640625 7.70703125 132.3046875 C7.72121094 133.60664063 7.73539062 134.90859375 7.75 136.25 C7.77964844 137.56742188 7.80929687 138.88484375 7.83984375 140.2421875 C7.91054536 143.49446134 7.9575357 146.74723492 8 150 C13.61 150 19.22 150 25 150 C25.09263467 144.82532418 25.17201891 139.65360917 25.21972656 134.47875977 C25.23964572 132.72442798 25.26679134 130.97016084 25.30175781 129.21606445 C25.62151511 112.74386157 23.75325933 98.71226182 12.1328125 85.94921875 C9.75760758 83.6986101 9.75760758 83.6986101 7 82 C3.62256668 82.32198654 1.28950673 83.97607474 -1.5 85.8125 C-13.98251117 93.33099367 -27.27495775 95.10945582 -41.53515625 92.3046875 C-47.49058597 90.47579424 -52.65157009 87.68771636 -57.84375 84.26953125 C-61.61960382 81.98568204 -61.61960382 81.98568204 -65.67578125 82.828125 Z " fill="#000000" transform="translate(319,89)"/>
<path d="M0 0 C2.5 1.5 2.5 1.5 4 4 C4.60802124 7.31647948 4.85052182 8.8656825 4 12 C2.68464661 13.87733459 2.68464661 13.87733459 0.96020508 15.75415039 C0.32418365 16.44936798 -0.31183777 17.14458557 -0.96713257 17.86087036 C-4.28238832 21.34942143 -7.64286705 24.78551607 -11.05078125 28.18359375 C-12.16080757 29.29505516 -12.16080757 29.29505516 -13.29325867 30.42897034 C-14.8424716 31.97885859 -16.39292727 33.52750558 -17.94458008 35.07495117 C-20.32685505 37.45182249 -22.70368497 39.83404646 -25.08007812 42.21679688 C-26.5908249 43.72688365 -28.10188141 45.23666062 -29.61328125 46.74609375 C-30.32470779 47.45954453 -31.03613434 48.1729953 -31.76911926 48.9080658 C-32.75606026 49.89027855 -32.75606026 49.89027855 -33.76293945 50.89233398 C-34.34139114 51.46999008 -34.91984283 52.04764618 -35.51582336 52.64280701 C-38.2495991 55.14268552 -40.99413879 55.66002003 -44.68359375 55.57421875 C-49.26870823 54.43760521 -52.22336508 50.86916185 -55.44580078 47.58056641 C-57.24260698 45.75327717 -59.07134279 43.9609803 -60.90234375 42.16796875 C-63.56985193 39.54111315 -66.23323357 36.91057627 -68.875 34.2578125 C-69.42929688 33.7023877 -69.98359375 33.14696289 -70.5546875 32.57470703 C-73.73102619 29.11400018 -74.46003796 26.62781186 -74.3046875 21.94140625 C-74 20 -74 20 -72.5 17.5 C-69.68149626 15.80889775 -67.43084277 15.24496102 -64.1328125 15.43359375 C-59.78787969 16.58746785 -57.05569221 19.86157244 -54 23 C-53.10023437 23.88816406 -52.20046875 24.77632812 -51.2734375 25.69140625 C-48.83055439 28.1102046 -46.40852273 30.5470578 -44 33 C-41.10326019 31.69001173 -39.05188193 30.29513935 -36.82373047 28.03491211 C-35.93293289 27.1390464 -35.93293289 27.1390464 -35.0241394 26.2250824 C-34.39484528 25.58232864 -33.76555115 24.93957489 -33.1171875 24.27734375 C-32.46170929 23.61666397 -31.80623108 22.95598419 -31.13088989 22.27528381 C-29.04078373 20.16738574 -26.95749438 18.05291634 -24.875 15.9375 C-22.7845016 13.8194003 -20.69256959 11.70276818 -18.59768677 9.58900452 C-17.29501617 8.27405934 -15.99502781 6.95645058 -14.69796753 5.63597107 C-14.1104068 5.04187943 -13.52284607 4.44778778 -12.91748047 3.83569336 C-12.40103973 3.3109996 -11.884599 2.78630585 -11.35250854 2.24571228 C-8.0980634 -0.7517566 -4.18052376 -0.57007142 0 0 Z " fill="#000000" transform="translate(162,141)"/>
</svg>
