<?xml version="1.0" encoding="UTF-8"?>
<!DOCTYPE svg PUBLIC "-//W3C//DTD SVG 1.1//EN" "http://www.w3.org/Graphics/SVG/1.1/DTD/svg11.dtd">
<svg xmlns="http://www.w3.org/2000/svg" version="1.1" width="512px" height="512px" style="shape-rendering:geometricPrecision; text-rendering:geometricPrecision; image-rendering:optimizeQuality; fill-rule:evenodd; clip-rule:evenodd" xmlns:xlink="http://www.w3.org/1999/xlink">
<g><path style="opacity:0.934" fill="#000000" d="M 75.5,-0.5 C 83.8333,-0.5 92.1667,-0.5 100.5,-0.5C 108.088,3.09119 112.088,9.09119 112.5,17.5C 193.501,17.3333 274.501,17.5 355.5,18C 359.666,18.985 361.666,21.6516 361.5,26C 361.699,29.2738 360.366,31.6071 357.5,33C 275.834,33.5 194.167,33.6667 112.5,33.5C 112.5,86.5 112.5,139.5 112.5,192.5C 207.833,192.5 303.167,192.5 398.5,192.5C 398.5,139.5 398.5,86.5 398.5,33.5C 392.824,33.6661 387.157,33.4994 381.5,33C 375.795,27.1857 376.462,22.1857 383.5,18C 388.489,17.5007 393.489,17.3341 398.5,17.5C 398.912,9.09119 402.912,3.09119 410.5,-0.5C 418.833,-0.5 427.167,-0.5 435.5,-0.5C 442.342,2.1827 446.509,7.1827 448,14.5C 448.667,67.5 448.667,120.5 448,173.5C 444.726,178.738 440.226,179.904 434.5,177C 433.874,176.25 433.374,175.416 433,174.5C 432.667,122.167 432.333,69.8333 432,17.5C 429.575,15.0778 426.575,14.0778 423,14.5C 420.083,14.3349 417.417,15.0015 415,16.5C 414.167,101.502 414.333,186.502 415.5,271.5C 420.911,269.697 426.244,267.697 431.5,265.5C 432.333,243.508 432.833,221.508 433,199.5C 438.308,192.803 443.308,193.136 448,200.5C 448.333,219.833 448.667,239.167 449,258.5C 472.305,251.07 486.139,259.404 490.5,283.5C 489.361,296.128 483.028,304.961 471.5,310C 446.142,320.786 420.142,329.786 393.5,337C 362.5,356 331.5,375 300.5,394C 342.5,419.667 384.5,445.333 426.5,471C 435.702,480.88 436.869,491.713 430,503.5C 426.518,506.839 422.685,509.506 418.5,511.5C 413.833,511.5 409.167,511.5 404.5,511.5C 355.131,481.393 305.631,451.393 256,421.5C 205.986,451.379 156.152,481.379 106.5,511.5C 101.833,511.5 97.1667,511.5 92.5,511.5C 79.1065,505.373 74.2732,495.039 78,480.5C 79.4394,477.397 81.2728,474.564 83.5,472C 126.167,446 168.833,420 211.5,394C 180.833,375.333 150.167,356.667 119.5,338C 92.264,330.255 65.5973,320.922 39.5,310C 20.7377,300.042 16.2377,285.542 26,266.5C 36.0488,255.16 48.0488,252.494 62,258.5C 62.3333,177.167 62.6667,95.8333 63,14.5C 64.4914,7.1827 68.6581,2.1827 75.5,-0.5 Z M 82.5,14.5 C 86.1817,14.3347 89.8484,14.5014 93.5,15C 94.4162,15.3742 95.2496,15.8742 96,16.5C 96.8333,101.502 96.6667,186.502 95.5,271.5C 90.1667,269.5 84.8333,267.5 79.5,265.5C 78.3333,182.835 78.1667,100.169 79,17.5C 79.985,16.1859 81.1516,15.1859 82.5,14.5 Z M 112.5,208.5 C 207.833,208.5 303.167,208.5 398.5,208.5C 398.5,231.5 398.5,254.5 398.5,277.5C 322.957,300.004 246.29,304.837 168.5,292C 163.776,294.435 162.276,298.269 164,303.5C 166.448,306.473 169.614,307.973 173.5,308C 272.056,323.806 367.056,311.806 458.5,272C 467.546,270.534 472.879,274.367 474.5,283.5C 473.529,287.951 471.196,291.451 467.5,294C 352.125,343.747 233.792,352.08 112.5,319C 88.9696,312.065 65.9696,303.732 43.5,294C 34.6705,287.363 34.3372,280.363 42.5,273C 44.3659,272.015 46.3659,271.515 48.5,271.5C 70.5378,280.013 92.8711,287.847 115.5,295C 121.833,296.667 128.167,298.333 134.5,300C 146.2,302.234 149.866,297.9 145.5,287C 134.638,283.368 123.638,280.201 112.5,277.5C 112.5,254.5 112.5,231.5 112.5,208.5 Z M 166.5,348.5 C 166.735,347.903 167.235,347.57 168,347.5C 178.417,349.531 188.917,351.031 199.5,352C 213,359.916 226.334,368.082 239.5,376.5C 235.334,379.417 231.001,382.084 226.5,384.5C 206.776,371.974 186.776,359.974 166.5,348.5 Z M 341.5,347.5 C 342.552,347.351 343.552,347.517 344.5,348C 265.167,396.333 185.833,444.667 106.5,493C 98.0901,497.959 93.5901,495.793 93,486.5C 94.1667,484.667 95.6667,483.167 97.5,482C 168.43,439.397 239.097,396.397 309.5,353C 320.296,351.322 330.963,349.488 341.5,347.5 Z M 236.5,355.5 C 249.327,354.34 262.327,354.173 275.5,355C 269.066,358.966 262.566,362.799 256,366.5C 249.246,363.208 242.746,359.542 236.5,355.5 Z M 283.5,403.5 C 327.93,430.081 372.263,456.914 416.5,484C 419.986,493.848 416.653,497.182 406.5,494C 361.666,466.415 316.666,439.082 271.5,412C 275.68,409.304 279.68,406.47 283.5,403.5 Z"/></g>
</svg>
