<?xml version="1.0" encoding="UTF-8"?>
<!DOCTYPE svg PUBLIC "-//W3C//DTD SVG 1.1//EN" "http://www.w3.org/Graphics/SVG/1.1/DTD/svg11.dtd">
<svg xmlns="http://www.w3.org/2000/svg" version="1.1" width="512px" height="512px" style="shape-rendering:geometricPrecision; text-rendering:geometricPrecision; image-rendering:optimizeQuality; fill-rule:evenodd; clip-rule:evenodd" xmlns:xlink="http://www.w3.org/1999/xlink">
<g><path style="opacity:0.925" fill="#000000" d="M 469.5,-0.5 C 474.833,-0.5 480.167,-0.5 485.5,-0.5C 491.108,3.16312 492.608,8.16312 490,14.5C 477.134,27.0345 463.967,39.2011 450.5,51C 442.333,52.1667 438.833,48.6667 440,40.5C 447.81,32.3576 455.977,24.5242 464.5,17C 402.432,22.4336 342.766,37.4336 285.5,62C 282.241,63.2106 279.408,65.0439 277,67.5C 265.333,88.1667 253.667,108.833 242,129.5C 240.439,132.783 238.273,135.617 235.5,138C 229.346,140.669 224.512,139.169 221,133.5C 219.847,122.537 219.181,111.537 219,100.5C 185.816,122.672 154.649,147.505 125.5,175C 116.312,177.481 112.478,173.981 114,164.5C 127.543,150.956 141.71,138.123 156.5,126C 177.275,109.891 198.609,94.5581 220.5,80C 229.345,76.7558 234.678,79.7558 236.5,89C 235.439,95.1397 235.273,101.306 236,107.5C 245.667,90.5 255.333,73.5 265,56.5C 266.5,55 268,53.5 269.5,52C 314.878,31.1534 362.211,16.4867 411.5,8C 430.907,4.66058 450.24,1.82725 469.5,-0.5 Z"/></g>
<g><path style="opacity:0.926" fill="#000000" d="M 31.5,511.5 C 28.8333,511.5 26.1667,511.5 23.5,511.5C 20.3489,508.864 19.1822,505.531 20,501.5C 33.1949,463.947 47.3615,426.78 62.5,390C 40.717,359.096 33.217,324.93 40,287.5C 40.9706,281.861 44.3039,279.195 50,279.5C 52.2998,279.494 54.4664,279.994 56.5,281C 58.3501,283.018 60.3501,284.851 62.5,286.5C 62.8333,285.833 63.1667,285.167 63.5,284.5C 60.082,267.248 59.2486,249.915 61,232.5C 70.2615,215.58 81.4282,200.08 94.5,186C 104.126,185.29 107.292,189.457 104,198.5C 93.6818,211.134 84.3484,224.467 76,238.5C 75.0596,257.155 77.0596,275.489 82,293.5C 83.1146,297.729 84.7813,301.729 87,305.5C 88.9999,315.164 85.1666,319.331 75.5,318C 68.6435,312.309 61.6435,306.809 54.5,301.5C 51.8076,326.87 56.9743,350.537 70,372.5C 95.263,320.263 126.263,271.929 163,227.5C 163.033,212.74 163.699,198.074 165,183.5C 169.406,179.577 173.739,179.577 178,183.5C 179.273,191.731 179.94,200.064 180,208.5C 223.422,159.722 272.255,117.555 326.5,82C 330.947,78.979 335.447,78.8124 340,81.5C 342.101,85.4507 341.934,89.284 339.5,93C 314.946,109.112 291.279,126.445 268.5,145C 276.603,145.063 284.603,145.73 292.5,147C 297.04,152.842 296.04,157.509 289.5,161C 275.406,161.034 261.406,161.701 247.5,163C 196.542,208.229 153.542,259.729 118.5,317.5C 127.816,318.332 137.149,318.832 146.5,319C 153.385,324.465 153.052,329.465 145.5,334C 133.167,334.333 120.833,334.667 108.5,335C 101.286,347.26 94.4523,359.76 88,372.5C 87.2506,373.635 87.4173,374.635 88.5,375.5C 115.798,369.894 143.131,364.394 170.5,359C 206.074,351.378 237.74,336.044 265.5,313C 243.753,311.656 222.419,307.989 201.5,302C 193.147,296.917 192.48,290.917 199.5,284C 238.549,274.154 277.549,264.154 316.5,254C 323.261,242.644 329.094,230.811 334,218.5C 341.333,197.167 348.667,175.833 356,154.5C 370.545,119.888 390.712,89.0545 416.5,62C 425.58,58.7851 429.747,61.9518 429,71.5C 403.759,98.1028 384.092,128.436 370,162.5C 362.197,185.575 354.197,208.575 346,231.5C 340.911,244.184 334.411,256.018 326.5,267C 323.326,268.725 319.993,270.058 316.5,271C 288.13,277.843 259.796,284.843 231.5,292C 235.597,293.734 239.931,294.734 244.5,295C 258.146,296.265 271.813,297.265 285.5,298C 290.818,301.622 292.318,306.456 290,312.5C 260.226,341.481 225.06,361.315 184.5,372C 166.5,375.9 148.5,379.733 130.5,383.5C 136.99,390.823 143.99,397.656 151.5,404C 159.926,409.131 168.759,413.297 178,416.5C 181.386,421.457 181.219,426.29 177.5,431C 175.913,431.862 174.246,432.529 172.5,433C 135.502,433.5 98.5015,433.667 61.5,433.5C 55.1442,450.735 49.3109,468.068 44,485.5C 60.7523,475.873 77.5856,466.373 94.5,457C 117.183,448.335 139.85,448.335 162.5,457C 176.667,464.58 190.333,472.913 203.5,482C 216.98,489.636 231.313,491.969 246.5,489C 264.167,484 281.833,479 299.5,474C 313.541,471.463 327.207,472.797 340.5,478C 344.122,482.002 344.456,486.335 341.5,491C 339.801,491.958 337.967,492.458 336,492.5C 331.172,491.336 326.339,490.169 321.5,489C 316.5,488.333 311.5,488.333 306.5,489C 288.416,493.688 270.416,498.688 252.5,504C 233.341,508.241 215.007,505.908 197.5,497C 183.665,487.579 169.332,478.913 154.5,471C 142.138,466.364 129.471,465.031 116.5,467C 111.744,468.022 107.077,469.356 102.5,471C 78.4453,484.021 54.7786,497.521 31.5,511.5 Z M 99.5,388.5 C 107.511,388.172 114.511,390.672 120.5,396C 127.53,403.365 134.864,410.365 142.5,417C 117.827,417.833 93.1599,417.666 68.5,416.5C 71.508,408.319 75.1747,400.486 79.5,393C 86.3667,391.797 93.0334,390.297 99.5,388.5 Z"/></g>
<g><path style="opacity:0.962" fill="#000000" d="M 481.5,511.5 C 445.5,511.5 409.5,511.5 373.5,511.5C 368.851,510.33 364.184,508.83 359.5,507C 355.423,503.861 354.59,500.028 357,495.5C 358.853,493.408 361.186,492.408 364,492.5C 369.116,493.871 374.282,495.038 379.5,496C 413.167,496.333 446.833,496.667 480.5,497C 486.633,501.387 486.967,506.22 481.5,511.5 Z"/></g>
</svg>
