<?xml version="1.0" encoding="UTF-8"?>
<!DOCTYPE svg PUBLIC "-//W3C//DTD SVG 1.1//EN" "http://www.w3.org/Graphics/SVG/1.1/DTD/svg11.dtd">
<svg xmlns="http://www.w3.org/2000/svg" version="1.1" width="512px" height="512px" style="shape-rendering:geometricPrecision; text-rendering:geometricPrecision; image-rendering:optimizeQuality; fill-rule:evenodd; clip-rule:evenodd" xmlns:xlink="http://www.w3.org/1999/xlink">
<g><path style="opacity:0.955" fill="#000000" d="M 19.5,-0.5 C 176.833,-0.5 334.167,-0.5 491.5,-0.5C 496.894,2.39702 500.727,6.73035 503,12.5C 503.667,51.5 503.667,90.5 503,129.5C 499.164,138.494 492.331,142.827 482.5,142.5C 482.667,189.501 482.5,236.501 482,283.5C 478.987,288.535 474.82,289.702 469.5,287C 468.299,286.097 467.465,284.931 467,283.5C 466.5,236.501 466.333,189.501 466.5,142.5C 325.833,142.5 185.167,142.5 44.5,142.5C 44.6667,189.501 44.5,236.501 44,283.5C 40.9867,288.535 36.8201,289.702 31.5,287C 30.2986,286.097 29.4652,284.931 29,283.5C 28.5,236.501 28.3333,189.501 28.5,142.5C 18.6693,142.827 11.8359,138.494 8,129.5C 7.33333,90.5 7.33333,51.5 8,12.5C 10.273,6.73035 14.1063,2.39702 19.5,-0.5 Z M 26.5,14.5 C 179.167,14.3333 331.834,14.5 484.5,15C 485.416,15.3742 486.25,15.8742 487,16.5C 487.833,52.8379 487.667,89.1713 486.5,125.5C 332.873,126.665 179.207,126.832 25.5,126C 24.1733,107.885 23.5066,89.5515 23.5,71C 23.6667,52.8333 23.8333,34.6667 24,16.5C 24.9947,15.9341 25.828,15.2674 26.5,14.5 Z"/></g>
<g><path style="opacity:0.93" fill="#000000" d="M 71.5,34.5 C 84.9321,34.037 98.2655,34.537 111.5,36C 116.04,41.8424 115.04,46.5091 108.5,50C 105.183,50.4983 101.85,50.665 98.5,50.5C 98.6666,67.8365 98.4999,85.1699 98,102.5C 95.0891,106.277 91.2558,107.444 86.5,106C 84.9512,104.786 83.7845,103.286 83,101.5C 82.5001,84.5033 82.3334,67.5033 82.5,50.5C 74.2979,52.5712 68.9646,49.7379 66.5,42C 67.3243,38.8267 68.9909,36.3267 71.5,34.5 Z"/></g>
<g><path style="opacity:0.924" fill="#000000" d="M 130.5,34.5 C 134.909,33.6185 138.409,34.9518 141,38.5C 141.667,59.8333 141.667,81.1667 141,102.5C 139.471,105.516 136.971,106.849 133.5,106.5C 129.823,106.664 127.323,104.997 126,101.5C 125.333,81.1667 125.333,60.8333 126,40.5C 126.599,37.7458 128.099,35.7458 130.5,34.5 Z"/></g>
<g><path style="opacity:0.922" fill="#000000" d="M 182.5,34.5 C 192.686,33.2141 202.02,35.3807 210.5,41C 214.762,47.7621 213.096,52.5955 205.5,55.5C 201.395,54.2811 197.395,52.7811 193.5,51C 179.212,49.7816 170.879,56.2816 168.5,70.5C 170.12,82.6195 176.953,89.6195 189,91.5C 194.577,90.4614 199.41,87.9614 203.5,84C 213.039,82.5335 216.539,86.3668 214,95.5C 204.952,105.403 193.785,108.903 180.5,106C 159.251,98.6806 150.417,83.8473 154,61.5C 158.527,47.1371 168.027,38.1371 182.5,34.5 Z"/></g>
<g><path style="opacity:0.929" fill="#000000" d="M 230.5,34.5 C 234.516,33.8999 238.016,34.8999 241,37.5C 242.224,42.3859 242.891,47.3859 243,52.5C 248.531,46.634 254.365,41.134 260.5,36C 271.16,34.1537 274.66,38.3203 271,48.5C 263.323,55.3446 255.823,62.3446 248.5,69.5C 256.528,77.6059 264.695,85.6059 273,93.5C 276.63,103.757 273.13,107.924 262.5,106C 256.096,99.7178 249.596,93.5511 243,87.5C 242.899,92.9459 242.232,98.2793 241,103.5C 236.998,107.122 232.665,107.456 228,104.5C 226.356,82.5886 226.022,60.5886 227,38.5C 228.376,37.2949 229.542,35.9616 230.5,34.5 Z"/></g>
<g><path style="opacity:0.943" fill="#000000" d="M 293.5,34.5 C 302.173,34.3336 310.84,34.5002 319.5,35C 327.421,38.6048 328.421,43.6048 322.5,50C 315.842,50.4996 309.175,50.6663 302.5,50.5C 302.5,54.8333 302.5,59.1667 302.5,63.5C 308.509,63.3338 314.509,63.5005 320.5,64C 325.823,68.6195 325.823,73.2862 320.5,78C 314.509,78.4995 308.509,78.6662 302.5,78.5C 302.5,82.8333 302.5,87.1667 302.5,91.5C 309.175,91.3337 315.842,91.5004 322.5,92C 327.833,96.6667 327.833,101.333 322.5,106C 311.833,106.667 301.167,106.667 290.5,106C 289.667,105.167 288.833,104.333 288,103.5C 286.357,82.5891 286.023,61.5891 287,40.5C 288.113,37.2186 290.28,35.2186 293.5,34.5 Z"/></g>
<g><path style="opacity:0.928" fill="#000000" d="M 338.5,34.5 C 351.504,34.3334 364.504,34.5001 377.5,35C 381.753,38.4204 382.587,42.5871 380,47.5C 379.097,48.7014 377.931,49.5348 376.5,50C 372.848,50.4986 369.182,50.6653 365.5,50.5C 365.667,67.8365 365.5,85.1699 365,102.5C 363.865,105.859 361.532,107.192 358,106.5C 353.175,106.677 350.509,104.344 350,99.5C 349.5,83.1701 349.333,66.8367 349.5,50.5C 346.15,50.665 342.817,50.4983 339.5,50C 334.931,47.4586 333.431,43.6253 335,38.5C 336.376,37.2949 337.542,35.9616 338.5,34.5 Z"/></g>
<g><path style="opacity:0.922" fill="#000000" d="M 411.5,34.5 C 422.76,33.1028 432.594,36.1028 441,43.5C 443.575,50.4264 441.242,54.7598 434,56.5C 428.996,53.6667 423.663,51.6667 418,50.5C 414.443,50.3573 411.943,51.8573 410.5,55C 410.759,56.2613 411.426,57.2613 412.5,58C 420.449,60.7579 428.115,64.0913 435.5,68C 444.348,76.6111 445.848,86.4445 440,97.5C 436.395,101.721 431.895,104.554 426.5,106C 412.697,108.846 401.197,105.013 392,94.5C 390.125,86.3809 393.292,82.5476 401.5,83C 405.167,85.3333 408.833,87.6667 412.5,90C 417.72,91.9934 422.553,91.1601 427,87.5C 427.896,84.975 427.396,82.8083 425.5,81C 417.751,77.8612 410.084,74.5279 402.5,71C 391.888,60.4061 391.888,49.7395 402.5,39C 405.437,37.1991 408.437,35.6991 411.5,34.5 Z"/></g>
<g><path style="opacity:0.94" fill="#000000" d="M 70.5,156.5 C 194.89,156.005 319.223,156.505 443.5,158C 446.869,160.365 449.036,163.532 450,167.5C 450.987,219.892 450.653,272.225 449,324.5C 446.64,328.597 443.14,331.097 438.5,332C 315.124,332.993 191.791,332.659 68.5,331C 64.5095,329.01 62.0095,325.843 61,321.5C 60.3333,270.167 60.3333,218.833 61,167.5C 62.6266,162.382 65.7933,158.715 70.5,156.5 Z M 76.5,172.5 C 195.833,172.5 315.167,172.5 434.5,172.5C 434.5,220.5 434.5,268.5 434.5,316.5C 418.167,316.5 401.833,316.5 385.5,316.5C 388.923,281.424 373.089,266.091 338,270.5C 302.944,266.056 287.111,281.39 290.5,316.5C 267.167,316.5 243.833,316.5 220.5,316.5C 223.889,281.39 208.056,266.056 173,270.5C 137.911,266.091 122.077,281.424 125.5,316.5C 109.167,316.5 92.8333,316.5 76.5,316.5C 76.5,268.5 76.5,220.5 76.5,172.5 Z M 156.5,285.5 C 167.505,285.333 178.505,285.5 189.5,286C 197.01,286.515 201.844,290.348 204,297.5C 204.5,303.825 204.666,310.158 204.5,316.5C 183.5,316.5 162.5,316.5 141.5,316.5C 141.334,309.825 141.5,303.158 142,296.5C 144.821,290.023 149.655,286.356 156.5,285.5 Z M 321.5,285.5 C 332.505,285.333 343.505,285.5 354.5,286C 361.566,286.447 366.399,289.947 369,296.5C 369.5,303.158 369.666,309.825 369.5,316.5C 348.5,316.5 327.5,316.5 306.5,316.5C 306.109,309.079 306.609,301.746 308,294.5C 311.16,289.346 315.66,286.346 321.5,285.5 Z"/></g>
<g><path style="opacity:0.891" fill="#000000" d="M 237.5,200.5 C 245.656,199.821 249.156,203.488 248,211.5C 243.867,216.634 239.367,221.468 234.5,226C 224.333,228.5 220.5,224.667 223,214.5C 227.729,209.603 232.562,204.936 237.5,200.5 Z"/></g>
<g><path style="opacity:0.905" fill="#000000" d="M 277.5,205.5 C 286.706,207.372 288.872,212.372 284,220.5C 270.5,234 257,247.5 243.5,261C 238.454,264.706 233.954,264.206 230,259.5C 229.333,256.833 229.333,254.167 230,251.5C 244.223,237.611 258.057,223.445 271.5,209C 273.432,207.541 275.432,206.375 277.5,205.5 Z"/></g>
<g><path style="opacity:0.891" fill="#000000" d="M 283.5,243.5 C 291.201,243.362 294.367,247.029 293,254.5C 288.533,259.968 283.7,265.135 278.5,270C 268.45,271.285 264.95,267.119 268,257.5C 272.765,252.228 277.931,247.561 283.5,243.5 Z"/></g>
<g><path style="opacity:0.959" fill="#000000" d="M 496.5,511.5 C 335.833,511.5 175.167,511.5 14.5,511.5C 11.8607,509.691 9.69406,507.358 8,504.5C 7.33333,494.5 7.33333,484.5 8,474.5C 11.153,464.52 17.9863,459.186 28.5,458.5C 28.3333,409.832 28.5,361.166 29,312.5C 32.0133,307.465 36.1799,306.298 41.5,309C 42.7014,309.903 43.5348,311.069 44,312.5C 44.5,361.166 44.6667,409.832 44.5,458.5C 185.167,458.5 325.833,458.5 466.5,458.5C 466.333,409.832 466.5,361.166 467,312.5C 470.013,307.465 474.18,306.298 479.5,309C 480.701,309.903 481.535,311.069 482,312.5C 482.5,361.166 482.667,409.832 482.5,458.5C 493.014,459.186 499.847,464.52 503,474.5C 503.667,484.5 503.667,494.5 503,504.5C 501.306,507.358 499.139,509.691 496.5,511.5 Z M 104.5,367.5 C 110.5,367.5 116.5,367.5 122.5,367.5C 122.5,386.167 122.5,404.833 122.5,423.5C 116.491,423.666 110.491,423.499 104.5,423C 102.06,415.393 97.0599,410.226 89.5,407.5C 88.1667,399.5 88.1667,391.5 89.5,383.5C 96.7794,380.253 101.779,374.919 104.5,367.5 Z M 138.5,367.5 C 149.833,367.5 161.167,367.5 172.5,367.5C 172.5,386.167 172.5,404.833 172.5,423.5C 161.167,423.5 149.833,423.5 138.5,423.5C 138.5,404.833 138.5,386.167 138.5,367.5 Z M 188.5,367.5 C 199.833,367.5 211.167,367.5 222.5,367.5C 222.5,386.167 222.5,404.833 222.5,423.5C 211.167,423.5 199.833,423.5 188.5,423.5C 188.5,404.833 188.5,386.167 188.5,367.5 Z M 238.5,367.5 C 249.833,367.5 261.167,367.5 272.5,367.5C 272.5,386.167 272.5,404.833 272.5,423.5C 261.167,423.5 249.833,423.5 238.5,423.5C 238.5,404.833 238.5,386.167 238.5,367.5 Z M 288.5,367.5 C 299.833,367.5 311.167,367.5 322.5,367.5C 322.5,386.167 322.5,404.833 322.5,423.5C 311.167,423.5 299.833,423.5 288.5,423.5C 288.5,404.833 288.5,386.167 288.5,367.5 Z M 338.5,367.5 C 349.833,367.5 361.167,367.5 372.5,367.5C 372.5,386.167 372.5,404.833 372.5,423.5C 361.167,423.5 349.833,423.5 338.5,423.5C 338.5,404.833 338.5,386.167 338.5,367.5 Z M 388.5,367.5 C 394.509,367.334 400.509,367.501 406.5,368C 409.36,375.207 414.36,380.374 421.5,383.5C 422.833,391.5 422.833,399.5 421.5,407.5C 413.94,410.226 408.94,415.393 406.5,423C 400.509,423.499 394.509,423.666 388.5,423.5C 388.5,404.833 388.5,386.167 388.5,367.5 Z M 27.5,474.5 C 179.5,474.333 331.5,474.5 483.5,475C 485.333,475.5 486.5,476.667 487,478.5C 487.499,484.491 487.666,490.491 487.5,496.5C 332.833,496.5 178.167,496.5 23.5,496.5C 23.3338,490.491 23.5005,484.491 24,478.5C 24.6897,476.65 25.8564,475.316 27.5,474.5 Z"/></g>
<g><path style="opacity:0.94" fill="#000000" d="M 94.5,351.5 C 201.834,351.333 309.167,351.5 416.5,352C 417.931,352.465 419.097,353.299 420,354.5C 420.833,364.667 426.333,370.167 436.5,371C 437.126,371.75 437.626,372.584 438,373.5C 438.667,388.167 438.667,402.833 438,417.5C 437.626,418.416 437.126,419.25 436.5,420C 432.195,420.768 428.195,422.268 424.5,424.5C 422.341,428.266 420.675,432.266 419.5,436.5C 418.335,437.584 417.002,438.417 415.5,439C 308.833,439.667 202.167,439.667 95.5,439C 93.6711,438.727 92.1711,437.893 91,436.5C 90.3042,432.154 88.8042,428.154 86.5,424.5C 82.5277,422.364 78.361,420.698 74,419.5C 72.8635,411.599 72.3635,403.599 72.5,395.5C 72.5155,387.787 72.8489,380.12 73.5,372.5C 74.09,371.201 75.09,370.368 76.5,370C 85.7576,369.073 90.5909,363.907 91,354.5C 92.1451,353.364 93.3117,352.364 94.5,351.5 Z M 104.5,367.5 C 101.779,374.919 96.7794,380.253 89.5,383.5C 88.1667,391.5 88.1667,399.5 89.5,407.5C 97.0599,410.226 102.06,415.393 104.5,423C 110.491,423.499 116.491,423.666 122.5,423.5C 122.5,404.833 122.5,386.167 122.5,367.5C 116.5,367.5 110.5,367.5 104.5,367.5 Z M 138.5,367.5 C 138.5,386.167 138.5,404.833 138.5,423.5C 149.833,423.5 161.167,423.5 172.5,423.5C 172.5,404.833 172.5,386.167 172.5,367.5C 161.167,367.5 149.833,367.5 138.5,367.5 Z M 188.5,367.5 C 188.5,386.167 188.5,404.833 188.5,423.5C 199.833,423.5 211.167,423.5 222.5,423.5C 222.5,404.833 222.5,386.167 222.5,367.5C 211.167,367.5 199.833,367.5 188.5,367.5 Z M 238.5,367.5 C 238.5,386.167 238.5,404.833 238.5,423.5C 249.833,423.5 261.167,423.5 272.5,423.5C 272.5,404.833 272.5,386.167 272.5,367.5C 261.167,367.5 249.833,367.5 238.5,367.5 Z M 288.5,367.5 C 288.5,386.167 288.5,404.833 288.5,423.5C 299.833,423.5 311.167,423.5 322.5,423.5C 322.5,404.833 322.5,386.167 322.5,367.5C 311.167,367.5 299.833,367.5 288.5,367.5 Z M 338.5,367.5 C 338.5,386.167 338.5,404.833 338.5,423.5C 349.833,423.5 361.167,423.5 372.5,423.5C 372.5,404.833 372.5,386.167 372.5,367.5C 361.167,367.5 349.833,367.5 338.5,367.5 Z M 388.5,367.5 C 388.5,386.167 388.5,404.833 388.5,423.5C 394.509,423.666 400.509,423.499 406.5,423C 408.94,415.393 413.94,410.226 421.5,407.5C 422.833,399.5 422.833,391.5 421.5,383.5C 414.36,380.374 409.36,375.207 406.5,368C 400.509,367.501 394.509,367.334 388.5,367.5 Z"/></g>
</svg>
