<?xml version="1.0" encoding="UTF-8"?>
<!DOCTYPE svg PUBLIC "-//W3C//DTD SVG 1.1//EN" "http://www.w3.org/Graphics/SVG/1.1/DTD/svg11.dtd">
<svg xmlns="http://www.w3.org/2000/svg" version="1.1" width="512px" height="512px" style="shape-rendering:geometricPrecision; text-rendering:geometricPrecision; image-rendering:optimizeQuality; fill-rule:evenodd; clip-rule:evenodd" xmlns:xlink="http://www.w3.org/1999/xlink">
<g><path style="opacity:0.925" fill="#161514" d="M 111.5,24.5 C 114.044,24.1043 116.211,24.771 118,26.5C 122.34,33.8482 127.173,40.8482 132.5,47.5C 139.887,40.6389 148.554,36.1389 158.5,34C 167.85,32.4976 177.183,31.9976 186.5,32.5C 189.113,35.3714 189.113,38.2047 186.5,41C 172.793,45.7258 160.293,52.5592 149,61.5C 140.394,70.1511 136.894,80.4844 138.5,92.5C 142.004,90.5823 145.337,88.4157 148.5,86C 163.313,72.7638 178.313,59.7638 193.5,47C 198.167,44 202.833,41 207.5,38C 214,36.5 216.5,39 215,45.5C 191.006,65.4797 170.673,88.4797 154,114.5C 136.645,144.385 134.311,175.385 147,207.5C 158.166,232.517 172.833,255.184 191,275.5C 201.318,286.985 212.151,297.985 223.5,308.5C 231.346,303.718 239.846,301.051 249,300.5C 255.448,300.859 261.948,301.025 268.5,301C 275.465,302.832 282.132,305.165 288.5,308C 314.376,283.679 336.543,256.512 355,226.5C 380.431,180.917 377.098,137.583 345,96.5C 330.068,78.2334 313.735,61.2334 296,45.5C 294.5,39 297,36.5 303.5,38C 307.167,40.3333 310.833,42.6667 314.5,45C 330.461,57.9584 346.127,71.2917 361.5,85C 364.82,87.9945 368.487,90.4945 372.5,92.5C 374.085,82.9343 371.919,74.2677 366,66.5C 354.359,54.5884 340.526,46.0884 324.5,41C 322.556,38.8471 322.056,36.3471 323,33.5C 324.574,32.1524 326.407,31.4858 328.5,31.5C 339.325,31.9157 349.991,33.4157 360.5,36C 367.314,38.573 373.314,42.4063 378.5,47.5C 384.516,40.8142 390.182,33.8142 395.5,26.5C 399.9,23.2999 402.9,24.2999 404.5,29.5C 401.421,43.0633 398.921,56.73 397,70.5C 396.169,78.1883 396.335,85.855 397.5,93.5C 401.042,90.121 404.042,86.2876 406.5,82C 411.661,79.7475 414.661,81.4142 415.5,87C 414.82,90.8951 414.32,94.7284 414,98.5C 417,95.8333 420,95.8333 423,98.5C 425.554,104.931 427.22,111.598 428,118.5C 437.375,109.084 443.041,97.751 445,84.5C 447.762,69.1192 446.429,54.1192 441,39.5C 439.332,33.5069 441.498,31.0069 447.5,32C 464.801,52.0464 469.634,74.8797 462,100.5C 455.314,120.379 443.814,136.879 427.5,150C 422.871,152.898 418.037,155.398 413,157.5C 405.892,176.385 398.225,195.051 390,213.5C 386.309,221.06 385.142,228.893 386.5,237C 398.547,238.931 410.547,238.598 422.5,236C 431.131,233.037 437.631,227.537 442,219.5C 447.321,207.87 451.655,195.87 455,183.5C 456.747,179.579 459.581,178.579 463.5,180.5C 464.696,181.559 465.363,182.893 465.5,184.5C 464.134,203.699 460.301,222.365 454,240.5C 450.77,248.063 445.27,253.229 437.5,256C 418.403,259.11 399.403,262.776 380.5,267C 366.228,273.044 353.394,281.211 342,291.5C 339.845,294.54 340.012,297.373 342.5,300C 353.072,302.478 363.739,304.311 374.5,305.5C 385.911,304.795 395.578,300.295 403.5,292C 407.983,289.36 411.316,290.36 413.5,295C 407.249,308.918 397.249,319.251 383.5,326C 379.235,327.015 374.902,327.515 370.5,327.5C 359.324,326.79 348.324,324.957 337.5,322C 331.098,321.182 324.765,321.516 318.5,323C 315.333,326.167 312.167,329.333 309,332.5C 314.659,347.884 314.992,363.55 310,379.5C 307.436,388.628 303.769,397.295 299,405.5C 293.333,412.5 287.667,419.5 282,426.5C 281.333,429.167 281.333,431.833 282,434.5C 284.22,439.384 287.22,443.718 291,447.5C 290.035,455.257 286.535,461.757 280.5,467C 275.802,469.349 271.136,471.682 266.5,474C 263.245,477.859 260.245,481.859 257.5,486C 255.765,486.651 254.098,486.485 252.5,485.5C 249.957,481.579 247.29,477.746 244.5,474C 239.41,471.524 234.41,468.857 229.5,466C 224.04,460.911 220.873,454.744 220,447.5C 222.333,444.5 224.667,441.5 227,438.5C 230.513,432.587 230.179,426.92 226,421.5C 204.907,400.622 195.574,375.289 198,345.5C 199.175,340.986 200.508,336.652 202,332.5C 198.306,327.787 193.806,324.287 188.5,322C 183.5,321.333 178.5,321.333 173.5,322C 162.649,324.804 151.649,326.637 140.5,327.5C 127.648,327.491 117.148,322.491 109,312.5C 106,308.5 103,304.5 100,300.5C 96.6293,293.861 98.4626,290.694 105.5,291C 111.484,296.329 118.151,300.663 125.5,304C 129.078,305.037 132.744,305.537 136.5,305.5C 146.961,304.469 157.294,302.636 167.5,300C 171.998,297.846 172.498,295.013 169,291.5C 153.452,277.141 135.285,267.641 114.5,263C 103.154,261.406 91.8205,259.739 80.5,258C 64.9422,254.75 55.7755,245.25 53,229.5C 48.7508,213.689 46.5841,197.689 46.5,181.5C 50.5025,178.4 53.6691,179.067 56,183.5C 59.3454,195.87 63.6787,207.87 69,219.5C 76.6656,232.586 88.1656,238.753 103.5,238C 110.799,238.8 117.965,238.3 125,236.5C 125.435,228.564 124.102,220.897 121,213.5C 113.057,195.282 105.391,176.948 98,158.5C 65.6789,140.901 48.1789,113.567 45.5,76.5C 45.5728,59.1984 51.5728,44.3651 63.5,32C 67.8334,30.5106 70.1667,32.0106 70.5,36.5C 60.8939,62.933 63.0606,88.2664 77,112.5C 79,114.5 81,116.5 83,118.5C 83.6609,112.523 85.3275,106.856 88,101.5C 90.4009,100.398 92.9009,100.231 95.5,101C 99.4639,111.219 103.631,121.386 108,131.5C 109.306,127.554 111.139,123.888 113.5,120.5C 100.19,110.742 94.8562,97.909 97.5,82C 99.0444,80.8129 100.711,80.4795 102.5,81C 106.5,84.8039 110.167,88.9705 113.5,93.5C 115.802,80.1648 115.636,66.8314 113,53.5C 111.629,45.6426 110.129,37.8093 108.5,30C 108.863,27.8077 109.863,25.9744 111.5,24.5 Z M 144.5,51.5 C 142.167,54.5 139.5,57.1667 136.5,59.5C 138.167,55.8333 140.833,53.1667 144.5,51.5 Z M 366.5,51.5 C 370.167,53.1667 372.833,55.8333 374.5,59.5C 371.5,57.1667 368.833,54.5 366.5,51.5 Z M 397.5,106.5 C 393.158,110.336 388.824,114.169 384.5,118C 387.254,123.454 390.087,128.954 393,134.5C 394.156,138.123 395.156,141.789 396,145.5C 397.82,148.203 400.32,149.036 403.5,148C 410.535,140.434 415.368,131.601 418,121.5C 418.346,124.576 419.012,127.576 420,130.5C 421.333,131.167 422.667,131.833 424,132.5C 429.073,130.717 433.573,128.05 437.5,124.5C 429.782,136.545 419.116,144.878 405.5,149.5C 395.781,171.605 386.614,193.939 378,216.5C 374.834,225.58 374.834,234.58 378,243.5C 379.214,245.049 380.714,246.215 382.5,247C 397.559,248.644 412.559,247.978 427.5,245C 434.395,242.769 440.229,238.936 445,233.5C 443.538,239.189 440.038,243.356 434.5,246C 416.897,249.576 399.231,252.91 381.5,256C 362.881,262.544 346.715,272.71 333,286.5C 327.619,295.362 329.119,302.862 337.5,309C 350.992,312.565 364.659,315.232 378.5,317C 373.5,317.667 368.5,317.667 363.5,317C 352.52,313.962 341.353,312.129 330,311.5C 324.009,311.288 318.175,312.122 312.5,314C 303.269,323.901 293.436,333.067 283,341.5C 282.223,344.429 282.39,347.263 283.5,350C 282.874,350.75 282.374,351.584 282,352.5C 272.012,347.195 267.179,338.861 267.5,327.5C 271.093,327.641 274.593,328.308 278,329.5C 279.627,329.375 281.127,328.875 282.5,328C 307.863,304.978 330.696,279.811 351,252.5C 366.041,231.391 376.041,208.058 381,182.5C 383.661,162.129 380.994,142.462 373,123.5C 368.57,113.629 363.403,104.296 357.5,95.5C 361.976,99.3204 367.142,101.654 373,102.5C 377.2,102.902 380.2,101.235 382,97.5C 384.729,83.753 382.229,71.0863 374.5,59.5C 375.962,60.4577 377.295,61.6244 378.5,63C 380.235,63.6514 381.902,63.4847 383.5,62.5C 385.237,58.7895 387.071,55.1229 389,51.5C 388.671,57.1554 388.004,62.8221 387,68.5C 386.333,77.8333 386.333,87.1667 387,96.5C 387.457,99.796 388.291,102.963 389.5,106C 392.053,107.656 394.719,107.823 397.5,106.5 Z M 136.5,59.5 C 128.587,71.0346 126.087,83.7012 129,97.5C 130.664,101.084 133.497,102.751 137.5,102.5C 139.923,102.406 142.256,101.906 144.5,101C 147.528,99.1555 150.528,97.3222 153.5,95.5C 122.809,139.348 120.643,184.681 147,231.5C 169.342,267.528 196.509,299.695 228.5,328C 233.194,329.866 237.694,329.366 242,326.5C 244.163,338.175 239.83,346.841 229,352.5C 228.667,348.833 228.333,345.167 228,341.5C 217.564,333.067 207.731,323.901 198.5,314C 189.312,311.607 179.979,310.94 170.5,312C 158.094,315.883 145.427,317.55 132.5,317C 146.838,315.4 160.838,312.4 174.5,308C 183.274,300.424 183.774,292.257 176,283.5C 163.934,272.875 150.434,264.375 135.5,258C 115.956,253.351 96.289,249.351 76.5,246C 70.8561,243.526 67.1895,239.359 65.5,233.5C 73.0858,241.459 82.4191,245.959 93.5,247C 99.551,247.208 105.551,247.708 111.5,248.5C 133.117,250.706 140.617,241.372 134,220.5C 125.054,196.608 115.554,172.941 105.5,149.5C 91.8517,144.837 81.185,136.504 73.5,124.5C 77.4269,128.05 81.9269,130.717 87,132.5C 88.3333,131.833 89.6667,131.167 91,130.5C 91.6667,127.833 92.3333,125.167 93,122.5C 95.3881,132.449 100.221,140.949 107.5,148C 110.636,149.041 113.136,148.207 115,145.5C 116.212,136.849 119.545,129.182 125,122.5C 125.667,120.167 125.667,117.833 125,115.5C 120.693,113.018 116.86,110.018 113.5,106.5C 118.676,108.662 121.842,106.995 123,101.5C 125.954,86.1868 126.287,70.8534 124,55.5C 126.075,64.2213 130.241,65.5546 136.5,59.5 Z M 410.5,106.5 C 409.087,115.151 406.587,123.485 403,131.5C 401.448,127.667 399.615,124 397.5,120.5C 402.59,116.414 406.924,111.748 410.5,106.5 Z M 244.5,310.5 C 251.841,311.54 259.175,311.706 266.5,311C 271.136,311.879 275.469,313.545 279.5,316C 278.646,317.022 277.646,317.855 276.5,318.5C 268.86,314.994 262.694,316.661 258,323.5C 256.44,338.544 261.607,350.711 273.5,360C 287.207,365.135 294.207,360.302 294.5,345.5C 296.483,344.018 298.316,342.351 300,340.5C 301.527,342.221 302.527,344.221 303,346.5C 304.925,373.302 296.258,395.968 277,414.5C 269.279,426.586 269.946,438.253 279,449.5C 279.667,450.5 279.667,451.5 279,452.5C 275.849,458.317 271.016,461.817 264.5,463C 261.354,465.312 258.354,467.812 255.5,470.5C 250.773,465.47 245.106,461.97 238.5,460C 235.96,457.795 233.793,455.295 232,452.5C 231.82,448.958 233.153,445.958 236,443.5C 241.171,433.391 240.505,423.725 234,414.5C 214.709,395.97 206.043,373.303 208,346.5C 208.543,344.369 209.376,342.369 210.5,340.5C 212.856,342.69 215.356,344.69 218,346.5C 217.978,360.482 224.478,364.982 237.5,360C 251.407,349.945 255.907,336.778 251,320.5C 245.837,315.964 240.171,315.298 234,318.5C 232.72,318.387 231.887,317.72 231.5,316.5C 235.574,313.708 239.908,311.708 244.5,310.5 Z"/></g>
</svg>
