<?xml version="1.0" encoding="UTF-8"?>
<!DOCTYPE svg PUBLIC "-//W3C//DTD SVG 1.1//EN" "http://www.w3.org/Graphics/SVG/1.1/DTD/svg11.dtd">
<svg xmlns="http://www.w3.org/2000/svg" version="1.1" width="512px" height="512px" style="shape-rendering:geometricPrecision; text-rendering:geometricPrecision; image-rendering:optimizeQuality; fill-rule:evenodd; clip-rule:evenodd" xmlns:xlink="http://www.w3.org/1999/xlink">
<g><path style="opacity:0.932" fill="#000000" d="M 240.5,-0.5 C 250.5,-0.5 260.5,-0.5 270.5,-0.5C 293.687,3.34381 313.52,13.6771 330,30.5C 332.37,39.5659 328.87,43.3992 319.5,42C 289.81,14.5954 256.143,8.26205 218.5,23C 186.488,39.3594 169.321,65.5261 167,101.5C 166.333,134.833 166.333,168.167 167,201.5C 167.441,211.157 170.108,220.157 175,228.5C 189.901,245.402 206.067,260.902 223.5,275C 233.651,279.73 244.318,281.563 255.5,280.5C 270.753,282.023 284.419,278.19 296.5,269C 308.667,256.833 320.833,244.667 333,232.5C 337.95,225.932 341.283,218.599 343,210.5C 344.606,174.524 344.939,138.524 344,102.5C 343.858,89.9334 341.192,77.9334 336,66.5C 334.378,57.2099 338.211,53.7099 347.5,56C 353.693,65.9088 357.527,76.7422 359,88.5C 359.95,98.8137 360.45,109.147 360.5,119.5C 385.523,120.523 399.19,133.523 401.5,158.5C 399.035,183.298 385.368,196.632 360.5,198.5C 360.39,212.943 356.557,226.277 349,238.5C 337.39,251.111 325.39,263.444 313,275.5C 312.5,285.828 312.334,296.161 312.5,306.5C 339.924,310.793 367.257,315.626 394.5,321C 429.691,332.191 451.857,355.691 461,391.5C 463.331,406.42 463.997,421.42 463,436.5C 462.109,440.562 459.609,442.562 455.5,442.5C 452.029,442.849 449.529,441.516 448,438.5C 447.806,425.138 447.139,411.805 446,398.5C 438.353,364.854 417.853,343.687 384.5,335C 356.451,330.214 328.451,325.214 300.5,320C 298.667,319.5 297.5,318.333 297,316.5C 296.667,307.167 296.333,297.833 296,288.5C 283.353,295.193 269.853,297.86 255.5,296.5C 241.147,297.86 227.647,295.193 215,288.5C 214.667,297.833 214.333,307.167 214,316.5C 212.661,319.094 210.494,320.594 207.5,321C 195.466,323.061 183.466,325.228 171.5,327.5C 163.016,324.795 161.35,319.795 166.5,312.5C 177.042,309.858 187.709,307.858 198.5,306.5C 198.666,296.161 198.5,285.828 198,275.5C 185.637,263.471 173.637,251.138 162,238.5C 154.443,226.277 150.61,212.943 150.5,198.5C 125.632,196.632 111.965,183.298 109.5,158.5C 111.81,133.523 125.477,120.523 150.5,119.5C 147.201,67.5601 168.535,30.0601 214.5,7C 223.117,3.85065 231.783,1.35065 240.5,-0.5 Z M 248.5,68.5 C 285.559,68.7238 306.559,87.2238 311.5,124C 308.829,152.503 293.829,171.003 266.5,179.5C 265.416,180.665 264.583,181.998 264,183.5C 263.87,187.951 263.204,192.284 262,196.5C 256.559,200.926 251.892,200.259 248,194.5C 247.333,185.833 247.333,177.167 248,168.5C 249.227,166.274 251.061,164.774 253.5,164C 282.993,161.175 296.493,145.008 294,115.5C 286.195,92.0447 270.029,82.2113 245.5,86C 225.452,92.8839 215.286,107.051 215,128.5C 210.333,133.833 205.667,133.833 201,128.5C 199.538,105.925 208.371,88.4254 227.5,76C 234.295,72.571 241.295,70.071 248.5,68.5 Z M 143.5,135.5 C 145.833,135.5 148.167,135.5 150.5,135.5C 150.5,151.167 150.5,166.833 150.5,182.5C 135.643,181.309 127.309,173.309 125.5,158.5C 127.052,147.288 133.052,139.622 143.5,135.5 Z M 360.5,135.5 C 374.841,136.504 383.175,144.17 385.5,158.5C 383.691,173.309 375.357,181.309 360.5,182.5C 360.5,166.833 360.5,151.167 360.5,135.5 Z M 254.5,215.5 C 262.204,216.914 264.704,221.247 262,228.5C 257.667,233.833 253.333,233.833 249,228.5C 246.449,222.271 248.283,217.938 254.5,215.5 Z"/></g>
<g><path style="opacity:0.926" fill="#000000" d="M 247.5,52.5 C 286.976,51.1704 312.809,69.1704 325,106.5C 331.259,137.06 322.426,162.227 298.5,182C 292.943,185.946 286.943,189.113 280.5,191.5C 279.621,197.641 277.288,203.141 273.5,208C 278.841,214.194 280.674,221.361 279,229.5C 273.696,244.571 263.196,250.404 247.5,247C 231.762,238.906 227.595,226.739 235,210.5C 235.833,209.667 236.667,208.833 237.5,208C 235.014,204.863 233.181,201.363 232,197.5C 231.333,186.833 231.333,176.167 232,165.5C 234.611,155.888 240.778,150.055 250.5,148C 270.143,147.697 279.309,137.863 278,118.5C 270.758,101.792 258.925,97.2923 242.5,105C 238.969,107.871 236.136,111.371 234,115.5C 232.928,120.811 231.928,126.145 231,131.5C 226.123,144.026 216.957,149.526 203.5,148C 190.81,144.804 184.144,136.637 183.5,123.5C 187.387,83.9529 208.72,60.2863 247.5,52.5 Z M 248.5,68.5 C 241.295,70.071 234.295,72.571 227.5,76C 208.371,88.4254 199.538,105.925 201,128.5C 205.667,133.833 210.333,133.833 215,128.5C 215.286,107.051 225.452,92.8839 245.5,86C 270.029,82.2113 286.195,92.0447 294,115.5C 296.493,145.008 282.993,161.175 253.5,164C 251.061,164.774 249.227,166.274 248,168.5C 247.333,177.167 247.333,185.833 248,194.5C 251.892,200.259 256.559,200.926 262,196.5C 263.204,192.284 263.87,187.951 264,183.5C 264.583,181.998 265.416,180.665 266.5,179.5C 293.829,171.003 308.829,152.503 311.5,124C 306.559,87.2238 285.559,68.7238 248.5,68.5 Z M 254.5,215.5 C 248.283,217.938 246.449,222.271 249,228.5C 253.333,233.833 257.667,233.833 262,228.5C 264.704,221.247 262.204,216.914 254.5,215.5 Z"/></g>
<g><path style="opacity:0.928" fill="#000000" d="M 59.5,511.5 C 56.8333,511.5 54.1667,511.5 51.5,511.5C 49.7304,509.887 48.5637,507.887 48,505.5C 47.3333,472.5 47.3333,439.5 48,406.5C 52.1628,365.015 73.6628,336.848 112.5,322C 121.613,318.925 130.947,317.592 140.5,318C 144.212,320.513 145.378,324.013 144,328.5C 143.535,329.931 142.701,331.097 141.5,332C 96.5101,337.658 70.6768,362.825 64,407.5C 63.6667,440.833 63.3333,474.167 63,507.5C 62.3103,509.35 61.1436,510.684 59.5,511.5 Z"/></g>
<g><path style="opacity:0.923" fill="#000000" d="M 140.5,511.5 C 137.833,511.5 135.167,511.5 132.5,511.5C 130.856,510.684 129.69,509.35 129,507.5C 128.667,486.5 128.333,465.5 128,444.5C 124.333,440.833 120.667,437.167 117,433.5C 114.484,423.35 118.317,419.516 128.5,422C 134.436,427.262 139.603,433.096 144,439.5C 144.667,461.5 144.667,483.5 144,505.5C 143.436,507.887 142.27,509.887 140.5,511.5 Z"/></g>
<g><path style="opacity:0.923" fill="#000000" d="M 378.5,511.5 C 375.833,511.5 373.167,511.5 370.5,511.5C 368.73,509.887 367.564,507.887 367,505.5C 366.333,483.5 366.333,461.5 367,439.5C 371.397,433.096 376.564,427.262 382.5,422C 392.683,419.516 396.516,423.35 394,433.5C 390.333,437.167 386.667,440.833 383,444.5C 382.667,465.5 382.333,486.5 382,507.5C 381.31,509.35 380.144,510.684 378.5,511.5 Z"/></g>
<g><path style="opacity:0.918" fill="#000000" d="M 459.5,511.5 C 456.833,511.5 454.167,511.5 451.5,511.5C 449.856,510.684 448.69,509.35 448,507.5C 447.333,493.833 447.333,480.167 448,466.5C 453.308,459.803 458.308,460.136 463,467.5C 463.667,480.167 463.667,492.833 463,505.5C 462.436,507.887 461.27,509.887 459.5,511.5 Z"/></g>
</svg>
