<?xml version="1.0" encoding="UTF-8"?>
<!DOCTYPE svg PUBLIC "-//W3C//DTD SVG 1.1//EN" "http://www.w3.org/Graphics/SVG/1.1/DTD/svg11.dtd">
<svg xmlns="http://www.w3.org/2000/svg" version="1.1" width="512px" height="512px" style="shape-rendering:geometricPrecision; text-rendering:geometricPrecision; image-rendering:optimizeQuality; fill-rule:evenodd; clip-rule:evenodd" xmlns:xlink="http://www.w3.org/1999/xlink">
<g><path style="opacity:0.936" fill="#000000" d="M 237.5,-0.5 C 251.5,-0.5 265.5,-0.5 279.5,-0.5C 329.016,3.90554 377.35,14.4055 424.5,31C 439.168,36.1666 452.834,43.1666 465.5,52C 471.56,56.7145 476.06,62.5478 479,69.5C 481.616,80.4221 478.116,88.5887 468.5,94C 460.479,97.4221 452.146,99.7554 443.5,101C 431.524,102.554 419.524,103.887 407.5,105C 411.817,111.812 415.984,118.645 420,125.5C 441.253,130.688 462.087,137.188 482.5,145C 499.783,155.412 506.283,170.579 502,190.5C 493.512,211.662 478.012,220.162 455.5,216C 451.384,214.795 447.384,213.295 443.5,211.5C 445.919,230.737 439.919,246.904 425.5,260C 422.048,262.393 418.381,264.226 414.5,265.5C 417.632,272.437 420.799,279.437 424,286.5C 432.87,312.873 430.536,338.206 417,362.5C 412.256,370.411 405.756,376.411 397.5,380.5C 415.242,400.972 428.076,424.306 436,450.5C 441.211,481.434 429.044,501.767 399.5,511.5C 303.5,511.5 207.5,511.5 111.5,511.5C 84.1727,502.97 71.6727,484.304 74,455.5C 75.4073,444.861 80.574,442.194 89.5,447.5C 89.8545,455.117 90.0212,462.783 90,470.5C 94.5328,486.366 105.033,494.866 121.5,496C 139.5,496.667 157.5,496.667 175.5,496C 168.548,487.926 161.714,479.759 155,471.5C 146.093,460.183 140.926,447.35 139.5,433C 139.978,420.898 143.645,409.898 150.5,400C 146.604,393.707 143.104,387.207 140,380.5C 137.929,381.525 135.762,382.358 133.5,383C 120.797,396.414 109.797,411.081 100.5,427C 91.2115,429.29 87.3782,425.79 89,416.5C 95.9301,403.634 104.097,391.634 113.5,380.5C 101.514,373.57 93.0144,363.57 88,350.5C 79.83,329.29 79.4967,307.956 87,286.5C 90.2013,279.437 93.3679,272.437 96.5,265.5C 82.2957,259.787 73.129,249.454 69,234.5C 67.5979,226.789 67.0979,219.122 67.5,211.5C 47.6614,221.564 30.1614,218.564 15,202.5C 5.41094,187.742 5.0776,172.742 14,157.5C 19.0633,150.775 25.5633,145.941 33.5,143C 52.9678,136.121 72.6345,129.955 92.5,124.5C 100.295,106.2 112.628,91.7004 129.5,81C 135.423,77.1204 141.59,73.6204 148,70.5C 162.971,28.098 192.804,4.43131 237.5,-0.5 Z M 253.5,14.5 C 312.737,16.5807 370.07,28.0807 425.5,49C 439.392,53.8548 451.559,61.3548 462,71.5C 464.693,76.5079 463.193,79.6745 457.5,81C 436.668,86.2277 415.502,89.0611 394,89.5C 376.537,76.6832 357.37,66.8499 336.5,60C 325.462,58.4086 322.129,62.7419 326.5,73C 351.71,80.3456 373.544,93.1789 392,111.5C 394.029,114.029 395.862,116.696 397.5,119.5C 396.833,119.833 396.167,120.167 395.5,120.5C 322.655,106.21 249.322,103.043 175.5,111C 154.399,113.685 133.399,116.685 112.5,120C 126.481,101.367 144.481,88.0338 166.5,80C 209.393,64.0468 253.393,59.8802 298.5,67.5C 307.264,64.1692 308.597,59.0026 302.5,52C 257.712,44.2992 213.712,47.4659 170.5,61.5C 170.167,61.1667 169.833,60.8333 169.5,60.5C 181.108,39.0727 198.774,25.2393 222.5,19C 232.852,16.5929 243.185,15.0929 253.5,14.5 Z M 233.5,122.5 C 307.693,120.524 380.36,130.024 451.5,151C 461.875,154.01 471.708,158.177 481,163.5C 490.232,175.414 489.399,186.581 478.5,197C 474.574,199.568 470.24,201.068 465.5,201.5C 341.526,160.183 216.192,155.683 89.5,188C 75.9695,191.732 62.6362,196.066 49.5,201C 34.3757,201.713 25.709,194.547 23.5,179.5C 24.4335,169.066 29.7669,161.899 39.5,158C 102.493,136.363 167.159,124.529 233.5,122.5 Z M 235.5,182.5 C 282.528,181.716 329.195,185.383 375.5,193.5C 381.988,233.231 372.154,268.231 346,298.5C 340.98,292.14 334.813,287.307 327.5,284C 316.897,281.887 308.73,285.387 303,294.5C 271.333,250.5 239.667,250.5 208,294.5C 198.67,282.009 187.503,280.176 174.5,289C 171.333,292.167 168.167,295.333 165,298.5C 138.846,268.233 129.013,233.233 135.5,193.5C 168.765,187.915 202.099,184.248 235.5,182.5 Z M 116.5,197.5 C 117.748,198.334 118.415,199.667 118.5,201.5C 117.067,214.542 117.4,227.542 119.5,240.5C 119.333,241.5 119.167,242.5 119,243.5C 115.034,246.464 111.367,249.797 108,253.5C 86.5357,244.775 79.5357,229.442 87,207.5C 87.8333,206.667 88.6667,205.833 89.5,205C 98.6616,202.63 107.662,200.13 116.5,197.5 Z M 392.5,197.5 C 402.653,199.55 412.653,202.217 422.5,205.5C 432.366,228.057 425.866,244.057 403,253.5C 399.633,249.797 395.966,246.464 392,243.5C 392.605,234.539 393.105,225.539 393.5,216.5C 393.305,210.153 392.972,203.82 392.5,197.5 Z M 123.5,260.5 C 131.53,282.703 144.196,301.869 161.5,318C 164.964,318.817 168.298,318.483 171.5,317C 176.053,309.613 182.053,303.78 189.5,299.5C 191.383,299.876 192.883,300.876 194,302.5C 197.305,307.616 200.472,312.783 203.5,318C 206.5,318.667 209.5,318.667 212.5,318C 219.597,305.227 228.597,293.894 239.5,284C 246.357,278.368 254.024,276.701 262.5,279C 270.827,283.319 277.993,289.152 284,296.5C 288.957,303.58 293.79,310.747 298.5,318C 301.5,318.667 304.5,318.667 307.5,318C 310.528,312.783 313.695,307.616 317,302.5C 319.332,299.209 322.165,298.709 325.5,301C 330.912,305.741 335.579,311.074 339.5,317C 342.776,319.387 346.109,319.721 349.5,318C 366.783,302.032 379.283,282.865 387,260.5C 410.181,281.886 417.848,307.886 410,338.5C 407.721,345.724 404.388,352.391 400,358.5C 390.108,369.212 379.942,369.712 369.5,360C 366.366,359.21 363.366,359.543 360.5,361C 357.268,370.348 353.435,379.515 349,388.5C 345.454,393.713 340.954,397.88 335.5,401C 333.5,401.667 331.5,401.667 329.5,401C 325.167,398 321.5,394.333 318.5,390C 314.495,388.902 310.995,389.735 308,392.5C 294.819,420.176 272.986,431.676 242.5,427C 232.144,424.325 223.144,419.325 215.5,412C 210.109,404.941 205.109,397.607 200.5,390C 197.833,389.333 195.167,389.333 192.5,390C 189.5,394.333 185.833,398 181.5,401C 177.88,401.841 174.546,401.174 171.5,399C 167.964,395.799 164.797,392.299 162,388.5C 157.565,379.515 153.732,370.348 150.5,361C 144.419,358.204 139.419,359.537 135.5,365C 126.001,368.397 117.834,366.23 111,358.5C 92.8811,329.991 93.2145,301.658 112,273.5C 115.67,268.998 119.503,264.665 123.5,260.5 Z M 370.5,380.5 C 376.163,381.647 380.663,384.647 384,389.5C 400.169,408.373 412.169,429.706 420,453.5C 424.413,473.844 416.913,487.677 397.5,495C 376.864,496.567 356.197,496.901 335.5,496C 342.452,487.926 349.286,479.759 356,471.5C 365.055,460.055 370.222,447.055 371.5,432.5C 370.918,420.586 367.251,409.752 360.5,400C 364.875,394.045 368.209,387.545 370.5,380.5 Z M 194.5,411.5 C 198.556,416.065 202.056,421.065 205,426.5C 208.559,449.757 212.393,472.923 216.5,496C 210.5,496.667 204.5,496.667 198.5,496C 184.549,482.888 172.382,468.388 162,452.5C 153.534,439.434 153.367,426.267 161.5,413C 165.165,413.984 168.832,415.317 172.5,417C 180.927,418.877 188.26,417.043 194.5,411.5 Z M 315.5,411.5 C 322.225,416.901 329.891,418.735 338.5,417C 342.168,415.317 345.835,413.984 349.5,413C 357.633,426.267 357.466,439.434 349,452.5C 338.618,468.388 326.451,482.888 312.5,496C 306.5,496.667 300.5,496.667 294.5,496C 298.705,472.939 302.538,449.772 306,426.5C 308.991,421.352 312.158,416.352 315.5,411.5 Z M 223.5,437.5 C 244.833,446.833 266.167,446.833 287.5,437.5C 284.825,457.218 281.825,476.885 278.5,496.5C 263.167,496.5 247.833,496.5 232.5,496.5C 229.175,476.885 226.175,457.218 223.5,437.5 Z"/></g>
<g><path style="opacity:0.903" fill="#000000" d="M 189.5,200.5 C 195.757,199.2 199.59,201.533 201,207.5C 201.851,213.253 201.517,218.92 200,224.5C 195.391,229.547 190.724,229.547 186,224.5C 185.333,217.833 185.333,211.167 186,204.5C 186.69,202.65 187.856,201.316 189.5,200.5 Z"/></g>
<g><path style="opacity:0.903" fill="#000000" d="M 314.5,200.5 C 316.857,200.337 319.19,200.503 321.5,201C 323.333,201.5 324.5,202.667 325,204.5C 325.667,211.167 325.667,217.833 325,224.5C 320.333,229.833 315.667,229.833 311,224.5C 309,217.5 309,210.5 311,203.5C 312.145,202.364 313.312,201.364 314.5,200.5 Z"/></g>
<g><path style="opacity:0.905" fill="#000000" d="M 236.5,211.5 C 240.688,211.094 244.021,212.594 246.5,216C 249.309,217.658 252.309,218.825 255.5,219.5C 260.894,218.304 265.56,215.804 269.5,212C 277.708,211.548 280.875,215.381 279,223.5C 270.543,233.985 259.71,237.485 246.5,234C 240.522,232.013 235.688,228.513 232,223.5C 230.309,218.131 231.809,214.131 236.5,211.5 Z"/></g>
</svg>
