<?xml version="1.0" encoding="UTF-8"?>
<!DOCTYPE svg PUBLIC "-//W3C//DTD SVG 1.1//EN" "http://www.w3.org/Graphics/SVG/1.1/DTD/svg11.dtd">
<svg xmlns="http://www.w3.org/2000/svg" version="1.1" width="512px" height="512px" style="shape-rendering:geometricPrecision; text-rendering:geometricPrecision; image-rendering:optimizeQuality; fill-rule:evenodd; clip-rule:evenodd" xmlns:xlink="http://www.w3.org/1999/xlink">
<g><path style="opacity:0.96" fill="#000000" d="M 432.5,-0.5 C 436.167,-0.5 439.833,-0.5 443.5,-0.5C 445.807,0.977392 447.64,2.97739 449,5.5C 449.333,48.5 449.667,91.5 450,134.5C 459.673,143.015 463.506,153.682 461.5,166.5C 475.504,166.333 489.504,166.5 503.5,167C 506.428,168.26 508.261,170.427 509,173.5C 509.667,284.167 509.667,394.833 509,505.5C 507.64,508.023 505.807,510.023 503.5,511.5C 338.167,511.5 172.833,511.5 7.5,511.5C 5.19301,510.023 3.35968,508.023 2,505.5C 1.00619,393.777 1.33953,282.111 3,170.5C 4.21398,168.951 5.71398,167.785 7.5,167C 79.5,166.667 151.5,166.333 223.5,166C 241.502,149.276 262.835,141.776 287.5,143.5C 287.333,106.832 287.5,70.1652 288,33.5C 288.833,28 292,24.8333 297.5,24C 342.674,16.0285 387.674,7.86181 432.5,-0.5 Z M 423.5,22.5 C 425.167,22.5 426.833,22.5 428.5,22.5C 428.819,32.4163 428.486,42.2496 427.5,52C 387.91,58.9033 348.41,66.07 309,73.5C 308.833,68.5 308.667,63.5 308.5,58.5C 308.529,53.0849 309.195,47.9183 310.5,43C 348.38,36.5775 386.047,29.7441 423.5,22.5 Z M 423.5,73.5 C 425.167,73.5 426.833,73.5 428.5,73.5C 428.5,90.8333 428.5,108.167 428.5,125.5C 403.023,123.833 381.189,131.833 363,149.5C 359.064,154.37 355.898,159.704 353.5,165.5C 342.181,166.666 330.848,166.832 319.5,166C 317.084,160.593 313.584,156.093 309,152.5C 308.5,133.17 308.333,113.836 308.5,94.5C 347.025,87.8596 385.358,80.8596 423.5,73.5 Z M 412.5,146.5 C 422.477,144.868 431.311,147.201 439,153.5C 441.565,160.079 440.565,166.079 436,171.5C 419.216,189.551 399.383,194.384 376.5,186C 371.445,180.07 371.278,173.903 376,167.5C 385.92,156.375 398.087,149.375 412.5,146.5 Z M 270.5,164.5 C 275.844,164.334 281.177,164.501 286.5,165C 300.453,168.531 303.62,176.364 296,188.5C 279.905,206.424 260.405,211.924 237.5,205C 230.066,198.796 229.566,191.963 236,184.5C 245.247,173.798 256.747,167.131 270.5,164.5 Z M 22.5,187.5 C 69.5,187.5 116.5,187.5 163.5,187.5C 163.5,234.5 163.5,281.5 163.5,328.5C 116.5,328.5 69.5,328.5 22.5,328.5C 22.5,281.5 22.5,234.5 22.5,187.5 Z M 184.5,187.5 C 193.5,187.5 202.5,187.5 211.5,187.5C 208.741,206.822 216.407,219.989 234.5,227C 265.673,233.72 291.84,225.22 313,201.5C 315.694,197.446 317.861,193.112 319.5,188.5C 330.814,187.501 342.147,187.168 353.5,187.5C 355.302,195.146 359.636,200.979 366.5,205C 397.781,217.265 425.448,211.598 449.5,188C 462.496,187.5 475.496,187.333 488.5,187.5C 488.5,234.5 488.5,281.5 488.5,328.5C 387.167,328.5 285.833,328.5 184.5,328.5C 184.5,281.5 184.5,234.5 184.5,187.5 Z M 22.5,349.5 C 69.5,349.5 116.5,349.5 163.5,349.5C 163.5,396.833 163.5,444.167 163.5,491.5C 116.5,491.5 69.5,491.5 22.5,491.5C 22.5,444.167 22.5,396.833 22.5,349.5 Z M 184.5,349.5 C 285.833,349.5 387.167,349.5 488.5,349.5C 488.5,396.833 488.5,444.167 488.5,491.5C 387.167,491.5 285.833,491.5 184.5,491.5C 184.5,444.167 184.5,396.833 184.5,349.5 Z"/></g>
<g><path style="opacity:0.942" fill="#000000" d="M 84.5,213.5 C 91.5736,213.161 98.5736,213.661 105.5,215C 107.378,216.543 108.878,218.376 110,220.5C 110.667,245.5 110.667,270.5 110,295.5C 106.723,301.109 101.89,302.942 95.5,301C 92.3374,299.52 90.504,297.02 90,293.5C 89.5,273.836 89.3334,254.169 89.5,234.5C 77.6377,235.14 73.471,229.807 77,218.5C 79.1699,216.177 81.6699,214.51 84.5,213.5 Z"/></g>
<g><path style="opacity:0.948" fill="#000000" d="M 225.5,270.5 C 301.834,270.333 378.167,270.5 454.5,271C 460.898,274.527 462.731,279.693 460,286.5C 458.363,288.81 456.196,290.31 453.5,291C 377.833,291.667 302.167,291.667 226.5,291C 219.283,288.028 217.117,282.861 220,275.5C 221.73,273.598 223.563,271.931 225.5,270.5 Z"/></g>
<g><path style="opacity:0.941" fill="#000000" d="M 86.5,377.5 C 105.228,376.687 115.894,385.52 118.5,404C 117.882,408.64 116.715,413.14 115,417.5C 110.119,426.098 104.619,434.265 98.5,442C 102.813,441.755 107.147,441.755 111.5,442C 119.789,443.994 122.622,449.161 120,457.5C 118.5,459 117,460.5 115.5,462C 101.811,463.398 88.1447,463.398 74.5,462C 67.1307,457.825 65.6307,451.992 70,444.5C 80.5685,431.766 89.7352,418.1 97.5,403.5C 96.1382,399.653 93.4715,398.153 89.5,399C 87.0116,402.807 84.3449,406.473 81.5,410C 69.5386,413.374 64.3719,408.874 66,396.5C 69.2178,386.16 76.0511,379.827 86.5,377.5 Z"/></g>
<g><path style="opacity:0.948" fill="#000000" d="M 226.5,387.5 C 302.501,387.333 378.501,387.5 454.5,388C 459.55,389.434 461.883,392.767 461.5,398C 461.869,403.271 459.536,406.604 454.5,408C 378.5,408.667 302.5,408.667 226.5,408C 219.131,403.825 217.631,397.992 222,390.5C 223.652,389.601 225.152,388.601 226.5,387.5 Z"/></g>
<g><path style="opacity:0.949" fill="#000000" d="M 225.5,440.5 C 302.501,440.333 379.501,440.5 456.5,441C 461.918,445.655 462.918,451.155 459.5,457.5C 457.705,459.703 455.371,460.869 452.5,461C 378.167,461.667 303.833,461.667 229.5,461C 221.2,459.573 218.034,454.74 220,446.5C 221.36,443.977 223.193,441.977 225.5,440.5 Z"/></g>
</svg>
