<?xml version="1.0" encoding="UTF-8"?>
<!DOCTYPE svg PUBLIC "-//W3C//DTD SVG 1.1//EN" "http://www.w3.org/Graphics/SVG/1.1/DTD/svg11.dtd">
<svg xmlns="http://www.w3.org/2000/svg" version="1.1" width="512px" height="512px" style="shape-rendering:geometricPrecision; text-rendering:geometricPrecision; image-rendering:optimizeQuality; fill-rule:evenodd; clip-rule:evenodd" xmlns:xlink="http://www.w3.org/1999/xlink">
<g><path style="opacity:0.934" fill="#000000" d="M 326.5,-0.5 C 331.167,-0.5 335.833,-0.5 340.5,-0.5C 348.833,15.5018 356.666,31.8351 364,48.5C 372.081,70.726 368.248,90.5593 352.5,108C 329.603,120.144 312.77,114.311 302,90.5C 297.333,76.8333 297.333,63.1667 302,49.5C 308.527,35.584 314.861,21.584 321,7.5C 322.273,4.40273 324.107,1.73606 326.5,-0.5 Z M 332.5,20.5 C 333.947,21.6222 334.947,23.1222 335.5,25C 334.056,25.7805 332.723,25.6139 331.5,24.5C 332.246,23.2638 332.579,21.9305 332.5,20.5 Z M 328.5,41.5 C 339.412,40.5678 346.412,45.4012 349.5,56C 354.606,70.9441 351.939,84.2774 341.5,96C 333.39,100.299 326.557,98.799 321,91.5C 312.336,77.1846 312.336,62.8512 321,48.5C 323.396,45.9334 325.896,43.6 328.5,41.5 Z"/></g>
<g><path style="opacity:0.934" fill="#000000" d="M 398.5,-0.5 C 402.833,-0.5 407.167,-0.5 411.5,-0.5C 415.047,3.56693 417.88,8.2336 420,13.5C 425.473,26.2502 431.139,38.9169 437,51.5C 443.9,74.4105 438.733,93.9105 421.5,110C 401.87,119.235 386.703,114.401 376,95.5C 369.906,81.2167 368.906,66.55 373,51.5C 380.65,34.864 388.317,18.1973 396,1.5C 396.995,0.934056 397.828,0.267389 398.5,-0.5 Z M 404.5,20.5 C 408.916,24.6781 408.25,26.1781 402.5,25C 403.582,23.6703 404.249,22.1703 404.5,20.5 Z M 400.5,41.5 C 408.188,40.2626 414.021,42.9293 418,49.5C 426.138,65.1606 425.138,80.1606 415,94.5C 405.989,100.796 398.322,99.4625 392,90.5C 384.142,75.4233 384.809,60.7566 394,46.5C 396.326,44.9343 398.492,43.2676 400.5,41.5 Z"/></g>
<g><path style="opacity:0.933" fill="#000000" d="M 263.5,32.5 C 268.436,32.3105 272.602,33.9772 276,37.5C 283,52.8333 290,68.1667 297,83.5C 303.47,101.602 301.804,118.935 292,135.5C 279.904,150.711 265.404,153.545 248.5,144C 234.493,130.839 228.993,114.672 232,95.5C 239.157,75.3709 247.49,55.7042 257,36.5C 259.095,34.8753 261.261,33.5419 263.5,32.5 Z M 265.5,55.5 C 267.104,56.287 267.771,57.6203 267.5,59.5C 266.325,59.719 265.325,59.3857 264.5,58.5C 265.127,57.5832 265.461,56.5832 265.5,55.5 Z M 264.5,75.5 C 273.097,76.5867 278.93,81.2533 282,89.5C 286.979,103.334 285.312,116.334 277,128.5C 266.918,136.293 258.585,134.627 252,123.5C 244.829,108.042 246.329,93.5419 256.5,80C 259.099,78.205 261.766,76.705 264.5,75.5 Z"/></g>
<g><path style="opacity:0.931" fill="#000000" d="M 469.5,32.5 C 474.436,32.3105 478.602,33.9772 482,37.5C 489,52.8333 496,68.1667 503,83.5C 507.233,96.7265 507.566,110.06 504,123.5C 498.628,138.888 487.961,147.554 472,149.5C 461.479,149.406 453.146,145.073 447,136.5C 436.325,119.041 434.658,100.708 442,81.5C 449,66.5 456,51.5 463,36.5C 465.013,34.7518 467.18,33.4185 469.5,32.5 Z M 471.5,55.5 C 474.459,58.2714 474.126,59.2714 470.5,58.5C 471.127,57.5832 471.461,56.5832 471.5,55.5 Z M 470.5,75.5 C 480.301,77.1318 486.468,82.7984 489,92.5C 493.536,107.348 490.369,120.182 479.5,131C 471.159,135.266 464.326,133.433 459,125.5C 450.479,108.951 451.979,93.4514 463.5,79C 465.925,77.7874 468.259,76.6207 470.5,75.5 Z"/></g>
<g><path style="opacity:0.925" fill="#000000" d="M 356.5,119.5 C 403.737,118.7 440.237,138.033 466,177.5C 470.663,184.826 474.163,192.66 476.5,201C 474.266,208.385 469.6,210.385 462.5,207C 446.864,168.023 418.531,144.357 377.5,136C 353.205,134.988 331.538,141.988 312.5,157C 289.916,174.167 276.916,196.834 273.5,225C 275.072,248.24 287.405,261.573 310.5,265C 315.5,265.667 320.5,265.667 325.5,265C 336.03,263.117 346.364,260.451 356.5,257C 360.689,256.664 364.856,256.164 369,255.5C 381.83,256.832 394.33,259.666 406.5,264C 421.78,267.175 436.113,264.842 449.5,257C 457.879,250.08 463.045,241.247 465,230.5C 469.333,226.5 473.667,226.5 478,230.5C 479.457,233.366 479.79,236.366 479,239.5C 471.771,263.726 455.604,277.559 430.5,281C 421.459,281.765 412.459,281.431 403.5,280C 392.388,276.277 381.055,273.444 369.5,271.5C 357.387,273.814 345.387,276.648 333.5,280C 312.653,284.252 293.653,280.252 276.5,268C 262.09,254.664 255.923,238.164 258,218.5C 260.91,197.351 269.244,178.685 283,162.5C 302.958,140.275 327.458,125.942 356.5,119.5 Z"/></g>
<g><path style="opacity:0.933" fill="#000000" d="M 103.5,227.5 C 108.969,226.71 113.469,228.377 117,232.5C 123.806,247.918 130.806,263.251 138,278.5C 144.544,297.745 142.211,315.745 131,332.5C 114.369,348.729 98.0361,348.395 82,331.5C 71.7581,314.821 69.7581,297.155 76,278.5C 83,263.167 90,247.833 97,232.5C 98.8049,230.174 100.972,228.508 103.5,227.5 Z M 106.5,249.5 C 107.339,250.641 108.006,251.974 108.5,253.5C 107.675,254.386 106.675,254.719 105.5,254.5C 105.629,252.784 105.962,251.117 106.5,249.5 Z M 104.5,270.5 C 115.236,271.73 121.736,277.73 124,288.5C 128.098,302.943 124.931,315.443 114.5,326C 106.231,329.915 99.3981,328.082 94,320.5C 87.0931,307.326 86.7598,293.992 93,280.5C 95.8178,275.839 99.6511,272.505 104.5,270.5 Z"/></g>
<g><path style="opacity:0.932" fill="#000000" d="M 174.5,227.5 C 179.677,226.703 184.177,228.036 188,231.5C 195.35,247.531 202.683,263.531 210,279.5C 217.174,300.963 213.341,320.13 198.5,337C 181.479,348.466 166.313,346.3 153,330.5C 142.693,313.678 141.027,296.011 148,277.5C 155.054,263.002 161.721,248.335 168,233.5C 169.914,231.144 172.081,229.144 174.5,227.5 Z M 178.5,250.5 C 181.548,253.504 180.882,254.67 176.5,254C 177.305,252.887 177.972,251.721 178.5,250.5 Z M 175.5,270.5 C 181.369,270.066 186.202,272.066 190,276.5C 200.64,293.309 199.806,309.475 187.5,325C 179.091,330.211 171.925,328.711 166,320.5C 157.345,306.537 157.345,292.537 166,278.5C 168.772,275.217 171.939,272.55 175.5,270.5 Z"/></g>
<g><path style="opacity:0.933" fill="#000000" d="M 35.5,262.5 C 41.386,261.343 46.2193,263.01 50,267.5C 57,282.833 64,298.167 71,313.5C 77.778,333.316 75.1113,351.649 63,368.5C 46.9699,383.436 31.3033,383.102 16,367.5C 6.37816,354.34 3.04482,339.673 6,323.5C 13.2181,303.726 21.5514,284.393 31,265.5C 32.6516,264.601 34.1516,263.601 35.5,262.5 Z M 39.5,284.5 C 40.339,285.641 41.0057,286.974 41.5,288.5C 40.277,289.614 38.9437,289.781 37.5,289C 38.5822,287.67 39.2488,286.17 39.5,284.5 Z M 36.5,305.5 C 47.7523,306.241 54.5856,312.241 57,323.5C 60.5821,336.666 58.0821,348.499 49.5,359C 41.6128,365.077 34.4461,364.244 28,356.5C 20.9607,344.849 19.6274,332.515 24,319.5C 26.1341,312.819 30.3008,308.152 36.5,305.5 Z"/></g>
<g><path style="opacity:0.933" fill="#000000" d="M 241.5,262.5 C 247.386,261.343 252.219,263.01 256,267.5C 264.53,285.724 272.363,304.224 279.5,323C 282.637,340.286 278.803,355.786 268,369.5C 251.402,383.457 235.735,382.457 221,366.5C 210.125,349.499 208.125,331.499 215,312.5C 222.054,298.002 228.721,283.335 235,268.5C 236.494,265.686 238.66,263.686 241.5,262.5 Z M 245.5,285.5 C 248.548,288.504 247.882,289.67 243.5,289C 244.305,287.887 244.972,286.721 245.5,285.5 Z M 242.5,305.5 C 248.944,304.971 254.111,307.305 258,312.5C 267.308,328.62 266.474,344.12 255.5,359C 246.924,365.488 239.424,364.321 233,355.5C 223.802,339.199 224.968,323.699 236.5,309C 238.432,307.541 240.432,306.375 242.5,305.5 Z"/></g>
<g><path style="opacity:0.926" fill="#000000" d="M 134.5,348.5 C 178.754,349.277 213.254,367.944 238,404.5C 252.021,424.942 256.688,447.275 252,471.5C 241.999,498.18 222.666,511.18 194,510.5C 179.863,510.798 166.529,507.798 154,501.5C 150.34,491.32 153.84,487.154 164.5,489C 183.388,496.616 202.055,496.283 220.5,488C 236.844,475.153 242.011,458.653 236,438.5C 220.928,397.758 192.095,373.258 149.5,365C 109.422,366.456 78.9216,384.289 58,418.5C 48.2059,434.456 45.5393,451.456 50,469.5C 58.1924,487.274 72.1924,495.607 92,494.5C 102.161,494.468 111.994,492.635 121.5,489C 131.009,487.505 134.509,491.339 132,500.5C 130.786,502.049 129.286,503.215 127.5,504C 106.691,511.762 85.6911,512.429 64.5,506C 39.1231,493.422 28.2898,472.922 32,444.5C 42.0719,401.09 67.9052,371.257 109.5,355C 117.774,352.066 126.108,349.899 134.5,348.5 Z"/></g>
</svg>
