<?xml version="1.0" encoding="UTF-8"?>
<svg version="1.1" xmlns="http://www.w3.org/2000/svg" width="512" height="512">
<path d="M0 0 C4.17163898 1.90483222 7.235014 1.71776276 11.70849609 1.03710938 C30.52004184 -1.66958786 50.10407529 0.22936167 65.859375 11.4375 C76.47826918 20.20572396 82.03784594 32.25429179 84.35546875 45.65625 C86.01701537 73.1439606 81.86772362 98.43382077 68.35546875 122.65625 C69.29648437 123.08035156 70.2375 123.50445312 71.20703125 123.94140625 C81.22219463 128.59619019 87.01079345 132.80039313 91.50439453 143.16796875 C92.90591684 147.26559221 93.03676563 151.16766854 92.98046875 155.46875 C92.97281494 156.34096191 92.96516113 157.21317383 92.95727539 158.11181641 C92.64298512 167.30203863 89.80706381 174.73984207 83.04296875 181.15625 C74.63096778 187.35552898 66.68634245 188.36234179 56.35546875 188.65625 C56.01515625 189.64882813 55.67484375 190.64140625 55.32421875 191.6640625 C50.41636452 205.58057116 44.08488859 217.43858238 34.35546875 228.65625 C33.69160156 229.46449219 33.02773438 230.27273438 32.34375 231.10546875 C22.05315734 243.22211851 6.25610128 256.47612349 -9.64453125 259.65625 C-9.64453125 265.26625 -9.64453125 270.87625 -9.64453125 276.65625 C-7.01484375 276.9965625 -7.01484375 276.9965625 -4.33203125 277.34375 C0.85219777 278.06911538 5.98031328 278.94856047 11.12109375 279.9375 C12.31951904 280.16735596 13.51794434 280.39721191 14.75268555 280.6340332 C17.17761902 281.10357837 19.60101154 281.58115981 22.02270508 282.06713867 C23.15474365 282.2860376 24.28678223 282.50493652 25.453125 282.73046875 C26.97691772 283.03343872 26.97691772 283.03343872 28.53149414 283.3425293 C31.60949172 283.68446989 33.39825167 283.5770863 36.35546875 282.65625 C39.07207935 280.52312423 39.07207935 280.52312423 41.76228333 277.71026611 C42.28360563 277.19024482 42.80492792 276.67022352 43.34204787 276.134444 C45.08639978 274.38965576 46.81604513 272.6309854 48.54614258 270.87207031 C49.79408469 269.61808836 51.04293272 268.36500741 52.2926178 267.11276245 C54.98246892 264.41365292 57.66593035 261.7084002 60.34467506 258.99826813 C64.58356652 254.7100662 68.83712982 250.43662307 73.09294128 246.16522217 C81.36169815 237.86216035 89.61562922 229.5444505 97.86782074 221.22492981 C108.35966189 210.64855814 118.85727232 200.07795954 129.36989421 189.5222404 C133.5956191 185.27818095 137.81353991 181.02656073 142.02547991 176.76882219 C144.65317763 174.11547936 147.28711026 171.46839182 149.92268944 168.82287979 C151.13950374 167.59887844 152.35372047 166.37228817 153.56506348 165.14287186 C170.88157497 147.57532937 170.88157497 147.57532937 184.06420898 147.27539062 C195.36390211 147.30782606 203.03127183 149.4812568 211.375 157.3671875 C218.05598137 165.08918963 219.732814 173.34716065 219.6328125 183.26953125 C218.46440683 197.53724556 207.12539084 207.17684533 197.56689453 216.671875 C196.37347648 217.86472806 195.18050032 219.05802336 193.9879303 220.25172424 C190.76764326 223.47258238 187.54125094 226.68725992 184.31368494 229.90082169 C180.93484561 233.26711293 177.56171286 236.6391127 174.18795776 240.01049805 C167.80666549 246.38558751 161.4202946 252.75556385 155.0320605 259.12369633 C147.75602803 266.37733242 140.48571018 273.63668483 133.21585488 280.89651108 C118.26872035 295.82277078 103.31446244 310.7418761 88.35546875 325.65625 C89.45773533 328.84096137 90.56442969 332.02411739 91.671875 335.20703125 C91.98112915 336.10071411 92.2903833 336.99439697 92.60900879 337.91516113 C94.36642601 342.9586366 96.22833605 347.91820859 98.29296875 352.84375 C100.34414965 358.127918 101.16159564 362.01336175 100.35546875 367.65625 C98.85546875 370.21875 98.85546875 370.21875 96.35546875 371.65625 C93.57370267 372.19778233 91.1047121 372.38651776 88.35546875 371.65625 C84.83386835 368.69152127 83.37201813 365.85856675 81.77734375 361.578125 C81.11992188 359.83789062 81.11992188 359.83789062 80.44921875 358.0625 C80.00578125 356.8559375 79.56234375 355.649375 79.10546875 354.40625 C78.6465625 353.18421875 78.18765625 351.9621875 77.71484375 350.703125 C76.5852929 347.69098941 75.46593928 344.67546072 74.35546875 341.65625 C72.01093329 341.51826522 72.01093329 341.51826522 68.81640625 343.265625 C62.14225474 346.29180965 55.24327614 348.67922543 48.32714844 351.08496094 C46.76363447 351.63215829 45.20272302 352.18684974 43.64453125 352.74902344 C23.02375643 360.18673557 23.02375643 360.18673557 13.85546875 356.09375 C10.73104488 353.04743673 9.52999162 350.87071441 8.35546875 346.65625 C8.39215582 340.26395032 10.17426106 334.43095579 12.296875 328.46484375 C12.58400864 327.63412857 12.87114227 326.80341339 13.16697693 325.94752502 C14.07518673 323.32644484 14.99631447 320.71012894 15.91796875 318.09375 C16.54057759 316.30433686 17.16233056 314.51462569 17.78320312 312.72460938 C19.29742619 308.36498408 20.82324193 304.00957865 22.35546875 299.65625 C21.79768738 299.59919891 21.23990601 299.54214783 20.66522217 299.48336792 C15.55101574 298.94076819 10.49725862 298.24709203 5.43359375 297.3515625 C4.37177887 297.16459305 4.37177887 297.16459305 3.28851318 296.97384644 C1.80938739 296.71165541 0.33056689 296.44773643 -1.14794922 296.18212891 C-3.4017718 295.779958 -5.65776948 295.39194363 -7.9140625 295.00390625 C-9.36083264 294.74566164 -10.80745305 294.48657648 -12.25390625 294.2265625 C-13.55295898 293.99727051 -14.85201172 293.76797852 -16.19042969 293.53173828 C-20.56443417 292.42308829 -23.46687025 290.833911 -26.64453125 287.65625 C-26.87158203 285.40966797 -26.87158203 285.40966797 -26.83984375 282.6484375 C-26.83017578 281.16923828 -26.83017578 281.16923828 -26.8203125 279.66015625 C-26.79517578 278.11134766 -26.79517578 278.11134766 -26.76953125 276.53125 C-26.76050781 275.49097656 -26.75148437 274.45070313 -26.7421875 273.37890625 C-26.71856872 270.80445908 -26.68563274 268.23046788 -26.64453125 265.65625 C-27.46630859 265.86846191 -27.46630859 265.86846191 -28.3046875 266.08496094 C-36.09540148 267.88695942 -43.67615295 267.9535869 -51.64453125 267.90625 C-52.94648438 267.91398437 -54.2484375 267.92171875 -55.58984375 267.9296875 C-62.84791782 267.91502472 -69.60434664 267.47427414 -76.64453125 265.65625 C-76.62358398 266.30174805 -76.60263672 266.94724609 -76.58105469 267.61230469 C-76.4977892 270.54346068 -76.44583919 273.47436777 -76.39453125 276.40625 C-76.36101562 277.42203125 -76.3275 278.4378125 -76.29296875 279.484375 C-76.19667988 286.80232931 -76.19667988 286.80232931 -77.984375 290.2109375 C-82.25263848 292.52996465 -86.70326843 293.19879724 -91.45703125 294.03125 C-92.54201904 294.23621094 -93.62700684 294.44117188 -94.74487305 294.65234375 C-98.37530921 295.33639462 -102.00925428 295.99842909 -105.64453125 296.65625 C-110.41272529 297.51933644 -115.17880274 298.39233493 -119.94174194 299.28399658 C-121.90353625 299.64636869 -123.86837725 299.99212298 -125.83325195 300.33740234 C-138.3343547 302.65844069 -148.61671272 306.79390723 -158.64453125 314.65625 C-159.63710937 315.43097656 -160.6296875 316.20570313 -161.65234375 317.00390625 C-172.07549384 326.24322598 -176.9425486 339.33100441 -181.6484375 352.0703125 C-181.99962646 353.01326172 -182.35081543 353.95621094 -182.71264648 354.92773438 C-183.40501443 356.79707986 -184.08597054 358.67070098 -184.75415039 360.54882812 C-187.85365444 368.98641069 -187.85365444 368.98641069 -191.64453125 371.65625 C-194.39244538 372.38616469 -196.86464846 372.20311219 -199.64453125 371.65625 C-202.14453125 370.15625 -202.14453125 370.15625 -203.64453125 367.65625 C-204.01759482 361.91281509 -203.32746376 357.78651041 -201.30078125 352.33203125 C-201.0534021 351.66390915 -200.80602295 350.99578705 -200.55114746 350.30741882 C-200.02625202 348.90083554 -199.49477524 347.49669219 -198.95703125 346.0949707 C-198.15569019 343.99795168 -197.38322778 341.89191886 -196.61328125 339.78320312 C-187.84146961 316.25930203 -172.88801954 299.11002084 -150.06640625 288.26171875 C-138.81153834 283.79235775 -126.37767562 281.89341295 -114.50317383 279.79101562 C-112.28674563 279.39822457 -110.07205244 278.99654214 -107.85742188 278.59375 C-97.08974217 276.65625 -97.08974217 276.65625 -93.64453125 276.65625 C-93.64453125 271.04625 -93.64453125 265.43625 -93.64453125 259.65625 C-94.82015625 259.346875 -95.99578125 259.0375 -97.20703125 258.71875 C-120.36130764 250.87968464 -140.77734867 229.90389315 -151.73339844 208.53222656 C-154.9773661 201.75162559 -157.69690817 194.92238225 -159.64453125 187.65625 C-160.95164062 187.76066406 -160.95164062 187.76066406 -162.28515625 187.8671875 C-172.2945087 188.32215807 -179.81582821 186.59184531 -187.58203125 180.015625 C-193.9689618 173.18160931 -196.389686 165.02357297 -196.26953125 155.84375 C-196.26187744 154.97153809 -196.25422363 154.09932617 -196.24633789 153.20068359 C-195.93204762 144.01046137 -193.09612631 136.57265793 -186.33203125 130.15625 C-179.08761527 124.78648552 -172.61792258 122.98184063 -163.64453125 123.65625 C-165.09933863 120.74663524 -167.00759873 120.60306392 -170.01953125 119.46875 C-187.01940145 112.5638146 -198.1018648 101.46203658 -205.39453125 84.65625 C-209.90298686 73.22197606 -211.82891317 62.22537999 -211.95703125 49.96875 C-211.98603516 49.03224609 -212.01503906 48.09574219 -212.04492188 47.13085938 C-212.05330078 46.22787109 -212.06167969 45.32488281 -212.0703125 44.39453125 C-212.08489502 43.58024658 -212.09947754 42.76596191 -212.11450195 41.92700195 C-211.43528471 38.64523591 -210.39474996 37.56404471 -207.64453125 35.65625 C-204.8236867 35.36589954 -202.41162038 35.30485676 -199.609375 35.44140625 C-197.98748832 35.48180373 -196.36557954 35.52132181 -194.74365234 35.56005859 C-193.89953796 35.5870282 -193.05542358 35.6139978 -192.18572998 35.64178467 C-177.68615389 36.07039212 -164.2907054 36.15567281 -150.64453125 30.65625 C-149.53464844 30.2334375 -148.42476562 29.810625 -147.28125 29.375 C-139.00571966 25.7577415 -132.98370381 19.8880782 -126.64453125 13.65625 C-90.37312443 -21.77435836 -44.67720787 -22.79389435 0 0 Z M-115.26953125 27.34375 C-133.5924116 45.71036038 -156.68602808 52.37360205 -182.08203125 53.21875 C-183.29052734 53.26193359 -184.49902344 53.30511719 -185.74414062 53.34960938 C-188.71083731 53.45514404 -191.67761027 53.55725714 -194.64453125 53.65625 C-193.42877546 70.26351127 -188.78568447 84.75815639 -176.41015625 96.4296875 C-165.94162185 104.85774485 -152.8419257 107.96843791 -139.64453125 108.65625 C-138.91492188 108.6975 -138.1853125 108.73875 -137.43359375 108.78125 C-114.89088402 109.39675061 -92.1157544 103.19944658 -71.25512695 95.19677734 C-65.79954243 93.15584641 -61.48364396 91.97233183 -55.64453125 92.65625 C-53.6640625 93.90234375 -53.6640625 93.90234375 -52.64453125 95.65625 C-51.45499965 101.91088392 -53.22150195 108.57025862 -54.64453125 114.65625 C-49.87079637 112.06599035 -45.63960393 109.27474964 -41.51953125 105.71875 C-40.96749023 105.24566406 -40.41544922 104.77257812 -39.84667969 104.28515625 C-29.82795135 95.57617678 -20.7883994 86.14543707 -12.64453125 75.65625 C-11.72045698 74.48796088 -10.79595748 73.32000801 -9.87109375 72.15234375 C-8.94049558 70.96686014 -8.01079229 69.78067345 -7.08203125 68.59375 C-6.41844604 67.75263672 -6.41844604 67.75263672 -5.74145508 66.89453125 C-3.37040687 64.10116229 -3.37040687 64.10116229 -2.64453125 60.65625 C-1.04120334 60.57503076 0.56330901 60.51695866 2.16796875 60.46875 C3.50794922 60.41654297 3.50794922 60.41654297 4.875 60.36328125 C7.89761939 60.72028354 8.42977615 61.37557917 10.35546875 63.65625 C11.34765625 65.53125 11.34765625 65.53125 12.23046875 67.65625 C12.57013672 68.45160156 12.90980469 69.24695313 13.25976562 70.06640625 C13.62134766 70.92105469 13.98292969 71.77570313 14.35546875 72.65625 C21.79051874 89.65418459 31.53948861 110.88469518 47.35546875 121.65625 C48.01546875 121.65625 48.67546875 121.65625 49.35546875 121.65625 C62.53503138 98.37458606 72.70851943 70.7766576 66.58984375 43.60546875 C63.79809395 34.70953587 58.97962289 28.02573975 51.35546875 22.65625 C44.97435471 19.43169922 38.65693136 17.53335903 31.484375 17.5234375 C30.58009766 17.52214844 29.67582031 17.52085938 28.74414062 17.51953125 C27.81150391 17.52339844 26.87886719 17.52726562 25.91796875 17.53125 C24.98919922 17.52738281 24.06042969 17.52351563 23.10351562 17.51953125 C18.37685637 17.52625959 14.01990276 17.86524235 9.35546875 18.65625 C1.52159826 19.57522516 -4.2932329 17.13996814 -11.39453125 14.03125 C-50.88016776 -2.45924399 -83.78777187 -4.95283139 -115.26953125 27.34375 Z M0.35546875 85.65625 C-0.97434218 87.14734234 -2.23151855 88.70331714 -3.45703125 90.28125 C-12.22013266 101.19644534 -21.47265281 111.1572995 -32.64453125 119.65625 C-33.56492187 120.39230469 -34.4853125 121.12835938 -35.43359375 121.88671875 C-56.85624868 138.66106176 -56.85624868 138.66106176 -67.64453125 138.90625 C-68.66546875 138.94492188 -68.66546875 138.94492188 -69.70703125 138.984375 C-72.27230492 138.54993349 -73.11257505 137.73331945 -74.64453125 135.65625 C-75.38663337 127.98786145 -73.56556115 121.05450207 -71.64453125 113.65625 C-72.26714844 113.81480469 -72.88976562 113.97335938 -73.53125 114.13671875 C-76.89976954 114.98707026 -80.27171167 115.82316668 -83.64453125 116.65625 C-84.44310547 116.85444336 -85.24167969 117.05263672 -86.06445312 117.25683594 C-88.73548575 117.91705732 -91.40853786 118.56857063 -94.08203125 119.21875 C-94.92660889 119.42846436 -95.77118652 119.63817871 -96.64135742 119.85424805 C-108.88731213 122.81040961 -120.87529195 123.9884741 -133.45703125 124.28125 C-134.84311975 124.31956755 -136.22918797 124.3586264 -137.61523438 124.3984375 C-140.95820872 124.49162145 -144.30119265 124.57743243 -147.64453125 124.65625 C-148.07940979 159.51678296 -147.82568307 192.56099035 -122.64453125 219.65625 C-121.84015625 220.52894531 -121.03578125 221.40164063 -120.20703125 222.30078125 C-102.99642677 240.2374581 -79.76372926 250.39759125 -55.00976562 251.61328125 C-30.03763193 252.06694512 -6.01642359 243.73028495 12.35546875 226.65625 C13.22816406 225.851875 14.10085938 225.0475 15 224.21875 C33.66248689 206.3117161 42.59729521 183.46433553 44.19140625 158.02148438 C44.35614923 155.64643968 44.60401117 153.28911241 44.85546875 150.921875 C45.2139533 146.61501131 45.26861476 142.90354964 44.35546875 138.65625 C41.91973687 136.0397588 39.63113599 134.79263675 36.4296875 133.22265625 C19.58499312 124.63978148 10.37317549 101.57436485 2.35546875 85.65625 C1.69546875 85.65625 1.03546875 85.65625 0.35546875 85.65625 Z M60.35546875 139.65625 C60.35546875 150.21625 60.35546875 160.77625 60.35546875 171.65625 C69.20923477 170.11050352 69.20923477 170.11050352 74.26171875 164.71484375 C76.83097685 159.87913297 76.57377401 155.26625131 75.85546875 149.96875 C73.93228614 145.72172175 71.47596377 142.89287571 67.35546875 140.65625 C65.04546875 140.32625 62.73546875 139.99625 60.35546875 139.65625 Z M-174.40234375 143.03125 C-178.05964318 146.84756245 -179.52300667 150.17383414 -179.73828125 155.45703125 C-179.50846287 160.84818738 -178.37123032 164.3281538 -174.45703125 168.03125 C-170.76964051 171.26095523 -169.21979594 170.85978362 -163.64453125 171.65625 C-163.64453125 161.09625 -163.64453125 150.53625 -163.64453125 139.65625 C-167.75241038 139.65625 -171.17432071 140.50621865 -174.40234375 143.03125 Z M165.35546875 178.65625 C169.73989401 183.90799926 174.36388968 188.78847473 179.23046875 193.59375 C179.91882813 194.27759766 180.6071875 194.96144531 181.31640625 195.66601562 C182.99380386 197.33176464 184.67350666 198.9951122 186.35546875 200.65625 C190.08422447 198.91237762 192.55118035 196.75992218 195.48046875 193.84375 C196.34929687 192.99167969 197.218125 192.13960937 198.11328125 191.26171875 C201.68678766 187.10922959 202.89118081 183.30081468 202.734375 177.78125 C201.80441703 172.56581561 198.83746624 168.75913186 194.66796875 165.65625 C180.88764821 161.49615323 174.4480848 169.2401812 165.35546875 178.65625 Z M150.42269707 193.34292603 C149.23081874 194.53756973 149.23081874 194.53756973 148.01486206 195.75634766 C146.64764511 197.11944061 146.64764511 197.11944061 145.25280762 198.5100708 C144.23989784 199.53005962 143.22708369 200.55014341 142.21435547 201.5703125 C141.15046401 202.63476775 140.08613266 203.69878349 139.02139282 204.76239014 C136.12454542 207.65866177 133.23392219 210.5610754 130.34433889 213.46459198 C127.32631184 216.49508924 124.30265118 219.51995461 121.27957153 222.54541016 C115.55240506 228.27880234 109.83035748 234.01727544 104.1101104 239.75757027 C97.5990065 246.29099929 91.08224853 252.81877603 84.56499839 259.34607315 C71.15549987 272.77649836 57.75315426 286.21404108 44.35546875 299.65625 C46.01408755 303.17969644 47.92204183 305.45526878 50.70703125 308.203125 C51.5578125 309.04746094 52.40859375 309.89179688 53.28515625 310.76171875 C54.17460937 311.63441406 55.0640625 312.50710938 55.98046875 313.40625 C56.87765625 314.29441406 57.77484375 315.18257813 58.69921875 316.09765625 C60.91353879 318.28841969 63.1323931 320.47437763 65.35546875 322.65625 C71.4511551 317.6113444 77.02467355 312.12249706 82.60522461 306.52001953 C83.62080751 305.50415408 84.63661161 304.48850973 85.65261841 303.47306824 C88.39196274 300.7340092 91.12822671 297.99189198 93.86392283 295.24918985 C96.73019802 292.37663635 99.59933138 289.50694044 102.46815491 286.63693237 C107.89211698 281.20987014 113.31352627 275.78026527 118.73400933 270.34972847 C124.90861004 264.16392567 131.08607214 257.98098376 137.26376903 251.79827332 C149.96417511 239.08743265 162.66100685 226.37302706 175.35546875 213.65625 C173.37546875 211.18125 173.37546875 211.18125 171.35546875 208.65625 C168.11372015 210.08014821 165.96226325 211.80376811 163.47116089 214.30677795 C162.71127869 215.06535599 161.95139648 215.82393402 161.16848755 216.60549927 C159.93242264 217.85470657 159.93242264 217.85470657 158.67138672 219.12915039 C157.79619385 220.0056575 156.92100098 220.88216461 156.01928711 221.78523254 C154.11924507 223.68953873 152.22112803 225.59555552 150.32604599 227.50477791 C147.33099225 230.52211135 144.32885382 233.5323282 141.32571411 236.54161072 C136.57868229 241.30001697 131.8363489 246.06307423 127.09604275 250.82817978 C118.60082229 259.3677625 110.09997654 267.9017368 101.59393036 276.43053621 C98.60797466 279.42491149 95.62485085 282.42207203 92.64395499 285.42148411 C90.3581068 287.72044634 88.06914735 290.01630808 85.78076172 292.31274414 C84.95266998 293.14757324 84.12457825 293.98240234 83.27139282 294.8425293 C82.51715027 295.59828751 81.76290771 296.35404572 80.98580933 297.13270569 C80.32915724 297.79287721 79.67250515 298.45304873 78.99595451 299.13322544 C76.73654119 301.23086143 75.58421713 301.63138605 72.48046875 301.96875 C69.35546875 301.65625 69.35546875 301.65625 66.98046875 300.15625 C65.1616469 297.35806254 64.68923996 295.26403666 64.77754211 291.93121338 C66.0417246 286.95485707 70.31400647 283.67114967 73.89257812 280.2109375 C75.25320122 278.84856209 75.25320122 278.84856209 76.64131165 277.45866394 C79.12157463 274.9761106 81.62568021 272.51895454 84.13487434 270.0656929 C86.75571245 267.49495054 89.35383197 264.90145181 91.95446777 262.31030273 C96.87912069 257.41048992 101.8238041 252.53142189 106.77605009 247.65951633 C112.41444665 242.11061692 118.03007572 236.53891546 123.64392757 230.96520233 C135.18933422 219.50336002 146.76293208 208.07042684 158.35546875 196.65625 C157.0748439 194.9487502 155.73779318 193.28251404 154.35546875 191.65625 C152.17907631 191.43707978 152.17907631 191.43707978 150.42269707 193.34292603 Z M35.35546875 316.65625 C32.34819092 323.88651373 29.7622034 331.20561402 27.35546875 338.65625 C35.34223847 337.14151781 42.75669753 334.48822448 50.35546875 331.65625 C45.96378368 326.38622792 41.41283085 321.30322949 36.35546875 316.65625 C36.02546875 316.65625 35.69546875 316.65625 35.35546875 316.65625 Z " fill="#000000" transform="translate(267.64453125,76.34375)"/>
<path d="M0 0 C3.125 0.4375 3.125 0.4375 5.4375 2.75 C8.24235682 7.2169942 8.33783569 11.12597032 8.375 16.25 C8.395625 16.94931641 8.41625 17.64863281 8.4375 18.36914062 C8.47341321 23.16804328 7.63585525 26.36040737 5.125 30.4375 C3.125 32.4375 3.125 32.4375 0.25 32.875 C-2.875 32.4375 -2.875 32.4375 -5.1875 30.125 C-7.99235682 25.6580058 -8.08783569 21.74902968 -8.125 16.625 C-8.145625 15.92568359 -8.16625 15.22636719 -8.1875 14.50585938 C-8.22341321 9.70695672 -7.38585525 6.51459263 -4.875 2.4375 C-2.875 0.4375 -2.875 0.4375 0 0 Z " fill="#000000" transform="translate(263.875,207.5625)"/>
<path d="M0 0 C3.125 0.4375 3.125 0.4375 5.4375 2.75 C8.24235682 7.2169942 8.33783569 11.12597032 8.375 16.25 C8.395625 16.94931641 8.41625 17.64863281 8.4375 18.36914062 C8.47341321 23.16804328 7.63585525 26.36040737 5.125 30.4375 C3.125 32.4375 3.125 32.4375 0.25 32.875 C-2.875 32.4375 -2.875 32.4375 -5.1875 30.125 C-7.99235682 25.6580058 -8.08783569 21.74902968 -8.125 16.625 C-8.145625 15.92568359 -8.16625 15.22636719 -8.1875 14.50585938 C-8.22341321 9.70695672 -7.38585525 6.51459263 -4.875 2.4375 C-2.875 0.4375 -2.875 0.4375 0 0 Z " fill="#000000" transform="translate(167.875,207.5625)"/>
</svg>
