<?xml version="1.0" encoding="UTF-8"?>
<!DOCTYPE svg PUBLIC "-//W3C//DTD SVG 1.1//EN" "http://www.w3.org/Graphics/SVG/1.1/DTD/svg11.dtd">
<svg xmlns="http://www.w3.org/2000/svg" version="1.1" width="512px" height="512px" style="shape-rendering:geometricPrecision; text-rendering:geometricPrecision; image-rendering:optimizeQuality; fill-rule:evenodd; clip-rule:evenodd" xmlns:xlink="http://www.w3.org/1999/xlink">
<g><path style="opacity:0.936" fill="#000000" d="M 236.5,-0.5 C 245.167,-0.5 253.833,-0.5 262.5,-0.5C 272.249,1.52615 281.582,5.02615 290.5,10C 302.248,18.4108 313.415,27.5775 324,37.5C 334.258,49.6063 338.924,63.6063 338,79.5C 336.631,88.4138 331.798,94.5805 323.5,98C 320.446,109.72 317.779,121.553 315.5,133.5C 316.602,140.403 317.935,147.236 319.5,154C 318.996,158.483 317.496,162.649 315,166.5C 303.63,176.435 291.463,185.268 278.5,193C 267.57,196.825 257.07,195.992 247,190.5C 244.849,190.643 243.182,191.643 242,193.5C 241.358,195.762 240.525,197.929 239.5,200C 251.867,208.182 264.533,215.849 277.5,223C 289.868,222.913 302.201,222.08 314.5,220.5C 315.633,212.212 319.966,206.378 327.5,203C 335.117,200.469 342.784,200.136 350.5,202C 353.732,203.23 356.399,205.23 358.5,208C 365.137,207.559 371.804,207.559 378.5,208C 381.796,208.457 384.963,209.291 388,210.5C 390.526,203.974 395.026,199.474 401.5,197C 421.833,196.333 442.167,196.333 462.5,197C 469.097,199.263 473.264,203.763 475,210.5C 475.667,230.167 475.667,249.833 475,269.5C 473.264,276.237 469.097,280.737 462.5,283C 442.167,283.667 421.833,283.667 401.5,283C 395.026,280.526 390.526,276.026 388,269.5C 381.718,271.681 375.218,272.848 368.5,273C 363.769,280.868 356.769,284.868 347.5,285C 338.465,286.877 330.965,284.377 325,277.5C 310.783,280.808 296.617,283.975 282.5,287C 286.332,289.75 290.332,292.25 294.5,294.5C 300.505,290.863 306.838,290.03 313.5,292C 320.275,294.466 326.108,298.3 331,303.5C 331.837,305.351 332.671,307.184 333.5,309C 351.228,309.851 363.895,318.184 371.5,334C 378.579,334.114 385.579,334.781 392.5,336C 396.886,337.93 400.052,341.097 402,345.5C 403.632,366.102 403.965,386.769 403,407.5C 401.264,414.237 397.097,418.737 390.5,421C 384.207,422.023 377.874,422.689 371.5,423C 372.658,440.76 372.825,458.593 372,476.5C 370.786,484.712 366.286,490.212 358.5,493C 338.167,493.667 317.833,493.667 297.5,493C 292.444,491.104 288.444,487.938 285.5,483.5C 279.264,488.283 272.264,491.45 264.5,493C 222.792,493.827 181.125,493.661 139.5,492.5C 135.27,487.622 135.603,483.122 140.5,479C 163.833,478.667 187.167,478.333 210.5,478C 228.643,476.522 240.143,467.022 245,449.5C 247.437,434.151 243.437,420.818 233,409.5C 229.155,402.376 231.155,397.71 239,395.5C 245.229,398.059 249.895,402.392 253,408.5C 263.151,427.342 264.151,446.676 256,466.5C 253.552,470.615 250.719,474.448 247.5,478C 262.81,479.238 274.976,473.738 284,461.5C 284.667,447.167 284.667,432.833 284,418.5C 280.246,412.742 275.746,407.575 270.5,403C 244.5,381 218.5,359 192.5,337C 191.068,336.73 190.068,337.396 189.5,339C 191.123,341.08 192.623,343.246 194,345.5C 202.963,356.132 212.297,366.465 222,376.5C 222.949,385.217 219.116,388.717 210.5,387C 196.862,375.032 185.029,361.532 175,346.5C 163.982,336.406 151.149,329.573 136.5,326C 123.515,323.756 110.515,322.923 97.5,323.5C 88.7524,355.428 98.0857,380.595 125.5,399C 151.927,410.714 177.927,423.214 203.5,436.5C 206.598,443.348 204.431,447.681 197,449.5C 185.561,444.782 174.228,439.782 163,434.5C 137.152,439.28 111.318,444.114 85.5,449C 83,450.167 81.1667,452 80,454.5C 79.3333,461.833 79.3333,469.167 80,476.5C 80.7504,477.126 81.5838,477.626 82.5,478C 93.1667,478.333 103.833,478.667 114.5,479C 119.833,483.667 119.833,488.333 114.5,493C 103.5,493.333 92.5,493.667 81.5,494C 64.0228,500.771 46.3562,506.604 28.5,511.5C 23.8333,511.5 19.1667,511.5 14.5,511.5C 7.49133,508.46 2.49133,503.46 -0.5,496.5C -0.5,491.833 -0.5,487.167 -0.5,482.5C 13.4219,462.389 28.7553,443.222 45.5,425C 55.8333,419 66.1667,419 76.5,425C 79.0886,428.097 82.0886,430.597 85.5,432.5C 102.797,429.141 120.13,425.974 137.5,423C 89.0613,403.624 70.5613,368.457 82,317.5C 85.986,306.694 91.1527,296.527 97.5,287C 104.52,284.343 108.853,286.677 110.5,294C 109.029,298.607 107.029,302.94 104.5,307C 130.412,305.393 154.079,311.726 175.5,326C 177.367,326.711 178.867,326.211 180,324.5C 185.096,317.299 189.929,309.966 194.5,302.5C 185.797,283.567 177.964,264.233 171,244.5C 169.125,236.381 172.292,232.548 180.5,233C 182.286,233.785 183.786,234.951 185,236.5C 191.333,252.833 197.667,269.167 204,285.5C 209.051,294.55 215.551,302.383 223.5,309C 239.063,317.948 255.063,326.115 271.5,333.5C 276.159,326.188 280.326,318.521 284,310.5C 284.684,309.216 284.517,308.049 283.5,307C 271.167,299.333 258.833,291.667 246.5,284C 239.044,278.535 233.878,271.369 231,262.5C 222.864,237.759 214.531,213.092 206,188.5C 200.823,178.883 192.99,175.717 182.5,179C 179.098,180.4 176.264,182.567 174,185.5C 158.333,212.833 142.667,240.167 127,267.5C 119.825,273.778 114.659,272.445 111.5,263.5C 111.899,261.803 112.399,260.137 113,258.5C 129.253,230.997 145.253,203.33 161,175.5C 166.839,168.16 174.339,163.494 183.5,161.5C 185.272,155.239 187.272,149.072 189.5,143C 170.555,131.993 159.388,115.493 156,93.5C 154.082,85.1618 154.082,76.8284 156,68.5C 159.571,60.5248 164.571,59.5248 171,65.5C 168.667,83.4998 172.334,100.166 182,115.5C 191.84,128.004 204.673,133.838 220.5,133C 221.931,132.535 223.097,131.701 224,130.5C 225.454,124.31 227.454,118.31 230,112.5C 233.916,106.597 239.416,103.097 246.5,102C 253.896,101.849 261.229,101.182 268.5,100C 284.833,94.3333 301.167,88.6667 317.5,83C 319.815,81.8906 321.315,80.0573 322,77.5C 322.516,68.3803 320.183,60.047 315,52.5C 305.798,43.6293 296.298,35.1293 286.5,27C 264.685,13.0359 241.852,11.2026 218,21.5C 204.843,27.3216 193.343,35.4882 183.5,46C 176.757,47.7986 172.757,45.2986 171.5,38.5C 172.054,36.3904 172.888,34.3904 174,32.5C 191.319,14.7579 212.153,3.7579 236.5,-0.5 Z M 303.5,104.5 C 304.239,104.369 304.906,104.536 305.5,105C 302.352,114.408 300.352,124.075 299.5,134C 300.864,141.472 301.697,148.972 302,156.5C 293.5,163 285,169.5 276.5,176C 268.621,180.891 260.955,180.558 253.5,175C 238.192,172.319 228.692,178.486 225,193.5C 222.639,182.591 217.139,173.758 208.5,167C 205.618,165.392 202.618,164.059 199.5,163C 201.32,158.383 202.987,153.716 204.5,149C 210.805,149.424 217.138,149.424 223.5,149C 231.111,147.054 236.611,142.554 240,135.5C 240.919,130.131 242.419,124.964 244.5,120C 245.833,119.333 247.167,118.667 248.5,118C 256.218,117.812 263.885,117.146 271.5,116C 282.303,112.235 292.97,108.402 303.5,104.5 Z M 407.5,211.5 C 423.503,211.333 439.503,211.5 455.5,212C 456.624,212.249 457.624,212.749 458.5,213.5C 459.833,231.167 459.833,248.833 458.5,266.5C 457.624,267.251 456.624,267.751 455.5,268C 439.833,268.667 424.167,268.667 408.5,268C 406.671,267.727 405.171,266.893 404,265.5C 403.333,248.5 403.333,231.5 404,214.5C 405.145,213.364 406.312,212.364 407.5,211.5 Z M 234.5,216.5 C 243.308,221.739 251.974,227.239 260.5,233C 267.514,237.503 275.181,239.67 283.5,239.5C 294.496,238.259 305.496,237.425 316.5,237C 318.532,245.359 319.865,253.859 320.5,262.5C 307.571,265.319 294.571,267.819 281.5,270C 272.398,270.942 263.398,270.609 254.5,269C 251.96,266.795 249.793,264.295 248,261.5C 243.068,247.537 238.235,233.537 233.5,219.5C 234.127,218.583 234.461,217.583 234.5,216.5 Z M 339.5,216.5 C 343.757,215.597 346.257,217.264 347,221.5C 349.231,235.72 351.731,249.887 354.5,264C 353.899,265.605 352.899,266.938 351.5,268C 347.848,268.889 344.182,269.222 340.5,269C 339.299,268.097 338.465,266.931 338,265.5C 335.716,251.127 333.216,236.793 330.5,222.5C 330.876,220.617 331.876,219.117 333.5,218C 335.708,217.809 337.708,217.309 339.5,216.5 Z M 364.5,223.5 C 372.231,222.754 379.564,224.087 386.5,227.5C 387.833,235.833 387.833,244.167 386.5,252.5C 381.135,255.596 375.469,256.596 369.5,255.5C 366.928,244.75 365.262,234.083 364.5,223.5 Z M 305.5,306.5 C 309.673,307.837 313.507,309.837 317,312.5C 317.667,314.167 317.667,315.833 317,317.5C 310.667,330.167 304.333,342.833 298,355.5C 296.938,356.899 295.605,357.899 294,358.5C 289.109,357.155 285.275,354.488 282.5,350.5C 289.686,335.457 297.353,320.79 305.5,306.5 Z M 205.5,315.5 C 210.007,319.168 214.673,322.668 219.5,326C 234.833,333.667 250.167,341.333 265.5,349C 267.09,361.598 274.09,369.598 286.5,373C 294.398,375.359 301.731,374.192 308.5,369.5C 310.762,370.467 313.095,371.134 315.5,371.5C 315.179,383.081 315.512,394.581 316.5,406C 309.919,406.187 303.419,406.687 297,407.5C 294.167,404 291.333,400.5 288.5,397C 259.373,372.875 230.54,348.375 202,323.5C 202.38,320.579 203.547,317.912 205.5,315.5 Z M 330.5,325.5 C 343.313,324.727 351.98,330.227 356.5,342C 354.609,348.892 350.276,353.559 343.5,356C 334.21,359.65 325.21,359.15 316.5,354.5C 321.45,344.934 326.117,335.267 330.5,325.5 Z M 370.5,350.5 C 375.511,350.334 380.511,350.501 385.5,351C 386,351.5 386.5,352 387,352.5C 387.667,369.5 387.667,386.5 387,403.5C 386.692,404.308 386.192,404.975 385.5,405.5C 377.046,406.153 368.546,406.486 360,406.5C 351.07,406.64 342.237,406.14 333.5,405C 333,404.5 332.5,404 332,403.5C 331.5,393.839 331.334,384.172 331.5,374.5C 345.125,374.268 356.625,369.268 366,359.5C 368.038,356.757 369.538,353.757 370.5,350.5 Z M 301.5,422.5 C 319.41,422.174 337.243,422.508 355,423.5C 356.14,432.237 356.64,441.07 356.5,450C 363.757,475.909 354.424,485.409 328.5,478.5C 320.5,478.333 312.5,478.167 304.5,478C 303.234,477.691 302.067,477.191 301,476.5C 300.181,458.426 300.348,440.426 301.5,422.5 Z M 58.5,436.5 C 62.9609,436.151 66.6276,437.651 69.5,441C 67.0144,444.137 65.1811,447.637 64,451.5C 63.2631,462.193 63.4298,472.86 64.5,483.5C 50.8066,488.508 36.8066,492.508 22.5,495.5C 15.5441,494.593 13.7107,490.927 17,484.5C 29.714,468.908 42.5474,453.408 55.5,438C 56.7375,437.768 57.7375,437.268 58.5,436.5 Z"/></g>
<g><path style="opacity:0.905" fill="#000000" d="M 416.5,47.5 C 418.857,47.3367 421.19,47.5034 423.5,48C 425.333,48.5 426.5,49.6667 427,51.5C 427.667,59.5 427.667,67.5 427,75.5C 421.138,81.1937 416.138,80.527 412,73.5C 411.333,66.8333 411.333,60.1667 412,53.5C 412.599,50.7458 414.099,48.7458 416.5,47.5 Z"/></g>
<g><path style="opacity:0.903" fill="#000000" d="M 379.5,84.5 C 387.174,84.3336 394.841,84.5003 402.5,85C 404.333,85.5 405.5,86.6667 406,88.5C 407.724,93.7314 406.224,97.5647 401.5,100C 394.5,100.667 387.5,100.667 380.5,100C 372.97,95.2146 372.637,90.048 379.5,84.5 Z"/></g>
<g><path style="opacity:0.903" fill="#000000" d="M 437.5,84.5 C 445.174,84.3336 452.841,84.5003 460.5,85C 462.333,85.5 463.5,86.6667 464,88.5C 465.724,93.7314 464.224,97.5647 459.5,100C 452.5,100.667 445.5,100.667 438.5,100C 430.97,95.2146 430.637,90.048 437.5,84.5 Z"/></g>
<g><path style="opacity:0.901" fill="#000000" d="M 69.5,105.5 C 74.8088,104.565 78.3088,106.565 80,111.5C 80.6667,118.5 80.6667,125.5 80,132.5C 77.4586,137.069 73.6253,138.569 68.5,137C 67.3333,135.833 66.1667,134.667 65,133.5C 64.3333,125.5 64.3333,117.5 65,109.5C 66.3968,107.93 67.8968,106.596 69.5,105.5 Z"/></g>
<g><path style="opacity:0.905" fill="#000000" d="M 416.5,105.5 C 418.857,105.337 421.19,105.503 423.5,106C 425.333,106.5 426.5,107.667 427,109.5C 427.667,117.5 427.667,125.5 427,133.5C 421.138,139.194 416.138,138.527 412,131.5C 411.333,124.833 411.333,118.167 412,111.5C 412.599,108.746 414.099,106.746 416.5,105.5 Z"/></g>
<g><path style="opacity:0.899" fill="#000000" d="M 32.5,142.5 C 39.8409,142.334 47.1742,142.5 54.5,143C 58.8608,145.226 60.3608,148.726 59,153.5C 58.1667,155.667 56.6667,157.167 54.5,158C 46.8333,158.667 39.1667,158.667 31.5,158C 25.9385,152.353 26.2719,147.186 32.5,142.5 Z"/></g>
<g><path style="opacity:0.899" fill="#000000" d="M 90.5,142.5 C 97.8409,142.334 105.174,142.5 112.5,143C 116.861,145.226 118.361,148.726 117,153.5C 116.167,155.667 114.667,157.167 112.5,158C 104.833,158.667 97.1667,158.667 89.5,158C 83.9385,152.353 84.2719,147.186 90.5,142.5 Z"/></g>
<g><path style="opacity:0.901" fill="#000000" d="M 69.5,163.5 C 74.8088,162.565 78.3088,164.565 80,169.5C 80.6667,176.5 80.6667,183.5 80,190.5C 77.4586,195.069 73.6253,196.569 68.5,195C 67.3333,193.833 66.1667,192.667 65,191.5C 64.3333,183.5 64.3333,175.5 65,167.5C 66.3968,165.93 67.8968,164.596 69.5,163.5 Z"/></g>
<g><path style="opacity:0.944" fill="#000000" d="M 511.5,347.5 C 511.5,367.833 511.5,388.167 511.5,408.5C 507.5,412.167 507.5,415.833 511.5,419.5C 511.5,439.833 511.5,460.167 511.5,480.5C 509.018,486.48 504.685,490.647 498.5,493C 477.103,493.966 455.769,493.633 434.5,492C 429.856,489.359 426.689,485.525 425,480.5C 423.401,462.211 423.068,443.878 424,425.5C 424.162,421.357 425.329,417.523 427.5,414C 425.338,410.511 424.171,406.678 424,402.5C 423.333,385.833 423.333,369.167 424,352.5C 424.778,343.769 429.278,337.936 437.5,335C 457.833,334.333 478.167,334.333 498.5,335C 504.685,337.353 509.018,341.52 511.5,347.5 Z M 441.5,350.5 C 459.41,350.174 477.243,350.508 495,351.5C 495.825,369.407 495.658,387.24 494.5,405C 485.763,406.14 476.93,406.64 468,406.5C 441.833,413.667 432.333,404.167 439.5,378C 439.667,369.833 439.833,361.667 440,353.5C 440.513,352.473 441.013,351.473 441.5,350.5 Z M 441.5,422.5 C 459.41,422.174 477.243,422.508 495,423.5C 495.825,441.407 495.658,459.24 494.5,477C 485.763,478.14 476.93,478.64 468,478.5C 441.833,485.667 432.333,476.167 439.5,450C 439.667,441.833 439.833,433.667 440,425.5C 440.513,424.473 441.013,423.473 441.5,422.5 Z"/></g>
</svg>
