<?xml version="1.0" encoding="UTF-8"?>
<!DOCTYPE svg PUBLIC "-//W3C//DTD SVG 1.1//EN" "http://www.w3.org/Graphics/SVG/1.1/DTD/svg11.dtd">
<svg xmlns="http://www.w3.org/2000/svg" version="1.1" width="512px" height="512px" style="shape-rendering:geometricPrecision; text-rendering:geometricPrecision; image-rendering:optimizeQuality; fill-rule:evenodd; clip-rule:evenodd" xmlns:xlink="http://www.w3.org/1999/xlink">
<g><path style="opacity:0.98" fill="#000000" d="M 295.5,7.5 C 300.833,7.5 306.167,7.5 311.5,7.5C 311.333,22.837 311.5,38.1703 312,53.5C 317.03,51.9275 322.197,50.9275 327.5,50.5C 327.5,41.5 327.5,32.5 327.5,23.5C 332.833,23.5 338.167,23.5 343.5,23.5C 343.5,31.1667 343.5,38.8333 343.5,46.5C 359.5,43.5 375.5,40.5 391.5,37.5C 391.5,96.8333 391.5,156.167 391.5,215.5C 396.833,215.5 402.167,215.5 407.5,215.5C 407.5,199.5 407.5,183.5 407.5,167.5C 412.833,167.5 418.167,167.5 423.5,167.5C 423.5,156.833 423.5,146.167 423.5,135.5C 428.833,135.5 434.167,135.5 439.5,135.5C 439.5,146.167 439.5,156.833 439.5,167.5C 444.833,167.5 450.167,167.5 455.5,167.5C 455.5,183.5 455.5,199.5 455.5,215.5C 460.833,215.5 466.167,215.5 471.5,215.5C 471.5,226.167 471.5,236.833 471.5,247.5C 476.833,247.5 482.167,247.5 487.5,247.5C 487.5,327.5 487.5,407.5 487.5,487.5C 492.833,487.5 498.167,487.5 503.5,487.5C 503.5,492.833 503.5,498.167 503.5,503.5C 338.167,503.5 172.833,503.5 7.5,503.5C 7.5,498.167 7.5,492.833 7.5,487.5C 18.1667,487.5 28.8333,487.5 39.5,487.5C 39.5,476.5 39.5,465.5 39.5,454.5C 26.5858,451.427 17.4191,443.761 12,431.5C 2.4418,407.172 6.60846,385.672 24.5,367C 39.9923,356.845 55.3256,357.012 70.5,367.5C 71.8333,364.833 71.8333,362.167 70.5,359.5C 44.3129,351.809 28.8129,334.475 24,307.5C 20.154,281.365 27.9873,259.531 47.5,242C 59.3832,233.195 72.7165,229.695 87.5,231.5C 87.5,199.5 87.5,167.5 87.5,135.5C 82.1667,135.5 76.8333,135.5 71.5,135.5C 71.5,130.167 71.5,124.833 71.5,119.5C 119.5,119.5 167.5,119.5 215.5,119.5C 215.167,103.819 215.501,88.1525 216.5,72.5C 232.039,69.2259 247.539,65.8925 263,62.5C 263.5,49.5043 263.667,36.5043 263.5,23.5C 268.833,23.5 274.167,23.5 279.5,23.5C 279.5,35.5 279.5,47.5 279.5,59.5C 284.833,58.5 290.167,57.5 295.5,56.5C 295.5,40.1667 295.5,23.8333 295.5,7.5 Z M 374.5,57.5 C 375.499,109.997 375.832,162.664 375.5,215.5C 359.5,215.5 343.5,215.5 327.5,215.5C 327.5,226.167 327.5,236.833 327.5,247.5C 322.167,247.5 316.833,247.5 311.5,247.5C 311.5,311.5 311.5,375.5 311.5,439.5C 304.658,439.169 298.158,440.502 292,443.5C 275.623,425.822 255.623,419.822 232,425.5C 231.5,312.5 231.333,199.5 231.5,86.5C 279.362,77.1946 327.029,67.5279 374.5,57.5 Z M 263.5,119.5 C 268.833,119.5 274.167,119.5 279.5,119.5C 279.5,130.167 279.5,140.833 279.5,151.5C 274.167,151.5 268.833,151.5 263.5,151.5C 263.5,140.833 263.5,130.167 263.5,119.5 Z M 327.5,119.5 C 332.833,119.5 338.167,119.5 343.5,119.5C 343.5,130.167 343.5,140.833 343.5,151.5C 338.167,151.5 332.833,151.5 327.5,151.5C 327.5,140.833 327.5,130.167 327.5,119.5 Z M 103.5,135.5 C 140.833,135.5 178.167,135.5 215.5,135.5C 215.833,234.836 215.5,334.169 214.5,433.5C 207.091,439.246 201.091,446.246 196.5,454.5C 195.667,454.833 194.833,455.167 194,455.5C 189.489,451.329 184.655,447.495 179.5,444C 154.417,433.582 135.25,440.082 122,463.5C 119.783,471.332 118.95,479.332 119.5,487.5C 108.833,487.5 98.1667,487.5 87.5,487.5C 87.3335,477.828 87.5002,468.161 88,458.5C 103.667,440.5 119.333,422.5 135,404.5C 135.169,397.476 135.669,390.476 136.5,383.5C 162.687,375.809 178.187,358.475 183,331.5C 187.094,303.759 178.26,281.259 156.5,264C 160.152,263.501 163.818,263.335 167.5,263.5C 167.5,258.167 167.5,252.833 167.5,247.5C 162.167,247.5 156.833,247.5 151.5,247.5C 151.826,251.884 151.492,256.217 150.5,260.5C 141.995,256.319 132.995,254.486 123.5,255C 118.269,247.935 111.936,242.101 104.5,237.5C 103.5,203.507 103.167,169.507 103.5,135.5 Z M 423.5,183.5 C 428.833,183.5 434.167,183.5 439.5,183.5C 439.5,194.167 439.5,204.833 439.5,215.5C 434.167,215.5 428.833,215.5 423.5,215.5C 423.5,204.833 423.5,194.167 423.5,183.5 Z M 263.5,199.5 C 268.833,199.5 274.167,199.5 279.5,199.5C 279.5,210.167 279.5,220.833 279.5,231.5C 274.167,231.5 268.833,231.5 263.5,231.5C 263.5,220.833 263.5,210.167 263.5,199.5 Z M 343.5,231.5 C 380.833,231.5 418.167,231.5 455.5,231.5C 455.5,236.833 455.5,242.167 455.5,247.5C 418.167,247.5 380.833,247.5 343.5,247.5C 343.5,242.167 343.5,236.833 343.5,231.5 Z M 71.5,248.5 C 97.3847,247.533 112.885,259.866 118,285.5C 121.173,305.007 115.673,321.507 101.5,335C 97.1915,337.988 92.5249,340.155 87.5,341.5C 87.5,323.5 87.5,305.5 87.5,287.5C 82.1667,287.5 76.8333,287.5 71.5,287.5C 71.5,305.5 71.5,323.5 71.5,341.5C 57.2545,337.089 47.7545,327.755 43,313.5C 36.3031,291.289 41.1365,272.122 57.5,256C 61.8857,252.828 66.5524,250.328 71.5,248.5 Z M 327.5,263.5 C 375.5,263.5 423.5,263.5 471.5,263.5C 471.667,332.834 471.5,402.167 471,471.5C 466.562,467.061 461.562,463.394 456,460.5C 455.5,400.168 455.333,339.834 455.5,279.5C 418.167,279.5 380.833,279.5 343.5,279.5C 343.833,330.838 343.5,382.171 342.5,433.5C 338.891,436.454 335.558,439.62 332.5,443C 331.101,443.595 329.768,443.428 328.5,442.5C 327.5,382.837 327.167,323.17 327.5,263.5 Z M 132.5,272.5 C 151.452,277.625 162.618,289.958 166,309.5C 169.173,329.007 163.673,345.507 149.5,359C 132.469,370.102 116.469,368.769 101.5,355C 124.321,341.872 135.654,322.038 135.5,295.5C 135.855,287.635 134.855,279.968 132.5,272.5 Z M 263.5,279.5 C 268.833,279.5 274.167,279.5 279.5,279.5C 279.5,290.167 279.5,300.833 279.5,311.5C 274.167,311.5 268.833,311.5 263.5,311.5C 263.5,300.833 263.5,290.167 263.5,279.5 Z M 359.5,295.5 C 370.167,295.5 380.833,295.5 391.5,295.5C 391.667,338.835 391.5,382.168 391,425.5C 386.166,423.98 381.166,423.313 376,423.5C 370.515,423.345 365.181,424.011 360,425.5C 359.5,382.168 359.333,338.835 359.5,295.5 Z M 407.5,295.5 C 418.167,295.5 428.833,295.5 439.5,295.5C 439.5,348.833 439.5,402.167 439.5,455.5C 435.116,455.826 430.783,455.492 426.5,454.5C 421.939,446.272 415.939,439.272 408.5,433.5C 407.5,387.505 407.167,341.505 407.5,295.5 Z M 263.5,359.5 C 268.833,359.5 274.167,359.5 279.5,359.5C 279.5,370.167 279.5,380.833 279.5,391.5C 274.167,391.5 268.833,391.5 263.5,391.5C 263.5,380.833 263.5,370.167 263.5,359.5 Z M 87.5,365.5 C 95.8302,374.805 106.164,380.805 118.5,383.5C 119.661,387.795 119.828,392.129 119,396.5C 108.293,408.205 97.9593,420.205 88,432.5C 87.5,410.169 87.3334,387.836 87.5,365.5 Z M 42.5,376.5 C 52.1939,375.113 59.6939,378.446 65,386.5C 72.3333,400.5 72.3333,414.5 65,428.5C 53.2859,441.826 41.6192,441.826 30,428.5C 21.8507,412.512 22.8507,397.178 33,382.5C 35.8426,379.837 39.0093,377.837 42.5,376.5 Z M 247.5,439.5 C 260.224,440.445 270.724,445.779 279,455.5C 281.582,460.333 284.415,465 287.5,469.5C 292.832,464.329 298.832,460.162 305.5,457C 312.215,455.752 318.548,456.752 324.5,460C 328.167,463.167 331.833,466.333 335.5,469.5C 339.817,460.031 346.15,452.198 354.5,446C 374.281,435.871 391.781,439.038 407,455.5C 410.783,461.233 413.617,467.4 415.5,474C 433.873,468.841 449.539,473.175 462.5,487C 354.165,487.833 245.832,487.667 137.5,486.5C 134.383,472.568 139.383,462.734 152.5,457C 166.244,454.539 176.244,459.539 182.5,472C 190.388,471.868 198.055,473.035 205.5,475.5C 206.647,475.182 207.481,474.516 208,473.5C 213.413,452.906 226.58,441.573 247.5,439.5 Z M 69.5,447.5 C 71.4814,460.458 72.1481,473.791 71.5,487.5C 66.1667,487.5 60.8333,487.5 55.5,487.5C 55.5,476.5 55.5,465.5 55.5,454.5C 61.0162,453.742 65.6828,451.409 69.5,447.5 Z"/></g>
<g><path style="opacity:1" fill="#000000" d="M 247.5,103.5 C 263.5,103.5 279.5,103.5 295.5,103.5C 295.5,124.833 295.5,146.167 295.5,167.5C 279.5,167.5 263.5,167.5 247.5,167.5C 247.5,146.167 247.5,124.833 247.5,103.5 Z M 263.5,119.5 C 263.5,130.167 263.5,140.833 263.5,151.5C 268.833,151.5 274.167,151.5 279.5,151.5C 279.5,140.833 279.5,130.167 279.5,119.5C 274.167,119.5 268.833,119.5 263.5,119.5 Z"/></g>
<g><path style="opacity:1" fill="#000000" d="M 311.5,103.5 C 327.5,103.5 343.5,103.5 359.5,103.5C 359.5,124.833 359.5,146.167 359.5,167.5C 343.5,167.5 327.5,167.5 311.5,167.5C 311.5,146.167 311.5,124.833 311.5,103.5 Z M 327.5,119.5 C 327.5,130.167 327.5,140.833 327.5,151.5C 332.833,151.5 338.167,151.5 343.5,151.5C 343.5,140.833 343.5,130.167 343.5,119.5C 338.167,119.5 332.833,119.5 327.5,119.5 Z"/></g>
<g><path style="opacity:1" fill="#000000" d="M 119.5,151.5 C 124.833,151.5 130.167,151.5 135.5,151.5C 135.5,156.833 135.5,162.167 135.5,167.5C 130.167,167.5 124.833,167.5 119.5,167.5C 119.5,162.167 119.5,156.833 119.5,151.5 Z"/></g>
<g><path style="opacity:1" fill="#000000" d="M 151.5,151.5 C 156.833,151.5 162.167,151.5 167.5,151.5C 167.5,156.833 167.5,162.167 167.5,167.5C 162.167,167.5 156.833,167.5 151.5,167.5C 151.5,162.167 151.5,156.833 151.5,151.5 Z"/></g>
<g><path style="opacity:1" fill="#000000" d="M 183.5,151.5 C 188.833,151.5 194.167,151.5 199.5,151.5C 199.5,156.833 199.5,162.167 199.5,167.5C 194.167,167.5 188.833,167.5 183.5,167.5C 183.5,162.167 183.5,156.833 183.5,151.5 Z"/></g>
<g><path style="opacity:1" fill="#000000" d="M 119.5,183.5 C 124.833,183.5 130.167,183.5 135.5,183.5C 135.5,188.833 135.5,194.167 135.5,199.5C 130.167,199.5 124.833,199.5 119.5,199.5C 119.5,194.167 119.5,188.833 119.5,183.5 Z"/></g>
<g><path style="opacity:1" fill="#000000" d="M 151.5,183.5 C 156.833,183.5 162.167,183.5 167.5,183.5C 167.5,188.833 167.5,194.167 167.5,199.5C 162.167,199.5 156.833,199.5 151.5,199.5C 151.5,194.167 151.5,188.833 151.5,183.5 Z"/></g>
<g><path style="opacity:1" fill="#000000" d="M 183.5,183.5 C 188.833,183.5 194.167,183.5 199.5,183.5C 199.5,188.833 199.5,194.167 199.5,199.5C 194.167,199.5 188.833,199.5 183.5,199.5C 183.5,194.167 183.5,188.833 183.5,183.5 Z"/></g>
<g><path style="opacity:1" fill="#000000" d="M 247.5,183.5 C 263.5,183.5 279.5,183.5 295.5,183.5C 295.5,204.833 295.5,226.167 295.5,247.5C 279.5,247.5 263.5,247.5 247.5,247.5C 247.5,226.167 247.5,204.833 247.5,183.5 Z M 263.5,199.5 C 263.5,210.167 263.5,220.833 263.5,231.5C 268.833,231.5 274.167,231.5 279.5,231.5C 279.5,220.833 279.5,210.167 279.5,199.5C 274.167,199.5 268.833,199.5 263.5,199.5 Z"/></g>
<g><path style="opacity:1" fill="#000000" d="M 119.5,215.5 C 124.833,215.5 130.167,215.5 135.5,215.5C 135.5,220.833 135.5,226.167 135.5,231.5C 130.167,231.5 124.833,231.5 119.5,231.5C 119.5,226.167 119.5,220.833 119.5,215.5 Z"/></g>
<g><path style="opacity:1" fill="#000000" d="M 151.5,215.5 C 156.833,215.5 162.167,215.5 167.5,215.5C 167.5,220.833 167.5,226.167 167.5,231.5C 162.167,231.5 156.833,231.5 151.5,231.5C 151.5,226.167 151.5,220.833 151.5,215.5 Z"/></g>
<g><path style="opacity:1" fill="#000000" d="M 183.5,215.5 C 188.833,215.5 194.167,215.5 199.5,215.5C 199.5,220.833 199.5,226.167 199.5,231.5C 194.167,231.5 188.833,231.5 183.5,231.5C 183.5,226.167 183.5,220.833 183.5,215.5 Z"/></g>
<g><path style="opacity:1" fill="#000000" d="M 183.5,247.5 C 188.833,247.5 194.167,247.5 199.5,247.5C 199.5,252.833 199.5,258.167 199.5,263.5C 194.167,263.5 188.833,263.5 183.5,263.5C 183.5,258.167 183.5,252.833 183.5,247.5 Z"/></g>
<g><path style="opacity:1" fill="#000000" d="M 247.5,263.5 C 263.5,263.5 279.5,263.5 295.5,263.5C 295.5,284.833 295.5,306.167 295.5,327.5C 279.5,327.5 263.5,327.5 247.5,327.5C 247.5,306.167 247.5,284.833 247.5,263.5 Z M 263.5,279.5 C 263.5,290.167 263.5,300.833 263.5,311.5C 268.833,311.5 274.167,311.5 279.5,311.5C 279.5,300.833 279.5,290.167 279.5,279.5C 274.167,279.5 268.833,279.5 263.5,279.5 Z"/></g>
<g><path style="opacity:1" fill="#000000" d="M 247.5,343.5 C 263.5,343.5 279.5,343.5 295.5,343.5C 295.5,364.833 295.5,386.167 295.5,407.5C 279.5,407.5 263.5,407.5 247.5,407.5C 247.5,386.167 247.5,364.833 247.5,343.5 Z M 263.5,359.5 C 263.5,370.167 263.5,380.833 263.5,391.5C 268.833,391.5 274.167,391.5 279.5,391.5C 279.5,380.833 279.5,370.167 279.5,359.5C 274.167,359.5 268.833,359.5 263.5,359.5 Z"/></g>
</svg>
