<?xml version="1.0" encoding="UTF-8"?>
<!DOCTYPE svg PUBLIC "-//W3C//DTD SVG 1.1//EN" "http://www.w3.org/Graphics/SVG/1.1/DTD/svg11.dtd">
<svg xmlns="http://www.w3.org/2000/svg" version="1.1" width="512px" height="512px" style="shape-rendering:geometricPrecision; text-rendering:geometricPrecision; image-rendering:optimizeQuality; fill-rule:evenodd; clip-rule:evenodd" xmlns:xlink="http://www.w3.org/1999/xlink">
<g><path style="opacity:0.926" fill="#000000" d="M 95.5,16.5 C 130.255,19.0855 146.755,37.7522 145,72.5C 141.983,87.0313 134.149,98.1979 121.5,106C 132.049,108.954 141.715,113.621 150.5,120C 159.282,127.147 167.782,134.647 176,142.5C 182.718,136.284 188.885,129.617 194.5,122.5C 191.672,120.252 188.672,118.252 185.5,116.5C 182.376,119.356 178.709,120.189 174.5,119C 157.398,108.773 153.231,94.6064 162,76.5C 172.034,64.0154 184.534,60.8487 199.5,67C 204.786,69.7833 208.453,73.95 210.5,79.5C 210.125,81.4594 209.459,83.2927 208.5,85C 225.209,97.9254 241.375,111.425 257,125.5C 257.667,127.5 257.667,129.5 257,131.5C 253.333,136.833 249.667,142.167 246,147.5C 244.023,148.905 241.857,149.905 239.5,150.5C 236.365,149.25 233.365,148.083 230.5,147C 219.88,159.741 209.38,172.575 199,185.5C 186.453,198.366 172.619,199.866 157.5,190C 151.333,185.167 145.167,180.333 139,175.5C 138.333,202.167 138.333,228.833 139,255.5C 152.365,277.52 165.698,299.52 179,321.5C 183.193,355.424 186.193,389.424 188,423.5C 187.235,426.196 186.068,428.696 184.5,431C 199.5,431.333 214.5,431.667 229.5,432C 235.303,438.121 234.303,442.788 226.5,446C 154.5,446.667 82.5,446.667 10.5,446C 2.54432,442.501 1.54432,437.501 7.5,431C 3.21088,423.266 2.37754,415.099 5,406.5C 19.2015,363.562 33.2015,320.562 47,277.5C 47.833,259.491 47.6663,241.491 46.5,223.5C 21.8522,215.882 11.0189,199.215 14,173.5C 20.3268,154.003 30.8268,137.169 45.5,123C 54.4484,115.69 64.4484,110.19 75.5,106.5C 50.2796,88.9549 44.4463,66.2882 58,38.5C 67.2301,25.406 79.7301,18.0726 95.5,16.5 Z M 95.5,31.5 C 119.614,33.4425 131.114,46.4425 130,70.5C 124.267,89.6218 111.434,98.1218 91.5,96C 71.6989,89.5333 63.5322,76.0333 67,55.5C 69.6022,47.9051 74.1022,41.7384 80.5,37C 85.3396,34.3861 90.3396,32.5528 95.5,31.5 Z M 184.5,78.5 C 187.311,78.8257 189.978,79.6591 192.5,81C 187.709,88.2872 182.375,95.1205 176.5,101.5C 170.767,94.1749 171.434,87.3416 178.5,81C 180.611,80.1553 182.611,79.322 184.5,78.5 Z M 198.5,97.5 C 212.273,108.096 225.939,118.929 239.5,130C 238.874,130.75 238.374,131.584 238,132.5C 223.415,123.124 208.915,113.624 194.5,104C 196.085,101.931 197.419,99.764 198.5,97.5 Z M 91.5,118.5 C 108.996,117.04 124.996,121.207 139.5,131C 150.167,140.333 160.833,149.667 171.5,159C 174.833,161 178.167,161 181.5,159C 189.803,149.696 198.469,140.696 207.5,132C 211.306,133.409 214.973,135.409 218.5,138C 206.5,152 194.5,166 182.5,180C 177.643,182.21 172.976,181.877 168.5,179C 156.833,170 145.167,161 133.5,152C 129.373,150.708 126.206,151.875 124,155.5C 123.333,190.5 123.333,225.5 124,260.5C 137.584,281.999 150.917,303.666 164,325.5C 168.03,357.096 171.03,388.763 173,420.5C 168.597,425.643 164.597,425.31 161,419.5C 154.045,389.722 146.712,360.055 139,330.5C 125.621,312.91 112.121,295.41 98.5,278C 94.1019,276.622 90.6019,277.788 88,281.5C 69.9775,328.568 50.9775,375.235 31,421.5C 26.7175,425.377 22.7175,425.044 19,420.5C 18.3901,416.764 18.7235,413.097 20,409.5C 34.2015,366.562 48.2015,323.562 62,280.5C 62.4999,261.836 62.6666,243.17 62.5,224.5C 69.8409,224.666 77.1742,224.5 84.5,224C 98.6524,220.822 104.486,211.988 102,197.5C 99.1869,189.685 93.6869,185.185 85.5,184C 78.1667,183.667 70.8333,183.333 63.5,183C 66.9066,176.353 69.9066,169.519 72.5,162.5C 72.2306,157.731 69.7306,155.064 65,154.5C 62.1128,154.903 59.7795,156.236 58,158.5C 54.3333,166.5 50.6667,174.5 47,182.5C 45.3468,188.378 46.8468,193.212 51.5,197C 62.1179,198.208 72.7845,198.875 83.5,199C 87.8721,201.195 88.5388,204.195 85.5,208C 74.9319,209.619 64.2653,209.952 53.5,209C 35.0144,205.5 26.8478,194.333 29,175.5C 35.3899,159.212 44.8899,145.045 57.5,133C 67.8416,125.658 79.1749,120.824 91.5,118.5 Z M 96.5,300.5 C 106.47,313.316 116.303,326.316 126,339.5C 132.823,367.125 139.49,394.792 146,422.5C 146.689,425.408 147.855,428.075 149.5,430.5C 113.838,431.667 78.1713,431.833 42.5,431C 62.0111,388.142 80.0111,344.642 96.5,300.5 Z"/></g>
<g><path style="opacity:0.926" fill="#000000" d="M 342.5,109.5 C 363.155,109.489 369.988,119.156 363,138.5C 359.133,142.702 354.967,146.535 350.5,150C 359.12,163.871 360.454,178.371 354.5,193.5C 364.975,194.71 374.308,198.543 382.5,205C 404.792,228.63 428.292,250.797 453,271.5C 467.566,291.274 468.899,311.941 457,333.5C 447.721,344.723 441.054,357.389 437,371.5C 436.333,373.5 436.333,375.5 437,377.5C 439.171,381.844 441.837,385.844 445,389.5C 460.913,406.749 478.08,422.582 496.5,437C 508.597,447.744 510.763,460.244 503,474.5C 501.5,476 500,477.5 498.5,479C 507.86,480.46 509.86,485.126 504.5,493C 503.5,493.333 502.5,493.667 501.5,494C 405.167,494.667 308.833,494.667 212.5,494C 208.291,493.29 205.958,490.79 205.5,486.5C 206.005,483.812 207.338,481.645 209.5,480C 232.84,479.833 256.174,479.333 279.5,478.5C 278.58,475.566 277.913,472.566 277.5,469.5C 281.477,430.775 289.977,393.108 303,356.5C 314.886,334.616 332.053,318.116 354.5,307C 355.167,305.667 355.833,304.333 356.5,303C 352.096,294.098 345.763,286.931 337.5,281.5C 331.774,285.732 327.274,291.065 324,297.5C 322.421,299.041 320.587,300.208 318.5,301C 297.622,304.046 276.789,303.546 256,299.5C 255.055,299.905 254.388,300.572 254,301.5C 252.393,306.988 250.393,312.322 248,317.5C 245.083,319.393 241.916,319.893 238.5,319C 232.788,317.489 227.121,315.822 221.5,314C 218.572,310.743 217.738,306.909 219,302.5C 223.04,284.635 227.206,266.802 231.5,249C 229.387,247.163 227.554,244.996 226,242.5C 224.826,226.999 231.66,216.832 246.5,212C 271.163,209.727 282.997,220.894 282,245.5C 281.135,250.742 278.635,254.909 274.5,258C 272.5,258.333 270.5,258.667 268.5,259C 276.479,258.835 284.479,258.669 292.5,258.5C 293.082,249.921 295.582,241.921 300,234.5C 305.167,228.667 310.333,222.833 315.5,217C 288.5,216.422 269.333,203.922 258,179.5C 252.265,158.918 257.432,141.751 273.5,128C 282.785,122.679 292.785,120.179 303.5,120.5C 310.556,120.817 317.556,121.317 324.5,122C 330.128,117.191 336.128,113.024 342.5,109.5 Z M 346.5,124.5 C 350.225,124.537 351.558,126.204 350.5,129.5C 328.483,150.018 306.317,170.351 284,190.5C 267.125,174.706 266.291,158.206 281.5,141C 285.531,138.545 289.864,136.879 294.5,136C 305.934,135.576 317.268,136.243 328.5,138C 334.747,133.723 340.747,129.223 346.5,124.5 Z M 338.5,160.5 C 346.374,174.194 344.374,186.361 332.5,197C 321.39,202.403 310.056,202.903 298.5,198.5C 312.156,186.177 325.49,173.51 338.5,160.5 Z M 350.5,209.5 C 357.829,209 364.495,210.833 370.5,215C 381.833,225 392.5,235.667 402.5,247C 416,259.167 429.5,271.333 443,283.5C 454.735,304.244 451.235,322.078 432.5,337C 421.26,342.916 409.26,345.916 396.5,346C 372.306,352.191 353.806,366.025 341,387.5C 336.745,395.009 332.745,402.676 329,410.5C 320.796,431.112 313.796,452.112 308,473.5C 304.21,477.854 299.877,478.521 295,475.5C 293.888,473.61 293.054,471.61 292.5,469.5C 296.537,435.482 303.703,402.149 314,369.5C 323.748,346.751 339.915,330.251 362.5,320C 370.871,312.683 373.038,303.85 369,293.5C 362.893,284.393 355.726,276.227 347.5,269C 339.483,265.39 331.816,266.057 324.5,271C 319.77,275.797 315.77,281.13 312.5,287C 294.78,288.741 277.113,288.074 259.5,285C 260.833,281.667 262.167,278.333 263.5,275C 276.514,274.156 289.514,273.156 302.5,272C 304.049,270.786 305.215,269.286 306,267.5C 306.428,256.767 309.761,247.1 316,238.5C 324.167,230.333 332.333,222.167 340.5,214C 343.815,212.17 347.149,210.67 350.5,209.5 Z M 249.5,226.5 C 261.035,225.044 267.035,230.044 267.5,241.5C 258.661,239.623 249.994,237.123 241.5,234C 243.408,230.589 246.075,228.089 249.5,226.5 Z M 246.5,251.5 C 249.132,252.327 251.798,253.16 254.5,254C 249.005,269.817 243.505,285.65 238,301.5C 236.817,302.731 235.651,302.731 234.5,301.5C 238.507,284.805 242.507,268.138 246.5,251.5 Z M 424.5,356.5 C 425.043,356.56 425.376,356.893 425.5,357.5C 420.197,368.321 420.364,378.988 426,389.5C 436.061,402.566 447.228,414.733 459.5,426C 470.333,435.5 481.167,445 492,454.5C 493.962,462.711 490.795,467.711 482.5,469.5C 480.39,468.946 478.39,468.112 476.5,467C 452.788,447.619 428.788,428.619 404.5,410C 389.725,397.674 385.058,382.174 390.5,363.5C 401.859,360.693 413.192,358.36 424.5,356.5 Z M 373.5,372.5 C 371.844,391.336 378.177,407.17 392.5,420C 417.5,439.667 442.5,459.333 467.5,479C 419.163,479.833 370.83,479.667 322.5,478.5C 328.167,456.666 335.333,435.333 344,414.5C 350.941,398.405 360.774,384.405 373.5,372.5 Z"/></g>
</svg>
