<?xml version="1.0" encoding="UTF-8"?>
<!DOCTYPE svg PUBLIC "-//W3C//DTD SVG 1.1//EN" "http://www.w3.org/Graphics/SVG/1.1/DTD/svg11.dtd">
<svg xmlns="http://www.w3.org/2000/svg" version="1.1" width="512px" height="512px" style="shape-rendering:geometricPrecision; text-rendering:geometricPrecision; image-rendering:optimizeQuality; fill-rule:evenodd; clip-rule:evenodd" xmlns:xlink="http://www.w3.org/1999/xlink">
<g><path style="opacity:0.931" fill="#323232" d="M 404.5,31.5 C 405.87,31.8565 406.87,32.6898 407.5,34C 409.019,39.3968 411.019,44.5635 413.5,49.5C 418.796,51.432 424.129,53.2654 429.5,55C 431.013,57.4541 430.346,59.1207 427.5,60C 422.571,61.8102 417.571,63.3102 412.5,64.5C 411.31,69.5713 409.81,74.5713 408,79.5C 407.121,82.3463 405.454,83.013 403,81.5C 401.265,76.1293 399.432,70.796 397.5,65.5C 392.625,63.3744 387.625,61.5411 382.5,60C 379.085,58.8567 378.751,57.19 381.5,55C 386.759,53.3586 391.926,51.5252 397,49.5C 399.04,43.187 401.54,37.187 404.5,31.5 Z"/></g>
<g><path style="opacity:0.955" fill="#323232" d="M 300.5,52.5 C 302.467,52.2606 304.301,52.5939 306,53.5C 308.925,63.281 312.425,72.781 316.5,82C 325.5,85 334.5,88 343.5,91C 345.887,93.9525 345.221,96.2858 341.5,98C 332.758,100.803 324.092,103.803 315.5,107C 312.676,115.473 309.842,123.973 307,132.5C 305.143,137.018 302.643,137.518 299.5,134C 296.599,125.129 293.599,116.296 290.5,107.5C 281.558,103.685 272.391,100.351 263,97.5C 260.003,95.5215 259.836,93.3548 262.5,91C 271.758,88.0253 280.925,84.8587 290,81.5C 293.41,71.7667 296.91,62.1 300.5,52.5 Z"/></g>
<g><path style="opacity:0.963" fill="#323232" d="M 112.5,116.5 C 126.01,114.462 138.343,117.295 149.5,125C 186.279,161.779 223.113,198.613 260,235.5C 301.233,196.264 343.066,157.764 385.5,120C 406.117,111.87 421.284,117.703 431,137.5C 433.839,147.436 432.506,156.77 427,165.5C 357.351,241.317 287.517,316.984 217.5,392.5C 212.049,398.097 205.382,400.764 197.5,400.5C 199.68,413.091 196.846,424.424 189,434.5C 163.288,460.677 131.955,473.344 95,472.5C 81.8103,473.092 68.977,471.259 56.5,467C 44.6876,462.098 42.6876,454.765 50.5,445C 65.0595,439.973 75.5595,430.473 82,416.5C 86.6888,402.1 92.3554,388.1 99,374.5C 108.031,358.483 121.697,349.483 140,347.5C 142.77,348.348 145.603,348.681 148.5,348.5C 148.338,343.818 149.505,339.485 152,335.5C 165.012,323.321 177.845,310.988 190.5,298.5C 155.18,262.68 119.68,227.014 84,191.5C 68.4825,165.417 72.6492,142.917 96.5,124C 101.615,120.807 106.948,118.307 112.5,116.5 Z M 117.5,137.5 C 123.521,136.965 129.187,138.132 134.5,141C 142.015,148.348 149.348,155.848 156.5,163.5C 145.181,175.319 133.681,186.986 122,198.5C 114.667,191.167 107.333,183.833 100,176.5C 93.1728,162.683 96.0062,151.183 108.5,142C 111.592,140.454 114.592,138.954 117.5,137.5 Z M 398.5,137.5 C 411.404,139.748 413.904,146.082 406,156.5C 336.944,230.885 267.944,305.219 199,379.5C 185.517,374.686 175.85,365.686 170,352.5C 169.333,350.833 169.333,349.167 170,347.5C 246.063,277.266 322.229,207.266 398.5,137.5 Z M 171.5,179.5 C 195.916,202.414 219.916,225.914 243.5,250C 231.651,261.35 219.651,272.517 207.5,283.5C 184.014,260.514 160.68,237.347 137.5,214C 149.035,202.632 160.369,191.132 171.5,179.5 Z M 135.5,369.5 C 141.521,368.965 147.187,370.132 152.5,373C 164.07,379.899 171.904,389.732 176,402.5C 177.162,408.557 176.162,414.223 173,419.5C 148.105,444.181 118.272,454.348 83.5,450C 88.6879,445.476 93.1879,440.309 97,434.5C 103.919,419.409 110.253,404.076 116,388.5C 120.435,379.897 126.935,373.563 135.5,369.5 Z"/></g>
<g><path style="opacity:0.963" fill="#323232" d="M 330.5,307.5 C 331.239,307.369 331.906,307.536 332.5,308C 350.362,326.195 368.528,344.029 387,361.5C 390.916,366.996 394.582,372.663 398,378.5C 409.598,402.957 419.431,428.123 427.5,454C 425.369,464.473 419.036,469.14 408.5,468C 382.443,459.426 357.11,449.093 332.5,437C 329.833,435.333 327.167,433.667 324.5,432C 306.667,414.167 288.833,396.333 271,378.5C 270.333,377.833 270.333,377.167 271,376.5C 275.343,371.325 279.843,366.325 284.5,361.5C 298.486,374.986 312.319,388.653 326,402.5C 337.333,391.167 348.667,379.833 360,368.5C 360.667,367.833 360.667,367.167 360,366.5C 345.653,352.319 331.486,337.986 317.5,323.5C 321.842,318.136 326.175,312.803 330.5,307.5 Z M 375.5,383.5 C 385.272,401.963 393.606,421.13 400.5,441C 389.582,438.36 378.915,434.693 368.5,430C 359.5,426.229 350.833,421.896 342.5,417C 353.702,405.965 364.702,394.798 375.5,383.5 Z"/></g>
</svg>
