<?xml version="1.0" encoding="UTF-8"?>
<!DOCTYPE svg PUBLIC "-//W3C//DTD SVG 1.1//EN" "http://www.w3.org/Graphics/SVG/1.1/DTD/svg11.dtd">
<svg xmlns="http://www.w3.org/2000/svg" version="1.1" width="512px" height="512px" style="shape-rendering:geometricPrecision; text-rendering:geometricPrecision; image-rendering:optimizeQuality; fill-rule:evenodd; clip-rule:evenodd" xmlns:xlink="http://www.w3.org/1999/xlink">
<g><path style="opacity:0.894" fill="#000000" d="M 248.5,-0.5 C 253.167,-0.5 257.833,-0.5 262.5,-0.5C 271.322,2.8301 276.822,9.16343 279,18.5C 279.667,27.8333 279.667,37.1667 279,46.5C 277.343,51.8047 275.176,56.8047 272.5,61.5C 273.37,68.8745 277.37,73.7078 284.5,76C 290.463,77.7928 296.463,79.4594 302.5,81C 314.633,87.1012 319.467,96.9345 317,110.5C 314.906,130.918 312.239,151.252 309,171.5C 306.363,177.97 301.863,182.637 295.5,185.5C 295.167,186.333 294.833,187.167 294.5,188C 299.737,212.536 299.57,237.036 294,261.5C 291.865,267.766 289.199,273.766 286,279.5C 285.042,282.075 284.542,284.741 284.5,287.5C 286.487,296.452 288.321,305.452 290,314.5C 291.025,325.282 290.359,335.949 288,346.5C 282.629,358.311 280.629,370.644 282,383.5C 284.631,387.079 288.131,389.579 292.5,391C 296.8,394.102 299.133,398.269 299.5,403.5C 308.839,403.334 318.173,403.5 327.5,404C 334.836,407.503 337.836,413.337 336.5,421.5C 339.85,421.335 343.183,421.502 346.5,422C 347,422.5 347.5,423 348,423.5C 348.5,449.831 348.667,476.165 348.5,502.5C 359.505,502.333 370.505,502.5 381.5,503C 383.838,505.542 384.172,508.375 382.5,511.5C 297.833,511.5 213.167,511.5 128.5,511.5C 126.828,508.375 127.162,505.542 129.5,503C 140.495,502.5 151.495,502.333 162.5,502.5C 162.333,476.165 162.5,449.831 163,423.5C 163.5,423 164,422.5 164.5,422C 167.817,421.502 171.15,421.335 174.5,421.5C 173.263,413.812 175.929,407.979 182.5,404C 192.109,402.641 201.776,402.141 211.5,402.5C 212.16,397.685 214.494,393.851 218.5,391C 221.912,389.545 225.079,387.712 228,385.5C 229.117,381.748 229.95,377.915 230.5,374C 228.285,363.018 225.452,352.185 222,341.5C 220.526,332.546 220.193,323.546 221,314.5C 222.676,305.463 224.509,296.463 226.5,287.5C 226.318,284.774 225.818,282.107 225,279.5C 215.605,261.878 211.438,243.045 212.5,223C 212.74,209.32 214.407,195.82 217.5,182.5C 217.167,181.833 216.833,181.167 216.5,180.5C 210.124,179.899 205.29,176.899 202,171.5C 197.521,147.004 194.854,122.338 194,97.5C 195.432,92.1388 198.266,87.6388 202.5,84C 211.316,80.5013 220.316,77.5013 229.5,75C 234.614,71.9474 237.614,67.4474 238.5,61.5C 236.104,57.0357 233.937,52.369 232,47.5C 231.333,37.5 231.333,27.5 232,17.5C 234.619,8.71947 240.119,2.71947 248.5,-0.5 Z M 252.5,8.5 C 262.79,8.28928 268.623,13.2893 270,23.5C 270.812,31.222 270.478,38.8887 269,46.5C 263.752,56.5834 256.252,58.7501 246.5,53C 244.383,51.2691 242.883,49.1024 242,46.5C 241.333,37.1667 241.333,27.8333 242,18.5C 244.106,13.5573 247.606,10.224 252.5,8.5 Z M 247.5,64.5 C 252.501,65.778 257.501,65.778 262.5,64.5C 264.792,74.6236 270.792,81.457 280.5,85C 287.974,86.9592 295.308,89.2925 302.5,92C 305.682,95.1977 307.682,99.031 308.5,103.5C 305.819,123.789 303.319,144.123 301,164.5C 299.45,172.788 294.45,177.455 286,178.5C 269.807,176.332 253.973,172.832 238.5,168C 241.069,165.521 243.402,162.854 245.5,160C 250.75,158.826 256.084,158.159 261.5,158C 269.333,155.476 277.333,153.642 285.5,152.5C 286.192,151.975 286.692,151.308 287,150.5C 288.055,142.851 288.388,135.185 288,127.5C 285.627,125.15 283.127,124.983 280.5,127C 278.742,132.659 278.076,138.492 278.5,144.5C 275.482,144.335 272.482,144.502 269.5,145C 260.54,148.605 251.207,150.271 241.5,150C 235.921,156.583 229.921,162.916 223.5,169C 218.962,171.303 214.795,170.803 211,167.5C 207.911,146.199 205.078,124.865 202.5,103.5C 203.318,99.031 205.318,95.1977 208.5,92C 215.692,89.2925 223.026,86.9592 230.5,85C 240.391,81.6135 246.058,74.7802 247.5,64.5 Z M 228.5,176.5 C 241.123,179.392 253.789,182.225 266.5,185C 272.785,186.27 279.118,187.103 285.5,187.5C 288.321,205.053 289.154,222.72 288,240.5C 287.787,246.634 286.787,252.634 285,258.5C 281.441,265.616 278.441,272.949 276,280.5C 275.333,285.167 275.333,289.833 276,294.5C 280.717,308.556 282.05,322.89 280,337.5C 277.822,345.878 275.489,354.211 273,362.5C 271.151,370.521 271.151,378.521 273,386.5C 274.08,388.996 275.414,391.33 277,393.5C 281.976,396.064 286.476,399.231 290.5,403C 280.506,403.5 270.506,403.666 260.5,403.5C 260.667,333.499 260.5,263.499 260,193.5C 258.334,190.621 255.834,189.788 252.5,191C 251.874,191.75 251.374,192.584 251,193.5C 250.5,263.166 250.333,332.833 250.5,402.5C 240.828,402.666 231.161,402.5 221.5,402C 225.912,398.71 230.412,395.544 235,392.5C 238.322,387.528 239.822,382.028 239.5,376C 238.666,364.158 236.166,352.658 232,341.5C 228.557,325.915 229.557,310.582 235,295.5C 235.667,290.167 235.667,284.833 235,279.5C 232,272.167 229,264.833 226,257.5C 220.782,230.321 221.615,203.321 228.5,176.5 Z M 186.5,412.5 C 232.501,412.333 278.501,412.5 324.5,413C 326.93,415.305 327.93,418.138 327.5,421.5C 279.5,421.5 231.5,421.5 183.5,421.5C 183.129,417.997 184.129,414.997 186.5,412.5 Z M 171.5,431.5 C 227.5,431.5 283.5,431.5 339.5,431.5C 339.5,455.167 339.5,478.833 339.5,502.5C 283.5,502.5 227.5,502.5 171.5,502.5C 171.5,478.833 171.5,455.167 171.5,431.5 Z"/></g>
<g><path style="opacity:0.864" fill="#000000" d="M 247.5,104.5 C 252.844,104.334 258.177,104.501 263.5,105C 266.034,107.747 266.034,110.413 263.5,113C 258.167,113.667 252.833,113.667 247.5,113C 245.047,110.251 245.047,107.417 247.5,104.5 Z"/></g>
<g><path style="opacity:0.901" fill="#000000" d="M 243.5,117.5 C 252.94,117.055 262.274,117.555 271.5,119C 272.701,119.903 273.535,121.069 274,122.5C 274.667,128.167 274.667,133.833 274,139.5C 271.333,142.167 268.667,142.167 266,139.5C 265.501,135.179 265.334,130.846 265.5,126.5C 259.491,126.334 253.491,126.501 247.5,127C 241.5,132.333 235.5,137.667 229.5,143C 227.5,143.667 225.5,143.667 223.5,143C 222.214,139.767 221.547,136.267 221.5,132.5C 221.667,129.167 221.833,125.833 222,122.5C 228.146,119.417 231.146,121.417 231,128.5C 234.767,124.224 238.934,120.557 243.5,117.5 Z"/></g>
<g><path style="opacity:0.837" fill="#000000" d="M 238.5,455.5 C 249.838,455.333 261.172,455.5 272.5,456C 274.646,456.479 275.646,457.812 275.5,460C 275.516,462.305 274.516,463.972 272.5,465C 261.167,465.667 249.833,465.667 238.5,465C 234.527,461.706 234.527,458.54 238.5,455.5 Z"/></g>
<g><path style="opacity:0.845" fill="#000000" d="M 213.5,472.5 C 241.502,472.333 269.502,472.5 297.5,473C 301.701,476.523 301.368,479.523 296.5,482C 269.167,482.667 241.833,482.667 214.5,482C 209.55,479.357 209.217,476.19 213.5,472.5 Z"/></g>
</svg>
