<?xml version="1.0" encoding="UTF-8"?>
<svg version="1.1" xmlns="http://www.w3.org/2000/svg" width="512" height="512">
<path d="M0 0 C1.72400036 1.18587308 3.43415228 2.39231747 5.125 3.625 C5.75921875 4.06328125 6.3934375 4.5015625 7.046875 4.953125 C18.84109833 13.93404735 25.58722784 29.44462865 28.125 43.625 C30.8419285 64.85876906 28.88762968 86.80902708 16.125 104.625 C11.69237491 109.86709036 6.7346016 114.67847218 1.0625 118.5625 C-2.39374134 120.94063414 -2.39374134 120.94063414 -3.875 124.625 C-3.89757959 126.95822408 -3.89936062 129.29179384 -3.875 131.625 C-3.28999222 131.62864563 -2.70498444 131.63229126 -2.10224915 131.63604736 C4.04753798 131.67821691 10.19660248 131.74779736 16.34594727 131.83251953 C18.63363376 131.86055372 20.92141396 131.8818545 23.20922852 131.89599609 C41.884724 132.01829796 58.0433017 132.93733959 72.375 146.375 C83.66176613 158.34581256 86.39708748 171.69537977 86.125 187.625 C85.95366403 191.43094416 85.68532059 195.22522234 85.390625 199.0234375 C85.31132751 200.0608609 85.23203003 201.0982843 85.15032959 202.16714478 C84.98147225 204.34373513 84.80991361 206.5201175 84.63574219 208.69628906 C84.37625183 211.98413875 84.13718516 215.27308782 83.8984375 218.5625 C82.33597525 238.90009505 79.21411371 254.68733754 63.125 268.625 C56.21627715 274.16083562 46.97105758 277.625 38.125 277.625 C38.04459473 278.626521 37.96418945 279.62804199 37.88134766 280.65991211 C37.57508004 284.46420701 37.26465347 288.26815408 36.953125 292.07202148 C36.82019796 293.70181567 36.68832031 295.33169588 36.55761719 296.96166992 C36.17528347 301.72466573 35.77225246 306.48514409 35.33947754 311.24383545 C35.19547622 312.84256149 35.0564652 314.44174422 34.92224121 316.0413208 C34.72374255 318.36422911 34.50166692 320.68375293 34.2734375 323.00390625 C34.1901268 324.04670998 34.1901268 324.04670998 34.10513306 325.11058044 C33.61690809 329.72713112 32.39487322 332.3360752 29.125 335.625 C27.125 336.2890625 27.125 336.2890625 25.125 336.25 C24.465 336.26289063 23.805 336.27578125 23.125 336.2890625 C19.90559035 335.22011789 18.84171288 333.49386918 17.125 330.625 C16.90389418 327.9935293 16.92685375 325.90237048 17.1875 323.3125 C17.24550781 322.56991943 17.30351562 321.82733887 17.36328125 321.06225586 C17.59273722 318.24728345 17.86017617 315.43686925 18.125 312.625 C18.30093197 310.61442041 18.47679097 308.60383407 18.65122986 306.59312439 C18.96821659 302.9572268 19.29516646 299.32225248 19.625 295.6875 C19.72302414 294.60582047 19.72302414 294.60582047 19.82302856 293.50228882 C20.0130581 291.4294725 20.20863555 289.35726177 20.40625 287.28515625 C20.57737305 285.46963257 20.57737305 285.46963257 20.75195312 283.61743164 C21.125 280.625 21.125 280.625 22.125 277.625 C21.0512915 277.64594727 19.97758301 277.66689453 18.87133789 277.68847656 C14.85145639 277.76139829 10.83163222 277.8069874 6.8112793 277.84472656 C5.07810605 277.8647241 3.34499925 277.89193148 1.61206055 277.92675781 C-10.3969842 278.16189028 -19.5116297 278.08223769 -28.875 269.625 C-32.58582357 271.44237373 -36.16261944 273.46298946 -39.75390625 275.50390625 C-44.23518087 277.87246208 -48.32580511 277.75474769 -53.26171875 277.72265625 C-54.07872757 277.7212413 -54.89573639 277.71982635 -55.73750305 277.71836853 C-58.34587268 277.71277294 -60.95415634 277.70022129 -63.5625 277.6875 C-65.33137897 277.68248443 -67.10025928 277.67792162 -68.86914062 277.67382812 C-73.20446019 277.66280496 -77.53971552 277.64554338 -81.875 277.625 C-81.38 279.11 -81.38 279.11 -80.875 280.625 C-80.63484068 282.45298965 -80.43635736 284.28657256 -80.26121521 286.12193298 C-80.15045654 287.26460129 -80.03969788 288.40726959 -79.92558289 289.58456421 C-79.80761856 290.83919464 -79.68965424 292.09382507 -79.56811523 293.38647461 C-79.44018864 294.72034011 -79.31195643 296.05417632 -79.18344116 297.38798523 C-78.83522418 301.01162297 -78.49143429 304.63566847 -78.14852786 308.25981212 C-77.78915474 312.05115965 -77.4260786 315.84215268 -77.06349182 319.63319397 C-76.45502836 326.00092079 -75.84932156 332.36890512 -75.24536133 338.73706055 C-74.54706229 346.09968629 -73.84497326 353.46194274 -73.14072078 360.82400125 C-72.46345953 367.90434476 -71.78836038 374.98489261 -71.11442757 382.06555367 C-70.82755803 385.07947124 -70.54002619 388.09332455 -70.25198174 391.10713005 C-69.91285213 394.65687051 -69.57564621 398.20678868 -69.23992538 401.7568531 C-69.0574961 403.68132335 -68.87321837 405.60561809 -68.68888855 407.52990723 C-68.52698029 409.24813942 -68.52698029 409.24813942 -68.36180115 411.00108337 C-68.2672335 411.99641051 -68.17266584 412.99173765 -68.07523251 414.01722622 C-67.90653004 416.21436129 -67.875 418.42139771 -67.875 420.625 C-57.975 420.625 -48.075 420.625 -37.875 420.625 C-37.9064209 414.8401709 -37.9064209 414.8401709 -37.93847656 408.93847656 C-38.00467692 396.21398066 -38.04911116 383.48948749 -38.08224869 370.76486588 C-38.10287913 363.04790728 -38.13100873 355.33111175 -38.17675781 347.61425781 C-38.21661108 340.88869486 -38.24242931 334.16324999 -38.25135398 327.43757224 C-38.25657138 323.87589892 -38.26884353 320.31456345 -38.29792023 316.75299835 C-38.33010691 312.77830139 -38.33096037 308.80393577 -38.32910156 304.82910156 C-38.34348267 303.64658813 -38.35786377 302.46407471 -38.37268066 301.24572754 C-38.36718201 300.16321716 -38.36168335 299.08070679 -38.35601807 297.96539307 C-38.35970524 297.02516422 -38.36339241 296.08493538 -38.36719131 295.11621475 C-37.72637093 291.87271744 -36.40687043 290.67887284 -33.875 288.625 C-31.875 288.09375 -31.875 288.09375 -29.875 288.125 C-28.885 288.10953125 -28.885 288.10953125 -27.875 288.09375 C-24.96160074 288.86762168 -23.78116046 290.32310402 -21.875 292.625 C-21.38280869 295.11621475 -21.38280869 295.11621475 -21.39398193 297.96539307 C-21.38848328 299.04790344 -21.38298462 300.13041382 -21.37731934 301.24572754 C-21.39170044 302.42824097 -21.40608154 303.61075439 -21.42089844 304.82910156 C-21.42031433 306.0781427 -21.41973022 307.32718384 -21.41912842 308.61407471 C-21.42143728 312.03559538 -21.44149227 315.45614992 -21.46942425 318.87749958 C-21.49443455 322.45425379 -21.49677959 326.03102096 -21.50152588 329.60784912 C-21.51395681 336.37937292 -21.54677979 343.15063831 -21.58692384 349.92204833 C-21.63163807 357.6317523 -21.65362767 365.34146864 -21.67370558 373.05127001 C-21.71551257 388.90935511 -21.78886609 404.7670843 -21.875 420.625 C-11.975 420.625 -2.075 420.625 8.125 420.625 C8.393125 417.139375 8.66125 413.65375 8.9375 410.0625 C9.70616377 400.38572436 10.53124904 390.71421092 11.43466187 381.04910278 C11.56069509 379.69228051 11.68444547 378.33524408 11.80581665 376.97799683 C13.40658886 359.15247657 13.40658886 359.15247657 17.375 355.625 C20.86474248 354.35600273 22.6112037 354.42881402 26.125 355.625 C28.34375 357.48046875 28.34375 357.48046875 30.125 360.625 C30.41863788 364.43869682 29.97717228 368.14360489 29.5625 371.9375 C29.45752197 373.05511719 29.35254395 374.17273438 29.24438477 375.32421875 C29.01312907 377.76601174 28.77236437 380.20691782 28.5234375 382.64697266 C28.09834188 386.89115651 27.71655917 391.13770724 27.34375 395.38671875 C27.08485484 398.29961632 26.82407555 401.21234199 26.5625 404.125 C26.46713455 405.19181503 26.46713455 405.19181503 26.36984253 406.28018188 C26.18722639 408.30177973 25.99805558 410.32278223 25.80859375 412.34375 C25.70087646 413.50841797 25.59315918 414.67308594 25.48217773 415.87304688 C25.125 418.625 25.125 418.625 24.125 420.625 C24.80046875 420.57859375 25.4759375 420.5321875 26.171875 420.484375 C33.52613201 420.18680391 33.52613201 420.18680391 36.6875 422.5 C39.20568454 426.22253367 39.24293232 428.44402472 39.22265625 432.9453125 C39.21943359 434.20214844 39.21621094 435.45898438 39.21289062 436.75390625 C39.20451172 438.07261719 39.19613281 439.39132812 39.1875 440.75 C39.18248489 442.08984211 39.17792201 443.429686 39.17382812 444.76953125 C39.16201086 448.05473206 39.14553617 451.33984397 39.125 454.625 C40.07761719 454.59019531 41.03023437 454.55539062 42.01171875 454.51953125 C43.26597656 454.49246094 44.52023437 454.46539062 45.8125 454.4375 C47.05386719 454.40269531 48.29523438 454.36789062 49.57421875 454.33203125 C53.35440916 454.64392815 55.17889608 455.28014178 58.125 457.625 C59.41960355 461.50881065 59.32687653 465.22286033 59.36328125 469.2734375 C59.371353 470.12298004 59.37942474 470.97252258 59.38774109 471.84780884 C59.40156548 473.64493783 59.41229499 475.44209289 59.42016602 477.23925781 C59.43739281 479.98292846 59.481294 482.72539808 59.52539062 485.46875 C59.53551689 487.21613699 59.5440332 488.9635342 59.55078125 490.7109375 C59.57704338 491.9377272 59.57704338 491.9377272 59.60383606 493.18930054 C59.59944771 494.34542343 59.59944771 494.34542343 59.5949707 495.52490234 C59.60083694 496.19758148 59.60670319 496.87026062 59.61274719 497.56332397 C58.86294921 500.73267183 57.41233794 502.32855143 55.125 504.625 C51.98902893 505.2542057 51.98902893 505.2542057 48.21704102 505.25991821 C47.52224168 505.26771817 46.82744234 505.27551812 46.11158848 505.28355443 C43.78348827 505.30349813 41.45701855 505.28770262 39.12890625 505.27197266 C37.45994105 505.2787478 35.79098333 505.28765035 34.12203979 505.29852295 C29.5889087 505.32133541 25.05634596 505.31247207 20.5232048 505.29662752 C15.78181158 505.28397855 11.04046738 505.29570584 6.29907227 505.30355835 C-1.66366321 505.31265785 -9.6261669 505.30065915 -17.58886719 505.27685547 C-26.79807961 505.24964358 -36.0067386 505.25845753 -45.21593761 505.2859875 C-53.1192483 505.30866904 -61.02239227 505.31188334 -68.92572498 505.29879415 C-73.64758693 505.29099436 -78.36918865 505.28997247 -83.09103394 505.30647659 C-87.53011894 505.32090827 -91.96848966 505.31092393 -96.40749741 505.28200531 C-98.03771655 505.27538746 -99.6679957 505.27730417 -101.29819107 505.28831863 C-103.52195553 505.30195962 -105.74342345 505.28488098 -107.96704102 505.25991821 C-109.83417503 505.25709052 -109.83417503 505.25709052 -111.73902893 505.2542057 C-114.875 504.625 -114.875 504.625 -117.2754221 502.21333122 C-118.85086366 499.66405582 -119.37597813 498.48874002 -119.37670898 495.55664062 C-119.38608994 494.79234741 -119.39547089 494.0280542 -119.40513611 493.24060059 C-119.38828514 492.02322205 -119.38828514 492.02322205 -119.37109375 490.78125 C-119.37254898 489.93453735 -119.37400421 489.08782471 -119.37550354 488.2154541 C-119.37384796 486.43022206 -119.36232483 484.64497524 -119.34155273 482.85986328 C-119.3125937 480.13382074 -119.32095128 477.40972409 -119.33398438 474.68359375 C-119.32774644 472.94530309 -119.31935507 471.20701854 -119.30859375 469.46875 C-119.31152939 468.65716431 -119.31446503 467.84557861 -119.31748962 467.00939941 C-119.24160541 462.4369461 -118.90741397 459.29546491 -115.875 455.625 C-112.31454823 454.43818274 -109.43691663 454.52810168 -105.6875 454.5625 C-104.41519531 454.57152344 -103.14289063 454.58054687 -101.83203125 454.58984375 C-100.36830078 454.60724609 -100.36830078 454.60724609 -98.875 454.625 C-98.89071045 453.80298096 -98.9064209 452.98096191 -98.92260742 452.1340332 C-98.98505073 448.40192572 -99.02402136 444.66992828 -99.0625 440.9375 C-99.08763672 439.64392578 -99.11277344 438.35035156 -99.13867188 437.01757812 C-99.14833984 435.77041016 -99.15800781 434.52324219 -99.16796875 433.23828125 C-99.1836792 432.09141846 -99.19938965 430.94455566 -99.21557617 429.76293945 C-98.83675467 426.27262202 -97.96341902 424.41855001 -95.875 421.625 C-93.35024538 420.36262269 -91.56299534 420.52643596 -88.75 420.5625 C-87.83992188 420.57152344 -86.92984375 420.58054687 -85.9921875 420.58984375 C-84.94417969 420.60724609 -84.94417969 420.60724609 -83.875 420.625 C-84.205 419.965 -84.535 419.305 -84.875 418.625 C-85.12211972 416.82544851 -85.31764621 415.0187175 -85.48878479 413.21035767 C-85.59954346 412.06064987 -85.71030212 410.91094208 -85.82441711 409.72639465 C-85.94238144 408.45881821 -86.06034576 407.19124176 -86.18188477 405.88525391 C-86.30976987 404.54168008 -86.43800291 403.19813933 -86.56655884 401.85462952 C-86.91520859 398.19997884 -87.25882947 394.54487086 -87.60147214 390.88965273 C-87.96050321 387.06757213 -88.32377709 383.24589471 -88.68650818 379.42416382 C-89.29528018 373.00340899 -89.90095566 366.58236801 -90.50463867 360.16113281 C-91.20266817 352.73658852 -91.90478373 345.3124399 -92.60927922 337.88850653 C-93.35882933 329.98943758 -94.10551075 322.09009943 -94.85128665 314.19067335 C-95.0664793 311.91328937 -95.28219404 309.63595534 -95.49801826 307.35863113 C-95.83715507 303.77853447 -96.17436059 300.19826091 -96.51007462 296.61784172 C-96.69251632 294.67666529 -96.87678817 292.73566114 -97.06111145 290.79466248 C-97.16905029 289.63931503 -97.27698914 288.48396759 -97.38819885 287.29360962 C-97.4827665 286.28960932 -97.57733416 285.28560902 -97.67476749 284.25118446 C-97.84276048 282.04784309 -97.875 279.83473637 -97.875 277.625 C-99.174375 277.5425 -100.47375 277.46 -101.8125 277.375 C-113.96673681 275.98648781 -125.25710187 267.91433569 -132.875 258.625 C-139.77248351 248.35680057 -142.14551061 237.43495033 -143.04296875 225.25390625 C-143.12750809 224.21032455 -143.21204742 223.16674286 -143.29914856 222.09153748 C-143.47449068 219.90117856 -143.64481573 217.71041264 -143.81030273 215.51928711 C-144.06165463 212.19866816 -144.32929682 208.87967074 -144.59960938 205.56054688 C-144.7691889 203.41674237 -144.93783946 201.27286413 -145.10546875 199.12890625 C-145.1835527 198.15353409 -145.26163666 197.17816193 -145.34208679 196.17323303 C-146.63051261 178.88550939 -145.83204266 163.15533668 -134.75390625 148.89453125 C-125.42937463 138.77381631 -112.87476013 132.84781566 -99.125 132.25 C-95.62538627 132.32270666 -94.23864681 132.39122705 -91.25 134.3125 C-89.68858726 136.93851234 -88.94980739 138.55789699 -88.875 141.625 C-90.49655629 145.11134601 -91.63953292 146.46802194 -94.875 148.625 C-96.71981795 148.95352922 -98.57670863 149.21672814 -100.4375 149.4375 C-110.27919474 151.00457323 -116.89321724 154.63627374 -123.25 162.3515625 C-130.81027653 172.92868015 -129.09595598 185.42923862 -128.140625 197.71484375 C-128.06132751 198.74001602 -127.98203003 199.76518829 -127.90032959 200.82142639 C-127.73118814 202.97545941 -127.55962478 205.12930351 -127.38574219 207.28295898 C-127.21209961 209.46698588 -127.04541639 211.65157739 -126.88574219 213.83666992 C-126.65262987 217.02661529 -126.39887747 220.21434621 -126.140625 223.40234375 C-126.07377502 224.36414047 -126.00692505 225.32593719 -125.93804932 226.31687927 C-125.01784414 237.01928828 -122.04702133 246.3315124 -113.875 253.625 C-105.6794572 259.83902859 -98.22565309 260.94026857 -88.125 260.9609375 C-86.99352539 260.9675943 -85.86205078 260.9742511 -84.69628906 260.98110962 C-82.30926128 260.99121333 -79.92220539 260.99592735 -77.53515625 260.99560547 C-73.8875483 260.99998493 -70.24114461 261.03634801 -66.59375 261.07421875 C-64.27083746 261.08008611 -61.94791919 261.08405604 -59.625 261.0859375 C-57.99353027 261.10749405 -57.99353027 261.10749405 -56.32910156 261.12948608 C-50.19856191 261.09254857 -46.50998663 260.77923004 -41.875 256.625 C-38.74298582 252.28059324 -38.5032468 248.86626524 -39.296875 243.7421875 C-40.34134411 239.91717226 -42.35799568 237.54362333 -45.71290588 235.51205444 C-48.18616713 234.49733572 -49.98796185 234.37368159 -52.65600586 234.36962891 C-54.07283913 234.35919052 -54.07283913 234.35919052 -55.51829529 234.34854126 C-57.03871178 234.35003677 -57.03871178 234.35003677 -58.58984375 234.3515625 C-60.74154169 234.33127644 -62.89323436 234.31042571 -65.04492188 234.2890625 C-68.4332321 234.2664459 -71.82133451 234.24998476 -75.2097168 234.24414062 C-78.48263998 234.23462424 -81.75462954 234.20085981 -85.02734375 234.1640625 C-86.03893051 234.16910797 -87.05051727 234.17415344 -88.09275818 234.17935181 C-92.42315239 234.11874759 -95.15577125 234.03096693 -98.97753906 231.8737793 C-101.00855405 229.46671817 -101.63562898 228.18868446 -102.08203125 225.10546875 C-102.21947754 224.22681152 -102.35692383 223.3481543 -102.49853516 222.44287109 C-102.62276855 221.51297363 -102.74700195 220.58307617 -102.875 219.625 C-103.09422119 218.21275146 -103.09422119 218.21275146 -103.31787109 216.77197266 C-103.76665819 213.83091136 -104.16943084 210.88648683 -104.5625 207.9375 C-104.70494141 206.94427734 -104.84738281 205.95105469 -104.99414062 204.92773438 C-106.67691323 192.32786985 -106.67691323 192.32786985 -103.625 187.75 C-100.4408996 185.70307832 -97.94304649 185.42156257 -94.25 186.125 C-90.94367193 188.2132072 -90.05467494 191.04060307 -88.875 194.625 C-88.29823025 197.27867001 -87.96932629 199.925673 -87.6875 202.625 C-87.60564453 203.29789063 -87.52378906 203.97078125 -87.43945312 204.6640625 C-86.94076229 209.00560628 -86.84716198 213.25999796 -86.875 217.625 C-85.64982666 217.60405273 -84.42465332 217.58310547 -83.16235352 217.56152344 C-78.58337252 217.4887019 -74.00444193 217.44304786 -69.42504883 217.40527344 C-67.4493751 217.38525354 -65.47375991 217.35802908 -63.49829102 217.32324219 C-60.6458485 217.27429793 -57.79419451 217.25193475 -54.94140625 217.234375 C-54.06915909 217.21372986 -53.19691193 217.19308472 -52.29823303 217.17181396 C-43.83690055 217.16877136 -37.17815159 219.93183082 -30.875 225.625 C-28.38129873 224.47406095 -26.26624515 223.20151836 -24 221.625 C-17.75371209 217.62737574 -12.29824232 217.34600423 -5.1015625 217.4296875 C-4.1778183 217.4325174 -3.2540741 217.43534729 -2.30233765 217.43826294 C0.63190976 217.44940821 3.5658457 217.47450235 6.5 217.5 C8.49608932 217.51003711 10.49218346 217.51916168 12.48828125 217.52734375 C17.36730649 217.54932903 22.24610054 217.58381983 27.125 217.625 C27.18703613 216.61977295 27.24907227 215.6145459 27.31298828 214.57885742 C27.39864652 213.23355377 27.48442783 211.88825796 27.5703125 210.54296875 C27.65297363 209.2283667 27.73563477 207.91376465 27.82080078 206.55932617 C29.01524277 191.11114589 29.01524277 191.11114589 33.125 186.625 C36.06135415 185.54318531 37.70572748 185.52517321 40.75 186.25 C43.84893545 188.04412052 44.67523197 189.33597401 46.125 192.625 C46.25323986 195.63260181 45.85460106 198.52461959 45.4375 201.5 C45.33300537 202.3348291 45.22851074 203.1696582 45.12084961 204.02978516 C44.90497339 205.73824944 44.68175048 207.44580155 44.45117188 209.15234375 C44.1489949 211.44309856 43.88632453 213.73385438 43.640625 216.03125 C42.36471021 227.20650366 42.36471021 227.20650366 39.125 231.625 C35.93406711 233.75228859 35.13225083 233.87480804 31.47338867 233.88037109 C30.53198532 233.88733002 29.59058197 233.89428894 28.62065125 233.90145874 C27.09719841 233.89996323 27.09719841 233.89996323 25.54296875 233.8984375 C23.39257295 233.91872981 21.24218236 233.93958066 19.09179688 233.9609375 C15.70137133 233.98352561 12.31115159 234.00000233 8.9206543 234.00585938 C5.64854701 234.0153914 2.37736778 234.04918288 -0.89453125 234.0859375 C-2.40887505 234.07836929 -2.40887505 234.07836929 -3.95381165 234.07064819 C-9.90495563 234.15365883 -13.34580472 234.6548581 -17.875 238.625 C-21.00701418 242.96940676 -21.2467532 246.38373476 -20.453125 251.5078125 C-19.41061481 255.32565387 -17.3964344 257.6964237 -14.05508423 259.73574829 C-11.49789344 260.77882096 -9.56501944 260.89175456 -6.80615234 260.91552734 C-5.79765228 260.92828705 -4.78915222 260.94104675 -3.75009155 260.95419312 C-2.66467072 260.95641876 -1.57924988 260.95864441 -0.4609375 260.9609375 C1.22628922 260.9709227 1.22628922 260.9709227 2.94760132 260.98110962 C5.32979702 260.99123574 7.71202108 260.99592665 10.09423828 260.99560547 C13.71565452 260.99995871 17.33583222 261.03622552 20.95703125 261.07421875 C23.27603752 261.08009107 25.59504956 261.08405768 27.9140625 261.0859375 C29.52397568 261.10749405 29.52397568 261.10749405 31.16641235 261.12948608 C41.13424423 261.06978794 49.07851813 258.44167377 56.37109375 251.546875 C63.87072146 243.32902014 65.35064009 234.54603543 66.1953125 223.79296875 C66.28126678 222.76117996 66.36722107 221.72939117 66.45578003 220.66633606 C66.63550117 218.49064156 66.81179588 216.31466162 66.98486328 214.13842773 C67.24836038 210.83306777 67.52368439 207.52885406 67.80078125 204.22460938 C67.9746626 202.10162006 68.14786186 199.97857476 68.3203125 197.85546875 C68.44214401 196.39091499 68.44214401 196.39091499 68.56643677 194.89677429 C69.55667391 182.28611578 70.31384736 170.758724 61.8515625 160.44140625 C55.10299284 153.34166667 47.50384176 149.58877395 37.64038086 149.25610352 C35.62358533 149.24185839 33.60665298 149.24175518 31.58984375 149.25390625 C29.37695151 149.23653203 27.16406092 149.21894757 24.95117188 149.20117188 C21.49956302 149.19109311 18.04805854 149.18750712 14.59643555 149.18920898 C11.23976168 149.18562968 7.88387656 149.15826432 4.52734375 149.12890625 C3.50317856 149.13708878 2.47901337 149.1452713 1.42381287 149.15370178 C-5.70664716 149.08003565 -11.42491784 148.03113207 -16.71484375 142.80859375 C-17.07707031 142.23238281 -17.43929687 141.65617188 -17.8125 141.0625 C-18.19277344 140.48371094 -18.57304687 139.90492188 -18.96484375 139.30859375 C-22.10131369 133.50679742 -21.7144165 126.15965142 -20.2265625 119.89453125 C-17.01899115 111.05314869 -11.27051874 105.49269496 -3.7890625 100.10546875 C5.11150867 93.22114941 9.92248741 82.51381496 11.40722656 71.53881836 C13.03113226 54.6270565 12.12543439 38.01974625 1.875 23.75 C-1.80349274 19.35646547 -5.86632052 16.36230158 -10.875 13.625 C-11.58914063 13.21121094 -12.30328125 12.79742188 -13.0390625 12.37109375 C-21.85488962 8.02377007 -33.0366911 8.11398393 -42.421875 10.54296875 C-54.75826561 15.38046202 -62.73444094 23.21918453 -68.1875 35.3125 C-73.89195658 51.12269648 -73.53170691 71.17802627 -66.875 86.625 C-62.81228601 94.6017921 -56.55243175 99.87975482 -49.66015625 105.3984375 C-43.84967487 110.18099387 -40.36423851 115.16488931 -38.875 122.625 C-38.21096886 130.96369877 -39.12594091 136.30505 -43.625 143.375 C-48.26994249 148.01994249 -52.6311849 148.82777708 -59 149.0625 C-62.68936215 148.94691848 -64.73688747 148.68874425 -68.125 147.125 C-70.25256814 144.08561695 -70.55629519 142.18092721 -70.27734375 138.52734375 C-69.875 136.625 -69.875 136.625 -68.5 134.1875 C-64.51852849 131.81757648 -60.43743546 131.79913876 -55.875 131.625 C-56.00652128 125.44849734 -56.00652128 125.44849734 -58.8125 120.125 C-59.823125 119.3 -60.83375 118.475 -61.875 117.625 C-77.63777136 103.80630378 -86.89394491 89.96419232 -88.53125 68.52050781 C-89.74918862 48.38646001 -87.00271658 30.35194092 -74.875 13.625 C-74.43800781 12.99207031 -74.00101562 12.35914062 -73.55078125 11.70703125 C-66.66485909 2.67055081 -55.61459839 -3.36289227 -44.875 -6.375 C-44.26462891 -6.54862061 -43.65425781 -6.72224121 -43.02539062 -6.90112305 C-28.47807734 -10.10688316 -12.59396341 -7.66515182 0 0 Z M-82.875 436.625 C-82.875 442.565 -82.875 448.505 -82.875 454.625 C-81.43125 454.8725 -79.9875 455.12 -78.5 455.375 C-76.0390625 455.796875 -76.0390625 455.796875 -73.875 456.625 C-71.86374754 459.48786386 -71.87574725 460.63944693 -72.0625 464.25 C-72.875 467.625 -72.875 467.625 -75.875 469.625 C-78.6940918 469.94384766 -78.6940918 469.94384766 -82.07421875 470.0390625 C-83.88696289 470.09707031 -83.88696289 470.09707031 -85.73632812 470.15625 C-87.6302832 470.20265625 -87.6302832 470.20265625 -89.5625 470.25 C-91.47385742 470.30800781 -91.47385742 470.30800781 -93.42382812 470.3671875 C-96.57397694 470.46157398 -99.7244688 470.54438035 -102.875 470.625 C-102.875 476.895 -102.875 483.165 -102.875 489.625 C-54.695 489.625 -6.515 489.625 43.125 489.625 C43.125 483.355 43.125 477.085 43.125 470.625 C39.01357544 470.60312622 39.01357544 470.60312622 34.8190918 470.58081055 C25.77449894 470.53052873 16.73007941 470.46394521 7.68565655 470.38928509 C2.2006902 470.34451073 -3.28420066 470.30527026 -8.76928711 470.27856445 C-14.06028265 470.2526019 -19.35098876 470.21224974 -24.64180565 470.16181374 C-26.6628275 470.14509722 -28.68389946 470.13361284 -30.70498085 470.12738609 C-33.53060045 470.11779693 -36.35547151 470.08980035 -39.1809082 470.05737305 C-40.44110527 470.05952568 -40.44110527 470.05952568 -41.72676086 470.0617218 C-47.42582435 469.96889954 -47.42582435 469.96889954 -49.58612347 468.31492329 C-51.75250805 465.47444659 -51.29619653 463.05474321 -50.875 459.625 C-48.66806111 456.6012635 -47.46361503 455.72233365 -43.73651123 455.10601807 C-42.5018512 455.09713562 -41.26719116 455.08825317 -39.99511719 455.07910156 C-39.31178314 455.06876389 -38.6284491 455.05842621 -37.92440796 455.04777527 C-35.67332285 455.01835644 -33.4231372 455.0168484 -31.171875 455.015625 C-29.60815721 455.00064259 -28.04445524 454.98391531 -26.48077393 454.96551514 C-22.3708422 454.92183557 -18.26112393 454.90184139 -14.15100098 454.88677979 C-9.95470555 454.86721073 -5.75864073 454.82524055 -1.5625 454.78515625 C6.66663458 454.70984742 14.89560226 454.66163124 23.125 454.625 C23.125 448.685 23.125 442.745 23.125 436.625 C-11.855 436.625 -46.835 436.625 -82.875 436.625 Z " fill="#000000" transform="translate(285.875,7.375)"/>
<path d="M0 0 C2.94302738 0.71739823 4.06027202 2.22495306 6.03515625 4.49609375 C7.32788086 7.18164062 7.32788086 7.18164062 8.4375 10.21484375 C8.85322266 11.31183594 9.26894531 12.40882812 9.69726562 13.5390625 C10.54705902 15.84248409 11.39341885 18.14717535 12.23632812 20.453125 C12.65333984 21.55011719 13.07035156 22.64710937 13.5 23.77734375 C13.86730225 24.77830078 14.23460449 25.77925781 14.61303711 26.81054688 C16.88631911 31.10343992 20.39273201 33.40463633 24.734375 35.390625 C25.38599609 35.70708984 26.03761719 36.02355469 26.70898438 36.34960938 C28.05650921 36.99135011 29.41087306 37.61891458 30.77148438 38.23242188 C34.53997999 40.09604608 35.80311425 41.00941184 37.6796875 44.9453125 C38.03515625 48.49609375 38.03515625 48.49609375 37.19140625 51.20703125 C34.62264733 53.93401083 32.35885021 54.75940683 28.9284668 56.12060547 C21.44217104 59.25014133 17.06274668 62.52319843 13.578125 70.01171875 C11.19806509 75.8146724 9.16114326 81.72499603 7.3269043 87.72216797 C5.76346765 91.07952332 4.15454846 92.53590527 1.03515625 94.49609375 C-2.32943387 94.43808358 -4.7949591 94.39296259 -7.5246582 92.30029297 C-9.42165633 89.92381965 -10.30682977 87.53474504 -11.3828125 84.69140625 C-11.83333984 83.55058594 -12.28386719 82.40976563 -12.74804688 81.234375 C-13.67906056 78.83885995 -14.59592073 76.4377926 -15.49804688 74.03125 C-18.41106594 66.74253939 -20.69141933 62.66447951 -27.96484375 59.49609375 C-28.99351562 58.93664062 -30.0221875 58.3771875 -31.08203125 57.80078125 C-32.93501769 56.84016788 -34.78920536 55.88186841 -36.64453125 54.92578125 C-38.96484375 53.49609375 -38.96484375 53.49609375 -40.96484375 50.49609375 C-41.43108919 46.92154538 -41.33169414 45.09965223 -39.4453125 41.99609375 C-37.10248446 39.63481824 -36.21104396 39.0372772 -33.2421875 37.98828125 C-26.90242268 35.70830585 -21.74958797 33.44559319 -18.14599609 27.49023438 C-14.89482296 20.58670012 -12.35905525 13.43860303 -10.04541016 6.17236328 C-7.87512103 0.79714653 -5.76225425 0.16653914 0 0 Z M-1.96484375 30.49609375 C-2.32835937 31.23214844 -2.691875 31.96820313 -3.06640625 32.7265625 C-6.06387958 38.54473508 -8.55211151 42.75873101 -13.96484375 46.49609375 C-13.56652344 46.955 -13.16820312 47.41390625 -12.7578125 47.88671875 C-8.4294347 52.89963318 -4.83820344 57.47572107 -1.96484375 63.49609375 C-0.04210439 61.09266955 1.40330279 58.79788479 2.84765625 56.05859375 C4.95528957 52.2533725 7.57452038 50.09157065 11.03515625 47.49609375 C10.29265625 46.77421875 9.55015625 46.05234375 8.78515625 45.30859375 C4.20162319 40.62088949 1.40909456 36.54963644 -0.96484375 30.49609375 C-1.29484375 30.49609375 -1.62484375 30.49609375 -1.96484375 30.49609375 Z " fill="#000000" transform="translate(385.96484375,56.50390625)"/>
<path d="M0 0 C4.11379177 1.34633185 4.99400212 2.62986624 7.4375 6.125 C8.80957031 8.86401367 8.80957031 8.86401367 10.015625 11.79296875 C10.45390625 12.85064453 10.8921875 13.90832031 11.34375 14.99804688 C11.7871875 16.09181641 12.230625 17.18558594 12.6875 18.3125 C13.14640625 19.41787109 13.6053125 20.52324219 14.078125 21.66210938 C17.4375 29.83558873 17.4375 29.83558873 17.4375 32.125 C18.11425781 32.38410156 18.79101562 32.64320312 19.48828125 32.91015625 C22.93481 34.3298522 26.28235402 35.91737329 29.625 37.5625 C30.56762695 38.01206055 30.56762695 38.01206055 31.52929688 38.47070312 C34.80419027 40.08538318 36.36809272 41.02088908 38.4375 44.125 C38.90374544 47.69954837 38.80435039 49.52144152 36.91796875 52.625 C34.57514071 54.98627551 33.68370021 55.58381655 30.71484375 56.6328125 C24.37507893 58.9127879 19.22224422 61.17550056 15.61865234 67.13085938 C12.36747921 74.03439363 9.8317115 81.18249072 7.51806641 88.44873047 C6.4462903 91.10322882 5.74737875 92.46610613 3.4375 94.125 C-2.05769231 94.73557692 -2.05769231 94.73557692 -4.5625 94.125 C-7.97697622 91.24045049 -9.39790639 88.62938907 -10.859375 84.44140625 C-11.2615625 83.34892578 -11.66375 82.25644531 -12.078125 81.13085938 C-12.89803398 78.84367656 -13.70544296 76.55197241 -14.5 74.25585938 C-16.81504889 68.03966005 -18.53696722 64.04309981 -24.59570312 60.99731445 C-25.24474609 60.70945068 -25.89378906 60.42158691 -26.5625 60.125 C-27.59117188 59.55394531 -28.61984375 58.98289063 -29.6796875 58.39453125 C-31.53367137 57.41501852 -33.38784112 56.43585754 -35.2421875 55.45703125 C-38.31621416 53.69231224 -39.37996622 52.7568477 -40.375 49.3125 C-40.60985836 45.31990791 -40.06692448 44.2279963 -37.5625 41.125 C-35.57445133 40.0864012 -33.53548937 39.28931663 -31.45581055 38.44995117 C-22.50399056 34.66302906 -18.44816612 30.34561903 -14.61328125 21.37768555 C-13.29106813 17.91989934 -12.04861358 14.44265923 -10.82421875 10.94921875 C-8.70276818 5.01931426 -6.94805789 0.2437915 0 0 Z M-1.5625 31.125 C-1.84222656 31.77726562 -2.12195313 32.42953125 -2.41015625 33.1015625 C-5.27213477 39.34085972 -8.0566519 43.02260337 -13.5625 47.125 C-12.44875 48.2078125 -12.44875 48.2078125 -11.3125 49.3125 C-6.72896694 54.00020426 -3.93643831 58.07145731 -1.5625 64.125 C1.19902272 62.74423864 1.49563287 61.10316042 2.75 58.3125 C4.74945439 54.16570258 6.50421397 51.67632067 10.4375 49.125 C11.0975 48.465 11.7575 47.805 12.4375 47.125 C11.550625 46.63 10.66375 46.135 9.75 45.625 C4.57489806 42.19940061 2.10320636 36.5533475 -0.5625 31.125 C-0.8925 31.125 -1.2225 31.125 -1.5625 31.125 Z " fill="#000000" transform="translate(128.5625,22.875)"/>
<path d="M0 0 C1.93842773 -0.0009668 1.93842773 -0.0009668 3.91601562 -0.00195312 C4.92088013 0.01363647 4.92088013 0.01363647 5.94604492 0.02954102 C7.96553322 0.05827014 9.98235194 0.05018682 12.00195312 0.03710938 C21.28239397 0.09698319 30.49789134 0.49368549 37.92578125 6.68359375 C38.57804687 7.21339844 39.2303125 7.74320313 39.90234375 8.2890625 C40.36382812 8.68738281 40.8253125 9.08570313 41.30078125 9.49609375 C44.7351318 7.85489968 47.78152313 5.87070859 50.91015625 3.71484375 C58.37050204 -0.08846979 66.24323433 0.12350836 74.44702148 0.12548828 C76.49480297 0.12107971 78.54048388 0.08456784 80.58789062 0.046875 C81.88919922 0.04300781 83.19050781 0.03914062 84.53125 0.03515625 C85.71098389 0.02693848 86.89071777 0.0187207 88.10620117 0.01025391 C91.92750288 0.59140717 93.58103795 1.80207945 96.30078125 4.49609375 C96.9296875 6.49609375 96.9296875 6.49609375 96.86328125 8.49609375 C96.86457031 9.15609375 96.86585938 9.81609375 96.8671875 10.49609375 C96.03399924 13.43811022 94.68056073 14.59499994 92.30078125 16.49609375 C89.20385742 16.97851562 89.20385742 16.97851562 85.59375 16.96484375 C84.28470703 16.97902344 82.97566406 16.99320313 81.62695312 17.0078125 C79.56010133 17.00536391 77.49334455 16.99611653 75.42651367 16.98681641 C64.60898229 16.77087845 64.60898229 16.77087845 55.30078125 21.49609375 C54.50671875 22.10453125 53.71265625 22.71296875 52.89453125 23.33984375 C50.72549827 26.27441779 50.83394315 28.38144677 50.80078125 31.99609375 C50.74660168 37.90166651 50.74660168 37.90166651 48.51953125 40.87109375 C46.17229804 42.59019413 45.16318446 43.0408188 42.30078125 42.99609375 C41.64078125 43.00640625 40.98078125 43.01671875 40.30078125 43.02734375 C37.31666016 42.23468659 36.13651701 40.95321794 34.30078125 38.49609375 C33.97265625 35.5078125 33.97265625 35.5078125 34.05078125 32.18359375 C33.85609073 27.30441891 33.85609073 27.30441891 31.57421875 23.125 C26.3398635 18.54731841 22.5391809 17.38436584 15.5859375 17.3203125 C14.24672899 17.29711912 12.90753622 17.27300197 11.56835938 17.24804688 C9.46384046 17.21291833 7.35990362 17.18357224 5.25512695 17.17016602 C3.21885464 17.15466927 1.18426395 17.11446552 -0.8515625 17.0703125 C-2.06835693 17.05572998 -3.28515137 17.04114746 -4.53881836 17.02612305 C-8.25310644 16.4032015 -9.43243815 15.4421511 -11.69921875 12.49609375 C-12.265625 10.49609375 -12.265625 10.49609375 -12.26171875 8.49609375 C-12.28363281 7.83609375 -12.30554688 7.17609375 -12.328125 6.49609375 C-10.5259151 0.7648424 -5.28873955 -0.00839772 0 0 Z " fill="#000000" transform="translate(213.69921875,171.50390625)"/>
</svg>
