<?xml version="1.0" encoding="UTF-8"?>
<!DOCTYPE svg PUBLIC "-//W3C//DTD SVG 1.1//EN" "http://www.w3.org/Graphics/SVG/1.1/DTD/svg11.dtd">
<svg xmlns="http://www.w3.org/2000/svg" version="1.1" width="512px" height="512px" style="shape-rendering:geometricPrecision; text-rendering:geometricPrecision; image-rendering:optimizeQuality; fill-rule:evenodd; clip-rule:evenodd" xmlns:xlink="http://www.w3.org/1999/xlink">
<g><path style="opacity:0.936" fill="#000000" d="M 230.5,-0.5 C 246.833,-0.5 263.167,-0.5 279.5,-0.5C 292.463,0.99374 305.463,3.16041 318.5,6C 327.048,8.74453 328.714,13.7445 323.5,21C 318.993,22.7844 314.493,22.6178 310,20.5C 301.768,31.0336 303.268,40.2002 314.5,48C 319.167,50 323.833,50 328.5,48C 335.833,43.6667 343.167,39.3333 350.5,35C 347.073,33.204 343.906,31.0373 341,28.5C 339.336,19.8338 342.836,16.0004 351.5,17C 393.688,36.1874 423.188,67.354 440,110.5C 456.683,161.588 464.349,213.921 463,267.5C 456.007,300.661 435.841,319.994 402.5,325.5C 403.365,350.328 401.865,374.994 398,399.5C 381.943,464.732 340.776,502.065 274.5,511.5C 261.833,511.5 249.167,511.5 236.5,511.5C 200.828,507.581 170.661,492.581 146,466.5C 142.93,456.899 146.43,452.733 156.5,454C 170.036,469.015 186.203,480.181 205,487.5C 207.282,470.391 217.116,462.058 234.5,462.5C 239.672,452.246 248.005,447.746 259.5,449C 267.466,450.645 273.132,455.145 276.5,462.5C 293.884,462.058 303.718,470.391 306,487.5C 346.835,470.315 372.168,439.981 382,396.5C 385.901,373.34 387.401,350.007 386.5,326.5C 378.216,327.283 372.716,331.616 370,339.5C 371.934,386.524 350.434,416.358 305.5,429C 272.165,436.333 238.832,436.333 205.5,429C 160.187,416.6 138.687,386.767 141,339.5C 138.284,331.616 132.784,327.283 124.5,326.5C 123.892,348.607 125.058,370.607 128,392.5C 131.627,408.551 137.127,423.884 144.5,438.5C 141.177,447.263 136.01,448.596 129,442.5C 116.235,418.44 109.568,392.773 109,365.5C 108.5,352.171 108.333,338.837 108.5,325.5C 75.1593,319.994 54.9926,300.661 48,267.5C 46.6381,214.995 53.9715,163.662 70,113.5C 91.7814,56.0573 132.615,20.2239 192.5,6C 205.215,3.27024 217.882,1.10358 230.5,-0.5 Z M 253.5,14.5 C 266.201,15.1206 278.868,16.1206 291.5,17.5C 284.456,37.5451 290.123,52.7118 308.5,63C 316.381,65.8959 324.381,66.2293 332.5,64C 344.097,57.6196 355.597,51.1196 367,44.5C 376.67,49.7677 385.17,56.6011 392.5,65C 381.8,69.1829 371.467,74.1829 361.5,80C 349.144,90.5787 347.311,102.745 356,116.5C 357.558,118.359 359.391,119.859 361.5,121C 391.721,124.183 415.554,138.016 433,162.5C 435.861,166.888 438.194,171.554 440,176.5C 445.674,203.898 448.341,231.565 448,259.5C 448.213,266.62 444.713,270.12 437.5,270C 416.545,269.136 404.545,278.969 401.5,299.5C 401.913,302.566 402.58,305.566 403.5,308.5C 393.726,309.433 384.06,310.933 374.5,313C 366.059,316.441 359.893,322.274 356,330.5C 349.785,326.238 342.952,324.738 335.5,326C 282.155,349.333 228.821,349.333 175.5,326C 168.048,324.738 161.215,326.238 155,330.5C 151.107,322.274 144.941,316.441 136.5,313C 126.94,310.933 117.274,309.433 107.5,308.5C 111.738,291.713 106.072,279.546 90.5,272C 83.1792,270.949 75.8458,269.949 68.5,269C 64.2787,267.314 62.4454,264.147 63,259.5C 62.6017,232.581 65.1017,205.915 70.5,179.5C 78.3925,157.234 93.0591,141.067 114.5,131C 118.5,126.667 118.5,122.333 114.5,118C 111.97,116.578 109.303,116.245 106.5,117C 97.5014,120.833 89.5014,126.166 82.5,133C 81.8333,133.667 81.1667,133.667 80.5,133C 86.2691,113.296 95.1024,95.1295 107,78.5C 117.107,81.9687 126.94,86.1354 136.5,91C 142.022,93.4899 144.522,97.6566 144,103.5C 143.626,104.416 143.126,105.25 142.5,106C 139.11,107.125 135.943,108.625 133,110.5C 130.418,115.457 131.251,119.623 135.5,123C 148.072,124.126 156.238,118.626 160,106.5C 162.104,93.8748 157.604,84.3748 146.5,78C 137.376,73.1032 128.043,68.7698 118.5,65C 125.773,56.7206 134.106,49.8873 143.5,44.5C 155.13,50.9834 166.796,57.4834 178.5,64C 203.954,68.8695 218.621,58.5361 222.5,33C 222.139,28.1943 221.139,23.5276 219.5,19C 219.833,18.5 220.167,18 220.5,17.5C 231.6,16.168 242.6,15.168 253.5,14.5 Z M 198.5,20.5 C 200.144,20.2865 201.644,20.6198 203,21.5C 208.832,32.3305 206.666,41.1639 196.5,48C 191.833,50 187.167,50 182.5,48C 175.167,43.6667 167.833,39.3333 160.5,35C 172.602,28.4695 185.269,23.6361 198.5,20.5 Z M 252.5,72.5 C 258.05,71.4333 261.383,73.5999 262.5,79C 260.662,86.0157 258.328,92.8491 255.5,99.5C 252.672,92.8491 250.338,86.0157 248.5,79C 249.207,76.4131 250.541,74.2464 252.5,72.5 Z M 402.5,78.5 C 404.74,79.5676 406.574,81.2342 408,83.5C 418.397,99.2814 425.73,116.281 430,134.5C 413.181,119.01 393.348,109.843 370.5,107C 365.105,102.199 365.439,97.532 371.5,93C 381.603,87.4758 391.936,82.6425 402.5,78.5 Z M 196.5,96.5 C 198.527,96.3379 200.527,96.5045 202.5,97C 208.485,101.763 211.318,107.597 211,114.5C 205.121,112.544 199.454,110.211 194,107.5C 191.6,102.99 192.433,99.3231 196.5,96.5 Z M 308.5,96.5 C 315.799,95.3714 318.965,98.3714 318,105.5C 317.535,106.931 316.701,108.097 315.5,109C 310.258,110.636 305.091,112.47 300,114.5C 299.5,114.167 299,113.833 298.5,113.5C 300.202,106.815 303.536,101.148 308.5,96.5 Z M 135.5,156.5 C 142.281,157.107 146.948,160.607 149.5,167C 142.742,168.419 136.409,170.919 130.5,174.5C 129.808,173.975 129.308,173.308 129,172.5C 126.72,165.083 128.887,159.75 135.5,156.5 Z M 177.5,156.5 C 188.378,157.945 191.712,163.779 187.5,174C 181.298,171.581 174.965,169.081 168.5,166.5C 170.601,162.256 173.601,158.922 177.5,156.5 Z M 328.5,156.5 C 335.215,156.866 339.882,160.199 342.5,166.5C 336.225,168.59 330.225,171.257 324.5,174.5C 319.819,167.245 321.152,161.245 328.5,156.5 Z M 371.5,156.5 C 378.844,156.511 382.511,160.177 382.5,167.5C 382.679,170.131 382.013,172.465 380.5,174.5C 374.591,170.919 368.258,168.419 361.5,167C 363.689,162.313 367.023,158.813 371.5,156.5 Z M 152.5,182.5 C 176.959,181.631 190.625,193.297 193.5,217.5C 190.861,238.139 179.194,249.806 158.5,252.5C 137.615,249.781 125.948,237.948 123.5,217C 125.892,199.127 135.559,187.627 152.5,182.5 Z M 346.5,182.5 C 364.761,181.291 377.595,188.958 385,205.5C 390.117,224.821 383.95,239.321 366.5,249C 343.898,255.95 328.065,248.45 319,226.5C 315.324,203.697 324.491,189.03 346.5,182.5 Z M 105.5,186.5 C 109.457,186.268 113.124,187.101 116.5,189C 112.7,194.738 109.867,200.905 108,207.5C 99.6117,204.395 96.9451,198.728 100,190.5C 101.5,188.531 103.333,187.198 105.5,186.5 Z M 205.5,186.5 C 215.692,186.177 219.859,190.844 218,200.5C 215.603,203.4 212.77,205.733 209.5,207.5C 207.387,201.273 204.721,195.273 201.5,189.5C 202.624,188.141 203.958,187.141 205.5,186.5 Z M 299.5,186.5 C 303.384,186.024 306.717,187.024 309.5,189.5C 306.279,195.273 303.613,201.273 301.5,207.5C 296.534,205.037 293.201,201.204 291.5,196C 292.606,191.403 295.273,188.236 299.5,186.5 Z M 399.5,186.5 C 410.402,186.224 414.235,191.224 411,201.5C 408.87,204.23 406.203,206.23 403,207.5C 401.133,200.905 398.3,194.738 394.5,189C 396.315,188.243 397.981,187.41 399.5,186.5 Z M 208.5,226.5 C 214.244,228.578 217.911,232.578 219.5,238.5C 217.246,246.797 211.912,249.63 203.5,247C 202.572,246.612 201.905,245.945 201.5,245C 204.917,239.248 207.251,233.082 208.5,226.5 Z M 301.5,226.5 C 303.661,232.794 306.328,238.961 309.5,245C 309.095,245.945 308.428,246.612 307.5,247C 300.264,249.299 295.097,247.132 292,240.5C 291.448,237.581 292.115,234.914 294,232.5C 296.478,230.361 298.978,228.361 301.5,226.5 Z M 106.5,227.5 C 107.496,227.414 108.329,227.748 109,228.5C 110.412,234.657 112.912,240.324 116.5,245.5C 109.814,248.891 103.98,247.891 99,242.5C 98.3333,239.833 98.3333,237.167 99,234.5C 101.069,231.594 103.569,229.261 106.5,227.5 Z M 402.5,227.5 C 410.004,229.824 413.171,234.824 412,242.5C 407.02,247.891 401.186,248.891 394.5,245.5C 398.268,239.966 400.935,233.966 402.5,227.5 Z M 129.5,259.5 C 135.29,263.209 141.623,265.542 148.5,266.5C 146.637,274.535 141.637,278.035 133.5,277C 131.667,275.833 130.167,274.333 129,272.5C 128.371,268.129 128.537,263.796 129.5,259.5 Z M 186.5,259.5 C 190.271,264.265 190.438,269.265 187,274.5C 178.038,279.684 172.038,277.351 169,267.5C 175.347,265.74 181.18,263.073 186.5,259.5 Z M 323.5,259.5 C 329.083,262.865 335.083,265.365 341.5,267C 341.401,271.503 339.067,274.836 334.5,277C 326.442,278.616 322.109,275.283 321.5,267C 322.071,264.456 322.738,261.956 323.5,259.5 Z M 379.5,259.5 C 380.931,259.881 381.764,260.881 382,262.5C 384.283,274.219 379.783,278.719 368.5,276C 365.02,273.703 363.02,270.536 362.5,266.5C 368.975,265.903 374.642,263.57 379.5,259.5 Z M 254.5,271.5 C 261.744,277.238 268.577,283.572 275,290.5C 279.905,300.881 276.738,305.714 265.5,305C 258.833,296.333 252.167,296.333 245.5,305C 234.262,305.714 231.095,300.881 236,290.5C 242.369,284.298 248.536,277.965 254.5,271.5 Z M 72.5,287.5 C 83.6705,284.013 90.6705,288.013 93.5,299.5C 92.846,301.115 92.346,302.782 92,304.5C 84.394,300.058 77.894,294.391 72.5,287.5 Z M 427.5,286.5 C 431.182,286.335 434.848,286.501 438.5,287C 433.547,294.122 427.214,299.622 419.5,303.5C 417.218,300.678 417.051,297.678 419,294.5C 421.098,290.897 423.932,288.23 427.5,286.5 Z M 167.5,341.5 C 171.327,341.387 174.827,342.387 178,344.5C 178.831,351.192 178.664,357.858 177.5,364.5C 170.811,361.626 164.811,357.792 159.5,353C 160.461,347.889 163.128,344.056 167.5,341.5 Z M 338.5,341.5 C 345.743,341.903 350.076,345.736 351.5,353C 346.189,357.792 340.189,361.626 333.5,364.5C 332.336,357.858 332.169,351.192 333,344.5C 334.876,343.391 336.709,342.391 338.5,341.5 Z M 194.5,350.5 C 200.371,352.069 206.205,353.735 212,355.5C 212.5,362.158 212.666,368.825 212.5,375.5C 206.426,374.481 200.426,373.148 194.5,371.5C 194.5,364.5 194.5,357.5 194.5,350.5 Z M 314.5,350.5 C 316.461,357.087 317.128,364.087 316.5,371.5C 310.575,373.148 304.575,374.481 298.5,375.5C 298.334,368.825 298.5,362.158 299,355.5C 304.341,354.108 309.508,352.441 314.5,350.5 Z M 228.5,358.5 C 234.838,358.767 241.171,359.1 247.5,359.5C 247.5,366.167 247.5,372.833 247.5,379.5C 241.149,379.443 234.815,379.11 228.5,378.5C 228.5,371.833 228.5,365.167 228.5,358.5 Z M 273.5,358.5 C 276.5,358.5 279.5,358.5 282.5,358.5C 282.5,365.167 282.5,371.833 282.5,378.5C 276.178,379.014 269.845,379.347 263.5,379.5C 263.5,372.833 263.5,366.167 263.5,359.5C 267.042,359.813 270.375,359.479 273.5,358.5 Z M 162.5,375.5 C 167.385,378.02 172.385,380.354 177.5,382.5C 181.31,398.959 178.477,400.959 169,388.5C 166.295,384.423 164.128,380.09 162.5,375.5 Z M 346.5,375.5 C 347.376,375.369 348.043,375.702 348.5,376.5C 345.286,384.924 340.119,391.924 333,397.5C 332.171,392.467 332.338,387.467 333.5,382.5C 338.246,380.714 342.58,378.381 346.5,375.5 Z M 194.5,388.5 C 200.392,389.645 206.225,390.978 212,392.5C 212.5,399.492 212.666,406.492 212.5,413.5C 206.38,412.237 200.38,410.571 194.5,408.5C 194.5,401.833 194.5,395.167 194.5,388.5 Z M 312.5,388.5 C 313.833,388.5 315.167,388.5 316.5,388.5C 316.5,395.167 316.5,401.833 316.5,408.5C 310.62,410.571 304.62,412.237 298.5,413.5C 298.334,406.492 298.5,399.492 299,392.5C 303.682,391.472 308.182,390.138 312.5,388.5 Z M 228.5,394.5 C 234.815,395.11 241.149,395.443 247.5,395.5C 247.5,403.167 247.5,410.833 247.5,418.5C 241.162,418.233 234.829,417.9 228.5,417.5C 228.5,409.833 228.5,402.167 228.5,394.5 Z M 275.5,394.5 C 277.833,394.5 280.167,394.5 282.5,394.5C 282.5,402.167 282.5,409.833 282.5,417.5C 276.171,417.9 269.838,418.233 263.5,418.5C 263.5,410.833 263.5,403.167 263.5,395.5C 267.702,395.817 271.702,395.483 275.5,394.5 Z M 253.5,464.5 C 258.65,464.645 261.65,467.312 262.5,472.5C 260.947,477.274 258.613,481.608 255.5,485.5C 252.387,481.608 250.053,477.274 248.5,472.5C 249.177,469.133 250.843,466.466 253.5,464.5 Z M 225.5,479.5 C 228.32,479.248 230.986,479.748 233.5,481C 236.42,485.504 239.086,490.171 241.5,495C 235.664,495.118 229.998,494.118 224.5,492C 220.377,487.517 220.71,483.35 225.5,479.5 Z M 279.5,479.5 C 287.489,479.313 290.322,482.979 288,490.5C 285.958,492.604 283.458,493.771 280.5,494C 276.823,494.718 273.157,495.051 269.5,495C 271.999,489.136 275.332,483.969 279.5,479.5 Z"/></g>
<g><path style="opacity:0.934" fill="#000000" d="M 248.5,56.5 C 261.486,54.4103 270.986,59.077 277,70.5C 277.863,73.2686 278.363,76.102 278.5,79C 275.282,92.3236 271.449,105.49 267,118.5C 265.452,125.123 264.118,131.789 263,138.5C 260.565,143.224 256.731,144.724 251.5,143C 249.951,141.786 248.785,140.286 248,138.5C 246.882,131.789 245.548,125.123 244,118.5C 239.551,105.49 235.718,92.3236 232.5,79C 233.319,68.1651 238.653,60.6651 248.5,56.5 Z M 252.5,72.5 C 250.541,74.2464 249.207,76.4131 248.5,79C 250.338,86.0157 252.672,92.8491 255.5,99.5C 258.328,92.8491 260.662,86.0157 262.5,79C 261.383,73.5999 258.05,71.4333 252.5,72.5 Z"/></g>
<g><path style="opacity:0.926" fill="#000000" d="M 192.5,80.5 C 205.57,78.6202 215.403,83.2869 222,94.5C 228.812,108.415 232.479,123.082 233,138.5C 230.565,143.224 226.731,144.724 221.5,143C 218.167,139.667 214.833,136.333 211.5,133C 202.915,129.138 194.248,125.472 185.5,122C 173.925,109.993 173.591,97.6593 184.5,85C 187.191,83.3952 189.858,81.8952 192.5,80.5 Z M 196.5,96.5 C 192.433,99.3231 191.6,102.99 194,107.5C 199.454,110.211 205.121,112.544 211,114.5C 211.318,107.597 208.485,101.763 202.5,97C 200.527,96.5045 198.527,96.3379 196.5,96.5 Z"/></g>
<g><path style="opacity:0.926" fill="#000000" d="M 305.5,80.5 C 325.77,78.9373 335.27,88.2706 334,108.5C 332.568,113.861 329.734,118.361 325.5,122C 316.752,125.472 308.085,129.138 299.5,133C 296.167,136.333 292.833,139.667 289.5,143C 282.269,145.095 278.269,142.428 277.5,135C 279.063,123.184 281.896,111.684 286,100.5C 289.624,90.8304 296.124,84.1637 305.5,80.5 Z M 308.5,96.5 C 303.536,101.148 300.202,106.815 298.5,113.5C 299,113.833 299.5,114.167 300,114.5C 305.091,112.47 310.258,110.636 315.5,109C 316.701,108.097 317.535,106.931 318,105.5C 318.965,98.3714 315.799,95.3714 308.5,96.5 Z"/></g>
<g><path style="opacity:0.939" fill="#000000" d="M 132.5,140.5 C 143.285,139.592 152.119,143.258 159,151.5C 168.99,139.715 180.823,137.548 194.5,145C 202.519,151.536 206.185,160.036 205.5,170.5C 222.829,170.17 232.829,178.503 235.5,195.5C 235.15,204.367 231.483,211.534 224.5,217C 238.716,230.706 239.049,244.706 225.5,259C 219.389,262.906 212.722,264.406 205.5,263.5C 205.021,286.817 193.354,296.317 170.5,292C 165.806,290.138 161.806,287.305 158.5,283.5C 150.032,292.931 139.698,295.765 127.5,292C 115.824,286.154 110.824,276.654 112.5,263.5C 94.1015,264.995 84.1015,256.662 82.5,238.5C 82.4516,229.763 85.7849,222.597 92.5,217C 82.2412,207.613 79.7412,196.447 85,183.5C 91.4938,173.715 100.66,169.382 112.5,170.5C 111.21,155.054 117.877,145.054 132.5,140.5 Z M 135.5,156.5 C 128.887,159.75 126.72,165.083 129,172.5C 129.308,173.308 129.808,173.975 130.5,174.5C 136.409,170.919 142.742,168.419 149.5,167C 146.948,160.607 142.281,157.107 135.5,156.5 Z M 177.5,156.5 C 173.601,158.922 170.601,162.256 168.5,166.5C 174.965,169.081 181.298,171.581 187.5,174C 191.712,163.779 188.378,157.945 177.5,156.5 Z M 152.5,182.5 C 135.559,187.627 125.892,199.127 123.5,217C 125.948,237.948 137.615,249.781 158.5,252.5C 179.194,249.806 190.861,238.139 193.5,217.5C 190.625,193.297 176.959,181.631 152.5,182.5 Z M 105.5,186.5 C 103.333,187.198 101.5,188.531 100,190.5C 96.9451,198.728 99.6117,204.395 108,207.5C 109.867,200.905 112.7,194.738 116.5,189C 113.124,187.101 109.457,186.268 105.5,186.5 Z M 205.5,186.5 C 203.958,187.141 202.624,188.141 201.5,189.5C 204.721,195.273 207.387,201.273 209.5,207.5C 212.77,205.733 215.603,203.4 218,200.5C 219.859,190.844 215.692,186.177 205.5,186.5 Z M 208.5,226.5 C 207.251,233.082 204.917,239.248 201.5,245C 201.905,245.945 202.572,246.612 203.5,247C 211.912,249.63 217.246,246.797 219.5,238.5C 217.911,232.578 214.244,228.578 208.5,226.5 Z M 106.5,227.5 C 103.569,229.261 101.069,231.594 99,234.5C 98.3333,237.167 98.3333,239.833 99,242.5C 103.98,247.891 109.814,248.891 116.5,245.5C 112.912,240.324 110.412,234.657 109,228.5C 108.329,227.748 107.496,227.414 106.5,227.5 Z M 129.5,259.5 C 128.537,263.796 128.371,268.129 129,272.5C 130.167,274.333 131.667,275.833 133.5,277C 141.637,278.035 146.637,274.535 148.5,266.5C 141.623,265.542 135.29,263.209 129.5,259.5 Z M 186.5,259.5 C 181.18,263.073 175.347,265.74 169,267.5C 172.038,277.351 178.038,279.684 187,274.5C 190.438,269.265 190.271,264.265 186.5,259.5 Z"/></g>
<g><path style="opacity:0.939" fill="#000000" d="M 326.5,140.5 C 337.034,139.689 345.534,143.355 352,151.5C 365.724,137.342 379.724,137.009 394,150.5C 397.906,156.611 399.406,163.278 398.5,170.5C 421.866,171.023 431.366,182.689 427,205.5C 425.324,210.178 422.491,214.011 418.5,217C 428.248,225.585 431.082,236.085 427,248.5C 421.166,260.17 411.666,265.17 398.5,263.5C 399.985,281.581 391.819,291.581 374,293.5C 369.63,293.677 365.464,292.843 361.5,291C 358.354,288.688 355.354,286.188 352.5,283.5C 341.581,294.586 329.247,296.419 315.5,289C 307.959,282.222 304.626,273.722 305.5,263.5C 287.594,264.591 277.594,256.257 275.5,238.5C 275.858,229.617 279.525,222.45 286.5,217C 271.905,202.941 271.905,188.941 286.5,175C 292.38,171.657 298.713,170.157 305.5,170.5C 304.816,154.887 311.816,144.887 326.5,140.5 Z M 328.5,156.5 C 321.152,161.245 319.819,167.245 324.5,174.5C 330.225,171.257 336.225,168.59 342.5,166.5C 339.882,160.199 335.215,156.866 328.5,156.5 Z M 371.5,156.5 C 367.023,158.813 363.689,162.313 361.5,167C 368.258,168.419 374.591,170.919 380.5,174.5C 382.013,172.465 382.679,170.131 382.5,167.5C 382.511,160.177 378.844,156.511 371.5,156.5 Z M 346.5,182.5 C 324.491,189.03 315.324,203.697 319,226.5C 328.065,248.45 343.898,255.95 366.5,249C 383.95,239.321 390.117,224.821 385,205.5C 377.595,188.958 364.761,181.291 346.5,182.5 Z M 299.5,186.5 C 295.273,188.236 292.606,191.403 291.5,196C 293.201,201.204 296.534,205.037 301.5,207.5C 303.613,201.273 306.279,195.273 309.5,189.5C 306.717,187.024 303.384,186.024 299.5,186.5 Z M 399.5,186.5 C 397.981,187.41 396.315,188.243 394.5,189C 398.3,194.738 401.133,200.905 403,207.5C 406.203,206.23 408.87,204.23 411,201.5C 414.235,191.224 410.402,186.224 399.5,186.5 Z M 301.5,226.5 C 298.978,228.361 296.478,230.361 294,232.5C 292.115,234.914 291.448,237.581 292,240.5C 295.097,247.132 300.264,249.299 307.5,247C 308.428,246.612 309.095,245.945 309.5,245C 306.328,238.961 303.661,232.794 301.5,226.5 Z M 402.5,227.5 C 400.935,233.966 398.268,239.966 394.5,245.5C 401.186,248.891 407.02,247.891 412,242.5C 413.171,234.824 410.004,229.824 402.5,227.5 Z M 323.5,259.5 C 322.738,261.956 322.071,264.456 321.5,267C 322.109,275.283 326.442,278.616 334.5,277C 339.067,274.836 341.401,271.503 341.5,267C 335.083,265.365 329.083,262.865 323.5,259.5 Z M 379.5,259.5 C 374.642,263.57 368.975,265.903 362.5,266.5C 363.02,270.536 365.02,273.703 368.5,276C 379.783,278.719 384.283,274.219 382,262.5C 381.764,260.881 380.931,259.881 379.5,259.5 Z"/></g>
<g><path style="opacity:0.876" fill="#000000" d="M 252.5,155.5 C 261.705,155.206 265.205,159.54 263,168.5C 258,173.833 253,173.833 248,168.5C 246.243,162.825 247.743,158.492 252.5,155.5 Z"/></g>
<g><path style="opacity:0.926" fill="#000000" d="M 252.5,252.5 C 254.527,252.338 256.527,252.505 258.5,253C 271.373,262.873 282.54,274.373 292,287.5C 296.665,301.849 292.499,312.683 279.5,320C 271.317,322.296 263.317,321.796 255.5,318.5C 239.919,325.546 227.753,321.88 219,307.5C 215.775,297.22 217.442,287.887 224,279.5C 233.093,269.902 242.593,260.902 252.5,252.5 Z M 254.5,271.5 C 248.536,277.965 242.369,284.298 236,290.5C 231.095,300.881 234.262,305.714 245.5,305C 252.167,296.333 258.833,296.333 265.5,305C 276.738,305.714 279.905,300.881 275,290.5C 268.577,283.572 261.744,277.238 254.5,271.5 Z"/></g>
</svg>
