<?xml version="1.0" encoding="UTF-8"?>
<!DOCTYPE svg PUBLIC "-//W3C//DTD SVG 1.1//EN" "http://www.w3.org/Graphics/SVG/1.1/DTD/svg11.dtd">
<svg xmlns="http://www.w3.org/2000/svg" version="1.1" width="512px" height="512px" style="shape-rendering:geometricPrecision; text-rendering:geometricPrecision; image-rendering:optimizeQuality; fill-rule:evenodd; clip-rule:evenodd" xmlns:xlink="http://www.w3.org/1999/xlink">
<g><path style="opacity:0.931" fill="#000000" d="M 511.5,115.5 C 511.5,121.5 511.5,127.5 511.5,133.5C 508.735,141.499 504.068,148.333 497.5,154C 474.833,168.667 452.167,183.333 429.5,198C 429.484,204.748 426.817,210.081 421.5,214C 413.363,217.545 405.03,220.379 396.5,222.5C 391.372,222.52 387.206,220.52 384,216.5C 371.258,219.894 358.424,223.06 345.5,226C 338.042,227.194 330.875,226.361 324,223.5C 316.477,226.398 308.977,229.398 301.5,232.5C 301.167,233 300.833,233.5 300.5,234C 304.03,245.831 302.53,256.998 296,267.5C 277.647,288.352 259.48,309.352 241.5,330.5C 244.896,379.428 247.063,428.428 248,477.5C 244.736,487.765 237.902,494.265 227.5,497C 198.5,497.667 169.5,497.667 140.5,497C 134.423,490.45 135.423,485.45 143.5,482C 170.5,481.667 197.5,481.333 224.5,481C 227.937,479.895 230.437,477.728 232,474.5C 230.999,429.136 228.999,383.802 226,338.5C 214.027,344.353 201.527,346.186 188.5,344C 184.074,338.559 184.741,333.892 190.5,330C 207.14,329.789 221.807,324.456 234.5,314C 250.667,295.167 266.833,276.333 283,257.5C 286.033,252.894 287.033,247.894 286,242.5C 281.156,223.457 276.156,204.457 271,185.5C 269.877,182.751 268.377,180.251 266.5,178C 245.143,168.49 223.476,159.657 201.5,151.5C 199.971,151.529 198.804,152.196 198,153.5C 195.736,160.653 196.069,167.653 199,174.5C 207.333,183.167 215.667,191.833 224,200.5C 225.592,210.759 225.926,221.093 225,231.5C 223.542,233.96 221.709,236.127 219.5,238C 210.833,243 202.167,248 193.5,253C 178.71,262.804 168.877,276.304 164,293.5C 160.264,297.861 156.097,298.361 151.5,295C 150.137,293.055 149.303,290.888 149,288.5C 113.08,302.695 76.7466,315.695 40,327.5C 31.2733,327.135 23.9399,323.802 18,317.5C 11.3318,303.641 5.16516,289.641 -0.5,275.5C -0.5,270.5 -0.5,265.5 -0.5,260.5C 1.70746,253.779 5.70746,248.279 11.5,244C 26.3886,236.723 41.0552,229.223 55.5,221.5C 50.4772,200.554 45.6439,179.554 41,158.5C 39.5904,142.912 46.0904,132.078 60.5,126C 69.3583,123.705 78.1917,123.539 87,125.5C 91.7157,115.784 99.2157,109.284 109.5,106C 113.986,105.377 118.486,104.877 123,104.5C 127.609,104.487 131.942,105.487 136,107.5C 139.264,97.2353 146.098,90.7353 156.5,88C 162.859,87.1955 169.193,86.3622 175.5,85.5C 180.399,86.0098 185.066,87.3431 189.5,89.5C 189.833,88.5 190.167,87.5 190.5,86.5C 189.71,73.8463 189.044,61.1796 188.5,48.5C 190.578,20.931 205.245,9.76433 232.5,15C 242.493,18.9933 248.993,26.16 252,36.5C 254.195,51.4478 255.528,66.4478 256,81.5C 251.625,86.3815 246.958,86.7148 242,82.5C 239.673,68.2487 237.673,53.9154 236,39.5C 231.774,30.9701 224.941,27.8034 215.5,30C 207.726,33.8726 204.06,40.2059 204.5,49C 205.571,78.1971 207.071,107.364 209,136.5C 222,141.833 235,147.167 248,152.5C 246.771,138.214 245.271,123.881 243.5,109.5C 245.684,101.432 250.518,99.4318 258,103.5C 259.593,109.509 260.926,115.509 262,121.5C 267.546,118.977 273.046,116.311 278.5,113.5C 281.533,106.968 285.866,101.468 291.5,97C 303.167,90.1667 314.833,83.3333 326.5,76.5C 326.892,71.4852 328.559,66.9852 331.5,63C 340.486,58.3412 349.819,54.5078 359.5,51.5C 364.757,51.8787 368.924,54.2121 372,58.5C 397.434,53.213 422.934,48.0464 448.5,43C 464.364,40.172 477.197,45.0054 487,57.5C 495.494,76.8073 503.661,96.1407 511.5,115.5 Z M 450.5,58.5 C 460.243,56.6896 468.076,59.6896 474,67.5C 481.276,84.3859 488.276,101.386 495,118.5C 497.309,128.243 494.476,136.076 486.5,142C 465.5,155.5 444.5,169 423.5,182.5C 422.201,181.91 421.368,180.91 421,179.5C 417.862,171.087 414.529,162.754 411,154.5C 405.967,150.221 401.3,150.554 397,155.5C 396.333,158.167 396.333,160.833 397,163.5C 402.038,175.74 407.204,187.906 412.5,200C 407.673,202.498 402.673,204.165 397.5,205C 379.704,161.905 362.037,118.739 344.5,75.5C 348.73,72.8006 353.23,70.4673 358,68.5C 367.382,89.9707 376.382,111.637 385,133.5C 388.652,139.725 393.318,140.725 399,136.5C 400.457,133.634 400.79,130.634 400,127.5C 392.377,109.613 385.377,91.6126 379,73.5C 402.964,68.6747 426.798,63.6747 450.5,58.5 Z M 332.5,91.5 C 341.454,111.161 349.954,131.161 358,151.5C 365.006,168.358 371.506,185.358 377.5,202.5C 366.115,204.677 354.782,207.177 343.5,210C 332.84,211.918 325.673,207.751 322,197.5C 313,175.167 304,152.833 295,130.5C 292.13,122.11 294.296,115.276 301.5,110C 311.897,103.807 322.23,97.6406 332.5,91.5 Z M 174.5,101.5 C 180.729,101.894 185.229,104.894 188,110.5C 189.234,119.175 190.4,127.842 191.5,136.5C 183.358,143.577 179.691,152.577 180.5,163.5C 180.268,174.369 183.935,183.703 191.5,191.5C 185.133,198.759 177.8,199.925 169.5,195C 167.3,192.766 165.467,190.266 164,187.5C 159.308,163.872 154.808,140.205 150.5,116.5C 151.181,110.63 154.181,106.463 159.5,104C 164.643,103.162 169.643,102.328 174.5,101.5 Z M 118.5,120.5 C 128.314,119.144 134.481,123.144 137,132.5C 141.039,154.362 145.206,176.196 149.5,198C 146.613,210.607 138.946,215.274 126.5,212C 123.333,210.167 120.833,207.667 119,204.5C 113.873,183.201 108.873,161.868 104,140.5C 101.752,128.594 106.585,121.927 118.5,120.5 Z M 277.5,131.5 C 288.381,157.957 299.381,184.457 310.5,211C 305.844,213.719 300.844,215.553 295.5,216.5C 292.383,202.313 288.549,188.313 284,174.5C 279.31,167.307 272.977,161.974 265,158.5C 263.71,151.831 263.543,145.164 264.5,138.5C 269.054,136.392 273.388,134.059 277.5,131.5 Z M 75.5,139.5 C 81.6312,139.48 86.1312,142.147 89,147.5C 93.3328,169.164 97.6662,190.831 102,212.5C 103.307,227.526 96.4733,234.026 81.5,232C 77.7403,230.539 74.9069,228.039 73,224.5C 66.3852,200.049 61.0518,175.382 57,150.5C 60.8633,142.823 67.0299,139.156 75.5,139.5 Z M 203.5,202.5 C 205.463,203.96 207.296,205.627 209,207.5C 209.83,213.528 209.664,219.528 208.5,225.5C 197.164,231.832 186.164,238.666 175.5,246C 168.744,252.752 162.744,260.086 157.5,268C 131.461,277.735 105.461,287.568 79.5,297.5C 71.371,278.74 63.371,259.906 55.5,241C 57.3359,239.581 59.3359,238.414 61.5,237.5C 71.7989,248.318 84.1323,251.484 98.5,247C 108.493,243.007 114.993,235.84 118,225.5C 132.989,232.53 146.322,230.197 158,218.5C 159.92,215.661 161.587,212.661 163,209.5C 172.873,215.404 183.039,215.904 193.5,211C 197.613,209.052 200.946,206.219 203.5,202.5 Z M 40.5,247.5 C 48.3363,265.652 56.003,283.985 63.5,302.5C 55.827,306.281 47.827,309.281 39.5,311.5C 35.0463,310.538 31.5463,308.205 29,304.5C 23.6973,292.588 19.1973,280.421 15.5,268C 15.3596,264.615 16.3596,261.615 18.5,259C 25.7685,254.867 33.1019,251.034 40.5,247.5 Z"/></g>
<g><path style="opacity:0.907" fill="#000000" d="M 411.5,95.5 C 414.32,95.2475 416.986,95.7475 419.5,97C 425.603,108.378 430.77,120.212 435,132.5C 436.167,140.667 432.667,144.167 424.5,143C 422.333,142.167 420.833,140.667 420,138.5C 415.667,127.833 411.333,117.167 407,106.5C 405.776,101.626 407.276,97.9593 411.5,95.5 Z"/></g>
<g><path style="opacity:0.93" fill="#000000" d="M 96.5,316.5 C 101.818,317.152 104.818,320.152 105.5,325.5C 102.781,372.989 100.115,420.489 97.5,468C 98.7411,477.903 104.408,482.903 114.5,483C 118.034,487.076 118.367,491.409 115.5,496C 99.8695,499.266 89.0361,493.433 83,478.5C 82.1764,475.215 81.6764,471.882 81.5,468.5C 84.1994,421.179 86.6994,373.846 89,326.5C 88.9007,320.97 91.4007,317.637 96.5,316.5 Z"/></g>
</svg>
