<?xml version="1.0" encoding="UTF-8"?>
<!DOCTYPE svg PUBLIC "-//W3C//DTD SVG 1.1//EN" "http://www.w3.org/Graphics/SVG/1.1/DTD/svg11.dtd">
<svg xmlns="http://www.w3.org/2000/svg" version="1.1" width="512px" height="512px" style="shape-rendering:geometricPrecision; text-rendering:geometricPrecision; image-rendering:optimizeQuality; fill-rule:evenodd; clip-rule:evenodd" xmlns:xlink="http://www.w3.org/1999/xlink">
<g><path style="opacity:0.945" fill="#000000" d="M 511.5,506.5 C 511.5,507.833 511.5,509.167 511.5,510.5C 340.833,510.5 170.167,510.5 -0.5,510.5C -0.5,386.833 -0.5,263.167 -0.5,139.5C 9.01052,77.1448 43.0105,33.9781 101.5,10C 158.649,-8.47686 210.649,0.85647 257.5,38C 288.111,65.3847 305.944,99.5514 311,140.5C 311.5,170.832 311.667,201.165 311.5,231.5C 305.833,231.5 300.167,231.5 294.5,231.5C 294.667,203.165 294.5,174.831 294,146.5C 288.759,98.8229 265.925,62.3229 225.5,37C 178.044,11.3383 130.711,11.6717 83.5,38C 44.9976,63.1467 22.8309,98.6467 17,144.5C 16.3333,249.5 16.3333,354.5 17,459.5C 21.1384,455.43 25.8051,452.097 31,449.5C 31.0245,346.149 31.6912,242.816 33,139.5C 43.4429,84.7244 75.6096,50.2244 129.5,36C 182.937,27.3551 225.77,44.5217 258,87.5C 271.633,108.069 278.633,130.735 279,155.5C 279.5,180.831 279.667,206.164 279.5,231.5C 273.5,231.5 267.5,231.5 261.5,231.5C 261.667,202.831 261.5,174.165 261,145.5C 252.279,94.1129 222.446,62.9463 171.5,52C 120.482,47.4207 82.9815,67.5874 59,112.5C 54.4456,122.716 51.4456,133.383 50,144.5C 49.5,244.499 49.3333,344.499 49.5,444.5C 53.4724,443.892 57.4724,443.392 61.5,443C 78.7023,423.566 100.369,412.9 126.5,411C 128.333,409.167 130.167,407.333 132,405.5C 130.432,389.621 130.098,373.621 131,357.5C 132.35,352.815 135.183,349.315 139.5,347C 203.776,345.344 268.109,345.011 332.5,346C 338.333,347.833 342.167,351.667 344,357.5C 344.177,370.075 344.677,382.575 345.5,395C 358.82,396.828 370.486,402.161 380.5,411C 407.488,412.661 429.821,423.661 447.5,444C 471.41,446.271 489.243,457.771 501,478.5C 504.627,487.893 508.127,497.227 511.5,506.5 Z M 82.5,173.5 C 86.2733,173.263 89.9399,173.763 93.5,175C 98.3364,178.834 98.6698,183.001 94.5,187.5C 90.7121,189.256 86.7121,189.922 82.5,189.5C 82.5,184.167 82.5,178.833 82.5,173.5 Z M 213.5,173.5 C 217.675,173.188 221.675,173.855 225.5,175.5C 229.455,179.629 229.455,183.796 225.5,188C 221.605,189.266 217.605,189.766 213.5,189.5C 213.5,184.167 213.5,178.833 213.5,173.5 Z M 147.5,362.5 C 169.167,362.5 190.833,362.5 212.5,362.5C 212.5,373.167 212.5,383.833 212.5,394.5C 190.833,394.5 169.167,394.5 147.5,394.5C 147.5,383.833 147.5,373.167 147.5,362.5 Z M 229.5,362.5 C 251.167,362.5 272.833,362.5 294.5,362.5C 294.5,373.167 294.5,383.833 294.5,394.5C 272.833,394.5 251.167,394.5 229.5,394.5C 229.5,383.833 229.5,373.167 229.5,362.5 Z M 311.5,362.5 C 316.833,362.5 322.167,362.5 327.5,362.5C 327.5,373.167 327.5,383.833 327.5,394.5C 322.167,394.5 316.833,394.5 311.5,394.5C 311.5,383.833 311.5,373.167 311.5,362.5 Z M 150.5,411.5 C 216.192,411.028 281.858,411.528 347.5,413C 357.338,415.508 365.672,420.508 372.5,428C 399.874,427.687 421.541,438.52 437.5,460.5C 457.442,460.219 472.942,468.219 484,484.5C 485.741,487.309 486.908,490.309 487.5,493.5C 330.833,493.5 174.167,493.5 17.5,493.5C 21.6855,476.482 32.3521,465.982 49.5,462C 56.1667,461.667 62.8333,461.333 69.5,461C 85.5648,439.134 107.232,428.134 134.5,428C 140.036,422.631 145.37,417.131 150.5,411.5 Z"/></g>
<g><path style="opacity:0.937" fill="#000000" d="M 393.5,0.5 C 409.837,0.333403 426.17,0.500069 442.5,1C 470.575,5.07472 490.742,19.9081 503,45.5C 515.682,82.2703 506.849,112.604 476.5,136.5C 475.925,146.555 475.092,156.555 474,166.5C 464.311,182.342 451.145,186.009 434.5,177.5C 423.512,182.832 412.512,182.832 401.5,177.5C 387.756,185.118 375.59,183.118 365,171.5C 363.139,169.112 361.806,166.446 361,163.5C 360.832,154.482 360.332,145.482 359.5,136.5C 331.156,114.634 321.656,86.3011 331,51.5C 341.99,22.2764 362.823,5.27637 393.5,0.5 Z M 401.5,17.5 C 415.865,17.203 430.198,17.703 444.5,19C 479.242,28.7551 494.409,51.5884 490,87.5C 485.301,105.199 474.967,118.533 459,127.5C 458.667,137.833 458.333,148.167 458,158.5C 455.068,164.544 450.568,166.044 444.5,163C 441.318,159.651 437.985,156.484 434.5,153.5C 430.601,157.569 426.267,161.069 421.5,164C 418.366,164.79 415.366,164.457 412.5,163C 408.686,160.02 405.019,156.854 401.5,153.5C 397.648,157.186 393.648,160.686 389.5,164C 384.186,165.26 380.353,163.426 378,158.5C 377.667,148.167 377.333,137.833 377,127.5C 345.502,107.01 337.502,79.6764 353,45.5C 364.506,27.9997 380.673,18.6663 401.5,17.5 Z M 382.5,67.5 C 390.147,67.3133 393.314,70.98 392,78.5C 386.919,83.9865 382.252,83.6531 378,77.5C 377.077,73.0165 378.577,69.6832 382.5,67.5 Z M 447.5,67.5 C 453.629,66.5548 457.296,69.0548 458.5,75C 457.581,80.7922 454.248,83.1256 448.5,82C 443.857,79.9276 442.357,76.4276 444,71.5C 445.376,70.2949 446.542,68.9616 447.5,67.5 Z"/></g>
<g><path style="opacity:0.933" fill="#000000" d="M 382.5,49.5 C 399.173,49.9949 408.506,58.4949 410.5,75C 406.871,95.8129 394.871,103.48 374.5,98C 363.125,91.412 358.625,81.5787 361,68.5C 364.315,57.6784 371.482,51.345 382.5,49.5 Z M 382.5,67.5 C 378.577,69.6832 377.077,73.0165 378,77.5C 382.252,83.6531 386.919,83.9865 392,78.5C 393.314,70.98 390.147,67.3133 382.5,67.5 Z"/></g>
<g><path style="opacity:0.931" fill="#000000" d="M 447.5,49.5 C 468.496,50.6613 477.663,61.6613 475,82.5C 470.862,93.5762 462.862,99.5762 451,100.5C 431.253,97.4239 423.253,86.0906 427,66.5C 431.049,57.2686 437.882,51.6019 447.5,49.5 Z M 447.5,67.5 C 446.542,68.9616 445.376,70.2949 444,71.5C 442.357,76.4276 443.857,79.9276 448.5,82C 454.248,83.1256 457.581,80.7922 458.5,75C 457.296,69.0548 453.629,66.5548 447.5,67.5 Z"/></g>
<g><path style="opacity:0.932" fill="#000000" d="M 77.5,156.5 C 86.9932,155.415 95.9932,156.915 104.5,161C 115.243,170.791 117.41,182.291 111,195.5C 109.315,197.017 107.815,198.684 106.5,200.5C 113.892,209.5 116.559,219.834 114.5,231.5C 108.833,231.5 103.167,231.5 97.5,231.5C 99.7748,219.032 95.1081,210.698 83.5,206.5C 82.5021,214.807 82.1688,223.14 82.5,231.5C 76.5,231.5 70.5,231.5 64.5,231.5C 64.3334,210.831 64.5,190.164 65,169.5C 66.6823,162.653 70.849,158.32 77.5,156.5 Z M 82.5,173.5 C 82.5,178.833 82.5,184.167 82.5,189.5C 86.7121,189.922 90.7121,189.256 94.5,187.5C 98.6698,183.001 98.3364,178.834 93.5,175C 89.9399,173.763 86.2733,173.263 82.5,173.5 Z"/></g>
<g><path style="opacity:0.927" fill="#000000" d="M 130.5,156.5 C 147.167,156.5 163.833,156.5 180.5,156.5C 180.5,162.167 180.5,167.833 180.5,173.5C 175.167,173.5 169.833,173.5 164.5,173.5C 164.5,186.833 164.5,200.167 164.5,213.5C 169.833,213.5 175.167,213.5 180.5,213.5C 180.5,219.5 180.5,225.5 180.5,231.5C 163.833,231.5 147.167,231.5 130.5,231.5C 130.5,225.5 130.5,219.5 130.5,213.5C 135.833,213.5 141.167,213.5 146.5,213.5C 146.5,200.167 146.5,186.833 146.5,173.5C 141.167,173.5 135.833,173.5 130.5,173.5C 130.5,167.833 130.5,162.167 130.5,156.5 Z"/></g>
<g><path style="opacity:0.927" fill="#000000" d="M 208.5,156.5 C 214.509,156.334 220.509,156.501 226.5,157C 238.701,160.532 245.367,168.698 246.5,181.5C 245.801,194.077 239.467,202.243 227.5,206C 222.845,206.499 218.179,206.666 213.5,206.5C 213.5,214.833 213.5,223.167 213.5,231.5C 207.5,231.5 201.5,231.5 195.5,231.5C 195.333,211.831 195.5,192.164 196,172.5C 197.056,164.624 201.222,159.291 208.5,156.5 Z M 213.5,173.5 C 213.5,178.833 213.5,184.167 213.5,189.5C 217.605,189.766 221.605,189.266 225.5,188C 229.455,183.796 229.455,179.629 225.5,175.5C 221.675,173.855 217.675,173.188 213.5,173.5 Z"/></g>
<g><path style="opacity:0.93" fill="#000000" d="M 337.5,175.5 C 342.419,178.748 346.753,182.748 350.5,187.5C 343.075,193.741 342.742,200.241 349.5,207C 359.536,209.118 369.536,211.451 379.5,214C 392.545,222.125 396.712,233.625 392,248.5C 388.745,256.089 383.245,261.256 375.5,264C 351.903,266.614 328.236,268.614 304.5,270C 284.395,274.778 276.562,287.278 281,307.5C 284.223,313.454 288.056,318.954 292.5,324C 289.549,327.954 286.216,331.621 282.5,335C 281.5,335.667 280.5,335.667 279.5,335C 260.169,316.849 256.669,296.016 269,272.5C 276.032,262.15 285.699,255.817 298,253.5C 321.14,251.407 344.307,249.573 367.5,248C 374.334,246.506 377.168,242.34 376,235.5C 374.878,233.376 373.378,231.543 371.5,230C 362.541,227.895 353.541,225.895 344.5,224C 327.797,214.722 323.297,201.222 331,183.5C 333.001,180.669 335.167,178.003 337.5,175.5 Z"/></g>
<g><path style="opacity:0.914" fill="#000000" d="M 428.5,198.5 C 445.348,203.186 455.515,214.186 459,231.5C 459.497,234.146 459.664,236.813 459.5,239.5C 453.833,239.5 448.167,239.5 442.5,239.5C 441.665,227.142 435.498,218.808 424,214.5C 424.769,209.018 426.269,203.684 428.5,198.5 Z"/></g>
<g><path style="opacity:0.911" fill="#000000" d="M 442.5,252.5 C 447.669,253.556 452.669,255.223 457.5,257.5C 458.614,258.723 458.781,260.056 458,261.5C 445.5,287.178 425,301.678 396.5,305C 381.504,305.5 366.504,305.667 351.5,305.5C 351.5,299.5 351.5,293.5 351.5,287.5C 367.503,287.667 383.503,287.5 399.5,287C 419.654,282.673 433.987,271.173 442.5,252.5 Z"/></g>
<g><path style="opacity:0.899" fill="#000000" d="M 332.5,287.5 C 333.833,287.5 335.167,287.5 336.5,287.5C 336.5,293.5 336.5,299.5 336.5,305.5C 329.759,306.622 327.259,310.622 329,317.5C 330.458,319.96 332.291,322.127 334.5,324C 330.833,327.667 327.167,331.333 323.5,335C 320.72,335.269 318.554,334.102 317,331.5C 307.443,317.068 308.943,303.902 321.5,292C 325.157,290.178 328.824,288.678 332.5,287.5 Z"/></g>
<g><path style="opacity:0.916" fill="#000000" d="M 232.5,427.5 C 240.303,426.576 247.47,428.243 254,432.5C 268.506,424.577 281.673,426.41 293.5,438C 289.318,442.349 284.985,446.515 280.5,450.5C 275.644,444.814 269.978,443.648 263.5,447C 260.333,450.167 257.167,453.333 254,456.5C 249.709,450.69 244.209,446.69 237.5,444.5C 233.374,445.619 229.707,447.619 226.5,450.5C 221.616,446.802 217.782,442.468 215,437.5C 219.946,432.449 225.779,429.115 232.5,427.5 Z"/></g>
<g><path style="opacity:0.917" fill="#000000" d="M 115.5,452.5 C 123.765,451.569 131.598,452.902 139,456.5C 153.785,449.434 166.952,451.6 178.5,463C 174.333,467.167 170.167,471.333 166,475.5C 162.529,471.011 158.029,469.178 152.5,470C 147.703,473.132 143.203,476.632 139,480.5C 134.797,476.632 130.297,473.132 125.5,470C 119.971,469.178 115.471,471.011 112,475.5C 107.833,471.333 103.667,467.167 99.5,463C 103.97,458.002 109.303,454.502 115.5,452.5 Z"/></g>
<g><path style="opacity:0.92" fill="#000000" d="M 345.5,452.5 C 353.744,451.645 361.577,452.978 369,456.5C 378.597,451.794 388.431,451.294 398.5,455C 402.165,456.986 405.165,459.653 407.5,463C 404.048,467.455 400.214,471.622 396,475.5C 391.631,469.726 386.131,468.226 379.5,471C 376.287,474.549 372.787,477.716 369,480.5C 364.797,476.632 360.297,473.132 355.5,470C 349.971,469.178 345.471,471.011 342,475.5C 337.833,471.333 333.667,467.167 329.5,463C 333.977,457.992 339.31,454.492 345.5,452.5 Z"/></g>
</svg>
