<?xml version="1.0" encoding="UTF-8"?>
<!DOCTYPE svg PUBLIC "-//W3C//DTD SVG 1.1//EN" "http://www.w3.org/Graphics/SVG/1.1/DTD/svg11.dtd">
<svg xmlns="http://www.w3.org/2000/svg" version="1.1" width="512px" height="512px" style="shape-rendering:geometricPrecision; text-rendering:geometricPrecision; image-rendering:optimizeQuality; fill-rule:evenodd; clip-rule:evenodd" xmlns:xlink="http://www.w3.org/1999/xlink">
<g><path style="opacity:0.916" fill="#000000" d="M -0.5,26.5 C -0.5,24.5 -0.5,22.5 -0.5,20.5C 0.961599,19.5423 2.29493,18.3756 3.5,17C 21.8333,16.3333 40.1667,16.3333 58.5,17C 62.2115,19.513 63.3782,23.013 62,27.5C 60.786,29.0488 59.286,30.2155 57.5,31C 39.8333,31.6667 22.1667,31.6667 4.5,31C 2.31305,29.975 0.646381,28.475 -0.5,26.5 Z"/></g>
<g><path style="opacity:0.916" fill="#000000" d="M 511.5,28.5 C 511.5,30.5 511.5,32.5 511.5,34.5C 510.038,35.4577 508.705,36.6244 507.5,38C 489.167,38.6667 470.833,38.6667 452.5,38C 448.788,35.487 447.622,31.987 449,27.5C 450.214,25.9512 451.714,24.7845 453.5,24C 471.167,23.3333 488.833,23.3333 506.5,24C 508.687,25.025 510.354,26.525 511.5,28.5 Z"/></g>
<g><path style="opacity:0.922" fill="#000000" d="M 255.5,36.5 C 305.511,33.1261 351.344,45.1261 393,72.5C 393.333,61.8333 393.667,51.1667 394,40.5C 394.374,39.5838 394.874,38.7504 395.5,38C 409.072,36.37 422.739,36.0367 436.5,37C 442.282,42.7357 441.616,47.4023 434.5,51C 425.84,51.4998 417.173,51.6664 408.5,51.5C 408.168,62.5202 408.501,73.5202 409.5,84.5C 466.333,132.865 492.5,194.532 488,269.5C 480.631,339.107 448.131,393.273 390.5,432C 344.693,460.894 295.193,471.061 242,462.5C 240.517,459.298 240.183,455.964 241,452.5C 249.196,431.578 257.196,410.578 265,389.5C 265.833,388.667 266.667,387.833 267.5,387C 325.962,385.875 368.795,359.709 396,308.5C 418.677,252.899 410.344,202.565 371,157.5C 325.702,115.109 274.202,105.609 216.5,129C 210.003,132.414 203.67,136.081 197.5,140C 193.409,141.227 189.909,140.394 187,137.5C 176,118.167 165,98.8333 154,79.5C 153.294,77.0288 153.627,74.6954 155,72.5C 185.511,52.0528 219.011,40.0528 255.5,36.5 Z M 256.5,51.5 C 342.002,48.6389 406.502,83.6389 450,156.5C 481.621,220.328 481.288,283.995 449,347.5C 409.494,413.528 350.994,448.194 273.5,451.5C 268.453,451.162 263.453,450.495 258.5,449.5C 264.904,433.285 270.904,416.952 276.5,400.5C 330.637,398.191 372.471,374.525 402,329.5C 426.03,287.365 430.03,243.365 414,197.5C 387.365,136.5 340.698,104.5 274,101.5C 246.213,101.405 220.379,108.405 196.5,122.5C 188.041,108.416 179.707,94.2489 171.5,80C 197.793,64.1802 226.126,54.6802 256.5,51.5 Z"/></g>
<g><path style="opacity:0.916" fill="#000000" d="M -0.5,52.5 C -0.5,50.5 -0.5,48.5 -0.5,46.5C 0.646381,44.525 2.31305,43.025 4.5,42C 22.1667,41.3333 39.8333,41.3333 57.5,42C 62.6894,44.9132 63.8561,49.0799 61,54.5C 60.2496,55.1258 59.4162,55.6258 58.5,56C 40.1667,56.6667 21.8333,56.6667 3.5,56C 2.29493,54.6244 0.961599,53.4577 -0.5,52.5 Z"/></g>
<g><path style="opacity:0.912" fill="#000000" d="M 511.5,53.5 C 511.5,55.5 511.5,57.5 511.5,59.5C 510.684,61.1436 509.35,62.3103 507.5,63C 489.167,63.6667 470.833,63.6667 452.5,63C 448.788,60.487 447.622,56.987 449,52.5C 450.319,50.5125 452.152,49.3459 454.5,49C 471.5,48.3333 488.5,48.3333 505.5,49C 508.254,49.5985 510.254,51.0985 511.5,53.5 Z"/></g>
<g><path style="opacity:0.924" fill="#000000" d="M 28.5,62.5 C 32.4257,62.0466 35.5923,63.3799 38,66.5C 38.5,90.8311 38.6666,115.164 38.5,139.5C 51.5171,139.832 64.5171,139.499 77.5,138.5C 89.8887,114.939 105.555,93.7726 124.5,75C 128.999,72.6335 132.832,73.4668 136,77.5C 148,98.1667 160,118.833 172,139.5C 174.753,143.333 175.086,147.333 173,151.5C 154.364,174.124 143.364,200.124 140,229.5C 139.654,231.848 138.487,233.681 136.5,235C 123.233,236.14 109.899,236.64 96.5,236.5C 84.1667,236.333 71.8333,236.167 59.5,236C 55.2863,235.285 52.953,232.785 52.5,228.5C 54.6613,203.022 60.6613,178.522 70.5,155C 56.1667,154.667 41.8333,154.333 27.5,154C 25.9512,152.786 24.7845,151.286 24,149.5C 23.3333,122.167 23.3333,94.8333 24,67.5C 25.025,65.313 26.525,63.6464 28.5,62.5 Z M 126.5,94.5 C 127.496,94.4142 128.329,94.7476 129,95.5C 138.247,112.329 147.747,128.996 157.5,145.5C 140.988,167.872 130.488,192.872 126,220.5C 106.91,221.493 87.7429,221.826 68.5,221.5C 74.6448,172.894 93.9782,130.561 126.5,94.5 Z"/></g>
<g><path style="opacity:0.932" fill="#000000" d="M 213.5,171.5 C 237.47,169.394 251.97,180.06 257,203.5C 261.983,200.902 267.317,199.568 273,199.5C 278.586,200.106 284.086,201.106 289.5,202.5C 291.548,186.28 300.548,176.113 316.5,172C 336.064,169.195 349.898,176.695 358,194.5C 361.226,203.082 361.059,211.582 357.5,220C 371.291,224.789 379.791,234.289 383,248.5C 383.973,266.924 383.64,285.257 382,303.5C 381.097,304.701 379.931,305.535 378.5,306C 362.837,306.5 347.17,306.667 331.5,306.5C 331.666,314.84 331.5,323.173 331,331.5C 330.167,332.333 329.333,333.167 328.5,334C 291.5,334.667 254.5,334.667 217.5,334C 215.951,332.786 214.785,331.286 214,329.5C 213.5,321.841 213.334,314.174 213.5,306.5C 197.071,306.97 180.738,306.47 164.5,305C 163.874,304.25 163.374,303.416 163,302.5C 162.833,293.167 162.667,283.833 162.5,274.5C 162.381,263.778 162.881,253.111 164,242.5C 168.093,231.407 175.759,224.073 187,220.5C 181.751,196.32 190.584,179.987 213.5,171.5 Z M 215.5,186.5 C 233.98,185.48 242.48,194.146 241,212.5C 236.654,223.596 228.487,228.429 216.5,227C 201.351,220.867 197.184,210.367 204,195.5C 207.161,191.491 210.994,188.491 215.5,186.5 Z M 319.5,186.5 C 334.486,185.32 343.153,192.153 345.5,207C 340.707,226.398 329.374,231.731 311.5,223C 300.55,211.685 300.884,200.685 312.5,190C 314.925,188.787 317.259,187.621 319.5,186.5 Z M 268.5,214.5 C 285.32,214.486 293.487,222.819 293,239.5C 286.764,255.249 275.931,259.416 260.5,252C 249.53,240.339 249.863,229.006 261.5,218C 263.925,216.787 266.259,215.621 268.5,214.5 Z M 192.5,234.5 C 194.857,234.337 197.19,234.503 199.5,235C 211.299,243.498 223.799,244.664 237,238.5C 237.737,242.207 238.571,245.873 239.5,249.5C 224.546,253.363 216.046,263.03 214,278.5C 213.501,282.821 213.334,287.154 213.5,291.5C 201.5,291.5 189.5,291.5 177.5,291.5C 177.333,277.163 177.5,262.829 178,248.5C 180.774,241.557 185.607,236.89 192.5,234.5 Z M 346.5,234.5 C 355.948,234.129 362.782,238.129 367,246.5C 368.434,261.442 368.934,276.442 368.5,291.5C 356.167,291.5 343.833,291.5 331.5,291.5C 334.383,270.572 326.05,256.572 306.5,249.5C 306.577,245.854 307.577,242.521 309.5,239.5C 319.916,243.66 330.249,243.493 340.5,239C 342.747,237.723 344.747,236.223 346.5,234.5 Z M 246.5,262.5 C 247.873,262.343 249.207,262.51 250.5,263C 259.67,270.063 270.003,272.396 281.5,270C 287.262,268.284 292.595,265.784 297.5,262.5C 306.2,263.922 312.367,268.589 316,276.5C 316.5,290.829 316.667,305.163 316.5,319.5C 287.167,319.5 257.833,319.5 228.5,319.5C 228.333,306.163 228.5,292.829 229,279.5C 231.458,270.207 237.291,264.54 246.5,262.5 Z"/></g>
<g><path style="opacity:0.922" fill="#000000" d="M 57.5,265.5 C 84.922,265.017 112.255,265.517 139.5,267C 151.498,325.989 185.498,366.323 241.5,388C 244.394,390.909 245.227,394.409 244,398.5C 235.407,421.955 226.24,445.122 216.5,468C 215.127,468.875 213.627,469.375 212,469.5C 165.676,453.423 127.842,425.757 98.5,386.5C 78.5111,385.5 58.5111,385.167 38.5,385.5C 38.6666,405.503 38.5,425.503 38,445.5C 33.3333,452.167 28.6667,452.167 24,445.5C 23.0203,421.412 23.3537,397.412 25,373.5C 25.9025,372.299 27.0692,371.465 28.5,371C 48.1667,370.667 67.8333,370.333 87.5,370C 69.2246,340.177 57.8913,307.844 53.5,273C 53.9274,269.977 55.2607,267.477 57.5,265.5 Z M 70.5,280.5 C 89.5029,280.333 108.503,280.5 127.5,281C 141.534,336.861 174.867,376.361 227.5,399.5C 220.963,416.737 214.296,433.904 207.5,451C 184.282,442.553 163.282,430.22 144.5,414C 104.074,378.322 79.4076,333.822 70.5,280.5 Z"/></g>
<g><path style="opacity:0.916" fill="#000000" d="M -0.5,464.5 C -0.5,462.5 -0.5,460.5 -0.5,458.5C 0.961599,457.542 2.29493,456.376 3.5,455C 21.8333,454.333 40.1667,454.333 58.5,455C 62.2115,457.513 63.3782,461.013 62,465.5C 60.786,467.049 59.286,468.215 57.5,469C 39.8333,469.667 22.1667,469.667 4.5,469C 2.31305,467.975 0.646381,466.475 -0.5,464.5 Z"/></g>
<g><path style="opacity:0.916" fill="#000000" d="M -0.5,490.5 C -0.5,488.5 -0.5,486.5 -0.5,484.5C 0.646381,482.525 2.31305,481.025 4.5,480C 22.1667,479.333 39.8333,479.333 57.5,480C 62.6894,482.913 63.8561,487.08 61,492.5C 60.2496,493.126 59.4162,493.626 58.5,494C 40.1667,494.667 21.8333,494.667 3.5,494C 2.29493,492.624 0.961599,491.458 -0.5,490.5 Z"/></g>
</svg>
