<?xml version="1.0" encoding="UTF-8"?>
<!DOCTYPE svg PUBLIC "-//W3C//DTD SVG 1.1//EN" "http://www.w3.org/Graphics/SVG/1.1/DTD/svg11.dtd">
<svg xmlns="http://www.w3.org/2000/svg" version="1.1" width="512px" height="512px" style="shape-rendering:geometricPrecision; text-rendering:geometricPrecision; image-rendering:optimizeQuality; fill-rule:evenodd; clip-rule:evenodd" xmlns:xlink="http://www.w3.org/1999/xlink">
<g><path style="opacity:0.972" fill="#000000" d="M 182.5,60.5 C 194.171,60.3335 205.838,60.5001 217.5,61C 231.133,64.0899 236.967,72.5899 235,86.5C 233.268,94.5649 228.435,99.7316 220.5,102C 205.135,102.141 189.802,102.808 174.5,104C 138.196,112.637 117.696,135.471 113,172.5C 112.333,221.5 112.333,270.5 113,319.5C 117.782,356.949 138.615,379.783 175.5,388C 230.87,388.979 286.204,388.646 341.5,387C 370.667,379.167 389.167,360.667 397,331.5C 398.249,316.545 398.916,301.545 399,286.5C 401.557,270.797 410.723,264.297 426.5,267C 433,269.5 437.5,274 440,280.5C 440.667,296.833 440.667,313.167 440,329.5C 431.991,377.843 404.824,410.01 358.5,426C 352.248,427.717 345.914,429.05 339.5,430C 283.833,430.667 228.167,430.667 172.5,430C 124.527,422.02 92.36,395.187 76,349.5C 73.1244,339.704 71.4577,329.704 71,319.5C 70.3333,270.5 70.3333,221.5 71,172.5C 75.0231,122.253 100.19,87.4198 146.5,68C 158.312,63.8743 170.312,61.3743 182.5,60.5 Z"/></g>
<g><path style="opacity:0.966" fill="#000000" d="M 393.5,102.5 C 411.991,101.49 420.491,110.157 419,128.5C 418.275,130.949 417.275,133.283 416,135.5C 372,192.167 328,248.833 284,305.5C 272.184,317.664 258.018,321.497 241.5,317C 237.714,315.607 234.048,313.941 230.5,312C 205,287.833 180.167,263 156,237.5C 148.738,221.195 153.571,210.362 170.5,205C 174.975,204.533 179.309,205.199 183.5,207C 206.805,229.305 229.805,251.972 252.5,275C 253.167,275.667 253.833,275.667 254.5,275C 298.118,218.38 342.118,162.047 386.5,106C 388.925,104.787 391.259,103.621 393.5,102.5 Z"/></g>
</svg>
