<?xml version="1.0" encoding="UTF-8"?>
<!DOCTYPE svg PUBLIC "-//W3C//DTD SVG 1.1//EN" "http://www.w3.org/Graphics/SVG/1.1/DTD/svg11.dtd">
<svg xmlns="http://www.w3.org/2000/svg" version="1.1" width="512px" height="512px" style="shape-rendering:geometricPrecision; text-rendering:geometricPrecision; image-rendering:optimizeQuality; fill-rule:evenodd; clip-rule:evenodd" xmlns:xlink="http://www.w3.org/1999/xlink">
<g><path style="opacity:0.913" fill="#000000" d="M 163.5,9.5 C 171.377,8.4996 178.711,9.9996 185.5,14C 192.931,19.4267 199.764,25.5934 206,32.5C 215.464,26.7152 225.797,23.7152 237,23.5C 243.163,24.2033 249.329,24.8699 255.5,25.5C 271.331,22.0626 286.664,23.5626 301.5,30C 302.579,30.956 303.745,31.7894 305,32.5C 311.236,25.5934 318.069,19.4267 325.5,14C 348.104,3.93372 360.104,11.2671 361.5,36C 361.363,52.4349 355.363,66.2683 343.5,77.5C 365.102,93.6921 377.102,115.359 379.5,142.5C 378.341,148.091 375.008,149.924 369.5,148C 367.333,146.5 365.167,145 363,143.5C 372.088,166.243 366.588,184.743 346.5,199C 341.611,202.612 336.277,205.445 330.5,207.5C 328.386,206.966 326.552,205.966 325,204.5C 322.343,194.179 316.009,187.513 306,184.5C 303.254,205.913 291.087,218.079 269.5,221C 257.046,222.115 244.713,221.449 232.5,219C 216.01,213.834 207.343,202.667 206.5,185.5C 200.456,185.272 195.623,187.605 192,192.5C 189.359,196.951 186.859,201.451 184.5,206C 183.128,206.402 181.795,206.902 180.5,207.5C 166.079,202.042 154.913,192.709 147,179.5C 144.884,174.369 143.717,169.035 143.5,163.5C 144.114,156.524 145.614,149.857 148,143.5C 144.398,147.719 139.898,149.219 134.5,148C 132.934,146.316 131.934,144.316 131.5,142C 134.05,115.053 146.05,93.5528 167.5,77.5C 149.454,59.5457 145.288,38.879 155,15.5C 157.671,13.0976 160.505,11.0976 163.5,9.5 Z M 166.5,22.5 C 171.287,21.9699 175.62,23.1366 179.5,26C 182.833,28.6667 186.167,31.3333 189.5,34C 191.53,35.8962 193.197,38.0629 194.5,40.5C 193.855,41.646 193.022,42.646 192,43.5C 190.361,35.0774 186.027,33.0774 179,37.5C 178.219,38.7287 177.719,40.062 177.5,41.5C 179.242,46.3926 180.575,51.3926 181.5,56.5C 180.547,60.4039 179.047,64.0706 177,67.5C 165.938,57.69 161.271,45.3566 163,30.5C 163.368,27.4349 164.535,24.7682 166.5,22.5 Z M 337.5,22.5 C 340.685,22.0196 343.519,22.6863 346,24.5C 350.881,41.309 346.881,55.6424 334,67.5C 331.953,64.0706 330.453,60.4039 329.5,56.5C 330.425,51.3926 331.758,46.3926 333.5,41.5C 332.838,37.5045 330.505,35.1712 326.5,34.5C 321.677,35.4948 319.177,38.4948 319,43.5C 317.978,42.646 317.145,41.646 316.5,40.5C 322.292,33.0381 329.292,27.0381 337.5,22.5 Z M 233.5,36.5 C 240.956,36.6819 248.289,37.6819 255.5,39.5C 290.739,32.2098 313.572,45.8765 324,80.5C 330.433,84.6332 336.599,89.1332 342.5,94C 352.668,103.166 359.668,114.333 363.5,127.5C 363.167,128.167 362.833,128.833 362.5,129.5C 356.62,127.677 350.62,127.177 344.5,128C 340.708,130.053 339.542,133.219 341,137.5C 360.813,158.326 358.48,176.326 334,191.5C 327.974,179.236 318.14,172.569 304.5,171.5C 303.644,167.409 302.477,163.409 301,159.5C 297.333,155.5 293.667,155.5 290,159.5C 290.043,167.06 290.876,174.56 292.5,182C 291.331,197.503 282.998,206.17 267.5,208C 254.864,209.972 242.53,208.638 230.5,204C 222.601,198.873 218.601,191.54 218.5,182C 220.124,174.56 220.957,167.06 221,159.5C 217.333,155.5 213.667,155.5 210,159.5C 208.523,163.409 207.356,167.409 206.5,171.5C 192.86,172.569 183.026,179.236 177,191.5C 152.52,176.326 150.187,158.326 170,137.5C 171.458,133.219 170.292,130.053 166.5,128C 160.38,127.177 154.38,127.677 148.5,129.5C 148.43,123.904 149.93,118.57 153,113.5C 157.406,106.424 162.572,99.924 168.5,94C 174.401,89.1332 180.567,84.6332 187,80.5C 193.437,55.888 208.937,41.2213 233.5,36.5 Z M 213.5,97.5 C 220.004,97.1377 221.671,99.6377 218.5,105C 212.785,105.401 211.119,102.901 213.5,97.5 Z M 292.5,97.5 C 298.704,97.3137 300.037,99.8137 296.5,105C 290.403,105.147 289.07,102.647 292.5,97.5 Z"/></g>
<g><path style="opacity:0.908" fill="#000000" d="M 230.5,46.5 C 238.952,46.0493 247.285,46.716 255.5,48.5C 267.012,45.4482 278.345,45.9482 289.5,50C 292,51.8333 294.5,53.6667 297,55.5C 299.023,61.4744 297.023,64.8077 291,65.5C 286.983,63.5802 282.816,61.7469 278.5,60C 270.745,59.1948 263.079,59.6948 255.5,61.5C 246.847,59.2219 238.18,59.0552 229.5,61C 227.156,61.8372 225.156,63.1706 223.5,65C 215.333,66.8333 212.167,63.6667 214,55.5C 218.813,51.0765 224.313,48.0765 230.5,46.5 Z"/></g>
<g><path style="opacity:0.898" fill="#000000" d="M 235.5,65.5 C 242.208,65.6961 248.875,66.3628 255.5,67.5C 264.937,64.8706 274.271,65.0373 283.5,68C 287.5,71.6667 287.5,75.3333 283.5,79C 279.314,79.5726 275.147,79.406 271,78.5C 265.753,79.1243 260.586,80.1243 255.5,81.5C 250.414,80.1243 245.247,79.1243 240,78.5C 235.853,79.406 231.686,79.5726 227.5,79C 224.346,76.2251 223.846,73.0584 226,69.5C 228.888,67.2876 232.055,65.9543 235.5,65.5 Z"/></g>
<g><path style="opacity:0.913" fill="#000000" d="M 210.5,84.5 C 226.801,82.9685 234.301,90.3018 233,106.5C 228.015,117.239 219.849,120.739 208.5,117C 200.283,112.053 197.45,104.886 200,95.5C 202.046,90.29 205.546,86.6233 210.5,84.5 Z M 213.5,97.5 C 211.119,102.901 212.785,105.401 218.5,105C 221.671,99.6377 220.004,97.1377 213.5,97.5 Z"/></g>
<g><path style="opacity:0.914" fill="#000000" d="M 288.5,84.5 C 305.651,82.8169 313.151,90.4836 311,107.5C 304.416,119.054 295.249,121.554 283.5,115C 277.462,108.828 275.962,101.662 279,93.5C 281.406,89.5915 284.572,86.5915 288.5,84.5 Z M 292.5,97.5 C 289.07,102.647 290.403,105.147 296.5,105C 300.037,99.8137 298.704,97.3137 292.5,97.5 Z"/></g>
<g><path style="opacity:0.916" fill="#000000" d="M 232.5,123.5 C 235.187,123.336 237.854,123.503 240.5,124C 245.213,127.356 250.213,130.189 255.5,132.5C 260.787,130.189 265.787,127.356 270.5,124C 279.179,122.01 282.345,125.177 280,133.5C 274.167,137.418 268.167,141.084 262,144.5C 261.015,152.625 261.515,160.625 263.5,168.5C 264.665,169.584 265.998,170.417 267.5,171C 273.53,171.769 279.53,172.602 285.5,173.5C 289.5,177.167 289.5,180.833 285.5,184.5C 279.181,185.538 272.848,185.372 266.5,184C 262.448,183.373 258.782,181.873 255.5,179.5C 248.09,183.6 240.09,185.6 231.5,185.5C 226.403,186.236 223.403,184.07 222.5,179C 223.112,176.942 224.112,175.109 225.5,173.5C 231.47,172.602 237.47,171.769 243.5,171C 247.153,169.868 248.987,167.368 249,163.5C 249.667,157.167 249.667,150.833 249,144.5C 242.833,141.084 236.833,137.418 231,133.5C 228.925,129.794 229.425,126.461 232.5,123.5 Z"/></g>
<g><path style="opacity:0.913" fill="#000000" d="M 107.5,149.5 C 111.287,148.814 114.454,149.814 117,152.5C 121.275,164.265 124.275,176.265 126,188.5C 122.137,193.763 118.137,193.763 114,188.5C 112.489,182.788 110.822,177.121 109,171.5C 92.365,202.376 84.6983,235.376 86,270.5C 79.9478,275.379 75.9478,274.046 74,266.5C 72.292,231.872 79.4587,199.205 95.5,168.5C 92.4911,167.977 89.4911,168.477 86.5,170C 83.5,170.667 80.5,170.667 77.5,170C 73.5,166.333 73.5,162.667 77.5,159C 87.644,155.895 97.644,152.728 107.5,149.5 Z"/></g>
<g><path style="opacity:0.905" fill="#000000" d="M 398.5,151.5 C 403.421,151.043 406.921,153.043 409,157.5C 426.71,186.634 436.376,218.301 438,252.5C 441.167,248 445,244.167 449.5,241C 457.035,240.902 459.535,244.402 457,251.5C 448.93,259.849 440.764,268.016 432.5,276C 429.581,276.552 426.914,275.885 424.5,274C 416.946,266.446 409.446,258.946 402,251.5C 400.518,243.311 403.685,240.478 411.5,243C 415.762,246.717 419.928,250.55 424,254.5C 423.932,231.226 419.266,208.893 410,187.5C 405.193,177.383 400.027,167.549 394.5,158C 395.226,155.366 396.559,153.199 398.5,151.5 Z"/></g>
<g><path style="opacity:0.917" fill="#000000" d="M 11.5,289.5 C 15.0071,288.994 18.1737,289.66 21,291.5C 21.6717,308.648 30.1717,319.315 46.5,323.5C 47.5,323.333 48.5,323.167 49.5,323C 40.5064,313.364 37.8398,302.364 41.5,290C 44.1667,289.333 46.8333,289.333 49.5,290C 50.7014,290.903 51.5348,292.069 52,293.5C 54.1747,314.002 65.6747,324.502 86.5,325C 95.0335,328.562 99.2002,335.062 99,344.5C 109.667,341.833 120.333,341.833 131,344.5C 130.8,335.062 134.966,328.562 143.5,325C 155.552,325.222 165.386,320.722 173,311.5C 176.092,304.449 178.592,297.282 180.5,290C 183.993,288.996 187.159,289.496 190,291.5C 191.862,303.562 188.695,314.062 180.5,323C 192.775,322.733 201.275,316.899 206,305.5C 207.092,300.86 208.092,296.193 209,291.5C 212.667,288.833 216.333,288.833 220,291.5C 221.511,314.596 211.011,329.429 188.5,336C 174.532,337.176 160.532,337.842 146.5,338C 144.571,341.256 144.071,344.756 145,348.5C 147.916,350.041 150.749,351.707 153.5,353.5C 168.702,341.266 185.202,339.266 203,347.5C 204.974,357.276 202.974,366.276 197,374.5C 190.155,383.023 181.488,388.689 171,391.5C 170.915,403.557 170.249,415.557 169,427.5C 165.526,436.308 159.359,442.474 150.5,446C 149.789,447.255 148.956,448.421 148,449.5C 147.201,457.373 145.534,465.04 143,472.5C 142.667,477.833 142.333,483.167 142,488.5C 141.258,493.151 139.092,496.984 135.5,500C 122.595,501.628 109.595,501.961 96.5,501C 91.5637,498.303 88.7303,494.136 88,488.5C 87.6667,483.167 87.3333,477.833 87,472.5C 84.4656,465.04 82.7989,457.373 82,449.5C 78.8669,445.837 75.0335,443.004 70.5,441C 65.7475,437.586 62.5809,433.086 61,427.5C 59.7512,415.557 59.0845,403.557 59,391.5C 37.8231,385.34 26.8231,371.34 26,349.5C 26.5,347.667 27.6667,346.5 29.5,346C 46.8469,339.401 62.6803,341.901 77,353.5C 79.4985,351.583 82.1651,349.916 85,348.5C 85.8166,345.036 85.4833,341.702 84,338.5C 69.8773,337.853 55.7106,337.019 41.5,336C 19.0462,329.583 8.54617,314.749 10,291.5C 10.7172,290.956 11.2172,290.289 11.5,289.5 Z M 41.5,355.5 C 51.2938,354.28 59.9605,356.78 67.5,363C 64.368,367.264 62.0347,371.931 60.5,377C 49.5961,374.937 42.5961,368.437 39.5,357.5C 40.2427,356.818 40.9094,356.151 41.5,355.5 Z M 105.5,355.5 C 123.571,353.025 139.071,358.025 152,370.5C 154.514,374.525 156.181,378.859 157,383.5C 157.945,397.236 157.612,410.903 156,424.5C 155.028,426.305 153.861,427.972 152.5,429.5C 143.756,432.766 137.922,438.766 135,447.5C 135.091,470.74 124.257,478.24 102.5,470C 100.622,468.457 99.1217,466.624 98,464.5C 96.8693,458.535 95.8693,452.535 95,446.5C 91.5269,438.494 85.6936,432.827 77.5,429.5C 75.2261,427.287 73.7261,424.621 73,421.5C 72.089,407.12 72.4223,392.786 74,378.5C 77.0526,370.782 82.2192,364.948 89.5,361C 94.8458,358.83 100.179,356.997 105.5,355.5 Z M 176.5,355.5 C 180.514,355.334 184.514,355.501 188.5,356C 189.428,356.388 190.095,357.055 190.5,358C 187.333,367.833 180.833,374.333 171,377.5C 170.228,377.355 169.561,377.022 169,376.5C 167.763,371.527 165.596,367.027 162.5,363C 166.826,359.673 171.492,357.173 176.5,355.5 Z M 100.5,484.5 C 110.256,485.487 119.923,485.821 129.5,485.5C 128.96,486.748 128.293,487.915 127.5,489C 119.167,489.667 110.833,489.667 102.5,489C 101.418,487.67 100.751,486.17 100.5,484.5 Z"/></g>
<g><path style="opacity:0.915" fill="#000000" d="M 363.5,315.5 C 376.327,320.173 387.494,327.506 397,337.5C 405.624,347.311 412.458,358.311 417.5,370.5C 424.659,361.175 432.992,353.008 442.5,346C 447.606,343.364 452.772,340.864 458,338.5C 465.987,335.503 469.654,338.169 469,346.5C 457.559,367.99 449.392,390.657 444.5,414.5C 444.833,415.167 445.167,415.833 445.5,416.5C 461.626,406.708 478.959,403.541 497.5,407C 501.292,409.053 502.458,412.219 501,416.5C 485.401,428.756 472.735,443.423 463,460.5C 457.017,472.098 454.017,484.432 454,497.5C 453.535,498.931 452.701,500.097 451.5,501C 448.833,501.667 446.167,501.667 443.5,501C 442.874,500.25 442.374,499.416 442,498.5C 441.09,478.892 446.09,460.892 457,444.5C 463.335,435.351 470.502,426.851 478.5,419C 450.131,424.132 429.964,439.965 418,466.5C 414.171,476.474 412.171,486.807 412,497.5C 409.947,501.292 406.781,502.458 402.5,501C 401.667,500.167 400.833,499.333 400,498.5C 399.291,488.128 400.458,477.961 403.5,468C 397.526,440.043 384.526,416.043 364.5,396C 358.87,391.6 352.703,388.1 346,385.5C 355.493,400.486 363.493,416.486 370,433.5C 372.311,440.746 374.311,448.079 376,455.5C 387.423,466.18 393.923,479.346 395.5,495C 394.246,501.326 390.579,503.159 384.5,500.5C 380.909,477.321 368.243,461.321 346.5,452.5C 348.358,456.093 350.858,459.759 354,463.5C 361.009,474.543 363.675,486.543 362,499.5C 358.333,502.167 354.667,502.167 351,499.5C 350.535,484.423 345.202,471.423 335,460.5C 329.72,455.226 325.22,449.393 321.5,443C 322.664,437.581 325.997,435.414 331.5,436.5C 340.842,437.086 349.842,439.086 358.5,442.5C 351.583,420.328 340.749,400.328 326,382.5C 322.517,378.448 322.683,374.615 326.5,371C 345.078,369.526 361.244,375.026 375,387.5C 374.453,379.424 373.12,371.424 371,363.5C 367.295,349.677 363.128,336.01 358.5,322.5C 358.497,318.798 360.164,316.465 363.5,315.5 Z M 377.5,338.5 C 394.334,351.499 404.5,368.499 408,389.5C 404.677,399.47 401.677,409.47 399,419.5C 396.333,414.833 393.667,410.167 391,405.5C 389.077,382.621 384.577,360.288 377.5,338.5 Z M 448.5,358.5 C 438.162,380.354 431.995,403.354 430,427.5C 422.565,433.731 416.565,441.065 412,449.5C 411.167,447 410.333,444.5 409.5,442C 411.397,417.216 418.897,394.383 432,373.5C 437.071,367.924 442.571,362.924 448.5,358.5 Z"/></g>
<g><path style="opacity:0.849" fill="#000000" d="M 85.5,395.5 C 91.3336,394.577 95.0003,396.91 96.5,402.5C 94.1639,409.727 89.6639,411.393 83,407.5C 80.6957,402.855 81.529,398.855 85.5,395.5 Z"/></g>
<g><path style="opacity:0.849" fill="#000000" d="M 138.5,395.5 C 147.367,395.738 150.034,399.905 146.5,408C 139.872,411.33 135.538,409.497 133.5,402.5C 134.065,399.284 135.732,396.951 138.5,395.5 Z"/></g>
<g><path style="opacity:0.911" fill="#000000" d="M 221.5,397.5 C 228.097,397.679 230.597,401.012 229,407.5C 223.921,411.29 218.755,414.956 213.5,418.5C 236.216,424.762 259.216,425.929 282.5,422C 292.286,420.303 301.953,418.137 311.5,415.5C 316.739,415.636 318.905,418.303 318,423.5C 316.52,426.663 314.02,428.496 310.5,429C 277.794,438.577 244.794,439.91 211.5,433C 215.072,437.308 217.738,442.141 219.5,447.5C 218.131,452.688 214.797,454.521 209.5,453C 201.943,442.719 195.276,431.886 189.5,420.5C 190.034,418.386 191.034,416.552 192.5,415C 202.23,409.141 211.897,403.308 221.5,397.5 Z"/></g>
<g><path style="opacity:0.85" fill="#000000" d="M 108.5,448.5 C 112.846,448.334 117.179,448.501 121.5,449C 123.444,451.153 123.944,453.653 123,456.5C 117.667,465.833 112.333,465.833 107,456.5C 106.109,453.502 106.609,450.836 108.5,448.5 Z"/></g>
</svg>
