<?xml version="1.0" encoding="UTF-8"?>
<!DOCTYPE svg PUBLIC "-//W3C//DTD SVG 1.1//EN" "http://www.w3.org/Graphics/SVG/1.1/DTD/svg11.dtd">
<svg xmlns="http://www.w3.org/2000/svg" version="1.1" width="512px" height="512px" style="shape-rendering:geometricPrecision; text-rendering:geometricPrecision; image-rendering:optimizeQuality; fill-rule:evenodd; clip-rule:evenodd" xmlns:xlink="http://www.w3.org/1999/xlink">
<g><path style="opacity:0.926" fill="#000000" d="M 478.5,-0.5 C 483.5,-0.5 488.5,-0.5 493.5,-0.5C 501.808,3.14116 507.808,9.14116 511.5,17.5C 511.5,22.5 511.5,27.5 511.5,32.5C 505.027,56.3829 498.527,80.3829 492,104.5C 482.662,119.61 469.828,123.443 453.5,116C 449.367,112.869 445.534,109.369 442,105.5C 424.167,123.333 406.333,141.167 388.5,159C 378.273,166.651 367.606,167.318 356.5,161C 335.667,140.167 314.833,119.333 294,98.5C 281.5,111 269,123.5 256.5,136C 293.51,149.99 324.176,172.49 348.5,203.5C 389.005,185.434 424.505,192.434 455,224.5C 464.248,235.991 469.915,248.991 472,263.5C 470.305,268.599 466.805,270.432 461.5,269C 459.714,268.215 458.214,267.049 457,265.5C 446.089,227.626 420.922,209.126 381.5,210C 356.326,213.848 337.826,227.014 326,249.5C 313.123,282.493 319.957,310.659 346.5,334C 371.973,351.7 398.306,353.033 425.5,338C 442.267,327.223 452.767,312.057 457,292.5C 461.38,287.657 466.046,287.323 471,291.5C 471.601,293.137 472.101,294.803 472.5,296.5C 463.906,330.261 442.906,352.094 409.5,362C 399.553,363.993 389.72,364.826 380,364.5C 359.714,437.453 313.214,484.619 240.5,506C 230.772,508.264 221.105,510.098 211.5,511.5C 198.5,511.5 185.5,511.5 172.5,511.5C 99.5887,501.127 47.0887,462.794 15,396.5C 7.03072,377.783 1.86405,358.45 -0.5,338.5C -0.5,325.167 -0.5,311.833 -0.5,298.5C 9.77435,226.111 47.7743,173.945 113.5,142C 139.356,130.962 166.356,125.295 194.5,125C 221.167,98.3333 247.833,71.6667 274.5,45C 285.521,35.5471 297.187,34.5471 309.5,42C 330,62.5 350.5,83 371,103.5C 382.5,92 394,80.5 405.5,69C 399.399,63.9509 394.899,57.7842 392,50.5C 389.282,33.4293 396.115,22.2626 412.5,17C 434.704,11.4509 456.704,5.61759 478.5,-0.5 Z M 480.5,15.5 C 489.491,13.6413 494.491,17.1413 495.5,26C 489.952,50.3135 483.785,74.4801 477,98.5C 473.562,103.081 469.062,104.581 463.5,103C 458.5,98.6667 453.5,94.3333 448.5,90C 444.167,88 439.833,88 435.5,90C 415.862,108.638 396.528,127.638 377.5,147C 374.033,149.786 370.366,150.12 366.5,148C 345.833,127.333 325.167,106.667 304.5,86C 297.5,81.3333 290.5,81.3333 283.5,86C 268.833,100.667 254.167,115.333 239.5,130C 231.84,129.336 224.173,128.336 216.5,127C 240.833,102.667 265.167,78.3333 289.5,54C 292.891,52.2794 296.224,52.6128 299.5,55C 319.833,75.3333 340.167,95.6667 360.5,116C 366.191,119.628 372.191,120.295 378.5,118C 393.333,104.5 407.5,90.3333 421,75.5C 423,71.1667 423,66.8333 421,62.5C 416.667,57.5 412.333,52.5 408,47.5C 406.16,40.346 408.66,35.5126 415.5,33C 437.364,27.4266 459.031,21.5932 480.5,15.5 Z M 179.5,141.5 C 210.652,139.964 240.319,145.797 268.5,159C 266.801,159.958 264.967,160.458 263,160.5C 248.318,157.584 234.485,159.75 221.5,167C 217.509,169.989 214.676,173.822 213,178.5C 212.042,185.528 211.042,192.528 210,199.5C 209.097,200.701 207.931,201.535 206.5,202C 187.344,203.124 178.511,213.291 180,232.5C 184.071,245.299 192.904,251.299 206.5,250.5C 214.728,250.221 222.728,248.721 230.5,246C 242.665,244.161 252.499,247.994 260,257.5C 260.187,264.993 256.353,269.16 248.5,270C 235.796,270.46 223.463,268.46 211.5,264C 196.69,260.266 183.023,262.6 170.5,271C 163.85,277.803 160.016,285.969 159,295.5C 158.333,305.833 158.333,316.167 159,326.5C 159.453,338.872 163.619,349.705 171.5,359C 176.108,362.137 181.108,364.47 186.5,366C 201.799,367.213 217.132,367.88 232.5,368C 239.131,368.964 242.631,372.798 243,379.5C 243.333,392.167 243.667,404.833 244,417.5C 244.191,428.071 247.191,437.738 253,446.5C 262.365,454.312 272.865,456.145 284.5,452C 298.667,444.5 309.5,433.667 317,419.5C 319.333,414.833 321.667,410.167 324,405.5C 326.678,391.102 329.678,376.769 333,362.5C 335.306,357.694 338.806,354.027 343.5,351.5C 350.132,355.6 357.132,358.933 364.5,361.5C 346.07,425.764 305.07,468.264 241.5,489C 212.989,496.934 184.323,497.934 155.5,492C 149.475,480.785 143.308,469.618 137,458.5C 133.667,449.833 133.667,441.167 137,432.5C 139.909,425.676 143.576,419.342 148,413.5C 157.024,396.118 156.357,379.118 146,362.5C 141.307,356.08 135.141,352.08 127.5,350.5C 119.368,352.093 117.368,356.593 121.5,364C 135.869,371.252 141.036,382.752 137,398.5C 131.985,407.865 126.985,417.198 122,426.5C 115.181,448.073 119.015,467.573 133.5,485C 90.5923,470.084 58.0923,442.584 36,402.5C 13.9938,360.025 9.32712,315.692 22,269.5C 36.7163,221.293 66.2163,185.293 110.5,161.5C 111.558,166.103 110.724,170.436 108,174.5C 107.075,178.445 106.575,182.445 106.5,186.5C 108.111,197.891 110.111,209.225 112.5,220.5C 111.131,229.038 106.131,234.204 97.5,236C 88.5,236.333 79.5,236.667 70.5,237C 60.4303,239.575 54.7636,246.075 53.5,256.5C 53.896,260.419 55.0627,264.086 57,267.5C 62.8787,273.043 68.3787,278.877 73.5,285C 73.3552,285.772 73.0219,286.439 72.5,287C 65.8333,290.333 59.1667,293.667 52.5,297C 45.6134,300.887 41.4467,306.721 40,314.5C 39.4936,323.203 38.6603,331.87 37.5,340.5C 36.5992,349.869 40.5992,356.035 49.5,359C 64.4536,360.582 79.4536,360.915 94.5,360C 100.158,358.171 101.992,354.337 100,348.5C 99.5,346.667 98.3333,345.5 96.5,345C 82.135,344.783 67.8017,344.283 53.5,343.5C 54.2513,333.747 55.4179,324.08 57,314.5C 58.1667,313.333 59.3333,312.167 60.5,311C 67.9561,307.519 75.2895,303.852 82.5,300C 89.0847,294.643 91.2514,287.809 89,279.5C 87.503,275.835 85.503,272.502 83,269.5C 78.1994,265.701 73.6994,261.534 69.5,257C 70.1667,255 71.5,253.667 73.5,253C 81.8333,252.667 90.1667,252.333 98.5,252C 116.597,249.073 126.597,238.573 128.5,220.5C 126.82,209.112 124.82,197.779 122.5,186.5C 124.491,178.512 126.491,170.512 128.5,162.5C 128.019,159.917 127.352,157.417 126.5,155C 143.492,147.506 161.158,143.006 179.5,141.5 Z M 287.5,169.5 C 305.505,181.333 321.171,195.833 334.5,213C 309.626,234.945 299.793,262.445 305,295.5C 308.604,313.214 316.771,328.38 329.5,341C 324.326,345.186 320.492,350.353 318,356.5C 314.182,369.256 311.515,382.256 310,395.5C 304.719,409.898 296.552,422.398 285.5,433C 272.932,442.257 264.766,439.423 261,424.5C 259.825,408.862 259.159,393.195 259,377.5C 258.018,364.859 251.518,356.693 239.5,353C 224.206,351.767 208.873,351.101 193.5,351C 183.054,349.322 177.221,343.155 176,332.5C 174.496,320.539 174.162,308.539 175,296.5C 178.33,281.88 187.496,276.046 202.5,279C 210.946,280.528 219.279,282.528 227.5,285C 239.821,287.596 251.821,286.596 263.5,282C 277.83,271.911 280.33,259.411 271,244.5C 261.491,234.581 249.824,229.581 236,229.5C 227.951,229.869 220.118,231.369 212.5,234C 208.5,234.667 204.5,234.667 200.5,234C 194.243,229.74 193.91,224.907 199.5,219.5C 220.776,217.68 230.276,206.013 228,184.5C 231.486,179.503 236.319,176.669 242.5,176C 249.185,175.334 255.851,175.501 262.5,176.5C 271.697,176.788 280.03,174.454 287.5,169.5 Z"/></g>
<g><path style="opacity:0.921" fill="#000000" d="M 385.5,220.5 C 394.892,220.403 398.725,225.07 397,234.5C 405.276,236.803 412.276,241.136 418,247.5C 419.782,254.282 417.282,258.282 410.5,259.5C 405.803,257.637 401.469,255.137 397.5,252C 388.246,248.142 381.579,250.642 377.5,259.5C 378.637,262.47 380.637,264.636 383.5,266C 393.032,269.619 402.365,273.619 411.5,278C 420.333,288.112 421.833,299.278 416,311.5C 410.94,317.529 404.607,321.529 397,323.5C 396.667,326.833 396.333,330.167 396,333.5C 391.828,338.368 387.328,338.702 382.5,334.5C 380.744,330.712 380.078,326.712 380.5,322.5C 372.98,321.153 366.813,317.487 362,311.5C 360.218,304.718 362.718,300.718 369.5,299.5C 374.374,302.197 379.374,304.697 384.5,307C 391.806,308.785 397.972,306.952 403,301.5C 403.929,297.756 403.429,294.256 401.5,291C 393.991,287.608 386.325,284.608 378.5,282C 362.186,273.891 358.019,261.724 366,245.5C 369.821,240.928 374.488,237.595 380,235.5C 379.365,229.447 381.198,224.447 385.5,220.5 Z"/></g>
</svg>
