<?xml version="1.0" encoding="UTF-8"?>
<!DOCTYPE svg PUBLIC "-//W3C//DTD SVG 1.1//EN" "http://www.w3.org/Graphics/SVG/1.1/DTD/svg11.dtd">
<svg xmlns="http://www.w3.org/2000/svg" version="1.1" width="512px" height="512px" style="shape-rendering:geometricPrecision; text-rendering:geometricPrecision; image-rendering:optimizeQuality; fill-rule:evenodd; clip-rule:evenodd" xmlns:xlink="http://www.w3.org/1999/xlink">
<g><path style="opacity:0.877" fill="#000000" d="M 409.5,56.5 C 434.846,55.5095 446.513,67.5095 444.5,92.5C 444.587,95.4126 445.42,98.0793 447,100.5C 447.913,110.185 444.746,118.352 437.5,125C 433.322,127.944 428.655,129.11 423.5,128.5C 422.571,135.067 424.405,140.734 429,145.5C 434.76,158.892 437.094,172.892 436,187.5C 446.527,207.221 456.527,227.221 466,247.5C 469.405,257.589 469.072,267.589 465,277.5C 459.261,282.773 453.595,282.773 448,277.5C 443.421,269.43 441.087,260.764 441,251.5C 437.389,245.556 433.389,239.889 429,234.5C 429.006,239.543 429.672,244.543 431,249.5C 444.257,277.683 457.257,306.017 470,334.5C 473,356.167 476,377.833 479,399.5C 480.944,402.734 483.778,404.9 487.5,406C 491.863,406.894 496.196,407.894 500.5,409C 506.79,412.436 509.123,417.603 507.5,424.5C 510.025,427.42 510.025,430.254 507.5,433C 488.593,433.825 469.76,433.659 451,432.5C 448.797,429.447 449.297,426.947 452.5,425C 451.086,413.151 449.253,401.317 447,389.5C 443.462,376.887 439.129,364.554 434,352.5C 431.888,346.04 431.388,339.54 432.5,333C 429.667,329.5 426.833,326 424,322.5C 420.667,330.5 417.333,338.5 414,346.5C 399.667,362.833 385.333,379.167 371,395.5C 370.333,397.5 370.333,399.5 371,401.5C 373.333,405.167 375.667,408.833 378,412.5C 378.767,416.558 378.6,420.558 377.5,424.5C 379.633,427.128 379.966,429.961 378.5,433C 343.167,433.667 307.833,433.667 272.5,433C 267.901,431.402 265.068,428.235 264,423.5C 263.126,403.049 261.46,382.716 259,362.5C 248,372.833 237,383.167 226,393.5C 222.631,398.028 222.964,402.361 227,406.5C 231.688,411.687 236.188,417.02 240.5,422.5C 245.179,422.993 249.679,423.993 254,425.5C 254.758,427.769 254.591,429.936 253.5,432C 169.833,432.667 86.1667,432.667 2.5,432C 0.946871,429.163 1.2802,426.663 3.5,424.5C 3.96078,417.284 6.12745,410.618 10,404.5C 14.9575,397.874 20.2908,391.54 26,385.5C 31.1765,374.739 32.8431,363.405 31,351.5C 17.0093,333.524 18.5093,317.024 35.5,302C 53.1667,288.333 70.8333,274.667 88.5,261C 96.9997,256.805 106,254.972 115.5,255.5C 122.863,231.319 138.197,224.152 161.5,234C 168.909,239.653 172.409,247.153 172,256.5C 179.388,261.987 182.054,269.321 180,278.5C 178.718,284.113 175.551,288.28 170.5,291C 164.417,293.559 158.084,295.059 151.5,295.5C 152.415,312.207 151.748,328.873 149.5,345.5C 150.926,350.109 153.426,354.109 157,357.5C 169.784,377.585 173.617,399.252 168.5,422.5C 179.485,423.666 190.485,423.832 201.5,423C 196.917,419.088 193.083,414.588 190,409.5C 188,404.5 188,399.5 190,394.5C 199.86,376.634 212.026,360.468 226.5,346C 230.91,342.379 235.41,338.879 240,335.5C 241.18,321.006 240.18,306.673 237,292.5C 234.382,286.266 232.049,279.932 230,273.5C 229.333,268.167 229.333,262.833 230,257.5C 231.567,251.401 232.734,245.234 233.5,239C 229.776,218.603 226.776,198.103 224.5,177.5C 224.135,167.926 227.135,159.592 233.5,152.5C 227.833,143.833 222.167,135.167 216.5,126.5C 209.053,124.31 201.553,122.31 194,120.5C 190.587,106.354 188.587,92.021 188,77.5C 190.284,75.0155 192.784,74.8489 195.5,77C 206,83.5 216.5,90 227,96.5C 227.128,104.526 225.962,112.359 223.5,120C 228.875,128.585 234.375,137.085 240,145.5C 242.816,142.397 244.483,138.73 245,134.5C 244.609,121.782 247.276,109.782 253,98.5C 260.427,89.3577 269.927,86.191 281.5,89C 292.491,92.4595 298.658,99.9595 300,111.5C 306.028,117.614 308.028,124.948 306,133.5C 304.71,137.24 302.543,140.407 299.5,143C 295.185,145.773 290.518,147.773 285.5,149C 284.196,149.804 283.529,150.971 283.5,152.5C 286.495,157.685 289.329,163.018 292,168.5C 294.13,174.019 295.797,179.686 297,185.5C 298.011,197.813 298.844,210.147 299.5,222.5C 310.294,225.302 319.127,230.969 326,239.5C 330.24,250.709 328.074,260.543 319.5,269C 327.079,279.336 333.746,290.169 339.5,301.5C 339.43,302.772 339.097,303.938 338.5,305C 335.653,305.944 333.153,305.444 331,303.5C 320,286.5 309,269.5 298,252.5C 297.092,250.561 295.592,249.561 293.5,249.5C 292.152,254.903 291.485,260.403 291.5,266C 294.189,287.249 295.856,308.582 296.5,330C 294.275,352.469 292.775,374.969 292,397.5C 292.786,400.583 294.619,402.749 297.5,404C 303.756,404.818 309.756,406.485 315.5,409C 320.147,413.102 322.147,418.269 321.5,424.5C 330.839,424.666 340.173,424.5 349.5,424C 344.966,419.801 340.799,415.301 337,410.5C 334.355,405.278 334.022,399.944 336,394.5C 348.434,373.961 362.101,354.294 377,335.5C 385.354,319.401 386.687,302.734 381,285.5C 376.635,283.116 373.968,279.449 373,274.5C 372.667,266.5 372.333,258.5 372,250.5C 366.757,236.105 361.924,221.605 357.5,207C 363.961,181.326 371.128,155.826 379,130.5C 380.925,125.312 384.258,121.312 389,118.5C 389.667,115.167 389.667,111.833 389,108.5C 384.916,97.5916 384.583,86.5916 388,75.5C 391.948,65.3775 399.115,59.0441 409.5,56.5 Z M 411.5,65.5 C 423.774,64.0439 431.941,69.0439 436,80.5C 435.82,86.8236 435.82,93.1569 436,99.5C 439.595,102.277 440.262,105.61 438,109.5C 435.955,112.423 433.788,115.257 431.5,118C 427.33,119.71 423.163,119.543 419,117.5C 417.289,117.439 415.956,118.106 415,119.5C 414.333,126.5 414.333,133.5 415,140.5C 423.128,150.881 427.295,162.714 427.5,176C 425.594,190.864 423.428,205.697 421,220.5C 419.261,234.611 420.927,248.277 426,261.5C 438.82,286.805 450.82,312.472 462,338.5C 464.756,360.219 467.756,381.885 471,403.5C 472.36,406.735 474.527,409.235 477.5,411C 483.853,414.254 490.519,416.587 497.5,418C 500.167,420 500.167,422 497.5,424C 486.167,424.667 474.833,424.667 463.5,424C 462.667,423.167 461.833,422.333 461,421.5C 460.234,409.704 458.567,398.037 456,386.5C 451.613,372.728 446.946,359.061 442,345.5C 441.5,343 441,340.5 440.5,338C 441.426,334.861 441.592,331.694 441,328.5C 428,312.833 415,297.167 402,281.5C 403.491,273.321 403.825,264.988 403,256.5C 398.758,240.365 394.591,224.198 390.5,208C 393.6,197.366 397.1,186.866 401,176.5C 402.025,172.55 400.525,170.217 396.5,169.5C 394.971,169.529 393.804,170.196 393,171.5C 389.047,182.405 385.38,193.405 382,204.5C 381.333,207.167 381.333,209.833 382,212.5C 385.355,225.921 389.022,239.255 393,252.5C 394.414,259.785 394.747,267.118 394,274.5C 389.098,278.986 385.098,278.319 382,272.5C 381.667,264.5 381.333,256.5 381,248.5C 376.439,234.384 371.606,220.384 366.5,206.5C 373.177,182.794 380.01,159.128 387,135.5C 390.696,130.479 394.362,125.479 398,120.5C 398.667,116.167 398.667,111.833 398,107.5C 396.516,101.563 395.349,95.5626 394.5,89.5C 394.828,77.5344 400.494,69.5344 411.5,65.5 Z M 197.5,89.5 C 204.748,93.4103 211.748,97.7436 218.5,102.5C 217.398,107.176 216.231,111.843 215,116.5C 210.608,115.111 206.108,114.111 201.5,113.5C 200.382,105.457 199.048,97.4569 197.5,89.5 Z M 269.5,97.5 C 283.556,96.0551 291.056,102.388 292,116.5C 300.379,123.243 300.546,130.077 292.5,137C 288.608,138.64 284.608,139.973 280.5,141C 274.999,146.169 273.499,152.336 276,159.5C 287.897,177.399 292.231,197.066 289,218.5C 285.93,217.378 283.263,215.712 281,213.5C 277.655,199.119 274.155,184.786 270.5,170.5C 267.959,167.9 265.459,167.9 263,170.5C 262.333,172.833 262.333,175.167 263,177.5C 266.333,191.5 269.667,205.5 273,219.5C 275.371,221.942 278.204,223.776 281.5,225C 292.431,229.134 303.098,233.801 313.5,239C 321.316,245.939 321.482,253.106 314,260.5C 312.5,258.167 311,255.833 309.5,253.5C 314.842,252.325 316.175,249.492 313.5,245C 297.313,240.953 281.313,236.287 265.5,231C 261.214,226.936 258.048,222.103 256,216.5C 252.715,207.025 250.215,197.358 248.5,187.5C 243.579,185.243 240.912,186.743 240.5,192C 241.853,206.591 246.353,220.091 254,232.5C 256.869,235.704 260.035,238.537 263.5,241C 270.39,243.306 277.39,245.139 284.5,246.5C 283.069,253.089 282.069,259.756 281.5,266.5C 284.881,286.525 286.548,306.692 286.5,327C 284.703,351.472 283.536,375.972 283,400.5C 284.306,404.813 286.806,408.313 290.5,411C 296.244,413.515 302.244,415.182 308.5,416C 311.396,417.93 312.396,420.43 311.5,423.5C 299.18,424.666 286.847,424.833 274.5,424C 274,423.5 273.5,423 273,422.5C 271.403,390.065 268.736,357.732 265,325.5C 261.034,308.235 253.367,292.901 242,279.5C 238.805,273.175 237.805,266.509 239,259.5C 240.812,252.772 241.979,245.939 242.5,239C 240.057,221.114 237.223,203.281 234,185.5C 232.603,177.769 233.603,170.436 237,163.5C 242.723,157.712 247.723,151.379 252,144.5C 253.547,132.765 255.547,121.098 258,109.5C 260.045,103.624 263.878,99.6244 269.5,97.5 Z M 432.5,201.5 C 442.357,218.548 451.191,236.215 459,254.5C 459.667,258.5 459.667,262.5 459,266.5C 458.767,268.78 457.934,270.78 456.5,272.5C 452.422,265.762 450.255,258.428 450,250.5C 445.073,239.649 438.406,229.982 430,221.5C 430.498,214.842 431.331,208.175 432.5,201.5 Z M 139.5,238.5 C 155.918,237.086 163.418,244.419 162,260.5C 164.398,263.049 167.065,265.383 170,267.5C 172.561,273.819 171.061,278.986 165.5,283C 159.193,284.747 152.86,286.414 146.5,288C 143.335,290.156 141.668,293.156 141.5,297C 142.979,314.743 142.312,332.41 139.5,350C 142.985,354.823 146.485,359.656 150,364.5C 161.125,382.248 164.125,401.248 159,421.5C 158.5,422 158,422.5 157.5,423C 152.845,423.499 148.179,423.666 143.5,423.5C 143.343,422.127 143.51,420.793 144,419.5C 147.458,417.283 150.458,414.617 153,411.5C 153.658,407.428 153.325,403.428 152,399.5C 148.583,390.25 144.583,381.25 140,372.5C 134.609,365.441 129.609,358.107 125,350.5C 121.565,340.125 119.899,329.459 120,318.5C 118.769,317.892 117.436,317.559 116,317.5C 103.024,322.049 90.3571,327.382 78,333.5C 77.3333,335.5 77.3333,337.5 78,339.5C 87.4136,348.909 96.0802,358.909 104,369.5C 104.158,381.838 104.158,394.171 104,406.5C 106.971,411.421 111.138,415.088 116.5,417.5C 117.767,419.371 117.767,421.204 116.5,423C 108.507,423.5 100.507,423.666 92.5,423.5C 93.412,413.847 93.5787,404.18 93,394.5C 91.6058,386.543 87.7725,380.043 81.5,375C 72.3389,370.254 63.3389,365.254 54.5,360C 43.7596,353.264 35.9263,344.097 31,332.5C 30.0229,327.266 30.6896,322.266 33,317.5C 52.86,300.16 73.36,283.66 94.5,268C 97.6478,266.395 100.981,265.395 104.5,265C 110.167,264.667 115.833,264.333 121.5,264C 123.241,254.85 127.574,247.183 134.5,241C 136.315,240.243 137.981,239.41 139.5,238.5 Z M 391.5,286.5 C 393.39,286.297 394.89,286.963 396,288.5C 402.333,296.167 408.667,303.833 415,311.5C 415.781,312.729 416.281,314.062 416.5,315.5C 413.155,324.699 409.322,333.699 405,342.5C 390.667,358.833 376.333,375.167 362,391.5C 360.787,394.768 360.454,398.101 361,401.5C 363.581,406.997 366.414,412.33 369.5,417.5C 368.941,421.06 366.941,423.393 363.5,424.5C 356.816,418.65 350.65,412.317 345,405.5C 344.333,402.833 344.333,400.167 345,397.5C 358.592,375.98 372.925,354.98 388,334.5C 394.532,318.854 395.699,302.854 391.5,286.5 Z M 249.5,309.5 C 255.837,322.348 258.67,336.014 258,350.5C 243.642,363.859 229.642,377.525 216,391.5C 214,396.5 214,401.5 216,406.5C 219.976,411.977 224.142,417.31 228.5,422.5C 223.869,423.662 219.202,423.828 214.5,423C 208.258,417.429 202.758,411.262 198,404.5C 197.333,402.833 197.333,401.167 198,399.5C 205.885,386.284 214.552,373.618 224,361.5C 231.748,353.748 240.081,346.748 249,340.5C 249.5,330.172 249.666,319.839 249.5,309.5 Z M 110.5,328.5 C 112.164,347.169 119.331,363.503 132,377.5C 136.848,386.879 141.015,396.545 144.5,406.5C 142.313,408.85 139.813,410.85 137,412.5C 134.868,416.208 134.035,420.208 134.5,424.5C 131.833,424.5 129.167,424.5 126.5,424.5C 127.007,419.879 126.174,415.546 124,411.5C 120.333,408.833 116.667,406.167 113,403.5C 113.372,391.512 113.372,379.512 113,367.5C 110.916,363.664 108.583,359.997 106,356.5C 100.82,350.655 95.6536,344.822 90.5,339C 97.0424,335.229 103.709,331.729 110.5,328.5 Z M 40.5,361.5 C 46.5247,365.604 52.6914,369.604 59,373.5C 58.949,380.273 56.1157,385.773 50.5,390C 42.9066,396.382 35.4066,402.882 28,409.5C 27.3333,411.5 27.3333,413.5 28,415.5C 31.9187,417.876 35.752,420.376 39.5,423C 31.1667,423.667 22.8333,423.667 14.5,423C 13.3247,420.162 13.4914,417.329 15,414.5C 20.191,405.637 26.5243,397.637 34,390.5C 38.7807,381.431 40.9474,371.765 40.5,361.5 Z M 68.5,378.5 C 76.0506,381.217 81.0506,386.384 83.5,394C 84.5211,403.81 84.5211,413.644 83.5,423.5C 71.5,423.5 59.5,423.5 47.5,423.5C 47.6621,421.473 47.4955,419.473 47,417.5C 44.9575,415.288 42.7908,413.288 40.5,411.5C 47.4901,404.678 54.6567,398.011 62,391.5C 65.339,387.687 67.5057,383.353 68.5,378.5 Z"/></g>
<g><path style="opacity:0.861" fill="#000000" d="M 400.5,424.5 C 411.172,424.333 421.839,424.5 432.5,425C 435.167,427.667 435.167,430.333 432.5,433C 422.167,433.667 411.833,433.667 401.5,433C 398.001,430.514 397.668,427.681 400.5,424.5 Z"/></g>
<g><path style="opacity:0.886" fill="#000000" d="M 28.5,445.5 C 181.5,445.333 334.5,445.5 487.5,446C 490.167,448.667 490.167,451.333 487.5,454C 334.5,454.667 181.5,454.667 28.5,454C 25.8987,451.17 25.8987,448.337 28.5,445.5 Z"/></g>
</svg>
