<?xml version="1.0" encoding="UTF-8"?>
<svg version="1.1" xmlns="http://www.w3.org/2000/svg" width="512" height="512">
<path d="M0 0 C0.66887116 -0.00265183 1.33774231 -0.00530365 2.02688229 -0.00803584 C4.28420458 -0.01573888 6.54147257 -0.01628839 8.79880714 -0.01688576 C10.42713006 -0.02089969 12.05545198 -0.0253378 13.68377268 -0.03016531 C18.17096251 -0.04214389 22.65814157 -0.04778221 27.14534426 -0.05234647 C31.97979534 -0.05829751 36.81423353 -0.06990841 41.64867592 -0.08063698 C53.32867154 -0.1051695 65.00867143 -0.11978788 76.68868488 -0.13269705 C79.98586154 -0.13640787 83.28303778 -0.14038118 86.58021402 -0.14444971 C107.04284147 -0.16968132 127.50546956 -0.19174051 147.96810913 -0.20417786 C152.7086824 -0.20710768 157.44925565 -0.21006933 162.18982887 -0.21308327 C163.36811365 -0.21382932 164.54639843 -0.21457537 165.76038881 -0.21534403 C184.86221812 -0.22800678 203.96395454 -0.26124204 223.06574039 -0.3028851 C242.66366521 -0.34526074 262.2615424 -0.36886769 281.85951293 -0.37409842 C292.86861126 -0.37751713 303.87756433 -0.38932666 314.88661766 -0.42220116 C324.25914461 -0.45014258 333.63149654 -0.46122696 343.00406192 -0.4500057 C347.78852163 -0.4448042 352.57261446 -0.44780222 357.35702133 -0.47247124 C361.73423774 -0.49485306 366.11082137 -0.49431081 370.48804803 -0.47526737 C372.07418273 -0.47245175 373.66035933 -0.47815196 375.24642627 -0.4930803 C377.39847456 -0.5121024 379.54824669 -0.5004591 381.70024109 -0.48101807 C382.89663251 -0.4823746 384.09302394 -0.48373112 385.32566965 -0.48512876 C389.39363303 0.31824297 390.87215942 1.98865122 393.47596169 5.13701439 C395.05390361 8.29289823 394.61667401 11.67861134 394.61018276 15.14380074 C394.61253499 15.98512094 394.61488722 16.82644114 394.61731073 17.6932559 C394.62402552 20.5432348 394.62354177 23.39316836 394.62313271 26.24315453 C394.62642979 28.29475577 394.63015502 30.34635637 394.63427418 32.39795613 C394.64431998 38.05983848 394.64801511 43.72171023 394.6506635 49.38360023 C394.6545589 55.48053758 394.66413772 61.57746646 394.67287636 67.67439842 C394.69172656 81.71339846 394.70189987 95.75239656 394.71033704 109.7914057 C394.71454118 116.72612087 394.71976348 123.66083516 394.72502157 130.5955496 C394.74291289 154.32496953 394.75790988 178.05438971 394.76534176 201.78381538 C394.76581652 203.2740081 394.76629241 204.76420082 394.76676942 206.25439353 C394.7670058 206.99340918 394.76724217 207.73242483 394.76748571 208.4938349 C394.76868693 212.23817598 394.76990238 215.98251706 394.7711277 219.72685814 C394.77136785 220.46993947 394.771608 221.21302081 394.77185543 221.97861976 C394.77975035 246.07723964 394.80318557 270.17581033 394.83568364 294.27440872 C394.8699645 319.74141173 394.88969127 345.20838595 394.892986 370.67541242 C394.89340355 373.46993781 394.89388312 376.26446319 394.89440918 379.05898857 C394.89453237 379.74709997 394.89465556 380.43521137 394.89478249 381.14417463 C394.89711668 392.22837613 394.91278879 403.3125206 394.93325103 414.39670176 C394.95348489 425.53367947 394.95866389 436.67058957 394.94948039 447.80758855 C394.94492064 453.84371024 394.94691895 459.87964637 394.96624184 465.91574287 C394.98376686 471.43774546 394.98296291 476.95942565 394.96734454 482.48143116 C394.96495219 484.48281466 394.9693755 486.48421988 394.98117319 488.48557004 C394.99618619 491.19973044 394.98669339 493.91273278 394.97094631 496.62686348 C394.98116852 497.40949373 394.99139073 498.19212399 395.0019227 498.99847031 C394.93603046 504.17848914 393.77066355 507.15546178 390.47596169 511.13701439 C388.01580663 512.36709192 386.38950357 512.27371001 383.63750648 512.29091454 C382.61545616 512.299515 381.59340584 512.30811546 380.54038429 512.31697655 C379.41463997 512.3212365 378.28889565 512.32549644 377.12903786 512.32988548 C375.94684166 512.33806297 374.76464546 512.34624046 373.54662514 512.35466576 C369.62074066 512.37955014 365.6948637 512.39619315 361.76893044 512.41045189 C360.41751855 512.41581164 359.06610673 512.42118915 357.71469498 512.42658424 C352.09323456 512.44821268 346.47177702 512.46694942 340.85028553 512.47820663 C332.79361213 512.49444644 324.73742096 512.52762446 316.68092936 512.58460748 C311.01631416 512.62330708 305.35182795 512.64283929 299.68708402 512.6481272 C296.30363154 512.65178074 292.92069341 512.66380059 289.53738403 512.69622993 C285.76156986 512.727732 281.98697936 512.72793994 278.21106911 512.72051048 C277.09139748 512.73691582 275.97172585 512.75332115 274.81812477 512.77022362 C267.22803094 512.70895486 267.22803094 512.70895486 263.30501747 509.72554588 C260.59730452 505.89351391 260.02177975 503.86050656 260.47596169 499.13701439 C263.63385642 493.55806702 263.63385642 493.55806702 266.47596169 492.13701439 C301.78596169 492.13701439 337.09596169 492.13701439 373.47596169 492.13701439 C373.47596169 336.37701439 373.47596169 180.61701439 373.47596169 20.13701439 C275.13596169 20.13701439 176.79596169 20.13701439 75.47596169 20.13701439 C75.47596169 175.89701439 75.47596169 331.65701439 75.47596169 492.13701439 C112.43596169 492.13701439 149.39596169 492.13701439 187.47596169 492.13701439 C192.47596169 496.13701439 192.47596169 496.13701439 193.47596169 498.13701439 C194.05707549 505.22660277 194.05707549 505.22660277 191.60096169 509.07451439 C187.93463946 512.63300361 184.84660615 512.28540116 179.98244667 512.28418541 C179.20037344 512.2878621 178.41830021 512.29153879 177.61252779 512.29532689 C174.97723684 512.30638884 172.34198529 512.31021189 169.70667458 512.31401634 C167.82277233 512.32027936 165.93887133 512.32692601 164.05497169 512.33392906 C158.92435418 512.3513598 153.79374601 512.3618976 148.6631062 512.37013459 C145.45653703 512.37528292 142.24997075 512.38135889 139.04340363 512.38764572 C129.00806353 512.40670806 118.97273081 512.42093404 108.93737608 512.42925769 C97.35960589 512.43901915 85.78202744 512.46530583 74.20432478 512.50575858 C65.2538665 512.53595584 56.30346303 512.5507302 47.3529548 512.5540387 C42.00877506 512.55638608 36.66479991 512.56530523 31.3206749 512.59049988 C26.28669657 512.61384709 21.25305653 512.61798708 16.21903801 512.60773849 C14.37726718 512.60724455 12.53547933 512.61352291 10.69375992 512.62729454 C-4.20566593 512.73241621 -15.1461809 510.86879812 -26.39513206 500.39482689 C-36.31069921 490.11675514 -37.69977664 477.55423042 -37.62169456 463.94951439 C-37.62027962 463.00640404 -37.61886467 462.06329369 -37.61740685 461.09160423 C-37.61185071 458.10670742 -37.59930654 455.12188818 -37.58653831 452.13701439 C-37.58151764 450.10185923 -37.57695573 448.06670288 -37.57286644 446.03154564 C-37.56189568 441.06667242 -37.5446617 436.10185652 -37.52403831 431.13701439 C-38.76395531 431.15514183 -40.0038723 431.17326927 -41.28136253 431.19194603 C-42.92214661 431.20660636 -44.56293467 431.22082463 -46.20372581 431.23467064 C-47.01929955 431.24776268 -47.83487328 431.26085472 -48.67516136 431.27434349 C-58.03647061 431.33359228 -63.91445558 428.42714248 -70.73497581 422.05498314 C-77.04787071 415.287229 -80.05236181 407.57123683 -79.77794456 398.27763939 C-78.53043272 387.76015487 -73.74685797 381.01287126 -66.13341331 373.96904564 C-56.63416426 367.2996627 -49.55067159 369.13701439 -37.52403831 369.13701439 C-37.52403831 342.73701439 -37.52403831 316.33701439 -37.52403831 289.13701439 C-41.15403831 289.13701439 -44.78403831 289.13701439 -48.52403831 289.13701439 C-57.37527361 288.49610097 -65.12333135 285.714121 -71.37560081 279.21123314 C-77.44228946 271.51580295 -80.4535687 263.00036461 -79.52403831 253.13701439 C-77.67872307 243.30054585 -72.780614 235.85310525 -64.52403831 230.13701439 C-55.56515044 224.81058008 -48.6030516 226.13701439 -37.52403831 226.13701439 C-37.52403831 199.73701439 -37.52403831 173.33701439 -37.52403831 146.13701439 C-41.81403831 146.13701439 -46.10403831 146.13701439 -50.52403831 146.13701439 C-59.45691605 144.94596402 -67.28675963 141.43345256 -72.96153831 134.19951439 C-78.43519731 126.09726209 -80.89034182 117.42010678 -79.06310081 107.67998314 C-76.52026546 97.94241952 -71.03439235 91.38043789 -62.52403831 86.13701439 C-56.83403612 83.03337683 -52.07968586 82.98933873 -45.73888206 83.06670189 C-44.55352867 83.07431541 -44.55352867 83.07431541 -43.34422874 83.08208275 C-41.40412372 83.09527576 -39.46406836 83.1154511 -37.52403831 83.13701439 C-37.53974876 81.17864647 -37.53974876 81.17864647 -37.5557766 79.18071556 C-37.5922406 74.29223483 -37.61503406 69.4037659 -37.6339016 64.51518822 C-37.64389941 62.40774571 -37.6575021 60.30031686 -37.67491722 58.19292259 C-37.69944113 55.14690828 -37.7105839 52.10107889 -37.71935081 49.05498314 C-37.72967339 48.12743721 -37.73999596 47.19989128 -37.75063133 46.2442379 C-37.75284742 33.03967645 -35.04568256 20.76615653 -25.89903831 10.76201439 C-18.78427337 4.17019155 -9.64955258 0.01880302 0 0 Z M-9.89903831 25.44951439 C-16.7327974 32.44598202 -16.67237242 40.05357539 -16.62169456 49.25029564 C-16.62027962 50.21984688 -16.61886467 51.18939812 -16.61740685 52.1883297 C-16.61182344 55.27542306 -16.59927396 58.36244306 -16.58653831 61.44951439 C-16.58152117 63.54651855 -16.57695864 65.64352385 -16.57286644 67.74053001 C-16.56185944 72.8727196 -16.54460619 78.00485457 -16.52403831 83.13701439 C-15.29644798 83.18962425 -14.06885765 83.24223412 -12.80406761 83.29643822 C-11.17294676 83.37444579 -9.54184414 83.45283515 -7.91075706 83.53154564 C-6.70075035 83.5818795 -6.70075035 83.5818795 -5.46629906 83.63323021 C3.41126985 84.07789868 11.39185808 86.09136515 17.97986794 92.37920189 C24.21400843 99.70391005 26.85593119 108.04130783 26.41346169 117.57451439 C25.25838451 127.06739 20.7236314 134.09728962 13.47596169 140.13701439 C4.47596169 144.13701439 4.47596169 144.13701439 -16.52403831 146.13701439 C-16.52403831 172.53701439 -16.52403831 198.93701439 -16.52403831 226.13701439 C-10.25403831 226.46701439 -3.98403831 226.79701439 2.47596169 227.13701439 C10.47951189 229.42374302 16.98449836 233.04529704 21.78846169 240.05107689 C26.58279878 248.89944902 27.15283352 257.52003724 25.01502419 267.23076439 C22.78667903 274.52353036 17.27478658 280.93301561 10.60096169 284.57451439 C1.95142769 288.26946095 -7.21168247 288.42067932 -16.52403831 289.13701439 C-16.52403831 315.53701439 -16.52403831 341.93701439 -16.52403831 369.13701439 C-9.92403831 369.46701439 -3.32403831 369.79701439 3.47596169 370.13701439 C12.60952111 374.19637413 19.66285643 377.6439489 23.72986794 387.04326439 C26.86927808 395.85333682 27.36871502 403.93730559 23.85096169 412.76201439 C19.97241979 420.64466248 14.68627718 425.97782777 6.47596169 429.13701439 C3.68569498 430.06710329 1.71066626 430.32400208 -1.19200706 430.45342064 C-2.08468285 430.49531517 -2.97735863 430.5372097 -3.89708519 430.58037376 C-4.82585472 430.61969017 -5.75462425 430.65900658 -6.71153831 430.69951439 C-7.65190941 430.74269798 -8.5922805 430.78588158 -9.56114769 430.83037376 C-11.88196686 430.93640104 -14.20289156 431.03846468 -16.52403831 431.13701439 C-16.59862511 436.9536368 -16.65284592 442.76997602 -16.68883324 448.58696556 C-16.70384787 450.56260088 -16.72426583 452.53820328 -16.75035667 454.51372337 C-16.78706404 457.36610134 -16.80383825 460.21803568 -16.81700706 463.07060814 C-16.83249092 463.9428553 -16.84797478 464.81510246 -16.86392784 465.71378136 C-16.86586356 472.89130874 -15.66761694 479.69324541 -11.21153831 485.51201439 C4.25377247 500.61766678 42.21256541 492.13701439 54.47596169 492.13701439 C54.47596169 336.37701439 54.47596169 180.61701439 54.47596169 20.13701439 C22.64840868 16.67381622 22.64840868 16.67381622 -9.89903831 25.44951439 Z M-57.39903831 109.38701439 C-58.93526051 113.14222421 -58.63353394 115.25377969 -57.52403831 119.13701439 C-54.9474314 122.25606486 -53.36962791 123.85515119 -49.52403831 125.13701439 C-48.00122999 125.23830457 -46.47447421 125.28533331 -44.94835472 125.2981472 C-44.02374443 125.30775475 -43.09913414 125.31736229 -42.14650536 125.32726097 C-40.65115761 125.33363579 -40.65115761 125.33363579 -39.12560081 125.34013939 C-37.58493446 125.3486895 -37.58493446 125.3486895 -36.01314354 125.35741234 C-33.83937675 125.36686072 -31.66559566 125.37339568 -29.49181175 125.37724876 C-26.16896621 125.38695617 -22.84673872 125.41798224 -19.52403831 125.44951439 C-17.41206282 125.45604439 -15.3000829 125.46129487 -13.18810081 125.46513939 C-11.69882576 125.48365959 -11.69882576 125.48365959 -10.17946434 125.50255394 C-5.15464504 125.48635484 -1.57386059 125.47335955 2.47596169 122.13701439 C4.72898985 119.64259035 6.28190321 117.53303771 6.47596169 114.13701439 C5.3448118 110.55503975 4.40600802 107.95233616 1.54822731 105.44707298 C-3.10269501 103.46385229 -7.54994214 103.70907554 -12.55528831 103.73857689 C-13.62396141 103.73570671 -14.69263451 103.73283653 -15.79369164 103.72987938 C-18.04967848 103.72784091 -20.30568309 103.73335553 -22.56163597 103.74590111 C-26.01174563 103.76195718 -29.46068378 103.74604434 -32.91075706 103.72685814 C-35.10477006 103.72884061 -37.29878233 103.73268436 -39.49278831 103.73857689 C-40.5231118 103.7325042 -41.55343529 103.7264315 -42.6149807 103.72017479 C-49.03813053 103.78315079 -53.09255903 104.21923925 -57.39903831 109.38701439 Z M-57.89903831 252.94951439 C-58.87242901 256.35638183 -58.42063933 258.72993054 -57.52403831 262.13701439 C-54.76146737 265.57156205 -52.83165486 267.365337 -48.52403831 268.13701439 C-47.06560225 268.23434992 -45.60357846 268.28486998 -44.14195824 268.2981472 C-43.28394112 268.30775475 -42.425924 268.31736229 -41.54190636 268.32726097 C-40.62206459 268.33151085 -39.70222282 268.33576073 -38.75450706 268.34013939 C-37.80014259 268.34583946 -36.84577812 268.35153954 -35.86249352 268.35741234 C-33.84433153 268.36685008 -31.82615422 268.37339145 -29.80797386 268.37724876 C-26.73323495 268.38694596 -23.65916708 268.41797769 -20.58458519 268.44951439 C-18.62039644 268.45604582 -16.65620292 268.46129574 -14.69200706 268.46513939 C-13.77823799 268.47748619 -12.86446892 268.48983299 -11.92300987 268.50255394 C-5.67285707 268.48093101 -0.28448621 267.89746229 4.35096169 263.26201439 C5.69332123 260.72644636 6.3386564 259.02042542 6.47596169 256.13701439 C4.88123641 251.94036892 3.29971941 249.47279135 -0.52403831 247.13701439 C-2.94480814 246.68028136 -2.94480814 246.68028136 -5.5804348 246.73296165 C-6.58505257 246.72027748 -7.58967033 246.70759331 -8.62473106 246.69452477 C-9.70396339 246.6974604 -10.78319572 246.70039604 -11.89513206 246.70342064 C-13.0096122 246.69817879 -14.12409233 246.69293694 -15.27234459 246.68753624 C-17.62845082 246.68111493 -19.98458911 246.68245441 -22.34068871 246.69096947 C-25.94470425 246.69947466 -29.54713268 246.670725 -33.15099144 246.63896751 C-35.44070451 246.6373553 -37.73042038 246.63793342 -40.02013206 246.64092064 C-41.09734016 246.62968666 -42.17454826 246.61845268 -43.28439903 246.60687828 C-50.02390324 246.66961379 -53.65222104 247.35143708 -57.89903831 252.94951439 Z M-57.89903831 395.94951439 C-58.88530648 399.40145298 -58.4907682 401.69303917 -57.52403831 405.13701439 C-54.82949293 408.22746083 -53.10775431 409.8426948 -49.04622459 410.59749413 C-46.00546789 410.78241685 -43.00381575 410.80370394 -39.95763206 410.76592064 C-38.29015671 410.76953857 -38.29015671 410.76953857 -36.58899498 410.7732296 C-34.24479661 410.77225231 -31.90057483 410.75888707 -29.55650902 410.73393822 C-25.97001839 410.69959559 -22.38598773 410.71329616 -18.79942894 410.73271751 C-16.5188195 410.72581983 -14.23821642 410.71614816 -11.95763206 410.70342064 C-10.88669807 410.70838051 -9.81576408 410.71334038 -8.71237755 410.71845055 C-2.7764945 410.6302414 -2.7764945 410.6302414 2.59681129 408.3125515 C5.17890253 405.32320305 5.93716445 403.04329431 6.47596169 399.13701439 C4.99770816 394.86650421 3.2992792 392.4902558 -0.52403831 390.13701439 C-2.94480814 389.68028136 -2.94480814 389.68028136 -5.5804348 389.73296165 C-6.58505257 389.72027748 -7.58967033 389.70759331 -8.62473106 389.69452477 C-9.70396339 389.6974604 -10.78319572 389.70039604 -11.89513206 389.70342064 C-13.0096122 389.69817879 -14.12409233 389.69293694 -15.27234459 389.68753624 C-17.62845082 389.68111493 -19.98458911 389.68245441 -22.34068871 389.69096947 C-25.94470425 389.69947466 -29.54713268 389.670725 -33.15099144 389.63896751 C-35.44070451 389.6373553 -37.73042038 389.63793342 -40.02013206 389.64092064 C-41.09734016 389.62968666 -42.17454826 389.61845268 -43.28439903 389.60687828 C-50.02390324 389.66961379 -53.65222104 390.35143708 -57.89903831 395.94951439 Z " fill="#000000" transform="translate(98.52403831481934,-0.13701438903808594)"/>
<path d="M0 0 C4.04472002 3.83460469 5.950542 8.87584893 8.109375 13.921875 C8.48104797 14.781297 8.85272095 15.64071899 9.23565674 16.52618408 C10.01626764 18.3398803 10.79261469 20.15541692 11.56494141 21.97265625 C12.74335796 24.7344335 13.94706556 27.48423432 15.15234375 30.234375 C15.91043336 32.00453286 16.66699437 33.7753463 17.421875 35.546875 C17.78118103 36.35968933 18.14048706 37.17250366 18.51068115 38.00994873 C20.73662823 43.33965224 22.05437367 48.21564616 21 54 C18.40145821 58.80082138 14.55747577 60.47937306 9.66796875 62.42578125 C8.93694946 62.73005035 8.20593018 63.03431946 7.45275879 63.34780884 C5.03636929 64.34963924 2.61220752 65.33099267 0.1875 66.3125 C-1.52615203 67.01835815 -3.23927831 67.72549389 -4.9519043 68.43383789 C-9.41724654 70.27678481 -13.88928363 72.10286592 -18.36328125 73.92468262 C-21.59850078 75.24408303 -24.8302787 76.57173571 -28.0612793 77.90142822 C-34.3875083 80.5046143 -40.71547978 83.10341436 -47.04784679 85.69163609 C-58.62433989 90.424854 -70.17944048 95.20894354 -81.73046875 100.00390625 C-83.61599045 100.78621456 -85.50152912 101.56848197 -87.38708496 102.35070801 C-91.92491782 104.23333692 -96.46252497 106.11650882 -101 108 C-99.98012654 108.00081715 -99.98012654 108.00081715 -98.93964958 108.00165081 C-82.3888507 108.01662402 -65.83837335 108.05909241 -49.28773308 108.13209057 C-41.28391351 108.16673047 -33.28026598 108.19209476 -25.27636719 108.19555664 C-18.29940784 108.19859795 -11.32275498 108.21911051 -4.34591401 108.26052457 C-0.65229752 108.28184157 3.0408834 108.29446215 6.73456192 108.28615379 C10.86009124 108.27720164 14.98445873 108.30725864 19.10986328 108.34057617 C20.94297813 108.32763771 20.94297813 108.32763771 22.81312561 108.31443787 C32.04667645 108.43965198 32.04667645 108.43965198 35.74313354 111.35371399 C39.14891351 115.34715714 39.12742019 118.27010656 39.14044189 123.35664368 C39.14341302 124.00425838 39.14638414 124.65187309 39.1494453 125.31911248 C39.15812945 127.49310951 39.1596403 129.66705145 39.16113281 131.84106445 C39.16576119 133.39825559 39.17078588 134.9554456 39.17617798 136.51263428 C39.18930216 140.74619512 39.19574698 144.9797401 39.20018864 149.21331811 C39.20311936 151.85819414 39.20722417 154.50306583 39.21169281 157.14793968 C39.22536786 165.42288134 39.23503445 173.69781309 39.2388947 181.97276527 C39.24337547 191.52545312 39.26092418 201.07799789 39.2898953 210.63064224 C39.31151078 218.01417786 39.32159891 225.39767323 39.32293582 232.78124017 C39.32398395 237.19127062 39.32989352 241.60116657 39.34775543 246.01116371 C39.3642338 250.16031552 39.36639281 254.30923168 39.35761642 258.45840454 C39.35684592 259.97975991 39.36119059 261.50112794 39.37107468 263.0224514 C39.38379566 265.10271599 39.37791747 267.18214617 39.36749268 269.2624054 C39.36895924 270.42549886 39.3704258 271.58859232 39.3719368 272.78693104 C38.82147109 277.54226657 37.49575887 280.74072341 33.80117035 283.85119057 C30.22217085 285.31900147 26.98634289 285.41606438 23.18127441 285.38095093 C22.40057162 285.3856309 21.61986882 285.39031087 20.81550837 285.39513266 C18.20300396 285.40708591 15.5910238 285.39762426 12.97851562 285.38818359 C11.10413812 285.39224915 9.22976302 285.39759094 7.35539246 285.40411377 C2.26661241 285.41779504 -2.82198526 285.41248534 -7.91076851 285.40297651 C-13.23491026 285.39538415 -18.55903635 285.40242435 -23.88317871 285.40713501 C-32.82432867 285.41259379 -41.7654043 285.40539772 -50.70654297 285.39111328 C-61.04545406 285.37478656 -71.38418767 285.38007498 -81.72309446 285.3965925 C-90.59795002 285.41020386 -99.47275214 285.41212873 -108.34761477 285.40427649 C-113.64902436 285.39959806 -118.95035052 285.39897983 -124.25175476 285.40888596 C-129.235672 285.41754821 -134.2193603 285.41154718 -139.20325279 285.39420319 C-141.03301806 285.39023439 -142.86280257 285.39137909 -144.6925602 285.39799118 C-147.18905892 285.40618128 -149.68482261 285.39591606 -152.18127441 285.38095093 C-152.90647073 285.38764309 -153.63166705 285.39433526 -154.37883902 285.40123022 C-159.86193239 285.33741655 -162.95196597 284.05363846 -166.79304695 280.20204639 C-168.4088642 277.25404062 -168.34823747 275.12339015 -168.31124878 271.76725769 C-168.30187538 269.84467636 -168.30187538 269.84467636 -168.29231262 267.883255 C-168.27040329 266.46407817 -168.24831786 265.04490405 -168.22607422 263.62573242 C-168.21380394 262.12867345 -168.20304396 260.63160145 -168.19367981 259.13452148 C-168.17150102 255.90584776 -168.14106706 252.67739116 -168.10503769 249.448843 C-168.05027098 244.31107038 -168.02929098 239.17350348 -168.01565552 234.03547668 C-168.01058636 232.26994222 -168.00549546 230.50440782 -168.00038338 228.73887348 C-167.9978475 227.8542089 -167.99531163 226.96954433 -167.99269891 226.05807173 C-167.9559066 214.1037258 -167.89302455 202.15018301 -167.75683594 190.1965332 C-167.66518213 182.1282174 -167.62187099 174.06108455 -167.62982762 165.99223596 C-167.63210919 161.73726438 -167.61207652 157.48541429 -167.53200912 153.2311306 C-167.09619196 129.12033905 -171.16800395 111.5861969 -182 90 C-185.42986108 82.57640715 -185.42986108 82.57640715 -185.4375 78.375 C-185.45683594 77.66085938 -185.47617188 76.94671875 -185.49609375 76.2109375 C-184.76358637 72.94637703 -183.31130097 71.42492279 -181 69 C-178.44824711 67.4982406 -175.76406839 66.43557185 -173.01171875 65.35546875 C-172.21397537 65.02895828 -171.41623199 64.70244781 -170.59431458 64.36604309 C-167.96395521 63.2930666 -165.32592938 62.24045769 -162.6875 61.1875 C-160.8314578 60.43435436 -158.97599694 59.67977465 -157.12109375 58.92382812 C-153.2924143 57.36569778 -149.4607854 55.81519138 -145.62646484 54.27099609 C-138.03011595 51.20950959 -130.45628854 48.09360579 -122.88174438 44.97866821 C-120.47937548 43.9915253 -118.07613891 43.00652536 -115.67260742 42.0222168 C-104.79487461 37.56686058 -93.93159285 33.07748988 -83.07559204 28.56945801 C-69.17111629 22.79592994 -55.26505764 17.0260556 -41.34375 11.29321289 C-39.68750817 10.61062017 -38.03172711 9.92690807 -36.37646484 9.24194336 C-31.94096213 7.40702085 -27.49842982 5.59252013 -23.03912354 3.81616211 C-21.68620062 3.27465278 -20.33584256 2.72668816 -18.98822021 2.17211914 C-17.10840295 1.40175886 -15.21648689 0.66112408 -13.32421875 -0.078125 C-12.26678467 -0.4999707 -11.20935059 -0.92181641 -10.11987305 -1.35644531 C-6.06305969 -2.19326823 -3.79403397 -1.62021624 0 0 Z M-22.16796875 26.18359375 C-22.96278152 26.51794937 -23.7575943 26.85230499 -24.57649231 27.1967926 C-27.11737813 28.2681023 -29.65239087 29.3526009 -32.1875 30.4375 C-33.90783315 31.16558834 -35.62853213 31.89281295 -37.34960938 32.61914062 C-41.57071853 34.40276089 -45.78660758 36.19823074 -50 38 C-35.574062 47.98971665 -35.574062 47.98971665 -19.07861328 51.90478516 C-13.48301634 50.65288546 -8.71744362 48.21113118 -4 45 C-2.74327956 43.05387567 -2.74327956 43.05387567 -3.57324219 41.04467773 C-4.62097995 38.50388739 -5.67426122 35.96659134 -6.75 33.4375 C-7.29140625 32.10428711 -7.29140625 32.10428711 -7.84375 30.74414062 C-8.19953125 29.89916016 -8.5553125 29.05417969 -8.921875 28.18359375 C-9.24768555 27.40556396 -9.57349609 26.62753418 -9.90917969 25.82592773 C-12.93421465 20.76231169 -18.01691103 24.39154139 -22.16796875 26.18359375 Z M-83.87890625 51.84375 C-84.5655687 52.13229858 -85.25223114 52.42084717 -85.95970154 52.71813965 C-88.16133894 53.6437618 -90.36192572 54.57185359 -92.5625 55.5 C-94.05136395 56.12646453 -95.54029537 56.75276875 -97.02929688 57.37890625 C-100.68698453 58.91740892 -104.34373153 60.45812783 -108 62 C-99.45957357 68.56852243 -87.74430906 76.95191832 -76.54003906 75.57470703 C-69.81831824 73.66471507 -63.66234848 70.68663339 -57.53466797 67.36230469 C-54.42607406 65.69153277 -51.26667344 64.328661 -48 63 C-50.85163622 61.09890919 -53.64058671 59.66132447 -56.7265625 58.1796875 C-57.8403125 57.64472656 -58.9540625 57.10976562 -60.1015625 56.55859375 C-61.26429688 56.00300781 -62.42703125 55.44742188 -63.625 54.875 C-64.79546875 54.31167969 -65.9659375 53.74835938 -67.171875 53.16796875 C-75.4949191 49.07807996 -75.4949191 49.07807996 -83.87890625 51.84375 Z M-143.51953125 76.1875 C-144.54111328 76.63867188 -145.56269531 77.08984375 -146.61523438 77.5546875 C-148.19788086 78.27011719 -148.19788086 78.27011719 -149.8125 79 C-150.88693359 79.47695312 -151.96136719 79.95390625 -153.06835938 80.4453125 C-155.71601249 81.62204722 -158.35957313 82.80716027 -161 84 C-159.74738312 87.31967964 -158.46992985 90.62923525 -157.1875 93.9375 C-156.83107422 94.88302734 -156.47464844 95.82855469 -156.10742188 96.80273438 C-155.58051758 98.15141602 -155.58051758 98.15141602 -155.04296875 99.52734375 C-154.72352295 100.35999756 -154.40407715 101.19265137 -154.07495117 102.05053711 C-153.09749911 104.34420093 -153.09749911 104.34420093 -150 105 C-147.2008918 104.06552532 -144.54104931 103.05714885 -141.82421875 101.921875 C-141.02143997 101.5946344 -140.21866119 101.2673938 -139.39155579 100.93023682 C-136.8198154 99.87898758 -134.25382299 98.81439574 -131.6875 97.75 C-129.96973543 97.04735904 -128.25163997 96.34552644 -126.53320312 95.64453125 C-124.87990728 94.96687986 -123.22690286 94.28851695 -121.57421875 93.609375 C-120.80526779 93.29361511 -120.03631683 92.97785522 -119.24406433 92.65252686 C-115.07415206 90.92144094 -111.01396521 89.07598319 -107 87 C-111.55896426 83.36273221 -116.65735661 81.21443414 -121.9375 78.8125 C-123.4215332 78.11737305 -123.4215332 78.11737305 -124.93554688 77.40820312 C-126.37317383 76.75174805 -126.37317383 76.75174805 -127.83984375 76.08203125 C-128.70988037 75.68218018 -129.57991699 75.2823291 -130.47631836 74.87036133 C-135.47835481 73.14527088 -138.78590092 74.07191102 -143.51953125 76.1875 Z M-147 130 C-147 137.26 -147 144.52 -147 152 C-128.64428431 154.80002837 -128.64428431 154.80002837 -111.89195251 148.70576477 C-105.9058987 143.53911835 -100.57608375 137.43468488 -96 131 C-96 130.67 -96 130.34 -96 130 C-112.83 130 -129.66 130 -147 130 Z M-87 151 C-87 151.33 -87 151.66 -87 152 C-66.47791644 155.03505316 -66.47791644 155.03505316 -47.65354919 148.70576477 C-41.64754212 143.61080687 -36.42228529 137.50276597 -32 131 C-32 130.67 -32 130.34 -32 130 C-57.33942403 126.97098574 -71.95556689 128.87785698 -87 151 Z M-23 151 C-23 151.33 -23 151.66 -23 152 C-9.47 152 4.06 152 18 152 C18 144.74 18 137.48 18 130 C-2.23695533 126.94261826 -11.03560042 135.83408961 -23 151 Z M-147 173 C-147 203.03 -147 233.06 -147 264 C-92.55 264 -38.1 264 18 264 C18 233.97 18 203.94 18 173 C-36.45 173 -90.9 173 -147 173 Z " fill="#000000" transform="translate(390,60)"/>
<path d="M0 0 C1.20005173 -0.00571014 2.40010345 -0.01142029 3.63652039 -0.01730347 C4.94986862 -0.01842133 6.26321686 -0.01953918 7.61636353 -0.02069092 C9.01606883 -0.02532118 10.41577288 -0.03034612 11.81547546 -0.03573608 C15.61510659 -0.0488406 19.41472006 -0.05530104 23.21437025 -0.05974674 C25.58905874 -0.06268014 27.96374243 -0.06678541 30.3384285 -0.07125092 C37.77081574 -0.08491966 45.20319197 -0.09458981 52.63559091 -0.09845281 C61.21081701 -0.10293455 69.7858838 -0.12049036 78.36106145 -0.1494534 C84.99303144 -0.17107471 91.62495661 -0.1811573 98.25696146 -0.18249393 C102.21649913 -0.18354148 106.17588691 -0.1894388 110.13538742 -0.20731354 C113.86021949 -0.22380245 117.58478911 -0.22594588 121.3096447 -0.21717453 C123.3242725 -0.21603818 125.33889162 -0.22974851 127.35346985 -0.243927 C128.55916122 -0.23835785 129.7648526 -0.2327887 131.00708008 -0.22705078 C132.05088522 -0.22851734 133.09469036 -0.2299839 134.17012596 -0.2314949 C138.73718662 0.34229892 142.09588573 1.86438842 145.00552368 5.45294189 C146.36885879 8.70979798 146.63099487 10.63714358 146.13052368 14.14044189 C142.97262894 19.71938926 142.97262894 19.71938926 140.13052368 21.14044189 C138.17809845 21.24284307 136.22213782 21.27995082 134.26704407 21.28761292 C133.01781158 21.29476822 131.7685791 21.30192352 130.48149109 21.30929565 C129.08935572 21.31213604 127.69722008 21.31484776 126.30508423 21.31744385 C124.84493853 21.3237075 123.38479444 21.33035421 121.9246521 21.33735657 C117.95142659 21.35477497 113.97821311 21.36532054 110.00495887 21.3735621 C107.52341804 21.37871033 105.04188097 21.38478613 102.56034279 21.39107323 C94.79851516 21.4101274 87.03669707 21.42435822 79.27485055 21.4326852 C70.3107189 21.44246038 61.346834 21.46878613 52.38278931 21.50918609 C45.45703599 21.53933016 38.53135347 21.55415242 31.60553581 21.55746621 C27.46765791 21.5598186 23.33004356 21.56880331 19.19223595 21.59392738 C15.2991254 21.61718355 11.40645237 21.62145149 7.51329041 21.611166 C6.08503579 21.61066993 4.65675983 21.61701149 3.22857094 21.63072205 C1.2774453 21.64840355 -0.67386976 21.63896168 -2.62504578 21.62818909 C-4.26240173 21.63177162 -4.26240173 21.63177162 -5.93283558 21.63542652 C-9.57244921 21.0219525 -11.23880409 19.67700666 -13.86947632 17.14044189 C-15.48599871 13.9073971 -15.45301394 10.63518389 -14.86947632 7.14044189 C-13.28098842 4.17314651 -11.33129069 1.66796399 -8.06444359 0.48906326 C-5.34985409 0.05791155 -2.7498549 0.00784227 0 0 Z " fill="#000000" transform="translate(259.8694763183594,374.85955810546875)"/>
<path d="M0 0 C1.3496711 -0.00788544 1.3496711 -0.00788544 2.72660828 -0.01593018 C5.69486961 -0.02911212 8.66259277 -0.0203984 11.63085938 -0.01025391 C13.69681908 -0.01227516 15.76277809 -0.01518702 17.82873535 -0.01895142 C22.1562378 -0.02337233 26.48355434 -0.01695111 30.81103516 -0.00292969 C36.3561508 0.01416194 41.90083082 0.00431953 47.44593048 -0.01364708 C51.71131671 -0.02449113 55.97659978 -0.02103569 60.24198914 -0.0132637 C62.28651481 -0.01126342 64.33104987 -0.01371493 66.37556458 -0.02070236 C69.23370145 -0.02832694 72.09113427 -0.01669832 74.94921875 0 C76.21489937 -0.00910904 76.21489937 -0.00910904 77.50614929 -0.0184021 C82.13601994 0.03167215 85.24357501 0.34303207 88.97460938 3.38818359 C91.33841491 7.35327676 92.09853679 9.47421888 91.47460938 14.07568359 C89.72434547 17.94084972 88.58030163 19.17902316 84.97460938 21.38818359 C81.90824131 21.96871686 78.89528631 21.94523385 75.78149414 21.92163086 C74.86381256 21.93024643 73.94613098 21.938862 73.00064087 21.94773865 C69.97214417 21.97041052 66.94457194 21.96365718 63.91601562 21.95458984 C61.8076093 21.95982507 59.69920533 21.96610117 57.59080505 21.97337341 C53.1732989 21.98378004 48.75611481 21.97921251 44.33862305 21.96459961 C38.68127973 21.94741609 33.02495244 21.97090089 27.36772251 22.00608921 C23.01390367 22.02806439 18.66032785 22.02662131 14.30647087 22.0183239 C12.22089461 22.01750436 10.13530051 22.02436816 8.04977608 22.03909492 C5.13159123 22.05654163 2.21523103 22.04199671 -0.70288086 22.01928711 C-1.56177414 22.03097931 -2.42066742 22.04267151 -3.30558777 22.05471802 C-7.51628116 21.9881461 -10.21144335 21.6667377 -13.55116272 18.97764587 C-16.53104571 15.8589782 -16.9834926 14.44134475 -17.19335938 10.31396484 C-16.93080782 7.3037807 -15.97777847 5.66596941 -14.02539062 3.38818359 C-9.50189834 -0.16446165 -5.50356094 -0.03960885 0 0 Z " fill="#000000" transform="translate(288.025390625,426.61181640625)"/>
<path d="M0 0 C2.75569447 2.18159145 4.43588747 3.87177494 6 7 C6.59873168 12.26883876 5.25400021 14.8846468 2 19 C-1.45739557 20.72869779 -5.21975568 20.48966895 -9 20 C-11.87029869 18.20606332 -13.49131638 17.01736724 -15 14 C-15.5811138 6.91041162 -15.5811138 6.91041162 -13.125 3.0625 C-9.24699241 -0.70144855 -5.21240222 -0.82822281 0 0 Z " fill="#000000" transform="translate(331,492)"/>
</svg>
