<?xml version="1.0" encoding="UTF-8"?>
<!DOCTYPE svg PUBLIC "-//W3C//DTD SVG 1.1//EN" "http://www.w3.org/Graphics/SVG/1.1/DTD/svg11.dtd">
<svg xmlns="http://www.w3.org/2000/svg" version="1.1" width="512px" height="512px" style="shape-rendering:geometricPrecision; text-rendering:geometricPrecision; image-rendering:optimizeQuality; fill-rule:evenodd; clip-rule:evenodd" xmlns:xlink="http://www.w3.org/1999/xlink">
<g><path style="opacity:0.946" fill="#000000" d="M 25.5,-0.5 C 30.8333,-0.5 36.1667,-0.5 41.5,-0.5C 64.8258,8.15663 72.6592,24.49 65,48.5C 59.5404,55.6293 58.0404,63.6293 60.5,72.5C 90.9939,51.9431 124.661,39.7764 161.5,36C 198.79,31.4155 235.79,33.0822 272.5,41C 296.089,47.5296 319.422,54.8629 342.5,63C 379.033,73.2582 416.033,75.2582 453.5,69C 467.193,66.5612 480.859,64.0612 494.5,61.5C 502.543,61.5504 508.21,65.2171 511.5,72.5C 511.5,173.167 511.5,273.833 511.5,374.5C 506.418,383.053 498.751,387.553 488.5,388C 445.466,398.95 402.133,400.617 358.5,393C 332.126,386.209 306.126,378.209 280.5,369C 221.38,353.04 163.047,355.373 105.5,376C 88.4905,382.7 73.3238,392.2 60,404.5C 59.6667,438.5 59.3333,472.5 59,506.5C 58.0027,508.323 56.8361,509.99 55.5,511.5C 41.1667,511.5 26.8333,511.5 12.5,511.5C 10.525,510.354 9.02496,508.687 8,506.5C 7.66667,356.167 7.33333,205.833 7,55.5C 3.67329,51.1745 1.17329,46.5078 -0.5,41.5C -0.5,35.8333 -0.5,30.1667 -0.5,24.5C 4.26639,12.0662 12.9331,3.73284 25.5,-0.5 Z M 28.5,17.5 C 40.8819,16.0149 48.2153,21.3483 50.5,33.5C 49.1667,43.5 43.5,49.1667 33.5,50.5C 18.729,47.2176 14.229,38.551 20,24.5C 22.4412,21.5464 25.2745,19.2131 28.5,17.5 Z M 181.5,51.5 C 183.167,51.5 184.833,51.5 186.5,51.5C 186.833,147.836 186.5,244.169 185.5,340.5C 146.638,342.215 109.971,352.049 75.5,370C 70.0739,373.129 64.9072,376.629 60,380.5C 59.1667,285.832 59.3333,191.165 60.5,96.5C 84.9513,76.1112 112.951,62.9446 144.5,57C 156.918,54.7428 169.252,52.9095 181.5,51.5 Z M 204.5,51.5 C 226.444,51.5494 248.111,54.0494 269.5,59C 295.744,66.9705 321.911,75.1372 348,83.5C 348.5,179.499 348.667,275.499 348.5,371.5C 323.027,363.1 297.36,355.267 271.5,348C 249.43,343.116 227.096,340.616 204.5,340.5C 204.5,244.167 204.5,147.833 204.5,51.5 Z M 25.5,67.5 C 30.8408,68.7402 36.1741,68.7402 41.5,67.5C 41.5,209.5 41.5,351.5 41.5,493.5C 36.1667,493.5 30.8333,493.5 25.5,493.5C 25.5,351.5 25.5,209.5 25.5,67.5 Z M 491.5,79.5 C 493.498,175.494 494.164,271.828 493.5,368.5C 472.403,373.352 451.069,376.852 429.5,379C 415.833,379.667 402.167,379.667 388.5,379C 381.186,378.48 374.019,377.313 367,375.5C 366.5,279.501 366.333,183.501 366.5,87.5C 408.842,93.5355 450.509,90.8689 491.5,79.5 Z"/></g>
</svg>
