<?xml version="1.0" encoding="UTF-8"?>
<!DOCTYPE svg PUBLIC "-//W3C//DTD SVG 1.1//EN" "http://www.w3.org/Graphics/SVG/1.1/DTD/svg11.dtd">
<svg xmlns="http://www.w3.org/2000/svg" version="1.1" width="512px" height="512px" style="shape-rendering:geometricPrecision; text-rendering:geometricPrecision; image-rendering:optimizeQuality; fill-rule:evenodd; clip-rule:evenodd" xmlns:xlink="http://www.w3.org/1999/xlink">
<g><path style="opacity:0.985" fill="#000000" d="M 223.5,-0.5 C 224.833,-0.5 226.167,-0.5 227.5,-0.5C 299.296,32.8121 346.796,87.4787 370,163.5C 378.395,194.264 383.062,225.598 384,257.5C 391.538,265.918 400.038,266.751 409.5,260C 415.258,256.246 420.425,251.746 425,246.5C 430,240.167 435,233.833 440,227.5C 451.881,275.509 453.548,323.842 445,372.5C 430.722,436.104 393.056,479.104 332,501.5C 319.481,505.297 306.814,508.297 294,510.5C 293.409,509.517 293.743,508.85 295,508.5C 327.473,500.013 350.806,480.68 365,450.5C 373.159,425.69 371.825,401.357 361,377.5C 354.926,364.341 347.592,352.007 339,340.5C 331.798,349.533 322.965,356.533 312.5,361.5C 310.589,349.19 307.422,337.19 303,325.5C 297.503,315.169 291.503,305.169 285,295.5C 274.665,278.643 273.832,261.31 282.5,243.5C 282.167,243.167 281.833,242.833 281.5,242.5C 240.679,262.515 215.179,294.848 205,339.5C 202.633,352.44 200.966,365.44 200,378.5C 194.506,382.491 189.006,382.324 183.5,378C 178.585,373.756 174.419,368.923 171,363.5C 165.907,383.512 164.24,403.845 166,424.5C 172.342,472.669 199.176,501.669 246.5,511.5C 242.833,511.5 239.167,511.5 235.5,511.5C 188.999,505.616 147.999,487.449 112.5,457C 69.6313,415.725 53.1313,365.558 63,306.5C 68.6509,278.215 78.6509,251.549 93,226.5C 101.169,212.826 109.835,199.492 119,186.5C 119.718,185.549 120.551,185.383 121.5,186C 135.1,203.105 151.766,216.272 171.5,225.5C 173.814,192.392 183.647,161.725 201,133.5C 212.274,117.29 222.274,100.29 231,82.5C 237.994,62.3025 238.327,41.9691 232,21.5C 229.845,13.8631 227.012,6.52978 223.5,-0.5 Z"/></g>
</svg>
