<?xml version="1.0" encoding="UTF-8"?>
<!DOCTYPE svg PUBLIC "-//W3C//DTD SVG 1.1//EN" "http://www.w3.org/Graphics/SVG/1.1/DTD/svg11.dtd">
<svg xmlns="http://www.w3.org/2000/svg" version="1.1" width="512px" height="512px" style="shape-rendering:geometricPrecision; text-rendering:geometricPrecision; image-rendering:optimizeQuality; fill-rule:evenodd; clip-rule:evenodd" xmlns:xlink="http://www.w3.org/1999/xlink">
<g><path style="opacity:0.948" fill="#000000" d="M 63.5,-0.5 C 191.5,-0.5 319.5,-0.5 447.5,-0.5C 462.162,6.98365 465.995,18.317 459,33.5C 455.077,38.7095 449.91,41.7095 443.5,42.5C 443.667,167.167 443.5,291.834 443,416.5C 437.63,423.418 432.63,423.084 428,415.5C 427.5,291.167 427.333,166.834 427.5,42.5C 423.5,42.5 419.5,42.5 415.5,42.5C 415.5,193.833 415.5,345.167 415.5,496.5C 419.5,496.5 423.5,496.5 427.5,496.5C 427.333,479.83 427.5,463.163 428,446.5C 429.98,441.094 433.814,439.261 439.5,441C 440.416,441.374 441.25,441.874 442,442.5C 443.644,464.078 443.977,485.745 443,507.5C 442.31,509.35 441.144,510.684 439.5,511.5C 427.5,511.5 415.5,511.5 403.5,511.5C 401.73,509.887 400.564,507.887 400,505.5C 399.5,498.842 399.334,492.175 399.5,485.5C 303.5,485.5 207.5,485.5 111.5,485.5C 111.666,492.175 111.5,498.842 111,505.5C 110.436,507.887 109.27,509.887 107.5,511.5C 95.5,511.5 83.5,511.5 71.5,511.5C 69.8564,510.684 68.6897,509.35 68,507.5C 67.5,352.5 67.3333,197.5 67.5,42.5C 52.9254,39.37 46.7587,30.37 49,15.5C 51.3397,7.76272 56.173,2.42938 63.5,-0.5 Z M 70.5,14.5 C 193.834,14.3333 317.167,14.5 440.5,15C 447.077,17.2297 448.077,20.8963 443.5,26C 408.453,26.0265 373.453,26.6932 338.5,28C 333.167,32.6667 333.167,37.3333 338.5,42C 358.831,42.5 379.164,42.6666 399.5,42.5C 399.5,48.1667 399.5,53.8333 399.5,59.5C 392.825,59.3337 386.158,59.5004 379.5,60C 374.288,61.0174 370.455,63.8508 368,68.5C 366.527,94.4355 366.027,120.436 366.5,146.5C 347.83,146.667 329.164,146.5 310.5,146C 312.667,144.5 314.833,143 317,141.5C 318.483,138.298 318.817,134.964 318,131.5C 304,110.167 290,88.8333 276,67.5C 265.638,56.0526 254.805,55.7193 243.5,66.5C 240.82,63.3184 237.487,61.1517 233.5,60C 225.833,59.3333 218.167,59.3333 210.5,60C 208.481,60.4497 206.648,61.283 205,62.5C 203.352,61.283 201.519,60.4497 199.5,60C 191.833,59.3333 184.167,59.3333 176.5,60C 174.481,60.4497 172.648,61.283 171,62.5C 169.352,61.283 167.519,60.4497 165.5,60C 157.833,59.3333 150.167,59.3333 142.5,60C 140.481,60.4497 138.648,61.283 137,62.5C 135.352,61.283 133.519,60.4497 131.5,60C 124.842,59.5004 118.175,59.3337 111.5,59.5C 111.5,53.8333 111.5,48.1667 111.5,42.5C 178.167,42.6667 244.834,42.5 311.5,42C 314.366,40.6071 315.699,38.2738 315.5,35C 315.592,32.1861 314.592,29.8527 312.5,28C 230.877,26.6778 149.21,26.0111 67.5,26C 62.9825,20.7583 63.9825,16.925 70.5,14.5 Z M 83.5,42.5 C 87.5,42.5 91.5,42.5 95.5,42.5C 95.5,193.833 95.5,345.167 95.5,496.5C 91.5,496.5 87.5,496.5 83.5,496.5C 83.5,345.167 83.5,193.833 83.5,42.5 Z M 111.5,75.5 C 117.167,75.5 122.833,75.5 128.5,75.5C 128.5,99.1667 128.5,122.833 128.5,146.5C 122.833,146.5 117.167,146.5 111.5,146.5C 111.5,122.833 111.5,99.1667 111.5,75.5 Z M 145.5,75.5 C 151.167,75.5 156.833,75.5 162.5,75.5C 162.5,99.1667 162.5,122.833 162.5,146.5C 156.5,146.5 150.5,146.5 144.5,146.5C 144.187,122.788 144.52,99.1216 145.5,75.5 Z M 179.5,75.5 C 185.093,75.1934 190.593,75.5268 196,76.5C 196.5,99.831 196.667,123.164 196.5,146.5C 190.5,146.5 184.5,146.5 178.5,146.5C 178.177,122.759 178.511,99.0918 179.5,75.5 Z M 213.5,75.5 C 219.093,75.1934 224.593,75.5268 230,76.5C 230.5,99.831 230.667,123.164 230.5,146.5C 224.5,146.5 218.5,146.5 212.5,146.5C 212.177,122.759 212.511,99.0918 213.5,75.5 Z M 258.5,75.5 C 260.39,75.2965 261.89,75.9632 263,77.5C 274.794,96.2568 286.96,114.757 299.5,133C 294.667,136.5 289.833,140 285,143.5C 272.167,123.833 259.333,104.167 246.5,84.5C 250.518,81.4756 254.518,78.4756 258.5,75.5 Z M 382.5,75.5 C 388.167,75.5 393.833,75.5 399.5,75.5C 399.5,99.1667 399.5,122.833 399.5,146.5C 393.833,146.5 388.167,146.5 382.5,146.5C 382.5,122.833 382.5,99.1667 382.5,75.5 Z M 246.5,115.5 C 253.637,125.488 260.637,135.655 267.5,146C 260.508,146.5 253.508,146.666 246.5,146.5C 246.5,136.167 246.5,125.833 246.5,115.5 Z M 111.5,162.5 C 207.5,162.5 303.5,162.5 399.5,162.5C 399.5,166.5 399.5,170.5 399.5,174.5C 311.499,174.333 223.499,174.5 135.5,175C 130.776,177.435 129.276,181.269 131,186.5C 132.214,188.049 133.714,189.215 135.5,190C 223.499,190.5 311.499,190.667 399.5,190.5C 399.5,202.5 399.5,214.5 399.5,226.5C 392.159,226.334 384.826,226.5 377.5,227C 375.167,229 372.833,229 370.5,227C 361.5,226.333 352.5,226.333 343.5,227C 341.167,229 338.833,229 336.5,227C 327.5,226.333 318.5,226.333 309.5,227C 304.243,229.256 300.743,233.09 299,238.5C 298.5,257.164 298.333,275.83 298.5,294.5C 292.5,294.5 286.5,294.5 280.5,294.5C 280.667,269.831 280.5,245.164 280,220.5C 275.829,209.135 267.663,204.802 255.5,207.5C 251.167,207.667 246.833,207.833 242.5,208C 241.128,208.402 239.795,208.902 238.5,209.5C 237.205,208.902 235.872,208.402 234.5,208C 225.833,207.333 217.167,207.333 208.5,208C 207.391,208.638 206.225,209.138 205,209.5C 199.297,207.952 193.464,207.285 187.5,207.5C 183.167,207.667 178.833,207.833 174.5,208C 172.167,210 169.833,210 167.5,208C 158.5,207.333 149.5,207.333 140.5,208C 138.167,210 135.833,210 133.5,208C 126.174,207.5 118.841,207.334 111.5,207.5C 111.5,192.5 111.5,177.5 111.5,162.5 Z M 111.5,223.5 C 117.167,223.5 122.833,223.5 128.5,223.5C 128.5,233.167 128.5,242.833 128.5,252.5C 122.833,252.5 117.167,252.5 111.5,252.5C 111.5,242.833 111.5,233.167 111.5,223.5 Z M 145.5,223.5 C 151.167,223.5 156.833,223.5 162.5,223.5C 162.5,233.167 162.5,242.833 162.5,252.5C 156.5,252.5 150.5,252.5 144.5,252.5C 144.218,242.781 144.551,233.114 145.5,223.5 Z M 179.5,223.5 C 185.167,223.5 190.833,223.5 196.5,223.5C 196.5,233.167 196.5,242.833 196.5,252.5C 190.5,252.5 184.5,252.5 178.5,252.5C 178.194,242.75 178.527,233.084 179.5,223.5 Z M 213.5,223.5 C 219.167,223.5 224.833,223.5 230.5,223.5C 230.5,247.167 230.5,270.833 230.5,294.5C 224.5,294.5 218.5,294.5 212.5,294.5C 212.177,270.759 212.511,247.092 213.5,223.5 Z M 246.5,223.5 C 252.5,223.5 258.5,223.5 264.5,223.5C 264.5,247.167 264.5,270.833 264.5,294.5C 258.5,294.5 252.5,294.5 246.5,294.5C 246.5,270.833 246.5,247.167 246.5,223.5 Z M 314.5,242.5 C 320.425,242.192 326.259,242.525 332,243.5C 332.5,260.497 332.667,277.497 332.5,294.5C 326.5,294.5 320.5,294.5 314.5,294.5C 314.5,277.167 314.5,259.833 314.5,242.5 Z M 348.5,242.5 C 354.631,241.908 360.464,242.575 366,244.5C 366.5,261.163 366.667,277.83 366.5,294.5C 360.5,294.5 354.5,294.5 348.5,294.5C 348.5,277.167 348.5,259.833 348.5,242.5 Z M 382.5,242.5 C 388.167,242.5 393.833,242.5 399.5,242.5C 399.5,259.833 399.5,277.167 399.5,294.5C 393.833,294.5 388.167,294.5 382.5,294.5C 382.5,277.167 382.5,259.833 382.5,242.5 Z M 111.5,268.5 C 117.167,268.5 122.833,268.5 128.5,268.5C 128.5,277.167 128.5,285.833 128.5,294.5C 122.833,294.5 117.167,294.5 111.5,294.5C 111.5,285.833 111.5,277.167 111.5,268.5 Z M 144.5,268.5 C 150.5,268.5 156.5,268.5 162.5,268.5C 162.5,277.167 162.5,285.833 162.5,294.5C 156.5,294.5 150.5,294.5 144.5,294.5C 144.5,285.833 144.5,277.167 144.5,268.5 Z M 178.5,268.5 C 184.5,268.5 190.5,268.5 196.5,268.5C 196.5,277.167 196.5,285.833 196.5,294.5C 190.5,294.5 184.5,294.5 178.5,294.5C 178.5,285.833 178.5,277.167 178.5,268.5 Z M 111.5,309.5 C 207.5,309.5 303.5,309.5 399.5,309.5C 399.5,313.5 399.5,317.5 399.5,321.5C 303.5,321.5 207.5,321.5 111.5,321.5C 111.5,317.5 111.5,313.5 111.5,309.5 Z M 111.5,337.5 C 207.5,337.5 303.5,337.5 399.5,337.5C 399.5,343.167 399.5,348.833 399.5,354.5C 392.825,354.334 386.158,354.5 379.5,355C 370.362,357.773 366.029,363.939 366.5,373.5C 360.5,373.5 354.5,373.5 348.5,373.5C 348.537,363.731 343.871,357.564 334.5,355C 326.833,354.333 319.167,354.333 311.5,355C 309.481,355.45 307.648,356.283 306,357.5C 304.352,356.283 302.519,355.45 300.5,355C 292.833,354.333 285.167,354.333 277.5,355C 271.333,357.167 267.167,361.333 265,367.5C 264.5,392.164 264.333,416.831 264.5,441.5C 242.5,441.5 220.5,441.5 198.5,441.5C 199.193,432.6 198.193,423.934 195.5,415.5C 199.291,404.584 199.457,393.584 196,382.5C 192.955,378.058 188.789,375.224 183.5,374C 159.502,373.5 135.502,373.333 111.5,373.5C 111.5,361.5 111.5,349.5 111.5,337.5 Z M 281.5,370.5 C 287.093,370.193 292.593,370.527 298,371.5C 298.5,384.496 298.667,397.496 298.5,410.5C 292.5,410.5 286.5,410.5 280.5,410.5C 280.186,397.087 280.519,383.754 281.5,370.5 Z M 315.5,370.5 C 321.093,370.193 326.593,370.527 332,371.5C 332.5,384.496 332.667,397.496 332.5,410.5C 326.5,410.5 320.5,410.5 314.5,410.5C 314.186,397.087 314.519,383.754 315.5,370.5 Z M 382.5,370.5 C 388.167,370.5 393.833,370.5 399.5,370.5C 399.5,394.167 399.5,417.833 399.5,441.5C 393.833,441.5 388.167,441.5 382.5,441.5C 382.5,417.833 382.5,394.167 382.5,370.5 Z M 111.5,389.5 C 134.502,389.333 157.502,389.5 180.5,390C 181,390.5 181.5,391 182,391.5C 182.804,396.751 182.637,401.918 181.5,407C 158.169,407.5 134.836,407.667 111.5,407.5C 111.5,401.5 111.5,395.5 111.5,389.5 Z M 349.5,389.5 C 354.511,389.334 359.511,389.501 364.5,390C 365,390.5 365.5,391 366,391.5C 366.5,408.163 366.667,424.83 366.5,441.5C 360.5,441.5 354.5,441.5 348.5,441.5C 348.181,424.09 348.515,406.756 349.5,389.5 Z M 111.5,423.5 C 134.843,423.167 158.176,423.5 181.5,424.5C 182.833,429.833 182.833,435.167 181.5,440.5C 158.176,441.5 134.843,441.833 111.5,441.5C 111.5,435.5 111.5,429.5 111.5,423.5 Z M 280.5,425.5 C 286.5,425.5 292.5,425.5 298.5,425.5C 298.5,430.833 298.5,436.167 298.5,441.5C 292.5,441.5 286.5,441.5 280.5,441.5C 280.5,436.167 280.5,430.833 280.5,425.5 Z M 314.5,425.5 C 320.5,425.5 326.5,425.5 332.5,425.5C 332.5,430.833 332.5,436.167 332.5,441.5C 326.5,441.5 320.5,441.5 314.5,441.5C 314.5,436.167 314.5,430.833 314.5,425.5 Z M 111.5,457.5 C 207.5,457.5 303.5,457.5 399.5,457.5C 399.5,461.5 399.5,465.5 399.5,469.5C 303.5,469.5 207.5,469.5 111.5,469.5C 111.5,465.5 111.5,461.5 111.5,457.5 Z"/></g>
</svg>
