<?xml version="1.0" encoding="UTF-8"?>
<!DOCTYPE svg PUBLIC "-//W3C//DTD SVG 1.1//EN" "http://www.w3.org/Graphics/SVG/1.1/DTD/svg11.dtd">
<svg xmlns="http://www.w3.org/2000/svg" version="1.1" width="512px" height="512px" style="shape-rendering:geometricPrecision; text-rendering:geometricPrecision; image-rendering:optimizeQuality; fill-rule:evenodd; clip-rule:evenodd" xmlns:xlink="http://www.w3.org/1999/xlink">
<g><path style="opacity:0.938" fill="#000000" d="M 168.5,15.5 C 192.389,12.3088 214.389,17.1421 234.5,30C 248.084,41.0041 251.251,54.5041 244,70.5C 236.96,80.0326 227.793,86.6993 216.5,90.5C 215.502,98.4723 215.169,106.472 215.5,114.5C 244.32,119.662 269.82,131.662 292,150.5C 294.696,160.592 290.862,164.759 280.5,163C 254.698,141.784 225.032,130.284 191.5,128.5C 191.5,133.5 191.5,138.5 191.5,143.5C 245.261,148.11 284.094,174.443 308,222.5C 315.141,238.064 318.974,254.397 319.5,271.5C 324.5,271.5 329.5,271.5 334.5,271.5C 333.236,246.871 326.402,223.871 314,202.5C 309,195.167 304,187.833 299,180.5C 299.03,171.148 303.53,167.981 312.5,171C 350.543,218.887 361.043,272.387 344,331.5C 319.514,398.313 272.014,436.813 201.5,447C 132.354,451.674 78.5206,425.507 40,368.5C 13.4695,322.916 8.13612,274.916 24,224.5C 49.1938,159.473 96.3605,121.973 165.5,112C 176.828,111.5 188.162,111.333 199.5,111.5C 199.667,100.828 199.5,90.1615 199,79.5C 195.813,65.6563 187.646,61.4896 174.5,67C 171.894,68.9384 170.061,71.4384 169,74.5C 167.908,80.7822 167.242,87.1156 167,93.5C 165.471,96.516 162.971,97.8494 159.5,97.5C 154.466,97.8002 151.466,95.4669 150.5,90.5C 136.065,86.2269 125.898,77.2269 120,63.5C 117.06,49.6501 121.227,38.4834 132.5,30C 143.573,22.622 155.573,17.7887 168.5,15.5 Z M 182.5,31.5 C 193.496,31.9326 204.163,34.0992 214.5,38C 221.233,40.771 226.399,45.271 230,51.5C 230.744,62.6041 225.577,69.2708 214.5,71.5C 212.301,61.6065 206.634,54.4398 197.5,50C 180.732,43.8137 166.899,47.647 156,61.5C 154.132,64.6051 152.965,67.9385 152.5,71.5C 141.423,69.2708 136.256,62.6041 137,51.5C 140.601,45.271 145.767,40.771 152.5,38C 162.326,34.3371 172.326,32.1704 182.5,31.5 Z M 167.5,128.5 C 170.167,128.5 172.833,128.5 175.5,128.5C 175.5,133.5 175.5,138.5 175.5,143.5C 147.637,145.063 122.637,154.23 100.5,171C 96.3294,174.854 95.4961,179.354 98,184.5C 99.9668,186.27 102.3,187.27 105,187.5C 110.094,185.619 114.761,182.952 119,179.5C 123.69,202.596 128.857,225.596 134.5,248.5C 132.68,253.48 130.846,258.48 129,263.5C 127.927,269.449 127.26,275.449 127,281.5C 110.638,297.529 94.6376,313.862 79,330.5C 78.6667,331.833 78.3333,333.167 78,334.5C 70.1507,319.787 65.6507,304.12 64.5,287.5C 77.7268,290.12 82.0602,285.287 77.5,273C 73.3004,271.633 68.9671,271.133 64.5,271.5C 66.2054,246.546 74.7054,224.213 90,204.5C 91.5,195.333 87.6667,191.5 78.5,193C 58.9165,215.36 48.5832,241.526 47.5,271.5C 42.5,271.5 37.5,271.5 32.5,271.5C 37.8896,209.859 68.5563,166.026 124.5,140C 138.499,134.419 152.833,130.586 167.5,128.5 Z M 167.5,160.5 C 170.167,160.5 172.833,160.5 175.5,160.5C 172.88,173.727 177.713,178.06 190,173.5C 191.367,169.3 191.867,164.967 191.5,160.5C 230.782,164.131 261.449,182.131 283.5,214.5C 260.137,219.466 236.971,225.132 214,231.5C 204.068,225.308 193.234,222.475 181.5,223C 165.805,206.971 149.805,191.304 133.5,176C 131.913,175.138 130.246,174.471 128.5,174C 140.894,167.37 153.894,162.87 167.5,160.5 Z M 143.5,210.5 C 149.658,215.76 155.658,221.26 161.5,227C 157.229,229.474 152.896,231.641 148.5,233.5C 147.306,225.726 145.64,218.059 143.5,210.5 Z M 288.5,224.5 C 297.026,238.921 301.693,254.588 302.5,271.5C 289.273,268.88 284.94,273.713 289.5,286C 293.7,287.367 298.033,287.867 302.5,287.5C 299.304,326.497 281.638,356.997 249.5,379C 243.788,356.981 238.121,334.147 232.5,310.5C 237.866,300.173 240.366,289.173 240,277.5C 256.029,261.805 271.696,245.805 287,229.5C 288.009,227.975 288.509,226.308 288.5,224.5 Z M 250.5,239.5 C 251.239,239.369 251.906,239.536 252.5,240C 247.116,245.929 241.616,251.762 236,257.5C 233.526,253.229 231.359,248.896 229.5,244.5C 236.72,243.277 243.72,241.61 250.5,239.5 Z M 174.5,240.5 C 198.99,237.857 214.823,248.19 222,271.5C 224.233,299.27 211.566,315.27 184,319.5C 155.914,315.748 142.914,299.748 145,271.5C 149.244,255.758 159.077,245.425 174.5,240.5 Z M 32.5,287.5 C 37.5,287.5 42.5,287.5 47.5,287.5C 52.1096,341.261 78.4429,380.094 126.5,404C 142.064,411.141 158.397,414.974 175.5,415.5C 175.5,420.5 175.5,425.5 175.5,430.5C 113.859,425.11 70.0257,394.444 44,338.5C 37.169,322.176 33.3356,305.176 32.5,287.5 Z M 319.5,287.5 C 324.5,287.5 329.5,287.5 334.5,287.5C 329.524,347.984 299.857,391.484 245.5,418C 228.295,425.635 210.295,429.801 191.5,430.5C 191.5,425.5 191.5,420.5 191.5,415.5C 246.082,410.735 285.249,383.735 309,334.5C 315.502,319.494 319.002,303.827 319.5,287.5 Z M 130.5,301.5 C 133.272,305.603 135.606,309.937 137.5,314.5C 129.791,316.181 122.124,317.681 114.5,319C 119.957,313.229 125.291,307.396 130.5,301.5 Z M 215.5,325.5 C 216.5,325.5 217.5,325.5 218.5,325.5C 219.865,333.275 221.365,340.942 223,348.5C 217.071,343.116 211.238,337.616 205.5,332C 209.411,330.556 212.744,328.389 215.5,325.5 Z M 151.5,327.5 C 157.135,329.647 162.802,331.813 168.5,334C 174.103,335.124 179.769,335.79 185.5,336C 201.195,352.029 217.195,367.696 233.5,383C 235.087,383.862 236.754,384.529 238.5,385C 223.931,393.244 208.264,397.744 191.5,398.5C 194.12,385.273 189.287,380.94 177,385.5C 175.633,389.7 175.133,394.033 175.5,398.5C 136.325,395.131 105.658,377.298 83.5,345C 106.442,339.765 129.109,333.932 151.5,327.5 Z"/></g>
<g><path style="opacity:0.985" fill="#000000" d="M 455.5,175.5 C 475.464,172.717 488.631,180.717 495,199.5C 495.667,287.833 495.667,376.167 495,464.5C 490.833,480.667 480.667,490.833 464.5,495C 364.167,495.667 263.833,495.667 163.5,495C 161.667,494.5 160.5,493.333 160,491.5C 159.333,483.167 159.333,474.833 160,466.5C 165,461.167 170,461.167 175,466.5C 175.499,470.821 175.666,475.154 175.5,479.5C 268.834,479.667 362.167,479.5 455.5,479C 474.687,475.771 481.521,464.938 476,446.5C 469.749,439.989 462.582,438.823 454.5,443C 451.894,444.938 450.061,447.438 449,450.5C 448.524,454.576 447.358,458.41 445.5,462C 442.298,463.483 438.964,463.817 435.5,463C 433.667,462.5 432.5,461.333 432,459.5C 431.5,380.834 431.333,302.167 431.5,223.5C 406.831,223.667 382.164,223.5 357.5,223C 352.167,218 352.167,213 357.5,208C 382.164,207.5 406.831,207.333 431.5,207.5C 432.261,191.28 440.261,180.613 455.5,175.5 Z M 458.5,192.5 C 470.308,190.817 477.141,195.817 479,207.5C 479.833,280.502 479.667,353.502 478.5,426.5C 468.5,422.5 458.5,422.5 448.5,426.5C 447.333,353.502 447.167,280.502 448,207.5C 448.626,200.391 452.126,195.391 458.5,192.5 Z"/></g>
<g><path style="opacity:0.962" fill="#000000" d="M 379.5,239.5 C 382.978,239.184 386.312,239.684 389.5,241C 392.303,245.436 395.469,249.603 399,253.5C 397.397,240.826 402.397,236.826 414,241.5C 415.632,255.74 415.965,270.073 415,284.5C 411.063,289.217 406.563,289.717 401.5,286C 398.697,281.564 395.531,277.397 392,273.5C 393.603,286.174 388.603,290.174 377,285.5C 375.369,271.594 375.036,257.594 376,243.5C 376.69,241.65 377.856,240.316 379.5,239.5 Z"/></g>
<g><path style="opacity:0.928" fill="#000000" d="M 176.5,255.5 C 191.367,253.012 201.534,258.678 207,272.5C 210.114,285.728 205.447,290.061 193,285.5C 191.878,281.507 190.378,277.674 188.5,274C 178.333,270.833 174.833,274.333 178,284.5C 181.674,286.378 185.507,287.878 189.5,289C 194.061,301.447 189.728,306.114 176.5,303C 162.518,297.543 157.018,287.376 160,272.5C 163.019,264.316 168.519,258.649 176.5,255.5 Z"/></g>
<g><path style="opacity:0.892" fill="#000000" d="M 403.5,303.5 C 414.86,302.71 418.193,307.543 413.5,318C 402.964,321.997 398.464,318.497 400,307.5C 400.69,305.65 401.856,304.316 403.5,303.5 Z"/></g>
<g><path style="opacity:0.892" fill="#000000" d="M 371.5,319.5 C 382.86,318.71 386.193,323.543 381.5,334C 370.964,337.997 366.464,334.497 368,323.5C 368.69,321.65 369.856,320.316 371.5,319.5 Z"/></g>
<g><path style="opacity:0.892" fill="#000000" d="M 379.5,359.5 C 390.86,358.71 394.193,363.543 389.5,374C 378.964,377.997 374.464,374.497 376,363.5C 376.69,361.65 377.856,360.316 379.5,359.5 Z"/></g>
<g><path style="opacity:0.939" fill="#000000" d="M 347.5,375.5 C 351.257,375.071 354.757,375.737 358,377.5C 363.578,388.99 369.411,400.323 375.5,411.5C 378.96,405.413 382.294,399.246 385.5,393C 389.781,390.891 393.948,391.058 398,393.5C 406.333,410.167 414.667,426.833 423,443.5C 424.28,454.872 419.613,458.205 409,453.5C 403.422,442.01 397.589,430.677 391.5,419.5C 388.97,423.226 386.97,427.226 385.5,431.5C 387.057,435.614 388.89,439.614 391,443.5C 392.536,454.497 388.036,457.997 377.5,454C 368.961,437.088 360.294,420.255 351.5,403.5C 343.078,419.344 334.911,435.344 327,451.5C 322.62,456.343 317.954,456.677 313,452.5C 311.543,449.634 311.21,446.634 312,443.5C 323,421.5 334,399.5 345,377.5C 345.995,376.934 346.828,376.267 347.5,375.5 Z"/></g>
<g><path style="opacity:0.892" fill="#000000" d="M 299.5,415.5 C 310.86,414.71 314.193,419.543 309.5,430C 298.964,433.997 294.464,430.497 296,419.5C 296.69,417.65 297.856,416.316 299.5,415.5 Z"/></g>
<g><path style="opacity:0.892" fill="#000000" d="M 267.5,439.5 C 278.86,438.71 282.193,443.543 277.5,454C 266.964,457.997 262.464,454.497 264,443.5C 264.69,441.65 265.856,440.316 267.5,439.5 Z"/></g>
</svg>
