<?xml version="1.0" encoding="UTF-8"?>
<svg version="1.1" xmlns="http://www.w3.org/2000/svg" width="512" height="512">
<path d="M0 0 C2.05088641 0.98390073 3.87486771 2.11815817 5.76953125 3.37890625 C7.76624806 4.63414408 9.76664437 5.88353717 11.76953125 7.12890625 C12.60013062 7.64614258 12.60013062 7.64614258 13.44750977 8.17382812 C56.80254112 34.8764608 110.53779604 42.91281477 160.39453125 47.06640625 C161.11589264 47.1274353 161.83725403 47.18846436 162.58047485 47.25134277 C182.62218016 48.91587629 202.71354944 49.40677468 222.81640625 49.5546875 C224.27945059 49.56669185 225.74249381 49.57883292 227.20553589 49.59111023 C236.15222988 49.66474384 236.15222988 49.66474384 245.09912109 49.70483398 C248.81986069 49.71493176 252.54002473 49.7442227 256.26053619 49.78615379 C257.65583196 49.79836129 259.05120874 49.80360405 260.44655609 49.80135536 C273.88735675 49.78494346 273.88735675 49.78494346 279.76953125 54.37890625 C280.45982422 55.44818359 280.45982422 55.44818359 281.1640625 56.5390625 C283.83315889 59.597808 287.6232604 59.39210795 291.45703125 59.81640625 C316.4928423 63.22940886 336.41442472 74.09793677 354.76953125 91.37890625 C355.38441406 91.92933594 355.99929688 92.47976562 356.6328125 93.046875 C373.94057539 109.16099907 383.03363439 133.01590541 386.16308594 155.87915039 C387.06986662 161.78009438 388.20446605 164.30096691 392.76953125 168.37890625 C396.34261813 174.51648436 396.25421706 180.32861625 396.20703125 187.31640625 C396.22701172 188.36248047 396.24699219 189.40855469 396.26757812 190.48632812 C396.26295104 197.84801243 395.21101514 203.47113885 390.25952148 209.09350586 C388.76953125 210.37890625 388.76953125 210.37890625 386.76953125 210.37890625 C386.75535156 211.09691406 386.74117188 211.81492188 386.7265625 212.5546875 C385.37439298 241.90042054 371.03401877 268.1921492 349.95703125 288.12890625 C332.63892493 303.08670014 308.07785452 315.37890625 284.76953125 315.37890625 C284.00360849 325.95736091 284.00360849 325.95736091 287.40625 335.40625 C289.44326938 336.54238482 289.44326938 336.54238482 291.6328125 337.390625 C296.34720494 339.57113924 299.02291498 344.55524556 300.92578125 349.203125 C301.85261691 352.69163144 301.96805271 355.65135455 301.89453125 359.25390625 C301.87648438 360.40632813 301.8584375 361.55875 301.83984375 362.74609375 C301.80503906 364.04933594 301.80503906 364.04933594 301.76953125 365.37890625 C303.12884766 365.34410156 303.12884766 365.34410156 304.515625 365.30859375 C314.45889178 365.16128609 323.54915774 365.22661008 331.76953125 371.37890625 C336.46000774 375.94688098 339.22192673 380.79105716 341.64453125 386.8125 C342.19246338 388.13102211 342.19246338 388.13102211 342.75146484 389.47618103 C344.10984377 392.76962871 345.44107074 396.07327488 346.76953125 399.37890625 C347.34559623 400.80711099 347.92177412 402.2352702 348.49804688 403.66339111 C352.93684643 414.67561072 357.32320102 425.70842753 361.699646 436.74554443 C363.13976261 440.37430309 364.58390698 444.00145329 366.02801514 447.62862492 C367.4230447 451.13397351 368.81563108 454.6402886 370.2074585 458.14690971 C370.87016661 459.81576031 371.5336106 461.48431888 372.19781494 463.15257454 C373.11872928 465.46670932 374.03636618 467.78211681 374.953125 470.09790039 C375.22526321 470.77988495 375.49740143 471.46186951 375.77778625 472.16452026 C379.07028136 480.50722428 379.98867732 487.61344671 376.796875 496.14453125 C373.62443249 503.04429215 369.6231115 507.10044797 362.77470231 510.35575664 C357.01236413 512.31761969 351.12700654 512.06181061 345.10568237 512.00709534 C343.63431565 512.01214758 342.1629551 512.01938163 340.69160855 512.02859348 C336.6704775 512.04744624 332.64995824 512.03532195 328.62884307 512.01787055 C324.28387161 512.00446228 319.93898763 512.01994589 315.59402466 512.0316925 C307.09154316 512.05004678 298.58929187 512.04157199 290.08681761 512.02360428 C283.17635276 512.00956579 276.26595031 512.00568817 269.35547256 512.00904655 C267.87892669 512.00976272 267.87892669 512.00976272 266.3725516 512.01049335 C264.37272077 512.0115197 262.37288996 512.01257506 260.37305917 512.01365911 C242.70032026 512.02222147 225.02769236 512.00556526 207.35498047 511.97583008 C190.21105285 511.94698505 173.06728508 511.9399139 155.92333984 511.95532227 C137.2459579 511.97208589 118.56865181 511.97611766 99.8912679 511.95861191 C97.89949807 511.95676755 95.90772824 511.95493282 93.9159584 511.95310783 C92.93601072 511.95219574 91.95606304 511.95128365 90.94641998 511.95034393 C84.0440895 511.94474021 77.14179608 511.9480441 70.23946762 511.95465279 C61.82823696 511.96238664 53.4171636 511.95563121 45.00596462 511.93047775 C40.71531094 511.91798495 36.42490214 511.91183356 32.1342392 511.92301941 C28.20497247 511.93306967 24.27619383 511.92458578 20.34698643 511.90143823 C18.92724136 511.89628456 17.50745246 511.8978307 16.08772658 511.90683288 C8.18438159 511.95276947 2.51456596 511.65897752 -4.23046875 507.37890625 C-5.11734375 506.82203125 -6.00421875 506.26515625 -6.91796875 505.69140625 C-12.56974985 500.03962515 -15.02526346 493.57347488 -15.41062927 485.6962738 C-15.38323715 481.35038737 -14.2538954 477.61676372 -12.70727539 473.58618164 C-12.30432928 472.49308607 -12.30432928 472.49308607 -11.89324284 471.37790775 C-11.02297058 469.03791957 -10.13057811 466.70756893 -9.23046875 464.37890625 C-8.9371101 463.61747692 -8.64375145 462.85604759 -8.34150314 462.07154465 C-6.13941906 456.38390562 -3.87594896 450.72153674 -1.6015625 445.0625 C-0.88216113 443.26753661 -0.16284838 441.47253771 0.55638123 439.67750549 C2.05056564 435.95120398 3.54768941 432.22609929 5.04663086 428.50170898 C6.95947576 423.74742887 8.86185217 418.98903349 10.76175022 414.22956753 C12.23812725 410.53587393 13.72147907 406.84501096 15.20676994 403.15489388 C15.91130222 401.40134055 16.6133636 399.64679223 17.31280708 397.89120293 C18.29051423 395.43935344 19.27796989 392.99164467 20.26782227 390.54467773 C20.54899399 389.83338715 20.83016571 389.12209656 21.11985779 388.38925171 C24.78335994 379.40689759 29.47331217 371.68442127 38.26953125 367.06640625 C46.03429327 364.93109669 53.76673422 365.27901003 61.76953125 365.37890625 C61.723125 364.54488281 61.67671875 363.71085937 61.62890625 362.8515625 C61.29314155 352.3828989 63.27605305 345.85404904 70.01171875 337.88671875 C72.3632097 335.86966207 74.99351773 334.72915848 77.76953125 333.37890625 C77.77833061 332.01826805 77.77833061 332.01826805 77.78730774 330.63014221 C77.84537454 322.05326267 77.91753094 313.47663968 78.00524616 304.90001011 C78.04984447 300.491383 78.08912339 296.08284606 78.1159668 291.67407227 C78.1421055 287.41394943 78.1825814 283.15417555 78.23271751 278.89426994 C78.24931513 277.27454936 78.26087343 275.65476853 78.26714516 274.03497505 C78.3566257 253.03644836 78.3566257 253.03644836 85.8984375 244.94921875 C93.14426533 238.86816909 101.10997564 237.25886268 110.3528595 237.24519348 C111.66070908 237.2409285 112.96855865 237.23666351 114.31604004 237.23226929 C115.753418 237.23261875 117.19079594 237.23308026 118.62817383 237.23364258 C120.15138328 237.23064833 121.67459198 237.22724519 123.19779968 237.22346497 C127.32602027 237.21464748 131.45422011 237.21228779 135.5824492 237.21164918 C138.16454867 237.21093737 140.7466429 237.20880055 143.32874107 237.20615196 C152.34522205 237.19690579 161.36168827 237.19281614 170.37817383 237.19360352 C178.76919281 237.19420402 187.16014744 237.18365565 195.55115014 237.16785985 C202.76664176 237.15476326 209.9821124 237.14942051 217.1976158 237.15005893 C221.50202968 237.1503133 225.80638636 237.14749553 230.11078835 237.13688087 C234.16146045 237.12716426 238.21202107 237.12714504 242.26269722 237.13439751 C243.74408888 237.13543895 245.22548762 237.13310678 246.70686722 237.12703705 C258.607812 237.08145712 268.34541444 237.45532843 277.76953125 245.37890625 C282.68166985 250.2671415 283.86288682 255.65349907 284.76953125 262.37890625 C301.84650982 257.17525207 301.84650982 257.17525207 315.76953125 246.37890625 C316.42953125 246.37890625 317.08953125 246.37890625 317.76953125 246.37890625 C318.04152344 245.79238281 318.31351562 245.20585937 318.59375 244.6015625 C319.74672261 242.42202292 321.02395414 240.71980916 322.58203125 238.81640625 C327.32920557 232.57560879 330.12485303 225.65840915 332.34301758 218.18505859 C332.61084549 217.28492035 332.8786734 216.3847821 333.15461731 215.45736694 C333.35753891 214.77147491 333.56046051 214.08558289 333.76953125 213.37890625 C316.95763012 213.3927282 300.14607238 213.43503185 283.33434296 213.51099682 C275.52787672 213.54561096 267.7215864 213.57099762 259.91503906 213.57446289 C253.10872228 213.57750779 246.30271909 213.5980685 239.49652338 213.63943082 C235.89450216 213.66071533 232.29292626 213.67338521 228.69084167 213.66506004 C224.66390033 213.65608181 220.63814224 213.68621881 216.61132812 213.71948242 C215.42449432 213.71085678 214.23766052 213.70223114 213.01486206 213.69334412 C205.72632933 213.7941945 201.55950834 215.03377306 195.76953125 219.37890625 C187.05375373 223.08367473 176.1535606 222.72541589 167.33203125 219.44140625 C158.40610419 215.11184652 152.32968225 208.44900492 148.64453125 199.26171875 C145.59545622 189.21610549 146.28137604 179.23929611 151.0625 169.8359375 C156.73435085 160.75793493 164.05650501 155.75214509 174.20703125 152.62890625 C182.18540451 151.85052837 191.587287 151.44453539 198.32687378 156.56124401 C204.46518627 161.13432318 210.0626599 161.09295532 217.51953125 161.03833008 C219.40859947 161.05405563 219.40859947 161.05405563 221.33583069 161.07009888 C224.76724849 161.09810812 228.19803828 161.09579842 231.62953568 161.08780503 C235.22373817 161.08466844 238.81774463 161.10974785 242.41186523 161.13175964 C249.20795875 161.16913264 256.00385219 161.18134361 262.80003834 161.18438405 C270.54140591 161.18908224 278.28257397 161.22202983 286.0238533 161.2572819 C301.93906496 161.32912693 317.85415631 161.36571881 333.76953125 161.37890625 C332.99962397 158.8222259 332.22260415 156.26807467 331.44140625 153.71484375 C331.22597168 152.99675537 331.01053711 152.27866699 330.78857422 151.53881836 C326.52306796 137.67195878 317.31321204 126.86892182 305.1015625 119.140625 C298.32529986 115.5578648 289.53880153 111.43308204 281.76953125 112.37890625 C279.72833337 113.99485457 277.72880188 115.66454445 275.76953125 117.37890625 C271.69455931 119.45929512 268.23101358 119.63954779 263.68896484 119.66601562 C262.99343002 119.67284866 262.2978952 119.6796817 261.58128357 119.6867218 C260.07108141 119.70028646 258.56083362 119.70935473 257.05057907 119.71443176 C254.62085617 119.72281888 252.19149205 119.74343532 249.76187134 119.76696777 C244.55614655 119.81513911 239.35038204 119.84782763 234.14453125 119.87890625 C203.01748135 120.06897139 171.83494279 120.39710669 140.89453125 124.19140625 C140.19069305 124.27538666 139.48685486 124.35936707 138.76168823 124.44589233 C90.20288257 130.2551014 42.80546097 141.45975006 1.39746094 168.43017578 C-3.42696322 171.2417703 -8.83750679 170.78792303 -14.23046875 170.37890625 C-20.4644252 168.50871932 -26.11117201 165.07438895 -29.41131687 159.31982517 C-32.44768845 152.20622888 -32.79431583 145.84872929 -32.73217773 138.17749023 C-32.73758072 136.89326172 -32.7429837 135.6090332 -32.74855042 134.28588867 C-32.76240812 130.79201104 -32.75140509 127.29863121 -32.7348392 123.80478168 C-32.72089408 120.1321449 -32.72745936 116.45953426 -32.73097229 112.78688049 C-32.73366665 106.62289495 -32.72026464 100.459105 -32.69702148 94.29516602 C-32.67040472 87.18775667 -32.66867126 80.08067387 -32.68040985 72.97323173 C-32.69122034 66.10998674 -32.68497575 59.24685886 -32.67085457 52.38362312 C-32.66512423 49.47434758 -32.66515399 46.56515859 -32.66991997 43.65588188 C-32.67561544 39.58738565 -32.656294 35.51936968 -32.63452148 31.45092773 C-32.63902313 30.25534744 -32.64352478 29.05976715 -32.64816284 27.82795715 C-32.58161709 20.32320666 -32.02690022 13.37380835 -27.6171875 7.07421875 C-27.05644531 6.55601562 -26.49570312 6.0378125 -25.91796875 5.50390625 C-25.08845703 4.70339844 -25.08845703 4.70339844 -24.2421875 3.88671875 C-17.08554667 -1.47728778 -8.60992493 -2.39750975 0 0 Z M-14.23046875 20.37890625 C-14.6822724 22.8048165 -14.6822724 22.8048165 -14.61141968 25.5721283 C-14.61987915 26.64748337 -14.62833862 27.72283844 -14.63705444 28.83078003 C-14.63098175 30.01060455 -14.62490906 31.19042908 -14.61865234 32.40600586 C-14.6239093 33.6484758 -14.62916626 34.89094574 -14.63458252 36.17106628 C-14.64553642 39.58033119 -14.64295123 42.98905107 -14.63344526 46.39828563 C-14.62585476 49.96520269 -14.63289273 53.53209631 -14.63760376 57.09901428 C-14.64306381 63.09038478 -14.63586396 69.08164438 -14.62158203 75.07299805 C-14.60526239 81.99914951 -14.61053788 88.92503595 -14.62706125 95.85118097 C-14.64067795 101.79692539 -14.64259468 107.74259004 -14.63474524 113.68834502 C-14.63006875 117.23980875 -14.62944297 120.79114796 -14.63935471 124.34260368 C-14.64963435 128.30264447 -14.63538382 132.26238884 -14.61865234 136.22241211 C-14.62472504 137.4002124 -14.63079773 138.5780127 -14.63705444 139.79150391 C-14.62859497 140.8696788 -14.6201355 141.9478537 -14.61141968 143.05870056 C-14.6102886 143.99503295 -14.60915752 144.93136534 -14.60799217 145.89607143 C-14.16526866 148.80770365 -13.16110843 150.19807884 -11.23046875 152.37890625 C-6.42105887 151.86590253 -3.43579127 150.53288076 0.58203125 147.87890625 C34.16575947 126.4769387 73.11827237 116.1377612 112.08203125 109.69140625 C113.21640625 109.5011084 114.35078125 109.31081055 115.51953125 109.11474609 C139.55575532 105.32355399 163.79912816 103.80377358 188.08203125 102.69140625 C190.79239715 102.56217804 193.50264708 102.43059496 196.21289062 102.29882812 C202.73138115 101.98255104 209.25030664 101.68098008 215.76953125 101.37890625 C215.76953125 90.48890625 215.76953125 79.59890625 215.76953125 68.37890625 C210.91777257 67.77243642 206.56902848 67.25473755 201.76171875 67.16796875 C200.62992188 67.14178467 199.498125 67.11560059 198.33203125 67.08862305 C196.50671875 67.04668823 196.50671875 67.04668823 194.64453125 67.00390625 C146.47978876 65.60648237 97.73042981 60.47170508 51.76953125 45.37890625 C50.96128906 45.11674316 50.15304688 44.85458008 49.3203125 44.58447266 C30.82024726 38.48021559 12.31686276 30.28841763 -3.55859375 18.92578125 C-7.93949962 16.38946733 -11.06509668 16.24918526 -14.23046875 20.37890625 Z M233.76953125 68.37890625 C233.76953125 79.26890625 233.76953125 90.15890625 233.76953125 101.37890625 C244.65953125 101.37890625 255.54953125 101.37890625 266.76953125 101.37890625 C266.76953125 90.48890625 266.76953125 79.59890625 266.76953125 68.37890625 C255.87953125 68.37890625 244.98953125 68.37890625 233.76953125 68.37890625 Z M284.76953125 77.37890625 C284.76953125 82.65890625 284.76953125 87.93890625 284.76953125 93.37890625 C285.97867187 93.65863281 287.1878125 93.93835938 288.43359375 94.2265625 C310.33811528 99.50053877 328.72172271 109.58213996 340.98706055 129.25878906 C345.69089801 137.20937553 348.34775587 145.50844992 350.76953125 154.37890625 C351.75953125 157.84390625 351.75953125 157.84390625 352.76953125 161.37890625 C358.04953125 161.37890625 363.32953125 161.37890625 368.76953125 161.37890625 C365.4459805 134.48835924 353.25746675 112.78042607 332.40625 95.41015625 C318.47597545 85.10877675 302.09446515 78.42890224 284.76953125 77.37890625 Z M168.39453125 176.56640625 C165.83950205 180.98857217 164.34393529 185.37790913 165.07421875 190.52734375 C166.76951309 195.98995885 170.15429824 199.16492471 174.76953125 202.37890625 C178.48157612 204.23492869 182.71826175 203.82766226 186.76953125 203.37890625 C191.68742863 200.91995756 195.29988982 197.68016976 197.5625 192.59765625 C199.14242101 187.7717157 198.72021783 184.13122137 196.88671875 179.42578125 C194.63223255 175.29518416 191.4088623 173.23955505 187.26953125 171.06640625 C179.77251734 169.00472743 173.95318741 171.44659136 168.39453125 176.56640625 Z M215.76953125 179.37890625 C215.76953125 184.65890625 215.76953125 189.93890625 215.76953125 195.37890625 C269.22953125 195.37890625 322.68953125 195.37890625 377.76953125 195.37890625 C377.76953125 190.09890625 377.76953125 184.81890625 377.76953125 179.37890625 C324.30953125 179.37890625 270.84953125 179.37890625 215.76953125 179.37890625 Z M352.76953125 213.37890625 C351.45160295 217.9912121 351.45160295 217.9912121 350.13452148 222.60375977 C346.8686719 233.77987251 342.67166721 242.99552798 335.76953125 252.37890625 C335.05023438 253.40177734 335.05023438 253.40177734 334.31640625 254.4453125 C322.75534798 269.45379477 302.95555818 277.7809024 284.76953125 280.37890625 C284.76953125 285.98890625 284.76953125 291.59890625 284.76953125 297.37890625 C311.23014985 293.12630683 334.59881922 281.99453631 350.93408203 259.79638672 C360.21422006 246.68622886 368.76953125 229.88027993 368.76953125 213.37890625 C363.48953125 213.37890625 358.20953125 213.37890625 352.76953125 213.37890625 Z M98.76953125 258.37890625 C87.88325038 280.15146798 96.76953125 307.03644221 96.76953125 331.37890625 C152.86953125 331.37890625 208.96953125 331.37890625 266.76953125 331.37890625 C271.62019124 292.61987526 271.62019124 292.61987526 263.76953125 257.37890625 C260.00132822 255.24323498 256.63945215 255.12602704 252.36219788 255.11820984 C251.06821579 255.11112503 249.7742337 255.10404022 248.44104004 255.09674072 C247.01415981 255.09903436 245.58727991 255.10154403 244.16040039 255.10424805 C242.65217334 255.09989909 241.1439485 255.09471533 239.63572693 255.08876038 C235.54481659 255.07537916 231.45399868 255.0747907 227.36307073 255.07732368 C223.94605149 255.07839394 220.52905092 255.07350863 217.11203569 255.06871825 C209.05001804 255.0576262 200.98804698 255.05718403 192.92602539 255.06323242 C184.61274954 255.06927346 176.29964288 255.05695725 167.9863959 255.03566235 C160.84484818 255.0180424 153.70335429 255.0120456 146.56178564 255.0153001 C142.29822942 255.0171124 138.03479391 255.01448202 133.7712574 255.00058556 C129.76159328 254.98800533 125.75219283 254.98995305 121.74253273 255.00299644 C120.27278301 255.00536132 118.80301472 255.00263067 117.33328629 254.99437332 C115.32349797 254.98389778 113.31363448 254.99381365 111.30384827 255.00468445 C110.18022416 255.00451671 109.05660006 255.00434896 107.89892673 255.00417614 C104.23835438 255.44251213 101.87621847 256.40436804 98.76953125 258.37890625 Z M81.76953125 352.37890625 C78.84503092 356.16473153 78.84503092 356.16473153 79.76953125 365.37890625 C147.08953125 365.37890625 214.40953125 365.37890625 283.76953125 365.37890625 C284.61839941 356.22009069 284.61839941 356.22009069 281.95703125 352.31640625 C278.0693028 348.87298962 274.14775954 349.23260327 269.22927856 349.23846436 C268.06691297 349.23400767 268.06691297 349.23400767 266.88106525 349.22946095 C264.27633082 349.22076762 261.67164233 349.21926518 259.06689453 349.21777344 C257.20266623 349.21314576 255.33843889 349.20812117 253.47421265 349.20272827 C248.4039687 349.18959851 243.333738 349.18315833 238.26347971 349.17871761 C235.0973216 349.17578817 231.93116712 349.17168363 228.76501083 349.16721344 C218.86316829 349.15353777 208.96133403 349.14387112 199.05948269 349.14001155 C187.62092817 349.13552873 176.18249302 349.11797071 164.7439748 349.08901095 C155.90738877 349.06741348 147.07083636 349.05730832 138.2342242 349.05597043 C132.95400652 349.05492113 127.67390104 349.04898661 122.39371109 349.03115082 C117.42790216 349.01470331 112.46229019 349.01249846 107.49646378 349.02128983 C105.67314121 349.02206195 103.8498082 349.01769447 102.02651215 349.00783157 C99.53868912 348.99516238 97.05156899 349.00096118 94.56375122 349.01141357 C93.47974681 348.99932897 93.47974681 348.99932897 92.37384331 348.98700023 C87.99887094 349.03003385 85.23793066 349.67842193 81.76953125 352.37890625 Z M43.76953125 385.37890625 C40.07034721 389.94082892 38.04661795 395.11217049 35.90307617 400.51782227 C35.54000366 401.41774902 35.17693115 402.31767578 34.80285645 403.24487305 C33.61125829 406.20464403 32.43006188 409.16842484 31.25 412.1328125 C30.42400691 414.19743584 29.59777556 416.26196388 28.77131653 418.32640076 C27.04422263 422.64592092 25.32276869 426.96763975 23.60473633 431.29077148 C21.40109148 436.83340802 19.17931084 442.36857453 16.95275402 447.90203953 C15.2427648 452.15955361 13.54453888 456.4216857 11.84963417 460.68522453 C11.03519905 462.7286295 10.21660107 464.77038034 9.39378929 466.81042671 C8.24655071 469.65869403 7.11580577 472.51297864 5.98901367 475.36938477 C5.64572525 476.2116008 5.30243683 477.05381683 4.94874573 477.92155457 C2.64540419 483.56883284 2.64540419 483.56883284 3.76953125 489.37890625 C5.91573148 492.05287237 7.07590652 493.25121349 10.49310875 493.88030291 C11.54656298 493.88095232 12.6000172 493.88160172 13.68539429 493.88227081 C14.90311335 493.8927018 16.12083241 493.90313279 17.37545204 493.91387987 C18.7286566 493.90523143 20.08185879 493.89620479 21.43505859 493.88684082 C22.87109701 493.89144838 24.30713072 493.89780032 25.74315453 493.9057498 C29.69427021 493.92248648 33.64500069 493.91417729 37.59611797 493.90180492 C41.85522289 493.89277439 46.11426042 493.9067142 50.37335205 493.91772461 C58.718868 493.93553583 67.06424027 493.93165829 75.40976191 493.92007405 C82.19072813 493.91105022 88.97165401 493.90981116 95.75262451 493.91416931 C96.71675337 493.91478224 97.68088223 493.91539518 98.67422712 493.91602668 C100.63267407 493.91730555 102.59112101 493.9186024 104.54956794 493.91991705 C122.92537898 493.93133047 141.30111029 493.91819719 159.67690825 493.89671558 C175.45326524 493.87884391 191.22950451 493.8819478 207.00585938 493.90039062 C225.31472272 493.92178389 243.62351612 493.93023176 261.93239021 493.91794157 C263.88373946 493.91666734 265.83508872 493.91540986 267.78643799 493.91416931 C268.74660556 493.91355221 269.70677314 493.91293511 270.6960367 493.91229931 C277.47093848 493.90884177 284.24579599 493.91468343 291.02069092 493.92408752 C299.27407248 493.93529175 307.52730182 493.93230076 315.78066587 493.91096455 C319.99382883 493.90043281 324.20673776 493.89636824 328.41989899 493.90956116 C332.27394116 493.92144726 336.12749293 493.91498573 339.98149037 493.89365095 C341.37846682 493.88916872 342.77548438 493.89148738 344.17243457 493.9011541 C346.0661509 493.913257 347.95998268 493.89849214 349.85366821 493.88227081 C350.90712244 493.8816214 351.96057667 493.88097199 353.04595375 493.88030291 C356.46294798 493.25125178 357.62277679 492.05200571 359.76953125 489.37890625 C361.28774676 485.92914491 360.66717148 483.62411138 359.47407532 480.20471191 C358.81544266 478.52118118 358.14240975 476.84324218 357.45825195 475.16992188 C357.09418747 474.250634 356.73012299 473.33134613 356.35502625 472.38420105 C355.14782948 469.34594087 353.9220646 466.31556792 352.6953125 463.28515625 C351.85061517 461.17470958 351.00681131 459.06390511 350.16386414 456.95275879 C348.3938135 452.52785655 346.61490192 448.10665571 344.8293457 443.68798828 C342.54261424 438.02781723 340.27500554 432.360227 338.01362324 426.689888 C336.27269592 422.3292086 334.52317593 417.97201854 332.770895 413.6158905 C331.93175058 411.5276441 331.09492222 409.43846544 330.26046181 407.3483429 C329.09137284 404.42469167 327.91116217 401.50578182 326.7277832 398.58789062 C326.3852652 397.72540207 326.04274719 396.86291351 325.68984985 395.97428894 C323.89601366 391.58695665 322.19113404 387.77373439 318.76953125 384.37890625 C315.8641852 383.40370622 313.1869724 383.25294457 310.13708591 383.2502718 C309.20562199 383.24704735 308.27415807 383.2438229 307.31446797 383.24050075 C305.78457254 383.24282365 305.78457254 383.24282365 304.22377014 383.24519348 C302.59459794 383.24179515 302.59459794 383.24179515 300.93251318 383.23832816 C297.28060029 383.23198061 293.62872444 383.23281801 289.97680664 383.23364258 C287.3636724 383.23065159 284.75053861 383.2272492 282.1374054 383.22346497 C275.76881339 383.2151573 269.40023065 383.21241008 263.03163368 383.21185259 C257.8558548 383.21137753 252.68007898 383.20932332 247.50430107 383.20615196 C232.83347788 383.19734549 218.162662 383.19273264 203.49183614 383.19348244 C202.30538775 383.19354237 202.30538775 383.19354237 201.0949707 383.19360352 C200.30304073 383.1936444 199.51111076 383.19368528 198.69518291 383.1937274 C185.8562809 383.19413399 173.0174082 383.1845612 160.17851467 383.17046515 C146.99902717 383.15610918 133.81955398 383.14919452 120.64005846 383.15005893 C113.2393717 383.15039114 105.83871568 383.14763334 98.43803596 383.13688087 C91.48022972 383.1268367 84.52248951 383.12710324 77.5646801 383.13439751 C75.00764751 383.13544647 72.45061092 383.1330621 69.89358521 383.12703705 C66.40973809 383.1193583 62.92611798 383.12393467 59.442276 383.13166809 C57.91572666 383.12395275 57.91572666 383.12395275 56.35833794 383.11608154 C49.81058275 383.07892001 49.81058275 383.07892001 43.76953125 385.37890625 Z " fill="#000000" transform="translate(74.23046875,0.62109375)"/>
<path d="M0 0 C0.90569733 -0.00426498 1.81139465 -0.00852997 2.74453735 -0.01292419 C3.74094238 -0.01247101 4.73734741 -0.01201782 5.76394653 -0.0115509 C7.33482529 -0.01658882 7.33482529 -0.01658882 8.93743896 -0.02172852 C12.41363701 -0.03125948 15.889787 -0.03318274 19.36599731 -0.03425598 C21.77494324 -0.03746718 24.18388897 -0.04083114 26.59283447 -0.04434204 C31.64857434 -0.05033876 36.70429711 -0.05218139 41.76004028 -0.05158997 C48.24575678 -0.05148834 54.73136382 -0.0651389 61.21705437 -0.08236217 C66.19438178 -0.09346851 71.17168261 -0.09550959 76.14902115 -0.09498024 C78.54047142 -0.09616249 80.93192233 -0.10059788 83.32336044 -0.10831261 C86.66561342 -0.1180844 90.00762739 -0.11524543 93.34988403 -0.10920715 C94.3422406 -0.11482666 95.33459717 -0.12044617 96.35702515 -0.12623596 C97.26836212 -0.12204147 98.1796991 -0.11784698 99.11865234 -0.11352539 C99.90879667 -0.11407016 100.698941 -0.11461493 101.5130291 -0.1151762 C104.01288817 0.17111325 105.56734819 0.78362035 107.68630981 2.13371277 C109.79843485 5.30190032 110.01787446 7.26590528 110.24490356 11.00090027 C109.30963815 14.57191367 107.59623482 15.89347155 104.68630981 18.13371277 C101.16208551 18.88133784 97.69222452 18.81693943 94.10037231 18.78068542 C93.03478088 18.78944702 91.96918945 18.79820862 90.87130737 18.80723572 C87.35089332 18.82923237 83.83173652 18.81467477 80.31130981 18.79777527 C77.8642045 18.80114329 75.41710081 18.80599579 72.97000122 18.81227112 C67.84207223 18.81964287 62.71457879 18.80892643 57.58670044 18.78556824 C51.01230196 18.75708121 44.43892402 18.77348343 37.86456299 18.80343056 C32.81163844 18.82149481 27.758956 18.8157493 22.70602417 18.8027916 C20.28190999 18.79945522 17.85777385 18.80355274 15.4336853 18.81518936 C12.04594668 18.82788279 8.65986263 18.80853936 5.27224731 18.78068542 C4.26949768 18.79080658 3.26674805 18.80092773 2.23361206 18.81135559 C-2.47541881 18.73959502 -4.61018804 18.67656982 -8.43600464 15.72438049 C-11.3301647 11.73126937 -11.00463961 9.97035872 -10.31369019 5.13371277 C-7.26203445 1.16656032 -4.8826195 0.01036561 0 0 Z " fill="#000000" transform="translate(206.31369018554688,408.8662872314453)"/>
<path d="M0 0 C0.71402481 -0.0065712 1.42804962 -0.0131424 2.16371155 -0.01991272 C4.5312612 -0.03965447 6.89874739 -0.05131037 9.26635742 -0.0612793 C10.07469213 -0.06535482 10.88302685 -0.06943035 11.71585655 -0.07362938 C15.99448771 -0.09449415 20.27308677 -0.10879392 24.55175781 -0.11816406 C28.97042843 -0.12922774 33.38859534 -0.16362558 37.8070879 -0.20333576 C41.20518426 -0.22948624 44.60316035 -0.23785449 48.0013485 -0.24144554 C49.6300363 -0.24631582 51.25871858 -0.25794244 52.88730812 -0.27648354 C55.16876705 -0.30084217 57.44891949 -0.29991666 59.73046875 -0.29296875 C61.02793533 -0.29883499 62.32540192 -0.30470123 63.66218567 -0.31074524 C67.62255207 0.25786757 69.25350321 1.38293799 72.05932617 4.17700195 C73.62868211 7.31571383 73.4113372 9.71556017 73.05932617 13.17700195 C70.42028037 16.62839618 68.9245648 18.01790125 64.60644531 18.81192017 C63.2694436 18.84141455 61.93166339 18.84373707 60.59448242 18.82397461 C59.49352737 18.837117 59.49352737 18.837117 58.37033081 18.8505249 C55.95355428 18.87246203 53.53862001 18.85798842 51.12182617 18.84106445 C49.43700816 18.84443427 47.75219252 18.84928828 46.06738281 18.8555603 C42.54004726 18.86292385 39.01334571 18.85224341 35.48608398 18.82885742 C30.96968623 18.80036922 26.45477406 18.81677607 21.93843079 18.84671974 C18.46045788 18.86480715 14.9828359 18.85902824 11.50485229 18.84608078 C9.83991316 18.84275072 8.17494193 18.84681982 6.51004028 18.85847855 C4.18056134 18.87121204 1.85347134 18.8517801 -0.47583008 18.82397461 C-1.1606546 18.83409576 -1.84547913 18.84421692 -2.55105591 18.85464478 C-6.31416482 18.77163022 -7.88521208 18.22092803 -10.87207031 15.85531616 C-12.94067383 13.17700195 -12.94067383 13.17700195 -13.50317383 9.67700195 C-12.85945164 5.67161944 -11.78121556 4.01754369 -8.94067383 1.17700195 C-5.97952148 -0.30357422 -3.30476205 0.02512028 0 0 Z " fill="#000000" transform="translate(225.940673828125,442.822998046875)"/>
</svg>
