<?xml version="1.0" encoding="UTF-8"?>
<!DOCTYPE svg PUBLIC "-//W3C//DTD SVG 1.1//EN" "http://www.w3.org/Graphics/SVG/1.1/DTD/svg11.dtd">
<svg xmlns="http://www.w3.org/2000/svg" version="1.1" width="512px" height="512px" style="shape-rendering:geometricPrecision; text-rendering:geometricPrecision; image-rendering:optimizeQuality; fill-rule:evenodd; clip-rule:evenodd" xmlns:xlink="http://www.w3.org/1999/xlink">
<g><path style="opacity:0.898" fill="#000000" d="M 262.5,23.5 C 265.518,23.3354 268.518,23.502 271.5,24C 282.663,30.0806 293.663,36.414 304.5,43C 307.902,46.9676 310.402,51.4676 312,56.5C 313.833,58.3333 315.667,60.1667 317.5,62C 325.558,63.712 333.558,65.712 341.5,68C 346.95,71.7938 350.45,76.9605 352,83.5C 354.34,104.164 347.84,121.33 332.5,135C 329.991,136.336 327.324,137.17 324.5,137.5C 319.214,136.107 314.381,133.774 310,130.5C 309.959,159.207 309.292,187.873 308,216.5C 302.936,236.463 292.436,252.963 276.5,266C 289.696,268.622 301.696,273.955 312.5,282C 319.906,288.977 324.572,297.477 326.5,307.5C 341.27,314.11 353.104,324.11 362,337.5C 364.466,342.232 366.133,347.232 367,352.5C 367.667,377.5 367.667,402.5 367,427.5C 362.92,443.922 353.753,456.755 339.5,466C 337.668,466.748 336.001,467.748 334.5,469C 327.718,470.63 325.052,468.13 326.5,461.5C 338.91,454.256 348.41,444.256 355,431.5C 356.595,417.556 356.928,403.556 356,389.5C 336.611,409.11 313.111,420.61 285.5,424C 253.743,428.708 222.743,425.708 192.5,415C 178.042,409.356 165.542,400.856 155,389.5C 146.993,419.526 155.827,442.693 181.5,459C 204.795,471.199 229.629,477.365 256,477.5C 268.923,476.798 281.756,475.632 294.5,474C 297.864,476.729 298.197,479.729 295.5,483C 260.163,490.837 225.497,488.504 191.5,476C 151.9,460.822 135.9,432.155 143.5,390C 135.462,350.909 149.296,323.075 185,306.5C 188.707,289.451 198.873,277.951 215.5,272C 220.511,270.33 225.511,268.663 230.5,267C 220.582,261.794 211.082,255.96 202,249.5C 195.466,239.837 193.133,229.171 195,217.5C 199.469,194.049 210.969,174.882 229.5,160C 235.338,156.221 241.671,153.721 248.5,152.5C 248.395,116.828 248.228,81.1609 248,45.5C 249.108,35.5954 253.941,28.262 262.5,23.5 Z M 265.5,34.5 C 273.365,37.1703 280.699,41.0036 287.5,46C 284.358,49.7848 281.858,53.9515 280,58.5C 279.833,94.1713 279.333,129.838 278.5,165.5C 272.003,162.086 265.67,158.419 259.5,154.5C 258.333,117.505 258.167,80.5045 259,43.5C 260.211,39.7209 262.377,36.7209 265.5,34.5 Z M 296.5,52.5 C 297.376,52.3691 298.043,52.7025 298.5,53.5C 305.228,69.8779 317.561,77.7112 335.5,77C 341.909,83.7006 343.742,91.5339 341,100.5C 338.631,110.915 333.465,119.581 325.5,126.5C 324.386,125.277 324.219,123.944 325,122.5C 328.215,117.404 330.881,112.071 333,106.5C 334.118,99.5697 331.618,94.403 325.5,91C 318.111,90.5189 310.945,89.0189 304,86.5C 302.527,86.9031 301.194,87.5697 300,88.5C 298.852,100.575 298.352,112.741 298.5,125C 299.144,151.167 299.311,177.334 299,203.5C 296.145,227.393 284.978,246.226 265.5,260C 258.464,264.818 251.131,265.485 243.5,262C 239.908,258.984 237.742,255.151 237,250.5C 236.612,220.771 249.112,198.271 274.5,183C 278.77,181.746 283.104,180.746 287.5,180C 288.701,179.097 289.535,177.931 290,176.5C 289.699,138.836 289.699,101.17 290,63.5C 291.564,59.4452 293.731,55.7786 296.5,52.5 Z M 309.5,99.5 C 313.415,100.267 317.415,100.767 321.5,101C 322.059,101.725 322.392,102.558 322.5,103.5C 319.158,108.851 316.324,114.518 314,120.5C 312.915,119.707 311.748,119.04 310.5,118.5C 309.504,112.202 309.17,105.868 309.5,99.5 Z M 249.5,162.5 C 256.48,165.292 263.147,168.792 269.5,173C 240.066,190.924 225.4,217.09 225.5,251.5C 221.167,249 216.833,246.5 212.5,244C 207.012,238.873 204.679,232.539 205.5,225C 207.356,200.946 218.023,181.946 237.5,168C 241.481,165.838 245.481,164.005 249.5,162.5 Z M 245.5,275.5 C 252.167,275.5 258.833,275.5 265.5,275.5C 265.667,286.172 265.5,296.839 265,307.5C 258.629,311.493 252.296,311.493 246,307.5C 245.5,296.839 245.333,286.172 245.5,275.5 Z M 232.5,277.5 C 234.315,288.121 235.148,299.121 235,310.5C 236.5,314.667 239.333,317.5 243.5,319C 253.988,322.96 263.821,321.793 273,315.5C 274.439,313.725 275.439,311.725 276,309.5C 276.168,298.818 276.668,288.151 277.5,277.5C 290.852,280.089 302.018,286.423 311,296.5C 316.719,309.27 313.553,319.436 301.5,327C 270.359,343.614 239.359,343.28 208.5,326C 192.522,313.236 192.522,300.569 208.5,288C 216.041,283.217 224.041,279.717 232.5,277.5 Z M 184.5,318.5 C 178.927,352.758 192.927,374.258 226.5,383C 253.527,389.789 279.527,387.122 304.5,375C 315.583,368.928 322.417,359.761 325,347.5C 325.168,338.149 325.668,328.816 326.5,319.5C 340.772,326.602 350.605,337.602 356,352.5C 357.89,367.89 352.723,380.39 340.5,390C 315.304,407.847 287.137,416.347 256,415.5C 227.813,416.212 201.647,409.379 177.5,395C 168.107,388.385 160.941,379.885 156,369.5C 152.07,354.459 155.903,341.793 167.5,331.5C 172.925,326.728 178.591,322.395 184.5,318.5 Z M 196.5,330.5 C 213.928,343.826 233.761,350.159 256,349.5C 273.171,349.832 289.337,345.999 304.5,338C 307.939,335.861 311.106,333.361 314,330.5C 316.967,350.54 308.8,363.706 289.5,370C 262.772,379.594 236.772,377.927 211.5,365C 198.504,357.16 193.504,345.66 196.5,330.5 Z"/></g>
<g><path style="opacity:0.84" fill="#000000" d="M 315.5,465.5 C 322.493,463.996 325.327,466.663 324,473.5C 319.469,476.237 314.636,478.404 309.5,480C 302.848,480.517 300.681,477.684 303,471.5C 307.174,469.393 311.341,467.393 315.5,465.5 Z"/></g>
</svg>
