<?xml version="1.0" encoding="UTF-8"?>
<!DOCTYPE svg PUBLIC "-//W3C//DTD SVG 1.1//EN" "http://www.w3.org/Graphics/SVG/1.1/DTD/svg11.dtd">
<svg xmlns="http://www.w3.org/2000/svg" version="1.1" width="512px" height="512px" style="shape-rendering:geometricPrecision; text-rendering:geometricPrecision; image-rendering:optimizeQuality; fill-rule:evenodd; clip-rule:evenodd" xmlns:xlink="http://www.w3.org/1999/xlink">
<g><path style="opacity:0.958" fill="#000000" d="M 144.5,7.5 C 152.16,6.36812 159.16,7.86812 165.5,12C 172.031,22.221 178.198,32.721 184,43.5C 200.251,67.085 219.918,87.4184 243,104.5C 244.861,106.888 246.194,109.554 247,112.5C 247.5,120.159 247.666,127.826 247.5,135.5C 235.829,135.333 224.162,135.5 212.5,136C 220.667,144.167 228.833,152.333 237,160.5C 242.567,167.971 246.234,176.304 248,185.5C 267.501,165.544 289.667,162.044 314.5,175C 316.641,176.308 318.641,177.808 320.5,179.5C 322.865,173.933 325.865,168.766 329.5,164C 323.662,143.51 329.662,127.51 347.5,116C 352.337,113.708 357.337,111.875 362.5,110.5C 374.473,89.4464 392.14,82.613 415.5,90C 424.971,94.3048 431.971,101.138 436.5,110.5C 462.376,117.214 473.876,133.881 471,160.5C 470.691,161.766 470.191,162.933 469.5,164C 480.417,177.924 482.417,193.09 475.5,209.5C 488.544,224.486 491.044,241.153 483,259.5C 480.382,264.451 476.716,268.451 472,271.5C 473.99,293.796 464.824,309.296 444.5,318C 431.442,321.404 419.276,319.57 408,312.5C 407.5,330.83 407.333,349.164 407.5,367.5C 423.719,368.067 434.052,376.067 438.5,391.5C 455.57,391.043 472.57,391.543 489.5,393C 504.045,401.843 507.545,414.009 500,429.5C 496.586,434.252 492.086,437.419 486.5,439C 452.167,439.333 417.833,439.667 383.5,440C 376.653,441.866 374.82,446.032 378,452.5C 378.75,453.126 379.584,453.626 380.5,454C 391.762,455.267 403.095,455.934 414.5,456C 429.758,462.356 434.925,473.523 430,489.5C 426.686,496.149 421.519,500.649 414.5,503C 305.833,503.667 197.167,503.667 88.5,503C 74.1697,497.34 68.8364,487.007 72.5,472C 56.5,471.667 40.5,471.333 24.5,471C 10.5184,465.543 5.01844,455.376 8,440.5C 10.3513,433.481 14.8513,428.314 21.5,425C 32.762,423.733 44.0954,423.066 55.5,423C 57.519,422.55 59.3523,421.717 61,420.5C 62.5444,414.024 64.5444,407.69 67,401.5C 71.8689,394.982 78.3689,391.482 86.5,391C 79.9127,381.144 77.746,370.311 80,358.5C 82.9814,345.538 90.4814,336.205 102.5,330.5C 107.334,308.323 121.001,296.657 143.5,295.5C 143.5,284.833 143.5,274.167 143.5,263.5C 114.167,263.5 84.8333,263.5 55.5,263.5C 53.438,248.406 57.2714,235.073 67,223.5C 74.8333,215.667 82.6667,207.833 90.5,200C 78.8381,199.5 67.1714,199.333 55.5,199.5C 53.7352,186.896 56.2352,175.229 63,164.5C 71.8029,154.696 80.9695,145.196 90.5,136C 78.8381,135.5 67.1714,135.333 55.5,135.5C 55.3336,127.826 55.5003,120.159 56,112.5C 56.7246,110.051 57.7246,107.717 59,105.5C 82.4154,88.0855 102.415,67.4188 119,43.5C 124.587,33.9941 129.92,24.3274 135,14.5C 138.068,11.9174 141.235,9.58407 144.5,7.5 Z M 149.5,24.5 C 151.722,24.178 153.556,24.8446 155,26.5C 172.111,61.8992 196.611,91.0659 228.5,114C 229.293,115.085 229.96,116.252 230.5,117.5C 212.175,118.44 193.841,119.107 175.5,119.5C 175.5,124.833 175.5,130.167 175.5,135.5C 179.514,135.334 183.514,135.501 187.5,136C 200,148.5 212.5,161 225,173.5C 227.027,176.221 228.527,179.221 229.5,182.5C 211.512,183.5 193.512,183.833 175.5,183.5C 175.5,188.833 175.5,194.167 175.5,199.5C 179.514,199.334 183.514,199.501 187.5,200C 199.667,212.167 211.833,224.333 224,236.5C 223.89,240.129 223.724,243.796 223.5,247.5C 173.496,247.833 123.496,247.5 73.5,246.5C 74.4728,243.221 75.9728,240.221 78,237.5C 90.5,225 103,212.5 115.5,200C 119.486,199.501 123.486,199.334 127.5,199.5C 127.5,194.167 127.5,188.833 127.5,183.5C 109.488,183.833 91.4877,183.5 73.5,182.5C 74.4728,179.221 75.9728,176.221 78,173.5C 90.5,161 103,148.5 115.5,136C 119.486,135.501 123.486,135.334 127.5,135.5C 127.5,130.167 127.5,124.833 127.5,119.5C 109.167,119.5 90.8333,119.5 72.5,119.5C 72.4914,117.692 72.9914,116.025 74,114.5C 106.605,90.7294 131.772,60.7294 149.5,24.5 Z M 393.5,104.5 C 410.901,103.234 420.901,111.234 423.5,128.5C 441.627,125.986 451.96,133.653 454.5,151.5C 454.483,157.867 452.483,163.534 448.5,168.5C 454.679,172.844 459.179,178.511 462,185.5C 462.826,190.589 462.492,195.589 461,200.5C 457.819,205.011 454.652,209.511 451.5,214C 457.275,217.318 462.442,221.485 467,226.5C 473.331,239.076 471.164,249.909 460.5,259C 457.006,260.579 453.673,262.413 450.5,264.5C 458.552,279.949 455.219,292.115 440.5,301C 425.283,305.308 414.783,300.141 409,285.5C 407.526,276.546 407.193,267.546 408,258.5C 417.977,245.689 428.143,233.022 438.5,220.5C 434.25,216.795 429.75,213.462 425,210.5C 419.102,217.285 413.436,224.285 408,231.5C 407.5,204.835 407.333,178.169 407.5,151.5C 402.167,151.5 396.833,151.5 391.5,151.5C 391.667,167.503 391.5,183.503 391,199.5C 385.633,192.091 379.799,185.091 373.5,178.5C 368.986,181.591 364.653,184.925 360.5,188.5C 370.857,201.022 381.023,213.689 391,226.5C 391.924,246.205 391.59,265.871 390,285.5C 384.217,300.141 373.717,305.308 358.5,301C 353.549,298.382 349.549,294.716 346.5,290C 348.758,284.051 350.258,277.884 351,271.5C 354.571,245.02 349.571,220.353 336,197.5C 335.507,190.798 336.84,184.465 340,178.5C 343.375,174.956 346.875,171.623 350.5,168.5C 339.766,151.619 343.099,138.452 360.5,129C 365.326,127.873 370.326,127.706 375.5,128.5C 376.625,116.724 382.625,108.724 393.5,104.5 Z M 279.5,184.5 C 294.727,182.698 307.227,187.698 317,199.5C 331.756,220.526 337.423,243.86 334,269.5C 331.483,290.374 322.317,307.541 306.5,321C 303.285,322.774 299.952,324.274 296.5,325.5C 295.334,305.842 295.167,286.175 296,266.5C 305.977,253.689 316.143,241.022 326.5,228.5C 322.25,224.795 317.75,221.462 313,218.5C 307.102,225.285 301.436,232.285 296,239.5C 295.5,231.507 295.334,223.507 295.5,215.5C 290.167,215.5 284.833,215.5 279.5,215.5C 279.667,235.503 279.5,255.503 279,275.5C 273.581,266.993 267.914,258.66 262,250.5C 257.195,253.479 252.695,256.813 248.5,260.5C 258.863,275.698 269.03,291.031 279,306.5C 279.831,312.859 279.664,319.193 278.5,325.5C 267.45,321.618 258.95,314.618 253,304.5C 239.874,280.062 236.874,254.395 244,227.5C 247.736,213.518 254.902,201.685 265.5,192C 270.101,189.202 274.768,186.702 279.5,184.5 Z M 212.5,200.5 C 220.656,199.343 228.99,199.177 237.5,200C 234.479,205.394 231.645,210.894 229,216.5C 223.631,210.964 218.131,205.63 212.5,200.5 Z M 159.5,263.5 C 180.833,263.5 202.167,263.5 223.5,263.5C 224.821,292.028 236.154,315.528 257.5,334C 264.147,338.408 271.314,341.575 279,343.5C 279.5,359.497 279.667,375.497 279.5,391.5C 269.161,391.666 258.828,391.5 248.5,391C 255.087,381.144 257.254,370.311 255,358.5C 251.44,343.939 242.606,334.106 228.5,329C 221.563,327.827 214.563,327.16 207.5,327C 199.584,316.375 188.918,311.042 175.5,311C 171.251,305.756 166.084,301.589 160,298.5C 159.5,286.838 159.333,275.171 159.5,263.5 Z M 338.5,308.5 C 349.327,318.209 361.993,321.709 376.5,319C 381.634,317.516 386.468,315.35 391,312.5C 391.667,326.833 391.667,341.167 391,355.5C 388.913,354.206 386.746,353.039 384.5,352C 371.585,336.016 355.251,331.349 335.5,338C 321.586,344.921 313.419,356.088 311,371.5C 303.377,376.133 298.377,382.8 296,391.5C 295.333,375.5 295.333,359.5 296,343.5C 315.755,338.575 329.922,326.908 338.5,308.5 Z M 136.5,312.5 C 150.234,310.533 160.234,315.7 166.5,328C 178.059,326.183 187.559,329.683 195,338.5C 196.579,341.994 198.413,345.327 200.5,348.5C 217.532,339.594 230.032,343.927 238,361.5C 239.248,368.215 238.248,374.548 235,380.5C 231.807,383.725 228.974,387.225 226.5,391C 187.5,391.667 148.5,391.667 109.5,391C 105.286,386.454 101.453,381.621 98,376.5C 93.7525,357.57 101.253,346.57 120.5,343.5C 118.214,329.068 123.548,318.734 136.5,312.5 Z M 344.5,352.5 C 357.701,350.434 367.367,355.267 373.5,367C 379.234,367.784 384.068,370.284 388,374.5C 389.834,379.171 391.667,383.838 393.5,388.5C 403.328,382.35 412.328,383.183 420.5,391C 385.495,391.833 350.495,391.667 315.5,390.5C 318.811,386.344 323.144,384.01 328.5,383.5C 326.214,369.068 331.548,358.734 344.5,352.5 Z M 87.5,407.5 C 218.167,407.333 348.834,407.5 479.5,408C 486.347,409.866 488.18,414.032 485,420.5C 483.352,421.717 481.519,422.55 479.5,423C 444.107,423.02 408.773,423.686 373.5,425C 361.23,431.541 356.897,441.541 360.5,455C 354.843,455.499 349.176,455.666 343.5,455.5C 343.5,460.833 343.5,466.167 343.5,471.5C 364.836,471.333 386.169,471.5 407.5,472C 414.347,473.866 416.18,478.032 413,484.5C 411.352,485.717 409.519,486.55 407.5,487C 303.5,487.667 199.5,487.667 95.5,487C 88.6531,485.134 86.8197,480.968 90,474.5C 91.6477,473.283 93.481,472.45 95.5,472C 111.497,471.5 127.497,471.333 143.5,471.5C 143.5,466.167 143.5,460.833 143.5,455.5C 106.165,455.667 68.8318,455.5 31.5,455C 24.6531,453.134 22.8197,448.968 26,442.5C 26.7504,441.874 27.5838,441.374 28.5,441C 39.762,439.733 51.0954,439.066 62.5,439C 69.5192,436.649 74.6859,432.149 78,425.5C 78.8749,420.367 80.2082,415.367 82,410.5C 83.8761,409.391 85.7095,408.391 87.5,407.5 Z"/></g>
<g><path style="opacity:0.972" fill="#000000" d="M 143.5,423.5 C 155.171,423.333 166.838,423.5 178.5,424C 187.705,428.395 192.705,435.728 193.5,446C 203.395,447.449 213.395,447.949 223.5,447.5C 223.5,452.833 223.5,458.167 223.5,463.5C 211.829,463.667 200.162,463.5 188.5,463C 179.295,458.605 174.295,451.272 173.5,441C 163.605,439.551 153.605,439.051 143.5,439.5C 143.5,434.167 143.5,428.833 143.5,423.5 Z"/></g>
</svg>
