<?xml version="1.0" encoding="UTF-8"?>
<!DOCTYPE svg PUBLIC "-//W3C//DTD SVG 1.1//EN" "http://www.w3.org/Graphics/SVG/1.1/DTD/svg11.dtd">
<svg xmlns="http://www.w3.org/2000/svg" version="1.1" width="512px" height="512px" style="shape-rendering:geometricPrecision; text-rendering:geometricPrecision; image-rendering:optimizeQuality; fill-rule:evenodd; clip-rule:evenodd" xmlns:xlink="http://www.w3.org/1999/xlink">
<g><path style="opacity:0.929" fill="#000000" d="M 369.5,-0.5 C 378.5,-0.5 387.5,-0.5 396.5,-0.5C 442.443,9.95465 467.11,38.788 470.5,86C 470.025,101.401 466.192,115.901 459,129.5C 436.081,167.668 413.415,206.002 391,244.5C 384.538,251.356 378.872,250.69 374,242.5C 352,205.167 330,167.833 308,130.5C 288.173,90.6402 293.34,54.4735 323.5,22C 336.913,10.4595 352.247,2.95949 369.5,-0.5 Z M 380.5,15.5 C 418.123,17.2965 441.956,36.2965 452,72.5C 454.767,88.1324 452.767,103.132 446,117.5C 425,152.833 404,188.167 383,223.5C 362.919,189.002 342.585,154.668 322,120.5C 306.436,86.9894 311.936,57.4894 338.5,32C 350.923,22.2811 364.923,16.7811 380.5,15.5 Z M 377.5,56.5 C 394.98,55.3163 406.48,62.983 412,79.5C 414.473,97.7322 406.973,109.566 389.5,115C 371.117,117.059 359.283,109.225 354,91.5C 352.891,73.6918 360.725,62.0251 377.5,56.5 Z"/></g>
<g><path style="opacity:0.929" fill="#000000" d="M 375.5,39.5 C 412.972,39.4711 430.805,58.1378 429,95.5C 421.084,122.721 402.917,134.888 374.5,132C 347.679,124.831 335.179,107.331 337,79.5C 341.565,58.1033 354.398,44.77 375.5,39.5 Z M 377.5,56.5 C 360.725,62.0251 352.891,73.6918 354,91.5C 359.283,109.225 371.117,117.059 389.5,115C 406.973,109.566 414.473,97.7322 412,79.5C 406.48,62.983 394.98,55.3163 377.5,56.5 Z"/></g>
<g><path style="opacity:0.952" fill="#000000" d="M 141.5,95.5 C 185.501,95.3333 229.501,95.5 273.5,96C 277.819,97.1229 279.819,99.9562 279.5,104.5C 279.721,107.791 278.387,110.291 275.5,112C 231.5,112.333 187.5,112.667 143.5,113C 140.804,113.69 138.637,115.19 137,117.5C 136.5,232.5 136.333,347.5 136.5,462.5C 151.833,462.5 167.167,462.5 182.5,462.5C 182.333,430.165 182.5,397.832 183,365.5C 185.391,355.442 191.557,348.942 201.5,346C 237.5,345.333 273.5,345.333 309.5,346C 319.895,349.06 326.062,355.893 328,366.5C 328.5,398.498 328.667,430.498 328.5,462.5C 343.833,462.5 359.167,462.5 374.5,462.5C 374.333,400.499 374.5,338.499 375,276.5C 377.884,270.457 382.384,268.957 388.5,272C 389.701,272.903 390.535,274.069 391,275.5C 391.667,341.5 391.667,407.5 391,473.5C 390.215,475.286 389.049,476.786 387.5,478C 299.5,478.667 211.5,478.667 123.5,478C 122.667,477.167 121.833,476.333 121,475.5C 119.337,355.247 119.004,234.914 120,114.5C 123.465,103.868 130.632,97.5351 141.5,95.5 Z M 208.5,361.5 C 221.167,361.5 233.833,361.5 246.5,361.5C 246.5,395.167 246.5,428.833 246.5,462.5C 230.833,462.5 215.167,462.5 199.5,462.5C 199.333,431.165 199.5,399.832 200,368.5C 201.84,364.815 204.673,362.482 208.5,361.5 Z M 263.5,361.5 C 276.504,361.333 289.504,361.5 302.5,362C 305.458,362.229 307.958,363.396 310,365.5C 311.478,397.771 311.978,430.104 311.5,462.5C 295.5,462.5 279.5,462.5 263.5,462.5C 263.5,428.833 263.5,395.167 263.5,361.5 Z"/></g>
<g><path style="opacity:0.938" fill="#000000" d="M 175.5,140.5 C 193.503,140.333 211.503,140.5 229.5,141C 232.276,141.066 234.442,142.232 236,144.5C 237.64,163.076 237.974,181.743 237,200.5C 236.167,203.333 234.333,205.167 231.5,206C 212.167,206.667 192.833,206.667 173.5,206C 172.069,205.535 170.903,204.701 170,203.5C 168.359,184.257 168.025,164.923 169,145.5C 170.563,142.977 172.73,141.31 175.5,140.5 Z M 185.5,157.5 C 197.167,157.5 208.833,157.5 220.5,157.5C 220.5,168.167 220.5,178.833 220.5,189.5C 208.833,189.5 197.167,189.5 185.5,189.5C 185.5,178.833 185.5,168.167 185.5,157.5 Z"/></g>
<g><path style="opacity:0.927" fill="#000000" d="M 281.5,140.5 C 285.559,140.72 288.392,142.72 290,146.5C 290.5,160.829 290.667,175.163 290.5,189.5C 297.508,189.334 304.508,189.5 311.5,190C 316.069,192.541 317.569,196.375 316,201.5C 315.167,203.667 313.667,205.167 311.5,206C 300.833,206.667 290.167,206.667 279.5,206C 276.667,205.167 274.833,203.333 274,200.5C 273.333,182.5 273.333,164.5 274,146.5C 275.542,143.108 278.042,141.108 281.5,140.5 Z"/></g>
<g><path style="opacity:0.936" fill="#000000" d="M 174.5,237.5 C 193.503,237.333 212.503,237.5 231.5,238C 233.286,238.785 234.786,239.951 236,241.5C 237.64,260.076 237.974,278.743 237,297.5C 236.215,299.286 235.049,300.786 233.5,302C 213.923,303.642 194.256,303.975 174.5,303C 172.671,302.727 171.171,301.893 170,300.5C 168.359,281.257 168.025,261.923 169,242.5C 170.107,239.887 171.94,238.22 174.5,237.5 Z M 185.5,254.5 C 197.167,254.5 208.833,254.5 220.5,254.5C 220.5,265.167 220.5,275.833 220.5,286.5C 208.833,286.5 197.167,286.5 185.5,286.5C 185.5,275.833 185.5,265.167 185.5,254.5 Z"/></g>
<g><path style="opacity:0.937" fill="#000000" d="M 279.5,237.5 C 298.503,237.333 317.503,237.5 336.5,238C 338.329,238.273 339.829,239.107 341,240.5C 342.641,259.743 342.975,279.077 342,298.5C 341.535,299.931 340.701,301.097 339.5,302C 319.565,303.63 299.565,303.964 279.5,303C 277.714,302.215 276.214,301.049 275,299.5C 273.36,280.924 273.026,262.257 274,243.5C 275.36,240.977 277.193,238.977 279.5,237.5 Z M 290.5,254.5 C 302.167,254.5 313.833,254.5 325.5,254.5C 325.5,265.167 325.5,275.833 325.5,286.5C 313.833,286.5 302.167,286.5 290.5,286.5C 290.5,275.833 290.5,265.167 290.5,254.5 Z"/></g>
<g><path style="opacity:0.965" fill="#000000" d="M 511.5,482.5 C 511.5,485.833 511.5,489.167 511.5,492.5C 508.94,502.061 502.94,508.395 493.5,511.5C 334.833,511.5 176.167,511.5 17.5,511.5C 8.06043,508.395 2.06043,502.061 -0.5,492.5C -0.5,489.167 -0.5,485.833 -0.5,482.5C 13.0119,449.157 26.8452,415.823 41,382.5C 44.4136,377.748 48.9136,374.581 54.5,373C 68.1938,371.061 81.8604,371.061 95.5,373C 100.82,378.374 100.487,383.374 94.5,388C 83.1667,388.333 71.8333,388.667 60.5,389C 58.1523,389.346 56.3189,390.513 55,392.5C 42.6667,422.5 30.3333,452.5 18,482.5C 15.3926,487.133 16.226,490.967 20.5,494C 98.7902,495.161 177.124,495.661 255.5,495.5C 333.876,495.661 412.21,495.161 490.5,494C 494.774,490.967 495.607,487.133 493,482.5C 480.667,452.5 468.333,422.5 456,392.5C 454.681,390.513 452.848,389.346 450.5,389C 439.167,388.667 427.833,388.333 416.5,388C 410.393,383.442 410.06,378.442 415.5,373C 429.14,371.061 442.806,371.061 456.5,373C 462.086,374.581 466.586,377.748 470,382.5C 484.152,415.812 497.985,449.146 511.5,482.5 Z"/></g>
</svg>
