<?xml version="1.0" encoding="UTF-8"?>
<!DOCTYPE svg PUBLIC "-//W3C//DTD SVG 1.1//EN" "http://www.w3.org/Graphics/SVG/1.1/DTD/svg11.dtd">
<svg xmlns="http://www.w3.org/2000/svg" version="1.1" width="512px" height="512px" style="shape-rendering:geometricPrecision; text-rendering:geometricPrecision; image-rendering:optimizeQuality; fill-rule:evenodd; clip-rule:evenodd" xmlns:xlink="http://www.w3.org/1999/xlink">
<g><path style="opacity:0.934" fill="#000000" d="M 511.5,50.5 C 511.5,54.8333 511.5,59.1667 511.5,63.5C 506.851,87.6059 498.684,110.606 487,132.5C 482.956,138.184 478.289,138.851 473,134.5C 471.578,131.97 471.245,129.303 472,126.5C 477.274,115.619 482.274,104.619 487,93.5C 490.444,83.7246 492.944,73.7246 494.5,63.5C 463.049,69.7284 434.382,82.2284 408.5,101C 366.827,131.003 334.993,169.169 313,215.5C 309.097,223.87 306.43,232.537 305,241.5C 348.5,198 392,154.5 435.5,111C 445.68,107.34 449.846,110.84 448,121.5C 403.833,165.667 359.667,209.833 315.5,254C 340.828,247.337 364.161,236.337 385.5,221C 413.833,200.667 438.167,176.333 458.5,148C 465.851,144.841 470.184,147.175 471.5,155C 458.991,175.525 443.491,193.692 425,209.5C 423.413,247.147 423.079,284.814 424,322.5C 424.204,351.576 425.704,380.576 428.5,409.5C 450.169,409.333 471.836,409.5 493.5,410C 495.329,410.273 496.829,411.107 498,412.5C 499.743,415.957 500.743,419.623 501,423.5C 503.096,437.508 501.096,450.841 495,463.5C 487.624,474.107 477.458,479.94 464.5,481C 351.167,481.667 237.833,481.667 124.5,481C 114.22,478.444 106.386,472.611 101,463.5C 92.0923,445.54 86.759,426.54 85,406.5C 83.3365,394.542 82.6698,382.542 83,370.5C 87.2552,365.563 91.9219,365.229 97,369.5C 98.7205,383.803 100.387,398.136 102,412.5C 103.927,428.891 108.927,444.224 117,458.5C 123.892,465.582 132.058,467.415 141.5,464C 151.68,460.491 157.18,453.325 158,442.5C 158.462,433.439 158.128,424.439 157,415.5C 158.26,412.572 160.427,410.739 163.5,410C 246.499,409.5 329.499,409.333 412.5,409.5C 409.718,380.911 408.218,352.244 408,323.5C 407.443,290.488 407.443,257.488 408,224.5C 384.494,242.674 358.661,256.841 330.5,267C 318.732,270.687 306.732,273.354 294.5,275C 286.5,283 278.5,291 270.5,299C 261.211,301.29 257.378,297.79 259,288.5C 266.636,279.863 274.636,271.53 283,263.5C 284.043,260.243 284.543,256.91 284.5,253.5C 232.166,253.667 179.832,253.5 127.5,253C 122.931,250.459 121.431,246.625 123,241.5C 124.214,239.951 125.714,238.785 127.5,238C 181.17,237.833 234.836,237.333 288.5,236.5C 290.769,228.694 293.435,221.027 296.5,213.5C 239.836,212.667 183.17,212.167 126.5,212C 121.554,207.7 121.221,203.033 125.5,198C 126.5,197.667 127.5,197.333 128.5,197C 187.167,196.667 245.833,196.333 304.5,196C 308.41,187.508 313.076,179.508 318.5,172C 254.5,171.667 190.5,171.333 126.5,171C 122.018,167.295 121.351,162.962 124.5,158C 126.087,157.138 127.754,156.471 129.5,156C 196.502,155.833 263.502,155.333 330.5,154.5C 349.914,128.418 372.914,106.085 399.5,87.5C 397.186,73.3794 391.519,60.8794 382.5,50C 380.112,48.1395 377.446,46.8061 374.5,46C 273.833,45.3333 173.167,45.3333 72.5,46C 80.5952,57.9408 85.7619,71.1075 88,85.5C 91.6462,104.67 93.9795,124.003 95,143.5C 96.5777,211.49 96.9111,279.49 96,347.5C 91.8613,353.796 87.1946,354.129 82,348.5C 81.6667,347.167 81.3333,345.833 81,344.5C 80.6667,286.5 80.3333,228.5 80,170.5C 79.4935,147.375 77.6602,124.375 74.5,101.5C 52.1642,101.667 29.8308,101.5 7.5,101C 5.15226,100.654 3.31892,99.4875 2,97.5C 1.15876,94.3718 0.325426,91.3718 -0.5,88.5C -0.5,80.5 -0.5,72.5 -0.5,64.5C 3.2674,43.9299 15.6007,32.4299 36.5,30C 149.833,29.3333 263.167,29.3333 376.5,30C 390.64,33.4708 400.474,41.9708 406,55.5C 409.262,62.9524 411.929,70.619 414,78.5C 440.747,60.7966 470.08,50.1299 502,46.5C 506.156,45.8356 509.323,47.1689 511.5,50.5 Z M 36.5,45.5 C 46.4672,43.8763 54.3005,47.2097 60,55.5C 65.1002,64.628 68.9335,74.2946 71.5,84.5C 52.8452,85.4996 34.1786,85.8329 15.5,85.5C 15.3337,78.825 15.5004,72.1583 16,65.5C 18.7918,54.5398 25.6252,47.8731 36.5,45.5 Z M 174.5,425.5 C 278.167,425.5 381.833,425.5 485.5,425.5C 485.666,431.842 485.5,438.175 485,444.5C 482.833,456 476,462.833 464.5,465C 365.167,465.667 265.833,465.667 166.5,465C 169.625,460.637 171.792,455.804 173,450.5C 174.287,442.219 174.787,433.886 174.5,425.5 Z"/></g>
<g><path style="opacity:0.93" fill="#000000" d="M 126.5,111.5 C 163.502,111.333 200.502,111.5 237.5,112C 240.366,113.393 241.699,115.726 241.5,119C 241.668,123.833 239.335,126.5 234.5,127C 199.5,127.667 164.5,127.667 129.5,127C 123.347,125.535 121.18,121.702 123,115.5C 124.032,113.973 125.199,112.64 126.5,111.5 Z"/></g>
<g><path style="opacity:0.922" fill="#000000" d="M 315.5,363.5 C 336.503,363.333 357.503,363.5 378.5,364C 382.753,367.42 383.587,371.587 381,376.5C 379.829,377.893 378.329,378.727 376.5,379C 356.833,379.667 337.167,379.667 317.5,379C 312.094,377.02 310.261,373.186 312,367.5C 313.376,366.295 314.542,364.962 315.5,363.5 Z"/></g>
</svg>
