<?xml version="1.0" encoding="UTF-8"?>
<!DOCTYPE svg PUBLIC "-//W3C//DTD SVG 1.1//EN" "http://www.w3.org/Graphics/SVG/1.1/DTD/svg11.dtd">
<svg xmlns="http://www.w3.org/2000/svg" version="1.1" width="512px" height="512px" style="shape-rendering:geometricPrecision; text-rendering:geometricPrecision; image-rendering:optimizeQuality; fill-rule:evenodd; clip-rule:evenodd" xmlns:xlink="http://www.w3.org/1999/xlink">
<g><path style="opacity:0.932" fill="#000000" d="M 511.5,335.5 C 511.5,338.5 511.5,341.5 511.5,344.5C 506.412,351.434 501.079,358.267 495.5,365C 491.5,367 487.5,367 483.5,365C 476.976,359.642 470.31,354.475 463.5,349.5C 462.5,397.162 462.167,444.829 462.5,492.5C 471.608,492.057 480.608,492.557 489.5,494C 493.862,500.251 492.529,504.917 485.5,508C 327.833,508.667 170.167,508.667 12.5,508C 7.61074,507.444 4.11074,504.944 2,500.5C 0.442547,490.894 0.109214,481.228 1,471.5C 1.13345,468.475 2.13345,465.808 4,463.5C 3.68967,448.344 10.1897,437.344 23.5,430.5C 27.4413,417.058 35.608,407.058 48,400.5C 48.6667,319.833 48.6667,239.167 48,158.5C 41.5,163.667 35,168.833 28.5,174C 21.3779,177.853 15.5445,176.353 11,169.5C 7.30312,164.315 3.46979,159.315 -0.5,154.5C -0.5,151.5 -0.5,148.5 -0.5,145.5C 0.93142,143.563 2.59809,141.73 4.5,140C 20.9523,127.883 37.1189,115.383 53,102.5C 53.833,82.8249 53.6664,63.1582 52.5,43.5C 47.015,41.8476 43.8484,38.1809 43,32.5C 42.3333,26.1667 42.3333,19.8333 43,13.5C 44.0095,9.15711 46.5095,5.99044 50.5,4C 74.1667,3.33333 97.8333,3.33333 121.5,4C 124.171,5.24999 126.337,7.08333 128,9.5C 130,18.8333 130,28.1667 128,37.5C 125.933,40.07 123.433,42.07 120.5,43.5C 119.167,45.8333 119.167,48.1667 120.5,50.5C 135.654,38.7567 150.988,27.2567 166.5,16C 173.468,13.6302 180.135,14.2968 186.5,18C 239.167,58.6667 291.833,99.3333 344.5,140C 349.596,144.248 350.763,149.415 348,155.5C 343.194,162.273 338.028,168.773 332.5,175C 328.422,176.66 324.422,176.327 320.5,174C 314,168.833 307.5,163.667 301,158.5C 300.667,164.167 300.333,169.833 300,175.5C 293.45,181.577 288.45,180.577 285,172.5C 284.667,163.5 284.333,154.5 284,145.5C 247.496,117.252 210.829,89.2523 174,61.5C 137.941,89.4493 101.774,117.283 65.5,145C 64.5016,228.763 64.1683,312.596 64.5,396.5C 83.3344,395.418 98.0011,402.585 108.5,418C 114.867,418.514 121.2,418.847 127.5,419C 146.481,400.927 167.481,398.261 190.5,411C 206.448,423.176 212.782,439.176 209.5,459C 218.641,457.094 225.141,460.261 229,468.5C 229.5,476.493 229.666,484.493 229.5,492.5C 248.167,492.5 266.833,492.5 285.5,492.5C 285.333,452.165 285.5,411.832 286,371.5C 287.5,367.333 290.333,364.5 294.5,363C 322.833,362.333 351.167,362.333 379.5,363C 383.058,364.892 385.558,367.725 387,371.5C 387.667,396.5 387.667,421.5 387,446.5C 381.535,453.385 376.535,453.052 372,445.5C 371.5,423.169 371.333,400.836 371.5,378.5C 348.167,378.5 324.833,378.5 301.5,378.5C 301.5,416.5 301.5,454.5 301.5,492.5C 324.833,492.5 348.167,492.5 371.5,492.5C 371.334,486.824 371.501,481.157 372,475.5C 375.071,470.701 379.238,469.535 384.5,472C 385.701,472.903 386.535,474.069 387,475.5C 387.499,481.157 387.666,486.824 387.5,492.5C 407.167,492.5 426.833,492.5 446.5,492.5C 446.667,440.499 446.5,388.499 446,336.5C 409.833,308.333 373.667,280.167 337.5,252C 336.833,251.333 336.167,251.333 335.5,252C 286.527,290.484 237.194,328.484 187.5,366C 182.563,367.369 178.396,366.203 175,362.5C 171,357.167 167,351.833 163,346.5C 159.822,339.149 161.655,333.316 168.5,329C 207.271,299.529 245.771,269.696 284,239.5C 284.333,228.167 284.667,216.833 285,205.5C 288.555,197.589 293.555,196.589 300,202.5C 300.168,210.521 300.668,218.521 301.5,226.5C 310.301,218.934 319.634,212.1 329.5,206C 336.566,204.011 343.233,205.011 349.5,209C 403.686,251.03 457.686,293.197 511.5,335.5 Z M 58.5,18.5 C 76.8333,18.5 95.1667,18.5 113.5,18.5C 113.5,21.8333 113.5,25.1667 113.5,28.5C 95.1667,28.5 76.8333,28.5 58.5,28.5C 58.5,25.1667 58.5,21.8333 58.5,18.5 Z M 172.5,30.5 C 176.643,31.2381 180.31,33.0714 183.5,36C 232.833,74.3333 282.167,112.667 331.5,151C 329.548,153.074 327.715,155.241 326,157.5C 278.5,120.667 231,83.8333 183.5,47C 181.037,44.435 178.037,42.935 174.5,42.5C 172.701,42.577 171.034,43.077 169.5,44C 120.938,82.1961 72.1044,120.029 23,157.5C 20.8104,155.612 18.9771,153.445 17.5,151C 69.2356,110.813 120.902,70.6468 172.5,30.5 Z M 69.5,43.5 C 80.8333,43.5 92.1667,43.5 103.5,43.5C 103.83,50.5316 103.497,57.5316 102.5,64.5C 91.7568,72.9544 80.9235,81.2877 70,89.5C 69.5001,74.1703 69.3334,58.837 69.5,43.5 Z M 139.5,130.5 C 148.5,130.5 157.5,130.5 166.5,130.5C 166.5,140.5 166.5,150.5 166.5,160.5C 157.5,160.5 148.5,160.5 139.5,160.5C 139.5,150.5 139.5,140.5 139.5,130.5 Z M 182.5,130.5 C 191.5,130.5 200.5,130.5 209.5,130.5C 209.5,140.5 209.5,150.5 209.5,160.5C 200.5,160.5 191.5,160.5 182.5,160.5C 182.5,150.5 182.5,140.5 182.5,130.5 Z M 139.5,219.5 C 148.5,219.5 157.5,219.5 166.5,219.5C 166.5,229.167 166.5,238.833 166.5,248.5C 157.5,248.5 148.5,248.5 139.5,248.5C 139.5,238.833 139.5,229.167 139.5,219.5 Z M 182.5,219.5 C 191.5,219.5 200.5,219.5 209.5,219.5C 209.5,229.167 209.5,238.833 209.5,248.5C 200.5,248.5 191.5,248.5 182.5,248.5C 182.5,238.833 182.5,229.167 182.5,219.5 Z M 335.5,220.5 C 339.612,222.728 343.612,225.228 347.5,228C 395.881,266.049 444.548,303.716 493.5,341C 491.931,344.262 489.597,346.262 486.5,347C 438.5,309.667 390.5,272.333 342.5,235C 339.298,233.517 335.964,233.183 332.5,234C 283.062,271.804 233.895,309.971 185,348.5C 183.71,346.208 182.043,344.208 180,342.5C 179.312,341.668 179.479,341.002 180.5,340.5C 232.209,300.445 283.876,260.445 335.5,220.5 Z M 62.5,412.5 C 79.8501,411.258 92.0168,418.591 99,434.5C 99.7504,435.126 100.584,435.626 101.5,436C 106.558,436.263 111.558,435.763 116.5,434.5C 128.323,435.322 134.99,441.655 136.5,453.5C 135.652,455.409 135.318,457.409 135.5,459.5C 129.491,459.334 123.491,459.501 117.5,460C 111.589,466.445 112.589,471.445 120.5,475C 151.498,475.5 182.498,475.667 213.5,475.5C 213.5,481.167 213.5,486.833 213.5,492.5C 147.833,492.5 82.1667,492.5 16.5,492.5C 16.5,486.833 16.5,481.167 16.5,475.5C 39.8357,475.667 63.169,475.5 86.5,475C 94.4111,471.445 95.4111,466.445 89.5,460C 66.5024,459.5 43.5024,459.333 20.5,459.5C 20.8954,456.314 21.8954,453.314 23.5,450.5C 27.486,447.001 31.986,444.334 37,442.5C 39.3168,427.032 47.8168,417.032 62.5,412.5 Z M 162.5,418.5 C 178.509,420.019 189.009,428.352 194,443.5C 194.676,448.871 194.509,454.204 193.5,459.5C 179.5,459.5 165.5,459.5 151.5,459.5C 153.292,447.376 149.959,436.876 141.5,428C 147.61,422.607 154.61,419.44 162.5,418.5 Z"/></g>
<g><path style="opacity:0.944" fill="#000000" d="M 135.5,114.5 C 161.502,114.333 187.502,114.5 213.5,115C 219.127,115.957 222.96,119.124 225,124.5C 225.667,168.167 225.667,211.833 225,255.5C 223.5,259.667 220.667,262.5 216.5,264C 188.167,264.667 159.833,264.667 131.5,264C 127.942,262.108 125.442,259.275 124,255.5C 123.333,211.833 123.333,168.167 124,124.5C 126.158,119.171 129.992,115.838 135.5,114.5 Z M 139.5,130.5 C 139.5,140.5 139.5,150.5 139.5,160.5C 148.5,160.5 157.5,160.5 166.5,160.5C 166.5,150.5 166.5,140.5 166.5,130.5C 157.5,130.5 148.5,130.5 139.5,130.5 Z M 182.5,130.5 C 182.5,140.5 182.5,150.5 182.5,160.5C 191.5,160.5 200.5,160.5 209.5,160.5C 209.5,150.5 209.5,140.5 209.5,130.5C 200.5,130.5 191.5,130.5 182.5,130.5 Z M 139.5,176.5 C 148.5,176.5 157.5,176.5 166.5,176.5C 166.5,185.5 166.5,194.5 166.5,203.5C 157.5,203.5 148.5,203.5 139.5,203.5C 139.5,194.5 139.5,185.5 139.5,176.5 Z M 182.5,176.5 C 191.5,176.5 200.5,176.5 209.5,176.5C 209.5,185.5 209.5,194.5 209.5,203.5C 200.5,203.5 191.5,203.5 182.5,203.5C 182.5,194.5 182.5,185.5 182.5,176.5 Z M 139.5,219.5 C 139.5,229.167 139.5,238.833 139.5,248.5C 148.5,248.5 157.5,248.5 166.5,248.5C 166.5,238.833 166.5,229.167 166.5,219.5C 157.5,219.5 148.5,219.5 139.5,219.5 Z M 182.5,219.5 C 182.5,229.167 182.5,238.833 182.5,248.5C 191.5,248.5 200.5,248.5 209.5,248.5C 209.5,238.833 209.5,229.167 209.5,219.5C 200.5,219.5 191.5,219.5 182.5,219.5 Z"/></g>
<g><path style="opacity:0.909" fill="#000000" d="M 309.5,414.5 C 313.954,413.617 317.454,414.95 320,418.5C 320.667,427.167 320.667,435.833 320,444.5C 315.333,449.833 310.667,449.833 306,444.5C 304.477,436.898 304.144,429.232 305,421.5C 305.545,418.473 307.045,416.14 309.5,414.5 Z"/></g>
</svg>
