<?xml version="1.0" encoding="UTF-8"?>
<!DOCTYPE svg PUBLIC "-//W3C//DTD SVG 1.1//EN" "http://www.w3.org/Graphics/SVG/1.1/DTD/svg11.dtd">
<svg xmlns="http://www.w3.org/2000/svg" version="1.1" width="512px" height="512px" style="shape-rendering:geometricPrecision; text-rendering:geometricPrecision; image-rendering:optimizeQuality; fill-rule:evenodd; clip-rule:evenodd" xmlns:xlink="http://www.w3.org/1999/xlink">
<g><path style="opacity:0.937" fill="#000000" d="M 511.5,441.5 C 511.5,444.167 511.5,446.833 511.5,449.5C 510.36,450.801 509.027,451.968 507.5,453C 339.5,453.667 171.5,453.667 3.5,453C 1.97331,451.968 0.639972,450.801 -0.5,449.5C -0.5,446.833 -0.5,444.167 -0.5,441.5C 1.01027,440.164 2.67694,438.997 4.5,438C 27.5,437.667 50.5,437.333 73.5,437C 71.2175,433.488 69.7175,429.655 69,425.5C 68.3333,399.167 68.3333,372.833 69,346.5C 74,339.833 79,339.833 84,346.5C 84.3333,371.833 84.6667,397.167 85,422.5C 86.2822,428.113 89.4488,432.28 94.5,435C 144.442,436.653 194.442,436.986 244.5,436C 252.559,433.94 257.059,428.774 258,420.5C 258.667,392.167 258.667,363.833 258,335.5C 250.163,332.33 245.163,326.663 243,318.5C 242.5,300.17 242.333,281.836 242.5,263.5C 240.5,263.5 238.5,263.5 236.5,263.5C 236.666,270.841 236.5,278.174 236,285.5C 230.821,301.674 219.988,307.174 203.5,302C 197.099,298.256 192.932,292.756 191,285.5C 190.5,278.174 190.334,270.841 190.5,263.5C 159.165,263.333 127.832,263.5 96.5,264C 90.7254,266.384 86.892,270.551 85,276.5C 84.6667,291.833 84.3333,307.167 84,322.5C 81.5647,327.224 77.7314,328.724 72.5,327C 70.9512,325.786 69.7845,324.286 69,322.5C 68.3333,306.5 68.3333,290.5 69,274.5C 72.0551,260.857 80.2218,252.023 93.5,248C 118.167,247.667 142.833,247.333 167.5,247C 165.947,244.345 164.78,241.512 164,238.5C 163.333,186.167 163.333,133.833 164,81.5C 167.279,68.5539 175.446,60.7206 188.5,58C 240.167,57.3333 291.833,57.3333 343.5,58C 356.563,60.7297 364.73,68.563 368,81.5C 368.667,110.167 368.667,138.833 368,167.5C 366.607,170.366 364.274,171.699 361,171.5C 356.13,171.628 353.463,169.294 353,164.5C 352.667,137.5 352.333,110.5 352,83.5C 350.539,79.7403 348.039,76.9069 344.5,75C 293.225,73.347 241.892,73.0136 190.5,74C 185.333,75.8333 181.833,79.3333 180,84.5C 179.333,135.167 179.333,185.833 180,236.5C 181.061,239.562 182.894,242.062 185.5,244C 191.882,246.406 198.382,248.239 205,249.5C 206.289,260.403 206.956,271.403 207,282.5C 209.081,287.33 212.581,288.663 217.5,286.5C 218.333,285.5 219.167,284.5 220,283.5C 220.333,272.833 220.667,262.167 221,251.5C 221.833,250.5 222.667,249.5 223.5,248.5C 233.786,247.358 244.12,247.191 254.5,248C 256.049,249.214 257.215,250.714 258,252.5C 258.333,273.833 258.667,295.167 259,316.5C 264.417,322.225 268.75,321.558 272,314.5C 272.022,292.745 272.688,271.078 274,249.5C 274.75,248.874 275.584,248.374 276.5,248C 297.167,247.667 317.833,247.333 338.5,247C 345.049,246.116 349.549,242.616 352,236.5C 352.333,221.833 352.667,207.167 353,192.5C 356.605,184.579 361.605,183.579 368,189.5C 368.667,206.167 368.667,222.833 368,239.5C 367.265,241.871 366.432,244.205 365.5,246.5C 389.826,247.333 414.16,247.833 438.5,248C 453.424,252.258 461.924,262.092 464,277.5C 464.667,325.833 464.667,374.167 464,422.5C 463.604,427.522 462.104,432.188 459.5,436.5C 475.156,437.333 490.823,437.833 506.5,438C 508.323,438.997 509.99,440.164 511.5,441.5 Z M 288.5,263.5 C 337.834,263.333 387.168,263.5 436.5,264C 442.94,266.773 446.774,271.606 448,278.5C 448.667,326.167 448.667,373.833 448,421.5C 446.712,428.79 442.545,433.623 435.5,436C 386.167,436.667 336.833,436.667 287.5,436C 280.93,433.762 276.763,429.262 275,422.5C 274.333,393.167 274.333,363.833 275,334.5C 282.266,330.642 286.599,324.642 288,316.5C 288.5,298.836 288.667,281.17 288.5,263.5 Z"/></g>
<g><path style="opacity:0.927" fill="#000000" d="M 215.5,96.5 C 233.17,96.3334 250.836,96.5001 268.5,97C 274.421,103.395 273.421,108.395 265.5,112C 250.167,112.333 234.833,112.667 219.5,113C 218.584,113.374 217.75,113.874 217,114.5C 215.692,133.077 215.025,151.743 215,170.5C 210.42,178.067 205.42,178.401 200,171.5C 199.333,152.167 199.333,132.833 200,113.5C 202.256,105.081 207.423,99.4147 215.5,96.5 Z"/></g>
<g><path style="opacity:0.928" fill="#000000" d="M 417.5,340.5 C 423.706,339.178 427.539,341.511 429,347.5C 429.667,365.167 429.667,382.833 429,400.5C 427.359,410.806 421.525,417.306 411.5,420C 394.5,420.667 377.5,420.667 360.5,420C 356.723,417.045 355.557,413.212 357,408.5C 358.214,406.951 359.714,405.785 361.5,405C 377.167,404.667 392.833,404.333 408.5,404C 409.931,403.535 411.097,402.701 412,401.5C 413.296,382.565 413.962,363.565 414,344.5C 415.376,343.295 416.542,341.962 417.5,340.5 Z"/></g>
<g><path style="opacity:0.952" fill="#000000" d="M 106.5,350.5 C 111.266,349.551 115.1,350.884 118,354.5C 118.333,370.5 118.667,386.5 119,402.5C 120.339,405.094 122.506,406.594 125.5,407C 143.167,407.333 160.833,407.667 178.5,408C 180.333,408.5 181.5,409.667 182,411.5C 183.378,415.987 182.212,419.487 178.5,422C 158.5,422.667 138.5,422.667 118.5,422C 109.814,419.313 104.647,413.479 103,404.5C 102.333,388.167 102.333,371.833 103,355.5C 103.997,353.677 105.164,352.01 106.5,350.5 Z"/></g>
</svg>
