<?xml version="1.0" encoding="UTF-8"?>
<!DOCTYPE svg PUBLIC "-//W3C//DTD SVG 1.1//EN" "http://www.w3.org/Graphics/SVG/1.1/DTD/svg11.dtd">
<svg xmlns="http://www.w3.org/2000/svg" version="1.1" width="512px" height="512px" style="shape-rendering:geometricPrecision; text-rendering:geometricPrecision; image-rendering:optimizeQuality; fill-rule:evenodd; clip-rule:evenodd" xmlns:xlink="http://www.w3.org/1999/xlink">
<g><path style="opacity:0.907" fill="#000000" d="M 322.5,27.5 C 328.81,28.1541 335.143,28.6541 341.5,29C 344.333,32.6631 344,35.9965 340.5,39C 333.809,39.1691 327.142,39.6691 320.5,40.5C 332.779,58.6677 340.112,78.6677 342.5,100.5C 342.032,121.879 331.365,130.712 310.5,127C 296.524,119.873 291.69,108.707 296,93.5C 302.408,82.045 312.241,77.045 325.5,78.5C 320.958,63.4147 313.791,49.748 304,37.5C 303.022,34.3307 303.522,31.4973 305.5,29C 311.348,28.8272 317.015,28.3272 322.5,27.5 Z M 318.5,89.5 C 322.198,90.3414 325.865,91.3414 329.5,92.5C 331.404,99.8562 330.571,106.856 327,113.5C 315.231,119.365 308.065,115.698 305.5,102.5C 307.017,95.2601 311.35,90.9267 318.5,89.5 Z"/></g>
<g><path style="opacity:0.929" fill="#000000" d="M 379.5,87.5 C 381.527,87.3379 383.527,87.5045 385.5,88C 390.199,93.0336 395.199,97.7002 400.5,102C 409.274,109.694 419.274,112.027 430.5,109C 434.78,107.053 438.113,104.053 440.5,100C 449.013,98.5285 451.846,102.029 449,110.5C 445.431,131.916 441.431,153.249 437,174.5C 432.309,192.428 421.476,197.928 404.5,191C 395.676,181.997 394.176,171.83 400,160.5C 406.571,152.59 414.738,150.424 424.5,154C 425.931,154.465 427.097,155.299 428,156.5C 431.301,144.36 433.635,132.027 435,119.5C 422.154,124.271 409.988,122.771 398.5,115C 394.39,112.191 390.557,109.025 387,105.5C 384.76,120.176 382.427,134.843 380,149.5C 376.982,169.579 366.149,176.079 347.5,169C 339.599,160.052 338.432,150.219 344,139.5C 351.922,131.478 360.589,130.478 370,136.5C 372.519,121.53 374.853,106.53 377,91.5C 377.662,90.0161 378.496,88.6828 379.5,87.5 Z"/></g>
<g><path style="opacity:0.907" fill="#000000" d="M 190.5,119.5 C 248.241,115.686 298.074,133.353 340,172.5C 381.592,220.872 394.925,276.205 380,338.5C 375.326,346.758 368.159,350.758 358.5,350.5C 354.839,364.817 350.172,378.817 344.5,392.5C 350.625,398.704 353.291,406.204 352.5,415C 351.596,434.806 343.93,451.472 329.5,465C 321.433,469.516 312.767,471.516 303.5,471C 302.449,472.385 301.116,473.385 299.5,474C 322.508,473.586 345.508,474.253 368.5,476C 377.833,477.667 377.833,479.333 368.5,481C 335.882,483.548 303.215,483.548 270.5,481C 265.055,479.112 260.055,476.445 255.5,473C 240.101,471.106 233.101,462.272 234.5,446.5C 236.466,406.404 250.799,371.571 277.5,342C 289.584,332.806 300.917,333.639 311.5,344.5C 323.76,348.596 332.26,356.596 337,368.5C 339.735,360.129 342.568,351.796 345.5,343.5C 343.473,340.779 341.973,337.779 341,334.5C 340.716,323.643 341.216,312.81 342.5,302C 341.974,271.053 333.474,242.553 317,216.5C 279.061,173.857 232.228,159.357 176.5,173C 133.145,186.355 103.312,214.188 87,256.5C 83.4628,269.651 79.4628,282.651 75,295.5C 71.4576,302.427 66.6243,308.261 60.5,313C 60.0895,328.504 61.2561,344.004 64,359.5C 69.0627,349.543 76.896,342.71 87.5,339C 95.2128,330.072 104.546,327.738 115.5,332C 120.588,335.083 125.088,338.917 129,343.5C 144.615,365.4 155.948,389.4 163,415.5C 165.601,426.034 166.601,436.7 166,447.5C 165.525,455.635 161.691,461.469 154.5,465C 161.833,466 169.167,467 176.5,468C 181.814,470.585 181.481,472.585 175.5,474C 155.222,476.945 134.889,477.278 114.5,475C 106.361,472.536 99.528,468.036 94,461.5C 86.4729,464.427 79.3062,463.593 72.5,459C 53.4144,443.667 44.581,423.834 46,399.5C 49.148,393.356 52.648,387.523 56.5,382C 48.907,360.128 44.5736,337.628 43.5,314.5C 36.7083,311.597 32.2083,306.597 30,299.5C 29.4343,244.475 49.2677,198.308 89.5,161C 118.926,136.912 152.592,123.079 190.5,119.5 Z M 198.5,130.5 C 246.148,129.214 288.148,143.714 324.5,174C 352.869,202.243 369.369,236.409 374,276.5C 375.582,295.07 374.249,313.403 370,331.5C 367.897,337.469 363.73,339.636 357.5,338C 353.733,335.81 351.733,332.477 351.5,328C 357.818,284.919 349.318,245.086 326,208.5C 292.041,164.62 247.208,145.454 191.5,151C 154.892,155.885 124.725,172.385 101,200.5C 77.9532,229.938 63.6199,263.272 58,300.5C 53,305.833 48,305.833 43,300.5C 42.088,298.341 41.2546,296.175 40.5,294C 42.8963,241.209 64.2296,197.876 104.5,164C 132.626,143.792 163.959,132.625 198.5,130.5 Z M 102.5,341.5 C 106.131,341.16 109.464,341.994 112.5,344C 120.587,351.678 127.087,360.511 132,370.5C 142.904,389.212 150.237,409.212 154,430.5C 154.667,436.5 154.667,442.5 154,448.5C 153.23,452.29 151.063,454.123 147.5,454C 118.955,423.068 102.788,386.568 99,344.5C 100.145,343.364 101.312,342.364 102.5,341.5 Z M 289.5,347.5 C 292.978,347.184 296.312,347.684 299.5,349C 300.256,364.908 297.756,380.408 292,395.5C 283.862,419.964 271.029,441.464 253.5,460C 249.911,460.092 247.744,458.259 247,454.5C 246.304,418.923 256.637,386.923 278,358.5C 281.729,354.602 285.562,350.935 289.5,347.5 Z M 86.5,352.5 C 92.5228,393.043 109.189,428.543 136.5,459C 127.167,466.333 117.833,466.333 108.5,459C 79.9471,432.998 68.7804,401.164 75,363.5C 78.0703,358.927 81.9036,355.261 86.5,352.5 Z M 312.5,358.5 C 319.574,361.743 324.407,367.076 327,374.5C 330.047,410.887 318.213,441.387 291.5,466C 282.522,472.189 273.855,471.855 265.5,465C 291.505,434.185 307.171,398.685 312.5,358.5 Z M 61.5,395.5 C 64.4219,416.179 72.4219,434.679 85.5,451C 82.9832,451.257 80.6498,450.59 78.5,449C 64.9692,436.775 57.8026,421.608 57,403.5C 58.2587,400.644 59.7587,397.977 61.5,395.5 Z M 337.5,403.5 C 340.67,406.161 342.004,409.661 341.5,414C 339.985,428.86 334.485,442.026 325,453.5C 321.954,456.279 318.454,457.779 314.5,458C 327.489,442.177 335.156,424.01 337.5,403.5 Z"/></g>
<g><path style="opacity:0.894" fill="#000000" d="M 454.5,198.5 C 463.447,199.427 471.78,202.26 479.5,207C 481.282,209.243 481.782,211.743 481,214.5C 470.778,222.388 460.278,229.888 449.5,237C 454.146,242.311 455.646,248.477 454,255.5C 451.33,262.835 446.163,267.335 438.5,269C 430.382,271.555 422.882,270.388 416,265.5C 412.449,259.583 412.783,253.916 417,248.5C 431.331,235.09 446.831,223.257 463.5,213C 459.563,211.356 455.73,209.523 452,207.5C 450.927,203.9 451.76,200.9 454.5,198.5 Z M 438.5,244.5 C 443.013,246.194 444.18,249.194 442,253.5C 437.251,258.504 431.751,259.671 425.5,257C 429.729,252.602 434.062,248.436 438.5,244.5 Z"/></g>
<g><path style="opacity:0.887" fill="#000000" d="M 211.5,267.5 C 216.414,266.782 219.414,268.782 220.5,273.5C 214.838,288.308 211.672,303.642 211,319.5C 207.38,323.487 203.713,323.487 200,319.5C 199.907,302.628 202.907,286.294 209,270.5C 210.045,269.627 210.878,268.627 211.5,267.5 Z"/></g>
<g><path style="opacity:0.871" fill="#000000" d="M 263.5,279.5 C 269.303,279.81 271.47,282.81 270,288.5C 264.563,298.264 258.73,307.764 252.5,317C 246.166,318.329 243.332,315.829 244,309.5C 248.667,301.5 253.333,293.5 258,285.5C 259.36,282.977 261.193,280.977 263.5,279.5 Z"/></g>
<g><path style="opacity:0.88" fill="#000000" d="M 154.5,280.5 C 157.044,280.104 159.211,280.771 161,282.5C 167.272,294.711 173.272,307.044 179,319.5C 180.683,324.65 178.85,327.65 173.5,328.5C 171.742,327.872 170.242,326.872 169,325.5C 162.831,312.495 156.664,299.495 150.5,286.5C 150.866,283.744 152.2,281.744 154.5,280.5 Z"/></g>
<g><path style="opacity:0.898" fill="#000000" d="M 109.5,358.5 C 113.147,358.622 115.981,360.288 118,363.5C 131.739,383.815 141.239,405.982 146.5,430C 146.456,431.764 146.122,433.431 145.5,435C 144.5,435.667 143.5,435.667 142.5,435C 139.296,432.131 136.463,428.965 134,425.5C 122.309,405.954 113.809,385.121 108.5,363C 108.605,361.408 108.939,359.908 109.5,358.5 Z"/></g>
<g><path style="opacity:0.899" fill="#000000" d="M 284.5,363.5 C 286.167,363.5 287.833,363.5 289.5,363.5C 289.66,368.566 289.16,373.566 288,378.5C 281.764,400.803 271.93,421.303 258.5,440C 256.866,440.494 255.199,440.66 253.5,440.5C 253.808,427.931 256.642,415.931 262,404.5C 267.452,389.586 274.952,375.919 284.5,363.5 Z"/></g>
</svg>
