<?xml version="1.0" encoding="UTF-8"?>
<!DOCTYPE svg PUBLIC "-//W3C//DTD SVG 1.1//EN" "http://www.w3.org/Graphics/SVG/1.1/DTD/svg11.dtd">
<svg xmlns="http://www.w3.org/2000/svg" version="1.1" width="512px" height="512px" style="shape-rendering:geometricPrecision; text-rendering:geometricPrecision; image-rendering:optimizeQuality; fill-rule:evenodd; clip-rule:evenodd" xmlns:xlink="http://www.w3.org/1999/xlink">
<g><path style="opacity:0.928" fill="#000000" d="M 70.5,23.5 C 83.6624,21.6245 95.6624,24.4579 106.5,32C 160.68,86.347 215.014,140.514 269.5,194.5C 327.651,139.516 385.651,84.3492 443.5,29C 455.295,22.0968 467.295,21.7635 479.5,28C 495.656,42.126 497.489,57.9593 485,75.5C 430.5,132.667 376,189.833 321.5,247C 362.333,287.833 403.167,328.667 444,369.5C 464.137,405.81 483.637,442.477 502.5,479.5C 500.945,486.615 496.612,489.115 489.5,487C 454.167,468 418.833,449 383.5,430C 343,389.5 302.5,349 262,308.5C 235,336.833 208,365.167 181,393.5C 179.753,405.247 175.753,415.914 169,425.5C 145.726,454.067 115.893,471.9 79.5,479C 62.6237,481.298 46.6237,478.632 31.5,471C 28.0977,467.281 27.5977,463.114 30,458.5C 37.5441,454.978 44.7107,450.811 51.5,446C 58.1896,438.787 62.3563,430.287 64,420.5C 65.6825,405.722 68.0158,391.055 71,376.5C 78.7025,350.901 95.8691,337.068 122.5,335C 150.833,308 179.167,281 207.5,254C 152.639,199.473 98.139,144.639 44,89.5C 32.0878,66.4684 35.9212,46.6351 55.5,30C 60.3668,27.2259 65.3668,25.0593 70.5,23.5 Z M 72.5,40.5 C 79.8773,39.6893 86.8773,40.856 93.5,44C 102.804,52.3027 111.804,60.9693 120.5,70C 107.019,80.3145 95.0187,92.1478 84.5,105.5C 75.8476,97.3478 67.3476,89.0145 59,80.5C 50.2329,62.6342 54.7329,49.3009 72.5,40.5 Z M 457.5,40.5 C 468.128,38.9618 474.461,43.4618 476.5,54C 475.896,56.5838 475.063,59.0838 474,61.5C 465.697,70.8036 457.031,79.8036 448,88.5C 441.167,81.6667 434.333,74.8333 427.5,68C 437.396,58.5988 447.396,49.4322 457.5,40.5 Z M 413.5,80.5 C 421.078,86.5722 428.244,93.2389 435,100.5C 435.667,101.167 435.667,101.833 435,102.5C 348.988,192.678 262.821,282.678 176.5,372.5C 168.845,357.836 157.512,347.002 142.5,340C 233.032,253.633 323.365,167.133 413.5,80.5 Z M 131.5,82.5 C 173.416,122.915 214.916,163.915 256,205.5C 256.667,206.167 256.667,206.833 256,207.5C 252.333,211.167 248.667,214.833 245,218.5C 203.167,176.667 161.333,134.833 119.5,93C 123.693,89.6349 127.693,86.1349 131.5,82.5 Z M 106.5,105.5 C 148.132,146.632 189.632,187.965 231,229.5C 231.667,230.167 231.667,230.833 231,231.5C 227.833,234.667 224.667,237.833 221.5,241C 220.833,241.667 220.167,241.667 219.5,241C 178.5,200 137.5,159 96.5,118C 100.047,113.959 103.38,109.792 106.5,105.5 Z M 308.5,259.5 C 343.083,292.582 377.25,326.248 411,360.5C 410.789,367.568 409.789,374.568 408,381.5C 371.667,345.167 335.333,308.833 299,272.5C 298.333,271.833 298.333,271.167 299,270.5C 302.002,266.666 305.169,263 308.5,259.5 Z M 284.5,284.5 C 321.916,320.415 358.916,356.915 395.5,394C 388.882,395.659 382.215,396.659 375.5,397C 341.833,363.333 308.167,329.667 274.5,296C 278.416,292.59 281.749,288.757 284.5,284.5 Z M 116.5,352.5 C 137.03,352.845 151.863,362.179 161,380.5C 165.622,394.681 162.955,407.348 153,418.5C 133.618,439.443 110.118,453.61 82.5,461C 74.8812,462.429 67.2146,462.762 59.5,462C 71.7533,451.664 78.92,438.497 81,422.5C 82.563,409.099 84.563,395.766 87,382.5C 91.0507,366.617 100.884,356.617 116.5,352.5 Z M 426.5,376.5 C 427.794,377.29 428.961,378.29 430,379.5C 436.912,392.993 444.079,406.326 451.5,419.5C 445.167,425.167 439.167,431.167 433.5,437.5C 420.993,430.412 408.326,423.579 395.5,417C 394.167,415.667 392.833,414.333 391.5,413C 399.672,410.629 408.006,408.629 416.5,407C 417.931,406.535 419.097,405.701 420,404.5C 422.612,395.271 424.779,385.938 426.5,376.5 Z M 471.5,457.5 C 464.063,453.947 456.729,450.114 449.5,446C 452.333,441.833 455.833,438.333 460,435.5C 464.114,442.729 467.947,450.063 471.5,457.5 Z"/></g>
</svg>
