<?xml version="1.0" encoding="UTF-8"?>
<!DOCTYPE svg PUBLIC "-//W3C//DTD SVG 1.1//EN" "http://www.w3.org/Graphics/SVG/1.1/DTD/svg11.dtd">
<svg xmlns="http://www.w3.org/2000/svg" version="1.1" width="512px" height="512px" style="shape-rendering:geometricPrecision; text-rendering:geometricPrecision; image-rendering:optimizeQuality; fill-rule:evenodd; clip-rule:evenodd" xmlns:xlink="http://www.w3.org/1999/xlink">
<g><path style="opacity:0.928" fill="#000000" d="M 234.5,-0.5 C 254.5,-0.5 274.5,-0.5 294.5,-0.5C 311.753,6.66027 318.587,19.6603 315,38.5C 311.606,50.5627 303.772,57.7294 291.5,60C 284.5,60.3333 277.5,60.6667 270.5,61C 265.058,73.7278 255.391,80.5612 241.5,81.5C 241.848,89.6367 241.014,97.6367 239,105.5C 231.554,115.648 221.721,118.814 209.5,115C 202.277,111.782 198.11,106.282 197,98.5C 196.501,92.8431 196.334,87.1764 196.5,81.5C 177.727,79.7264 167.727,69.3931 166.5,50.5C 166.954,35.3884 174.287,25.555 188.5,21C 196.521,20.8316 204.521,20.3316 212.5,19.5C 216.599,9.14143 223.932,2.47476 234.5,-0.5 Z M 237.5,15.5 C 255.503,15.3334 273.503,15.5001 291.5,16C 300.349,21.5476 302.515,29.0476 298,38.5C 295.9,41.4668 293.066,43.3002 289.5,44C 279.068,44.0476 268.735,44.7143 258.5,46C 256.354,48.7948 255.187,51.9614 255,55.5C 254.117,58.1024 252.617,60.2691 250.5,62C 243.833,64.3333 237.167,66.6667 230.5,69C 228.383,70.7309 226.883,72.8976 226,75.5C 225.897,83.2441 225.231,90.9108 224,98.5C 219.708,102.309 216.042,101.642 213,96.5C 212.897,88.7559 212.231,81.0892 211,73.5C 209.5,70.6667 207.333,68.5 204.5,67C 198.556,66.2473 192.889,64.5806 187.5,62C 181.26,54.9368 180.927,47.6035 186.5,40C 188.275,38.5611 190.275,37.5611 192.5,37C 202.906,36.927 213.239,36.2603 223.5,35C 224.333,34.1667 225.167,33.3333 226,32.5C 226.559,24.4689 230.392,18.8022 237.5,15.5 Z"/></g>
<g><path style="opacity:0.928" fill="#000000" d="M 32.5,28.5 C 52.1892,26.506 65.1892,34.8393 71.5,53.5C 85.1545,54.3327 98.8212,54.8327 112.5,55C 124.522,58.3564 131.688,66.1897 134,78.5C 136.5,100.887 126.667,113.22 104.5,115.5C 104.666,122.175 104.5,128.842 104,135.5C 100.464,145.531 93.2969,150.531 82.5,150.5C 71.1425,150.59 63.9758,145.257 61,134.5C 60.5005,128.175 60.3338,121.842 60.5,115.5C 44.9399,114.275 34.6066,106.275 29.5,91.5C 12.7399,84.3176 5.57325,71.6509 8,53.5C 11.6917,40.6427 19.8584,32.3094 32.5,28.5 Z M 35.5,44.5 C 44.7315,43.3649 51.2315,47.0315 55,55.5C 55.6216,59.6121 56.6216,63.6121 58,67.5C 58.9025,68.7014 60.0692,69.5348 61.5,70C 77.5,70.3333 93.5,70.6667 109.5,71C 119.221,76.7167 121.388,84.55 116,94.5C 114.786,96.0488 113.286,97.2155 111.5,98C 106.833,99 102.167,100 97.5,101C 92.7336,103.429 89.9002,107.263 89,112.5C 88.6667,118.833 88.3333,125.167 88,131.5C 84.4209,136.768 80.7542,136.768 77,131.5C 76.6667,124.833 76.3333,118.167 76,111.5C 74.6502,106.815 71.8168,103.315 67.5,101C 53.2456,100.742 45.4123,93.5757 44,79.5C 39.6523,77.4212 35.1523,75.5878 30.5,74C 21.1667,65 21.1667,56 30.5,47C 32.3146,46.2432 33.9812,45.4098 35.5,44.5 Z"/></g>
<g><path style="opacity:0.947" fill="#000000" d="M 511.5,159.5 C 511.5,254.833 511.5,350.167 511.5,445.5C 507.982,449.7 503.649,450.533 498.5,448C 497.874,447.25 497.374,446.416 497,445.5C 496.5,372.501 496.333,299.501 496.5,226.5C 432.833,226.5 369.167,226.5 305.5,226.5C 305.5,316.167 305.5,405.833 305.5,495.5C 325.167,495.5 344.833,495.5 364.5,495.5C 364.022,473.742 364.522,452.075 366,430.5C 367.171,429.107 368.671,428.273 370.5,428C 390.833,427.333 411.167,427.333 431.5,428C 433.286,428.785 434.786,429.951 436,431.5C 437.478,452.742 437.978,474.075 437.5,495.5C 457.167,495.5 476.833,495.5 496.5,495.5C 496.062,487.057 496.562,478.723 498,470.5C 503.201,467.409 507.701,468.075 511.5,472.5C 511.5,484.167 511.5,495.833 511.5,507.5C 510.5,509.167 509.167,510.5 507.5,511.5C 339.5,511.5 171.5,511.5 3.5,511.5C 1.83333,510.5 0.5,509.167 -0.5,507.5C -0.5,467.833 -0.5,428.167 -0.5,388.5C 1.11327,386.73 3.11327,385.564 5.5,385C 14.4569,383.175 23.4569,381.675 32.5,380.5C 36.6924,310.447 41.5258,240.447 47,170.5C 50.1204,167.292 53.9537,165.959 58.5,166.5C 67.686,165.517 71.5194,169.517 70,178.5C 68.1881,181.821 65.3547,183.155 61.5,182.5C 60.8525,195.883 59.8525,209.216 58.5,222.5C 74.4861,223.499 90.4861,223.833 106.5,223.5C 105.456,209.838 104.456,196.172 103.5,182.5C 93.67,184.171 89.8366,180.171 92,170.5C 92.8333,169.667 93.6667,168.833 94.5,168C 100.749,166.464 107.083,166.13 113.5,167C 116.428,168.26 118.261,170.427 119,173.5C 122.699,226.825 126.199,280.158 129.5,333.5C 143.139,331.405 156.639,328.739 170,325.5C 174.068,263.811 178.401,202.144 183,140.5C 183.465,139.069 184.299,137.903 185.5,137C 207.078,135.356 228.745,135.023 250.5,136C 251.931,136.465 253.097,137.299 254,138.5C 258.204,184.891 261.704,231.391 264.5,278C 264.761,286.404 260.761,289.737 252.5,288C 251.667,287.167 250.833,286.333 250,285.5C 248.018,273.287 246.851,260.954 246.5,248.5C 228.167,248.5 209.833,248.5 191.5,248.5C 189.657,273.15 187.99,297.817 186.5,322.5C 220.811,316.038 255.144,309.704 289.5,303.5C 289.333,274.165 289.5,244.831 290,215.5C 290.785,213.714 291.951,212.214 293.5,211C 336.837,210.833 380.171,210.333 423.5,209.5C 428.82,193.219 433.987,176.886 439,160.5C 439.833,159.5 440.667,158.5 441.5,157.5C 463.79,156.344 486.124,156.178 508.5,157C 509.373,158.045 510.373,158.878 511.5,159.5 Z M 197.5,151.5 C 211.516,151.167 225.516,151.501 239.5,152.5C 240.688,164.464 241.688,176.464 242.5,188.5C 226.833,188.5 211.167,188.5 195.5,188.5C 196.344,176.177 197.01,163.844 197.5,151.5 Z M 452.5,172.5 C 467.167,172.5 481.833,172.5 496.5,172.5C 496.5,185.167 496.5,197.833 496.5,210.5C 477.821,210.833 459.155,210.5 440.5,209.5C 444.51,197.139 448.51,184.805 452.5,172.5 Z M 194.5,204.5 C 210.833,204.5 227.167,204.5 243.5,204.5C 244.034,213.846 244.701,223.18 245.5,232.5C 227.833,232.5 210.167,232.5 192.5,232.5C 192.946,223.144 193.613,213.81 194.5,204.5 Z M 57.5,239.5 C 74.1667,239.5 90.8333,239.5 107.5,239.5C 108.078,249.84 108.745,260.174 109.5,270.5C 91.5,270.5 73.5,270.5 55.5,270.5C 56.4319,260.189 57.0985,249.855 57.5,239.5 Z M 346.5,268.5 C 382.5,268.5 418.5,268.5 454.5,268.5C 454.5,272.5 454.5,276.5 454.5,280.5C 418.5,280.5 382.5,280.5 346.5,280.5C 346.5,276.5 346.5,272.5 346.5,268.5 Z M 54.5,286.5 C 73.1667,286.5 91.8333,286.5 110.5,286.5C 112.021,303.142 112.854,319.808 113,336.5C 101.118,338.844 89.2845,341.51 77.5,344.5C 76.4164,345.665 75.5831,346.998 75,348.5C 74.5003,356.493 74.3336,364.493 74.5,372.5C 65.9101,373.851 57.4101,375.518 49,377.5C 50.5882,347.175 52.4215,316.842 54.5,286.5 Z M 286.5,319.5 C 287.5,319.5 288.5,319.5 289.5,319.5C 289.5,378.167 289.5,436.833 289.5,495.5C 197.833,495.5 106.167,495.5 14.5,495.5C 14.5,463.5 14.5,431.5 14.5,399.5C 39.3358,395.417 64.0025,390.584 88.5,385C 89.1258,384.25 89.6258,383.416 90,382.5C 90.4997,374.173 90.6664,365.84 90.5,357.5C 156.027,345.194 221.36,332.527 286.5,319.5 Z M 346.5,326.5 C 356.833,326.5 367.167,326.5 377.5,326.5C 377.5,330.5 377.5,334.5 377.5,338.5C 367.167,338.5 356.833,338.5 346.5,338.5C 346.5,334.5 346.5,330.5 346.5,326.5 Z M 423.5,326.5 C 433.833,326.5 444.167,326.5 454.5,326.5C 454.5,330.5 454.5,334.5 454.5,338.5C 444.167,338.5 433.833,338.5 423.5,338.5C 423.5,334.5 423.5,330.5 423.5,326.5 Z M 135.5,381.5 C 138.833,381.5 142.167,381.5 145.5,381.5C 145.5,384.833 145.5,388.167 145.5,391.5C 142.167,391.5 138.833,391.5 135.5,391.5C 135.5,388.167 135.5,384.833 135.5,381.5 Z M 189.5,381.5 C 192.833,381.5 196.167,381.5 199.5,381.5C 199.5,384.833 199.5,388.167 199.5,391.5C 196.167,391.5 192.833,391.5 189.5,391.5C 189.5,388.167 189.5,384.833 189.5,381.5 Z M 242.5,381.5 C 245.833,381.5 249.167,381.5 252.5,381.5C 252.5,384.833 252.5,388.167 252.5,391.5C 249.167,391.5 245.833,391.5 242.5,391.5C 242.5,388.167 242.5,384.833 242.5,381.5 Z M 346.5,384.5 C 356.833,384.5 367.167,384.5 377.5,384.5C 377.5,388.5 377.5,392.5 377.5,396.5C 367.167,396.5 356.833,396.5 346.5,396.5C 346.5,392.5 346.5,388.5 346.5,384.5 Z M 423.5,384.5 C 433.833,384.5 444.167,384.5 454.5,384.5C 454.5,388.5 454.5,392.5 454.5,396.5C 444.167,396.5 433.833,396.5 423.5,396.5C 423.5,392.5 423.5,388.5 423.5,384.5 Z M 380.5,443.5 C 394.167,443.5 407.833,443.5 421.5,443.5C 421.5,460.833 421.5,478.167 421.5,495.5C 407.833,495.5 394.167,495.5 380.5,495.5C 380.5,478.167 380.5,460.833 380.5,443.5 Z"/></g>
<g><path style="opacity:0.938" fill="#000000" d="M 334.5,252.5 C 378.501,252.333 422.501,252.5 466.5,253C 468.333,253.5 469.5,254.667 470,256.5C 470.667,268.5 470.667,280.5 470,292.5C 468.786,294.049 467.286,295.215 465.5,296C 422.5,296.667 379.5,296.667 336.5,296C 333.667,295.167 331.833,293.333 331,290.5C 330.333,279.5 330.333,268.5 331,257.5C 331.997,255.677 333.164,254.01 334.5,252.5 Z M 346.5,268.5 C 346.5,272.5 346.5,276.5 346.5,280.5C 382.5,280.5 418.5,280.5 454.5,280.5C 454.5,276.5 454.5,272.5 454.5,268.5C 418.5,268.5 382.5,268.5 346.5,268.5 Z"/></g>
<g><path style="opacity:0.938" fill="#000000" d="M 334.5,310.5 C 353.593,310.025 372.593,310.525 391.5,312C 392.126,312.75 392.626,313.584 393,314.5C 393.667,326.5 393.667,338.5 393,350.5C 391.786,352.049 390.286,353.215 388.5,354C 370.101,354.96 351.768,354.627 333.5,353C 332.54,351.581 331.707,350.081 331,348.5C 330.333,337.5 330.333,326.5 331,315.5C 331.997,313.677 333.164,312.01 334.5,310.5 Z M 346.5,326.5 C 346.5,330.5 346.5,334.5 346.5,338.5C 356.833,338.5 367.167,338.5 377.5,338.5C 377.5,334.5 377.5,330.5 377.5,326.5C 367.167,326.5 356.833,326.5 346.5,326.5 Z"/></g>
<g><path style="opacity:0.938" fill="#000000" d="M 411.5,310.5 C 430.593,310.025 449.593,310.525 468.5,312C 469.126,312.75 469.626,313.584 470,314.5C 470.667,326.5 470.667,338.5 470,350.5C 468.786,352.049 467.286,353.215 465.5,354C 447.101,354.96 428.768,354.627 410.5,353C 409.54,351.581 408.707,350.081 408,348.5C 407.333,337.833 407.333,327.167 408,316.5C 408.564,314.113 409.73,312.113 411.5,310.5 Z M 423.5,326.5 C 423.5,330.5 423.5,334.5 423.5,338.5C 433.833,338.5 444.167,338.5 454.5,338.5C 454.5,334.5 454.5,330.5 454.5,326.5C 444.167,326.5 433.833,326.5 423.5,326.5 Z"/></g>
<g><path style="opacity:0.937" fill="#000000" d="M 125.5,365.5 C 135.506,365.334 145.506,365.5 155.5,366C 157.329,366.273 158.829,367.107 160,368.5C 161.623,380.07 161.957,391.736 161,403.5C 159.833,404.667 158.667,405.833 157.5,407C 146.167,407.667 134.833,407.667 123.5,407C 122.667,406.167 121.833,405.333 121,404.5C 119.38,393.598 119.046,382.598 120,371.5C 121.021,368.65 122.854,366.65 125.5,365.5 Z M 135.5,381.5 C 135.5,384.833 135.5,388.167 135.5,391.5C 138.833,391.5 142.167,391.5 145.5,391.5C 145.5,388.167 145.5,384.833 145.5,381.5C 142.167,381.5 138.833,381.5 135.5,381.5 Z"/></g>
<g><path style="opacity:0.938" fill="#000000" d="M 179.5,365.5 C 189.506,365.334 199.506,365.5 209.5,366C 211.286,366.785 212.786,367.951 214,369.5C 215.619,380.068 215.952,390.735 215,401.5C 214.727,403.329 213.893,404.829 212.5,406C 206.437,407.126 200.271,407.626 194,407.5C 188.5,407.333 183,407.167 177.5,407C 176.584,406.626 175.75,406.126 175,405.5C 173.377,393.93 173.043,382.264 174,370.5C 175.107,367.887 176.94,366.22 179.5,365.5 Z M 189.5,381.5 C 189.5,384.833 189.5,388.167 189.5,391.5C 192.833,391.5 196.167,391.5 199.5,391.5C 199.5,388.167 199.5,384.833 199.5,381.5C 196.167,381.5 192.833,381.5 189.5,381.5 Z"/></g>
<g><path style="opacity:0.936" fill="#000000" d="M 232.5,365.5 C 242.506,365.334 252.506,365.5 262.5,366C 264.329,366.273 265.829,367.107 267,368.5C 268.126,374.563 268.626,380.729 268.5,387C 268.333,392.5 268.167,398 268,403.5C 267.626,404.416 267.126,405.25 266.5,406C 254.596,407.625 242.596,407.958 230.5,407C 229.667,406.167 228.833,405.333 228,404.5C 226.38,393.598 226.046,382.598 227,371.5C 228.021,368.65 229.854,366.65 232.5,365.5 Z M 242.5,381.5 C 242.5,384.833 242.5,388.167 242.5,391.5C 245.833,391.5 249.167,391.5 252.5,391.5C 252.5,388.167 252.5,384.833 252.5,381.5C 249.167,381.5 245.833,381.5 242.5,381.5 Z"/></g>
<g><path style="opacity:0.938" fill="#000000" d="M 335.5,368.5 C 353.503,368.333 371.503,368.5 389.5,369C 390.667,370.167 391.833,371.333 393,372.5C 393.667,384.5 393.667,396.5 393,408.5C 391.786,410.049 390.286,411.215 388.5,412C 370.076,412.973 351.743,412.64 333.5,411C 332.107,409.829 331.273,408.329 331,406.5C 330.333,395.833 330.333,385.167 331,374.5C 331.599,371.746 333.099,369.746 335.5,368.5 Z M 346.5,384.5 C 346.5,388.5 346.5,392.5 346.5,396.5C 356.833,396.5 367.167,396.5 377.5,396.5C 377.5,392.5 377.5,388.5 377.5,384.5C 367.167,384.5 356.833,384.5 346.5,384.5 Z"/></g>
<g><path style="opacity:0.939" fill="#000000" d="M 412.5,368.5 C 430.503,368.333 448.503,368.5 466.5,369C 467.667,370.167 468.833,371.333 470,372.5C 470.667,384.5 470.667,396.5 470,408.5C 468.786,410.049 467.286,411.215 465.5,412C 447.076,412.973 428.743,412.64 410.5,411C 409.54,409.581 408.707,408.081 408,406.5C 407.333,395.833 407.333,385.167 408,374.5C 408.599,371.746 410.099,369.746 412.5,368.5 Z M 423.5,384.5 C 423.5,388.5 423.5,392.5 423.5,396.5C 433.833,396.5 444.167,396.5 454.5,396.5C 454.5,392.5 454.5,388.5 454.5,384.5C 444.167,384.5 433.833,384.5 423.5,384.5 Z"/></g>
<g><path style="opacity:0.934" fill="#000000" d="M 48.5,424.5 C 120.167,424.333 191.834,424.5 263.5,425C 268.224,427.435 269.724,431.269 268,436.5C 266.786,438.049 265.286,439.215 263.5,440C 192.167,440.667 120.833,440.667 49.5,440C 44.7762,437.565 43.2762,433.731 45,428.5C 46.1022,427.051 47.2689,425.718 48.5,424.5 Z"/></g>
</svg>
