<?xml version="1.0" encoding="UTF-8"?>
<!DOCTYPE svg PUBLIC "-//W3C//DTD SVG 1.1//EN" "http://www.w3.org/Graphics/SVG/1.1/DTD/svg11.dtd">
<svg xmlns="http://www.w3.org/2000/svg" version="1.1" width="512px" height="512px" style="shape-rendering:geometricPrecision; text-rendering:geometricPrecision; image-rendering:optimizeQuality; fill-rule:evenodd; clip-rule:evenodd" xmlns:xlink="http://www.w3.org/1999/xlink">
<g><path style="opacity:0.936" fill="#000000" d="M 294.5,-0.5 C 351.167,-0.5 407.833,-0.5 464.5,-0.5C 475.095,2.97932 481.262,10.3127 483,21.5C 483.815,66.0136 483.649,110.514 482.5,155C 497.938,185.142 507.604,216.975 511.5,250.5C 511.5,265.167 511.5,279.833 511.5,294.5C 507.088,335.899 493.255,373.899 470,408.5C 465.306,414.645 460.306,414.979 455,409.5C 454.333,406.833 454.333,404.167 455,401.5C 500.281,333.297 507.948,260.964 478,184.5C 475.667,179.833 473.333,175.167 471,170.5C 468.07,172.255 464.903,173.422 461.5,174C 457.459,174.173 453.459,174.673 449.5,175.5C 465.634,208.859 462.801,240.526 441,270.5C 440.667,315.5 440.333,360.5 440,405.5C 437.5,416 431,422.5 420.5,425C 396.833,425.333 373.167,425.667 349.5,426C 348.692,426.308 348.025,426.808 347.5,427.5C 350.137,431.968 352.97,436.302 356,440.5C 363.606,450.058 371.439,459.392 379.5,468.5C 400.633,456.876 419.633,442.376 436.5,425C 445.217,424.051 448.717,427.884 447,436.5C 405.382,480.059 354.548,505.059 294.5,511.5C 280.167,511.5 265.833,511.5 251.5,511.5C 169.928,501.979 107.761,462.312 65,392.5C 45.269,357.801 34.769,320.468 33.5,280.5C 17.2536,282.389 5.92022,276.055 -0.5,261.5C -0.5,215.5 -0.5,169.5 -0.5,123.5C 2.22189,114.943 7.88855,109.109 16.5,106C 25.113,104.495 33.7797,104.161 42.5,105C 49.6635,108.994 50.3301,113.994 44.5,120C 36.4233,120.098 28.4233,120.765 20.5,122C 17.4469,124.051 15.6135,126.885 15,130.5C 14.3333,171.833 14.3333,213.167 15,254.5C 15.654,259.655 18.4873,262.822 23.5,264C 47.1667,264.333 70.8333,264.667 94.5,265C 96.9494,265.725 99.2827,266.725 101.5,268C 116.333,278.833 131.167,289.667 146,300.5C 146.333,292.833 146.667,285.167 147,277.5C 149.263,270.903 153.763,266.736 160.5,265C 167.833,264.667 175.167,264.333 182.5,264C 186.333,262.833 188.833,260.333 190,256.5C 190.667,213.833 190.667,171.167 190,128.5C 188.833,124.667 186.333,122.167 182.5,121C 145.5,120.667 108.5,120.333 71.5,120C 65.6699,113.994 66.3365,108.994 73.5,105C 83.1667,104.667 92.8333,104.333 102.5,104C 150.289,56.7876 207.956,33.2876 275.5,33.5C 273.611,17.2536 279.945,5.92022 294.5,-0.5 Z M 301.5,14.5 C 353.501,14.3333 405.501,14.5 457.5,15C 462.551,15.7173 465.718,18.5507 467,23.5C 467.667,65.5 467.667,107.5 467,149.5C 466.27,153.896 463.77,156.73 459.5,158C 435.833,158.333 412.167,158.667 388.5,159C 385.215,159.759 382.215,161.092 379.5,163C 365.677,173.411 351.677,183.578 337.5,193.5C 336.803,186.143 335.97,178.81 335,171.5C 332.737,164.903 328.237,160.736 321.5,159C 314.167,158.667 306.833,158.333 299.5,158C 295.667,156.833 293.167,154.333 292,150.5C 291.667,139.167 291.333,127.833 291,116.5C 284.994,110.67 279.994,111.337 276,118.5C 275.333,129.5 275.333,140.5 276,151.5C 276.787,159.112 280.287,165.112 286.5,169.5C 285.986,194.201 273.653,209.701 249.5,216C 233.709,218.011 219.542,214.178 207,204.5C 206.333,181.5 206.333,158.5 207,135.5C 214.376,123.399 216.71,110.399 214,96.5C 211.616,83.829 206.45,72.4957 198.5,62.5C 223.282,53.1447 248.949,48.8114 275.5,49.5C 275.333,62.1711 275.5,74.8377 276,87.5C 279.994,94.6635 284.994,95.3301 291,89.5C 291.333,67.5 291.667,45.5 292,23.5C 293.462,18.5476 296.629,15.5476 301.5,14.5 Z M 364.5,65.5 C 373.986,64.5062 383.652,64.1729 393.5,64.5C 390.997,75.5062 386.33,85.5062 379.5,94.5C 373.149,85.4626 368.149,75.7959 364.5,65.5 Z M 180.5,68.5 C 182.716,69.2026 184.549,70.5359 186,72.5C 195.044,83.9633 199.044,96.9633 198,111.5C 193.979,107.601 189.145,105.434 183.5,105C 164.5,104.667 145.5,104.333 126.5,104C 142.781,89.5523 160.781,77.7189 180.5,68.5 Z M 102.5,167.5 C 108.02,180.558 113.02,193.891 117.5,207.5C 107.478,207.832 97.4778,207.499 87.5,206.5C 92.3119,193.393 97.3119,180.393 102.5,167.5 Z M 371.5,189.5 C 369.753,204.327 363.253,216.661 352,226.5C 346.287,233.473 343.453,241.473 343.5,250.5C 313.165,250.333 282.832,250.5 252.5,251C 239.256,255.304 232.756,264.47 233,278.5C 211.626,289.243 200.293,306.576 199,330.5C 203.853,337.02 208.853,337.02 214,330.5C 216.04,317.077 222.207,306.077 232.5,297.5C 233.333,333.829 233.833,370.162 234,406.5C 236.933,416.434 243.433,422.6 253.5,425C 260.833,425.333 268.167,425.667 275.5,426C 276,426.5 276.5,427 277,427.5C 277.333,436.167 277.667,444.833 278,453.5C 281.252,462.044 287.419,465.211 296.5,463C 308.971,454.695 321.304,446.195 333.5,437.5C 342.733,450.241 352.566,462.575 363,474.5C 363.667,475.167 363.667,475.833 363,476.5C 302.952,502.943 242.786,503.109 182.5,477C 137.313,456.812 102.647,425.145 78.5,382C 87.2383,372.948 97.7383,366.781 110,363.5C 113.927,364.048 117.427,365.548 120.5,368C 130.201,380.851 143.201,387.351 159.5,387.5C 176.009,385.999 189.176,378.666 199,365.5C 202.542,355.054 199.042,350.887 188.5,353C 181.556,363.058 172.056,369.225 160,371.5C 152.653,370.955 145.819,368.788 139.5,365C 127.344,348.06 111.677,343.727 92.5,352C 84.6526,356.088 77.3193,360.921 70.5,366.5C 57.5426,339.336 50.5426,310.67 49.5,280.5C 63.504,280.333 77.504,280.5 91.5,281C 108.635,294.142 126.302,306.475 144.5,318C 151.801,319.432 157.301,316.932 161,310.5C 162.193,300.883 162.859,291.216 163,281.5C 169.753,280.686 176.586,280.186 183.5,280C 195.879,277.954 203.379,270.788 206,258.5C 206.333,246.833 206.667,235.167 207,223.5C 238.233,239.527 265.9,234.86 290,209.5C 297.834,199.157 302.334,187.491 303.5,174.5C 308.179,174.334 312.845,174.501 317.5,175C 318.308,175.308 318.975,175.808 319.5,176.5C 320.307,185.786 320.807,195.119 321,204.5C 326.447,212.815 333.613,214.648 342.5,210C 352.046,202.947 361.713,196.114 371.5,189.5 Z M 391.5,174.5 C 404.184,174.168 416.851,174.501 429.5,175.5C 445.238,196.873 448.071,219.873 438,244.5C 436.404,248.704 434.071,252.371 431,255.5C 428.046,253.607 424.879,252.107 421.5,251C 400.836,250.5 380.169,250.333 359.5,250.5C 359.408,246.941 360.241,243.608 362,240.5C 370.548,231.952 377.548,222.285 383,211.5C 386.723,201.165 388.723,190.498 389,179.5C 389.335,177.497 390.168,175.83 391.5,174.5 Z M 255.5,266.5 C 310.584,266.008 365.584,266.508 420.5,268C 422.487,269.319 423.654,271.152 424,273.5C 424.667,316.5 424.667,359.5 424,402.5C 423.167,406 421,408.167 417.5,409C 392.451,409.038 367.451,409.705 342.5,411C 326.245,422.377 310.079,433.877 294,445.5C 297.678,416.846 285.178,404.679 256.5,409C 253.417,408.214 251.251,406.381 250,403.5C 249.333,359.833 249.333,316.167 250,272.5C 251.36,269.977 253.193,267.977 255.5,266.5 Z"/></g>
<g><path style="opacity:0.926" fill="#000000" d="M 376.5,28.5 C 380.192,27.9712 383.358,28.9712 386,31.5C 387.404,37.0438 387.904,42.7104 387.5,48.5C 401.906,48.0514 416.239,48.5514 430.5,50C 434.771,55.0781 434.437,59.7448 429.5,64C 423.175,64.4995 416.842,64.6662 410.5,64.5C 407.376,80.3897 400.71,94.5564 390.5,107C 395.211,111.38 400.211,115.38 405.5,119C 413.776,123.054 421.943,127.221 430,131.5C 432.657,138.52 430.323,142.853 423,144.5C 406.643,139.29 392.143,130.957 379.5,119.5C 366.634,130.935 351.967,139.268 335.5,144.5C 330.515,144.181 327.848,141.515 327.5,136.5C 327.833,133.99 328.833,131.823 330.5,130C 344.797,124.859 357.464,117.192 368.5,107C 358.29,94.5564 351.624,80.3897 348.5,64.5C 341.385,64.9247 334.385,64.4247 327.5,63C 324.544,58.3353 324.878,54.0019 328.5,50C 342.736,48.5342 357.069,48.0342 371.5,48.5C 371.334,43.4889 371.501,38.4889 372,33.5C 373.025,31.313 374.525,29.6464 376.5,28.5 Z M 364.5,65.5 C 368.149,75.7959 373.149,85.4626 379.5,94.5C 386.33,85.5062 390.997,75.5062 393.5,64.5C 383.652,64.1729 373.986,64.5062 364.5,65.5 Z"/></g>
<g><path style="opacity:0.929" fill="#000000" d="M 99.5,139.5 C 105.094,138.743 109.261,140.743 112,145.5C 123.6,176.133 135.1,206.8 146.5,237.5C 145.531,243.983 141.865,246.483 135.5,245C 133.714,244.215 132.214,243.049 131,241.5C 128.931,235.794 126.765,230.128 124.5,224.5C 109.848,223.501 95.1818,223.167 80.5,223.5C 78.9741,228.91 77.1407,234.244 75,239.5C 71.0065,246.663 66.0065,247.33 60,241.5C 59.3333,238.833 59.3333,236.167 60,233.5C 71.1965,204.244 82.1965,174.911 93,145.5C 94.4361,142.558 96.6028,140.558 99.5,139.5 Z M 102.5,167.5 C 97.3119,180.393 92.3119,193.393 87.5,206.5C 97.4778,207.499 107.478,207.832 117.5,207.5C 113.02,193.891 108.02,180.558 102.5,167.5 Z"/></g>
<g><path style="opacity:0.942" fill="#000000" d="M 289.5,292.5 C 301.909,292.061 314.242,292.561 326.5,294C 340.985,302.116 345.652,314.116 340.5,330C 349.827,330.5 359.161,330.666 368.5,330.5C 368.5,322.833 368.5,315.167 368.5,307.5C 363.767,307.777 359.1,307.443 354.5,306.5C 350.27,301.622 350.603,297.122 355.5,293C 369.833,292.333 384.167,292.333 398.5,293C 403.833,297.667 403.833,302.333 398.5,307C 393.845,307.499 389.179,307.666 384.5,307.5C 384.667,331.836 384.5,356.169 384,380.5C 382.865,383.859 380.532,385.192 377,384.5C 374.019,384.919 371.686,383.919 370,381.5C 368.588,369.896 368.088,358.229 368.5,346.5C 359.161,346.334 349.827,346.5 340.5,347C 345.991,364.544 340.325,376.878 323.5,384C 307.301,386.627 292.301,383.627 278.5,375C 276.194,372.939 274.027,370.772 272,368.5C 270.671,359.499 274.504,355.999 283.5,358C 292.451,365.984 302.951,369.818 315,369.5C 325.139,367.22 328.472,361.22 325,351.5C 323.269,349.383 321.102,347.883 318.5,347C 308.5,346.667 298.5,346.333 288.5,346C 282.741,342.108 282.074,337.441 286.5,332C 297.069,330.713 307.735,330.046 318.5,330C 326.346,326.776 328.513,321.276 325,313.5C 323.457,311.622 321.624,310.122 319.5,309C 309.559,307.771 299.559,307.104 289.5,307C 284.272,302.177 284.272,297.344 289.5,292.5 Z"/></g>
</svg>
