<?xml version="1.0" encoding="UTF-8"?>
<!DOCTYPE svg PUBLIC "-//W3C//DTD SVG 1.1//EN" "http://www.w3.org/Graphics/SVG/1.1/DTD/svg11.dtd">
<svg xmlns="http://www.w3.org/2000/svg" version="1.1" width="512px" height="512px" style="shape-rendering:geometricPrecision; text-rendering:geometricPrecision; image-rendering:optimizeQuality; fill-rule:evenodd; clip-rule:evenodd" xmlns:xlink="http://www.w3.org/1999/xlink">
<g><path style="opacity:0.902" fill="#000000" d="M 252.5,39.5 C 256.426,39.0466 259.592,40.3799 262,43.5C 262.667,55.5 262.667,67.5 262,79.5C 259.019,83.6959 255.186,84.5293 250.5,82C 249.874,81.2496 249.374,80.4162 249,79.5C 248.333,67.5 248.333,55.5 249,43.5C 250.376,42.2949 251.542,40.9616 252.5,39.5 Z"/></g>
<g><path style="opacity:0.871" fill="#000000" d="M 142.5,85.5 C 144.564,85.687 146.564,86.187 148.5,87C 155.667,94.1667 162.833,101.333 170,108.5C 173.491,114.683 171.825,119.016 165,121.5C 163.184,120.671 161.351,119.837 159.5,119C 152.667,112.167 145.833,105.333 139,98.5C 135.421,92.7506 136.588,88.4173 142.5,85.5 Z"/></g>
<g><path style="opacity:0.869" fill="#000000" d="M 365.5,85.5 C 373.851,86.7151 376.018,91.0484 372,98.5C 365.167,105.333 358.333,112.167 351.5,119C 345.317,122.491 340.984,120.825 338.5,114C 339.329,112.184 340.163,110.351 341,108.5C 348.785,100.209 356.951,92.542 365.5,85.5 Z"/></g>
<g><path style="opacity:0.931" fill="#000000" d="M 222.5,122.5 C 228.911,122.525 234.577,124.525 239.5,128.5C 251.981,120.063 263.314,121.396 273.5,132.5C 282.652,128.936 290.985,130.269 298.5,136.5C 310.093,131.32 318.926,134.32 325,145.5C 327.551,168.114 325.884,190.448 320,212.5C 318.194,217.446 315.861,222.112 313,226.5C 306.364,232.134 300.031,238.134 294,244.5C 292.032,247.737 290.865,251.237 290.5,255C 294.406,286.491 298.24,317.991 302,349.5C 311.089,350.319 320.256,350.819 329.5,351C 336.573,353.072 341.406,357.572 344,364.5C 346.143,370.428 347.977,376.428 349.5,382.5C 359.11,381.089 366.943,384.089 373,391.5C 376.035,398.939 378.868,406.439 381.5,414C 395.5,414.333 409.5,414.667 423.5,415C 430.815,416.316 435.648,420.483 438,427.5C 438.667,437.833 438.667,448.167 438,458.5C 436.167,465 432,469.167 425.5,471C 312.167,471.667 198.833,471.667 85.5,471C 79,469.167 74.8333,465 73,458.5C 72.3333,448.167 72.3333,437.833 73,427.5C 75.3521,420.483 80.1854,416.316 87.5,415C 101.5,414.667 115.5,414.333 129.5,414C 131.859,407.925 134.025,401.759 136,395.5C 141.198,385.026 149.698,380.693 161.5,382.5C 163.435,374.195 166.269,366.195 170,358.5C 172.928,354.619 176.761,352.119 181.5,351C 188.081,350.813 194.581,350.313 201,349.5C 206.428,319.338 210.595,289.004 213.5,258.5C 213.493,255.408 212.993,252.408 212,249.5C 205.315,240.8 199.649,231.467 195,221.5C 193.416,203.205 193.082,184.872 194,166.5C 195.247,161.992 197.914,158.659 202,156.5C 202.333,150.833 202.667,145.167 203,139.5C 206.223,129.986 212.723,124.319 222.5,122.5 Z M 254.5,136.5 C 257.64,137.129 260.14,138.796 262,141.5C 262.499,145.821 262.666,150.154 262.5,154.5C 257.167,154.5 251.833,154.5 246.5,154.5C 246.334,150.486 246.501,146.486 247,142.5C 248.707,139.41 251.207,137.41 254.5,136.5 Z M 220.5,137.5 C 224.603,136.769 228.103,137.769 231,140.5C 232.379,145.036 232.879,149.703 232.5,154.5C 227.167,154.5 221.833,154.5 216.5,154.5C 216.334,150.486 216.501,146.486 217,142.5C 217.997,140.677 219.164,139.01 220.5,137.5 Z M 280.5,144.5 C 284.355,143.845 287.188,145.179 289,148.5C 289.667,158.167 289.667,167.833 289,177.5C 284.579,183.086 280.579,182.753 277,176.5C 276.333,167.5 276.333,158.5 277,149.5C 277.997,147.677 279.164,146.01 280.5,144.5 Z M 305.5,148.5 C 309.162,147.637 311.328,148.97 312,152.5C 312.901,160.579 312.568,168.579 311,176.5C 308.408,177.982 306.075,177.648 304,175.5C 303.333,167.167 303.333,158.833 304,150.5C 304.717,149.956 305.217,149.289 305.5,148.5 Z M 209.5,168.5 C 227.167,168.5 244.833,168.5 262.5,168.5C 262.001,179.011 256.668,185.511 246.5,188C 239.542,189.064 232.542,189.731 225.5,190C 220.374,192.553 219.207,196.386 222,201.5C 232.138,207.966 238.805,216.966 242,228.5C 242.333,232.5 242.667,236.5 243,240.5C 246.532,246.29 250.865,246.957 256,242.5C 258.416,227.424 254.583,214.257 244.5,203C 254.13,201.602 262.297,197.435 269,190.5C 279.06,197.389 288.893,197.056 298.5,189.5C 301.92,191.419 305.42,192.086 309,191.5C 309.204,200.017 307.204,208.017 303,215.5C 296.054,222.446 289.054,229.446 282,236.5C 277.328,243.52 275.662,251.187 277,259.5C 280.748,289.813 284.248,320.146 287.5,350.5C 263.5,350.5 239.5,350.5 215.5,350.5C 220.761,319.838 224.761,289.005 227.5,258C 227.677,252.99 226.844,248.156 225,243.5C 219.417,235.336 214.084,227.003 209,218.5C 207.412,202.546 207.079,186.546 208,170.5C 208.717,169.956 209.217,169.289 209.5,168.5 Z M 183.5,364.5 C 231.501,364.333 279.501,364.5 327.5,365C 331.102,370.3 333.435,376.134 334.5,382.5C 281.833,382.5 229.167,382.5 176.5,382.5C 177.664,376.001 179.998,370.001 183.5,364.5 Z M 152.5,396.5 C 221.167,396.333 289.834,396.5 358.5,397C 360.049,398.214 361.215,399.714 362,401.5C 363.308,405.76 364.808,409.926 366.5,414C 292.5,414.667 218.5,414.667 144.5,414C 146.313,407.705 148.98,401.872 152.5,396.5 Z M 89.5,428.5 C 200.167,428.333 310.834,428.5 421.5,429C 422.416,429.374 423.25,429.874 424,430.5C 424.667,438.833 424.667,447.167 424,455.5C 423.5,456 423,456.5 422.5,457C 311.167,457.667 199.833,457.667 88.5,457C 88,456.5 87.5,456 87,455.5C 86.3333,447.167 86.3333,438.833 87,430.5C 87.9947,429.934 88.828,429.267 89.5,428.5 Z"/></g>
<g><path style="opacity:0.905" fill="#000000" d="M 94.5,197.5 C 106.505,197.333 118.505,197.5 130.5,198C 134.124,200.161 135.291,203.328 134,207.5C 133.5,209.333 132.333,210.5 130.5,211C 118.5,211.667 106.5,211.667 94.5,211C 89.2475,206.506 89.2475,202.006 94.5,197.5 Z"/></g>
<g><path style="opacity:0.905" fill="#000000" d="M 380.5,197.5 C 392.505,197.333 404.505,197.5 416.5,198C 421.833,202.333 421.833,206.667 416.5,211C 404.5,211.667 392.5,211.667 380.5,211C 376.304,208.019 375.471,204.186 378,199.5C 378.995,198.934 379.828,198.267 380.5,197.5 Z"/></g>
<g><path style="opacity:0.87" fill="#000000" d="M 164.5,287.5 C 171.691,289.573 173.524,293.906 170,300.5C 163.167,307.333 156.333,314.167 149.5,321C 143.007,324.837 138.674,323.17 136.5,316C 137,314.5 137.5,313 138,311.5C 146.156,302.499 154.989,294.499 164.5,287.5 Z"/></g>
<g><path style="opacity:0.87" fill="#000000" d="M 345.5,287.5 C 347.512,288.228 349.512,289.062 351.5,290C 358.333,296.833 365.167,303.667 372,310.5C 375.837,316.993 374.17,321.326 367,323.5C 365.107,322.804 363.274,321.97 361.5,321C 354.667,314.167 347.833,307.333 341,300.5C 337.643,294.402 339.143,290.069 345.5,287.5 Z"/></g>
</svg>
