<?xml version="1.0" encoding="UTF-8"?>
<!DOCTYPE svg PUBLIC "-//W3C//DTD SVG 1.1//EN" "http://www.w3.org/Graphics/SVG/1.1/DTD/svg11.dtd">
<svg xmlns="http://www.w3.org/2000/svg" version="1.1" width="512px" height="512px" style="shape-rendering:geometricPrecision; text-rendering:geometricPrecision; image-rendering:optimizeQuality; fill-rule:evenodd; clip-rule:evenodd" xmlns:xlink="http://www.w3.org/1999/xlink">
<g><path style="opacity:0.955" fill="#000000" d="M 232.5,-0.5 C 238.833,-0.5 245.167,-0.5 251.5,-0.5C 280.335,10.8489 289.335,31.1823 278.5,60.5C 296.852,60.0902 311.018,67.4235 321,82.5C 327.263,97.6244 332.93,112.958 338,128.5C 339.672,139.832 338.172,150.665 333.5,161C 365.532,215.542 411.866,252.209 472.5,271C 479.546,278.545 478.546,284.878 469.5,290C 449.966,286.174 434.133,292.007 422,307.5C 408.004,337.419 384.504,350.586 351.5,347C 341.975,344.57 332.642,341.57 323.5,338C 319.514,337.501 315.514,337.334 311.5,337.5C 312.268,347.018 313.268,356.518 314.5,366C 313.885,370.188 313.219,374.355 312.5,378.5C 318.509,378.334 324.509,378.501 330.5,379C 333,380.167 334.833,382 336,384.5C 336.5,401.163 336.667,417.83 336.5,434.5C 353.903,434.042 371.236,434.542 388.5,436C 390.81,437.637 392.31,439.804 393,442.5C 393.5,458.83 393.667,475.163 393.5,491.5C 410.17,491.333 426.837,491.5 443.5,492C 449.542,495.748 451.042,500.915 448,507.5C 446.603,509.07 445.103,510.404 443.5,511.5C 389.833,511.5 336.167,511.5 282.5,511.5C 276.494,507.562 274.994,502.229 278,495.5C 279.214,493.951 280.714,492.785 282.5,492C 312.498,491.5 342.498,491.333 372.5,491.5C 372.5,479.5 372.5,467.5 372.5,455.5C 355.072,455.972 337.739,455.472 320.5,454C 317.732,452.238 316.232,449.738 316,446.5C 315.5,430.837 315.333,415.17 315.5,399.5C 266.167,399.5 216.833,399.5 167.5,399.5C 167.972,416.928 167.472,434.261 166,451.5C 164.421,453.041 162.587,454.208 160.5,455C 144.17,455.5 127.837,455.667 111.5,455.5C 111.5,467.5 111.5,479.5 111.5,491.5C 141.502,491.333 171.502,491.5 201.5,492C 209.445,498.497 209.445,504.997 201.5,511.5C 147.5,511.5 93.5,511.5 39.5,511.5C 31.6148,504.934 31.6148,498.434 39.5,492C 56.4967,491.5 73.4967,491.333 90.5,491.5C 90.3334,474.83 90.5001,458.163 91,441.5C 91.8333,438 94,435.833 97.5,435C 113.83,434.5 130.163,434.333 146.5,434.5C 146.333,418.163 146.5,401.83 147,385.5C 147.786,382.417 149.619,380.251 152.5,379C 158.859,378.831 165.193,378.331 171.5,377.5C 169.564,370.964 169.064,364.297 170,357.5C 176.07,305.541 181.403,253.541 186,201.5C 173.229,189.734 161.562,177.067 151,163.5C 145.093,151.727 143.426,139.393 146,126.5C 150.603,112.691 155.603,99.0243 161,85.5C 170.759,68.3658 185.593,60.1991 205.5,61C 196.076,40.8692 199.409,23.2026 215.5,8C 220.731,4.10231 226.397,1.26898 232.5,-0.5 Z M 235.5,20.5 C 253.138,19.0358 261.971,27.0358 262,44.5C 258.612,56.2808 250.779,61.7808 238.5,61C 221.918,55.2643 217.418,44.4309 225,28.5C 227.94,24.9632 231.44,22.2965 235.5,20.5 Z M 195.5,82.5 C 226.502,82.3334 257.502,82.5 288.5,83C 294.086,84.5809 298.586,87.7475 302,92.5C 308.979,107.105 314.146,122.272 317.5,138C 317.716,145.306 315.549,151.806 311,157.5C 306,162.5 301,167.5 296,172.5C 295.667,155.833 295.333,139.167 295,122.5C 290.389,117.084 284.889,116.084 278.5,119.5C 276.297,121.295 275.131,123.629 275,126.5C 274.5,146.497 274.333,166.497 274.5,186.5C 252.5,186.5 230.5,186.5 208.5,186.5C 208.978,164.742 208.478,143.075 207,121.5C 201,116.167 195,116.167 189,121.5C 187.71,138.1 187.043,154.767 187,171.5C 181.667,166.167 176.333,160.833 171,155.5C 165.803,147.392 164.47,138.725 167,129.5C 171,118.833 175,108.167 179,97.5C 182.198,89.7946 187.698,84.7946 195.5,82.5 Z M 318.5,179.5 C 332.112,199.435 347.779,217.935 365.5,235C 383.936,251.392 404.269,265.059 426.5,276C 413.161,283.006 403.661,293.506 398,307.5C 387.231,322.298 372.731,328.465 354.5,326C 346.769,323.534 339.103,320.867 331.5,318C 323.887,316.738 316.22,316.238 308.5,316.5C 304.962,278.786 300.962,241.119 296.5,203.5C 303.457,195.208 310.79,187.208 318.5,179.5 Z M 207.5,207.5 C 230.5,207.5 253.5,207.5 276.5,207.5C 281.581,260.228 287.247,312.894 293.5,365.5C 291.697,375.495 286.03,378.995 276.5,376C 275,374.5 273.5,373 272,371.5C 265.078,336.225 258.412,300.891 252,265.5C 248.225,257.465 242.392,255.632 234.5,260C 233.789,261.255 232.956,262.421 232,263.5C 225.441,299.189 218.774,334.856 212,370.5C 207.63,377.7 201.797,379.2 194.5,375C 190.758,370.483 189.591,365.316 191,359.5C 196.464,308.821 201.964,258.155 207.5,207.5 Z M 241.5,327.5 C 244.925,344.36 248.258,361.36 251.5,378.5C 244.825,378.666 238.158,378.5 231.5,378C 235.405,361.307 238.738,344.474 241.5,327.5 Z"/></g>
<g><path style="opacity:0.946" fill="#000000" d="M 409.5,30.5 C 415.898,29.0526 420.731,31.0526 424,36.5C 424.154,40.0979 425.154,43.4313 427,46.5C 431.172,49.0085 435.672,50.8418 440.5,52C 444.714,56.2002 445.548,61.0336 443,66.5C 441.786,68.0488 440.286,69.2155 438.5,70C 432.061,69.9591 427.561,72.7925 425,78.5C 424.409,88.4185 419.242,92.2518 409.5,90C 407.667,88.8333 406.167,87.3333 405,85.5C 404.84,75.3398 399.673,70.1731 389.5,70C 384.725,66.3449 383.225,61.5116 385,55.5C 388.382,51.2649 392.882,49.0983 398.5,49C 399.5,48.1667 400.5,47.3333 401.5,46.5C 403.087,43.0295 404.254,39.3628 405,35.5C 406.366,33.6383 407.866,31.9717 409.5,30.5 Z"/></g>
<g><path style="opacity:0.949" fill="#000000" d="M 64.5,152.5 C 70.5199,151.22 75.3533,152.887 79,157.5C 79.0983,163.118 81.2649,167.618 85.5,171C 97.4731,171.479 101.64,177.312 98,188.5C 96.786,190.049 95.286,191.215 93.5,192C 83.5289,192.306 78.6955,197.472 79,207.5C 74.7515,212.596 69.5849,213.763 63.5,211C 61.9512,209.786 60.7845,208.286 60,206.5C 59.6047,202.981 58.6047,199.648 57,196.5C 52.9253,193.695 48.4253,191.862 43.5,191C 37.9515,184.708 38.2849,178.708 44.5,173C 54.5276,173.304 59.6943,168.471 60,158.5C 61.332,156.34 62.832,154.34 64.5,152.5 Z"/></g>
<g><path style="opacity:0.897" fill="#000000" d="M 246.5,511.5 C 243.5,511.5 240.5,511.5 237.5,511.5C 230.388,506.099 229.721,499.933 235.5,493C 246.759,488.866 252.259,492.699 252,504.5C 251.033,507.621 249.2,509.954 246.5,511.5 Z"/></g>
</svg>
