<?xml version="1.0" encoding="UTF-8"?>
<!DOCTYPE svg PUBLIC "-//W3C//DTD SVG 1.1//EN" "http://www.w3.org/Graphics/SVG/1.1/DTD/svg11.dtd">
<svg xmlns="http://www.w3.org/2000/svg" version="1.1" width="512px" height="512px" style="shape-rendering:geometricPrecision; text-rendering:geometricPrecision; image-rendering:optimizeQuality; fill-rule:evenodd; clip-rule:evenodd" xmlns:xlink="http://www.w3.org/1999/xlink">
<g><path style="opacity:0.958" fill="#000000" d="M 285.5,-0.5 C 294.167,-0.5 302.833,-0.5 311.5,-0.5C 315.428,1.59151 318.594,4.59151 321,8.5C 328.306,34.7236 335.139,61.0569 341.5,87.5C 394.501,87.3333 447.501,87.5 500.5,88C 505.355,90.3566 509.021,93.8566 511.5,98.5C 511.5,235.167 511.5,371.833 511.5,508.5C 510.167,509.167 509.167,510.167 508.5,511.5C 505.5,511.5 502.5,511.5 499.5,511.5C 498.878,510.373 498.045,509.373 497,508.5C 496.667,374.167 496.333,239.833 496,105.5C 495.5,104.333 494.667,103.5 493.5,103C 479.504,102.5 465.504,102.333 451.5,102.5C 451.5,109.167 451.5,115.833 451.5,122.5C 458.841,122.334 466.174,122.5 473.5,123C 476.937,124.105 479.437,126.272 481,129.5C 481.667,139.833 481.667,150.167 481,160.5C 478.889,164.944 475.389,167.444 470.5,168C 464.175,168.5 457.842,168.666 451.5,168.5C 451.5,174.833 451.5,181.167 451.5,187.5C 458.841,187.334 466.174,187.5 473.5,188C 476.937,189.105 479.437,191.272 481,194.5C 481.667,204.833 481.667,215.167 481,225.5C 478.889,229.944 475.389,232.444 470.5,233C 464.175,233.5 457.842,233.666 451.5,233.5C 451.5,239.833 451.5,246.167 451.5,252.5C 458.841,252.334 466.174,252.5 473.5,253C 476.937,254.105 479.437,256.272 481,259.5C 481.667,269.833 481.667,280.167 481,290.5C 478.889,294.944 475.389,297.444 470.5,298C 464.175,298.5 457.842,298.666 451.5,298.5C 451.5,304.833 451.5,311.167 451.5,317.5C 458.841,317.334 466.174,317.5 473.5,318C 476.937,319.105 479.437,321.272 481,324.5C 481.667,334.833 481.667,345.167 481,355.5C 478.889,359.944 475.389,362.444 470.5,363C 464.175,363.5 457.842,363.666 451.5,363.5C 451.5,369.833 451.5,376.167 451.5,382.5C 458.841,382.334 466.174,382.5 473.5,383C 476.937,384.105 479.437,386.272 481,389.5C 481.667,399.833 481.667,410.167 481,420.5C 478.889,424.944 475.389,427.444 470.5,428C 327.167,428.667 183.833,428.667 40.5,428C 35.6107,427.444 32.1107,424.944 30,420.5C 29.3333,410.167 29.3333,399.833 30,389.5C 31.5629,386.272 34.0629,384.105 37.5,383C 44.8258,382.5 52.1591,382.334 59.5,382.5C 59.5,376.167 59.5,369.833 59.5,363.5C 53.1579,363.666 46.8246,363.5 40.5,363C 35.6107,362.444 32.1107,359.944 30,355.5C 29.3333,345.167 29.3333,334.833 30,324.5C 31.5629,321.272 34.0629,319.105 37.5,318C 44.8258,317.5 52.1591,317.334 59.5,317.5C 59.5,311.167 59.5,304.833 59.5,298.5C 53.1579,298.666 46.8246,298.5 40.5,298C 35.6107,297.444 32.1107,294.944 30,290.5C 29.3333,280.167 29.3333,269.833 30,259.5C 31.5629,256.272 34.0629,254.105 37.5,253C 44.8258,252.5 52.1591,252.334 59.5,252.5C 59.5,246.167 59.5,239.833 59.5,233.5C 53.1579,233.666 46.8246,233.5 40.5,233C 35.6107,232.444 32.1107,229.944 30,225.5C 29.3333,215.167 29.3333,204.833 30,194.5C 31.5629,191.272 34.0629,189.105 37.5,188C 44.8258,187.5 52.1591,187.334 59.5,187.5C 59.5,181.167 59.5,174.833 59.5,168.5C 53.1579,168.666 46.8246,168.5 40.5,168C 35.6107,167.444 32.1107,164.944 30,160.5C 29.3333,150.167 29.3333,139.833 30,129.5C 31.5629,126.272 34.0629,124.105 37.5,123C 44.8258,122.5 52.1591,122.334 59.5,122.5C 59.5,115.833 59.5,109.167 59.5,102.5C 45.496,102.333 31.496,102.5 17.5,103C 16.3333,103.5 15.5,104.333 15,105.5C 14.6667,239.833 14.3333,374.167 14,508.5C 12.955,509.373 12.1217,510.373 11.5,511.5C 8.5,511.5 5.5,511.5 2.5,511.5C 1.83333,510.167 0.833333,509.167 -0.5,508.5C -0.5,371.833 -0.5,235.167 -0.5,98.5C 1.97883,93.8566 5.64549,90.3566 10.5,88C 34.1667,87.6667 57.8333,87.3333 81.5,87C 83.0831,83.1763 85.4164,79.8429 88.5,77C 101.11,66.7802 114.61,57.9468 129,50.5C 136.242,52.2402 138.575,56.5736 136,63.5C 127.92,69.1239 119.753,74.6239 111.5,80C 106.362,83.5513 101.695,87.5513 97.5,92C 115.168,130.502 133.501,168.669 152.5,206.5C 161.606,187.633 170.106,168.633 178,149.5C 169.991,161.461 159.491,164.294 146.5,158C 136.149,147.776 135.316,136.943 144,125.5C 158.455,109.016 176.455,102.682 198,106.5C 200.281,100.43 204.448,96.2631 210.5,94C 218.629,93.6306 226.629,94.2972 234.5,96C 252.549,72.0933 275.549,65.4266 303.5,76C 312.25,84.3115 313.75,93.8115 308,104.5C 301.821,111.935 293.987,114.768 284.5,113C 303.132,120.732 320.965,129.899 338,140.5C 328.145,99.0815 317.645,57.7482 306.5,16.5C 255.629,16.4668 207.296,27.6334 161.5,50C 155.477,50.6586 152.143,47.9919 151.5,42C 151.795,39.0766 153.129,36.7432 155.5,35C 196.809,15.3417 240.143,3.50838 285.5,-0.5 Z M 277.5,86.5 C 283.801,86.1247 289.634,87.4581 295,90.5C 295.861,93.9936 294.528,96.3269 291,97.5C 279.375,94.0494 269.041,96.3827 260,104.5C 257.184,103.338 254.35,102.171 251.5,101C 258.652,93.2618 267.318,88.4285 277.5,86.5 Z M 74.5,102.5 C 78.1064,102.211 81.6064,102.544 85,103.5C 104.305,144.775 124.138,185.775 144.5,226.5C 127.684,278.286 134.517,326.62 165,371.5C 180.071,388.64 199.071,396.64 222,395.5C 270.689,394.653 311.022,375.986 343,339.5C 351.245,328.677 359.245,317.677 367,306.5C 369.03,303.774 370.53,300.774 371.5,297.5C 370.282,290.718 366.282,288.218 359.5,290C 349.301,302.899 339.468,316.065 330,329.5C 297.934,365.442 257.767,381.942 209.5,379C 196.527,376.597 185.694,370.43 177,360.5C 149.076,318.105 144.076,273.105 162,225.5C 179.5,187.167 197,148.833 214.5,110.5C 216.074,109.369 217.741,109.202 219.5,110C 294.387,126.59 357.054,163.424 407.5,220.5C 397,235.5 386.5,250.5 376,265.5C 374.378,274.79 378.211,278.29 387.5,276C 400.452,259.921 412.285,243.087 423,225.5C 423.977,220.266 423.31,215.266 421,210.5C 401.512,189.006 380.179,169.673 357,152.5C 354.498,135.663 350.665,119.163 345.5,103C 375.832,102.5 406.165,102.333 436.5,102.5C 436.5,205.833 436.5,309.167 436.5,412.5C 315.833,412.5 195.167,412.5 74.5,412.5C 74.5,309.167 74.5,205.833 74.5,102.5 Z M 178.5,121.5 C 182.846,121.334 187.179,121.501 191.5,122C 190.478,124.545 189.312,127.045 188,129.5C 176.395,130.385 167.229,135.551 160.5,145C 154.45,144.987 152.95,142.154 156,136.5C 162.088,129.222 169.588,124.222 178.5,121.5 Z M 44.5,138.5 C 49.5,138.5 54.5,138.5 59.5,138.5C 59.5,143.167 59.5,147.833 59.5,152.5C 54.5,152.5 49.5,152.5 44.5,152.5C 44.5,147.833 44.5,143.167 44.5,138.5 Z M 451.5,138.5 C 456.5,138.5 461.5,138.5 466.5,138.5C 466.5,143.167 466.5,147.833 466.5,152.5C 461.5,152.5 456.5,152.5 451.5,152.5C 451.5,147.833 451.5,143.167 451.5,138.5 Z M 215.5,183.5 C 233.986,182.49 247.486,190.157 256,206.5C 256.896,209.792 255.729,212.125 252.5,213.5C 248.603,211.73 246.103,208.73 245,204.5C 236.971,195.239 226.805,191.072 214.5,192C 211.665,188.695 211.999,185.862 215.5,183.5 Z M 44.5,203.5 C 49.5,203.5 54.5,203.5 59.5,203.5C 59.5,208.167 59.5,212.833 59.5,217.5C 54.5,217.5 49.5,217.5 44.5,217.5C 44.5,212.833 44.5,208.167 44.5,203.5 Z M 451.5,203.5 C 456.5,203.5 461.5,203.5 466.5,203.5C 466.5,208.167 466.5,212.833 466.5,217.5C 461.5,217.5 456.5,217.5 451.5,217.5C 451.5,212.833 451.5,208.167 451.5,203.5 Z M 301.5,233.5 C 320.584,232.62 334.418,240.62 343,257.5C 343.342,260.683 341.842,262.683 338.5,263.5C 335.124,260.286 332.29,256.619 330,252.5C 321.741,244.803 311.908,241.136 300.5,241.5C 299.447,240.562 298.78,239.395 298.5,238C 299.315,236.357 300.315,234.857 301.5,233.5 Z M 44.5,268.5 C 49.5,268.5 54.5,268.5 59.5,268.5C 59.5,273.167 59.5,277.833 59.5,282.5C 54.5,282.5 49.5,282.5 44.5,282.5C 44.5,277.833 44.5,273.167 44.5,268.5 Z M 451.5,268.5 C 456.5,268.5 461.5,268.5 466.5,268.5C 466.5,273.167 466.5,277.833 466.5,282.5C 461.5,282.5 456.5,282.5 451.5,282.5C 451.5,277.833 451.5,273.167 451.5,268.5 Z M 44.5,333.5 C 49.5,333.5 54.5,333.5 59.5,333.5C 59.5,338.167 59.5,342.833 59.5,347.5C 54.5,347.5 49.5,347.5 44.5,347.5C 44.5,342.833 44.5,338.167 44.5,333.5 Z M 451.5,333.5 C 456.5,333.5 461.5,333.5 466.5,333.5C 466.5,338.167 466.5,342.833 466.5,347.5C 461.5,347.5 456.5,347.5 451.5,347.5C 451.5,342.833 451.5,338.167 451.5,333.5 Z M 44.5,398.5 C 49.5,398.5 54.5,398.5 59.5,398.5C 59.5,403.167 59.5,407.833 59.5,412.5C 54.5,412.5 49.5,412.5 44.5,412.5C 44.5,407.833 44.5,403.167 44.5,398.5 Z M 451.5,398.5 C 456.5,398.5 461.5,398.5 466.5,398.5C 466.5,403.167 466.5,407.833 466.5,412.5C 461.5,412.5 456.5,412.5 451.5,412.5C 451.5,407.833 451.5,403.167 451.5,398.5 Z M 44.5,481.5 C 49.5,481.5 54.5,481.5 59.5,481.5C 59.5,486.5 59.5,491.5 59.5,496.5C 54.5,496.5 49.5,496.5 44.5,496.5C 44.5,491.5 44.5,486.5 44.5,481.5 Z M 451.5,481.5 C 456.5,481.5 461.5,481.5 466.5,481.5C 466.5,486.5 466.5,491.5 466.5,496.5C 461.5,496.5 456.5,496.5 451.5,496.5C 451.5,491.5 451.5,486.5 451.5,481.5 Z"/></g>
<g><path style="opacity:0.925" fill="#000000" d="M 212.5,167.5 C 240.944,165.625 260.777,177.625 272,203.5C 273.669,218.327 267.169,226.994 252.5,229.5C 245.222,229.245 239.388,226.245 235,220.5C 233.698,216.726 231.531,213.559 228.5,211C 221.965,209.12 215.298,207.786 208.5,207C 198.316,201.459 194.482,192.959 197,181.5C 199.877,174.114 205.044,169.448 212.5,167.5 Z M 215.5,183.5 C 211.999,185.862 211.665,188.695 214.5,192C 226.805,191.072 236.971,195.239 245,204.5C 246.103,208.73 248.603,211.73 252.5,213.5C 255.729,212.125 256.896,209.792 256,206.5C 247.486,190.157 233.986,182.49 215.5,183.5 Z"/></g>
<g><path style="opacity:0.923" fill="#000000" d="M 299.5,217.5 C 325.377,215.684 344.543,226.017 357,248.5C 362.63,265.909 356.464,276.243 338.5,279.5C 333.023,279.01 328.189,277.01 324,273.5C 321.376,269.752 318.876,265.919 316.5,262C 310.574,258.999 304.24,257.665 297.5,258C 285.152,252.802 280.652,243.636 284,230.5C 287.266,223.721 292.433,219.388 299.5,217.5 Z M 301.5,233.5 C 300.315,234.857 299.315,236.357 298.5,238C 298.78,239.395 299.447,240.562 300.5,241.5C 311.908,241.136 321.741,244.803 330,252.5C 332.29,256.619 335.124,260.286 338.5,263.5C 341.842,262.683 343.342,260.683 343,257.5C 334.418,240.62 320.584,232.62 301.5,233.5 Z"/></g>
<g><path style="opacity:0.93" fill="#000000" d="M 173.5,247.5 C 176.049,247.387 178.382,248.054 180.5,249.5C 209.609,294.026 250.942,317.86 304.5,321C 306.333,321.5 307.5,322.667 308,324.5C 309.724,329.731 308.224,333.565 303.5,336C 288.167,340.667 272.833,345.333 257.5,350C 238.739,356.739 220.739,355.072 203.5,345C 198.772,335.843 201.438,331.176 211.5,331C 218.759,335.309 226.592,337.809 235,338.5C 244.986,336.616 254.819,334.116 264.5,331C 236.608,323.477 212.441,309.643 192,289.5C 193.643,297.417 194.977,305.417 196,313.5C 192.726,318.738 188.226,319.904 182.5,317C 176.57,296.947 171.57,276.614 167.5,256C 167.451,251.572 169.451,248.738 173.5,247.5 Z"/></g>
<g><path style="opacity:0.914" fill="#000000" d="M 231.5,259.5 C 234.32,259.248 236.986,259.748 239.5,261C 245.462,270.649 254.128,275.649 265.5,276C 271.222,284.658 268.889,289.492 258.5,290.5C 242.832,289.676 232.166,282.009 226.5,267.5C 227.179,264.127 228.846,261.46 231.5,259.5 Z"/></g>
<g><path style="opacity:0.992" fill="#000000" d="M 71.5,511.5 C 59.8333,511.5 48.1667,511.5 36.5,511.5C 33.8607,509.691 31.6941,507.358 30,504.5C 29.3333,494.167 29.3333,483.833 30,473.5C 31.5,470.667 33.6667,468.5 36.5,467C 118.833,466.333 201.167,466.333 283.5,467C 287.212,469.513 288.378,473.013 287,477.5C 286.626,478.416 286.126,479.25 285.5,480C 215.249,481.493 144.916,481.993 74.5,481.5C 74.6664,490.506 74.4998,499.506 74,508.5C 72.955,509.373 72.1217,510.373 71.5,511.5 Z M 44.5,481.5 C 44.5,486.5 44.5,491.5 44.5,496.5C 49.5,496.5 54.5,496.5 59.5,496.5C 59.5,491.5 59.5,486.5 59.5,481.5C 54.5,481.5 49.5,481.5 44.5,481.5 Z"/></g>
<g><path style="opacity:0.988" fill="#000000" d="M 474.5,511.5 C 462.833,511.5 451.167,511.5 439.5,511.5C 438.878,510.373 438.045,509.373 437,508.5C 436.5,499.506 436.334,490.506 436.5,481.5C 394.499,481.667 352.499,481.5 310.5,481C 305.167,476.333 305.167,471.667 310.5,467C 365.167,466.333 419.833,466.333 474.5,467C 477.333,468.5 479.5,470.667 481,473.5C 481.667,483.833 481.667,494.167 481,504.5C 479.306,507.358 477.139,509.691 474.5,511.5 Z M 451.5,481.5 C 451.5,486.5 451.5,491.5 451.5,496.5C 456.5,496.5 461.5,496.5 466.5,496.5C 466.5,491.5 466.5,486.5 466.5,481.5C 461.5,481.5 456.5,481.5 451.5,481.5 Z"/></g>
</svg>
