<?xml version="1.0" encoding="UTF-8"?>
<svg version="1.1" xmlns="http://www.w3.org/2000/svg" width="512" height="512">
<path d="M0 0 C1.04558578 -0.00671722 2.09117157 -0.01343445 3.16844177 -0.02035522 C6.59338255 -0.03920724 10.01812593 -0.04325333 13.44311523 -0.04541016 C15.85050025 -0.05184829 18.25788451 -0.05857739 20.66526794 -0.06558228 C25.70264497 -0.07752412 30.73995358 -0.08126642 35.77734375 -0.08007812 C42.18645317 -0.07987543 48.59511674 -0.10714105 55.00412083 -0.14162254 C59.97600765 -0.16402247 64.94778952 -0.16791163 69.9197216 -0.16685867 C72.28007476 -0.16919638 74.64043163 -0.17791471 77.00073433 -0.19352341 C110.59307336 -0.39483164 134.15114909 9.61076676 160.74780273 29.65136719 C162.6305169 31.05962732 164.52661427 32.44286988 166.43920898 33.81005859 C183.1461557 45.88343806 193.34885169 59.54432968 198.93920898 79.29052734 C199.1195166 79.85989014 199.29982422 80.42925293 199.4855957 81.01586914 C200.1406841 84.30083072 200.1016499 87.56386303 200.10717773 90.89990234 C200.11123123 91.6741304 200.11528473 92.44835846 200.11946106 93.24604797 C200.12907688 95.84424777 200.12882463 98.44231177 200.12670898 101.04052734 C200.12779663 102.39426956 200.12779663 102.39426956 200.12890625 103.77536011 C200.12723623 122.96908753 199.45083149 142.13205993 198.65087891 161.30712891 C198.37626974 167.9672588 198.13805929 174.62770189 197.93920898 181.29052734 C197.88603516 183.03351105 197.88603516 183.03351105 197.83178711 184.81170654 C197.73864179 188.2617071 197.6773585 191.7107609 197.62670898 195.16162109 C197.58211548 196.73158592 197.58211548 196.73158592 197.53662109 198.33326721 C197.43194813 204.08495715 197.43194813 204.08495715 199.83374023 209.17358398 C200.52854492 209.87217529 201.22334961 210.5707666 201.93920898 211.29052734 C206.00448615 219.43340069 204.9365152 228.49514146 202.34057617 236.90917969 C200.55601695 242.22385734 198.5944364 247.46727979 196.57836914 252.69799805 C195.31600361 255.97337094 194.08758068 259.25989159 192.86499023 262.55029297 C185.86787235 281.22608037 179.26029395 298.76460091 161.93920898 310.29052734 C161.27920898 310.29052734 160.61920898 310.29052734 159.93920898 310.29052734 C159.91938965 310.87205566 159.89957031 311.45358398 159.87915039 312.05273438 C158.76368253 343.55083504 157.69126657 364.26639386 135.41040039 387.7265625 C133.07192185 390.21250567 130.84084597 392.78566074 128.61108398 395.36865234 C126.58162826 397.70157809 124.51156198 399.9956398 122.43920898 402.29052734 C119.17775773 405.90456792 115.95561744 409.54842089 112.75952148 413.22021484 C109.87293795 416.50323903 106.93180857 419.73668679 103.98999023 422.97021484 C102.38765553 424.78314211 100.93858721 426.6009956 99.50170898 428.54052734 C93.46126232 435.02295791 84.45914165 439.79947484 75.60014343 440.58757019 C71.48649176 440.72043468 67.38268211 440.76161551 63.26733398 440.75927734 C61.73809536 440.76639278 60.20885936 440.77409376 58.67962646 440.78234863 C55.48222427 440.79574946 52.28506878 440.79738302 49.08764648 440.79150391 C45.02158307 440.78562311 40.95672003 440.81615124 36.89088821 440.85662079 C33.73351846 440.88267489 30.5764306 440.88535914 27.4189682 440.88172913 C25.92166895 440.88340504 24.42435446 440.89289764 22.92716217 440.91087341 C9.09282784 441.05867018 -1.81775495 437.88291684 -12.06079102 428.29052734 C-15.18302441 425.05735165 -18.13801151 421.70403182 -21.06079102 418.29052734 C-22.22620706 416.95610075 -23.39279122 415.62269301 -24.56079102 414.29052734 C-25.11766602 413.65115234 -25.67454102 413.01177734 -26.24829102 412.35302734 C-28.33290266 409.98088306 -30.44507746 407.63496669 -32.56079102 405.29052734 C-35.82783437 401.67029011 -39.05599878 398.02069169 -42.25610352 394.34130859 C-44.29037243 392.02963938 -46.36301411 389.75521304 -48.43579102 387.47802734 C-49.9818903 385.75282287 -51.52346779 384.02355671 -53.06079102 382.29052734 C-53.84067383 381.41267578 -54.62055664 380.53482422 -55.42407227 379.63037109 C-67.77388446 365.20496021 -69.96973053 351.57319193 -71.18579102 333.10302734 C-71.2721582 331.89710938 -71.35852539 330.69119141 -71.44750977 329.44873047 C-71.88812986 323.04575116 -72.15729739 316.70820122 -72.06079102 310.29052734 C-72.78524414 310.04302734 -73.50969727 309.79552734 -74.25610352 309.54052734 C-86.91580861 303.89831894 -93.84734373 290.85293235 -98.57104492 278.57763672 C-99.29273809 276.66183188 -100.01047581 274.74453468 -100.7253418 272.82617188 C-102.02720139 269.37945696 -103.36873057 265.95081259 -104.71922302 262.52297974 C-106.02623195 259.18967088 -107.30922157 255.84738997 -108.58834839 252.5032959 C-109.22889843 250.8398961 -109.87741726 249.17953971 -110.53445435 247.52258301 C-114.83473706 236.64171672 -118.96748129 225.39024752 -115.22338867 213.66894531 C-113.8648645 210.80038158 -112.30479496 208.53453129 -110.06079102 206.29052734 C-109.76584585 204.11326358 -109.76584585 204.11326358 -109.83032227 201.57348633 C-109.83153076 200.59122574 -109.83273926 199.60896515 -109.83398438 198.59693909 C-109.84695557 197.52515915 -109.85992676 196.45337921 -109.87329102 195.34912109 C-109.88404663 193.67383583 -109.88404663 193.67383583 -109.89501953 191.96470642 C-110.00204721 180.59009168 -110.44249383 169.23077197 -110.91693115 157.86663818 C-111.64733014 140.02748724 -112.29458926 122.17963885 -112.4152832 104.32467651 C-112.42872402 102.58187087 -112.44898509 100.83910147 -112.47680664 99.09646606 C-112.76305707 79.92498448 -108.04417943 62.97194442 -95.06079102 48.29052734 C-94.05338867 47.14197266 -94.05338867 47.14197266 -93.02563477 45.97021484 C-85.96321113 38.43534777 -77.69451228 32.73016264 -69.2590332 26.84375 C-67.26351846 25.43376946 -65.30147253 23.99084584 -63.34985352 22.52099609 C-44.76766684 8.59814499 -23.42908308 -0.02210291 0 0 Z M-58.7980957 40.56738281 C-61.07861086 42.30409796 -63.38241468 44.00506445 -65.69360352 45.70068359 C-80.27365611 56.47356579 -91.4799206 67.73206599 -95.06079102 86.29052734 C-95.23136066 88.84427869 -95.31067171 91.40540307 -95.30883789 93.96484375 C-95.31017731 94.68668728 -95.31151672 95.40853081 -95.31289673 96.15224838 C-95.31311707 98.5240406 -95.29723875 100.89536808 -95.27954102 103.26708984 C-95.27646439 104.09359669 -95.27338776 104.92010353 -95.2702179 105.77165604 C-95.19965665 124.57468632 -94.48781147 143.34752306 -93.67010498 162.13049316 C-93.4832583 166.46354174 -93.30571702 170.79697289 -93.12719727 175.13037109 C-92.78040414 183.51747102 -92.42402504 191.90412337 -92.06079102 200.29052734 C-89.75079102 200.62052734 -87.44079102 200.95052734 -85.06079102 201.29052734 C-85.0462085 200.08517334 -85.03162598 198.87981934 -85.01660156 197.63793945 C-84.95840777 193.14431851 -84.88117654 188.65118763 -84.79833984 184.15795898 C-84.76518943 182.21728499 -84.73712701 180.27651688 -84.71435547 178.33569336 C-84.68062717 175.53767987 -84.62830282 172.74052125 -84.57250977 169.94287109 C-84.56611984 169.08217514 -84.55972992 168.22147919 -84.55314636 167.33470154 C-84.42534497 162.03827507 -83.77671831 157.9788077 -81.06079102 153.29052734 C-79.59526376 152.0870299 -78.12495945 150.88544649 -76.58566284 149.77786255 C-72.52162753 146.69616863 -69.61708899 143.58559978 -68.39318848 138.53625488 C-67.42444605 130.52309443 -67.72068532 122.46693346 -67.93579102 114.41552734 C-67.97914819 110.77737895 -68.00573692 107.13953819 -68.02542114 103.50119019 C-68.04340144 101.24831635 -68.07816636 98.99549572 -68.13204956 96.74319458 C-68.31284965 86.94803862 -68.31284965 86.94803862 -66.06079102 82.29052734 C-59.73152823 79.12589595 -50.89861351 81.70770949 -44.37939453 83.32592773 C-43.46901428 83.54211258 -42.55863403 83.75829742 -41.6206665 83.98103333 C-39.66131193 84.44762746 -37.70314453 84.91923052 -35.74609566 85.39540291 C-32.64064251 86.15010512 -29.53190368 86.88956676 -26.42185974 87.62510681 C-17.58604769 89.71776995 -8.75699195 91.83832017 0.0703125 93.96655273 C5.48608199 95.27117553 10.90561897 96.55908212 16.32765388 97.83740044 C18.38275892 98.32563109 20.4363281 98.82037713 22.48821831 99.3219471 C37.09000476 103.18072608 37.09000476 103.18072608 51.93920898 102.29052734 C53.38060487 101.982792 54.82201796 101.67513723 56.26344299 101.36753845 C60.6775793 100.39928401 65.07164605 99.3570321 69.46422005 98.29568291 C72.40228474 97.58634471 75.34264073 96.88732933 78.28379822 96.19093323 C86.63824496 94.21076639 94.98807384 92.2114209 103.33691406 90.20776367 C108.46319619 88.97823816 113.59199184 87.75968358 118.72237968 86.54741096 C120.6661262 86.08566401 122.60885796 85.61962212 124.55049324 85.14907646 C127.27027337 84.48997168 129.99303549 83.84481511 132.71679688 83.20239258 C133.50512909 83.00759811 134.2934613 82.81280365 135.10568237 82.61210632 C140.57739687 81.34220941 146.34447593 80.35597307 151.93920898 81.29052734 C154.55872357 83.39554122 155.45283698 84.97155383 155.93920898 88.29052734 C155.98930529 89.99413667 155.98336279 91.69981634 155.93823242 93.40356445 C155.91621765 94.42240219 155.89420288 95.44123993 155.871521 96.49095154 C155.83541718 98.13777672 155.83541718 98.13777672 155.79858398 99.81787109 C155.7671235 103.3859722 155.7472206 106.95403152 155.7277832 110.5222168 C155.70223144 112.97696471 155.6553058 115.43159054 155.58618164 117.88549805 C154.59243713 132.55765871 154.59243713 132.55765871 159.84741211 145.66992188 C162.04663314 147.98454369 164.38448001 149.91223772 166.9440918 151.81225586 C170.38750492 154.66146409 171.12115894 155.94864415 171.93920898 160.29052734 C172.22951444 163.47698965 172.31060146 166.64674833 172.35327148 169.84521484 C172.38232071 171.19753708 172.38232071 171.19753708 172.41195679 172.57717896 C172.47145194 175.4398673 172.51801716 178.30259652 172.56420898 181.16552734 C172.60241646 183.11346097 172.64146979 185.0613782 172.68139648 187.00927734 C172.77712864 191.76955992 172.86127014 196.52992154 172.93920898 201.29052734 C175.24920898 200.96052734 177.55920898 200.63052734 179.93920898 200.29052734 C180.33995529 191.03803385 180.73146121 181.78520068 181.11266327 172.53188133 C181.29012822 168.23037554 181.47022498 163.92902171 181.6574707 159.62792969 C182.43227161 141.77513906 183.10430475 123.91675971 183.25849915 106.04631424 C183.27451632 104.43101535 183.29712283 102.81576516 183.32707214 101.20066452 C183.63573704 83.48459303 179.17573329 69.18295745 166.93139648 56.05224609 C161.00889943 50.34201738 154.05845195 45.71891256 147.35083008 40.99365234 C145.11250941 39.41291485 142.89338571 37.80871733 140.67749023 36.19677734 C117.09045221 19.23582547 94.10110893 16.11807061 65.56420898 16.15771484 C63.82413723 16.1570389 62.08406557 16.15606648 60.34399414 16.15481567 C56.7201242 16.15335234 53.09627913 16.15544893 49.47241211 16.16015625 C44.866852 16.16585268 40.26135021 16.1625663 35.65579224 16.15658379 C32.06949437 16.15294107 28.48320993 16.15413366 24.89691162 16.15671158 C23.20033765 16.15737062 21.5037624 16.15658895 19.80718994 16.15423203 C-11.15080649 16.12064464 -33.94646466 21.5476156 -58.7980957 40.56738281 Z M-51.06079102 99.29052734 C-51.08061035 100.42482178 -51.10042969 101.55911621 -51.12084961 102.7277832 C-51.19742931 106.9716458 -51.28606222 111.21518871 -51.37817383 115.45874023 C-51.41624869 117.28875374 -51.45113739 119.11883662 -51.48266602 120.94897461 C-51.52878735 123.5930242 -51.58669932 126.23660492 -51.64672852 128.88037109 C-51.65827972 129.68699692 -51.66983093 130.49362274 -51.68173218 131.32469177 C-51.86247393 138.42102699 -52.46708966 145.7947076 -56.68579102 151.72802734 C-58.61021973 154.26970551 -58.61021973 154.26970551 -59.06079102 157.29052734 C-47.43164785 161.19008533 -35.80088571 165.08477153 -24.16803551 168.97325802 C-18.76641141 170.77901648 -13.3653579 172.58644405 -7.96557617 174.39770508 C-2.75384523 176.14581922 2.45934182 177.88952397 7.67356491 179.6301899 C9.66197503 180.29484 11.64985666 180.96107339 13.63719559 181.6289196 C16.42219098 182.56451701 19.20901741 183.49445209 21.99633789 184.4230957 C22.8163327 184.70002258 23.63632751 184.97694946 24.48117065 185.26226807 C30.86226329 187.37784028 36.81524951 188.44743825 43.56420898 188.54052734 C44.67022461 188.56630859 45.77624023 188.59208984 46.91577148 188.61865234 C58.9903697 188.05369727 71.1277455 182.69236598 82.48608398 178.87255859 C84.35210172 178.24868393 86.21825396 177.62521144 88.08453369 177.00212097 C92.95849843 175.37367686 97.83063551 173.73983226 102.70239258 172.10479736 C107.68907815 170.43227672 112.67749998 168.76495132 117.66577148 167.09716797 C127.42527545 163.83332623 137.18285359 160.56376781 146.93920898 157.29052734 C145.56831941 153.68810002 143.95462741 150.56697972 141.84155273 147.32958984 C139.37415461 141.75391097 139.74576373 135.08632361 139.62280273 129.07568359 C139.60202164 128.21994247 139.58124054 127.36420135 139.55982971 126.48252869 C139.49490945 123.77276958 139.4357192 121.06292094 139.37670898 118.35302734 C139.33346893 116.50601321 139.28985297 114.65900783 139.24584961 112.81201172 C139.13928779 108.30493994 139.03786162 103.7977789 138.93920898 99.29052734 C130.09408119 100.7397295 121.41122088 102.7607724 112.69767952 104.83551407 C109.29626551 105.64391874 105.89248328 106.44212846 102.48882961 107.24104118 C96.17899967 108.7221887 89.8701623 110.2072477 83.56542969 111.70996094 C79.15282719 112.76127559 74.73729203 113.79938227 70.31960869 114.82912827 C68.65093964 115.22061777 66.98337258 115.61683909 65.31703377 116.01813126 C48.16424143 120.14457034 35.12199561 119.04158869 18.06030273 114.91552734 C16.15679668 114.46586136 14.25298724 114.01747794 12.34889221 113.5703125 C7.37106041 112.39816574 2.39701518 111.21071207 -2.57623291 110.01928711 C-10.56566056 108.10846913 -18.5610881 106.22285715 -26.55576897 104.33416748 C-29.34371369 103.6734625 -32.13028211 103.00720023 -34.91664124 102.33984375 C-36.61645023 101.93532099 -38.31627346 101.53085805 -40.01611328 101.12646484 C-40.79063843 100.93945007 -41.56516357 100.7524353 -42.36315918 100.55975342 C-45.33498067 99.85577291 -47.99472217 99.29052734 -51.06079102 99.29052734 Z M-67.06079102 172.29052734 C-68.03169406 182.445931 -68.69024307 192.59630067 -69.06079102 202.79052734 C-69.08788902 203.53530334 -69.11498703 204.28007935 -69.14290619 205.04742432 C-69.6908497 222.15267538 -69.94734066 237.60967984 -57.89593506 251.0501709 C-50.69913102 258.32726811 -42.27214768 265.68484901 -33.06079102 270.29052734 C-26.780747 270.24322004 -20.67807911 269.04646226 -14.56079102 267.72802734 C-5.50567371 265.86184581 3.62035708 264.44334481 11.93920898 269.29052734 C19.45806494 275.43152959 26.23930777 282.46582015 33.06420898 289.35302734 C34.0301158 290.32396831 34.9962606 291.29467257 35.96264648 292.26513672 C38.29050285 294.60463237 40.61597004 296.94644786 42.93920898 299.29052734 C47.06592312 297.67286033 49.75907317 294.67348876 52.77124023 291.54833984 C53.91108888 290.38806047 55.05106695 289.22790824 56.19116211 288.06787109 C57.97092314 286.24474906 59.74812384 284.41922173 61.52246094 282.59082031 C63.24459691 280.82004184 64.97613541 279.05886796 66.70874023 277.29833984 C67.4888018 276.48564133 67.4888018 276.48564133 68.28462219 275.65652466 C74.03219726 269.83321471 80.13191568 266.23425879 88.43920898 265.97802734 C95.07657345 266.00497199 101.40491662 267.4387685 107.85717773 268.86743164 C114.37081532 270.48379928 114.37081532 270.48379928 120.93920898 270.29052734 C122.95249841 268.79699619 124.71302743 267.14348363 126.52124023 265.40673828 C128.7893091 263.42172001 131.12236246 261.8703022 133.68515015 260.29550171 C142.71175364 254.57970282 151.1511898 247.5495169 154.93920898 237.29052734 C159.11698612 216.36685643 156.55040988 193.40420076 154.93920898 172.29052734 C149.8338748 173.93276546 144.7298739 175.57906415 139.62670898 177.22802734 C138.4289534 177.61461014 138.4289534 177.61461014 137.20700073 178.00900269 C126.32060415 181.5257627 115.45939178 185.11120263 104.61889648 188.76708984 C102.92604271 189.33669182 102.92604271 189.33669182 101.19898987 189.9178009 C94.43940535 192.19197133 94.43940535 192.19197133 87.68515015 194.48190308 C57.1726873 204.86721819 57.1726873 204.86721819 44.12670898 204.72802734 C43.47379883 204.74800781 42.82088867 204.76798828 42.14819336 204.78857422 C27.18205285 204.77467808 11.92359883 198.51466343 -2.06079102 193.77490234 C-3.91716189 193.15214488 -5.77377483 192.53010856 -7.63061523 191.90875244 C-12.45898289 190.29114079 -17.28435184 188.66477341 -22.10900879 187.03613281 C-28.95753032 184.72619767 -35.8102144 182.42863192 -42.66235352 180.12945557 C-46.30141329 178.90835598 -49.93934708 177.68398618 -53.57641602 176.45697021 C-55.21964326 175.9037622 -56.86287233 175.35055959 -58.50610352 174.79736328 C-59.63884201 174.41405853 -59.63884201 174.41405853 -60.79446411 174.02301025 C-63.8624943 172.81372459 -63.8624943 172.81372459 -67.06079102 172.29052734 Z M-97.18579102 217.85302734 C-99.79104076 221.23985201 -99.40454373 223.04270729 -99.06079102 227.29052734 C-98.18744771 230.64341797 -97.01347913 233.86111455 -95.80688477 237.10693359 C-95.46834976 238.04045151 -95.12981476 238.97396942 -94.78102112 239.93577576 C-94.06256539 241.90863129 -93.33856096 243.87947389 -92.609375 245.84838867 C-91.51265855 248.81417407 -90.43677821 251.78688571 -89.36352539 254.76123047 C-84.28435428 272.48495123 -84.28435428 272.48495123 -74.06079102 286.29052734 C-74.20209388 282.68616854 -74.34969265 279.08209216 -74.49829102 275.47802734 C-74.53760742 274.47320312 -74.57692383 273.46837891 -74.61743164 272.43310547 C-74.74487731 269.38421285 -74.89816264 266.33773377 -75.06079102 263.29052734 C-75.1054248 262.28062744 -75.15005859 261.27072754 -75.19604492 260.23022461 C-75.5505629 253.30437318 -75.5505629 253.30437318 -79.56079102 247.85302734 C-82.81119965 244.76913554 -83.96300127 242.8001596 -84.13916016 238.27929688 C-84.1248999 237.58433105 -84.11063965 236.88936523 -84.09594727 236.17333984 C-83.77870917 227.52844668 -83.77870917 227.52844668 -86.83422852 219.77490234 C-91.82339314 216.02621878 -91.82339314 216.02621878 -97.18579102 217.85302734 Z M174.70483398 219.78662109 C171.75107781 223.97546558 172.09834094 228.5779561 172.15185547 233.57714844 C172.19266213 238.85071047 171.56524784 242.55682174 168.93920898 247.29052734 C167.64950195 248.36560547 167.64950195 248.36560547 166.33374023 249.46240234 C162.53693217 253.94672378 162.90191835 258.83076193 162.62670898 264.54052734 C162.55387695 265.63494141 162.48104492 266.72935547 162.40600586 267.85693359 C162.01915046 274.00977653 161.86768865 280.12677455 161.93920898 286.29052734 C165.32392272 283.27430702 166.97249906 280.52509609 168.69702148 276.34912109 C168.94565948 275.74901718 169.19429749 275.14891327 169.45046997 274.53062439 C172.75178816 266.46032181 175.79259358 258.28496686 178.80053711 250.10180664 C179.82299096 247.32921321 180.86149761 244.56294745 181.90014648 241.79638672 C182.55738933 240.01485164 183.21367459 238.23296293 183.86889648 236.45068359 C184.17818085 235.6339064 184.48746521 234.81712921 184.80612183 233.9756012 C186.5102327 229.27391794 187.44887343 225.3690558 186.93920898 220.29052734 C185.2091051 217.80821008 185.2091051 217.80821008 182.93920898 216.29052734 C179.53611822 216.29052734 177.38603309 217.78536636 174.70483398 219.78662109 Z M-58.06079102 271.29052734 C-57.16730905 285.61305275 -56.237505 299.93288129 -55.26647949 314.25036621 C-55.13358686 316.21457456 -55.00160533 318.17884485 -54.87072754 320.14318848 C-54.5323217 325.21973001 -54.17785614 330.2945092 -53.79360962 335.36779785 C-53.68106072 336.88616943 -53.57432492 338.40498433 -53.47372437 339.92419434 C-52.69891206 351.51911616 -50.84780379 358.85878561 -42.74829102 367.29052734 C-41.7645407 368.32894853 -40.78146696 369.36801108 -39.79907227 370.40771484 C-38.44362305 371.83470703 -38.44362305 371.83470703 -37.06079102 373.29052734 C-35.84271896 374.65690757 -34.63281958 376.03067462 -33.43579102 377.41552734 C-30.84369273 380.40450193 -28.21193096 383.3537427 -25.56079102 386.29052734 C-22.29688253 389.9072908 -19.07288152 393.55442343 -15.87329102 397.22802734 C-13.03361958 400.4593776 -10.14487897 403.64605063 -7.25610352 406.83349609 C-5.2704971 409.05582071 -3.35225603 411.32131675 -1.43579102 413.60302734 C4.9415149 420.84331732 11.02188666 423.82668805 20.6862793 424.47473145 C23.75164297 424.55342629 26.81036357 424.56783333 29.87670898 424.55615234 C31.5568811 424.55902252 31.5568811 424.55902252 33.27099609 424.56195068 C35.62752509 424.5633052 37.98406173 424.5596603 40.34057617 424.55126953 C43.9283133 424.54055987 47.51554976 424.55119016 51.10327148 424.56396484 C53.40275175 424.56264312 55.7022317 424.56008046 58.00170898 424.55615234 C59.06446045 424.56020081 60.12721191 424.56424927 61.22216797 424.56842041 C72.58707614 424.49757646 80.30108506 423.00847271 88.44165039 414.77001953 C94.23253889 408.75355672 99.8110217 402.53308093 105.26733398 396.21240234 C107.29678971 393.8794766 109.36685599 391.58541489 111.43920898 389.29052734 C114.70447097 385.67226406 117.93308647 382.0267519 121.12670898 378.34521484 C122.44152361 376.85471378 123.77779732 375.38305497 125.12670898 373.92333984 C128.87231306 369.86138407 132.52572535 365.74901627 135.87670898 361.35302734 C136.42198242 360.64275391 136.96725586 359.93248047 137.52905273 359.20068359 C141.91455654 350.15026716 141.57444246 338.931117 142.26342773 329.04443359 C142.37472493 327.5002958 142.48636965 325.95618303 142.5983429 324.41209412 C142.82991906 321.19939359 143.0571516 317.98642387 143.28125 314.77319336 C143.5686314 310.65805137 143.86730721 306.54381819 144.16920757 302.42971897 C144.40113574 299.25162125 144.62700667 296.07311525 144.85105324 292.89445305 C144.95880328 291.37647865 145.0684644 289.85863862 145.18008995 288.34094429 C145.33473928 286.22629339 145.48118482 284.11122829 145.62548828 281.99584961 C145.71050095 280.79436783 145.79551361 279.59288605 145.88310242 278.35499573 C145.93147054 275.71319113 145.75684148 273.77819215 144.93920898 271.29052734 C144.29854492 271.96599609 143.65788086 272.64146484 142.99780273 273.33740234 C135.93237683 280.62395186 129.97763087 286.27797862 119.43920898 286.60302734 C112.80184451 286.5760827 106.47350134 285.14228618 100.02124023 283.71362305 C93.50760265 282.09725541 93.50760265 282.09725541 86.93920898 282.29052734 C83.91437136 284.24018139 81.48213845 286.75950391 78.93920898 289.29052734 C78.41621216 289.80659546 77.89321533 290.32266357 77.35437012 290.85437012 C72.89243492 295.25990841 68.47521808 299.70908853 64.06420898 304.16552734 C61.44467229 306.8116134 58.82186228 309.45439147 56.19702148 312.09521484 C55.59810089 312.70243378 54.9991803 313.30965271 54.3821106 313.93527222 C49.23642861 319.1116005 49.23642861 319.1116005 44.31420898 319.79052734 C34.1849338 319.53258522 23.82627034 304.24723229 17.06420898 297.41552734 C14.44467229 294.76944129 11.82186228 292.12666321 9.19702148 289.48583984 C8.59810089 288.87862091 7.9991803 288.27140198 7.3821106 287.64578247 C4.44789723 284.59237391 4.44789723 284.59237391 0.93920898 282.29052734 C-5.34083503 282.33783464 -11.44350292 283.53459242 -17.56079102 284.85302734 C-26.44814534 286.68463438 -35.9289017 288.28161046 -44.06079102 283.29052734 C-46.73885397 281.10825146 -49.26628076 278.83305307 -51.76391602 276.44677734 C-53.78255776 274.55172591 -55.83477867 272.92754221 -58.06079102 271.29052734 Z " fill="#000000" transform="translate(212.060791015625,31.70947265625)"/>
<path d="M0 0 C4.9676748 0.12061856 8.43259367 1.57182094 12.73388672 3.93505859 C13.44737778 4.30783432 14.16086884 4.68061005 14.89598083 5.06468201 C17.18754593 6.26715686 19.46441712 7.4948459 21.74169922 8.72412109 C23.31531549 9.55734633 24.88978296 10.38896594 26.46508789 11.21899414 C29.54940867 12.84712832 32.62838503 14.48470744 35.703125 16.13085938 C39.17633358 17.98734992 42.66798648 19.80376356 46.17529297 21.59521484 C47.47974365 22.26447998 47.47974365 22.26447998 48.81054688 22.94726562 C50.32535971 23.72387653 51.84181192 24.49730333 53.36035156 25.26660156 C63.45632376 30.52837018 63.45632376 30.52837018 65.86669922 35.34912109 C66.55635439 42.36061535 66.55635439 42.36061535 63.99169922 46.03662109 C59.82651217 49.11885951 55.5844683 51.22937253 50.86669922 53.34912109 C50.24682129 53.6467334 49.62694336 53.9443457 48.98828125 54.25097656 C39.1666627 58.95445372 29.94805946 62.63343658 18.86669922 60.34912109 C12.1702193 57.41186482 6.36412172 52.99330888 0.61669922 48.53662109 C-0.15931641 47.95847656 -0.93533203 47.38033203 -1.73486328 46.78466797 C-9.41189901 40.85658151 -13.6101425 34.7586659 -14.96923828 25.07177734 C-15.51700042 15.98153428 -11.34718145 9.54280079 -6.13330078 2.34912109 C-3.77646355 -0.00771614 -3.21388205 0.03969804 0 0 Z M2.86669922 20.34912109 C2.07313121 22.09583698 2.07313121 22.09583698 1.86669922 24.34912109 C4.14045815 29.42337848 8.07853038 32.2326891 12.36669922 35.53662109 C13.04345703 36.06964844 13.72021484 36.60267578 14.41748047 37.15185547 C21.25071954 42.66111296 21.25071954 42.66111296 29.86669922 43.34912109 C32.97214913 42.21358297 35.9201233 40.84579458 38.86669922 39.34912109 C38.86669922 38.68912109 38.86669922 38.02912109 38.86669922 37.34912109 C38.25785889 37.04731934 37.64901855 36.74551758 37.02172852 36.43457031 C34.19810772 35.03331076 31.37591533 33.62921224 28.55419922 32.22412109 C27.54703857 31.72291748 26.53987793 31.22171387 25.50219727 30.70532227 C19.50589667 27.70838452 13.58962389 24.64312807 7.79248047 21.27490234 C5.77219129 20.13248815 5.77219129 20.13248815 2.86669922 20.34912109 Z " fill="#000000" transform="translate(174.13330078125,227.65087890625)"/>
<path d="M0 0 C2.05078125 1.46875 2.05078125 1.46875 3.3125 3.5 C4.00859375 4.59828125 4.00859375 4.59828125 4.71875 5.71875 C5.1415625 6.4715625 5.564375 7.224375 6 8 C6.60328125 9.00546875 6.60328125 9.00546875 7.21875 10.03125 C10.9755016 16.79340288 11.85565294 23.23465141 9.8125 30.73046875 C5.13112936 43.80679731 -9.07717592 52.73173878 -20.9074707 59.03613281 C-27.54840888 62.09510188 -34.4051701 61.18654525 -41.14208984 58.96289062 C-66.85449065 49.29101871 -66.85449065 49.29101871 -70 43 C-70.69444444 36.05555556 -70.69444444 36.05555556 -68.046875 32.03125 C-64.65088324 28.22649256 -60.44034267 26.36265016 -55.875 24.25 C-54.07331877 23.38337896 -52.27255886 22.51484031 -50.47265625 21.64453125 C-49.56016113 21.20705566 -48.64766602 20.76958008 -47.70751953 20.31884766 C-43.52731082 18.282645 -39.41975418 16.11618226 -35.3125 13.9375 C-34.53583984 13.52999512 -33.75917969 13.12249023 -32.95898438 12.70263672 C-29.05447133 10.64844533 -25.18405925 8.55004129 -21.34765625 6.37109375 C-20.59508545 5.95158447 -19.84251465 5.5320752 -19.06713867 5.09985352 C-17.65857839 4.31282301 -16.2581022 3.51104606 -14.8684082 2.69116211 C-9.98767053 -0.01257357 -5.56608868 -1.00908163 0 0 Z M-17.51171875 23.71875 C-18.23994339 24.09608276 -18.96816803 24.47341553 -19.71846008 24.86218262 C-22.04448663 26.06909187 -24.36599533 27.28441936 -26.6875 28.5 C-28.26338175 29.31956852 -29.83955028 30.13858586 -31.41601562 30.95703125 C-35.280701 32.96497274 -39.14135574 34.98047539 -43 37 C-43 37.66 -43 38.32 -43 39 C-41.65427347 39.68354364 -40.2978105 40.3459609 -38.9375 41 C-38.18339844 41.37125 -37.42929687 41.7425 -36.65234375 42.125 C-33.06213799 43.30939778 -30.77969674 43.52528701 -27 43 C-23.81582705 41.21668578 -21.06532312 38.99920947 -18.25 36.6875 C-17.49589844 36.09259766 -16.74179687 35.49769531 -15.96484375 34.88476562 C-9.23214758 30.10939451 -9.23214758 30.10939451 -6 23 C-6.495 21.515 -6.495 21.515 -7 20 C-11.0943585 20 -13.97255962 21.85558053 -17.51171875 23.71875 Z " fill="#000000" transform="translate(342,228)"/>
<path d="M0 0 C21.12 0 42.24 0 64 0 C64 5.61 64 11.22 64 17 C42.88 17 21.76 17 0 17 C0 11.39 0 5.78 0 0 Z " fill="#000000" transform="translate(224,364)"/>
<path d="M0 0 C2.61706876 1.78726647 3.75799437 2.76704499 4.37109375 5.890625 C4.58532925 9.39629688 4.32594752 11.45675414 2.5 14.5 C-1.0173217 16.61039302 -3.99130161 16.58460185 -8 16 C-9.33333333 15.33333333 -10.66666667 14.66666667 -12 14 C-15.5110594 13.61963523 -18.79978101 13.3998905 -22 15 C-25.2398818 16.6199409 -28.45915978 16.56595397 -32 16 C-34.5 14.5 -34.5 14.5 -36 12 C-36.69297878 7.14914857 -36.84732381 5.19154911 -34 1.1875 C-24.07614764 -6.04864235 -10.46256318 -6.62245757 0 0 Z " fill="#000000" transform="translate(272,400)"/>
</svg>
