<?xml version="1.0" encoding="UTF-8"?>
<!DOCTYPE svg PUBLIC "-//W3C//DTD SVG 1.1//EN" "http://www.w3.org/Graphics/SVG/1.1/DTD/svg11.dtd">
<svg xmlns="http://www.w3.org/2000/svg" version="1.1" width="512px" height="512px" style="shape-rendering:geometricPrecision; text-rendering:geometricPrecision; image-rendering:optimizeQuality; fill-rule:evenodd; clip-rule:evenodd" xmlns:xlink="http://www.w3.org/1999/xlink">
<g><path style="opacity:0.933" fill="#000000" d="M 312.5,-0.5 C 317.167,-0.5 321.833,-0.5 326.5,-0.5C 335.483,2.318 341.317,8.318 344,17.5C 344.5,32.1629 344.667,46.8295 344.5,61.5C 361.316,58.6498 372.816,64.9831 379,80.5C 380.617,100.115 380.951,119.782 380,139.5C 377.567,145.448 373.4,146.948 367.5,144C 366.299,143.097 365.465,141.931 365,140.5C 364.667,121.833 364.333,103.167 364,84.5C 362.108,80.9421 359.275,78.4421 355.5,77C 261.5,76.3333 167.5,76.3333 73.5,77C 70.4384,78.0608 67.9384,79.8941 66,82.5C 64.6714,177.419 64.0047,272.419 64,367.5C 61.5647,372.224 57.7314,373.724 52.5,372C 50.9512,370.786 49.7845,369.286 49,367.5C 48.3333,273.167 48.3333,178.833 49,84.5C 50.7801,74.4233 56.2801,67.2566 65.5,63C 128.238,46.7738 191.071,30.9405 254,15.5C 261.281,16.6345 263.614,20.6345 261,27.5C 260.097,28.7014 258.931,29.5348 257.5,30C 217.209,40.4893 176.876,50.8227 136.5,61C 200.832,61.5 265.166,61.6667 329.5,61.5C 329.667,48.4957 329.5,35.4957 329,22.5C 327.052,16.2766 322.885,13.7766 316.5,15C 306.728,17.7347 296.895,20.2347 287,22.5C 280.59,21.4241 278.257,17.7574 280,11.5C 280.465,10.0692 281.299,8.90252 282.5,8C 292.617,5.14115 302.617,2.30781 312.5,-0.5 Z"/></g>
<g><path style="opacity:0.961" fill="#000000" d="M 128.5,107.5 C 185.834,107.333 243.168,107.5 300.5,108C 305.812,112.572 305.812,117.239 300.5,122C 243.167,122.667 185.833,122.667 128.5,122C 123.235,117.076 123.235,112.242 128.5,107.5 Z"/></g>
<g><path style="opacity:0.931" fill="#000000" d="M 294.5,511.5 C 289.167,511.5 283.833,511.5 278.5,511.5C 268.658,507.184 260.325,500.684 253.5,492C 192.833,491.667 132.167,491.333 71.5,491C 58.8812,488.048 51.3812,480.215 49,467.5C 48.3333,444.5 48.3333,421.5 49,398.5C 51.4329,392.552 55.5996,391.052 61.5,394C 62.7014,394.903 63.5348,396.069 64,397.5C 64.3333,420.833 64.6667,444.167 65,467.5C 66.1049,470.937 68.2716,473.437 71.5,475C 126.5,475.667 181.5,475.667 236.5,475C 229.5,468 222.5,461 215.5,454C 199.167,453.667 182.833,453.333 166.5,453C 161.167,448.333 161.167,443.667 166.5,439C 177.5,438.667 188.5,438.333 199.5,438C 189.303,428.137 179.47,417.971 170,407.5C 162.518,395.261 162.851,383.261 171,371.5C 182.167,360.333 193.333,349.167 204.5,338C 168.782,332.901 143.282,314.068 128,281.5C 112.295,237.148 122.128,199.648 157.5,169C 185.261,149.708 215.261,145.375 247.5,156C 282.685,170.526 302.851,196.693 308,234.5C 313.951,227.542 320.785,221.709 328.5,217C 342.19,212.214 354.023,215.048 364,225.5C 364.333,207.167 364.667,188.833 365,170.5C 368.013,165.465 372.18,164.298 377.5,167C 378.893,168.171 379.727,169.671 380,171.5C 380.333,195.167 380.667,218.833 381,242.5C 406,267.5 431,292.5 456,317.5C 464.883,330.754 464.55,343.754 455,356.5C 430.333,381.167 405.667,405.833 381,430.5C 380.667,442.833 380.333,455.167 380,467.5C 377.619,480.215 370.119,488.048 357.5,491C 344.833,491.333 332.167,491.667 319.5,492C 312.675,500.684 304.342,507.184 294.5,511.5 Z M 204.5,168.5 C 206.471,177.105 207.138,186.105 206.5,195.5C 199.786,195.637 193.12,195.137 186.5,194C 190.666,184.155 196.666,175.655 204.5,168.5 Z M 222.5,168.5 C 226.422,170.915 229.922,173.915 233,177.5C 236.546,182.755 239.712,188.255 242.5,194C 235.88,195.137 229.214,195.637 222.5,195.5C 222.5,186.5 222.5,177.5 222.5,168.5 Z M 176.5,175.5 C 177.239,175.369 177.906,175.536 178.5,176C 175.895,180.543 173.562,185.209 171.5,190C 167.978,190.12 164.645,189.286 161.5,187.5C 165.942,182.716 170.942,178.716 176.5,175.5 Z M 250.5,176.5 C 257.251,177.814 262.918,181.481 267.5,187.5C 264.355,189.286 261.022,190.12 257.5,190C 255.535,185.234 253.202,180.734 250.5,176.5 Z M 149.5,200.5 C 155.108,202.369 160.775,204.036 166.5,205.5C 164.443,215.735 163.11,226.068 162.5,236.5C 153.833,236.5 145.167,236.5 136.5,236.5C 138.068,223.46 142.401,211.46 149.5,200.5 Z M 277.5,200.5 C 278.496,200.414 279.329,200.748 280,201.5C 286.844,212.199 291.011,223.865 292.5,236.5C 283.833,236.5 275.167,236.5 266.5,236.5C 265.727,226.09 264.394,215.757 262.5,205.5C 267.784,204.405 272.784,202.739 277.5,200.5 Z M 181.5,209.5 C 189.816,210.365 198.149,211.032 206.5,211.5C 206.5,219.833 206.5,228.167 206.5,236.5C 197.167,236.5 187.833,236.5 178.5,236.5C 178.845,227.423 179.845,218.423 181.5,209.5 Z M 241.5,209.5 C 243.5,209.5 245.5,209.5 247.5,209.5C 249.075,218.431 250.075,227.431 250.5,236.5C 241.167,236.5 231.833,236.5 222.5,236.5C 222.5,228.167 222.5,219.833 222.5,211.5C 229.037,211.414 235.37,210.747 241.5,209.5 Z M 336.5,230.5 C 341.655,229.89 346.322,231.056 350.5,234C 381.333,264.833 412.167,295.667 443,326.5C 447.14,332.287 447.473,338.287 444,344.5C 394.167,394.333 344.333,444.167 294.5,494C 289.167,497.333 283.833,497.333 278.5,494C 246.667,462.167 214.833,430.333 183,398.5C 179.257,391.702 179.923,385.369 185,379.5C 233.167,331.333 281.333,283.167 329.5,235C 331.76,233.212 334.093,231.712 336.5,230.5 Z M 136.5,251.5 C 145.167,251.5 153.833,251.5 162.5,251.5C 163.011,261.445 164.344,271.278 166.5,281C 161.251,283.869 155.751,286.369 150,288.5C 142.24,277.389 137.74,265.056 136.5,251.5 Z M 178.5,251.5 C 187.833,251.5 197.167,251.5 206.5,251.5C 206.831,259.86 206.498,268.193 205.5,276.5C 197.938,277.221 190.438,278.221 183,279.5C 179.973,270.484 178.473,261.15 178.5,251.5 Z M 222.5,251.5 C 231.833,251.5 241.167,251.5 250.5,251.5C 250.475,261.032 249.142,270.365 246.5,279.5C 238.547,278.17 230.547,277.17 222.5,276.5C 222.5,268.167 222.5,259.833 222.5,251.5 Z M 263.5,278.5 C 264.829,269.54 265.829,260.54 266.5,251.5C 274.507,251.334 282.507,251.5 290.5,252C 281.632,261.036 272.632,269.869 263.5,278.5 Z M 334.5,280.5 C 344.859,281.103 352.359,286.103 357,295.5C 359.524,303.479 357.191,309.812 350,314.5C 341.5,306 333,297.5 324.5,289C 327.438,285.551 330.771,282.718 334.5,280.5 Z M 197.5,292.5 C 200.5,292.5 203.5,292.5 206.5,292.5C 206.666,301.839 206.5,311.173 206,320.5C 197.407,313.99 191.241,305.657 187.5,295.5C 187.709,294.914 188.043,294.414 188.5,294C 191.695,293.819 194.695,293.319 197.5,292.5 Z M 222.5,292.5 C 228.523,292.669 234.523,293.169 240.5,294C 240.957,294.414 241.291,294.914 241.5,295.5C 237.439,305.069 231.272,313.069 223,319.5C 222.5,310.506 222.334,301.506 222.5,292.5 Z M 177.5,312.5 C 171.2,309.677 165.533,305.844 160.5,301C 163.737,299.548 167.07,298.381 170.5,297.5C 173.102,302.371 175.435,307.371 177.5,312.5 Z M 266.5,339.5 C 282.248,353.745 297.581,368.579 312.5,384C 307.137,384.264 301.803,384.764 296.5,385.5C 295.833,385.167 295.167,384.833 294.5,384.5C 289.149,367.986 277.816,360.819 260.5,363C 242.639,368.883 235.806,381.05 240,399.5C 244.019,409.93 251.519,416.263 262.5,418.5C 261.039,424.056 260.206,429.723 260,435.5C 245.125,420.959 230.625,406.126 216.5,391C 232.994,373.673 249.661,356.506 266.5,339.5 Z M 265.5,377.5 C 276.718,379.596 281.218,386.263 279,397.5C 280.24,402.071 283.24,404.404 288,404.5C 291.763,404.135 295.263,402.968 298.5,401C 302.449,399.816 306.449,399.482 310.5,400C 299,411.5 287.5,423 276,434.5C 275.778,430.818 276.111,427.152 277,423.5C 284.973,407.604 280.139,400.437 262.5,402C 254.189,397.405 252.355,390.905 257,382.5C 259.398,379.892 262.231,378.225 265.5,377.5 Z M 363.5,447.5 C 369.598,471.237 360.598,480.403 336.5,475C 345.702,465.965 354.702,456.798 363.5,447.5 Z"/></g>
<g><path style="opacity:0.933" fill="#000000" d="M 336.5,264.5 C 354.856,267.027 367.023,277.027 373,294.5C 374.537,302.7 373.203,310.366 369,317.5C 364.167,322.333 359.333,327.167 354.5,332C 351.537,333.85 348.537,333.85 345.5,332C 332.667,319.167 319.833,306.333 307,293.5C 305,290.5 305,287.5 307,284.5C 313.337,276.822 320.837,270.655 329.5,266C 332.036,265.814 334.369,265.314 336.5,264.5 Z M 334.5,280.5 C 330.771,282.718 327.438,285.551 324.5,289C 333,297.5 341.5,306 350,314.5C 357.191,309.812 359.524,303.479 357,295.5C 352.359,286.103 344.859,281.103 334.5,280.5 Z"/></g>
<g><path style="opacity:0.921" fill="#000000" d="M 289.5,300.5 C 291.989,300.298 294.323,300.798 296.5,302C 309.667,315.167 322.833,328.333 336,341.5C 338.509,350.661 335.009,354.495 325.5,353C 312,339.5 298.5,326 285,312.5C 283.309,307.131 284.809,303.131 289.5,300.5 Z"/></g>
<g><path style="opacity:0.923" fill="#000000" d="M 391.5,312.5 C 401.405,311.905 404.572,316.239 401,325.5C 385.5,341 370,356.5 354.5,372C 349.08,374.856 344.913,373.689 342,368.5C 341.294,366.029 341.627,363.695 343,361.5C 359.368,345.299 375.535,328.965 391.5,312.5 Z"/></g>
<g><path style="opacity:0.924" fill="#000000" d="M 261.5,324.5 C 267.105,323.908 272.439,324.741 277.5,327C 295.333,344.833 313.167,362.667 331,380.5C 335.667,387.5 335.667,394.5 331,401.5C 313.167,419.333 295.333,437.167 277.5,455C 269.396,458.839 261.73,458.172 254.5,453C 236.272,435.441 218.772,417.274 202,398.5C 199.431,391.281 200.431,384.614 205,378.5C 221.833,361.667 238.667,344.833 255.5,328C 257.727,327.059 259.727,325.892 261.5,324.5 Z M 266.5,339.5 C 249.661,356.506 232.994,373.673 216.5,391C 230.625,406.126 245.125,420.959 260,435.5C 260.206,429.723 261.039,424.056 262.5,418.5C 251.519,416.263 244.019,409.93 240,399.5C 235.806,381.05 242.639,368.883 260.5,363C 277.816,360.819 289.149,367.986 294.5,384.5C 295.167,384.833 295.833,385.167 296.5,385.5C 301.803,384.764 307.137,384.264 312.5,384C 297.581,368.579 282.248,353.745 266.5,339.5 Z M 265.5,377.5 C 262.231,378.225 259.398,379.892 257,382.5C 252.355,390.905 254.189,397.405 262.5,402C 280.139,400.437 284.973,407.604 277,423.5C 276.111,427.152 275.778,430.818 276,434.5C 287.5,423 299,411.5 310.5,400C 306.449,399.482 302.449,399.816 298.5,401C 295.263,402.968 291.763,404.135 288,404.5C 283.24,404.404 280.24,402.071 279,397.5C 281.218,386.263 276.718,379.596 265.5,377.5 Z"/></g>
<g><path style="opacity:0.921" fill="#000000" d="M 411.5,332.5 C 419.987,331.496 423.487,335.163 422,343.5C 405.833,359.667 389.667,375.833 373.5,392C 367.031,394.766 363.031,392.766 361.5,386C 361.542,384.033 362.042,382.199 363,380.5C 379.062,364.271 395.228,348.271 411.5,332.5 Z"/></g>
<g><path style="opacity:0.923" fill="#000000" d="M 345.5,399.5 C 353.392,400.194 356.226,404.194 354,411.5C 333.5,432 313,452.5 292.5,473C 282.476,475.306 278.976,471.473 282,461.5C 302.782,440.216 323.948,419.549 345.5,399.5 Z"/></g>
</svg>
