<?xml version="1.0" encoding="UTF-8"?>
<!DOCTYPE svg PUBLIC "-//W3C//DTD SVG 1.1//EN" "http://www.w3.org/Graphics/SVG/1.1/DTD/svg11.dtd">
<svg xmlns="http://www.w3.org/2000/svg" version="1.1" width="512px" height="512px" style="shape-rendering:geometricPrecision; text-rendering:geometricPrecision; image-rendering:optimizeQuality; fill-rule:evenodd; clip-rule:evenodd" xmlns:xlink="http://www.w3.org/1999/xlink">
<g><path style="opacity:0.934" fill="#000000" d="M 301.5,30.5 C 332.398,30.2697 355.232,43.603 370,70.5C 377.304,88.8246 377.304,107.158 370,125.5C 364.62,135.762 359.12,145.929 353.5,156C 414.232,200.655 439.399,260.489 429,335.5C 415.198,396.62 380.031,440.453 323.5,467C 292.203,479.361 259.87,483.027 226.5,478C 164.305,465.129 119.805,429.962 93,372.5C 67.133,304.036 77.4663,241.703 124,185.5C 157.245,150.464 198.078,130.797 246.5,126.5C 234.076,93.3603 241.409,65.527 268.5,43C 278.608,36.1355 289.608,31.9688 301.5,30.5 Z M 304.5,47.5 C 327.755,48.2918 344.589,58.9585 355,79.5C 360.612,95.4189 359.279,110.752 351,125.5C 337.581,148.003 324.414,170.67 311.5,193.5C 307.991,196.283 305.157,195.616 303,191.5C 290.333,169.5 277.667,147.5 265,125.5C 250.766,96.3243 256.933,72.491 283.5,54C 290.198,50.416 297.198,48.2493 304.5,47.5 Z M 303.5,78.5 C 317.775,77.7772 326.108,84.4439 328.5,98.5C 324.896,116.301 314.562,122.135 297.5,116C 284.755,105.025 284.422,93.6918 296.5,82C 298.925,80.7874 301.259,79.6207 303.5,78.5 Z M 238.5,144.5 C 244.758,144.19 250.924,144.524 257,145.5C 267.667,164.167 278.333,182.833 289,201.5C 297.838,213.374 308.672,215.541 321.5,208C 323.709,206.127 325.542,203.96 327,201.5C 332.581,191.336 338.414,181.336 344.5,171.5C 366.918,187.085 384.584,206.919 397.5,231C 384.304,243.862 371.47,257.029 359,270.5C 356.775,274.281 355.109,278.281 354,282.5C 353.667,293.167 353.333,303.833 353,314.5C 352.856,318.931 351.523,322.931 349,326.5C 334.471,341.363 319.638,355.863 304.5,370C 294.711,376.799 284.378,377.799 273.5,373C 264.566,367.4 257.732,359.9 253,350.5C 251.582,345.572 251.249,340.572 252,335.5C 255.703,327.147 259.369,318.814 263,310.5C 263.667,290.167 263.667,269.833 263,249.5C 256.86,229.824 243.36,219.991 222.5,220C 220.051,219.275 217.717,218.275 215.5,217C 200.134,201.302 185.134,185.302 170.5,169C 191.491,155.949 214.158,147.783 238.5,144.5 Z M 155.5,179.5 C 171.332,195.166 186.665,211.333 201.5,228C 210.838,235.34 221.504,239.006 233.5,239C 241.531,242.551 246.031,248.718 247,257.5C 247.893,274.535 247.56,291.535 246,308.5C 226.431,340.323 232.265,366.49 263.5,387C 279.608,395.327 295.608,394.994 311.5,386C 328.302,370.866 344.802,355.366 361,339.5C 369.433,327.094 372.266,313.427 369.5,298.5C 369.729,293.063 370.562,287.729 372,282.5C 381.949,270.383 392.783,259.049 404.5,248.5C 423.016,300.75 416.516,349.75 385,395.5C 341.008,453.279 283.508,473.779 212.5,457C 197.823,452.993 184.156,446.827 171.5,438.5C 172.701,434.065 174.201,429.732 176,425.5C 180.667,419.5 185.333,413.5 190,407.5C 192.059,403.323 193.726,398.99 195,394.5C 196.56,379.874 196.894,365.208 196,350.5C 194.054,331.09 183.888,318.256 165.5,312C 156.386,311.641 148.052,308.974 140.5,304C 126.757,290.927 113.757,277.26 101.5,263C 110.611,229.243 128.611,201.41 155.5,179.5 Z M 97.5,285.5 C 108.965,296.465 120.298,307.631 131.5,319C 134.339,320.92 137.339,322.587 140.5,324C 149.271,326.059 157.938,328.392 166.5,331C 173.28,335.39 177.446,341.557 179,349.5C 179.667,362.167 179.667,374.833 179,387.5C 178.399,390.637 177.399,393.637 176,396.5C 168.12,406.047 161.454,416.381 156,427.5C 111.828,390.516 92.3277,343.183 97.5,285.5 Z"/></g>
<g><path style="opacity:0.932" fill="#000000" d="M 301.5,61.5 C 332.467,61.301 346.634,76.6344 344,107.5C 337.155,129.31 322.321,138.477 299.5,135C 281.151,129.809 271.484,117.643 270.5,98.5C 271.873,78.4742 282.206,66.1409 301.5,61.5 Z M 303.5,78.5 C 301.259,79.6207 298.925,80.7874 296.5,82C 284.422,93.6918 284.755,105.025 297.5,116C 314.562,122.135 324.896,116.301 328.5,98.5C 326.108,84.4439 317.775,77.7772 303.5,78.5 Z"/></g>
</svg>
