<?xml version="1.0" encoding="UTF-8"?>
<!DOCTYPE svg PUBLIC "-//W3C//DTD SVG 1.1//EN" "http://www.w3.org/Graphics/SVG/1.1/DTD/svg11.dtd">
<svg xmlns="http://www.w3.org/2000/svg" version="1.1" width="512px" height="512px" style="shape-rendering:geometricPrecision; text-rendering:geometricPrecision; image-rendering:optimizeQuality; fill-rule:evenodd; clip-rule:evenodd" xmlns:xlink="http://www.w3.org/1999/xlink">
<g><path style="opacity:0.965" fill="#000000" d="M 236.5,41.5 C 277.043,39.9338 317.043,43.7672 356.5,53C 409.667,67.5 443.5,101.333 458,154.5C 466.18,187.657 470.014,221.323 469.5,255.5C 469.697,285.465 466.864,315.132 461,344.5C 449.371,403.792 414.537,441.626 356.5,458C 323.327,466.038 289.66,469.871 255.5,469.5C 225.542,469.64 195.875,466.807 166.5,461C 107.208,449.371 69.3742,414.537 53,356.5C 44.8198,323.343 40.9865,289.677 41.5,255.5C 40.3892,214.775 46.2225,175.108 59,136.5C 77.0305,93.0414 108.864,65.2081 154.5,53C 181.567,46.2043 208.901,42.3709 236.5,41.5 Z M 235.5,74.5 C 261.581,73.9686 287.581,75.1353 313.5,78C 382.943,84.1121 422.443,121.612 432,190.5C 438.976,240.743 437.643,290.743 428,340.5C 416.833,387.667 387.667,416.833 340.5,428C 283.834,439.333 227.168,439.333 170.5,428C 119.616,415.446 89.7826,383.28 81,331.5C 72.3333,280.833 72.3333,230.167 81,179.5C 91.935,121.9 126.435,88.7328 184.5,80C 201.568,77.3611 218.568,75.5277 235.5,74.5 Z"/></g>
<g><path style="opacity:0.957" fill="#000000" d="M 224.5,164.5 C 228.779,165.135 232.779,166.635 236.5,169C 258.755,183.909 279.255,201.075 298,220.5C 304.548,228.049 309.881,236.383 314,245.5C 316,252.167 316,258.833 314,265.5C 306.175,281.002 295.675,294.502 282.5,306C 266.24,320.46 248.907,333.46 230.5,345C 212.663,346.827 205.83,338.994 210,321.5C 211.046,319.91 212.213,318.41 213.5,317C 237.548,301.21 259.381,282.71 279,261.5C 280.555,259.557 281.722,257.39 282.5,255C 276.296,245.789 268.963,237.455 260.5,230C 245.374,217.273 229.707,205.273 213.5,194C 206.594,185.059 206.927,176.392 214.5,168C 217.776,166.308 221.109,165.141 224.5,164.5 Z"/></g>
</svg>
