<?xml version="1.0" encoding="UTF-8"?>
<!DOCTYPE svg PUBLIC "-//W3C//DTD SVG 1.1//EN" "http://www.w3.org/Graphics/SVG/1.1/DTD/svg11.dtd">
<svg xmlns="http://www.w3.org/2000/svg" version="1.1" width="512px" height="512px" style="shape-rendering:geometricPrecision; text-rendering:geometricPrecision; image-rendering:optimizeQuality; fill-rule:evenodd; clip-rule:evenodd" xmlns:xlink="http://www.w3.org/1999/xlink">
<g><path style="opacity:0.946" fill="#000000" d="M 212.5,-0.5 C 241.167,-0.5 269.833,-0.5 298.5,-0.5C 315.449,2.48711 331.115,8.82044 345.5,18.5C 346.191,23.3829 346.857,28.2162 347.5,33C 366.155,35.5433 382.822,42.5433 397.5,54C 391.539,82.8036 385.706,111.637 380,140.5C 379.333,150.5 379.333,160.5 380,170.5C 399.276,188.465 401.61,208.465 387,230.5C 376.166,242.891 362.499,248.891 346,248.5C 344,268.5 342,288.5 340,308.5C 337.274,327.946 326.774,334.112 308.5,327C 304.638,322.771 301.138,318.271 298,313.5C 297.333,318.833 297.333,324.167 298,329.5C 299.167,330.667 300.333,331.833 301.5,333C 335.982,344.272 370.315,355.938 404.5,368C 426.847,380.018 440.347,398.518 445,423.5C 445.5,452.831 445.667,482.165 445.5,511.5C 318.833,511.5 192.167,511.5 65.5,511.5C 65.3334,482.165 65.5,452.831 66,423.5C 70.6629,398.51 84.1629,380.01 106.5,368C 140.685,355.938 175.018,344.272 209.5,333C 210.667,331.833 211.833,330.667 213,329.5C 213.667,324.167 213.667,318.833 213,313.5C 209.862,318.271 206.362,322.771 202.5,327C 184.226,334.112 173.726,327.946 171,308.5C 169,288.5 167,268.5 165,248.5C 137.614,248.438 120.947,235.105 115,208.5C 113.17,192.825 118.504,180.159 131,170.5C 131.667,160.5 131.667,150.5 131,140.5C 125.294,111.637 119.461,82.8036 113.5,54C 128.178,42.5433 144.845,35.5433 163.5,33C 164.143,28.2162 164.809,23.3829 165.5,18.5C 179.885,8.82044 195.551,2.48711 212.5,-0.5 Z M 218.5,16.5 C 227.833,16.5 237.167,16.5 246.5,16.5C 246.5,43.8333 246.5,71.1667 246.5,98.5C 230.5,98.5 214.5,98.5 198.5,98.5C 198.667,83.4963 198.5,68.4963 198,53.5C 190.33,47.4865 185.164,39.8199 182.5,30.5C 182.608,29.5581 182.941,28.7247 183.5,28C 194.634,22.1424 206.301,18.3091 218.5,16.5 Z M 264.5,16.5 C 286.965,14.0629 308.132,18.0629 328,28.5C 328.102,33.2 326.768,37.5333 324,41.5C 320.702,45.7998 317.035,49.7998 313,53.5C 312.5,68.4963 312.333,83.4963 312.5,98.5C 296.5,98.5 280.5,98.5 264.5,98.5C 264.5,71.1667 264.5,43.8333 264.5,16.5 Z M 169.5,49.5 C 170.496,49.4142 171.329,49.7476 172,50.5C 173.907,54.4103 176.573,57.7436 180,60.5C 180.5,84.1643 180.667,107.831 180.5,131.5C 169.252,131.821 158.085,131.487 147,130.5C 142.564,108.153 138.064,85.8197 133.5,63.5C 133.608,62.5581 133.941,61.7247 134.5,61C 145.597,55.0226 157.264,51.1893 169.5,49.5 Z M 339.5,49.5 C 352.605,50.8124 364.938,54.6457 376.5,61C 377.059,61.7247 377.392,62.5581 377.5,63.5C 372.936,85.8197 368.436,108.153 364,130.5C 352.915,131.487 341.748,131.821 330.5,131.5C 330.333,107.831 330.5,84.1643 331,60.5C 334.81,57.525 337.644,53.8584 339.5,49.5 Z M 198.5,115.5 C 236.5,115.5 274.5,115.5 312.5,115.5C 312.5,120.833 312.5,126.167 312.5,131.5C 274.5,131.5 236.5,131.5 198.5,131.5C 198.5,126.167 198.5,120.833 198.5,115.5 Z M 148.5,148.5 C 158.833,148.5 169.167,148.5 179.5,148.5C 179.088,156.249 176.254,162.915 171,168.5C 163.902,165.016 156.402,163.683 148.5,164.5C 148.5,159.167 148.5,153.833 148.5,148.5 Z M 197.5,148.5 C 236.167,148.5 274.833,148.5 313.5,148.5C 315.404,166.906 323.571,181.906 338,193.5C 343.877,185.477 351.711,181.644 361.5,182C 374.736,185.965 380.236,194.798 378,208.5C 375.367,218.469 369.2,225.303 359.5,229C 347.167,230 334.833,231 322.5,232C 315.356,234.738 309.022,238.738 303.5,244C 297.324,247.48 291.324,247.147 285.5,243C 276.992,235.246 266.992,231.079 255.5,230.5C 250.633,230.262 245.967,231.095 241.5,233C 234.167,237.333 226.833,241.667 219.5,246C 216.833,246.667 214.167,246.667 211.5,246C 206.481,243.157 201.814,239.824 197.5,236C 194.583,234.472 191.583,233.139 188.5,232C 177.882,230.792 167.215,230.125 156.5,230C 138.925,225.687 131.092,214.52 133,196.5C 139.513,182.775 149.679,178.942 163.5,185C 166.965,187.463 170.131,190.296 173,193.5C 187.429,181.906 195.596,166.906 197.5,148.5 Z M 331.5,148.5 C 341.833,148.5 352.167,148.5 362.5,148.5C 362.5,153.833 362.5,159.167 362.5,164.5C 354.598,163.683 347.098,165.016 340,168.5C 334.746,162.915 331.912,156.249 331.5,148.5 Z M 252.5,247.5 C 255.607,247.351 258.607,247.851 261.5,249C 268.833,253.333 276.167,257.667 283.5,262C 298.295,266.774 310.961,263.441 321.5,252C 323.715,250.186 326.048,249.686 328.5,250.5C 326.233,270.841 323.899,291.174 321.5,311.5C 320.635,312.583 319.635,312.749 318.5,312C 310.632,296.266 298.965,292.599 283.5,301C 280.469,303.559 278.302,306.726 277,310.5C 271,326.5 265,342.5 259,358.5C 256.667,363.833 254.333,363.833 252,358.5C 246,342.5 240,326.5 234,310.5C 229.114,299.306 220.614,294.806 208.5,297C 200.624,299.274 195.291,304.274 192.5,312C 191.365,312.749 190.365,312.583 189.5,311.5C 187.101,291.174 184.767,270.841 182.5,250.5C 184.952,249.686 187.285,250.186 189.5,252C 200.039,263.441 212.705,266.774 227.5,262C 235.763,256.872 244.097,252.038 252.5,247.5 Z M 225.5,341.5 C 230.121,350.826 234.287,360.492 238,370.5C 243.843,378.451 251.677,381.284 261.5,379C 265.164,377.998 268.331,376.164 271,373.5C 276.056,362.999 280.722,352.332 285,341.5C 287.027,343.772 289.194,345.939 291.5,348C 283.382,373.899 271.382,397.732 255.5,419.5C 239.413,397.826 227.413,373.993 219.5,348C 222.259,346.471 224.259,344.305 225.5,341.5 Z M 202.5,353.5 C 212.179,382.525 225.846,409.525 243.5,434.5C 235.205,445.795 225.539,455.795 214.5,464.5C 190.275,436.573 172.609,404.739 161.5,369C 161.905,368.055 162.572,367.388 163.5,367C 176.71,362.765 189.71,358.265 202.5,353.5 Z M 307.5,353.5 C 320.768,358.089 334.101,362.589 347.5,367C 348.428,367.388 349.095,368.055 349.5,369C 333.689,418.1 306.689,459.767 268.5,494C 247.5,494.667 226.5,494.667 205.5,494C 255.494,458.872 289.494,412.038 307.5,353.5 Z M 142.5,373.5 C 143.75,373.577 144.583,374.244 145,375.5C 157.076,412.344 175.243,445.677 199.5,475.5C 190.867,482.615 181.534,488.782 171.5,494C 141.835,494.5 112.169,494.667 82.5,494.5C 82.3334,472.497 82.5,450.497 83,428.5C 86.5067,407.638 97.6734,392.471 116.5,383C 125.303,379.902 133.97,376.735 142.5,373.5 Z M 366.5,373.5 C 381.269,376.918 394.936,382.751 407.5,391C 419.186,401.203 426.019,414.036 428,429.5C 428.5,451.164 428.667,472.831 428.5,494.5C 383.832,494.667 339.165,494.5 294.5,494C 328.066,459.726 352.066,419.559 366.5,373.5 Z"/></g>
</svg>
