<?xml version="1.0" encoding="UTF-8"?>
<!DOCTYPE svg PUBLIC "-//W3C//DTD SVG 1.1//EN" "http://www.w3.org/Graphics/SVG/1.1/DTD/svg11.dtd">
<svg xmlns="http://www.w3.org/2000/svg" version="1.1" width="512px" height="512px" style="shape-rendering:geometricPrecision; text-rendering:geometricPrecision; image-rendering:optimizeQuality; fill-rule:evenodd; clip-rule:evenodd" xmlns:xlink="http://www.w3.org/1999/xlink">
<g><path style="opacity:0.96" fill="#000000" d="M 250.5,-0.5 C 253.833,-0.5 257.167,-0.5 260.5,-0.5C 319.625,39.2169 350.292,95.0502 352.5,167C 350.795,188.588 348.629,210.088 346,231.5C 364.667,253.5 383.333,275.5 402,297.5C 408.395,312.468 406.228,325.968 395.5,338C 391.391,341.388 386.725,343.721 381.5,345C 364.5,345.333 347.5,345.667 330.5,346C 328.672,357.46 326.838,368.96 325,380.5C 323.833,382.333 322.333,383.833 320.5,385C 315.511,385.499 310.511,385.666 305.5,385.5C 305.333,397.505 305.5,409.505 306,421.5C 307.282,435.29 314.449,444.623 327.5,449.5C 334.985,426.685 350.651,413.685 374.5,410.5C 386.041,389.382 403.708,376.548 427.5,372C 470.897,369.523 498.897,389.023 511.5,430.5C 511.5,438.167 511.5,445.833 511.5,453.5C 502.978,484.688 482.978,504.022 451.5,511.5C 399.5,511.5 347.5,511.5 295.5,511.5C 290.754,507.658 289.254,502.658 291,496.5C 292.167,494.667 293.667,493.167 295.5,492C 343.5,491.667 391.5,491.333 439.5,491C 465.597,489.036 482.431,475.536 490,450.5C 491.546,425.431 481.046,407.264 458.5,396C 434.503,387.893 414.337,393.393 398,412.5C 397.251,413.635 397.417,414.635 398.5,415.5C 407.349,418.517 413.349,424.35 416.5,433C 415.076,441.553 410.076,444.886 401.5,443C 388.738,431.04 374.738,429.374 359.5,438C 351.283,445.628 347.116,455.128 347,466.5C 345.833,468.333 344.333,469.833 342.5,471C 313.526,472.362 294.693,459.195 286,431.5C 284.686,416.198 284.186,400.864 284.5,385.5C 264.833,385.5 245.167,385.5 225.5,385.5C 225.667,400.837 225.5,416.17 225,431.5C 216.307,459.195 197.474,472.362 168.5,471C 166.667,469.833 165.167,468.333 164,466.5C 162.706,442.53 150.206,431.363 126.5,433C 120.075,435.046 114.409,438.379 109.5,443C 97.6744,444.174 93.1744,439.007 96,427.5C 100.8,422.533 106.3,418.533 112.5,415.5C 113.583,414.635 113.749,413.635 113,412.5C 96.6238,393.378 76.4571,387.878 52.5,396C 29.9541,407.264 19.4541,425.431 21,450.5C 28.5309,475.524 45.3643,489.024 71.5,491C 119.5,491.333 167.5,491.667 215.5,492C 220.275,495.655 221.775,500.488 220,506.5C 218.634,508.362 217.134,510.028 215.5,511.5C 163.5,511.5 111.5,511.5 59.5,511.5C 27.5757,503.909 7.57568,484.242 -0.5,452.5C -0.5,445.167 -0.5,437.833 -0.5,430.5C 12.0905,389.027 40.0905,369.527 83.5,372C 107.292,376.548 124.959,389.382 136.5,410.5C 160.349,413.685 176.015,426.685 183.5,449.5C 193.558,445.609 200.392,438.609 204,428.5C 204.5,414.171 204.667,399.837 204.5,385.5C 199.821,385.666 195.155,385.499 190.5,385C 188.667,383.833 187.167,382.333 186,380.5C 184.162,368.96 182.328,357.46 180.5,346C 163.5,345.667 146.5,345.333 129.5,345C 110.556,338.632 102.723,325.466 106,305.5C 107.392,299.786 110.059,294.786 114,290.5C 131,270.833 148,251.167 165,231.5C 162.305,210.096 160.138,188.596 158.5,167C 160.706,95.056 191.372,39.2227 250.5,-0.5 Z M 254.5,22.5 C 270.142,31.9683 283.476,44.1349 294.5,59C 268.5,59.6667 242.5,59.6667 216.5,59C 227.439,44.8911 240.106,32.7244 254.5,22.5 Z M 202.5,79.5 C 237.84,79.1668 273.173,79.5001 308.5,80.5C 323.116,107.464 330.783,136.297 331.5,167C 325.535,219.925 318.868,272.758 311.5,325.5C 274.167,325.5 236.833,325.5 199.5,325.5C 191.973,272.782 185.306,219.949 179.5,167C 180.373,136.006 188.04,106.84 202.5,79.5 Z M 248.5,146.5 C 273.644,145.476 285.477,157.476 284,182.5C 276.555,202.218 262.722,208.718 242.5,202C 226.664,191.816 222.497,177.983 230,160.5C 234.526,153.505 240.693,148.839 248.5,146.5 Z M 168.5,259.5 C 172.19,280.986 175.523,302.653 178.5,324.5C 164.846,325.666 151.179,325.833 137.5,325C 127.64,322.779 124.473,316.946 128,307.5C 141.335,291.334 154.835,275.334 168.5,259.5 Z M 341.5,259.5 C 355.842,275.012 369.675,291.012 383,307.5C 386.527,316.946 383.36,322.779 373.5,325C 359.821,325.833 346.154,325.666 332.5,324.5C 335.779,302.881 338.779,281.215 341.5,259.5 Z M 202.5,345.5 C 237.833,345.5 273.167,345.5 308.5,345.5C 307.833,352.167 307.167,358.833 306.5,365.5C 272.5,365.5 238.5,365.5 204.5,365.5C 203.74,358.843 203.073,352.177 202.5,345.5 Z"/></g>
<g><path style="opacity:0.945" fill="#000000" d="M 245.5,125.5 C 268.416,122.547 286.25,130.547 299,149.5C 310.916,174.188 307.083,196.021 287.5,215C 268.983,227.427 249.65,228.76 229.5,219C 210.387,206.262 202.554,188.429 206,165.5C 211.348,144.319 224.515,130.986 245.5,125.5 Z M 248.5,146.5 C 240.693,148.839 234.526,153.505 230,160.5C 222.497,177.983 226.664,191.816 242.5,202C 262.722,208.718 276.555,202.218 284,182.5C 285.477,157.476 273.644,145.476 248.5,146.5 Z"/></g>
<g><path style="opacity:0.908" fill="#000000" d="M 260.5,511.5 C 257.167,511.5 253.833,511.5 250.5,511.5C 245.754,507.658 244.254,502.658 246,496.5C 249.655,491.725 254.488,490.225 260.5,492C 265.275,495.655 266.775,500.488 265,506.5C 263.634,508.362 262.134,510.028 260.5,511.5 Z"/></g>
</svg>
