<?xml version="1.0" encoding="UTF-8"?>
<!DOCTYPE svg PUBLIC "-//W3C//DTD SVG 1.1//EN" "http://www.w3.org/Graphics/SVG/1.1/DTD/svg11.dtd">
<svg xmlns="http://www.w3.org/2000/svg" version="1.1" width="512px" height="512px" style="shape-rendering:geometricPrecision; text-rendering:geometricPrecision; image-rendering:optimizeQuality; fill-rule:evenodd; clip-rule:evenodd" xmlns:xlink="http://www.w3.org/1999/xlink">
<g><path style="opacity:0.943" fill="#000000" d="M 72.5,-0.5 C 198.833,-0.5 325.167,-0.5 451.5,-0.5C 458.323,2.16635 462.49,7.16635 464,14.5C 464.667,101.833 464.667,189.167 464,276.5C 459.862,283.527 454.862,284.194 449,278.5C 448.832,190.93 448.332,103.43 447.5,16C 341.581,14.5044 235.581,14.0044 129.5,14.5C 129.5,139.833 129.5,265.167 129.5,390.5C 235.167,390.667 340.834,390.5 446.5,390C 447,389.5 447.5,389 448,388.5C 448.333,361.167 448.667,333.833 449,306.5C 454.308,299.803 459.308,300.136 464,307.5C 464.667,335.167 464.667,362.833 464,390.5C 461.933,399.957 456.099,405.457 446.5,407C 436.244,416.106 433.078,427.273 437,440.5C 439.501,445.506 442.501,450.173 446,454.5C 448.657,462.206 446.157,467.372 438.5,470C 426.505,470.5 414.505,470.667 402.5,470.5C 402.667,481.838 402.5,493.172 402,504.5C 401.033,507.621 399.2,509.954 396.5,511.5C 393.167,511.5 389.833,511.5 386.5,511.5C 379.878,505.886 373.211,500.219 366.5,494.5C 359.247,499.946 352.247,505.613 345.5,511.5C 342.5,511.5 339.5,511.5 336.5,511.5C 334.193,510.023 332.36,508.023 331,505.5C 330.5,493.838 330.333,482.171 330.5,470.5C 247.833,470.667 165.166,470.5 82.5,470C 62,466.833 50.1667,455 47,434.5C 46.3333,321.833 46.3333,209.167 47,96.5C 48.8294,90.8418 52.6627,89.0084 58.5,91C 60.3333,91.5 61.5,92.6667 62,94.5C 62.3333,114.167 62.6667,133.833 63,153.5C 96.3854,180.306 109.719,214.972 103,257.5C 97.3703,283.449 84.0369,304.449 63,320.5C 62.3333,346.5 62.3333,372.5 63,398.5C 68.1738,394.497 74.0072,391.997 80.5,391C 91.495,390.5 102.495,390.333 113.5,390.5C 113.5,265.167 113.5,139.833 113.5,14.5C 102.495,14.3335 91.495,14.5002 80.5,15C 70.9025,15.9315 65.0691,21.0982 63,30.5C 62.6667,42.1667 62.3333,53.8333 62,65.5C 57.6997,70.4459 53.033,70.7793 48,66.5C 46.0572,52.1937 46.0572,37.8604 48,23.5C 52.111,11.221 60.2777,3.22097 72.5,-0.5 Z M 334.5,58.5 C 337.85,58.335 341.183,58.5017 344.5,59C 350.746,62.822 351.079,67.1553 345.5,72C 341.848,72.4986 338.182,72.6653 334.5,72.5C 334.5,67.8333 334.5,63.1667 334.5,58.5 Z M 163.5,59.5 C 179.24,56.908 186.907,63.5747 186.5,79.5C 186.148,94.5186 178.482,101.519 163.5,100.5C 163.5,86.8333 163.5,73.1667 163.5,59.5 Z M 275.5,71.5 C 277.67,75.9837 279.67,80.6504 281.5,85.5C 277.541,86.6599 273.541,86.8265 269.5,86C 271.601,81.1951 273.601,76.3618 275.5,71.5 Z M 62.5,175.5 C 75.2797,187.043 83.4463,201.376 87,218.5C 92.6918,249.414 84.6918,276.08 63,298.5C 62.5,257.501 62.3333,216.501 62.5,175.5 Z M 81.5,406.5 C 135.833,406.5 190.167,406.5 244.5,406.5C 244.333,418.505 244.5,430.505 245,442.5C 247.396,451.195 252.896,454.029 261.5,451C 268.278,445.856 274.778,440.356 281,434.5C 287.833,440 294.667,445.5 301.5,451C 308.638,453.51 313.804,451.344 317,444.5C 317.5,431.838 317.667,419.171 317.5,406.5C 321.833,406.5 326.167,406.5 330.5,406.5C 330.5,422.5 330.5,438.5 330.5,454.5C 248.166,454.667 165.833,454.5 83.5,454C 70.8688,451.258 63.8688,443.425 62.5,430.5C 63.6977,418.315 70.031,410.315 81.5,406.5 Z M 260.5,406.5 C 274.167,406.5 287.833,406.5 301.5,406.5C 301.831,414.196 301.497,421.862 300.5,429.5C 295.111,423.594 288.611,419.594 281,417.5C 273.045,419.778 266.378,424.111 261,430.5C 260.5,422.507 260.334,414.507 260.5,406.5 Z M 346.5,406.5 C 359.833,406.5 373.167,406.5 386.5,406.5C 386.667,434.169 386.5,461.835 386,489.5C 382.167,486.333 378.333,483.167 374.5,480C 368.33,476.58 362.33,476.914 356.5,481C 353.051,483.482 349.884,486.315 347,489.5C 346.5,461.835 346.333,434.169 346.5,406.5 Z M 402.5,406.5 C 410.174,406.334 417.841,406.5 425.5,407C 421.031,414.172 419.031,422.005 419.5,430.5C 419.232,438.929 421.232,446.762 425.5,454C 417.841,454.5 410.174,454.666 402.5,454.5C 402.5,438.5 402.5,422.5 402.5,406.5 Z"/></g>
<g><path style="opacity:0.924" fill="#000000" d="M 220.5,41.5 C 226.192,40.2601 230.026,42.2601 232,47.5C 232.667,68.5 232.667,89.5 232,110.5C 228.726,115.738 224.226,116.904 218.5,114C 217.874,113.25 217.374,112.416 217,111.5C 216.333,89.5 216.333,67.5 217,45.5C 218.376,44.2949 219.542,42.9616 220.5,41.5 Z"/></g>
<g><path style="opacity:0.934" fill="#000000" d="M 271.5,42.5 C 276.447,41.6276 280.613,42.9609 284,46.5C 291.333,65.8333 298.667,85.1667 306,104.5C 306.817,107.964 306.483,111.298 305,114.5C 300.409,117.367 296.076,117.034 292,113.5C 290.326,109.979 289.16,106.313 288.5,102.5C 280.14,102.169 271.807,102.502 263.5,103.5C 262.188,108.298 259.855,112.465 256.5,116C 247.453,117.62 243.787,113.953 245.5,105C 252.472,86.8882 259.306,68.7216 266,50.5C 267.116,47.2444 268.949,44.5777 271.5,42.5 Z M 275.5,71.5 C 273.601,76.3618 271.601,81.1951 269.5,86C 273.541,86.8265 277.541,86.6599 281.5,85.5C 279.67,80.6504 277.67,75.9837 275.5,71.5 Z"/></g>
<g><path style="opacity:0.936" fill="#000000" d="M 322.5,42.5 C 330.84,42.3336 339.173,42.5003 347.5,43C 361.906,47.6347 367.74,57.468 365,72.5C 362.565,79.9343 357.732,85.101 350.5,88C 355.711,93.5417 360.544,99.3751 365,105.5C 366.522,114.981 362.688,118.481 353.5,116C 347.333,109.167 341.167,102.333 335,95.5C 334.912,101.61 334.245,107.61 333,113.5C 328.968,118.363 324.634,118.696 320,114.5C 318.355,91.9216 318.022,69.255 319,46.5C 320.376,45.2949 321.542,43.9616 322.5,42.5 Z M 334.5,58.5 C 334.5,63.1667 334.5,67.8333 334.5,72.5C 338.182,72.6653 341.848,72.4986 345.5,72C 351.079,67.1553 350.746,62.822 344.5,59C 341.183,58.5017 337.85,58.335 334.5,58.5 Z"/></g>
<g><path style="opacity:0.918" fill="#000000" d="M 380.5,42.5 C 382.857,42.3367 385.19,42.5034 387.5,43C 392.867,49.5671 397.867,56.4004 402.5,63.5C 407.032,56.9496 411.699,50.4496 416.5,44C 426.847,41.1608 430.68,44.9941 428,55.5C 421.94,63.8965 416.273,72.5632 411,81.5C 410.667,91.8333 410.333,102.167 410,112.5C 404.561,119.288 399.561,118.955 395,111.5C 394.667,101.167 394.333,90.8333 394,80.5C 387.501,71.5064 381.501,62.1731 376,52.5C 375.616,48.2721 377.116,44.9387 380.5,42.5 Z"/></g>
<g><path style="opacity:0.936" fill="#000000" d="M 151.5,43.5 C 190.167,37.667 206.667,54.0003 201,92.5C 198.051,102.448 191.884,109.615 182.5,114C 172.241,115.592 161.907,115.926 151.5,115C 149.951,113.786 148.785,112.286 148,110.5C 147.333,89.8333 147.333,69.1667 148,48.5C 148.997,46.6769 150.164,45.0103 151.5,43.5 Z M 163.5,59.5 C 163.5,73.1667 163.5,86.8333 163.5,100.5C 178.482,101.519 186.148,94.5186 186.5,79.5C 186.907,63.5747 179.24,56.908 163.5,59.5 Z"/></g>
<g><path style="opacity:0.924" fill="#000000" d="M 270.5,133.5 C 325.027,132.89 361.193,158.223 379,209.5C 388.47,250.747 377.97,285.914 347.5,315C 316.054,340.354 281.054,346.687 242.5,334C 235.554,331.194 228.888,327.861 222.5,324C 219.735,321.005 218.902,317.505 220,313.5C 220.5,311.667 221.667,310.5 223.5,310C 230.145,309.636 236.145,311.636 241.5,316C 280.884,331.857 315.384,324.69 345,294.5C 369.729,263.035 373.063,229.368 355,193.5C 328.348,153.948 292.181,141.448 246.5,156C 214.549,170.635 196.382,195.468 192,230.5C 190.777,252.163 196.444,271.829 209,289.5C 209.747,299.048 205.58,302.215 196.5,299C 174.567,267.959 170.067,234.459 183,198.5C 200.1,160.564 229.266,138.898 270.5,133.5 Z"/></g>
<g><path style="opacity:0.923" fill="#000000" d="M 225.5,211.5 C 260.168,211.333 294.835,211.5 329.5,212C 336.955,216.561 337.288,221.561 330.5,227C 295.5,227.667 260.5,227.667 225.5,227C 220.465,223.987 219.298,219.82 222,214.5C 223.145,213.364 224.312,212.364 225.5,211.5 Z"/></g>
<g><path style="opacity:0.927" fill="#000000" d="M 225.5,250.5 C 260.502,250.333 295.502,250.5 330.5,251C 337.321,256.394 336.987,261.394 329.5,266C 294.833,266.667 260.167,266.667 225.5,266C 220.465,262.987 219.298,258.82 222,253.5C 223.145,252.364 224.312,251.364 225.5,250.5 Z"/></g>
</svg>
