<?xml version="1.0" encoding="UTF-8"?>
<!DOCTYPE svg PUBLIC "-//W3C//DTD SVG 1.1//EN" "http://www.w3.org/Graphics/SVG/1.1/DTD/svg11.dtd">
<svg xmlns="http://www.w3.org/2000/svg" version="1.1" width="512px" height="512px" style="shape-rendering:geometricPrecision; text-rendering:geometricPrecision; image-rendering:optimizeQuality; fill-rule:evenodd; clip-rule:evenodd" xmlns:xlink="http://www.w3.org/1999/xlink">
<g><path style="opacity:0.935" fill="#000000" d="M 511.5,57.5 C 511.5,69.5 511.5,81.5 511.5,93.5C 506.607,98.5977 501.774,98.5977 497,93.5C 496.667,83.8333 496.333,74.1667 496,64.5C 495.535,63.0692 494.701,61.9025 493.5,61C 474.833,60.3333 456.167,60.3333 437.5,61C 437,61.5 436.5,62 436,62.5C 435.173,103.541 435.339,144.541 436.5,185.5C 437.025,186.192 437.692,186.692 438.5,187C 456.833,187.667 475.167,187.667 493.5,187C 494.701,186.097 495.535,184.931 496,183.5C 496.333,162.167 496.667,140.833 497,119.5C 501.831,115.547 506.665,115.547 511.5,119.5C 511.5,142.833 511.5,166.167 511.5,189.5C 508.508,196.651 503.174,201.151 495.5,203C 475.833,203.667 456.167,203.667 436.5,203C 427.442,201.608 421.942,196.442 420,187.5C 419.5,175.505 419.333,163.505 419.5,151.5C 411.16,151.334 402.827,151.5 394.5,152C 389.496,157.907 383.663,162.74 377,166.5C 379.888,185.995 383.054,205.495 386.5,225C 386.644,231.856 383.31,234.856 376.5,234C 373.572,232.74 371.739,230.573 371,227.5C 367.283,207.867 363.783,188.2 360.5,168.5C 361.045,158.449 366.045,151.616 375.5,148C 379.036,144.799 382.203,141.299 385,137.5C 385.967,122.407 385.633,107.407 384,92.5C 382.087,90.8131 379.92,90.3131 377.5,91C 374.728,92.8602 372.395,95.1935 370.5,98C 364.144,99.8197 359.477,97.8197 356.5,92C 351.283,89.8246 347.616,91.4913 345.5,97C 338.801,100.214 333.801,98.5469 330.5,92C 327.833,90 325.167,90 322.5,92C 319.199,98.5469 314.199,100.214 307.5,97C 304.019,89.5683 299.519,88.735 294,94.5C 293.333,108.833 293.333,123.167 294,137.5C 298.932,144.759 305.432,150.259 313.5,154C 319.734,158.802 322.734,165.135 322.5,173C 319.52,219.848 316.353,266.681 313,313.5C 311.053,317.557 307.886,319.057 303.5,318C 264.059,299.459 224.059,298.126 183.5,314C 171.937,319.614 161.603,326.947 152.5,336C 145.558,338.694 141.225,336.361 139.5,329C 140,327.5 140.5,326 141,324.5C 146.851,318.169 153.351,312.669 160.5,308C 137.977,285.282 110.977,277.282 79.5,284C 34.0888,299.097 12.9221,330.597 16,378.5C 23.2393,414.405 44.406,437.572 79.5,448C 110.85,454.416 137.85,446.416 160.5,424C 153.927,419.636 148.094,414.47 143,408.5C 142.239,398.932 146.406,395.765 155.5,399C 170.741,413.287 188.741,422.287 209.5,426C 219.425,427.781 229.425,428.947 239.5,429.5C 250.838,428.331 262.171,427.497 273.5,427C 278.368,431.172 278.702,435.672 274.5,440.5C 240.919,448.181 208.085,445.514 176,432.5C 142.389,466.024 103.223,474.524 58.5,458C 25.7027,442.051 6.03601,416.218 -0.5,380.5C -0.5,370.833 -0.5,361.167 -0.5,351.5C 9.12198,305.711 36.7886,277.544 82.5,267C 119.176,262.335 150.343,273.168 176,299.5C 216.622,283.335 257.455,282.669 298.5,297.5C 301.289,254.831 303.789,212.164 306,169.5C 297.642,164.813 290.142,158.98 283.5,152C 275.841,151.5 268.174,151.334 260.5,151.5C 260.667,163.171 260.5,174.838 260,186.5C 258.5,196 253,201.5 243.5,203C 222.449,203.954 201.449,203.621 180.5,202C 173.618,199.093 169.452,193.926 168,186.5C 167.333,144.833 167.333,103.167 168,61.5C 169.41,52.4241 174.577,46.9241 183.5,45C 203.833,44.3333 224.167,44.3333 244.5,45C 253.423,46.9241 258.59,52.4241 260,61.5C 260.5,73.1619 260.667,84.8286 260.5,96.5C 266.167,96.5 271.833,96.5 277.5,96.5C 280.498,78.6789 290.831,71.8455 308.5,76C 310.167,76.8333 311.833,77.6667 313.5,78.5C 322.129,73.1736 330.796,73.1736 339.5,78.5C 348.484,73.2304 357.484,73.2304 366.5,78.5C 382.051,70.8504 393.551,74.8504 401,90.5C 401.495,92.4727 401.662,94.4727 401.5,96.5C 407.5,96.5 413.5,96.5 419.5,96.5C 419.333,84.1622 419.5,71.8288 420,59.5C 421.675,53.1587 425.508,48.6587 431.5,46C 453.116,44.3779 474.783,44.0446 496.5,45C 503.204,47.211 508.204,51.3777 511.5,57.5 Z M 186.5,60.5 C 204.836,60.3334 223.17,60.5001 241.5,61C 242.667,61.5 243.5,62.3333 244,63.5C 244.667,103.833 244.667,144.167 244,184.5C 243.5,185.667 242.667,186.5 241.5,187C 223.167,187.667 204.833,187.667 186.5,187C 185.667,186.167 184.833,185.333 184,184.5C 183.333,144.167 183.333,103.833 184,63.5C 184.698,62.3094 185.531,61.3094 186.5,60.5 Z M 260.5,112.5 C 266.167,112.5 271.833,112.5 277.5,112.5C 277.5,120.167 277.5,127.833 277.5,135.5C 271.833,135.5 266.167,135.5 260.5,135.5C 260.5,127.833 260.5,120.167 260.5,112.5 Z M 401.5,112.5 C 407.5,112.5 413.5,112.5 419.5,112.5C 419.5,120.167 419.5,127.833 419.5,135.5C 413.5,135.5 407.5,135.5 401.5,135.5C 401.5,127.833 401.5,120.167 401.5,112.5 Z"/></g>
<g><path style="opacity:0.905" fill="#000000" d="M 225.5,231.5 C 230.742,230.271 234.575,231.937 237,236.5C 237.667,244.833 237.667,253.167 237,261.5C 234.565,266.224 230.731,267.724 225.5,266C 223.951,264.786 222.785,263.286 222,261.5C 221.333,253.167 221.333,244.833 222,236.5C 222.997,234.677 224.164,233.01 225.5,231.5 Z"/></g>
<g><path style="opacity:0.895" fill="#000000" d="M 180.5,244.5 C 182.989,244.298 185.323,244.798 187.5,246C 193,251.5 198.5,257 204,262.5C 205.267,272.57 201.101,276.07 191.5,273C 186.667,268.167 181.833,263.333 177,258.5C 173.548,252.689 174.714,248.022 180.5,244.5 Z"/></g>
<g><path style="opacity:0.896" fill="#000000" d="M 273.5,244.5 C 283.289,245.1 286.122,249.767 282,258.5C 277.167,263.333 272.333,268.167 267.5,273C 257,275.833 253.167,272 256,261.5C 261.729,255.603 267.562,249.936 273.5,244.5 Z"/></g>
<g><path style="opacity:0.924" fill="#000000" d="M 382.5,252.5 C 385.972,252.126 388.972,253.126 391.5,255.5C 397.973,285 403.807,314.667 409,344.5C 411.196,370.952 400.029,389.118 375.5,399C 362.833,401.667 350.167,404.333 337.5,407C 327.581,417.767 315.914,425.933 302.5,431.5C 295.498,429.497 293.332,425.163 296,418.5C 308.268,411.907 319.101,403.407 328.5,393C 343.851,389.463 359.185,385.796 374.5,382C 388.463,374.24 394.63,362.407 393,346.5C 387.64,318.2 382.473,289.867 377.5,261.5C 377.377,257.405 379.044,254.405 382.5,252.5 Z"/></g>
</svg>
