<?xml version="1.0" encoding="UTF-8"?>
<!DOCTYPE svg PUBLIC "-//W3C//DTD SVG 1.1//EN" "http://www.w3.org/Graphics/SVG/1.1/DTD/svg11.dtd">
<svg xmlns="http://www.w3.org/2000/svg" version="1.1" width="512px" height="512px" style="shape-rendering:geometricPrecision; text-rendering:geometricPrecision; image-rendering:optimizeQuality; fill-rule:evenodd; clip-rule:evenodd" xmlns:xlink="http://www.w3.org/1999/xlink">
<g><path style="opacity:0.925" fill="#000000" d="M 71.5,43.5 C 97.0953,42.7825 112.762,54.7825 118.5,79.5C 207.211,79.0103 295.877,79.5103 384.5,81C 391.679,84.1835 395.846,89.6835 397,97.5C 397.333,138.833 397.667,180.167 398,221.5C 405.8,215.352 414.633,211.518 424.5,210C 440.833,209.333 457.167,209.333 473.5,210C 478.124,213.664 478.624,217.831 475,222.5C 449.333,253.5 423.667,284.5 398,315.5C 397.667,348.167 397.333,380.833 397,413.5C 395.244,422.921 389.744,428.754 380.5,431C 363.503,431.5 346.503,431.667 329.5,431.5C 329.901,439.585 329.401,447.585 328,455.5C 324.601,461.626 319.434,465.459 312.5,467C 232.5,467.667 152.5,467.667 72.5,467C 50.7917,463.625 37.9583,451.125 34,429.5C 33.3333,313.5 33.3333,197.5 34,81.5C 38.0131,60.3209 50.5131,47.6542 71.5,43.5 Z M 70.5,58.5 C 89.2356,57.0921 100.736,65.4255 105,83.5C 105.833,186.168 105.667,288.835 104.5,391.5C 91.5861,381.288 77.2528,378.788 61.5,384C 56.9515,385.858 52.7848,388.358 49,391.5C 48.3333,287.833 48.3333,184.167 49,80.5C 52.3501,69.3177 59.5167,61.9844 70.5,58.5 Z M 119.5,93.5 C 205.167,93.3333 290.834,93.5 376.5,94C 378.848,94.3459 380.681,95.5125 382,97.5C 382.667,144.5 382.667,191.5 382,238.5C 346.906,281.684 311.572,324.684 276,367.5C 275.106,376.784 278.939,379.784 287.5,376.5C 296.688,365.813 305.688,354.979 314.5,344C 328.167,343.667 341.833,343.333 355.5,343C 365.219,341.651 374.052,338.151 382,332.5C 382.667,359.5 382.667,386.5 382,413.5C 381.167,414.333 380.333,415.167 379.5,416C 292.891,417.492 206.224,417.992 119.5,417.5C 119.5,309.5 119.5,201.5 119.5,93.5 Z M 244.5,201.5 C 254.456,201.956 260.123,207.123 261.5,217C 260.333,226.167 255.167,231.333 246,232.5C 231.286,228.413 227.619,219.746 235,206.5C 237.907,204.132 241.074,202.465 244.5,201.5 Z M 428.5,223.5 C 437.173,223.334 445.84,223.5 454.5,224C 430,253.833 405.5,283.667 381,313.5C 374.692,320.741 366.859,325.574 357.5,328C 347.203,329.433 336.869,329.767 326.5,329C 351,299.167 375.5,269.333 400,239.5C 407.933,231.123 417.433,225.79 428.5,223.5 Z M 73.5,395.5 C 93.7172,396.55 104.551,407.217 106,427.5C 106.5,429.333 107.667,430.5 109.5,431C 178.166,431.5 246.833,431.667 315.5,431.5C 315.666,437.176 315.499,442.843 315,448.5C 314.5,450.333 313.333,451.5 311.5,452C 231.167,452.667 150.833,452.667 70.5,452C 52.3029,445.776 45.4696,433.276 50,414.5C 54.751,404.239 62.5844,397.906 73.5,395.5 Z"/></g>
<g><path style="opacity:0.901" fill="#000000" d="M 313.5,113.5 C 316.649,113.211 319.649,113.711 322.5,115C 329.698,121.864 336.532,129.03 343,136.5C 343.79,139.634 343.457,142.634 342,145.5C 335.5,152 329,158.5 322.5,165C 313.249,168.416 309.415,165.25 311,155.5C 313.5,153 316,150.5 318.5,148C 309.167,147.667 299.833,147.333 290.5,147C 285.566,144.335 284.399,140.502 287,135.5C 288.171,134.107 289.671,133.273 291.5,133C 300.5,132.667 309.5,132.333 318.5,132C 316,129.5 313.5,127 311,124.5C 309.812,120.259 310.645,116.592 313.5,113.5 Z"/></g>
<g><path style="opacity:0.882" fill="#000000" d="M 201.5,132.5 C 206.599,132.175 211.599,132.675 216.5,134C 220.875,139.121 220.209,143.455 214.5,147C 208.137,147.247 201.804,147.747 195.5,148.5C 188.788,146.908 186.788,142.908 189.5,136.5C 190.665,135.416 191.998,134.583 193.5,134C 196.365,133.817 199.031,133.317 201.5,132.5 Z"/></g>
<g><path style="opacity:0.866" fill="#000000" d="M 242.5,132.5 C 250.253,132.104 257.92,132.604 265.5,134C 269.695,139.081 269.029,143.414 263.5,147C 255.421,147.901 247.421,147.568 239.5,146C 235.618,140.468 236.618,135.968 242.5,132.5 Z"/></g>
<g><path style="opacity:0.891" fill="#000000" d="M 166.5,153.5 C 172.523,152.197 176.189,154.53 177.5,160.5C 174.754,166.907 172.92,173.573 172,180.5C 168.341,184.115 164.341,184.448 160,181.5C 157.513,171.107 159.679,161.773 166.5,153.5 Z"/></g>
<g><path style="opacity:0.912" fill="#000000" d="M 240.5,187.5 C 257.901,185.847 269.235,193.18 274.5,209.5C 289.661,207.856 303.661,211.023 316.5,219C 333.313,234.419 337.813,252.919 330,274.5C 322.331,290.091 309.831,298.925 292.5,301C 260.5,301.333 228.5,301.667 196.5,302C 181.607,306.728 173.607,316.894 172.5,332.5C 173.716,348.545 182.049,358.712 197.5,363C 214.833,363.333 232.167,363.667 249.5,364C 254.143,366.072 255.643,369.572 254,374.5C 252.786,376.049 251.286,377.215 249.5,378C 233.167,378.667 216.833,378.667 200.5,378C 174.212,374.211 160.212,359.044 158.5,332.5C 160.053,306.446 173.72,291.279 199.5,287C 231.5,286.667 263.5,286.333 295.5,286C 314.267,279.303 321.767,266.136 318,246.5C 314.073,235.573 306.573,228.406 295.5,225C 288.508,224.5 281.508,224.334 274.5,224.5C 268.959,241.284 257.292,248.451 239.5,246C 220.862,239.672 213.695,226.838 218,207.5C 222.276,197.049 229.776,190.382 240.5,187.5 Z M 244.5,201.5 C 241.074,202.465 237.907,204.132 235,206.5C 227.619,219.746 231.286,228.413 246,232.5C 255.167,231.333 260.333,226.167 261.5,217C 260.123,207.123 254.456,201.956 244.5,201.5 Z"/></g>
<g><path style="opacity:0.885" fill="#000000" d="M 173.5,199.5 C 175.857,199.337 178.19,199.503 180.5,200C 185.338,203.922 190.671,207.089 196.5,209.5C 198.974,213.012 199.141,216.679 197,220.5C 194.757,222.282 192.257,222.782 189.5,222C 182.275,219.807 176.108,215.974 171,210.5C 169.812,206.259 170.645,202.592 173.5,199.5 Z"/></g>
</svg>
