<?xml version="1.0" encoding="UTF-8"?>
<!DOCTYPE svg PUBLIC "-//W3C//DTD SVG 1.1//EN" "http://www.w3.org/Graphics/SVG/1.1/DTD/svg11.dtd">
<svg xmlns="http://www.w3.org/2000/svg" version="1.1" width="512px" height="512px" style="shape-rendering:geometricPrecision; text-rendering:geometricPrecision; image-rendering:optimizeQuality; fill-rule:evenodd; clip-rule:evenodd" xmlns:xlink="http://www.w3.org/1999/xlink">
<g><path style="opacity:0.946" fill="#000000" d="M -0.5,474.5 C -0.5,458.5 -0.5,442.5 -0.5,426.5C 0.646381,424.525 2.31305,423.025 4.5,422C 17.1623,421.5 29.8289,421.333 42.5,421.5C 42.5,342.167 42.5,262.833 42.5,183.5C 36.4908,183.666 30.4908,183.499 24.5,183C 23.3333,181.833 22.1667,180.667 21,179.5C 20.3333,163.167 20.3333,146.833 21,130.5C 22.1094,128.185 23.9427,126.685 26.5,126C 29.1667,125.667 31.8333,125.333 34.5,125C 22.6198,110.989 18.1198,94.8225 21,76.5C 28.5529,48.1228 47.0529,33.1228 76.5,31.5C 105.414,33.5881 123.581,48.5881 131,76.5C 133.88,94.8225 129.38,110.989 117.5,125C 120.167,125.333 122.833,125.667 125.5,126C 128.057,126.685 129.891,128.185 131,130.5C 131.667,146.833 131.667,163.167 131,179.5C 129.833,180.667 128.667,181.833 127.5,183C 121.509,183.499 115.509,183.666 109.5,183.5C 110.811,217.788 124.645,245.788 151,267.5C 155.3,277.875 151.8,282.709 140.5,282C 128.876,272.713 119.043,261.88 111,249.5C 115.714,277.081 128.881,299.915 150.5,318C 192.91,350.221 240.41,361.054 293,350.5C 301.399,352.581 303.733,357.581 300,365.5C 299.097,366.701 297.931,367.535 296.5,368C 236.511,380.144 182.844,367.144 135.5,329C 125.871,319.71 117.371,309.544 110,298.5C 109.5,339.499 109.333,380.499 109.5,421.5C 122.171,421.333 134.838,421.5 147.5,422C 150.663,423.48 152.496,425.98 153,429.5C 153.667,443.5 153.667,457.5 153,471.5C 152.716,475.12 150.883,477.62 147.5,479C 99.8333,479.667 52.1667,479.667 4.5,479C 2.31305,477.975 0.646381,476.475 -0.5,474.5 Z M 68.5,49.5 C 90.887,47.7665 105.72,57.4332 113,78.5C 115.708,105.81 103.374,121.477 76,125.5C 48.6163,121.469 36.283,105.802 39,78.5C 43.4558,63.2097 53.2891,53.543 68.5,49.5 Z M 37.5,143.5 C 63.1667,143.5 88.8333,143.5 114.5,143.5C 114.5,151.167 114.5,158.833 114.5,166.5C 88.8333,166.5 63.1667,166.5 37.5,166.5C 37.5,158.833 37.5,151.167 37.5,143.5 Z M 60.5,183.5 C 70.8333,183.5 81.1667,183.5 91.5,183.5C 91.5,262.833 91.5,342.167 91.5,421.5C 81.1667,421.5 70.8333,421.5 60.5,421.5C 60.5,342.167 60.5,262.833 60.5,183.5 Z M 16.5,439.5 C 56.1667,439.5 95.8333,439.5 135.5,439.5C 135.5,446.833 135.5,454.167 135.5,461.5C 95.8333,461.5 56.1667,461.5 16.5,461.5C 16.5,454.167 16.5,446.833 16.5,439.5 Z"/></g>
<g><path style="opacity:0.945" fill="#000000" d="M 511.5,426.5 C 511.5,442.5 511.5,458.5 511.5,474.5C 510.354,476.475 508.687,477.975 506.5,479C 458.833,479.667 411.167,479.667 363.5,479C 360.117,477.62 358.284,475.12 358,471.5C 357.333,457.5 357.333,443.5 358,429.5C 358.504,425.98 360.337,423.48 363.5,422C 376.162,421.5 388.829,421.333 401.5,421.5C 401.667,380.499 401.5,339.499 401,298.5C 382.742,327.21 357.576,347.21 325.5,358.5C 320.181,357.848 317.181,354.848 316.5,349.5C 317.18,346.64 318.513,344.14 320.5,342C 352.959,328.874 377.126,306.707 393,275.5C 396.788,267.15 399.121,258.484 400,249.5C 372.215,287.995 334.715,311.162 287.5,319C 245.902,325.581 206.235,319.581 168.5,301C 163.634,296.281 163.301,291.281 167.5,286C 169.366,285.015 171.366,284.515 173.5,284.5C 186.795,290.21 200.461,295.044 214.5,299C 267.144,310.5 315.144,300.5 358.5,269C 381.815,249.879 395.982,225.379 401,195.5C 401.499,191.514 401.666,187.514 401.5,183.5C 395.491,183.666 389.491,183.499 383.5,183C 382.333,181.833 381.167,180.667 380,179.5C 379.333,163.167 379.333,146.833 380,130.5C 381.109,128.185 382.943,126.685 385.5,126C 388.167,125.667 390.833,125.333 393.5,125C 381.62,110.989 377.12,94.8225 380,76.5C 387.419,48.5881 405.586,33.5881 434.5,31.5C 463.947,33.1228 482.447,48.1228 490,76.5C 492.88,94.8225 488.38,110.989 476.5,125C 479.167,125.333 481.833,125.667 484.5,126C 487.057,126.685 488.891,128.185 490,130.5C 490.667,146.833 490.667,163.167 490,179.5C 488.833,180.667 487.667,181.833 486.5,183C 480.509,183.499 474.509,183.666 468.5,183.5C 468.5,262.833 468.5,342.167 468.5,421.5C 481.171,421.333 493.838,421.5 506.5,422C 508.687,423.025 510.354,424.525 511.5,426.5 Z M 427.5,49.5 C 449.887,47.7665 464.72,57.4332 472,78.5C 474.717,105.802 462.384,121.469 435,125.5C 407.668,121.513 395.335,105.846 398,78.5C 402.456,63.2097 412.289,53.543 427.5,49.5 Z M 396.5,143.5 C 422.167,143.5 447.833,143.5 473.5,143.5C 473.5,151.167 473.5,158.833 473.5,166.5C 447.833,166.5 422.167,166.5 396.5,166.5C 396.5,158.833 396.5,151.167 396.5,143.5 Z M 419.5,183.5 C 429.833,183.5 440.167,183.5 450.5,183.5C 450.5,262.833 450.5,342.167 450.5,421.5C 440.167,421.5 429.833,421.5 419.5,421.5C 419.5,342.167 419.5,262.833 419.5,183.5 Z M 375.5,439.5 C 415.167,439.5 454.833,439.5 494.5,439.5C 494.5,446.833 494.5,454.167 494.5,461.5C 454.833,461.5 415.167,461.5 375.5,461.5C 375.5,454.167 375.5,446.833 375.5,439.5 Z"/></g>
</svg>
