<?xml version="1.0" encoding="UTF-8"?>
<!DOCTYPE svg PUBLIC "-//W3C//DTD SVG 1.1//EN" "http://www.w3.org/Graphics/SVG/1.1/DTD/svg11.dtd">
<svg xmlns="http://www.w3.org/2000/svg" version="1.1" width="512px" height="512px" style="shape-rendering:geometricPrecision; text-rendering:geometricPrecision; image-rendering:optimizeQuality; fill-rule:evenodd; clip-rule:evenodd" xmlns:xlink="http://www.w3.org/1999/xlink">
<g><path style="opacity:0.965" fill="#000000" d="M 236.5,41.5 C 277.043,39.9338 317.043,43.7672 356.5,53C 409.667,67.5 443.5,101.333 458,154.5C 466.18,187.657 470.014,221.323 469.5,255.5C 469.697,285.465 466.864,315.132 461,344.5C 449.371,403.792 414.537,441.626 356.5,458C 323.327,466.038 289.66,469.871 255.5,469.5C 225.542,469.64 195.875,466.807 166.5,461C 107.208,449.371 69.3742,414.537 53,356.5C 44.8198,323.343 40.9865,289.677 41.5,255.5C 40.3892,214.775 46.2225,175.108 59,136.5C 77.0305,93.0414 108.864,65.2081 154.5,53C 181.567,46.2043 208.901,42.3709 236.5,41.5 Z M 235.5,74.5 C 261.581,73.9686 287.581,75.1353 313.5,78C 382.943,84.1121 422.443,121.612 432,190.5C 438.976,240.743 437.643,290.743 428,340.5C 416.833,387.667 387.667,416.833 340.5,428C 283.834,439.333 227.168,439.333 170.5,428C 119.616,415.446 89.7826,383.28 81,331.5C 72.3333,280.833 72.3333,230.167 81,179.5C 91.935,121.9 126.435,88.7328 184.5,80C 201.568,77.3611 218.568,75.5277 235.5,74.5 Z"/></g>
<g><path style="opacity:0.958" fill="#000000" d="M 285.5,164.5 C 301.917,167.876 306.417,177.209 299,192.5C 281.016,204.915 263.85,218.415 247.5,233C 239.729,239.58 233.396,247.246 228.5,256C 234.704,265.211 242.037,273.545 250.5,281C 266.381,293.883 282.548,306.383 299,318.5C 306.356,333.472 302.022,342.805 286,346.5C 281.927,345.717 278.094,344.217 274.5,342C 252.245,327.091 231.745,309.925 213,290.5C 206.483,282.971 201.15,274.638 197,265.5C 195,258.833 195,252.167 197,245.5C 205.162,229.66 215.995,215.827 229.5,204C 244.778,190.698 260.778,178.365 277.5,167C 280.31,166.218 282.977,165.384 285.5,164.5 Z"/></g>
</svg>
