<?xml version="1.0" encoding="UTF-8"?>
<!DOCTYPE svg PUBLIC "-//W3C//DTD SVG 1.1//EN" "http://www.w3.org/Graphics/SVG/1.1/DTD/svg11.dtd">
<svg xmlns="http://www.w3.org/2000/svg" version="1.1" width="512px" height="512px" style="shape-rendering:geometricPrecision; text-rendering:geometricPrecision; image-rendering:optimizeQuality; fill-rule:evenodd; clip-rule:evenodd" xmlns:xlink="http://www.w3.org/1999/xlink">
<g><path style="opacity:0.965" fill="#000000" d="M 15.5,-0.5 C 31.8333,-0.5 48.1667,-0.5 64.5,-0.5C 105.347,8.8538 129.347,34.3538 136.5,76C 260.5,76.3333 384.5,76.6667 508.5,77C 509.373,78.045 510.373,78.8783 511.5,79.5C 511.5,82.8333 511.5,86.1667 511.5,89.5C 495.85,149.76 480.017,210.093 464,270.5C 456.179,286.994 443.345,297.161 425.5,301C 396.169,301.5 366.835,301.667 337.5,301.5C 334.196,316.972 324.863,326.806 309.5,331C 265.833,331.333 222.167,331.667 178.5,332C 159.087,342.788 139.921,353.955 121,365.5C 119.817,369.274 120.651,372.441 123.5,375C 237.457,376.325 351.457,376.992 465.5,377C 478.61,382.046 483.777,391.546 481,405.5C 478.987,412.181 474.82,417.014 468.5,420C 351.223,421.661 233.889,421.994 116.5,421C 94,415.833 80.1667,402 75,379.5C 71.9081,359.777 77.4081,342.943 91.5,329C 109.5,318.333 127.5,307.667 145.5,297C 125.95,222.635 106.784,148.135 88,73.5C 82.438,56.2785 70.6047,46.7785 52.5,45C 40.1667,44.6667 27.8333,44.3333 15.5,44C 8.07043,41.4004 2.73709,36.5671 -0.5,29.5C -0.5,24.5 -0.5,19.5 -0.5,14.5C 2.91735,7.41477 8.25068,2.41477 15.5,-0.5 Z M 22.5,14.5 C 36.1963,14.2454 49.863,14.7454 63.5,16C 74.4694,17.9234 84.1361,22.4234 92.5,29.5C 89.8011,33.0332 86.6345,36.0332 83,38.5C 76.7019,34.4361 69.8686,31.6028 62.5,30C 49.1667,29.6667 35.8333,29.3333 22.5,29C 16.2604,28.0836 14.0937,24.5836 16,18.5C 17.7918,16.372 19.9584,15.0387 22.5,14.5 Z M 103.5,41.5 C 109.639,47.0764 113.805,54.0764 116,62.5C 136.024,141.264 156.357,219.93 177,298.5C 177.833,299.333 178.667,300.167 179.5,301C 226.504,301.167 273.504,301.667 320.5,302.5C 316.413,310.744 309.746,315.244 300.5,316C 257.5,316.333 214.5,316.667 171.5,317C 152.167,328 132.833,339 113.5,350C 103.738,359.428 101.905,370.261 108,382.5C 111.092,386.928 115.259,389.761 120.5,391C 233.167,391.333 345.833,391.667 458.5,392C 464.74,392.916 466.906,396.416 465,402.5C 464.167,403.333 463.333,404.167 462.5,405C 350.543,406.659 238.543,406.992 126.5,406C 108.423,404.254 96.5893,394.754 91,377.5C 87.9895,360.034 93.8228,346.534 108.5,337C 126.41,327.465 143.91,317.298 161,306.5C 161.958,304.801 162.458,302.967 162.5,301C 142.549,221.028 122.049,141.194 101,61.5C 99.2866,57.9054 97.4533,54.4054 95.5,51C 97.9882,47.6788 100.655,44.5121 103.5,41.5 Z M 140.5,91.5 C 159.833,91.5 179.167,91.5 198.5,91.5C 200.842,109.884 203.508,128.217 206.5,146.5C 189.163,146.667 171.83,146.5 154.5,146C 149.29,127.992 144.623,109.825 140.5,91.5 Z M 214.5,91.5 C 233.833,91.5 253.167,91.5 272.5,91.5C 273.237,109.831 273.903,128.164 274.5,146.5C 263.495,146.333 252.495,146.5 241.5,147C 236.167,151.667 236.167,156.333 241.5,161C 252.828,161.5 264.162,161.667 275.5,161.5C 276.666,179.819 277.666,198.152 278.5,216.5C 263.5,216.5 248.5,216.5 233.5,216.5C 227.059,174.853 220.725,133.186 214.5,91.5 Z M 288.5,91.5 C 307.845,91.1671 327.178,91.5004 346.5,92.5C 345.082,110.45 344.082,128.45 343.5,146.5C 325.833,146.5 308.167,146.5 290.5,146.5C 289.933,128.163 289.266,109.829 288.5,91.5 Z M 362.5,91.5 C 381.5,91.5 400.5,91.5 419.5,91.5C 417.158,109.884 414.492,128.217 411.5,146.5C 394.167,146.5 376.833,146.5 359.5,146.5C 360.186,128.134 361.186,109.8 362.5,91.5 Z M 436.5,91.5 C 455.5,91.5 474.5,91.5 493.5,91.5C 489.005,109.481 484.505,127.481 480,145.5C 462.574,146.658 445.074,146.825 427.5,146C 430.637,127.879 433.637,109.713 436.5,91.5 Z M 158.5,161.5 C 175.17,161.333 191.837,161.5 208.5,162C 211.543,179.798 214.543,197.632 217.5,215.5C 202.511,216.666 187.511,216.833 172.5,216C 167.288,197.986 162.621,179.819 158.5,161.5 Z M 291.5,161.5 C 308.5,161.5 325.5,161.5 342.5,161.5C 341.666,179.848 340.666,198.181 339.5,216.5C 324.5,216.5 309.5,216.5 294.5,216.5C 293.732,198.148 292.732,179.815 291.5,161.5 Z M 358.5,161.5 C 375.513,161.167 392.513,161.501 409.5,162.5C 406.436,180.112 403.603,197.779 401,215.5C 385.911,216.491 370.745,216.824 355.5,216.5C 356.732,198.185 357.732,179.852 358.5,161.5 Z M 425.5,161.5 C 442.167,161.5 458.833,161.5 475.5,161.5C 471.377,179.825 466.71,197.992 461.5,216C 446.837,216.5 432.17,216.667 417.5,216.5C 419.842,198.116 422.508,179.783 425.5,161.5 Z M 176.5,231.5 C 190.833,231.5 205.167,231.5 219.5,231.5C 222.492,249.783 225.158,268.116 227.5,286.5C 214.833,286.5 202.167,286.5 189.5,286.5C 185.323,268.125 180.99,249.792 176.5,231.5 Z M 235.5,232.5 C 249.99,231.504 264.657,231.171 279.5,231.5C 280.082,249.55 281.082,267.55 282.5,285.5C 269.833,286.833 257.167,286.833 244.5,285.5C 241.579,267.696 238.579,250.029 235.5,232.5 Z M 295.5,231.5 C 309.833,231.5 324.167,231.5 338.5,231.5C 337.903,249.836 337.237,268.169 336.5,286.5C 323.833,286.5 311.167,286.5 298.5,286.5C 297.186,268.2 296.186,249.866 295.5,231.5 Z M 354.5,231.5 C 369.167,231.5 383.833,231.5 398.5,231.5C 395.508,249.783 392.842,268.116 390.5,286.5C 377.833,286.5 365.167,286.5 352.5,286.5C 353.307,268.172 353.973,249.839 354.5,231.5 Z M 414.5,231.5 C 428.833,231.5 443.167,231.5 457.5,231.5C 455.649,240.557 453.483,249.557 451,258.5C 443.312,278.78 428.479,288.113 406.5,286.5C 409.275,268.183 411.942,249.85 414.5,231.5 Z"/></g>
<g><path style="opacity:0.925" fill="#000000" d="M 180.5,511.5 C 174.833,511.5 169.167,511.5 163.5,511.5C 136.258,500.99 128.092,481.99 139,454.5C 150.183,438.325 165.35,432.825 184.5,438C 204.253,446.331 212.419,461.164 209,482.5C 204.65,497.349 195.15,507.015 180.5,511.5 Z M 171.5,451.5 C 191.388,455.943 197.554,467.61 190,486.5C 178,499.833 166,499.833 154,486.5C 146.538,468.091 152.371,456.424 171.5,451.5 Z"/></g>
<g><path style="opacity:0.925" fill="#000000" d="M 437.5,511.5 C 431.833,511.5 426.167,511.5 420.5,511.5C 393.258,500.99 385.092,481.99 396,454.5C 407.183,438.325 422.35,432.825 441.5,438C 461.253,446.331 469.419,461.164 466,482.5C 461.65,497.349 452.15,507.015 437.5,511.5 Z M 428.5,451.5 C 448.388,455.943 454.554,467.61 447,486.5C 435,499.833 423,499.833 411,486.5C 403.538,468.091 409.371,456.424 428.5,451.5 Z"/></g>
<g><path style="opacity:0.874" fill="#000000" d="M 167.5,466.5 C 179.818,465.658 182.818,470.491 176.5,481C 166.667,483.167 162.833,479.333 165,469.5C 166.045,468.627 166.878,467.627 167.5,466.5 Z"/></g>
<g><path style="opacity:0.874" fill="#000000" d="M 424.5,466.5 C 436.818,465.658 439.818,470.491 433.5,481C 423.667,483.167 419.833,479.333 422,469.5C 423.045,468.627 423.878,467.627 424.5,466.5 Z"/></g>
</svg>
