<?xml version="1.0" encoding="UTF-8"?>
<!DOCTYPE svg PUBLIC "-//W3C//DTD SVG 1.1//EN" "http://www.w3.org/Graphics/SVG/1.1/DTD/svg11.dtd">
<svg xmlns="http://www.w3.org/2000/svg" version="1.1" width="512px" height="512px" style="shape-rendering:geometricPrecision; text-rendering:geometricPrecision; image-rendering:optimizeQuality; fill-rule:evenodd; clip-rule:evenodd" xmlns:xlink="http://www.w3.org/1999/xlink">
<g><path style="opacity:0.949" fill="#000000" d="M 511.5,91.5 C 511.5,202.5 511.5,313.5 511.5,424.5C 507.631,433.195 500.964,438.361 491.5,440C 429.834,440.5 368.168,440.667 306.5,440.5C 307.209,446.892 306.043,452.892 303,458.5C 298.02,462.593 292.52,463.426 286.5,461C 283.333,458.5 280.167,456 277,453.5C 273.266,456.952 269.1,459.785 264.5,462C 256.698,463.516 251.198,460.683 248,453.5C 247.501,449.179 247.334,444.846 247.5,440.5C 171.499,440.667 95.4993,440.5 19.5,440C 10.0359,438.361 3.36919,433.195 -0.5,424.5C -0.5,396.833 -0.5,369.167 -0.5,341.5C 4.33731,336.232 9.17064,336.232 14,341.5C 14.3333,366.5 14.6667,391.5 15,416.5C 15.2838,420.12 17.1171,422.62 20.5,424C 96.1659,424.5 171.833,424.667 247.5,424.5C 247.5,417.833 247.5,411.167 247.5,404.5C 180.833,404.667 114.166,404.5 47.5,404C 41.3333,401.833 37.1667,397.667 35,391.5C 34.5,291.501 34.3333,191.501 34.5,91.5C 29.1563,91.334 23.8229,91.5006 18.5,92C 16.2324,93.5577 15.0657,95.7244 15,98.5C 14.6667,170.5 14.3333,242.5 14,314.5C 12.6071,317.366 10.2738,318.699 7,318.5C 3.63354,318.57 1.13354,317.237 -0.5,314.5C -0.5,240.167 -0.5,165.833 -0.5,91.5C 1.83077,84.9958 6.16411,80.1625 12.5,77C 19.7458,75.6095 27.0791,75.1095 34.5,75.5C 32.788,66.3663 35.1213,58.533 41.5,52C 43.7173,50.7246 46.0506,49.7246 48.5,49C 70.1667,48.3333 91.8333,48.3333 113.5,49C 118.535,52.0133 119.702,56.1799 117,61.5C 116.097,62.7014 114.931,63.5348 113.5,64C 92.5937,64.1727 71.7604,64.6727 51,65.5C 50.3333,172.833 50.3333,280.167 51,387.5C 116.429,388.498 181.929,388.831 247.5,388.5C 247.667,284.833 247.5,181.166 247,77.5C 244.833,71.3333 240.667,67.1667 234.5,65C 203.833,64.6667 173.167,64.3333 142.5,64C 137.465,60.9867 136.298,56.8201 139,51.5C 139.903,50.2986 141.069,49.4652 142.5,49C 173.5,48.3333 204.5,48.3333 235.5,49C 243.436,50.1344 250.103,53.6344 255.5,59.5C 260.897,53.6344 267.564,50.1344 275.5,49C 337.833,48.3333 400.167,48.3333 462.5,49C 469.667,50.8333 474.167,55.3333 476,62.5C 476.499,66.8206 476.666,71.1539 476.5,75.5C 483.921,75.1095 491.254,75.6095 498.5,77C 504.836,80.1625 509.169,84.9958 511.5,91.5 Z M 276.5,64.5 C 337.501,64.3333 398.501,64.5 459.5,65C 460.33,101.762 460.83,138.595 461,175.5C 464.013,180.535 468.18,181.702 473.5,179C 474.701,178.097 475.535,176.931 476,175.5C 476.5,147.502 476.667,119.502 476.5,91.5C 481.844,91.334 487.177,91.5006 492.5,92C 494.768,93.5577 495.934,95.7244 496,98.5C 496.991,205.876 496.658,313.21 495,420.5C 493.786,422.049 492.286,423.215 490.5,424C 429.168,424.5 367.834,424.667 306.5,424.5C 306.5,417.833 306.5,411.167 306.5,404.5C 358.834,404.667 411.168,404.5 463.5,404C 469.667,401.833 473.833,397.667 476,391.5C 476.667,329.167 476.667,266.833 476,204.5C 473.774,200.139 470.274,198.639 465.5,200C 463.333,200.833 461.833,202.333 461,204.5C 460.831,265.737 460.331,326.904 459.5,388C 394.168,388.5 328.834,388.667 263.5,388.5C 263.333,284.833 263.5,181.166 264,77.5C 266.353,71.3154 270.52,66.982 276.5,64.5 Z M 392.5,283.5 C 398.833,283.5 405.167,283.5 411.5,283.5C 411.5,294.5 411.5,305.5 411.5,316.5C 405.167,316.5 398.833,316.5 392.5,316.5C 392.5,305.5 392.5,294.5 392.5,283.5 Z M 263.5,404.5 C 272.5,404.5 281.5,404.5 290.5,404.5C 290.667,417.504 290.5,430.504 290,443.5C 281.793,434.818 273.293,434.485 264.5,442.5C 263.501,429.851 263.168,417.184 263.5,404.5 Z"/></g>
<g><path style="opacity:0.93" fill="#000000" d="M 87.5,120.5 C 106.503,120.333 125.503,120.5 144.5,121C 149.343,125.38 149.677,130.046 145.5,135C 138.254,136.391 130.921,136.891 123.5,136.5C 123.667,151.504 123.5,166.504 123,181.5C 116.555,187.411 111.555,186.411 108,178.5C 107.5,164.504 107.333,150.504 107.5,136.5C 100.411,136.884 93.4112,136.384 86.5,135C 82.2676,129.809 82.6009,124.975 87.5,120.5 Z"/></g>
<g><path style="opacity:0.915" fill="#000000" d="M 167.5,120.5 C 181.837,120.333 196.171,120.5 210.5,121C 215.446,125.3 215.779,129.967 211.5,135C 210.5,135.333 209.5,135.667 208.5,136C 195.5,136.667 182.5,136.667 169.5,136C 165.488,135.151 163.488,132.651 163.5,128.5C 163.782,125.269 165.115,122.602 167.5,120.5 Z"/></g>
<g><path style="opacity:0.93" fill="#000000" d="M 300.5,120.5 C 341.501,120.333 382.501,120.5 423.5,121C 427.753,124.42 428.587,128.587 426,133.5C 424.829,134.893 423.329,135.727 421.5,136C 381.833,136.667 342.167,136.667 302.5,136C 297.094,134.02 295.261,130.186 297,124.5C 298.376,123.295 299.542,121.962 300.5,120.5 Z"/></g>
<g><path style="opacity:0.922" fill="#000000" d="M 148.5,169.5 C 168.836,169.333 189.169,169.5 209.5,170C 214.689,172.913 215.856,177.08 213,182.5C 212.097,183.701 210.931,184.535 209.5,185C 189.167,185.667 168.833,185.667 148.5,185C 143.465,181.987 142.298,177.82 145,172.5C 146.145,171.364 147.312,170.364 148.5,169.5 Z"/></g>
<g><path style="opacity:0.93" fill="#000000" d="M 301.5,169.5 C 341.835,169.333 382.168,169.5 422.5,170C 427.689,172.913 428.856,177.08 426,182.5C 425.097,183.701 423.931,184.535 422.5,185C 382.167,185.667 341.833,185.667 301.5,185C 296.931,182.459 295.431,178.625 297,173.5C 298.397,171.93 299.897,170.596 301.5,169.5 Z"/></g>
<g><path style="opacity:0.93" fill="#000000" d="M 88.5,218.5 C 128.835,218.333 169.168,218.5 209.5,219C 214.069,221.541 215.569,225.375 214,230.5C 212.786,232.049 211.286,233.215 209.5,234C 168.833,234.667 128.167,234.667 87.5,234C 82.0344,228.434 82.3678,223.267 88.5,218.5 Z"/></g>
<g><path style="opacity:0.93" fill="#000000" d="M 301.5,218.5 C 341.835,218.333 382.168,218.5 422.5,219C 427.069,221.541 428.569,225.375 427,230.5C 425.786,232.049 424.286,233.215 422.5,234C 381.833,234.667 341.167,234.667 300.5,234C 295.034,228.434 295.368,223.267 301.5,218.5 Z"/></g>
<g><path style="opacity:0.93" fill="#000000" d="M 89.5,267.5 C 129.168,267.333 168.835,267.5 208.5,268C 213.906,269.98 215.739,273.814 214,279.5C 212.833,280.667 211.667,281.833 210.5,283C 169.5,283.667 128.5,283.667 87.5,283C 83.2468,279.58 82.4135,275.413 85,270.5C 86.4087,269.219 87.9087,268.219 89.5,267.5 Z"/></g>
<g><path style="opacity:0.92" fill="#000000" d="M 302.5,267.5 C 320.503,267.333 338.503,267.5 356.5,268C 362.448,270.433 363.948,274.6 361,280.5C 360.167,281.333 359.333,282.167 358.5,283C 339.167,283.667 319.833,283.667 300.5,283C 296.247,279.58 295.413,275.413 298,270.5C 299.409,269.219 300.909,268.219 302.5,267.5 Z"/></g>
<g><path style="opacity:0.936" fill="#000000" d="M 385.5,267.5 C 396.838,267.333 408.172,267.5 419.5,268C 422.102,268.883 424.269,270.383 426,272.5C 427.639,290.076 427.972,307.742 427,325.5C 426.654,327.848 425.487,329.681 423.5,331C 409.928,332.63 396.261,332.963 382.5,332C 381,330.5 379.5,329 378,327.5C 376.376,310.233 376.042,292.9 377,275.5C 378.445,271.218 381.278,268.551 385.5,267.5 Z M 392.5,283.5 C 392.5,294.5 392.5,305.5 392.5,316.5C 398.833,316.5 405.167,316.5 411.5,316.5C 411.5,305.5 411.5,294.5 411.5,283.5C 405.167,283.5 398.833,283.5 392.5,283.5 Z"/></g>
<g><path style="opacity:0.93" fill="#000000" d="M 90.5,316.5 C 129.501,316.333 168.501,316.5 207.5,317C 214.463,319.23 216.296,323.73 213,330.5C 212.25,331.126 211.416,331.626 210.5,332C 169.5,332.667 128.5,332.667 87.5,332C 83.7885,329.487 82.6218,325.987 84,321.5C 85.5631,318.977 87.7298,317.31 90.5,316.5 Z"/></g>
<g><path style="opacity:0.923" fill="#000000" d="M 303.5,316.5 C 320.837,316.333 338.17,316.5 355.5,317C 363.577,320.45 364.577,325.45 358.5,332C 339.167,332.667 319.833,332.667 300.5,332C 296.788,329.487 295.622,325.987 297,321.5C 298.563,318.977 300.73,317.31 303.5,316.5 Z"/></g>
</svg>
