<?xml version="1.0" encoding="UTF-8"?>
<!DOCTYPE svg PUBLIC "-//W3C//DTD SVG 1.1//EN" "http://www.w3.org/Graphics/SVG/1.1/DTD/svg11.dtd">
<svg xmlns="http://www.w3.org/2000/svg" version="1.1" width="512px" height="512px" style="shape-rendering:geometricPrecision; text-rendering:geometricPrecision; image-rendering:optimizeQuality; fill-rule:evenodd; clip-rule:evenodd" xmlns:xlink="http://www.w3.org/1999/xlink">
<g><path style="opacity:0.944" fill="#000000" d="M 371.5,7.5 C 405.549,7.02755 439.549,7.52755 473.5,9C 489.39,14.2459 499.224,25.0793 503,41.5C 503.667,57.5 503.667,73.5 503,89.5C 499.235,107.533 488.402,118.699 470.5,123C 455.167,123.333 439.833,123.667 424.5,124C 414.167,134.333 403.833,144.667 393.5,155C 386.483,158.381 381.649,156.548 379,149.5C 378.5,140.84 378.334,132.173 378.5,123.5C 355.653,121.489 342.153,109.156 338,86.5C 337.333,72.5 337.333,58.5 338,44.5C 341.34,24.9965 352.507,12.6632 371.5,7.5 Z M 377.5,24.5 C 406.169,24.3334 434.835,24.5 463.5,25C 476.667,26.8333 484.167,34.3333 486,47.5C 486.667,59.8333 486.667,72.1667 486,84.5C 483.953,96.2138 477.12,103.38 465.5,106C 449.5,106.333 433.5,106.667 417.5,107C 410.364,113.135 403.531,119.635 397,126.5C 396.667,121.833 396.333,117.167 396,112.5C 395.226,110.061 393.726,108.227 391.5,107C 382.381,107.485 373.715,105.819 365.5,102C 360.969,98.4291 357.802,93.9291 356,88.5C 355.061,72.1129 355.394,55.7796 357,39.5C 361.223,30.7568 368.057,25.7568 377.5,24.5 Z"/></g>
<g><path style="opacity:0.946" fill="#000000" d="M 511.5,436.5 C 511.5,457.5 511.5,478.5 511.5,499.5C 509.99,500.836 508.323,502.003 506.5,503C 339.167,503.667 171.833,503.667 4.5,503C 2.67694,502.003 1.01027,500.836 -0.5,499.5C -0.5,478.5 -0.5,457.5 -0.5,436.5C 2.58302,424.875 9.24969,415.708 19.5,409C 4.92548,391.381 3.75881,372.881 16,353.5C 33.4941,335.502 52.9941,333.002 74.5,346C 82.3286,352.492 87.4953,360.659 90,370.5C 93.4896,360.342 99.3229,351.842 107.5,345C 112.181,342.408 117.015,340.241 122,338.5C 122.5,316.503 122.667,294.503 122.5,272.5C 116.158,272.666 109.825,272.5 103.5,272C 101.333,271.167 99.8333,269.667 99,267.5C 98.3333,253.833 98.3333,240.167 99,226.5C 103.245,222.307 108.412,220.641 114.5,221.5C 114.334,212.827 114.5,204.16 115,195.5C 120.594,187.902 126.927,180.902 134,174.5C 138.167,178.667 142.333,182.833 146.5,187C 142,191.5 137.5,196 133,200.5C 132.5,207.492 132.334,214.492 132.5,221.5C 154.167,221.5 175.833,221.5 197.5,221.5C 197.5,205.5 197.5,189.5 197.5,173.5C 182.095,173.952 166.762,173.452 151.5,172C 128.667,149.167 105.833,126.333 83,103.5C 81.1211,100.2 81.1211,96.8662 83,93.5C 91.8333,84.6667 100.667,75.8333 109.5,67C 112.702,65.5167 116.036,65.1834 119.5,66C 135.5,82 151.5,98 167.5,114C 184.167,114.667 200.833,114.667 217.5,114C 202.944,94.6992 201.777,74.5325 214,53.5C 233.997,30.2474 257.497,26.0807 284.5,41C 303.744,56.7978 309.578,76.6311 302,100.5C 300.042,105.59 297.208,110.09 293.5,114C 311.739,112.186 326.906,118.019 339,131.5C 342.297,136.385 344.631,141.718 346,147.5C 346.5,172.164 346.667,196.831 346.5,221.5C 357.167,221.5 367.833,221.5 378.5,221.5C 378.666,214.492 378.5,207.492 378,200.5C 373.5,196 369,191.5 364.5,187C 368.667,182.833 372.833,178.667 377,174.5C 384.073,180.902 390.406,187.902 396,195.5C 396.5,204.16 396.666,212.827 396.5,221.5C 402.588,220.641 407.755,222.307 412,226.5C 412.667,240.167 412.667,253.833 412,267.5C 411.167,269.667 409.667,271.167 407.5,272C 401.175,272.5 394.842,272.666 388.5,272.5C 388.333,294.503 388.5,316.503 389,338.5C 400.237,341.416 408.904,347.749 415,357.5C 417.201,361.783 419.201,366.117 421,370.5C 427.817,348.006 442.984,337.173 466.5,338C 489.348,342.181 501.682,355.848 503.5,379C 503.409,390.614 499.409,400.614 491.5,409C 501.75,415.708 508.417,424.875 511.5,436.5 Z M 251.5,49.5 C 276.96,50.7585 288.793,64.0919 287,89.5C 281.074,107.556 268.574,115.722 249.5,114C 229.715,108.2 221.215,95.0335 224,74.5C 228.512,61.0018 237.679,52.6685 251.5,49.5 Z M 114.5,86.5 C 129.299,100.798 143.965,115.298 158.5,130C 160.087,130.862 161.754,131.529 163.5,132C 212.5,132.333 261.5,132.667 310.5,133C 320.845,136.014 327.011,142.847 329,153.5C 329.5,176.164 329.667,198.831 329.5,221.5C 321.5,221.5 313.5,221.5 305.5,221.5C 305.5,202.5 305.5,183.5 305.5,164.5C 299.833,164.5 294.167,164.5 288.5,164.5C 288.5,183.5 288.5,202.5 288.5,221.5C 263.833,221.5 239.167,221.5 214.5,221.5C 214.667,201.164 214.5,180.831 214,160.5C 212.238,157.732 209.738,156.232 206.5,156C 190.833,155.667 175.167,155.333 159.5,155C 141,136.5 122.5,118 104,99.5C 103.333,98.8333 103.333,98.1667 104,97.5C 107.704,93.9643 111.204,90.2976 114.5,86.5 Z M 115.5,239.5 C 208.833,239.5 302.167,239.5 395.5,239.5C 395.5,244.833 395.5,250.167 395.5,255.5C 302.167,255.5 208.833,255.5 115.5,255.5C 115.5,250.167 115.5,244.833 115.5,239.5 Z M 140.5,272.5 C 217.167,272.5 293.833,272.5 370.5,272.5C 370.833,294.51 370.5,316.51 369.5,338.5C 351.797,343.702 341.297,355.369 338,373.5C 331.304,346.483 314.138,334.983 286.5,339C 270.293,343.707 259.96,354.207 255.5,370.5C 247.067,345.446 229.734,334.946 203.5,339C 186.26,344.24 176.093,355.74 173,373.5C 169.703,355.369 159.203,343.702 141.5,338.5C 140.5,316.51 140.167,294.51 140.5,272.5 Z M 43.5,355.5 C 59.4144,354.035 69.2478,361.035 73,376.5C 72.3553,395.475 62.522,404.309 43.5,403C 25.6894,395.573 20.8561,383.073 29,365.5C 33.0232,360.758 37.8566,357.425 43.5,355.5 Z M 125.5,355.5 C 146.645,354.478 156.479,364.478 155,385.5C 147.213,402.875 134.713,407.375 117.5,399C 104.989,387.074 104.322,374.574 115.5,361.5C 118.598,358.957 121.931,356.957 125.5,355.5 Z M 208.5,355.5 C 223.633,353.648 233.466,359.981 238,374.5C 239.505,388.992 233.338,398.492 219.5,403C 202.262,404.048 192.262,396.048 189.5,379C 190.896,367.11 197.229,359.277 208.5,355.5 Z M 290.5,355.5 C 308.245,353.761 318.578,361.595 321.5,379C 319.901,394.099 311.568,402.266 296.5,403.5C 279.646,401.146 271.813,391.479 273,374.5C 275.955,365.383 281.789,359.05 290.5,355.5 Z M 373.5,355.5 C 393.803,354.637 403.636,364.303 403,384.5C 396.709,400.896 385.209,406.396 368.5,401C 355.18,392.366 352.013,380.866 359,366.5C 362.857,361.468 367.69,357.801 373.5,355.5 Z M 456.5,355.5 C 473.9,354.232 483.9,362.232 486.5,379.5C 483.807,396.678 473.807,404.511 456.5,403C 438.688,395.57 433.855,383.07 442,365.5C 446.023,360.758 450.857,357.425 456.5,355.5 Z M 172.5,385.5 C 173.525,389.079 174.691,392.746 176,396.5C 178.336,401.175 181.169,405.508 184.5,409.5C 180.223,412.273 176.39,415.607 173,419.5C 169.296,415.405 165.129,411.905 160.5,409C 167.283,402.601 171.283,394.768 172.5,385.5 Z M 337.5,385.5 C 339.586,394.5 343.92,402.333 350.5,409C 345.871,411.905 341.704,415.405 338,419.5C 334.61,415.607 330.777,412.273 326.5,409.5C 329.831,405.508 332.664,401.175 335,396.5C 336.562,392.986 337.395,389.319 337.5,385.5 Z M 89.5,387.5 C 92.1472,395.618 96.4805,402.784 102.5,409C 97.8567,411.813 93.8567,415.313 90.5,419.5C 86.6481,415.814 82.6481,412.314 78.5,409C 84.4229,402.987 88.0896,395.821 89.5,387.5 Z M 420.5,387.5 C 422.777,395.547 426.777,402.713 432.5,409C 428.352,412.314 424.352,415.814 420.5,419.5C 417.143,415.313 413.143,411.813 408.5,409C 414.707,403.088 418.707,395.921 420.5,387.5 Z M 254.5,388.5 C 255.497,388.47 256.164,388.97 256.5,390C 258.617,397.235 262.284,403.568 267.5,409C 263.352,412.314 259.352,415.814 255.5,419.5C 251.648,415.814 247.648,412.314 243.5,409C 249.149,403.199 252.816,396.366 254.5,388.5 Z M 35.5,421.5 C 44.8393,421.334 54.1726,421.5 63.5,422C 72.4008,425.235 78.2341,431.402 81,440.5C 81.4999,455.83 81.6666,471.163 81.5,486.5C 59.8333,486.5 38.1667,486.5 16.5,486.5C 16.3334,471.163 16.5001,455.83 17,440.5C 20.0525,430.949 26.2191,424.616 35.5,421.5 Z M 117.5,421.5 C 126.839,421.334 136.173,421.5 145.5,422C 156.803,425.301 162.97,432.801 164,444.5C 164.5,458.496 164.667,472.496 164.5,486.5C 142.833,486.5 121.167,486.5 99.5,486.5C 99.3334,470.83 99.5001,455.163 100,439.5C 102.683,430.318 108.517,424.318 117.5,421.5 Z M 200.5,421.5 C 209.839,421.334 219.173,421.5 228.5,422C 237.667,424.5 243.5,430.333 246,439.5C 246.5,455.163 246.667,470.83 246.5,486.5C 224.833,486.5 203.167,486.5 181.5,486.5C 181.062,470.443 181.562,454.443 183,438.5C 186.084,429.915 191.917,424.248 200.5,421.5 Z M 282.5,421.5 C 291.839,421.334 301.173,421.5 310.5,422C 320.882,425.048 327.049,431.881 329,442.5C 329.5,457.163 329.667,471.83 329.5,486.5C 307.833,486.5 286.167,486.5 264.5,486.5C 264.333,470.83 264.5,455.163 265,439.5C 267.683,430.318 273.517,424.318 282.5,421.5 Z M 365.5,421.5 C 374.839,421.334 384.173,421.5 393.5,422C 402.667,424.5 408.5,430.333 411,439.5C 411.5,455.163 411.667,470.83 411.5,486.5C 389.833,486.5 368.167,486.5 346.5,486.5C 346.096,470.457 346.596,454.457 348,438.5C 351.084,429.915 356.917,424.248 365.5,421.5 Z M 447.5,421.5 C 456.839,421.334 466.173,421.5 475.5,422C 484.965,424.798 491.132,430.965 494,440.5C 494.5,455.83 494.667,471.163 494.5,486.5C 472.833,486.5 451.167,486.5 429.5,486.5C 429.333,471.163 429.5,455.83 430,440.5C 432.955,431.383 438.789,425.05 447.5,421.5 Z"/></g>
<g><path style="opacity:0.964" fill="#000000" d="M 370.5,40.5 C 403.833,40.5 437.167,40.5 470.5,40.5C 470.5,46.1667 470.5,51.8333 470.5,57.5C 437.167,57.5 403.833,57.5 370.5,57.5C 370.5,51.8333 370.5,46.1667 370.5,40.5 Z"/></g>
<g><path style="opacity:0.946" fill="#000000" d="M 387.5,73.5 C 393.167,73.5 398.833,73.5 404.5,73.5C 404.5,79.1667 404.5,84.8333 404.5,90.5C 398.833,90.5 393.167,90.5 387.5,90.5C 387.5,84.8333 387.5,79.1667 387.5,73.5 Z"/></g>
<g><path style="opacity:0.946" fill="#000000" d="M 420.5,73.5 C 426.167,73.5 431.833,73.5 437.5,73.5C 437.5,79.1667 437.5,84.8333 437.5,90.5C 431.833,90.5 426.167,90.5 420.5,90.5C 420.5,84.8333 420.5,79.1667 420.5,73.5 Z"/></g>
<g><path style="opacity:0.946" fill="#000000" d="M 453.5,73.5 C 459.167,73.5 464.833,73.5 470.5,73.5C 470.5,79.1667 470.5,84.8333 470.5,90.5C 464.833,90.5 459.167,90.5 453.5,90.5C 453.5,84.8333 453.5,79.1667 453.5,73.5 Z"/></g>
<g><path style="opacity:0.84" fill="#000000" d="M 246.5,147.5 C 252.5,147.5 258.5,147.5 264.5,147.5C 264.5,153.5 264.5,159.5 264.5,165.5C 258.5,165.5 252.5,165.5 246.5,165.5C 246.5,159.5 246.5,153.5 246.5,147.5 Z"/></g>
</svg>
