<?xml version="1.0" encoding="UTF-8"?>
<!DOCTYPE svg PUBLIC "-//W3C//DTD SVG 1.1//EN" "http://www.w3.org/Graphics/SVG/1.1/DTD/svg11.dtd">
<svg xmlns="http://www.w3.org/2000/svg" version="1.1" width="512px" height="512px" style="shape-rendering:geometricPrecision; text-rendering:geometricPrecision; image-rendering:optimizeQuality; fill-rule:evenodd; clip-rule:evenodd" xmlns:xlink="http://www.w3.org/1999/xlink">
<g><path style="opacity:0.945" fill="#464646" d="M 251.5,7.5 C 345.244,8.77247 417.41,48.4391 468,126.5C 507.625,195.749 514.291,268.083 488,343.5C 474.88,377.591 455.38,407.424 429.5,433C 420.211,435.29 416.378,431.79 418,422.5C 480.095,357.172 500.428,280.506 479,192.5C 453.509,111.009 400.009,57.5087 318.5,32C 296.898,26.1045 274.898,23.1045 252.5,23C 247.931,20.4586 246.431,16.6253 248,11.5C 249.376,10.2949 250.542,8.9616 251.5,7.5 Z"/></g>
<g><path style="opacity:0.949" fill="#464646" d="M 141.5,22.5 C 165.502,22.3334 189.502,22.5 213.5,23C 223.37,23.8517 231.537,28.0184 238,35.5C 243.35,46.5282 247.85,57.8615 251.5,69.5C 270.547,71.578 289.547,74.078 308.5,77C 310,77.8333 311.167,79 312,80.5C 310.267,98.8305 306.6,116.83 301,134.5C 295.052,147.733 284.886,155.566 270.5,158C 259.552,159.496 248.552,160.33 237.5,160.5C 238.935,177.35 240.602,194.183 242.5,211C 242.377,220.391 238.043,223.225 229.5,219.5C 228.416,218.335 227.583,217.002 227,215.5C 224.91,197.853 223.076,180.187 221.5,162.5C 216.31,162.441 211.143,162.775 206,163.5C 200.219,163.883 197.052,161.216 196.5,155.5C 196.556,152.889 197.556,150.722 199.5,149C 202.711,147.847 206.044,147.18 209.5,147C 227.5,145.667 245.5,144.333 263.5,143C 273.663,142.149 281.163,137.316 286,128.5C 289.297,116.338 292.464,104.171 295.5,92C 277.5,89 259.5,86 241.5,83C 240.667,82.1667 239.833,81.3333 239,80.5C 234.529,68.7536 229.862,57.087 225,45.5C 221.984,41.9083 218.151,39.7416 213.5,39C 189.833,38.3333 166.167,38.3333 142.5,39C 132.075,40.1254 123.908,44.9587 118,53.5C 109.19,82.0747 100.69,110.741 92.5,139.5C 93.7506,147.251 98.084,152.417 105.5,155C 116.5,159.333 127.5,163.667 138.5,168C 139.784,168.684 140.951,168.517 142,167.5C 143.036,165.13 143.536,162.63 143.5,160C 142.381,132.177 142.214,104.344 143,76.5C 147.692,69.1364 152.692,68.8031 158,75.5C 158.213,104.01 158.713,132.51 159.5,161C 159.573,177.263 151.573,184.93 135.5,184C 130.794,182.265 126.127,180.431 121.5,178.5C 115.229,209.556 99.8961,235.056 75.5,255C 59.5,264.333 43.5,273.667 27.5,283C 26.0096,283.745 25.0096,284.912 24.5,286.5C 30.8289,330.472 47.9956,369.472 76,403.5C 92.5474,387.089 104.547,367.756 112,345.5C 117.026,328.062 122.359,310.729 128,293.5C 141.17,263.664 162.004,240.83 190.5,225C 194.505,223.902 198.005,224.735 201,227.5C 202.459,234.287 204.126,240.953 206,247.5C 216.182,240.884 227.349,237.717 239.5,238C 243.863,239.695 245.53,242.862 244.5,247.5C 242.998,259.504 241.832,271.504 241,283.5C 244.297,285.795 247.297,288.462 250,291.5C 253.853,300.051 257.52,308.718 261,317.5C 264.696,321.858 269.03,325.525 274,328.5C 276.248,347.339 270.081,362.839 255.5,375C 244.341,381.251 232.341,384.418 219.5,384.5C 211.79,393.797 208.624,404.464 210,416.5C 215.326,428.145 219.659,440.145 223,452.5C 224.109,463.168 223.275,473.668 220.5,484C 220.645,484.772 220.978,485.439 221.5,486C 231.041,487.534 240.541,488.034 250,487.5C 257.504,471.649 265.004,455.816 272.5,440C 263.5,439.667 254.5,439.333 245.5,439C 241.723,436.089 240.556,432.256 242,427.5C 243.214,425.951 244.714,424.785 246.5,424C 260.167,423.333 273.833,423.333 287.5,424C 290.997,425.323 292.664,427.823 292.5,431.5C 285.347,450.145 277.347,468.478 268.5,486.5C 277.218,487.496 285.885,486.996 294.5,485C 302.545,465.028 310.878,445.194 319.5,425.5C 320.5,425 321.5,424.5 322.5,424C 332.167,423.667 341.833,423.333 351.5,423C 369.773,419.623 382.606,409.456 390,392.5C 395.629,376.117 400.129,359.45 403.5,342.5C 402.822,336.407 401.655,330.407 400,324.5C 396.922,318.009 393.588,311.675 390,305.5C 383.807,304.935 377.64,304.102 371.5,303C 367.285,298.042 367.619,293.375 372.5,289C 386.526,288.238 400.526,288.404 414.5,289.5C 414.666,281.16 414.5,272.827 414,264.5C 412.772,253.614 407.272,245.781 397.5,241C 388.848,239.274 380.182,237.607 371.5,236C 348.893,225.12 340.226,207.453 345.5,183C 349.665,179.588 353.665,179.754 357.5,183.5C 359.044,190.39 360.211,197.39 361,204.5C 364.5,212 370,217.5 377.5,221C 391.49,220.998 404.157,224.998 415.5,233C 424.221,241.277 429.055,251.444 430,263.5C 430.667,278.5 430.667,293.5 430,308.5C 427.983,313.924 424.15,315.758 418.5,314C 415.37,311.872 412.537,309.372 410,306.5C 419.042,324.311 421.042,342.978 416,362.5C 412.202,375.561 408.202,388.561 404,401.5C 399.708,410.462 393.874,418.295 386.5,425C 392.061,427.562 395.894,431.728 398,437.5C 400.448,442.948 401.448,448.615 401,454.5C 400.417,456.002 399.584,457.335 398.5,458.5C 332.487,503.577 260.821,515.41 183.5,494C 95.624,464.791 39.124,405.624 14,316.5C -2.01094,247.571 8.32239,182.904 45,122.5C 49.1247,117.108 53.7913,116.442 59,120.5C 60.4568,123.366 60.7901,126.366 60,129.5C 33.2069,171.557 20.8735,217.557 23,267.5C 38.5,258 54,248.5 69.5,239C 88.6501,221.537 100.65,200.037 105.5,174.5C 105.392,173.558 105.059,172.725 104.5,172C 81.9516,165.136 73.4516,150.303 79,127.5C 86,103.5 93,79.5 100,55.5C 104.313,41.1857 113.48,31.3524 127.5,26C 132.224,24.5058 136.891,23.3391 141.5,22.5 Z M 187.5,245.5 C 190.76,260.028 193.927,274.695 197,289.5C 198.419,290.46 199.919,291.293 201.5,292C 209.848,293.24 218.181,294.574 226.5,296C 232.627,296.641 236.794,299.808 239,305.5C 241.949,318.752 248.449,329.752 258.5,338.5C 257.409,350.216 251.742,358.716 241.5,364C 227.508,368.144 213.341,368.644 199,365.5C 195.726,365.301 193.393,366.634 192,369.5C 189.988,376.982 192.821,380.982 200.5,381.5C 198.041,388.044 195.874,394.711 194,401.5C 193.199,408.889 193.533,416.223 195,423.5C 199.838,433.51 203.838,443.843 207,454.5C 208.058,464.021 207.225,473.354 204.5,482.5C 158.452,471.983 119.118,449.816 86.5,416C 101.326,401.858 112.826,385.358 121,366.5C 128.935,347.361 135.269,327.694 140,307.5C 149.282,281.729 165.116,261.063 187.5,245.5 Z M 225.5,255.5 C 226.586,255.62 227.253,256.287 227.5,257.5C 226.335,264.817 225.335,272.15 224.5,279.5C 219.744,278.929 215.077,277.929 210.5,276.5C 209.781,273.687 209.114,270.854 208.5,268C 212.754,261.877 218.42,257.71 225.5,255.5 Z M 330.5,439.5 C 347.17,439.333 363.837,439.5 380.5,440C 381.961,442.421 383.294,444.921 384.5,447.5C 363.533,462.481 340.533,473.481 315.5,480.5C 315.167,480.167 314.833,479.833 314.5,479.5C 319.849,466.141 325.182,452.808 330.5,439.5 Z"/></g>
<g><path style="opacity:0.926" fill="#464646" d="M 202.5,63.5 C 212.974,64.1258 216.808,69.4591 214,79.5C 213.167,81.6667 211.667,83.1667 209.5,84C 197.529,86.03 192.696,81.1967 195,69.5C 196.707,66.4096 199.207,64.4096 202.5,63.5 Z"/></g>
<g><path style="opacity:0.944" fill="#464646" d="M 318.5,205.5 C 322.803,204.796 326.303,206.13 329,209.5C 329.111,219.579 333.611,226.746 342.5,231C 345.914,231.297 349.247,231.964 352.5,233C 356.577,236.139 357.41,239.972 355,244.5C 342.394,255.447 334.394,269.113 331,285.5C 327.324,311.224 323.324,336.891 319,362.5C 315.638,372.897 310.471,382.23 303.5,390.5C 313.817,391.666 324.151,391.832 334.5,391C 344.62,388.548 352.12,382.714 357,373.5C 360.691,359.399 364.691,345.399 369,331.5C 376.27,327.405 381.104,329.239 383.5,337C 380.056,351.276 376.223,365.443 372,379.5C 364.735,395.09 352.568,404.256 335.5,407C 315.5,407.667 295.5,407.667 275.5,407C 270.872,403.632 269.872,399.465 272.5,394.5C 289.934,385.223 300.768,370.89 305,351.5C 308.535,325.754 312.535,300.087 317,274.5C 320.335,263.495 325.501,253.495 332.5,244.5C 318.342,236.518 312.509,224.518 315,208.5C 316.145,207.364 317.312,206.364 318.5,205.5 Z"/></g>
<g><path style="opacity:0.89" fill="#464646" d="M 382.5,256.5 C 392.659,255.158 396.826,259.491 395,269.5C 390.005,275.768 384.672,276.102 379,270.5C 376.78,264.991 377.947,260.324 382.5,256.5 Z"/></g>
<g><path style="opacity:0.919" fill="#464646" d="M 210.5,306.5 C 221.7,307.199 225.534,312.865 222,323.5C 216,330.167 210,330.167 204,323.5C 200.634,315.584 202.8,309.917 210.5,306.5 Z"/></g>
</svg>
