<?xml version="1.0" encoding="UTF-8"?>
<!DOCTYPE svg PUBLIC "-//W3C//DTD SVG 1.1//EN" "http://www.w3.org/Graphics/SVG/1.1/DTD/svg11.dtd">
<svg xmlns="http://www.w3.org/2000/svg" version="1.1" width="512px" height="512px" style="shape-rendering:geometricPrecision; text-rendering:geometricPrecision; image-rendering:optimizeQuality; fill-rule:evenodd; clip-rule:evenodd" xmlns:xlink="http://www.w3.org/1999/xlink">
<g><path style="opacity:0.945" fill="#000000" d="M 511.5,170.5 C 511.5,176.167 511.5,181.833 511.5,187.5C 506.928,198.025 502.428,208.692 498,219.5C 489.474,231.007 478.307,234.507 464.5,230C 446.24,220.953 428.073,211.787 410,202.5C 399.842,211.583 388.509,218.917 376,224.5C 375.667,233.5 375.333,242.5 375,251.5C 369.167,263.167 363.333,274.833 357.5,286.5C 359.5,287.833 361.5,287.833 363.5,286.5C 374.308,271.858 385.308,257.358 396.5,243C 410.77,235.72 421.937,238.887 430,252.5C 432,259.167 432,265.833 430,272.5C 427.246,277.008 424.746,281.674 422.5,286.5C 434.791,286.966 442.958,292.966 447,304.5C 449.079,342.169 435.912,373.336 407.5,398C 382.671,414.582 357.671,430.915 332.5,447C 317.567,455.533 301.567,460.866 284.5,463C 243.833,463.667 203.167,463.667 162.5,463C 143.393,460.631 125.726,454.298 109.5,444C 86.1667,428.667 62.8333,413.333 39.5,398C 17.6672,378.826 4.3339,354.993 -0.5,326.5C -0.5,319.167 -0.5,311.833 -0.5,304.5C 3.07687,295.26 9.74353,289.594 19.5,287.5C 13.7268,267.001 14.2268,246.667 21,226.5C 30.4656,205.515 46.6323,196.682 69.5,200C 86.1736,204.172 99.8402,213.006 110.5,226.5C 106.352,230.404 102.019,234.071 97.5,237.5C 89.4158,227.951 79.4158,221.117 67.5,217C 51.8283,214.335 41.3283,220.502 36,235.5C 32.6611,246.592 31.6611,257.925 33,269.5C 33.8357,275.673 35.669,281.506 38.5,287C 47.5,287.667 56.5,287.667 65.5,287C 59.8768,265.297 68.2101,254.963 90.5,256C 93.4456,256.806 96.1123,258.139 98.5,260C 104.726,268.562 110.559,277.396 116,286.5C 117.049,287.517 118.216,287.684 119.5,287C 113.744,278.249 110.744,268.583 110.5,258C 110.955,232.099 120.622,210.433 139.5,193C 158.167,180.333 176.833,180.333 195.5,193C 202.789,199.283 208.956,206.449 214,214.5C 225.45,201.905 239.617,197.072 256.5,200C 261.703,201.455 266.703,203.121 271.5,205C 257.231,187.052 248.898,166.552 246.5,143.5C 232.3,140.129 221.3,132.295 213.5,120C 203.752,117.085 194.252,113.585 185,109.5C 181.712,105.224 181.878,101.057 185.5,97C 192.608,93.7975 199.941,91.2975 207.5,89.5C 211.381,67.1187 224.381,53.2854 246.5,48C 276.756,45.4634 296.089,58.7967 304.5,88C 325.012,92.1714 344.345,99.5048 362.5,110C 382.57,121.735 401.237,135.401 418.5,151C 443.167,151.333 467.833,151.667 492.5,152C 502.016,155.017 508.349,161.184 511.5,170.5 Z M 248.5,64.5 C 265.58,62.4524 277.746,69.1191 285,84.5C 285.767,90.5671 287.267,96.4004 289.5,102C 321.727,108.117 351.06,120.784 377.5,140C 389.121,148.619 400.455,157.619 411.5,167C 435.833,167.333 460.167,167.667 484.5,168C 490.833,169 494.5,172.667 495.5,179C 492.05,189.741 487.883,200.241 483,210.5C 479.95,214.13 476.117,215.297 471.5,214C 451.5,204 431.5,194 411.5,184C 388.718,183.375 366.052,181.375 343.5,178C 330.822,175.996 318.822,171.996 307.5,166C 288.072,153.9 283.405,137.733 293.5,117.5C 289.833,113.167 285.833,109.167 281.5,105.5C 271.962,117.563 268.795,131.23 272,146.5C 277.515,165.686 289.681,178.853 308.5,186C 333.373,194.84 359.04,199.507 385.5,200C 357.059,218.112 327.726,219.779 297.5,205C 281.361,193.157 271.194,177.324 267,157.5C 265.553,148.088 263.886,138.755 262,129.5C 256.4,127.267 250.567,125.767 244.5,125C 225.416,115.314 219.916,100.481 228,80.5C 232.963,72.6965 239.796,67.3631 248.5,64.5 Z M 161.5,200.5 C 173.944,199.471 184.111,203.805 192,213.5C 195.755,218.003 198.755,223.003 201,228.5C 200.513,232.629 199.18,236.629 197,240.5C 191.555,255.765 190.055,271.432 192.5,287.5C 184.167,287.5 175.833,287.5 167.5,287.5C 167.5,292.833 167.5,298.167 167.5,303.5C 235.501,303.667 303.501,303.5 371.5,303C 383.038,289.451 393.871,275.284 404,260.5C 411.342,254.038 414.676,255.705 414,265.5C 409.333,274.167 404.667,282.833 400,291.5C 399.183,294.964 399.517,298.298 401,301.5C 401.75,302.126 402.584,302.626 403.5,303C 410.167,303.333 416.833,303.667 423.5,304C 426.494,304.406 428.661,305.906 430,308.5C 430.93,340.805 418.763,366.971 393.5,387C 367.434,404.062 341.1,420.728 314.5,437C 300.175,443.331 285.175,446.664 269.5,447C 238.833,447.667 208.167,447.667 177.5,447C 155.241,446.688 134.908,440.355 116.5,428C 93.562,413.393 70.8954,398.393 48.5,383C 38.7194,374.392 31.0527,364.225 25.5,352.5C 38.1492,351.501 50.8158,351.168 63.5,351.5C 63.5,346.167 63.5,340.833 63.5,335.5C 48.8295,335.667 34.1629,335.5 19.5,335C 16.7833,326.387 15.9499,317.553 17,308.5C 18.339,305.906 20.5056,304.406 23.5,304C 44.1667,303.667 64.8333,303.333 85.5,303C 89.6127,299.491 90.446,295.324 88,290.5C 85.6667,286.833 83.3333,283.167 81,279.5C 79.7974,276.087 80.7974,273.754 84,272.5C 85.7106,272.439 87.044,273.106 88,274.5C 93.6667,283.5 99.3333,292.5 105,301.5C 105.75,302.126 106.584,302.626 107.5,303C 122.163,303.5 136.83,303.667 151.5,303.5C 151.5,298.167 151.5,292.833 151.5,287.5C 143.731,288.365 137.898,285.365 134,278.5C 123.654,252.029 128.487,228.529 148.5,208C 152.602,204.954 156.935,202.454 161.5,200.5 Z M 241.5,216.5 C 255.964,215.649 267.131,221.316 275,233.5C 285.989,249.786 289.156,267.453 284.5,286.5C 259.833,287.833 235.167,287.833 210.5,286.5C 204.714,260.358 212.048,238.525 232.5,221C 235.592,219.454 238.592,217.954 241.5,216.5 Z M 284.5,217.5 C 299.971,227.431 316.971,232.097 335.5,231.5C 335.666,236.179 335.499,240.845 335,245.5C 328.167,259.167 321.333,272.833 314.5,286.5C 310.555,287.491 306.555,287.824 302.5,287.5C 306.805,261.385 300.805,238.051 284.5,217.5 Z M 357.5,229.5 C 358.812,231.743 359.478,234.41 359.5,237.5C 359.333,240.167 359.167,242.833 359,245.5C 352.167,259.167 345.333,272.833 338.5,286.5C 336.833,287.833 335.167,287.833 333.5,286.5C 339.333,274.833 345.167,263.167 351,251.5C 351.5,244.508 351.666,237.508 351.5,230.5C 353.735,230.795 355.735,230.461 357.5,229.5 Z"/></g>
<g><path style="opacity:1" fill="#000000" d="M 231.5,79.5 C 236.833,79.5 242.167,79.5 247.5,79.5C 247.5,84.8333 247.5,90.1667 247.5,95.5C 242.167,95.5 236.833,95.5 231.5,95.5C 231.5,90.1667 231.5,84.8333 231.5,79.5 Z"/></g>
<g><path style="opacity:1" fill="#000000" d="M 311.5,327.5 C 327.5,327.5 343.5,327.5 359.5,327.5C 359.5,332.833 359.5,338.167 359.5,343.5C 343.5,343.5 327.5,343.5 311.5,343.5C 311.5,338.167 311.5,332.833 311.5,327.5 Z"/></g>
<g><path style="opacity:1" fill="#000000" d="M 375.5,327.5 C 380.833,327.5 386.167,327.5 391.5,327.5C 391.5,332.833 391.5,338.167 391.5,343.5C 386.167,343.5 380.833,343.5 375.5,343.5C 375.5,338.167 375.5,332.833 375.5,327.5 Z"/></g>
<g><path style="opacity:1" fill="#000000" d="M 79.5,335.5 C 84.8333,335.5 90.1667,335.5 95.5,335.5C 95.5,340.833 95.5,346.167 95.5,351.5C 90.1667,351.5 84.8333,351.5 79.5,351.5C 79.5,346.167 79.5,340.833 79.5,335.5 Z"/></g>
<g><path style="opacity:1" fill="#000000" d="M 247.5,359.5 C 252.833,359.5 258.167,359.5 263.5,359.5C 263.5,364.833 263.5,370.167 263.5,375.5C 258.167,375.5 252.833,375.5 247.5,375.5C 247.5,370.167 247.5,364.833 247.5,359.5 Z"/></g>
<g><path style="opacity:1" fill="#000000" d="M 279.5,359.5 C 295.5,359.5 311.5,359.5 327.5,359.5C 327.5,364.833 327.5,370.167 327.5,375.5C 311.5,375.5 295.5,375.5 279.5,375.5C 279.5,370.167 279.5,364.833 279.5,359.5 Z"/></g>
<g><path style="opacity:1" fill="#000000" d="M 343.5,359.5 C 348.833,359.5 354.167,359.5 359.5,359.5C 359.5,364.833 359.5,370.167 359.5,375.5C 354.167,375.5 348.833,375.5 343.5,375.5C 343.5,370.167 343.5,364.833 343.5,359.5 Z"/></g>
</svg>
