<?xml version="1.0" encoding="UTF-8"?>
<!DOCTYPE svg PUBLIC "-//W3C//DTD SVG 1.1//EN" "http://www.w3.org/Graphics/SVG/1.1/DTD/svg11.dtd">
<svg xmlns="http://www.w3.org/2000/svg" version="1.1" width="512px" height="512px" style="shape-rendering:geometricPrecision; text-rendering:geometricPrecision; image-rendering:optimizeQuality; fill-rule:evenodd; clip-rule:evenodd" xmlns:xlink="http://www.w3.org/1999/xlink">
<g><path style="opacity:0.904" fill="#000000" d="M 56.5,-0.5 C 60.5,-0.5 64.5,-0.5 68.5,-0.5C 81.8327,3.41864 93.6661,10.0853 104,19.5C 110.414,31.3295 117.08,42.9962 124,54.5C 126.361,58.5667 129.194,62.2333 132.5,65.5C 133.584,64.3349 134.417,63.0016 135,61.5C 138.178,50.4539 141.512,39.4539 145,28.5C 148.833,20.6667 154.667,14.8333 162.5,11C 171.663,6.4538 180.996,2.62046 190.5,-0.5C 194.167,-0.5 197.833,-0.5 201.5,-0.5C 204.309,1.7626 206.142,4.7626 207,8.5C 207.802,22.9265 207.135,37.2599 205,51.5C 201.581,56.9231 197.415,61.7564 192.5,66C 186.674,70.4132 180.674,74.5799 174.5,78.5C 185.645,95.1249 193.812,113.125 199,132.5C 200.69,141.429 198.69,149.429 193,156.5C 189.806,159.694 186.64,162.86 183.5,166C 195.123,183.956 209.789,198.956 227.5,211C 250.708,225.436 273.042,241.103 294.5,258C 314.722,275.277 328.222,296.777 335,322.5C 337.987,339.862 336.654,356.862 331,373.5C 326,384.833 321,396.167 316,407.5C 315.238,413 316.572,418 320,422.5C 331.33,436.479 345.497,446.645 362.5,453C 390.699,463.633 419.699,471.3 449.5,476C 464.127,478.292 478.793,480.292 493.5,482C 502.682,484.683 508.682,490.517 511.5,499.5C 511.5,502.833 511.5,506.167 511.5,509.5C 510.5,509.833 509.833,510.5 509.5,511.5C 486.833,511.5 464.167,511.5 441.5,511.5C 401.411,509.703 362.411,501.87 324.5,488C 295.55,476.546 271.884,458.38 253.5,433.5C 245.056,432.903 237.223,434.903 230,439.5C 229.404,444.88 229.738,450.213 231,455.5C 233.778,466.781 236.945,477.948 240.5,489C 237.152,496.864 233.152,504.364 228.5,511.5C 152.833,511.5 77.1667,511.5 1.5,511.5C 1.16667,510.5 0.5,509.833 -0.5,509.5C -0.5,507.167 -0.5,504.833 -0.5,502.5C 5.78524,492.031 13.4519,482.531 22.5,474C 35.1079,469.631 48.1079,467.298 61.5,467C 80.8186,465.908 100.152,465.408 119.5,465.5C 121.332,448.191 121.999,430.858 121.5,413.5C 112.924,408.422 105.424,402.089 99,394.5C 99.5465,391.907 101.046,389.74 103.5,388C 104.759,387.018 106.092,386.685 107.5,387C 121.486,402.334 138.819,412.001 159.5,416C 167.438,417.66 175.438,418.326 183.5,418C 174.044,393.152 171.544,367.652 176,341.5C 177.626,334.749 180.46,328.583 184.5,323C 178.667,318.5 173.5,313.333 169,307.5C 170.462,290.891 172.962,274.391 176.5,258C 171.329,242.322 165.663,226.822 159.5,211.5C 162.935,209.012 166.602,208.012 170.5,208.5C 175.902,223.205 181.402,237.872 187,252.5C 185.964,269.216 183.464,285.716 179.5,302C 181.036,305.223 183.369,307.223 186.5,308C 189.941,305.232 192.607,301.899 194.5,298C 191.83,294.492 189.83,290.658 188.5,286.5C 194.295,272.946 198.795,258.946 202,244.5C 202.155,229.787 198.321,216.12 190.5,203.5C 191.748,201.541 193.415,200.041 195.5,199C 187.446,191.408 180.446,182.908 174.5,173.5C 170.858,175.975 167.358,178.642 164,181.5C 157.32,207.838 141.486,215.671 116.5,205C 108.411,197.991 103.577,189.158 102,178.5C 99.3333,176.5 96.6667,174.5 94,172.5C 85.2461,180.586 78.9127,190.253 75,201.5C 72.3822,223.099 71.0489,244.766 71,266.5C 75.8445,248.789 80.8445,231.122 86,213.5C 88.7367,214.56 91.57,215.394 94.5,216C 95.428,216.388 96.0946,217.055 96.5,218C 89.1306,243.108 81.9639,268.275 75,293.5C 74.8317,300.329 75.8317,306.995 78,313.5C 81.1969,307.297 85.5302,301.964 91,297.5C 89.8508,289.585 89.0174,281.585 88.5,273.5C 87.6969,255.462 95.6969,249.628 112.5,256C 119.866,261.571 123.366,269.071 123,278.5C 124.372,274.138 126.872,270.638 130.5,268C 141.269,263.856 152.269,262.523 163.5,264C 167.656,268.302 169.323,273.469 168.5,279.5C 168.606,285.743 167.439,291.743 165,297.5C 163.5,300.333 161.333,302.5 158.5,304C 153.401,306.883 148.067,309.217 142.5,311C 145.629,315.759 147.796,320.926 149,326.5C 151.715,321.856 153.549,316.856 154.5,311.5C 157.758,310.583 161.091,310.249 164.5,310.5C 162.625,332.092 151.958,347.592 132.5,357C 127.563,358.085 122.563,358.752 117.5,359C 108.993,364.419 100.66,370.086 92.5,376C 88.9523,377.941 85.2857,379.607 81.5,381C 70.2845,382.133 64.1178,376.966 63,365.5C 62.0754,364.953 61.2421,364.287 60.5,363.5C 61.6676,360.161 62.8342,356.828 64,353.5C 64.7175,354.451 65.5509,354.617 66.5,354C 68.2567,351.154 70.2567,348.488 72.5,346C 67.6236,321.748 62.957,297.414 58.5,273C 59.7086,248.454 61.5419,223.954 64,199.5C 68.1134,185.936 75.2801,174.27 85.5,164.5C 78.1606,156.995 72.6606,148.329 69,138.5C 68.1666,117.332 73.9999,98.1649 86.5,81C 77.0181,77.8398 68.8514,72.6731 62,65.5C 60.0797,62.6612 58.4131,59.6612 57,56.5C 53.4696,42.8486 50.9696,29.0153 49.5,15C 49.3203,8.53681 51.6536,3.37015 56.5,-0.5 Z M 195.5,9.5 C 196.657,17.9901 196.824,26.6567 196,35.5C 195.87,39.9508 195.204,44.2841 194,48.5C 187.248,55.2564 179.914,61.2564 172,66.5C 171.931,56.0951 172.931,45.7618 175,35.5C 177.985,32.2912 181.151,29.4579 184.5,27C 183.049,23.8894 181.215,21.0561 179,18.5C 172.401,21.4312 167.401,26.0979 164,32.5C 162.041,44.5812 160.875,56.7479 160.5,69C 160.493,72.2579 160.993,75.4245 162,78.5C 173.333,95.1673 182,113.167 188,132.5C 189.468,138.86 188.135,144.526 184,149.5C 174.876,158.964 164.876,167.297 154,174.5C 152.504,192.699 143.004,200.199 125.5,197C 117.492,190.49 112.992,181.99 112,171.5C 97.7663,162.604 87.0997,150.604 80,135.5C 78.9662,127.578 79.9662,119.911 83,112.5C 87.9663,100.565 93.9663,89.2315 101,78.5C 101.291,68.1579 100.958,57.8246 100,47.5C 99.8985,39.1746 96.7319,32.3413 90.5,27C 81.4923,21.1609 72.159,15.8275 62.5,11C 67.0709,10.7409 71.4043,11.7409 75.5,14C 81.4269,16.9347 87.0935,20.268 92.5,24C 101.792,38.7496 110.959,53.5829 120,68.5C 122.5,71 125,73.5 127.5,76C 134.085,79.0422 139.252,77.5422 143,71.5C 147.669,57.4885 152.335,43.4885 157,29.5C 159.921,25.9084 163.421,23.0751 167.5,21C 176.591,16.2787 185.924,12.4454 195.5,9.5 Z M 61.5,23.5 C 70.9146,27.4223 79.4146,32.7557 87,39.5C 89.0264,49.3842 90.193,59.3842 90.5,69.5C 81.6035,67.4697 74.4368,62.803 69,55.5C 65.6724,45.0287 63.1724,34.362 61.5,23.5 Z M 206.5,209.5 C 231.287,226.447 255.953,243.613 280.5,261C 297.078,274.239 309.911,290.406 319,309.5C 327.666,330.821 327.666,352.155 319,373.5C 315,382.167 311,390.833 307,399.5C 302.987,409.367 303.987,418.701 310,427.5C 317.258,438.093 326.425,446.593 337.5,453C 368.725,469.058 401.725,479.725 436.5,485C 454.449,488.04 472.449,490.707 490.5,493C 494.692,494.093 497.692,496.593 499.5,500.5C 449.741,503.191 400.741,498.357 352.5,486C 326.093,478.632 302.426,466.299 281.5,449C 273.084,440.588 265.417,431.588 258.5,422C 246.02,421.036 234.354,423.703 223.5,430C 221.951,431.214 220.785,432.714 220,434.5C 218.483,440.08 218.149,445.747 219,451.5C 221.307,463.893 224.473,476.06 228.5,488C 226.703,492.592 224.37,496.925 221.5,501C 185.835,501.5 150.168,501.667 114.5,501.5C 114.5,498.167 114.5,494.833 114.5,491.5C 111.167,491.5 107.833,491.5 104.5,491.5C 104.5,494.833 104.5,498.167 104.5,501.5C 97.825,501.666 91.1583,501.5 84.5,501C 89.3331,491.497 96.6664,484.83 106.5,481C 132.644,479.218 158.811,479.051 185,480.5C 189.167,480.333 193.333,480.167 197.5,480C 198,479.5 198.5,479 199,478.5C 199.871,462.105 199.205,445.771 197,429.5C 192.37,411.644 188.37,393.644 185,375.5C 181.114,351.821 187.947,331.988 205.5,316C 217.996,307.211 230.33,307.545 242.5,317C 249.738,323.649 256.405,330.816 262.5,338.5C 266.054,337.231 269.054,335.231 271.5,332.5C 263.147,318.313 251.48,307.813 236.5,301C 226.766,297.628 217.1,297.794 207.5,301.5C 207.66,299.801 207.494,298.134 207,296.5C 204.833,292.833 202.667,289.167 200.5,285.5C 205.97,272.923 210.137,259.923 213,246.5C 213.711,239.785 213.378,233.118 212,226.5C 210.159,220.822 208.326,215.156 206.5,209.5 Z M 79.5,369.5 C 79.9985,366.171 80.9985,363.005 82.5,360C 81.2412,359.077 79.9079,358.243 78.5,357.5C 79.8029,355.032 81.3029,352.699 83,350.5C 84.2012,339.758 85.8679,329.091 88,318.5C 91.9564,312.21 96.9564,306.876 103,302.5C 102.107,292.681 100.94,282.848 99.5,273C 98.4695,264.688 101.47,262.688 108.5,267C 109.46,268.419 110.293,269.919 111,271.5C 111.494,279.549 110.994,287.549 109.5,295.5C 109.645,303.425 113.645,306.259 121.5,304C 122.931,303.535 124.097,302.701 125,301.5C 128.977,293.713 132.811,285.879 136.5,278C 143.27,275.011 150.27,274.177 157.5,275.5C 158.309,281.337 157.475,287.004 155,292.5C 153.786,294.049 152.286,295.215 150.5,296C 143.637,298.732 136.637,301.066 129.5,303C 127.813,304.913 127.313,307.08 128,309.5C 132.362,314.887 135.695,320.887 138,327.5C 138.879,332.287 138.545,336.953 137,341.5C 135.269,343.617 133.102,345.117 130.5,346C 125.231,347.106 119.897,347.773 114.5,348C 105.228,353.608 96.228,359.608 87.5,366C 84.9289,367.454 82.2622,368.62 79.5,369.5 Z M 133.5,419.5 C 140.84,422.835 148.506,425.168 156.5,426.5C 157.262,440.495 157.928,454.495 158.5,468.5C 149.167,468.5 139.833,468.5 130.5,468.5C 131.707,452.182 132.707,435.849 133.5,419.5 Z M 167.5,428.5 C 173.736,428.94 179.903,429.607 186,430.5C 187.675,443.447 188.509,456.447 188.5,469.5C 183.489,469.666 178.489,469.499 173.5,469C 172.234,468.691 171.067,468.191 170,467.5C 169.011,454.506 168.178,441.506 167.5,428.5 Z M 82.5,476.5 C 84.8568,476.337 87.1902,476.503 89.5,477C 81.8086,483.709 75.8086,491.709 71.5,501C 61.8391,501.5 52.1724,501.666 42.5,501.5C 42.5,498.167 42.5,494.833 42.5,491.5C 39.1667,491.5 35.8333,491.5 32.5,491.5C 32.5,494.833 32.5,498.167 32.5,501.5C 26.4908,501.666 20.4908,501.499 14.5,501C 18.789,495.042 23.4557,489.376 28.5,484C 32.9809,482.046 37.6475,480.713 42.5,480C 55.9595,478.499 69.2929,477.333 82.5,476.5 Z"/></g>
<g><path style="opacity:0.891" fill="#000000" d="M 102.5,105.5 C 106.994,105.163 109.828,107.163 111,111.5C 111.667,118.167 111.667,124.833 111,131.5C 109.159,137.006 105.659,138.506 100.5,136C 97.4581,130.634 96.1247,124.801 96.5,118.5C 91.6083,119.124 90.4416,117.458 93,113.5C 94.9608,109.287 98.1275,106.62 102.5,105.5 Z"/></g>
<g><path style="opacity:0.889" fill="#000000" d="M 159.5,105.5 C 168.044,105.042 173.044,109.042 174.5,117.5C 172.604,118.466 170.604,118.799 168.5,118.5C 169.111,124.434 168.278,130.1 166,135.5C 162.393,138.269 159.06,137.936 156,134.5C 152.667,125.833 152.667,117.167 156,108.5C 157.145,107.364 158.312,106.364 159.5,105.5 Z"/></g>
<g><path style="opacity:0.923" fill="#000000" d="M 121.5,166.5 C 129.174,166.334 136.841,166.5 144.5,167C 146.444,169.153 146.944,171.653 146,174.5C 143.217,178.951 140.05,183.117 136.5,187C 134.167,187.667 131.833,187.667 129.5,187C 126.212,182.923 123.045,178.756 120,174.5C 119.109,171.502 119.609,168.836 121.5,166.5 Z"/></g>
<g><path style="opacity:1" fill="#000000" d="M 100.5,326.5 C 103.833,326.5 107.167,326.5 110.5,326.5C 110.5,331.167 110.5,335.833 110.5,340.5C 107.167,340.5 103.833,340.5 100.5,340.5C 100.5,335.833 100.5,331.167 100.5,326.5 Z"/></g>
</svg>
