<?xml version="1.0" encoding="UTF-8"?>
<!DOCTYPE svg PUBLIC "-//W3C//DTD SVG 1.1//EN" "http://www.w3.org/Graphics/SVG/1.1/DTD/svg11.dtd">
<svg xmlns="http://www.w3.org/2000/svg" version="1.1" width="512px" height="512px" style="shape-rendering:geometricPrecision; text-rendering:geometricPrecision; image-rendering:optimizeQuality; fill-rule:evenodd; clip-rule:evenodd" xmlns:xlink="http://www.w3.org/1999/xlink">
<g><path style="opacity:0.968" fill="#000000" d="M -0.5,65.5 C 170.167,65.5 340.833,65.5 511.5,65.5C 511.5,98.5 511.5,131.5 511.5,164.5C 340.833,164.5 170.167,164.5 -0.5,164.5C -0.5,131.5 -0.5,98.5 -0.5,65.5 Z M 14.5,80.5 C 175.167,80.5 335.833,80.5 496.5,80.5C 496.5,103.167 496.5,125.833 496.5,148.5C 486.833,148.5 477.167,148.5 467.5,148.5C 467.5,142.167 467.5,135.833 467.5,129.5C 462.167,129.5 456.833,129.5 451.5,129.5C 451.5,135.833 451.5,142.167 451.5,148.5C 439.167,148.5 426.833,148.5 414.5,148.5C 414.5,142.167 414.5,135.833 414.5,129.5C 409.167,129.5 403.833,129.5 398.5,129.5C 398.5,135.833 398.5,142.167 398.5,148.5C 385.833,148.5 373.167,148.5 360.5,148.5C 360.5,142.167 360.5,135.833 360.5,129.5C 355.167,129.5 349.833,129.5 344.5,129.5C 344.5,135.833 344.5,142.167 344.5,148.5C 332.167,148.5 319.833,148.5 307.5,148.5C 307.5,142.167 307.5,135.833 307.5,129.5C 302.167,129.5 296.833,129.5 291.5,129.5C 291.5,135.833 291.5,142.167 291.5,148.5C 279.167,148.5 266.833,148.5 254.5,148.5C 254.5,142.167 254.5,135.833 254.5,129.5C 249.167,129.5 243.833,129.5 238.5,129.5C 238.5,135.833 238.5,142.167 238.5,148.5C 226.167,148.5 213.833,148.5 201.5,148.5C 201.5,142.167 201.5,135.833 201.5,129.5C 196.167,129.5 190.833,129.5 185.5,129.5C 185.5,135.833 185.5,142.167 185.5,148.5C 173.167,148.5 160.833,148.5 148.5,148.5C 148.5,142.167 148.5,135.833 148.5,129.5C 143.167,129.5 137.833,129.5 132.5,129.5C 132.5,135.833 132.5,142.167 132.5,148.5C 120.167,148.5 107.833,148.5 95.5,148.5C 95.5,142.167 95.5,135.833 95.5,129.5C 90.1667,129.5 84.8333,129.5 79.5,129.5C 79.5,135.833 79.5,142.167 79.5,148.5C 57.8333,148.5 36.1667,148.5 14.5,148.5C 14.5,125.833 14.5,103.167 14.5,80.5 Z M 41.5,108.5 C 45.5,108.5 49.5,108.5 53.5,108.5C 53.5,112.5 53.5,116.5 53.5,120.5C 49.5,120.5 45.5,120.5 41.5,120.5C 41.5,116.5 41.5,112.5 41.5,108.5 Z"/></g>
<g><path style="opacity:0.958" fill="#000000" d="M 25.5,92.5 C 40.1667,92.5 54.8333,92.5 69.5,92.5C 69.5,107.167 69.5,121.833 69.5,136.5C 54.8333,136.5 40.1667,136.5 25.5,136.5C 25.5,121.833 25.5,107.167 25.5,92.5 Z M 41.5,108.5 C 41.5,112.5 41.5,116.5 41.5,120.5C 45.5,120.5 49.5,120.5 53.5,120.5C 53.5,116.5 53.5,112.5 53.5,108.5C 49.5,108.5 45.5,108.5 41.5,108.5 Z"/></g>
<g><path style="opacity:0.879" fill="#000000" d="M 337.5,93.5 C 342.833,93.5 348.167,93.5 353.5,93.5C 353.5,98.8333 353.5,104.167 353.5,109.5C 348.167,109.5 342.833,109.5 337.5,109.5C 337.5,104.167 337.5,98.8333 337.5,93.5 Z"/></g>
<g><path style="opacity:0.879" fill="#000000" d="M 362.5,93.5 C 367.833,93.5 373.167,93.5 378.5,93.5C 378.5,98.8333 378.5,104.167 378.5,109.5C 373.167,109.5 367.833,109.5 362.5,109.5C 362.5,104.167 362.5,98.8333 362.5,93.5 Z"/></g>
<g><path style="opacity:0.924" fill="#000000" d="M 387.5,93.5 C 418.833,93.5 450.167,93.5 481.5,93.5C 481.5,98.8333 481.5,104.167 481.5,109.5C 450.167,109.5 418.833,109.5 387.5,109.5C 387.5,104.167 387.5,98.8333 387.5,93.5 Z"/></g>
<g><path style="opacity:0.923" fill="#000000" d="M 133.5,194.5 C 188.501,194.333 243.501,194.5 298.5,195C 306.015,202.348 313.348,209.848 320.5,217.5C 317.167,221.5 313.5,225.167 309.5,228.5C 303.348,222.848 297.348,217.015 291.5,211C 251.5,210.333 211.5,210.333 171.5,211C 180,219.5 188.5,228 197,236.5C 197.667,237.5 197.667,238.5 197,239.5C 193.953,242.883 190.62,245.883 187,248.5C 168.288,231.288 150.455,213.288 133.5,194.5 Z"/></g>
<g><path style="opacity:0.926" fill="#000000" d="M 17.5,215.5 C 53.4812,243.81 89.4812,272.143 125.5,300.5C 154.795,273.343 188.795,254.176 227.5,243C 221.985,237.652 216.652,232.152 211.5,226.5C 214.867,221.946 218.867,218.446 223.5,216C 231.112,224.286 239.278,231.786 248,238.5C 254.006,237.789 259.839,236.623 265.5,235C 262.449,232.286 259.782,229.286 257.5,226C 260.333,221.833 263.833,218.333 268,215.5C 274.79,221.289 281.29,227.455 287.5,234C 370.383,234.28 437.717,266.447 489.5,330.5C 424.106,409.25 340.773,439.417 239.5,421C 195.864,411.021 157.864,390.854 125.5,360.5C 89.5229,388.643 53.6895,416.976 18,445.5C 24.0962,424.114 29.4295,402.447 34,380.5C 40.0512,345.444 39.7179,310.444 33,275.5C 28.7443,255.238 23.5776,235.238 17.5,215.5 Z M 274.5,250.5 C 352.063,246.139 416.396,272.805 467.5,330.5C 426.938,377.285 375.605,403.785 313.5,410C 239.871,414.689 177.371,390.856 126,338.5C 99.6667,359.5 73.3333,380.5 47,401.5C 54.0543,365.463 55.7209,329.129 52,292.5C 50.2143,281.458 48.5476,270.458 47,259.5C 73.3561,280.69 99.8561,301.69 126.5,322.5C 166.927,280.349 216.26,256.349 274.5,250.5 Z M 386.5,311.5 C 390.847,312.001 392.68,314.334 392,318.5C 387.872,322.845 384.705,322.178 382.5,316.5C 383.16,314.185 384.493,312.519 386.5,311.5 Z M 229.5,315.5 C 234.812,320.146 239.812,325.146 244.5,330.5C 239.848,335.652 235.015,340.652 230,345.5C 224.985,340.652 220.152,335.652 215.5,330.5C 220.188,325.48 224.855,320.48 229.5,315.5 Z"/></g>
<g><path style="opacity:0.925" fill="#000000" d="M 260.5,261.5 C 265.085,264.414 269.085,268.08 272.5,272.5C 262.348,283.153 252.014,293.653 241.5,304C 246.348,309.015 251.348,313.848 256.5,318.5C 263.5,311.833 270.5,305.167 277.5,298.5C 281.5,301.833 285.167,305.5 288.5,309.5C 281.833,316.5 275.167,323.5 268.5,330.5C 274.819,337.319 281.319,343.986 288,350.5C 285.554,355.133 282.054,359.133 277.5,362.5C 270.5,355.833 263.5,349.167 256.5,342.5C 251.348,347.152 246.348,351.985 241.5,357C 252.014,367.347 262.348,377.847 272.5,388.5C 269.167,392.5 265.5,396.167 261.5,399.5C 250.847,389.348 240.347,379.014 230,368.5C 224.667,373.833 219.333,379.167 214,384.5C 210.167,380.667 206.333,376.833 202.5,373C 207.833,367.667 213.167,362.333 218.5,357C 213.833,352.333 209.167,347.667 204.5,343C 203.833,342.333 203.167,342.333 202.5,343C 195.957,349.878 189.124,356.378 182,362.5C 177.879,359.382 174.046,355.882 170.5,352C 177.681,344.986 184.681,337.819 191.5,330.5C 184.681,323.181 177.681,316.014 170.5,309C 174.046,305.118 177.879,301.618 182,298.5C 189.124,304.622 195.957,311.122 202.5,318C 203.167,318.667 203.833,318.667 204.5,318C 209.167,313.333 213.833,308.667 218.5,304C 213.167,298.667 207.833,293.333 202.5,288C 206.046,284.118 209.879,280.618 214,277.5C 219.623,282.121 224.956,287.121 230,292.5C 240.369,282.298 250.535,271.965 260.5,261.5 Z M 229.5,315.5 C 224.855,320.48 220.188,325.48 215.5,330.5C 220.152,335.652 224.985,340.652 230,345.5C 235.015,340.652 239.848,335.652 244.5,330.5C 239.812,325.146 234.812,320.146 229.5,315.5 Z"/></g>
<g><path style="opacity:0.858" fill="#000000" d="M 321.5,261.5 C 326.499,263.082 331.332,265.082 336,267.5C 334.984,272.062 333.484,276.562 331.5,281C 326.668,280.784 322.001,279.617 317.5,277.5C 317.167,276.833 316.833,276.167 316.5,275.5C 318.177,270.817 319.844,266.151 321.5,261.5 Z"/></g>
<g><path style="opacity:0.92" fill="#000000" d="M 346.5,266.5 C 351.752,268.459 356.752,270.959 361.5,274C 344.168,311.679 344.168,349.345 361.5,387C 356.992,389.754 352.326,392.254 347.5,394.5C 332.79,363.554 328.957,331.221 336,297.5C 339.01,286.969 342.51,276.635 346.5,266.5 Z"/></g>
<g><path style="opacity:0.87" fill="#000000" d="M 312.5,286.5 C 317.833,287.5 323.167,288.5 328.5,289.5C 328.012,294.274 327.012,298.94 325.5,303.5C 319.972,304.58 314.638,303.913 309.5,301.5C 311.141,296.627 312.141,291.627 312.5,286.5 Z"/></g>
<g><path style="opacity:0.925" fill="#000000" d="M 385.5,295.5 C 405.889,298.277 412.389,309.277 405,328.5C 396.66,338.169 386.827,340.003 375.5,334C 363.281,321.91 363.615,310.243 376.5,299C 379.459,297.396 382.459,296.229 385.5,295.5 Z M 386.5,311.5 C 384.493,312.519 383.16,314.185 382.5,316.5C 384.705,322.178 387.872,322.845 392,318.5C 392.68,314.334 390.847,312.001 386.5,311.5 Z"/></g>
<g><path style="opacity:0.902" fill="#000000" d="M 65.5,297.5 C 78.9172,301.188 92.2505,305.188 105.5,309.5C 103.987,314.554 102.32,319.554 100.5,324.5C 87.0217,320.633 73.6884,316.467 60.5,312C 62.3988,307.234 64.0655,302.4 65.5,297.5 Z"/></g>
<g><path style="opacity:0.92" fill="#000000" d="M 308.5,311.5 C 313.791,312.384 319.124,313.051 324.5,313.5C 321.676,340.886 325.676,367.219 336.5,392.5C 332.178,395.328 327.511,397.661 322.5,399.5C 309.928,371.504 305.261,342.171 308.5,311.5 Z"/></g>
<g><path style="opacity:0.849" fill="#000000" d="M 439.5,324.5 C 443.677,327.844 447.344,331.677 450.5,336C 447.018,339.812 443.185,343.312 439,346.5C 435.201,343.03 431.701,339.197 428.5,335C 432.062,331.268 435.729,327.768 439.5,324.5 Z"/></g>
<g><path style="opacity:0.905" fill="#000000" d="M 99.5,336.5 C 100.117,336.611 100.617,336.944 101,337.5C 102.501,342.172 104.001,346.839 105.5,351.5C 92.7837,355.794 79.9503,359.794 67,363.5C 66.228,363.355 65.5613,363.022 65,362.5C 62.7643,357.766 61.9309,352.933 62.5,348C 75.0377,344.429 87.371,340.596 99.5,336.5 Z"/></g>
<g><path style="opacity:0.852" fill="#000000" d="M 421.5,340.5 C 425.363,344.201 428.696,348.368 431.5,353C 427.626,356.54 423.459,359.706 419,362.5C 415.475,358.637 412.308,354.47 409.5,350C 413.751,347.055 417.751,343.888 421.5,340.5 Z"/></g>
<g><path style="opacity:0.893" fill="#000000" d="M 401.5,354.5 C 405.445,358.585 408.278,363.252 410,368.5C 400.9,374.302 391.4,379.469 381.5,384C 380.056,384.781 378.723,384.614 377.5,383.5C 374.876,378.998 373.543,374.331 373.5,369.5C 383.5,365.504 392.833,360.504 401.5,354.5 Z"/></g>
<g><path style="opacity:0.955" fill="#000000" d="M 155.5,396.5 C 159.631,400.13 163.631,403.963 167.5,408C 160.5,415 153.5,422 146.5,429C 165.5,429.667 184.5,429.667 203.5,429C 206.016,426.317 208.683,423.817 211.5,421.5C 216.054,424.867 219.554,428.867 222,433.5C 218.5,437 215,440.5 211.5,444C 177.167,444.667 142.833,444.667 108.5,444C 124.368,428.299 140.035,412.465 155.5,396.5 Z"/></g>
</svg>
