<?xml version="1.0" encoding="UTF-8"?>
<!DOCTYPE svg PUBLIC "-//W3C//DTD SVG 1.1//EN" "http://www.w3.org/Graphics/SVG/1.1/DTD/svg11.dtd">
<svg xmlns="http://www.w3.org/2000/svg" version="1.1" width="512px" height="512px" style="shape-rendering:geometricPrecision; text-rendering:geometricPrecision; image-rendering:optimizeQuality; fill-rule:evenodd; clip-rule:evenodd" xmlns:xlink="http://www.w3.org/1999/xlink">
<g><path style="opacity:0.92" fill="#000000" d="M 307.5,51.5 C 352.835,51.3333 398.168,51.5 443.5,52C 457.728,53.9113 467.561,61.4113 473,74.5C 474.633,102.451 474.966,130.451 474,158.5C 470.944,171.89 462.777,180.39 449.5,184C 434.873,185.227 420.206,185.894 405.5,186C 389.685,203.982 373.685,221.816 357.5,239.5C 353.001,243.67 348.834,243.336 345,238.5C 343.815,220.817 342.648,203.15 341.5,185.5C 288.76,193.426 267.094,171.093 276.5,118.5C 276.368,104.115 276.868,89.7813 278,75.5C 283.255,61.734 293.088,53.734 307.5,51.5 Z M 305.5,66.5 C 352.168,66.3333 398.835,66.5 445.5,67C 453,69.1667 457.833,74 460,81.5C 460.667,106.167 460.667,130.833 460,155.5C 457.928,162.573 453.428,167.406 446.5,170C 430.535,171.219 414.535,171.886 398.5,172C 384.629,186.869 371.129,202.036 358,217.5C 357.21,203.149 356.21,188.816 355,174.5C 354.167,173.667 353.333,172.833 352.5,172C 336.794,171.902 321.128,171.235 305.5,170C 299.159,168.325 294.659,164.492 292,158.5C 290.371,133.216 290.038,107.883 291,82.5C 292.91,74.427 297.744,69.0936 305.5,66.5 Z"/></g>
<g><path style="opacity:0.852" fill="#000000" d="M 328.5,106.5 C 334.97,106.64 337.97,109.973 337.5,116.5C 336.768,125.843 332.435,128.177 324.5,123.5C 321.053,116.423 322.387,110.756 328.5,106.5 Z"/></g>
<g><path style="opacity:0.873" fill="#000000" d="M 374.5,106.5 C 380.499,107.166 383.166,110.499 382.5,116.5C 383.315,122.021 380.982,125.354 375.5,126.5C 370.018,125.354 367.685,122.021 368.5,116.5C 367.68,111.347 369.68,108.013 374.5,106.5 Z"/></g>
<g><path style="opacity:0.852" fill="#000000" d="M 419.5,106.5 C 425.97,106.64 428.97,109.973 428.5,116.5C 427.768,125.843 423.435,128.177 415.5,123.5C 412.053,116.423 413.387,110.756 419.5,106.5 Z"/></g>
<g><path style="opacity:0.919" fill="#000000" d="M 281.5,197.5 C 298.595,198.099 308.762,206.765 312,223.5C 312.5,243.164 312.667,262.831 312.5,282.5C 342.105,287.367 354.939,304.701 351,334.5C 345.154,353.513 332.32,363.847 312.5,365.5C 312.943,386.879 312.443,408.212 311,429.5C 303.412,447.376 290.245,453.542 271.5,448C 264.667,445.167 259.833,440.333 257,433.5C 231.379,417.273 204.212,404.107 175.5,394C 159.429,388.42 143.263,383.254 127,378.5C 120.463,402.11 113.129,425.444 105,448.5C 101.036,454.473 95.536,457.973 88.5,459C 80.778,459.812 73.1113,459.478 65.5,458C 59.9122,455.414 56.0789,451.247 54,445.5C 53.8332,417.494 53.3332,389.494 52.5,361.5C 43.9421,357.069 38.7754,350.069 37,340.5C 36.3333,329.167 36.3333,317.833 37,306.5C 39.8333,294.333 47.3333,286.833 59.5,284C 122.276,274.074 181.942,254.741 238.5,226C 244.002,222.415 249.669,219.081 255.5,216C 261.031,205.286 269.697,199.119 281.5,197.5 Z M 278.5,212.5 C 287.198,211.264 293.365,214.597 297,222.5C 297.667,290.167 297.667,357.833 297,425.5C 292.04,435.561 284.54,438.061 274.5,433C 271.894,431.062 270.061,428.562 269,425.5C 268.333,357.833 268.333,290.167 269,222.5C 271.022,217.98 274.189,214.647 278.5,212.5 Z M 253.5,233.5 C 254.665,293.665 254.832,353.999 254,414.5C 211.595,390.918 166.762,373.418 119.5,362C 98.8045,357.328 78.1378,352.662 57.5,348C 53.6749,345.512 51.5082,342.012 51,337.5C 50.3333,328.5 50.3333,319.5 51,310.5C 52.0174,305.288 54.8508,301.455 59.5,299C 117.033,289.453 172.366,272.786 225.5,249C 235.056,244.059 244.39,238.892 253.5,233.5 Z M 312.5,296.5 C 327.839,299.339 336.506,308.506 338.5,324C 336.462,338.922 328.128,348.088 313.5,351.5C 312.5,333.179 312.167,314.845 312.5,296.5 Z M 67.5,365.5 C 82.2159,368.343 96.8826,371.51 111.5,375C 112.022,375.561 112.355,376.228 112.5,377C 106.333,397.5 100.167,418 94,438.5C 92.8333,441 91,442.833 88.5,444C 82.1667,444.667 75.8333,444.667 69.5,444C 68.8742,443.25 68.3742,442.416 68,441.5C 67.5,416.169 67.3334,390.836 67.5,365.5 Z"/></g>
<g><path style="opacity:0.883" fill="#000000" d="M 379.5,257.5 C 386.685,257.848 389.519,261.515 388,268.5C 382.923,272.624 377.423,276.124 371.5,279C 362.667,280.472 359.501,276.972 362,268.5C 367.74,264.575 373.573,260.908 379.5,257.5 Z"/></g>
<g><path style="opacity:0.86" fill="#000000" d="M 379.5,316.5 C 386.589,316.116 393.589,316.616 400.5,318C 404.875,323.121 404.209,327.455 398.5,331C 391.833,331.667 385.167,331.667 378.5,331C 373.374,328.447 372.207,324.614 375,319.5C 376.409,318.219 377.909,317.219 379.5,316.5 Z"/></g>
<g><path style="opacity:0.881" fill="#000000" d="M 364.5,362.5 C 366.857,362.337 369.19,362.503 371.5,363C 376.167,365.667 380.833,368.333 385.5,371C 390.461,377.425 389.127,381.925 381.5,384.5C 375.591,382.212 369.924,379.379 364.5,376C 359.266,371.46 359.266,366.96 364.5,362.5 Z"/></g>
</svg>
