<?xml version="1.0" encoding="UTF-8"?>
<!DOCTYPE svg PUBLIC "-//W3C//DTD SVG 1.1//EN" "http://www.w3.org/Graphics/SVG/1.1/DTD/svg11.dtd">
<svg xmlns="http://www.w3.org/2000/svg" version="1.1" width="512px" height="512px" style="shape-rendering:geometricPrecision; text-rendering:geometricPrecision; image-rendering:optimizeQuality; fill-rule:evenodd; clip-rule:evenodd" xmlns:xlink="http://www.w3.org/1999/xlink">
<g><path style="opacity:0.934" fill="#000000" d="M 140.5,-0.5 C 152.833,-0.5 165.167,-0.5 177.5,-0.5C 206.251,3.27391 235.251,5.94058 264.5,7.5C 283.427,4.92586 302.427,3.09252 321.5,2C 345.553,0.62512 369.22,2.95845 392.5,9C 399.833,13 407.167,17 414.5,21C 432.094,19.4279 448.427,23.0945 463.5,32C 469.016,36.8648 473.183,42.6982 476,49.5C 479.207,63.2015 482.54,76.8682 486,90.5C 500.42,113.927 508.92,139.26 511.5,166.5C 511.5,179.5 511.5,192.5 511.5,205.5C 508.318,239.362 494.318,267.862 469.5,291C 441.847,310.67 416.681,307.836 394,282.5C 388.105,267.474 393.272,258.641 409.5,256C 416.795,247.848 425.295,246.348 435,251.5C 444.957,236.298 449.624,219.631 449,201.5C 447.515,191.361 443.015,182.861 435.5,176C 430.254,172.125 424.754,168.625 419,165.5C 416.299,155.423 420.132,151.257 430.5,153C 455.833,165.156 467.666,185.323 466,213.5C 463.955,231.639 457.955,248.306 448,263.5C 441.317,268.867 433.984,269.867 426,266.5C 423.39,272.306 419.057,274.306 413,272.5C 411.775,272.862 410.609,273.362 409.5,274C 425.229,290.431 441.895,291.431 459.5,277C 480.571,256.35 492.071,231.183 494,201.5C 496.262,175.853 493.262,150.853 485,126.5C 481.78,118.392 477.78,110.726 473,103.5C 470.607,98.3217 468.607,92.9884 467,87.5C 465.097,75.9825 462.43,64.6491 459,53.5C 453.185,44.998 445.019,40.1646 434.5,39C 425.783,38.8392 417.116,38.1725 408.5,37C 405.007,36.0581 401.674,34.7248 398.5,33C 395.044,29.5489 391.044,26.8822 386.5,25C 377.522,22.2534 368.355,20.4201 359,19.5C 356.268,19.6148 353.768,20.4481 351.5,22C 341.425,28.7381 331.925,36.2381 323,44.5C 321.833,46.3333 320.667,48.1667 319.5,50C 322.697,56.2028 327.03,61.5362 332.5,66C 344.295,76.0621 356.628,85.3954 369.5,94C 373.474,96.6021 377.807,98.1021 382.5,98.5C 378.515,82.3181 377.682,65.9847 380,49.5C 380.989,44.6879 383.156,40.5213 386.5,37C 394.177,33.8363 398.511,36.3363 399.5,44.5C 394.432,60.0328 394.265,75.6994 399,91.5C 401.779,110.054 393.946,117.888 375.5,115C 366.942,112.054 358.942,108.054 351.5,103C 335.464,91.9673 320.964,79.134 308,64.5C 300.722,54.0806 301.055,44.0806 309,34.5C 314.239,28.5901 320.072,23.4234 326.5,19C 319.166,18.8712 311.832,19.2046 304.5,20C 291.881,21.9218 279.214,23.4218 266.5,24.5C 230.878,22.3871 195.378,19.3871 160,15.5C 128.125,16.2601 98.2918,24.4267 70.5,40C 50.4163,54.4313 35.9163,73.2646 27,96.5C 20.1039,115.376 16.6039,134.876 16.5,155C 18.381,184.309 19.7143,213.643 20.5,243C 20.2512,266.898 18.9178,290.732 16.5,314.5C 16.5649,319.691 16.8982,324.858 17.5,330C 16.1142,336.608 14.6142,343.108 13,349.5C 6.0191,344.851 1.5191,338.518 -0.5,330.5C -0.5,320.5 -0.5,310.5 -0.5,300.5C 2.43847,281.596 3.77181,262.43 3.5,243C 2.91416,215.308 1.58083,187.808 -0.5,160.5C -0.5,156.833 -0.5,153.167 -0.5,149.5C 4.55543,60.1103 51.5554,10.1103 140.5,-0.5 Z"/></g>
<g><path style="opacity:0.884" fill="#000000" d="M 431.5,71.5 C 442.86,70.71 446.193,75.5434 441.5,86C 433.813,89.6097 428.813,87.443 426.5,79.5C 427.193,76.0896 428.86,73.4229 431.5,71.5 Z"/></g>
<g><path style="opacity:0.932" fill="#000000" d="M 355.5,135.5 C 360.223,134.553 364.056,135.886 367,139.5C 370.718,156.878 380.218,170.044 395.5,179C 401.333,182.055 407.333,184.722 413.5,187C 416.674,192.28 416.008,196.947 411.5,201C 396.94,200.306 384.44,194.806 374,184.5C 377.128,214.232 380.961,243.898 385.5,273.5C 385.167,273.833 384.833,274.167 384.5,274.5C 378.429,269.25 372.262,264.25 366,259.5C 360.997,220.807 355.83,182.14 350.5,143.5C 350.71,139.805 352.377,137.138 355.5,135.5 Z"/></g>
<g><path style="opacity:0.928" fill="#000000" d="M 160.5,151.5 C 169.158,149.98 173.991,153.647 175,162.5C 179.955,188.606 179.455,214.606 173.5,240.5C 167.843,241.557 162.177,241.557 156.5,240.5C 163.002,213.465 163.002,186.465 156.5,159.5C 156.782,156.269 158.115,153.602 160.5,151.5 Z"/></g>
<g><path style="opacity:0.926" fill="#000000" d="M 299.5,167.5 C 309.33,165.829 313.163,169.829 311,179.5C 303.005,189.482 296.005,200.149 290,211.5C 286.262,221.498 284.429,231.831 284.5,242.5C 278.848,241.968 273.181,241.635 267.5,241.5C 267.366,220.403 273.533,201.403 286,184.5C 290.394,178.622 294.894,172.955 299.5,167.5 Z"/></g>
<g><path style="opacity:0.922" fill="#000000" d="M 68.5,168.5 C 73.8744,167.937 78.0411,169.937 81,174.5C 91.4252,188.348 102.092,202.014 113,215.5C 114.445,224.726 114.945,234.06 114.5,243.5C 108.861,244.66 103.195,245.66 97.5,246.5C 97.7989,244.396 97.4656,242.396 96.5,240.5C 95.5,241 94.5,241.5 93.5,242C 78.6667,252.833 63.8333,263.667 49,274.5C 51.7737,258.472 59.607,245.305 72.5,235C 79.8929,229.635 87.8929,225.302 96.5,222C 85.6667,208.5 74.8333,195 64,181.5C 62.243,175.825 63.743,171.492 68.5,168.5 Z"/></g>
<g><path style="opacity:0.931" fill="#000000" d="M 223.5,171.5 C 226.187,171.336 228.854,171.503 231.5,172C 233.333,172.5 234.5,173.667 235,175.5C 233.871,190.497 232.704,205.497 231.5,220.5C 232.201,227.812 232.868,235.146 233.5,242.5C 233.392,243.442 233.059,244.275 232.5,245C 227.177,245.499 221.844,245.666 216.5,245.5C 214.621,222.736 215.455,200.069 219,177.5C 219.599,174.746 221.099,172.746 223.5,171.5 Z"/></g>
<g><path style="opacity:0.907" fill="#000000" d="M 316.5,214.5 C 317.822,214.33 318.989,214.663 320,215.5C 322.167,226.333 324.333,237.167 326.5,248C 326.167,248.833 325.833,249.667 325.5,250.5C 320.121,247.818 314.455,246.151 308.5,245.5C 306.815,235.909 304.815,226.409 302.5,217C 307.412,216.778 312.079,215.945 316.5,214.5 Z"/></g>
<g><path style="opacity:0.937" fill="#000000" d="M 296.5,511.5 C 291.5,511.5 286.5,511.5 281.5,511.5C 274.607,509.11 269.774,504.443 267,497.5C 260.734,468.338 255.567,439.005 251.5,409.5C 256.977,411.258 262.477,411.925 268,411.5C 273,438.167 278,464.833 283,491.5C 286.257,494.428 290.091,495.262 294.5,494C 300.239,493.152 305.906,491.986 311.5,490.5C 310.91,489.201 309.91,488.368 308.5,488C 303.091,488.055 299.591,485.555 298,480.5C 292.751,440.174 287.584,399.841 282.5,359.5C 284.805,351.557 289.805,349.39 297.5,353C 302.14,369.64 312.807,380.307 329.5,385C 334.206,396.256 330.539,400.923 318.5,399C 313.802,397.234 309.302,395.067 305,392.5C 306.097,412.044 308.43,431.377 312,450.5C 312.7,446.934 314.533,444.1 317.5,442C 322.945,440.112 327.945,437.445 332.5,434C 336.774,431.947 340.941,432.114 345,434.5C 349.551,424.631 352.384,414.297 353.5,403.5C 353.703,399.589 352.87,395.922 351,392.5C 346.635,386.797 341.135,382.63 334.5,380C 330.213,374.643 330.547,369.643 335.5,365C 340.611,363.889 345.278,364.889 349.5,368C 363.17,375.675 370.17,387.342 370.5,403C 369.677,418.457 365.511,432.957 358,446.5C 353.472,452.183 347.805,453.849 341,451.5C 339.048,453.894 336.548,455.394 333.5,456C 340.73,461.172 348.396,461.839 356.5,458C 374.039,443.763 383.872,425.263 386,402.5C 387.798,385.468 386.131,368.801 381,352.5C 376.923,343.347 372.59,334.347 368,325.5C 365.823,317.949 364.156,310.282 363,302.5C 361.088,294.923 356.254,290.423 348.5,289C 340.662,288.941 332.828,288.108 325,286.5C 320.02,284.851 315.52,282.351 311.5,279C 304.07,276.114 296.403,274.781 288.5,275C 278.145,280.857 268.812,288.024 260.5,296.5C 264.312,302.146 268.979,306.979 274.5,311C 284.192,318.513 294.525,325.013 305.5,330.5C 305.833,330.333 306.167,330.167 306.5,330C 304.264,322.678 303.431,315.178 304,307.5C 307.274,302.262 311.774,301.096 317.5,304C 318.701,304.903 319.535,306.069 320,307.5C 320.897,315.713 322.064,323.88 323.5,332C 323.499,342.334 318.333,347.834 308,348.5C 300.769,347.2 293.935,344.7 287.5,341C 273.18,332.021 260.013,321.521 248,309.5C 243.634,303.717 242.301,297.383 244,290.5C 247.066,284.1 251.566,278.933 257.5,275C 250.117,274.839 242.784,275.505 235.5,277C 205.491,277.381 175.658,275.548 146,271.5C 123.929,272.226 103.096,277.726 83.5,288C 62.8702,303.348 50.3702,323.848 46,349.5C 45.152,356.308 44.652,363.141 44.5,370C 45.6995,389.825 46.6995,409.658 47.5,429.5C 46.3769,450.506 45.5436,471.506 45,492.5C 45.5,493.667 46.3333,494.5 47.5,495C 57.5,495.667 67.5,495.667 77.5,495C 74.6399,492.446 71.3065,490.779 67.5,490C 66.2986,489.097 65.4652,487.931 65,486.5C 63.1694,471.46 63.1694,456.46 65,441.5C 67.3847,436.117 70.8847,431.617 75.5,428C 83.9906,423.922 92.3239,419.588 100.5,415C 93.4957,406.655 87.4957,397.655 82.5,388C 84.755,379.377 89.9217,377.21 98,381.5C 106.058,392.56 113.725,403.893 121,415.5C 122.12,434.911 121.453,454.245 119,473.5C 118.333,480.167 118.333,486.833 119,493.5C 119.5,494 120,494.5 120.5,495C 128.833,495.667 137.167,495.667 145.5,495C 142.22,492.138 138.72,489.638 135,487.5C 133.907,483.784 133.407,479.95 133.5,476C 136.146,455.434 139.313,434.934 143,414.5C 144.121,401.363 143.288,388.363 140.5,375.5C 141.737,367.937 146.071,365.437 153.5,368C 155.894,369.952 157.394,372.452 158,375.5C 159.543,388.826 161.043,401.993 162.5,415C 170.484,416.728 178.484,416.894 186.5,415.5C 187.02,404.004 188.52,392.67 191,381.5C 196.391,375.931 201.391,376.264 206,382.5C 205.453,393.493 204.619,404.493 203.5,415.5C 204.724,430.57 206.557,445.57 209,460.5C 209.078,471.169 209.078,481.836 209,492.5C 209.374,493.416 209.874,494.25 210.5,495C 219.167,495.667 227.833,495.667 236.5,495C 234.403,491.775 231.403,489.775 227.5,489C 226.299,488.097 225.465,486.931 225,485.5C 224.802,466.646 224.302,447.813 223.5,429C 223.819,416.709 226.986,405.209 233,394.5C 237.246,389.009 241.246,383.342 245,377.5C 255.613,372.795 260.28,376.128 259,387.5C 253.499,395.164 248.499,403.164 244,411.5C 242.183,417.366 241.016,423.366 240.5,429.5C 241.121,445.16 241.788,460.826 242.5,476.5C 253.579,485.167 257.079,496.167 253,509.5C 252.005,510.066 251.172,510.733 250.5,511.5C 234.833,511.5 219.167,511.5 203.5,511.5C 197.201,507.589 193.368,501.923 192,494.5C 191.445,485.991 191.611,477.491 192.5,469C 191.212,457.154 189.879,445.32 188.5,433.5C 178.06,433.969 167.727,433.302 157.5,431.5C 155.276,445.174 152.943,458.841 150.5,472.5C 150.667,473.833 150.833,475.167 151,476.5C 161.352,484.228 165.352,494.561 163,507.5C 162.31,509.35 161.144,510.684 159.5,511.5C 144.167,511.5 128.833,511.5 113.5,511.5C 107.706,508.531 103.873,503.864 102,497.5C 102.748,475.844 103.415,454.177 104,432.5C 97.9116,435.794 91.7449,438.961 85.5,442C 83.6217,443.543 82.1217,445.376 81,447.5C 80.3333,456.5 80.3333,465.5 81,474.5C 85.276,478.448 89.276,482.781 93,487.5C 95.8107,493.553 96.8107,499.886 96,506.5C 95.0027,508.323 93.8361,509.99 92.5,511.5C 75.1667,511.5 57.8333,511.5 40.5,511.5C 29.8409,504.916 25.5075,495.249 27.5,482.5C 28.8318,464.854 29.8318,447.187 30.5,429.5C 29.0005,405.847 28.1672,382.18 28,358.5C 33.9787,296.854 67.812,262.688 129.5,256C 134.833,255.833 140.167,255.667 145.5,255.5C 170.001,257.136 194.501,258.803 219,260.5C 236.988,259.02 254.988,257.687 273,256.5C 288.164,256.499 302.998,258.666 317.5,263C 321.759,264.934 325.759,267.268 329.5,270C 336.437,271.173 343.437,271.84 350.5,272C 361.646,273.642 370.146,279.142 376,288.5C 379.504,299.352 382.504,310.352 385,321.5C 405.492,357.107 409.159,394.44 396,433.5C 390.607,448.795 381.44,461.295 368.5,471C 346.678,482.75 328.178,478.917 313,459.5C 311.39,466.269 313.556,471.103 319.5,474C 328.209,481.127 332.042,490.294 331,501.5C 329.891,503.815 328.057,505.315 325.5,506C 315.618,507.422 305.951,509.255 296.5,511.5 Z"/></g>
<g><path style="opacity:0.834" fill="#000000" d="M 396.5,304.5 C 409.918,312.205 416.085,323.871 415,339.5C 414.333,340.833 413.333,341.833 412,342.5C 408.209,333.586 403.876,324.919 399,316.5C 397.228,312.687 396.395,308.687 396.5,304.5 Z"/></g>
<g><path style="opacity:0.884" fill="#000000" d="M 343.5,311.5 C 354.86,310.71 358.193,315.543 353.5,326C 345.813,329.61 340.813,327.443 338.5,319.5C 339.193,316.09 340.86,313.423 343.5,311.5 Z"/></g>
</svg>
