<?xml version="1.0" encoding="UTF-8"?>
<!DOCTYPE svg PUBLIC "-//W3C//DTD SVG 1.1//EN" "http://www.w3.org/Graphics/SVG/1.1/DTD/svg11.dtd">
<svg xmlns="http://www.w3.org/2000/svg" version="1.1" width="512px" height="512px" style="shape-rendering:geometricPrecision; text-rendering:geometricPrecision; image-rendering:optimizeQuality; fill-rule:evenodd; clip-rule:evenodd" xmlns:xlink="http://www.w3.org/1999/xlink">
<g><path style="opacity:0.934" fill="#000000" d="M 130.5,55.5 C 174.117,52.048 205.617,69.7147 225,108.5C 238.702,147.178 231.202,181.011 202.5,210C 174.072,232.515 142.738,237.515 108.5,225C 79.0455,210.949 61.5455,187.782 56,155.5C 52.4234,110.801 70.9234,79.3006 111.5,61C 117.828,58.6729 124.162,56.8396 130.5,55.5 Z M 132.5,72.5 C 133.5,72.5 134.5,72.5 135.5,72.5C 136.471,90.4323 142.471,106.432 153.5,120.5C 150.5,124.167 147.167,127.5 143.5,130.5C 128.833,116.5 114.5,102.167 100.5,87.5C 109.939,79.8021 120.605,74.8021 132.5,72.5 Z M 152.5,72.5 C 165.35,74.5949 177.016,79.4283 187.5,87C 180.652,94.0147 173.652,100.848 166.5,107.5C 157.936,97.491 153.269,85.8244 152.5,72.5 Z M 199.5,99.5 C 206.438,107.933 211.105,117.6 213.5,128.5C 201.159,129.89 189.826,127.057 179.5,120C 186.369,113.298 193.036,106.465 199.5,99.5 Z M 86.5,100.5 C 101.761,114.093 116.428,128.426 130.5,143.5C 127.5,147.167 124.167,150.5 120.5,153.5C 106.432,142.471 90.4323,136.471 72.5,135.5C 74.133,122.575 78.7997,110.908 86.5,100.5 Z M 166.5,132.5 C 180.892,142.434 196.892,147.101 214.5,146.5C 214.216,161.695 209.216,175.028 199.5,186.5C 185.181,172.681 171.014,158.681 157,144.5C 156.333,143.833 156.333,143.167 157,142.5C 160.371,139.297 163.538,135.964 166.5,132.5 Z M 72.5,152.5 C 85.8244,153.269 97.491,157.936 107.5,166.5C 101.167,173.5 94.5,180.167 87.5,186.5C 79.418,176.609 74.418,165.276 72.5,152.5 Z M 142.5,156.5 C 157.761,170.093 172.428,184.426 186.5,199.5C 175.024,209.217 161.691,214.217 146.5,214.5C 147.255,197.178 142.588,181.511 132.5,167.5C 135.855,163.813 139.189,160.147 142.5,156.5 Z M 119.5,179.5 C 126.974,189.597 129.974,200.931 128.5,213.5C 117.823,211.289 108.49,206.623 100.5,199.5C 106.855,192.813 113.188,186.146 119.5,179.5 Z"/></g>
<g><path style="opacity:0.999" fill="#000000" d="M 267.5,151.5 C 294.169,151.333 320.835,151.5 347.5,152C 349.333,152.5 350.5,153.667 351,155.5C 351.667,254.167 351.667,352.833 351,451.5C 350.5,453.333 349.333,454.5 347.5,455C 320.833,455.667 294.167,455.667 267.5,455C 265.667,454.5 264.5,453.333 264,451.5C 263.333,352.833 263.333,254.167 264,155.5C 264.69,153.65 265.856,152.316 267.5,151.5 Z M 279.5,167.5 C 298.167,167.5 316.833,167.5 335.5,167.5C 335.5,258.167 335.5,348.833 335.5,439.5C 316.833,439.5 298.167,439.5 279.5,439.5C 279.5,348.833 279.5,258.167 279.5,167.5 Z"/></g>
<g><path style="opacity:0.998" fill="#000000" d="M 163.5,247.5 C 190.169,247.333 216.835,247.5 243.5,248C 245.333,248.5 246.5,249.667 247,251.5C 247.667,318.167 247.667,384.833 247,451.5C 246.5,453.333 245.333,454.5 243.5,455C 216.833,455.667 190.167,455.667 163.5,455C 161.667,454.5 160.5,453.333 160,451.5C 159.333,384.833 159.333,318.167 160,251.5C 160.69,249.65 161.856,248.316 163.5,247.5 Z M 175.5,263.5 C 194.167,263.5 212.833,263.5 231.5,263.5C 231.5,322.167 231.5,380.833 231.5,439.5C 212.833,439.5 194.167,439.5 175.5,439.5C 175.5,380.833 175.5,322.167 175.5,263.5 Z"/></g>
<g><path style="opacity:0.994" fill="#000000" d="M 371.5,247.5 C 398.922,247.017 426.255,247.517 453.5,249C 454.126,249.75 454.626,250.584 455,251.5C 455.667,272.833 455.667,294.167 455,315.5C 454.5,317.333 453.333,318.5 451.5,319C 448.833,319.667 446.167,319.667 443.5,319C 441.667,318.5 440.5,317.333 440,315.5C 439.5,298.17 439.333,280.837 439.5,263.5C 420.833,263.5 402.167,263.5 383.5,263.5C 383.5,322.167 383.5,380.833 383.5,439.5C 402.167,439.5 420.833,439.5 439.5,439.5C 439.333,422.163 439.5,404.83 440,387.5C 440.5,385.667 441.667,384.5 443.5,384C 446.167,383.333 448.833,383.333 451.5,384C 453.333,384.5 454.5,385.667 455,387.5C 455.667,408.833 455.667,430.167 455,451.5C 454.626,452.416 454.126,453.25 453.5,454C 426.253,455.649 398.92,455.982 371.5,455C 369.667,454.5 368.5,453.333 368,451.5C 367.333,384.833 367.333,318.167 368,251.5C 368.69,249.65 369.856,248.316 371.5,247.5 Z"/></g>
<g><path style="opacity:0.95" fill="#000000" d="M 443.5,335.5 C 446.187,335.336 448.854,335.503 451.5,336C 453.333,336.5 454.5,337.667 455,339.5C 455.667,347.5 455.667,355.5 455,363.5C 454.5,365.333 453.333,366.5 451.5,367C 448.833,367.667 446.167,367.667 443.5,367C 441.667,366.5 440.5,365.333 440,363.5C 439.333,355.5 439.333,347.5 440,339.5C 440.69,337.65 441.856,336.316 443.5,335.5 Z"/></g>
<g><path style="opacity:0.997" fill="#000000" d="M 59.5,343.5 C 86.1687,343.333 112.835,343.5 139.5,344C 140.416,344.374 141.25,344.874 142,345.5C 143.154,363.412 143.654,381.412 143.5,399.5C 143.333,416.833 143.167,434.167 143,451.5C 142.626,452.416 142.126,453.25 141.5,454C 127.59,455.15 113.59,455.65 99.5,455.5C 86.1667,455.333 72.8333,455.167 59.5,455C 58.5838,454.626 57.7504,454.126 57,453.5C 55.347,418.252 55.0136,382.918 56,347.5C 56.6897,345.65 57.8564,344.316 59.5,343.5 Z M 71.5,359.5 C 90.1667,359.5 108.833,359.5 127.5,359.5C 127.5,386.167 127.5,412.833 127.5,439.5C 108.833,439.5 90.1667,439.5 71.5,439.5C 71.5,412.833 71.5,386.167 71.5,359.5 Z"/></g>
</svg>
