<?xml version="1.0" encoding="UTF-8"?>
<!DOCTYPE svg PUBLIC "-//W3C//DTD SVG 1.1//EN" "http://www.w3.org/Graphics/SVG/1.1/DTD/svg11.dtd">
<svg xmlns="http://www.w3.org/2000/svg" version="1.1" width="512px" height="512px" style="shape-rendering:geometricPrecision; text-rendering:geometricPrecision; image-rendering:optimizeQuality; fill-rule:evenodd; clip-rule:evenodd" xmlns:xlink="http://www.w3.org/1999/xlink">
<g><path style="opacity:0.938" fill="#000000" d="M 251.5,23.5 C 254.187,23.3359 256.854,23.5026 259.5,24C 261.333,24.5 262.5,25.6667 263,27.5C 263.5,36.8274 263.666,46.1607 263.5,55.5C 345.888,61.7563 404.721,102.09 440,176.5C 449.446,199.227 454.612,222.894 455.5,247.5C 464.839,247.334 474.173,247.5 483.5,248C 486.516,249.529 487.849,252.029 487.5,255.5C 487.849,258.971 486.516,261.471 483.5,263C 474.173,263.5 464.839,263.666 455.5,263.5C 453.683,310.604 437.35,351.771 406.5,387C 397.519,389.358 393.352,385.858 394,376.5C 421.271,343.876 436.104,306.21 438.5,263.5C 429.494,263.666 420.494,263.5 411.5,263C 408.484,261.471 407.151,258.971 407.5,255.5C 407.151,252.029 408.484,249.529 411.5,248C 420.494,247.5 429.494,247.334 438.5,247.5C 432.98,177.593 399.646,125.759 338.5,92C 314.912,80.0821 289.912,73.5821 263.5,72.5C 263.666,81.5062 263.5,90.5062 263,99.5C 261.471,102.516 258.971,103.849 255.5,103.5C 252.029,103.849 249.529,102.516 248,99.5C 247.5,90.5062 247.334,81.5062 247.5,72.5C 189.29,76.0992 142.624,100.933 107.5,147C 97.4642,150.632 92.9642,147.132 94,136.5C 132.491,85.92 183.658,58.92 247.5,55.5C 247.334,46.1607 247.5,36.8274 248,27.5C 248.69,25.6498 249.856,24.3164 251.5,23.5 Z"/></g>
<g><path style="opacity:0.88" fill="#000000" d="M 80.5,159.5 C 87.9138,157.434 92.2471,160.1 93.5,167.5C 91.9906,174.595 87.6572,177.095 80.5,175C 75.208,169.835 75.208,164.668 80.5,159.5 Z"/></g>
<g><path style="opacity:0.952" fill="#000000" d="M 245.5,167.5 C 268.831,164.419 286.665,172.753 299,192.5C 319.984,182.445 337.65,186.445 352,204.5C 360.557,221.505 359.057,237.505 347.5,252.5C 375.081,266.328 388.248,288.661 387,319.5C 386.5,321.333 385.333,322.5 383.5,323C 370.171,323.5 356.837,323.667 343.5,323.5C 343.666,328.844 343.499,334.177 343,339.5C 342.5,341.333 341.333,342.5 339.5,343C 283.5,343.667 227.5,343.667 171.5,343C 169.667,342.5 168.5,341.333 168,339.5C 167.501,334.177 167.334,328.844 167.5,323.5C 154.163,323.667 140.829,323.5 127.5,323C 125.667,322.5 124.5,321.333 124,319.5C 122.75,288.666 135.917,266.333 163.5,252.5C 153.185,239.964 150.685,225.964 156,210.5C 165.274,192.279 180.107,184.779 200.5,188C 204.491,189.108 208.325,190.608 212,192.5C 219.9,179.649 231.066,171.315 245.5,167.5 Z M 248.5,184.5 C 274.976,183.476 287.476,196.142 286,222.5C 281.45,237.949 271.117,246.282 255,247.5C 232.733,243.974 222.733,230.974 225,208.5C 228.349,195.985 236.182,187.985 248.5,184.5 Z M 185.5,204.5 C 193.699,203.1 200.865,205.1 207,210.5C 207.163,219.343 208.163,228.01 210,236.5C 202.271,246.758 192.438,249.258 180.5,244C 170.242,236.271 167.742,226.438 173,214.5C 176.191,209.837 180.358,206.503 185.5,204.5 Z M 313.5,204.5 C 329.771,202.788 339.104,209.955 341.5,226C 337.803,243.015 327.469,249.348 310.5,245C 306.592,242.968 303.425,240.134 301,236.5C 302.837,228.01 303.837,219.343 304,210.5C 306.843,207.837 310.009,205.837 313.5,204.5 Z M 220.5,250.5 C 221.995,250.415 222.995,251.081 223.5,252.5C 222.167,253.833 220.833,253.833 219.5,252.5C 219.863,251.817 220.196,251.15 220.5,250.5 Z M 288.5,250.5 C 289.995,250.415 290.995,251.081 291.5,252.5C 290.167,253.833 288.833,253.833 287.5,252.5C 287.863,251.817 288.196,251.15 288.5,250.5 Z M 191.5,263.5 C 194.473,264.084 197.473,264.751 200.5,265.5C 187.14,276.703 177.473,290.536 171.5,307C 161.151,307.832 150.817,307.666 140.5,306.5C 147.559,280.166 164.559,265.832 191.5,263.5 Z M 252.5,263.5 C 293.591,265.929 318.258,287.262 326.5,327.5C 279.167,327.5 231.833,327.5 184.5,327.5C 188.546,299.577 203.546,280.077 229.5,269C 237.077,266.19 244.743,264.357 252.5,263.5 Z M 318.5,263.5 C 345.95,265.563 363.283,279.896 370.5,306.5C 360.183,307.666 349.849,307.832 339.5,307C 333.527,290.536 323.86,276.703 310.5,265.5C 313.306,264.832 315.972,264.166 318.5,263.5 Z"/></g>
<g><path style="opacity:0.941" fill="#000000" d="M 70.5,181.5 C 78.0181,179.423 82.3514,182.09 83.5,189.5C 77.2652,208.341 73.5985,227.674 72.5,247.5C 81.5062,247.334 90.5062,247.5 99.5,248C 102.516,249.529 103.849,252.029 103.5,255.5C 103.849,258.971 102.516,261.471 99.5,263C 90.5062,263.5 81.5062,263.666 72.5,263.5C 78.0203,333.407 111.354,385.241 172.5,419C 196.088,430.918 221.088,437.418 247.5,438.5C 247.334,429.494 247.5,420.494 248,411.5C 249.529,408.484 252.029,407.151 255.5,407.5C 258.971,407.151 261.471,408.484 263,411.5C 263.5,420.494 263.666,429.494 263.5,438.5C 296.892,436.98 327.559,427.146 355.5,409C 365.164,406.999 369.33,410.833 368,420.5C 336.88,442.818 302.047,454.485 263.5,455.5C 263.666,464.839 263.5,474.173 263,483.5C 261.471,486.516 258.971,487.849 255.5,487.5C 252.029,487.849 249.529,486.516 248,483.5C 247.5,474.173 247.334,464.839 247.5,455.5C 177.623,450.827 123.456,419.493 85,361.5C 66.7902,331.369 56.9569,298.703 55.5,263.5C 46.1607,263.666 36.8274,263.5 27.5,263C 24.484,261.471 23.1506,258.971 23.5,255.5C 23.1506,252.029 24.484,249.529 27.5,248C 36.8274,247.5 46.1607,247.334 55.5,247.5C 56.101,226.561 59.9343,206.228 67,186.5C 67.9973,184.677 69.1639,183.01 70.5,181.5 Z"/></g>
<g><path style="opacity:0.869" fill="#000000" d="M 381.5,388.5 C 391.156,387.657 394.989,391.99 393,401.5C 388,406.833 383,406.833 378,401.5C 376.539,396.326 377.706,391.993 381.5,388.5 Z"/></g>
</svg>
