<?xml version="1.0" encoding="UTF-8"?>
<!DOCTYPE svg PUBLIC "-//W3C//DTD SVG 1.1//EN" "http://www.w3.org/Graphics/SVG/1.1/DTD/svg11.dtd">
<svg xmlns="http://www.w3.org/2000/svg" version="1.1" width="512px" height="512px" style="shape-rendering:geometricPrecision; text-rendering:geometricPrecision; image-rendering:optimizeQuality; fill-rule:evenodd; clip-rule:evenodd" xmlns:xlink="http://www.w3.org/1999/xlink">
<g><path style="opacity:0.962" fill="#000000" d="M 232.5,-0.5 C 247.833,-0.5 263.167,-0.5 278.5,-0.5C 378.272,12.4494 449.438,64.4494 492,155.5C 502.135,180.377 508.635,206.043 511.5,232.5C 511.5,247.833 511.5,263.167 511.5,278.5C 498.549,378.273 446.549,449.439 355.5,492C 330.623,502.135 304.957,508.635 278.5,511.5C 263.167,511.5 247.833,511.5 232.5,511.5C 132.727,498.549 61.5605,446.549 19,355.5C 8.86392,330.621 2.36392,304.954 -0.5,278.5C -0.5,268.833 -0.5,259.167 -0.5,249.5C 4.84176,240.546 12.5084,238.046 22.5,242C 27.4525,245.066 29.9525,249.566 30,255.5C 32.0734,332.154 63.5734,393.321 124.5,439C 189.508,482.81 259.174,492.144 333.5,467C 403.122,439.378 449.288,389.878 472,318.5C 494.231,228.896 472.397,152.062 406.5,88C 341.675,33.1311 268.341,17.4644 186.5,41C 166.439,47.6972 147.772,57.0306 130.5,69C 146.357,72.2185 150.523,81.0518 143,95.5C 141.421,97.0412 139.587,98.2078 137.5,99C 115.5,106.333 93.5,113.667 71.5,121C 59.9897,122.424 53.6564,117.424 52.5,106C 58.8519,82.9425 66.0186,60.1092 74,37.5C 79.1343,27.2568 86.9677,24.4235 97.5,29C 103.887,34.4941 106.054,41.3274 104,49.5C 142.299,21.2707 185.132,4.60402 232.5,-0.5 Z"/></g>
<g><path style="opacity:0.964" fill="#000000" d="M 238.5,90.5 C 297.058,86.7123 345.558,106.712 384,150.5C 423.453,203.446 431.119,260.779 407,322.5C 379.917,379.22 335.083,411.72 272.5,420C 213.922,424.279 165.422,404.446 127,360.5C 87.4852,307.556 79.8186,250.223 104,188.5C 131.241,131.767 176.075,99.1008 238.5,90.5 Z M 239.5,121.5 C 240.328,127.987 240.828,134.654 241,141.5C 245.348,149.915 252.181,152.748 261.5,150C 265.667,148.5 268.5,145.667 270,141.5C 270.333,134.833 270.667,128.167 271,121.5C 328.717,131.216 366.717,163.883 385,219.5C 387.033,226.363 388.199,233.363 388.5,240.5C 381.385,240.075 374.385,240.575 367.5,242C 362.408,245.017 360.074,249.517 360.5,255.5C 360.074,261.483 362.408,265.983 367.5,269C 374.385,270.425 381.385,270.925 388.5,270.5C 381.088,323.414 352.754,360.247 303.5,381C 292.894,384.859 282.06,387.693 271,389.5C 270.667,382.833 270.333,376.167 270,369.5C 265.652,361.085 258.819,358.252 249.5,361C 245.333,362.5 242.5,365.333 241,369.5C 240.667,376.167 240.333,382.833 240,389.5C 182.283,379.784 144.283,347.117 126,291.5C 123.967,284.637 122.801,277.637 122.5,270.5C 129.615,270.925 136.615,270.425 143.5,269C 148.592,265.983 150.926,261.483 150.5,255.5C 150.926,249.517 148.592,245.017 143.5,242C 136.615,240.575 129.615,240.075 122.5,240.5C 129.425,188.738 156.759,152.238 204.5,131C 216.002,126.711 227.669,123.544 239.5,121.5 Z"/></g>
<g><path style="opacity:0.942" fill="#000000" d="M 187.5,176.5 C 192.947,175.826 197.947,176.992 202.5,180C 220.014,197.681 237.681,215.181 255.5,232.5C 273.319,215.181 290.986,197.681 308.5,180C 317.036,174.763 324.869,175.597 332,182.5C 335.57,189.365 335.237,196.032 331,202.5C 309.5,224 288,245.5 266.5,267C 259.167,271.667 251.833,271.667 244.5,267C 223,245.5 201.5,224 180,202.5C 173.559,191.008 176.059,182.342 187.5,176.5 Z"/></g>
</svg>
