<?xml version="1.0" encoding="UTF-8"?>
<!DOCTYPE svg PUBLIC "-//W3C//DTD SVG 1.1//EN" "http://www.w3.org/Graphics/SVG/1.1/DTD/svg11.dtd">
<svg xmlns="http://www.w3.org/2000/svg" version="1.1" width="512px" height="512px" style="shape-rendering:geometricPrecision; text-rendering:geometricPrecision; image-rendering:optimizeQuality; fill-rule:evenodd; clip-rule:evenodd" xmlns:xlink="http://www.w3.org/1999/xlink">
<g><path style="opacity:0.994" fill="#000000" d="M 364.5,-0.5 C 365.5,-0.5 366.5,-0.5 367.5,-0.5C 373.797,6.29817 380.297,12.9648 387,19.5C 387.667,20.1667 387.667,20.8333 387,21.5C 355.385,53.9038 323.885,86.4038 292.5,119C 365.499,119.5 438.499,119.667 511.5,119.5C 511.5,240.167 511.5,360.833 511.5,481.5C 491.5,481.5 471.5,481.5 451.5,481.5C 451.5,491.5 451.5,501.5 451.5,511.5C 441.5,511.5 431.5,511.5 421.5,511.5C 421.5,501.5 421.5,491.5 421.5,481.5C 310.833,481.5 200.167,481.5 89.5,481.5C 89.5,491.5 89.5,501.5 89.5,511.5C 79.5,511.5 69.5,511.5 59.5,511.5C 59.5,501.5 59.5,491.5 59.5,481.5C 39.5,481.5 19.5,481.5 -0.5,481.5C -0.5,360.833 -0.5,240.167 -0.5,119.5C 72.5008,119.667 145.501,119.5 218.5,119C 196.349,95.3487 174.016,71.8487 151.5,48.5C 158.807,41.5277 166.14,34.5277 173.5,27.5C 201.196,55.1954 228.529,83.1954 255.5,111.5C 291.827,74.1726 328.161,36.8393 364.5,-0.5 Z M 29.5,149.5 C 180.167,149.5 330.833,149.5 481.5,149.5C 481.5,250.167 481.5,350.833 481.5,451.5C 330.833,451.5 180.167,451.5 29.5,451.5C 29.5,350.833 29.5,250.167 29.5,149.5 Z M 89.5,209.5 C 180.167,209.5 270.833,209.5 361.5,209.5C 361.5,270.167 361.5,330.833 361.5,391.5C 270.833,391.5 180.167,391.5 89.5,391.5C 89.5,330.833 89.5,270.167 89.5,209.5 Z"/></g>
<g><path style="opacity:1" fill="#000000" d="M 59.5,179.5 C 170.167,179.5 280.833,179.5 391.5,179.5C 391.5,260.167 391.5,340.833 391.5,421.5C 280.833,421.5 170.167,421.5 59.5,421.5C 59.5,340.833 59.5,260.167 59.5,179.5 Z M 89.5,209.5 C 89.5,270.167 89.5,330.833 89.5,391.5C 180.167,391.5 270.833,391.5 361.5,391.5C 361.5,330.833 361.5,270.167 361.5,209.5C 270.833,209.5 180.167,209.5 89.5,209.5 Z"/></g>
<g><path style="opacity:1" fill="#000000" d="M 421.5,225.5 C 431.5,225.5 441.5,225.5 451.5,225.5C 451.5,235.5 451.5,245.5 451.5,255.5C 441.5,255.5 431.5,255.5 421.5,255.5C 421.5,245.5 421.5,235.5 421.5,225.5 Z"/></g>
<g><path style="opacity:1" fill="#000000" d="M 421.5,285.5 C 431.5,285.5 441.5,285.5 451.5,285.5C 451.5,295.5 451.5,305.5 451.5,315.5C 441.5,315.5 431.5,315.5 421.5,315.5C 421.5,305.5 421.5,295.5 421.5,285.5 Z"/></g>
<g><path style="opacity:1" fill="#000000" d="M 421.5,345.5 C 431.5,345.5 441.5,345.5 451.5,345.5C 451.5,355.5 451.5,365.5 451.5,375.5C 441.5,375.5 431.5,375.5 421.5,375.5C 421.5,365.5 421.5,355.5 421.5,345.5 Z"/></g>
</svg>
