<?xml version="1.0" encoding="UTF-8"?>
<!DOCTYPE svg PUBLIC "-//W3C//DTD SVG 1.1//EN" "http://www.w3.org/Graphics/SVG/1.1/DTD/svg11.dtd">
<svg xmlns="http://www.w3.org/2000/svg" version="1.1" width="512px" height="512px" style="shape-rendering:geometricPrecision; text-rendering:geometricPrecision; image-rendering:optimizeQuality; fill-rule:evenodd; clip-rule:evenodd" xmlns:xlink="http://www.w3.org/1999/xlink">
<g><path style="opacity:0.983" fill="#000000" d="M 32.5,15.5 C 181.167,15.3333 329.834,15.5 478.5,16C 486.667,18.8333 492.167,24.3333 495,32.5C 495.667,111.833 495.667,191.167 495,270.5C 492.167,278.667 486.667,284.167 478.5,287C 445.167,287.333 411.833,287.667 378.5,288C 375.811,293.71 372.144,298.71 367.5,303C 386.307,305.661 394.307,316.495 391.5,335.5C 404.504,335.333 417.504,335.5 430.5,336C 438.667,338.833 444.167,344.333 447,352.5C 447.5,360.159 447.666,367.826 447.5,375.5C 457.839,375.334 468.172,375.5 478.5,376C 485.519,378.351 490.686,382.851 494,389.5C 495.646,423.44 495.979,457.44 495,491.5C 494.5,493.333 493.333,494.5 491.5,495C 472.833,495.667 454.167,495.667 435.5,495C 433.667,494.5 432.5,493.333 432,491.5C 431.501,487.514 431.334,483.514 431.5,479.5C 314.167,479.5 196.833,479.5 79.5,479.5C 79.6655,483.514 79.4988,487.514 79,491.5C 78.5,493.333 77.3333,494.5 75.5,495C 56.8333,495.667 38.1667,495.667 19.5,495C 17.6667,494.5 16.5,493.333 16,491.5C 15.0208,457.44 15.3542,423.44 17,389.5C 20.3141,382.851 25.4808,378.351 32.5,376C 42.828,375.5 53.1613,375.334 63.5,375.5C 63.3336,367.826 63.5003,360.159 64,352.5C 66.8333,344.333 72.3333,338.833 80.5,336C 93.4957,335.5 106.496,335.333 119.5,335.5C 116.693,316.495 124.693,305.661 143.5,303C 138.856,298.71 135.189,293.71 132.5,288C 99.1667,287.667 65.8333,287.333 32.5,287C 24.3333,284.167 18.8333,278.667 16,270.5C 15.3333,191.167 15.3333,111.833 16,32.5C 19.0191,24.3156 24.5191,18.649 32.5,15.5 Z M 39.5,31.5 C 183.5,31.3333 327.5,31.5 471.5,32C 476,32.5 478.5,35 479,39.5C 479.991,115.224 479.657,190.89 478,266.5C 476.661,269.094 474.494,270.594 471.5,271C 442.169,271.5 412.835,271.667 383.5,271.5C 385.311,238.253 370.311,217.087 338.5,208C 305.86,204.388 284.027,217.888 273,248.5C 271.644,256.095 271.144,263.762 271.5,271.5C 260.833,271.5 250.167,271.5 239.5,271.5C 241.311,238.253 226.311,217.087 194.5,208C 161.86,204.388 140.027,217.888 129,248.5C 127.644,256.095 127.144,263.762 127.5,271.5C 98.1648,271.667 68.8314,271.5 39.5,271C 36.5056,270.594 34.339,269.094 33,266.5C 31.3425,190.89 31.0092,115.224 32,39.5C 32.6804,34.9895 35.1804,32.3228 39.5,31.5 Z M 231.5,101.5 C 254.423,112.295 277.09,123.628 299.5,135.5C 277.322,147.089 254.989,158.422 232.5,169.5C 231.5,146.843 231.167,124.176 231.5,101.5 Z M 182.5,223.5 C 210.874,227.037 224.041,243.037 222,271.5C 214.992,294.494 199.492,304.66 175.5,302C 152.035,294.842 141.868,279.009 145,254.5C 150.792,235.861 163.292,225.528 182.5,223.5 Z M 326.5,223.5 C 354.877,227.039 368.043,243.039 366,271.5C 358.842,294.965 343.009,305.132 318.5,302C 296.074,294.56 286.241,279.06 289,255.5C 294.347,236.312 306.847,225.645 326.5,223.5 Z M 234.5,287.5 C 248.504,287.333 262.504,287.5 276.5,288C 279.189,293.71 282.856,298.71 287.5,303C 268.693,305.661 260.693,316.495 263.5,335.5C 258.167,335.5 252.833,335.5 247.5,335.5C 250.307,316.495 242.307,305.661 223.5,303C 228.282,298.595 231.949,293.428 234.5,287.5 Z M 143.5,319.5 C 170.169,319.333 196.835,319.5 223.5,320C 228,320.5 230.5,323 231,327.5C 231.497,330.146 231.664,332.813 231.5,335.5C 199.5,335.5 167.5,335.5 135.5,335.5C 135.001,330.636 136.001,326.136 138.5,322C 140.315,321.243 141.981,320.41 143.5,319.5 Z M 287.5,319.5 C 314.169,319.333 340.835,319.5 367.5,320C 372,320.5 374.5,323 375,327.5C 375.497,330.146 375.664,332.813 375.5,335.5C 343.5,335.5 311.5,335.5 279.5,335.5C 279.001,330.636 280.001,326.136 282.5,322C 284.315,321.243 285.981,320.41 287.5,319.5 Z M 87.5,351.5 C 199.5,351.333 311.5,351.5 423.5,352C 428,352.5 430.5,355 431,359.5C 431.5,394.165 431.667,428.832 431.5,463.5C 314.167,463.5 196.833,463.5 79.5,463.5C 79.3333,428.832 79.5,394.165 80,359.5C 80.6804,354.989 83.1804,352.323 87.5,351.5 Z M 39.5,391.5 C 47.5,391.5 55.5,391.5 63.5,391.5C 63.5,420.833 63.5,450.167 63.5,479.5C 52.8333,479.5 42.1667,479.5 31.5,479.5C 31.3334,452.831 31.5,426.165 32,399.5C 32.6804,394.989 35.1804,392.323 39.5,391.5 Z M 447.5,391.5 C 455.507,391.334 463.507,391.5 471.5,392C 474.494,392.406 476.661,393.906 478,396.5C 479.474,424.103 479.974,451.769 479.5,479.5C 468.833,479.5 458.167,479.5 447.5,479.5C 447.5,450.167 447.5,420.833 447.5,391.5 Z"/></g>
<g><path style="opacity:0.906" fill="#000000" d="M 74.5,46.5 C 79.6676,48.9864 84.0009,52.653 87.5,57.5C 77.8333,67.8333 67.8333,77.8333 57.5,87.5C 53.8486,84.3492 50.3486,81.0158 47,77.5C 46.3333,76.5 46.3333,75.5 47,74.5C 56.3689,65.2984 65.5356,55.965 74.5,46.5 Z"/></g>
<g><path style="opacity:0.906" fill="#000000" d="M 98.5,70.5 C 103.668,72.9864 108.001,76.653 111.5,81.5C 101.833,91.8333 91.8333,101.833 81.5,111.5C 77.8486,108.349 74.3486,105.016 71,101.5C 70.3333,100.5 70.3333,99.5 71,98.5C 80.3689,89.2984 89.5356,79.965 98.5,70.5 Z"/></g>
<g><path style="opacity:0.958" fill="#000000" d="M 219.5,79.5 C 222.187,79.3359 224.854,79.5026 227.5,80C 260.167,96.3333 292.833,112.667 325.5,129C 327.942,133.052 328.109,137.219 326,141.5C 293.244,158.128 260.411,174.628 227.5,191C 224.036,191.817 220.702,191.483 217.5,190C 216.874,189.25 216.374,188.416 216,187.5C 215.333,152.833 215.333,118.167 216,83.5C 216.69,81.6498 217.856,80.3164 219.5,79.5 Z M 231.5,101.5 C 231.167,124.176 231.5,146.843 232.5,169.5C 254.989,158.422 277.322,147.089 299.5,135.5C 277.09,123.628 254.423,112.295 231.5,101.5 Z"/></g>
<g><path style="opacity:1" fill="#000000" d="M 447.5,191.5 C 452.833,191.5 458.167,191.5 463.5,191.5C 463.5,196.833 463.5,202.167 463.5,207.5C 458.167,207.5 452.833,207.5 447.5,207.5C 447.5,202.167 447.5,196.833 447.5,191.5 Z"/></g>
<g><path style="opacity:1" fill="#000000" d="M 431.5,215.5 C 442.167,215.5 452.833,215.5 463.5,215.5C 463.5,220.833 463.5,226.167 463.5,231.5C 452.833,231.5 442.167,231.5 431.5,231.5C 431.5,226.167 431.5,220.833 431.5,215.5 Z"/></g>
<g><path style="opacity:1" fill="#000000" d="M 415.5,239.5 C 431.5,239.5 447.5,239.5 463.5,239.5C 463.5,244.833 463.5,250.167 463.5,255.5C 447.5,255.5 431.5,255.5 415.5,255.5C 415.5,250.167 415.5,244.833 415.5,239.5 Z"/></g>
</svg>
