<?xml version="1.0" encoding="UTF-8"?>
<!DOCTYPE svg PUBLIC "-//W3C//DTD SVG 1.1//EN" "http://www.w3.org/Graphics/SVG/1.1/DTD/svg11.dtd">
<svg xmlns="http://www.w3.org/2000/svg" version="1.1" width="512px" height="512px" style="shape-rendering:geometricPrecision; text-rendering:geometricPrecision; image-rendering:optimizeQuality; fill-rule:evenodd; clip-rule:evenodd" xmlns:xlink="http://www.w3.org/1999/xlink">
<g><path style="opacity:0.94" fill="#000000" d="M 389.5,-0.5 C 393.833,-0.5 398.167,-0.5 402.5,-0.5C 406.645,1.12261 410.145,3.78928 413,7.5C 419.922,20.3436 426.589,33.3436 433,46.5C 435.102,55.8597 432.602,63.693 425.5,70C 364.343,101.412 303.343,133.078 242.5,165C 309.167,165.333 375.833,165.667 442.5,166C 450.971,168.755 455.805,174.588 457,183.5C 457.667,266.167 457.667,348.833 457,431.5C 455.89,439.282 451.723,444.782 444.5,448C 431.574,449.443 418.574,449.943 405.5,449.5C 405.667,467.503 405.5,485.503 405,503.5C 403.695,506.961 401.529,509.628 398.5,511.5C 340.5,511.5 282.5,511.5 224.5,511.5C 220.768,509.595 218.268,506.595 217,502.5C 216.5,484.836 216.333,467.17 216.5,449.5C 167.499,449.667 118.499,449.5 69.5,449C 62.8193,446.987 57.986,442.82 55,436.5C 53.4201,421.88 53.0867,407.213 54,392.5C 54.985,388.334 57.6516,386.334 62,386.5C 65.2738,386.301 67.6071,387.634 69,390.5C 69.3333,403.5 69.6667,416.5 70,429.5C 70.4652,430.931 71.2986,432.097 72.5,433C 120.499,433.5 168.499,433.667 216.5,433.5C 216.333,382.166 216.5,330.832 217,279.5C 218.068,274.765 220.901,271.598 225.5,270C 282.5,269.333 339.5,269.333 396.5,270C 399.539,271.031 402.039,272.865 404,275.5C 405.105,281.923 405.605,288.423 405.5,295C 405.333,300.5 405.167,306 405,311.5C 402.089,315.277 398.256,316.444 393.5,315C 391.951,313.786 390.785,312.286 390,310.5C 389.5,302.173 389.334,293.84 389.5,285.5C 337.167,285.5 284.833,285.5 232.5,285.5C 232.5,355.833 232.5,426.167 232.5,496.5C 284.833,496.5 337.167,496.5 389.5,496.5C 389.333,444.499 389.5,392.499 390,340.5C 392.433,334.552 396.6,333.052 402.5,336C 403.333,336.833 404.167,337.667 405,338.5C 405.5,370.165 405.667,401.832 405.5,433.5C 416.505,433.667 427.505,433.5 438.5,433C 439.701,432.097 440.535,430.931 441,429.5C 441.5,367.501 441.667,305.501 441.5,243.5C 317.5,243.5 193.5,243.5 69.5,243.5C 69.6667,283.168 69.5,322.835 69,362.5C 62.4499,368.577 57.4499,367.577 54,359.5C 53.3333,300.833 53.3333,242.167 54,183.5C 54.7634,176.797 57.9301,171.63 63.5,168C 172.636,112.6 281.303,56.433 389.5,-0.5 Z M 393.5,15.5 C 395.977,15.0508 397.977,15.7175 399.5,17.5C 393.634,36.5985 387.467,55.5985 381,74.5C 366.379,82.7267 351.545,90.2267 336.5,97C 342.991,76.8607 349.491,56.694 356,36.5C 368.482,29.3457 380.982,22.3457 393.5,15.5 Z M 409.5,37.5 C 413.942,42.7138 416.442,48.7138 417,55.5C 412.193,58.9885 407.026,61.4885 401.5,63C 404.87,54.7225 407.537,46.2225 409.5,37.5 Z M 278.5,127.5 C 284.627,107.119 290.96,86.7855 297.5,66.5C 309.9,58.9663 322.567,52.633 335.5,47.5C 329.229,67.9784 322.563,88.3117 315.5,108.5C 303.27,115.115 290.936,121.448 278.5,127.5 Z M 276.5,77.5 C 270.373,97.8812 264.04,118.214 257.5,138.5C 242.921,146.039 228.421,153.706 214,161.5C 219.295,140.608 225.628,119.942 233,99.5C 247.165,91.5019 261.665,84.1685 276.5,77.5 Z M 210.5,110.5 C 211.097,110.735 211.43,111.235 211.5,112C 206.077,129.523 200.577,147.023 195,164.5C 184.243,165.653 173.41,165.82 162.5,165C 166.399,153.137 170.399,141.303 174.5,129.5C 186.878,123.647 198.878,117.314 210.5,110.5 Z M 152.5,140.5 C 153.043,140.56 153.376,140.893 153.5,141.5C 150.726,149.324 148.059,157.157 145.5,165C 132.5,165.667 119.5,165.667 106.5,165C 122.054,157.059 137.387,148.892 152.5,140.5 Z M 72.5,181.5 C 78.8421,181.334 85.1754,181.5 91.5,182C 84.3333,189.167 77.1667,196.333 70,203.5C 69.3333,197.5 69.3333,191.5 70,185.5C 70.4796,183.867 71.3129,182.534 72.5,181.5 Z M 114.5,181.5 C 131.503,181.333 148.503,181.5 165.5,182C 150.5,197 135.5,212 120.5,227C 103.5,227.667 86.5,227.667 69.5,227C 84.7018,211.965 99.7018,196.799 114.5,181.5 Z M 188.5,181.5 C 202.837,181.333 217.171,181.5 231.5,182C 216.5,197 201.5,212 186.5,227C 172.167,227.667 157.833,227.667 143.5,227C 158.702,211.965 173.702,196.799 188.5,181.5 Z M 254.5,181.5 C 271.17,181.333 287.837,181.5 304.5,182C 299.657,186.38 299.323,191.046 303.5,196C 306.833,198 310.167,198 313.5,196C 318.167,191.333 322.833,186.667 327.5,182C 341.833,181.333 356.167,181.333 370.5,182C 355.5,197 340.5,212 325.5,227C 311.167,227.667 296.833,227.667 282.5,227C 285.333,224.167 288.167,221.333 291,218.5C 292.846,207.84 288.68,204.34 278.5,208C 272.167,214.333 265.833,220.667 259.5,227C 242.833,227.667 226.167,227.667 209.5,227C 224.702,211.965 239.702,196.799 254.5,181.5 Z M 393.5,181.5 C 408.504,181.333 423.504,181.5 438.5,182C 440.158,182.725 440.658,183.892 440,185.5C 426.167,199.333 412.333,213.167 398.5,227C 381.833,227.667 365.167,227.667 348.5,227C 363.702,211.965 378.702,196.799 393.5,181.5 Z M 440.5,208.5 C 441.49,214.645 441.823,220.978 441.5,227.5C 435.158,227.666 428.825,227.5 422.5,227C 428.703,220.965 434.703,214.798 440.5,208.5 Z"/></g>
<g><path style="opacity:0.909" fill="#000000" d="M 262.5,307.5 C 271.915,307.083 281.248,307.583 290.5,309C 294.779,314.033 294.446,318.7 289.5,323C 280.167,323.667 270.833,323.667 261.5,323C 254.663,317.475 254.996,312.308 262.5,307.5 Z"/></g>
<g><path style="opacity:0.927" fill="#000000" d="M 260.5,338.5 C 293.502,338.333 326.502,338.5 359.5,339C 365.33,345.006 364.663,350.006 357.5,354C 326.167,354.667 294.833,354.667 263.5,354C 255.442,350.26 254.442,345.093 260.5,338.5 Z"/></g>
<g><path style="opacity:0.902" fill="#000000" d="M 261.5,368.5 C 270.506,368.334 279.506,368.5 288.5,369C 293.224,371.435 294.724,375.269 293,380.5C 291.786,382.049 290.286,383.215 288.5,384C 279.5,384.667 270.5,384.667 261.5,384C 254.931,378.796 254.931,373.63 261.5,368.5 Z"/></g>
<g><path style="opacity:0.927" fill="#000000" d="M 263.5,398.5 C 294.835,398.333 326.168,398.5 357.5,399C 364.663,402.994 365.33,407.994 359.5,414C 326.5,414.667 293.5,414.667 260.5,414C 254.602,407.431 255.602,402.265 263.5,398.5 Z"/></g>
<g><path style="opacity:0.927" fill="#000000" d="M 261.5,429.5 C 294.168,429.333 326.835,429.5 359.5,430C 365.33,436.006 364.663,441.006 357.5,445C 325.833,445.667 294.167,445.667 262.5,445C 254.838,440.208 254.505,435.041 261.5,429.5 Z"/></g>
<g><path style="opacity:0.902" fill="#000000" d="M 261.5,455.5 C 270.506,455.334 279.506,455.5 288.5,456C 293.224,458.435 294.724,462.269 293,467.5C 291.786,469.049 290.286,470.215 288.5,471C 279.5,471.667 270.5,471.667 261.5,471C 254.897,465.883 254.897,460.717 261.5,455.5 Z"/></g>
</svg>
