<?xml version="1.0" encoding="UTF-8"?>
<!DOCTYPE svg PUBLIC "-//W3C//DTD SVG 1.1//EN" "http://www.w3.org/Graphics/SVG/1.1/DTD/svg11.dtd">
<svg xmlns="http://www.w3.org/2000/svg" version="1.1" width="512px" height="512px" style="shape-rendering:geometricPrecision; text-rendering:geometricPrecision; image-rendering:optimizeQuality; fill-rule:evenodd; clip-rule:evenodd" xmlns:xlink="http://www.w3.org/1999/xlink">
<g><path style="opacity:0.97" fill="#000000" d="M 102.5,7.5 C 105.425,7.45982 108.091,8.29315 110.5,10C 124.374,24.2085 138.541,38.0418 153,51.5C 176.457,45.5941 199.957,39.9274 223.5,34.5C 222.238,21.1838 227.905,12.3505 240.5,8C 255.376,5.01844 265.543,10.5184 271,24.5C 273.982,39.3761 268.482,49.5428 254.5,55C 251.183,55.4983 247.85,55.665 244.5,55.5C 239.073,79.0434 233.406,102.543 227.5,126C 240.958,140.459 254.792,154.626 269,168.5C 271.786,171.967 272.12,175.634 270,179.5C 233.461,214.257 190.961,224.09 142.5,209C 137.592,206.962 132.759,204.795 128,202.5C 127.5,217.496 127.333,232.496 127.5,247.5C 202.167,247.333 276.834,247.5 351.5,248C 364,251.167 371.833,259 375,271.5C 375.333,288.5 375.667,305.5 376,322.5C 413.483,306.004 450.983,289.504 488.5,273C 492.072,271.595 495.739,271.262 499.5,272C 501.333,272.5 502.5,273.667 503,275.5C 503.667,342.167 503.667,408.833 503,475.5C 501.471,478.516 498.971,479.849 495.5,479.5C 493.077,479.406 490.744,478.906 488.5,478C 450.983,461.496 413.483,444.996 376,428.5C 375.667,445.5 375.333,462.5 375,479.5C 371.833,492 364,499.833 351.5,503C 244.833,503.667 138.167,503.667 31.5,503C 19,499.833 11.1667,492 8,479.5C 7.33333,410.167 7.33333,340.833 8,271.5C 11.1667,259 19,251.167 31.5,248C 47.4965,247.5 63.4965,247.333 79.5,247.5C 79.6666,230.497 79.4999,213.497 79,196.5C 71.9367,188.083 69.6034,178.416 72,167.5C 73.1123,162.609 75.279,158.275 78.5,154.5C 62.5396,124.649 59.0396,93.3161 68,60.5C 74.2579,39.1408 85.7579,21.4742 102.5,7.5 Z M 244.5,24.5 C 253.85,24.3654 256.517,28.532 252.5,37C 243.956,40.3224 240.123,37.4891 241,28.5C 241.69,26.6498 242.856,25.3164 244.5,24.5 Z M 103.5,29.5 C 152.417,76.9157 200.917,124.916 249,173.5C 249.507,174.996 249.007,176.163 247.5,177C 215.429,200.343 180.763,205.009 143.5,191C 140.588,189.627 137.754,188.127 135,186.5C 138,154.833 123.667,140.5 92,143.5C 73.3412,103.143 77.1746,65.1432 103.5,29.5 Z M 210.5,55.5 C 201.854,64.8123 192.854,73.8123 183.5,82.5C 177.681,77.1816 172.015,71.6816 166.5,66C 181.104,62.1821 195.771,58.6821 210.5,55.5 Z M 223.5,68.5 C 220.318,83.229 216.818,97.8957 213,112.5C 207.318,106.985 201.818,101.319 196.5,95.5C 205.188,86.1457 214.188,77.1457 223.5,68.5 Z M 98.5,160.5 C 115.765,160.257 121.598,168.257 116,184.5C 109.749,191.011 102.582,192.177 94.5,188C 87.9893,181.749 86.8227,174.582 91,166.5C 93.1141,163.879 95.6141,161.879 98.5,160.5 Z M 95.5,207.5 C 100.833,207.5 106.167,207.5 111.5,207.5C 111.5,220.833 111.5,234.167 111.5,247.5C 106.167,247.5 100.833,247.5 95.5,247.5C 95.5,234.167 95.5,220.833 95.5,207.5 Z M 39.5,263.5 C 140.834,263.333 242.167,263.5 343.5,264C 352.667,265.167 357.833,270.333 359,279.5C 359.499,284.823 359.666,290.156 359.5,295.5C 247.5,295.5 135.5,295.5 23.5,295.5C 23.2122,288.437 23.7122,281.437 25,274.5C 27.8214,268.023 32.6547,264.356 39.5,263.5 Z M 486.5,292.5 C 487.665,347.665 487.832,402.998 487,458.5C 450.24,442.204 413.407,426.038 376.5,410C 375.838,398.574 375.505,387.074 375.5,375.5C 375.505,363.926 375.838,352.426 376.5,341C 413.374,325.058 450.041,308.891 486.5,292.5 Z M 23.5,311.5 C 135.5,311.5 247.5,311.5 359.5,311.5C 359.5,354.167 359.5,396.833 359.5,439.5C 247.5,439.5 135.5,439.5 23.5,439.5C 23.5,396.833 23.5,354.167 23.5,311.5 Z M 23.5,455.5 C 135.5,455.5 247.5,455.5 359.5,455.5C 359.666,460.844 359.499,466.177 359,471.5C 357.833,480.667 352.667,485.833 343.5,487C 242.167,487.667 140.833,487.667 39.5,487C 30.3333,485.833 25.1667,480.667 24,471.5C 23.5006,466.177 23.334,460.844 23.5,455.5 Z"/></g>
<g><path style="opacity:0.997" fill="#000000" d="M 63.5,327.5 C 68.8333,327.5 74.1667,327.5 79.5,327.5C 79.5,354.167 79.5,380.833 79.5,407.5C 92.8333,407.5 106.167,407.5 119.5,407.5C 119.5,412.833 119.5,418.167 119.5,423.5C 102.163,423.667 84.8301,423.5 67.5,423C 66.5838,422.626 65.7504,422.126 65,421.5C 63.5151,390.254 63.0151,358.921 63.5,327.5 Z"/></g>
<g><path style="opacity:1" fill="#000000" d="M 135.5,327.5 C 146.167,327.5 156.833,327.5 167.5,327.5C 167.5,332.833 167.5,338.167 167.5,343.5C 164.833,343.5 162.167,343.5 159.5,343.5C 159.5,364.833 159.5,386.167 159.5,407.5C 162.167,407.5 164.833,407.5 167.5,407.5C 167.5,412.833 167.5,418.167 167.5,423.5C 156.833,423.5 146.167,423.5 135.5,423.5C 135.5,418.167 135.5,412.833 135.5,407.5C 138.167,407.5 140.833,407.5 143.5,407.5C 143.5,386.167 143.5,364.833 143.5,343.5C 140.833,343.5 138.167,343.5 135.5,343.5C 135.5,338.167 135.5,332.833 135.5,327.5 Z"/></g>
<g><path style="opacity:0.97" fill="#000000" d="M 183.5,327.5 C 188.833,327.5 194.167,327.5 199.5,327.5C 199.333,345.17 199.5,362.836 200,380.5C 204.936,387.386 210.103,394.053 215.5,400.5C 220.897,394.053 226.064,387.386 231,380.5C 231.5,362.836 231.667,345.17 231.5,327.5C 236.833,327.5 242.167,327.5 247.5,327.5C 247.667,347.503 247.5,367.503 247,387.5C 238.667,398.833 230.333,410.167 222,421.5C 217.667,424.167 213.333,424.167 209,421.5C 200.667,410.167 192.333,398.833 184,387.5C 183.5,367.503 183.333,347.503 183.5,327.5 Z"/></g>
<g><path style="opacity:0.996" fill="#000000" d="M 267.5,327.5 C 282.167,327.5 296.833,327.5 311.5,327.5C 311.5,332.833 311.5,338.167 311.5,343.5C 300.833,343.5 290.167,343.5 279.5,343.5C 279.5,351.5 279.5,359.5 279.5,367.5C 287.5,367.5 295.5,367.5 303.5,367.5C 303.5,372.833 303.5,378.167 303.5,383.5C 295.5,383.5 287.5,383.5 279.5,383.5C 279.5,391.5 279.5,399.5 279.5,407.5C 290.167,407.5 300.833,407.5 311.5,407.5C 311.5,412.833 311.5,418.167 311.5,423.5C 296.83,423.667 282.163,423.5 267.5,423C 265.667,422.5 264.5,421.333 264,419.5C 263.333,390.167 263.333,360.833 264,331.5C 264.69,329.65 265.856,328.316 267.5,327.5 Z"/></g>
</svg>
