<?xml version="1.0" encoding="UTF-8"?>
<!DOCTYPE svg PUBLIC "-//W3C//DTD SVG 1.1//EN" "http://www.w3.org/Graphics/SVG/1.1/DTD/svg11.dtd">
<svg xmlns="http://www.w3.org/2000/svg" version="1.1" width="512px" height="512px" style="shape-rendering:geometricPrecision; text-rendering:geometricPrecision; image-rendering:optimizeQuality; fill-rule:evenodd; clip-rule:evenodd" xmlns:xlink="http://www.w3.org/1999/xlink">
<g><path style="opacity:0.971" fill="#464646" d="M 158.5,51.5 C 269.874,51.1688 381.207,51.5021 492.5,52.5C 493.333,53.5 494.167,54.5 495,55.5C 495.667,141.167 495.667,226.833 495,312.5C 494.167,314 493,315.167 491.5,316C 482.73,316.94 474.064,316.607 465.5,315C 462.833,311 462.833,307 465.5,303C 470.036,301.621 474.703,301.121 479.5,301.5C 479.5,223.167 479.5,144.833 479.5,66.5C 376.833,66.5 274.167,66.5 171.5,66.5C 172.362,72.0389 171.028,76.8722 167.5,81C 163.082,83.0873 159.249,82.2539 156,78.5C 155.333,70.8333 155.333,63.1667 156,55.5C 156.662,54.0161 157.496,52.6828 158.5,51.5 Z"/></g>
<g><path style="opacity:0.96" fill="#464646" d="M 112.5,98.5 C 222.834,98.3333 333.167,98.5 443.5,99C 446.108,100.378 447.608,102.545 448,105.5C 448.667,189.5 448.667,273.5 448,357.5C 447.608,360.455 446.108,362.622 443.5,364C 435.833,364.667 428.167,364.667 420.5,364C 413.833,359 413.833,354 420.5,349C 424.486,348.501 428.486,348.334 432.5,348.5C 432.5,270.5 432.5,192.5 432.5,114.5C 329.5,114.5 226.5,114.5 123.5,114.5C 123.665,118.182 123.499,121.848 123,125.5C 118.7,130.446 114.033,130.779 109,126.5C 107.402,118.939 107.069,111.272 108,103.5C 109.025,101.313 110.525,99.6464 112.5,98.5 Z"/></g>
<g><path style="opacity:0.971" fill="#464646" d="M 63.5,146.5 C 174.874,146.169 286.207,146.502 397.5,147.5C 398.333,148.5 399.167,149.5 400,150.5C 400.667,236.167 400.667,321.833 400,407.5C 399.167,409 398,410.167 396.5,411C 387.73,411.94 379.064,411.607 370.5,410C 367.833,406 367.833,402 370.5,398C 375.036,396.621 379.703,396.121 384.5,396.5C 384.5,318.167 384.5,239.833 384.5,161.5C 281.833,161.5 179.167,161.5 76.5,161.5C 77.3616,167.039 76.0282,171.872 72.5,176C 68.0819,178.087 64.2486,177.254 61,173.5C 60.3333,165.833 60.3333,158.167 61,150.5C 61.6622,149.016 62.4955,147.683 63.5,146.5 Z"/></g>
<g><path style="opacity:0.937" fill="#474747" d="M 19.5,191.5 C 130.581,191.004 241.581,191.504 352.5,193C 353.717,194.648 354.55,196.481 355,198.5C 355.667,282.5 355.667,366.5 355,450.5C 354.606,453.893 352.773,456.06 349.5,457C 238.753,457.996 128.086,457.662 17.5,456C 16.2986,455.097 15.4652,453.931 15,452.5C 14.3333,367.167 14.3333,281.833 15,196.5C 16.025,194.313 17.525,192.646 19.5,191.5 Z M 30.5,207.5 C 133.5,207.5 236.5,207.5 339.5,207.5C 339.5,285.5 339.5,363.5 339.5,441.5C 236.5,441.5 133.5,441.5 30.5,441.5C 30.5,363.5 30.5,285.5 30.5,207.5 Z M 164.5,289.5 C 165.552,289.351 166.552,289.517 167.5,290C 185.5,301 203.5,312 221.5,323C 224.179,324.346 226.179,326.346 227.5,329C 226.899,330.605 225.899,331.938 224.5,333C 204.917,344.708 185.417,356.541 166,368.5C 165,367.833 164,367.167 163,366.5C 162.333,341.5 162.333,316.5 163,291.5C 163.717,290.956 164.217,290.289 164.5,289.5 Z"/></g>
<g><path style="opacity:0.943" fill="#464646" d="M 162.5,273.5 C 167.836,273.251 172.836,274.418 177.5,277C 196.333,288.918 215.333,300.584 234.5,312C 246.5,323.333 246.5,334.667 234.5,346C 215.333,357.416 196.333,369.082 177.5,381C 167.199,386.298 158.032,384.798 150,376.5C 148.725,374.283 147.725,371.949 147,369.5C 146.333,342.167 146.333,314.833 147,287.5C 149.877,280.114 155.044,275.448 162.5,273.5 Z M 164.5,289.5 C 164.217,290.289 163.717,290.956 163,291.5C 162.333,316.5 162.333,341.5 163,366.5C 164,367.167 165,367.833 166,368.5C 185.417,356.541 204.917,344.708 224.5,333C 225.899,331.938 226.899,330.605 227.5,329C 226.179,326.346 224.179,324.346 221.5,323C 203.5,312 185.5,301 167.5,290C 166.552,289.517 165.552,289.351 164.5,289.5 Z"/></g>
</svg>
