<?xml version="1.0" encoding="UTF-8"?>
<svg version="1.1" xmlns="http://www.w3.org/2000/svg" width="512" height="512">
<path d="M0 0 C1.0415625 -0.0103125 2.083125 -0.020625 3.15625 -0.03125 C12.93326168 1.522107 18.65673913 8.07485244 25.3125 14.875 C26.26163037 15.81845279 27.21149578 16.76116671 28.16210938 17.703125 C34.96301996 24.56723204 38.96229799 29.87160264 39.546875 39.703125 C39.40549931 48.13854112 35.6162947 52.93144117 30.08482361 59.0086689 C27.61122334 61.39279958 25.23841091 63.08026706 22.31750488 64.86619568 C15.03893314 69.70668796 9.03490978 75.37515234 6.86292648 84.04215479 C4.17171036 99.68884801 5.05038469 115.9935055 5.36273935 131.80076602 C5.49512191 138.72438417 5.50772615 145.64683187 5.51369804 152.57152563 C5.52707368 164.92990932 5.62623867 177.28597773 5.78369141 189.64331055 C5.93586658 201.6054551 6.05725791 213.56712312 6.13037109 225.5300293 C6.13490018 226.26829128 6.13942927 227.00655327 6.1440956 227.76718683 C6.19282392 235.83666433 6.23410852 243.90617189 6.27194977 251.97570705 C6.28211955 254.11906763 6.29231864 256.26242806 6.30255669 258.40578831 C6.30925007 259.81910784 6.31581806 261.23242797 6.32225877 262.64574867 C6.36361568 271.60257149 6.43715681 280.55831733 6.54602623 289.51457131 C6.6061139 294.64793979 6.6508374 299.78137703 6.69296455 304.91492081 C6.71632633 307.28892276 6.7468002 309.66286737 6.78503227 312.03667641 C6.83675715 315.28551821 6.86334869 318.53368759 6.88439941 321.78285217 C6.90580223 322.71379654 6.92720504 323.64474092 6.94925642 324.60389572 C6.95958319 334.90168172 3.43745613 343.49947345 -3.23828125 351.2734375 C-13.22796534 361.10784152 -25.75177099 362.96319866 -39.2628212 362.85761642 C-39.94654675 362.85199314 -40.63027229 362.84636986 -41.3347168 362.84057617 C-42.79444867 362.83972808 -44.25418183 362.84020859 -45.71391296 362.84190369 C-49.64300298 362.84275797 -53.57181346 362.82522509 -57.50083899 362.80418181 C-61.61942581 362.78531955 -65.73802033 362.7836571 -69.85664368 362.78010559 C-77.64076819 362.770813 -85.42476501 362.7462373 -93.20883352 362.71605712 C-102.07710012 362.68242594 -110.94537309 362.66600527 -119.81368768 362.65097082 C-138.04253061 362.61968498 -156.27125501 362.56697919 -174.5 362.5 C-173.88358853 365.02690884 -173.26322379 367.55273992 -172.640625 370.078125 C-172.46869629 370.78469238 -172.29676758 371.49125977 -172.11962891 372.21923828 C-167.4969404 390.90350019 -158.49443762 406.43095597 -141.9375 416.8125 C-138.29427373 418.96686682 -134.64578458 420.95881066 -130.8125 422.75 C-127.35674773 424.57568044 -126.78592673 425.0215682 -125.5 428.5 C-125.81389885 434.46407821 -125.81389885 434.46407821 -127.6194315 437.19019318 C-130.49197905 439.19090859 -132.93039488 438.88420007 -136.40159607 438.89440918 C-137.10779164 438.90050028 -137.81398721 438.90659139 -138.54158264 438.91286707 C-140.91387039 438.92954958 -143.28562446 438.92471398 -145.65795898 438.91992188 C-147.35632894 438.92725918 -149.0546939 438.93584441 -150.75305176 438.94558716 C-155.37080799 438.96784744 -159.98838602 438.9707316 -164.60618854 438.96883965 C-168.45823702 438.96872015 -172.31024746 438.97727551 -176.16228539 438.98561716 C-185.24827129 439.00486741 -194.33416531 439.00772912 -203.42016602 439.00097656 C-212.80030542 438.99433382 -222.18005179 439.01720575 -231.56011146 439.05429029 C-239.60774936 439.08495513 -247.65526061 439.09635084 -255.70295578 439.09245348 C-260.51205115 439.09038268 -265.32084073 439.09591602 -270.12988091 439.12034607 C-274.65179979 439.14255776 -279.17307827 439.14078227 -283.69499969 439.12041855 C-285.35587368 439.11699859 -287.01679031 439.12213993 -288.67760658 439.13640213 C-290.94296403 439.1545155 -293.20613051 439.14190845 -295.47142029 439.12145996 C-297.37368708 439.12252872 -297.37368708 439.12252872 -299.31438351 439.12361908 C-302.5 438.5 -302.5 438.5 -304.90412998 436.14865875 C-306.88071631 432.86812674 -307.20614899 431.26612792 -306.5 427.5 C-303.63386639 423.40552342 -300.28483057 421.82293712 -295.8125 419.6875 C-279.38718273 411.7872247 -268.8801141 398.40747549 -262.77978516 381.50439453 C-260.83698772 375.5774437 -259.50029573 369.6471942 -258.5 363.5 C-259.62395377 363.49503478 -259.62395377 363.49503478 -260.77061367 363.48996925 C-279.02479216 363.4086565 -297.27888705 363.31653702 -315.5329504 363.21247292 C-324.36057246 363.16240683 -333.1881855 363.11596333 -342.01586914 363.078125 C-349.71241574 363.04512582 -357.40889119 363.00525108 -365.10535914 362.95720994 C-369.17844572 362.93202358 -373.25148558 362.91021932 -377.32462883 362.89665604 C-381.16350876 362.88376401 -385.00222782 362.86163367 -388.84101868 362.83261681 C-390.24498307 362.82359656 -391.64897333 362.81786388 -393.05296516 362.81578636 C-406.20249501 362.79285724 -417.45978746 361.39356083 -427.80078125 352.52734375 C-438.44277334 341.48452334 -439.65784781 328.60883302 -439.63371277 314.04545593 C-439.63597833 313.02942836 -439.63824388 312.01340079 -439.64057809 310.9665845 C-439.64687929 307.58147102 -439.64609123 304.19639797 -439.64526367 300.8112793 C-439.64825756 298.3762507 -439.65166063 295.94122257 -439.65544128 293.50619507 C-439.66334644 287.58980287 -439.66649489 281.67342006 -439.66705366 275.75702365 C-439.66753006 270.9446968 -439.66959096 266.1323732 -439.67275429 261.32004738 C-439.68155314 247.65496244 -439.68617481 233.98988533 -439.68542381 220.32479753 C-439.68538386 219.58927695 -439.6853439 218.85375636 -439.68530273 218.09594727 C-439.68526185 217.35952143 -439.68522097 216.62309559 -439.68517885 215.86435381 C-439.6847725 203.9325781 -439.69434148 192.00083396 -439.7084411 180.06906738 C-439.72282789 167.79678759 -439.72971003 155.52452319 -439.72884732 143.25223476 C-439.72851617 136.37062896 -439.73122733 129.48905628 -439.74202538 122.60745811 C-439.7521188 116.13382662 -439.75177156 109.66024688 -439.74450874 103.18661118 C-439.74346547 100.81634608 -439.74581048 98.4460766 -439.7518692 96.07581902 C-439.83563246 61.02498811 -439.83563246 61.02498811 -428.3125 48.6875 C-421.13576097 41.90680176 -413.28847068 38.31475461 -403.44649982 38.4535141 C-401.57359633 38.47582903 -401.57359633 38.47582903 -399.6628564 38.49859476 C-398.27461162 38.52032061 -396.88636722 38.54207083 -395.49812317 38.56384277 C-394.02501882 38.58290253 -392.55190735 38.60141827 -391.07878989 38.61943579 C-387.87161827 38.65944101 -384.66450457 38.70239179 -381.45740128 38.74754143 C-372.53865502 38.87241732 -363.61963417 38.9755342 -354.70063782 39.08068848 C-353.75338048 39.09201325 -352.80612315 39.10333802 -351.83016105 39.11500597 C-336.88298008 39.29291123 -321.93589319 39.42319008 -306.98796082 39.51794434 C-305.97574383 39.52438888 -304.96352685 39.53083343 -303.92063663 39.53747326 C-293.44722135 39.60347326 -282.97377927 39.66356577 -272.50030439 39.71925619 C-267.11616167 39.74815829 -261.73202891 39.77862849 -256.34790039 39.81005859 C-255.27621609 39.81628972 -254.2045318 39.82252086 -253.10037222 39.82894081 C-235.80392131 39.93289264 -218.51067646 40.15051279 -201.21594254 40.41010135 C-183.42127733 40.67451363 -165.62879618 40.81110745 -147.83216876 40.83328295 C-137.85409255 40.84935422 -127.88357803 40.92287075 -117.9077549 41.14372253 C-72.77019493 44.32969446 -72.77019493 44.32969446 -32.85565561 27.88932371 C-27.26991215 22.52680958 -22.35778353 16.52400638 -18.33860195 9.89708614 C-14.06008413 2.91989468 -8.24988831 -0.08168206 0 0 Z M-11.06304932 24.03875732 C-12.56372668 25.56480399 -14.08959644 27.0615942 -15.62255859 28.55517578 C-18.4290104 31.29857776 -21.20836362 34.06764368 -23.97827148 36.84790039 C-25.69207233 38.5670867 -27.41119082 40.28082583 -29.13085938 41.99414062 C-30.24771673 43.11165855 -31.36426397 44.22948652 -32.48046875 45.34765625 C-32.98168747 45.84685074 -33.48290619 46.34604523 -33.99931335 46.86036682 C-36.57885035 49.45657503 -39.03327788 52.10756469 -41.3991394 54.90013123 C-46.68863394 60.96147448 -52.44228263 66.57357323 -58.13647461 72.25 C-59.40864191 73.52188481 -60.68058822 74.7939907 -61.95233154 76.06629944 C-65.38552306 79.49977648 -68.82177709 82.93017335 -72.25861049 86.36000443 C-75.85719459 89.95231424 -79.45292491 93.5474783 -83.04896545 97.14233398 C-89.85013401 103.94040121 -96.65384645 110.73591646 -103.45848805 117.53050709 C-111.20897424 125.26979487 -118.9566027 133.01194078 -126.70399845 140.75432205 C-142.63283256 156.67271891 -158.56523255 172.58754274 -174.5 188.5 C-173.54947729 189.6164222 -172.5978835 190.73193255 -171.64584351 191.84706116 C-171.11604071 192.46835938 -170.58623791 193.08965761 -170.04038048 193.72978306 C-168.10584709 195.95296352 -166.06770808 198.04510139 -163.9765625 200.12109375 C-163.18378906 200.91064453 -162.39101563 201.70019531 -161.57421875 202.51367188 C-160.36185547 203.7134668 -160.36185547 203.7134668 -159.125 204.9375 C-158.29355469 205.76443359 -157.46210938 206.59136719 -156.60546875 207.44335938 C-154.5725896 209.46455531 -152.53740037 211.48336335 -150.5 213.5 C-147.65063171 212.20391513 -145.5839317 210.83599698 -143.36847305 208.63132858 C-142.77181501 208.04235283 -142.17515696 207.45337707 -141.56041837 206.84655356 C-140.91449947 206.1989017 -140.26858057 205.55124984 -139.60308838 204.88397217 C-138.90955033 204.19637636 -138.21601228 203.50878056 -137.50145793 202.80034852 C-135.17357707 200.4898424 -132.85292731 198.17220841 -130.53222656 195.85449219 C-128.86701901 194.19854067 -127.2014159 192.54298684 -125.53544617 190.88780212 C-121.00797941 186.38658445 -116.48720795 181.87870122 -111.96840763 177.3687849 C-109.1470854 174.55332199 -106.32459239 171.73903802 -103.50173187 168.92511749 C-95.68655402 161.13431726 -87.87326633 153.34163235 -80.06688309 145.54201889 C-79.56749727 145.0430722 -79.06811145 144.54412552 -78.55359273 144.03005923 C-78.05301892 143.52992198 -77.55244511 143.02978473 -77.03670239 142.5144918 C-76.02235547 141.5010318 -75.00800545 140.48757491 -73.99365234 139.47412109 C-73.23892451 138.72005755 -73.23892451 138.72005755 -72.46894965 137.95076039 C-64.30965185 129.79936434 -56.13692963 121.66157109 -47.95834401 113.52953181 C-39.56226914 105.18085687 -31.17746384 96.82100196 -22.80388808 88.44975972 C-18.10185398 83.74956025 -13.3947557 79.05463066 -8.67584991 74.37136078 C-4.24025241 69.96861142 0.18093954 65.55189922 4.59132957 61.12390327 C6.21476244 59.49892374 7.84336472 57.87909037 9.47738838 56.26476097 C11.70269231 54.06471973 13.90883072 51.84710221 16.11102295 49.6239624 C16.76586473 48.98523343 17.42070652 48.34650445 18.09539199 47.68842006 C21.67367179 44.04380604 21.67367179 44.04380604 22.97084427 39.17657852 C22.43867638 36.15139751 21.79622722 35.01011971 19.6875 32.8125 C19.05199219 32.14734375 18.41648437 31.4821875 17.76171875 30.796875 C16.64216797 29.65992188 16.64216797 29.65992188 15.5 28.5 C14.61957031 27.53578125 13.73914063 26.5715625 12.83203125 25.578125 C11.88946501 24.57156236 10.94545857 23.56634638 10 22.5625 C9.1234375 21.62535156 8.246875 20.68820313 7.34375 19.72265625 C-0.70114976 13.43481564 -4.9128115 17.77392051 -11.06304932 24.03875732 Z M-419.0625 63.5625 C-421.88877541 67.60575519 -422.62297534 71.10811595 -422.63422108 75.99912643 C-422.63867892 76.9008731 -422.64313676 77.80261976 -422.64772969 78.73169208 C-422.64754533 79.71844841 -422.64736097 80.70520475 -422.64717102 81.72186279 C-422.65084771 82.77319247 -422.6545244 83.82452216 -422.6583125 84.90771031 C-422.66935434 88.44205918 -422.67319402 91.97637865 -422.67700195 95.51074219 C-422.68326615 98.0401926 -422.68991291 100.5696421 -422.69691467 103.09909058 C-422.71614305 110.69707975 -422.72674233 118.29506376 -422.73564246 125.89307106 C-422.74002773 129.47236777 -422.74539387 133.05166301 -422.75063133 136.63095856 C-422.76764069 148.53100146 -422.78213503 160.43104346 -422.78938007 172.33109665 C-422.79128991 175.41799674 -422.79321026 178.50489682 -422.79516602 181.59179688 C-422.79564976 182.359015 -422.7961335 183.12623312 -422.7966319 183.91670027 C-422.80493294 196.3462179 -422.83027238 208.77563932 -422.86274669 221.20511493 C-422.8958249 233.96990221 -422.91382946 246.73464059 -422.91702431 259.49947095 C-422.91918855 266.66499886 -422.92792462 273.83038639 -422.95348549 280.9958725 C-422.97747466 287.73624396 -422.98101344 294.47631918 -422.97072411 301.21673965 C-422.97022781 303.69027928 -422.97657578 306.1638312 -422.99028015 308.63733292 C-423.00794804 312.01526003 -423.0009171 315.39227516 -422.98774719 318.77020264 C-422.99871644 319.74803609 -423.00968568 320.72586954 -423.02098733 321.7333343 C-422.95461863 328.78854958 -421.41355739 334.1236628 -416.75390625 339.5234375 C-416.19574219 339.96945312 -415.63757813 340.41546875 -415.0625 340.875 C-414.50691406 341.33648437 -413.95132813 341.79796875 -413.37890625 342.2734375 C-408.97241786 345.15002244 -405.17378689 345.75088415 -399.95688915 345.75726891 C-398.98692492 345.76252802 -398.98692492 345.76252802 -397.99736544 345.76789337 C-395.82760023 345.77720736 -393.65810341 345.77228416 -391.48832703 345.76742554 C-389.91816213 345.7711618 -388.34799909 345.77576323 -386.777839 345.78115618 C-382.46055974 345.79340454 -378.14335786 345.79312356 -373.82606518 345.79076743 C-369.17086599 345.79035973 -364.51569175 345.80139396 -359.86050415 345.81088257 C-350.73911501 345.82750359 -341.61775172 345.83299261 -332.4963487 345.83410732 C-325.08282117 345.83505727 -317.66930219 345.83916491 -310.25577736 345.84550858 C-289.24224075 345.86312397 -268.22872458 345.87234698 -247.21518054 345.87084763 C-246.08206403 345.87076772 -244.94894752 345.8706878 -243.78149414 345.87060547 C-242.07974679 345.87048283 -242.07974679 345.87048283 -240.3436207 345.87035771 C-221.95527339 345.86954471 -203.56700799 345.88868494 -185.17868438 345.9168822 C-166.30275447 345.94559904 -147.42686451 345.95942316 -128.5509122 345.95769465 C-117.95145988 345.95703033 -107.35209341 345.96254081 -96.75266075 345.98405075 C-87.72832057 346.00224674 -78.70410515 346.00662289 -69.67975458 345.9930319 C-65.07521051 345.98649427 -60.47090591 345.9864137 -55.86638451 346.0037384 C-51.65013832 346.01943908 -47.43432209 346.0166364 -43.21808658 345.99917014 C-41.69387577 345.9960936 -40.16963311 345.99975726 -38.64545985 346.01089029 C-29.63124855 346.07236532 -22.6579232 345.86133274 -15.4765625 339.7890625 C-15.03054688 339.23992187 -14.58453125 338.69078125 -14.125 338.125 C-13.66351563 337.58101563 -13.20203125 337.03703125 -12.7265625 336.4765625 C-9.26299383 330.89514292 -9.21736342 325.39186551 -9.25949097 319.04678345 C-9.25778212 318.10243986 -9.25607327 317.15809626 -9.25431263 316.1851362 C-9.25102202 313.02520207 -9.26201448 309.86548093 -9.27294922 306.70556641 C-9.27351342 304.43870041 -9.27319659 302.17183405 -9.27206421 299.90496826 C-9.27149006 293.75259522 -9.28325447 287.60030005 -9.29721212 281.44794512 C-9.30970911 275.01774013 -9.31088917 268.58753338 -9.31326294 262.15731812 C-9.31877416 251.36511729 -9.33126917 240.57294843 -9.34912109 229.78076172 C-9.36748716 218.66617984 -9.38164011 207.55160572 -9.39013672 196.43701172 C-9.39066217 195.75157908 -9.39118761 195.06614643 -9.39172898 194.35994311 C-9.39433911 190.92123057 -9.39686651 187.48251799 -9.39935279 184.04380536 C-9.42007655 155.52918391 -9.4554434 127.01459349 -9.5 98.5 C-13.88837779 102.16923632 -18.0472124 105.94203967 -22.03965759 110.04725647 C-22.55139969 110.57154989 -23.06314179 111.09584331 -23.59039122 111.63602442 C-24.70002134 112.77345042 -25.80834893 113.91214832 -26.91549301 115.05199432 C-29.35317726 117.56146669 -31.79747526 120.06445917 -34.24138367 122.56786811 C-35.55642318 123.91495931 -36.8711506 125.26235523 -38.1855849 126.61003697 C-46.64690451 135.28250083 -55.15606472 143.90790947 -63.66384113 152.53476346 C-71.93177449 160.91877337 -80.18376787 169.31700756 -88.38647461 177.76489258 C-94.91832445 184.49180437 -101.4839312 191.18364065 -108.09035021 197.83736128 C-111.57642049 201.35084634 -115.04410554 204.87870156 -118.47135735 208.44966316 C-145.26209272 236.32210948 -145.26209272 236.32210948 -165.76524544 237.29992485 C-170.75362668 237.66487574 -175.61033045 238.79834034 -180.5 239.8125 C-196.30906192 242.84283302 -196.30906192 242.84283302 -200.4375 240.3125 C-203.60751737 234.90482331 -202.03896497 229.44981232 -200.953125 223.6328125 C-200.78125671 222.67986298 -200.60938843 221.72691345 -200.43231201 220.74508667 C-200.06680978 218.73206512 -199.69668567 216.71987802 -199.32226562 214.70849609 C-198.75373876 211.64514526 -198.20396958 208.57884991 -197.65625 205.51171875 C-197.29799923 203.5518775 -196.93865955 201.59223491 -196.578125 199.6328125 C-196.33415985 198.26686447 -196.33415985 198.26686447 -196.08526611 196.87332153 C-195.84051544 195.57695267 -195.84051544 195.57695267 -195.59082031 194.25439453 C-195.4523468 193.50336456 -195.31387329 192.75233459 -195.17120361 191.97854614 C-193.43233242 185.55743575 -191.04414241 181.54461684 -186.31782532 176.84353638 C-185.79665089 176.31964982 -185.27547647 175.79576326 -184.73850888 175.25600135 C-183.00208775 173.51535724 -181.25183108 171.78935212 -179.5012207 170.06298828 C-178.24869587 168.8132307 -176.99706016 167.56258148 -175.74624634 166.31111145 C-172.35656579 162.92454826 -168.95478765 159.55037666 -165.55082345 156.17817926 C-161.99193967 152.6480598 -158.44480589 149.10617539 -154.89653015 145.56539917 C-148.17891419 138.86536305 -141.45159056 132.17516752 -134.72035331 125.488819 C-124.82467219 115.6584197 -114.9417406 105.81521522 -105.0611372 95.96966362 C-104.33783303 95.24892886 -103.61452886 94.52819411 -102.86930639 93.7856189 C-101.4278965 92.34930573 -99.98651881 90.91296024 -98.5451743 89.47658145 C-94.3127152 85.25941957 -90.07674248 81.04582655 -85.83775866 76.83522344 C-83.20981346 74.22422738 -80.58376625 71.61132812 -77.95810318 68.99803734 C-76.73505865 67.78168869 -75.51113707 66.56622121 -74.28630257 65.35167503 C-72.6223595 63.70154814 -70.96143214 62.04844478 -69.30122375 60.39456177 C-68.36857854 59.46803362 -67.43593332 58.54150547 -66.47502613 57.58690071 C-64.3854382 55.85783309 -64.3854382 55.85783309 -64.5 54.5 C-107.77113231 54.38553839 -151.04224714 54.29744286 -194.31350087 54.24467335 C-199.42286802 54.23841987 -204.53223486 54.23194825 -209.64160156 54.2253418 C-210.6587781 54.22403024 -211.67595463 54.22271869 -212.72395469 54.2213674 C-229.19072156 54.19961496 -245.6574011 54.1601943 -262.12411617 54.11423602 C-279.02236444 54.06746693 -295.920567 54.03970364 -312.81887734 54.02955753 C-323.24481941 54.02269932 -333.6705146 54.00104374 -344.09638067 53.96041767 C-351.24724284 53.93397374 -358.39797752 53.92600276 -365.54888503 53.93249311 C-369.67373594 53.93569344 -373.79815566 53.93081173 -377.92292976 53.90397263 C-381.70347869 53.87955354 -385.48330847 53.87846769 -389.26389123 53.89550553 C-391.2706897 53.89860229 -393.2774803 53.87711481 -395.28415477 53.85459346 C-405.02368854 53.9348746 -412.76053005 55.72681453 -419.0625 63.5625 Z M-181.5 206.5 C-182.00377768 208.76999825 -182.50290019 211.04103003 -183 213.3125 C-183.2784375 214.57707031 -183.556875 215.84164062 -183.84375 217.14453125 C-184.59596992 220.42086334 -184.59596992 220.42086334 -184.5 223.5 C-175.96348556 222.79416478 -175.96348556 222.79416478 -167.5 221.5 C-169.11126295 217.44772191 -172.00021998 214.73778153 -175.0625 211.75 C-175.56974609 211.24339844 -176.07699219 210.73679688 -176.59960938 210.21484375 C-178.69761779 207.64575989 -178.69761779 207.64575989 -181.5 206.5 Z M-241.5 362.5 C-243.15 369.76 -244.8 377.02 -246.5 384.5 C-251.19592398 397.87317482 -256.95800935 408.20551838 -266.6796875 418.50390625 C-268.54976369 420.37265788 -268.54976369 420.37265788 -269.5 422.5 C-234.52 422.5 -199.54 422.5 -163.5 422.5 C-167.49406971 417.14820104 -167.49406971 417.14820104 -171.58984375 411.875 C-182.82464063 397.43365432 -187.27372043 380.24453761 -190.5 362.5 C-207.33 362.5 -224.16 362.5 -241.5 362.5 Z " fill="#000000" transform="translate(457.5,36.5)"/>
<path d="M0 0 C0.68886292 -0.0038269 1.37772583 -0.00765381 2.08746338 -0.01159668 C3.55002294 -0.01431619 5.01263111 -0.00695195 6.47509766 0.00976562 C8.6551589 0.03078747 10.83177349 0.01017904 13.01171875 -0.015625 C25.84935871 -0.04269113 38.6618627 2.02249715 50.140625 8.09375 C50.79297119 8.43180664 51.44531738 8.76986328 52.11743164 9.11816406 C69.53509881 18.565178 81.51802874 34.24326772 88.12182617 52.81860352 C91.76158665 65.67292498 91.48853889 78.44319995 91.453125 91.71875 C90.52361278 117.09102421 90.52361278 117.09102421 102.4453125 138.43359375 C113.09376594 147.3404777 125.69500683 147.57786849 138.953125 146.53125 C147.15763877 144.88658802 154.71190324 140.96356662 159.70703125 134.1328125 C163.3852759 128.22989458 165.78954611 122.93589815 166.328125 115.96875 C166.64754704 112.91878471 167.06820275 111.2962996 168.453125 108.46875 C171.67568137 105.97126882 173.85015963 105.97155854 177.83203125 105.96484375 C179.953125 106.53125 179.953125 106.53125 181.69921875 108.16796875 C184.86602123 114.13655286 183.57268348 121.91258281 182.07421875 128.24609375 C179.58210271 135.82113954 176.33644416 141.67879627 170.953125 147.53125 C170.45425781 148.14355469 169.95539063 148.75585938 169.44140625 149.38671875 C162.5615391 157.23704574 150.40325487 162.96824716 140.08105469 163.74829102 C120.72116213 164.45421103 104.47859509 163.94862163 89.48046875 150.27734375 C78.10098511 138.44192087 74.67703679 125.68610373 74.64453125 109.734375 C74.61936718 107.45312249 74.59396922 105.17187255 74.56835938 102.890625 C74.5397057 99.33854873 74.51565292 95.78651707 74.49682617 92.234375 C74.35429237 69.67957637 72.7936323 49.93417055 55.97265625 33.2265625 C44.80424533 22.8671384 30.53927997 17.50805403 15.41796875 17.35546875 C14.19658203 17.33162109 12.97519531 17.30777344 11.71679688 17.28320312 C9.16228067 17.24017146 6.60753856 17.20895545 4.05273438 17.18945312 C2.83263672 17.16173828 1.61253906 17.13402344 0.35546875 17.10546875 C-1.30754272 17.08359497 -1.30754272 17.08359497 -3.00415039 17.0612793 C-6.69638462 16.41810827 -8.38995983 15.1260027 -11.046875 12.53125 C-11.67578125 10.53125 -11.67578125 10.53125 -11.609375 8.53125 C-11.61066406 7.87125 -11.61195312 7.21125 -11.61328125 6.53125 C-9.9185424 0.54706868 -5.55522593 0.01989592 0 0 Z " fill="#000000" transform="translate(60.046875,152.46875)"/>
</svg>
