<?xml version="1.0" encoding="UTF-8"?>
<!DOCTYPE svg PUBLIC "-//W3C//DTD SVG 1.1//EN" "http://www.w3.org/Graphics/SVG/1.1/DTD/svg11.dtd">
<svg xmlns="http://www.w3.org/2000/svg" version="1.1" width="512px" height="512px" style="shape-rendering:geometricPrecision; text-rendering:geometricPrecision; image-rendering:optimizeQuality; fill-rule:evenodd; clip-rule:evenodd" xmlns:xlink="http://www.w3.org/1999/xlink">
<g><path style="opacity:0.969" fill="#000000" d="M 417.5,-0.5 C 424.167,-0.5 430.833,-0.5 437.5,-0.5C 466.308,9.18263 478.475,29.1826 474,59.5C 471.553,67.7307 467.553,75.064 462,81.5C 453.53,88.969 445.363,96.8023 437.5,105C 462.405,105.243 477.905,117.41 484,141.5C 484.985,219.202 484.652,296.869 483,374.5C 478.069,390.431 467.569,400.598 451.5,405C 404.2,406.47 356.867,406.97 309.5,406.5C 311.261,431.16 312.928,455.827 314.5,480.5C 323.506,480.334 332.506,480.5 341.5,481C 354.534,484.749 358.368,492.915 353,505.5C 350.886,508.121 348.386,510.121 345.5,511.5C 285.5,511.5 225.5,511.5 165.5,511.5C 155.697,505.921 153.197,497.921 158,487.5C 160.823,484.175 164.323,482.008 168.5,481C 177.827,480.5 187.161,480.334 196.5,480.5C 198.072,455.827 199.739,431.16 201.5,406.5C 156.165,406.667 110.832,406.5 65.5,406C 44.2325,402.733 31.3992,390.566 27,369.5C 26.3333,293.5 26.3333,217.5 27,141.5C 31.3982,122.768 42.8982,110.935 61.5,106C 141.5,105.667 221.5,105.333 301.5,105C 332.195,74.6389 362.528,43.9722 392.5,13C 399.773,6.36641 408.106,1.86641 417.5,-0.5 Z M 422.5,30.5 C 435.082,29.419 442.416,35.0857 444.5,47.5C 444.031,51.0743 442.864,54.4076 441,57.5C 392.167,106.333 343.333,155.167 294.5,204C 293.833,204.667 293.167,204.667 292.5,204C 286.167,195 278.5,187.333 269.5,181C 318.833,131.667 368.167,82.3333 417.5,33C 419.315,32.2432 420.981,31.4098 422.5,30.5 Z M 66.5,136.5 C 134.167,136.333 201.834,136.5 269.5,137C 258.833,147.667 248.167,158.333 237.5,169C 196.309,167.89 169.142,186.724 156,225.5C 144.81,258.977 138.477,293.31 137,328.5C 139.934,334.808 144.934,338.142 152,338.5C 178.853,335.596 205.353,330.763 231.5,324C 248.752,319.704 264.752,312.704 279.5,303C 298.007,285.158 306.507,263.324 305,237.5C 338.5,204 372,170.5 405.5,137C 418.5,136.333 431.5,136.333 444.5,137C 449.099,138.598 451.932,141.765 453,146.5C 453.667,219.5 453.667,292.5 453,365.5C 451.073,370.428 447.573,373.594 442.5,375C 317.833,375.667 193.167,375.667 68.5,375C 63.4268,373.594 59.9268,370.428 58,365.5C 57.3333,292.5 57.3333,219.5 58,146.5C 59.2613,141.745 62.0947,138.412 66.5,136.5 Z M 223.5,200.5 C 253.511,200.851 270.178,215.851 273.5,245.5C 272.89,267.214 262.223,281.38 241.5,288C 218.013,295.873 194.013,301.206 169.5,304C 172.559,286.042 176.392,268.208 181,250.5C 183.68,240.127 187.346,230.127 192,220.5C 199.903,209.638 210.403,202.971 223.5,200.5 Z M 232.5,406.5 C 247.833,406.5 263.167,406.5 278.5,406.5C 279.861,431.188 281.527,455.854 283.5,480.5C 264.833,480.5 246.167,480.5 227.5,480.5C 229.473,455.854 231.139,431.188 232.5,406.5 Z"/></g>
</svg>
