<?xml version="1.0" encoding="UTF-8"?>
<!DOCTYPE svg PUBLIC "-//W3C//DTD SVG 1.1//EN" "http://www.w3.org/Graphics/SVG/1.1/DTD/svg11.dtd">
<svg xmlns="http://www.w3.org/2000/svg" version="1.1" width="512px" height="512px" style="shape-rendering:geometricPrecision; text-rendering:geometricPrecision; image-rendering:optimizeQuality; fill-rule:evenodd; clip-rule:evenodd" xmlns:xlink="http://www.w3.org/1999/xlink">
<g><path style="opacity:0.935" fill="#000000" d="M 157.5,0.5 C 164.841,0.333677 172.174,0.500344 179.5,1C 182.094,2.33897 183.594,4.50564 184,7.5C 184.333,20.5 184.667,33.5 185,46.5C 204.139,40.2016 220.472,44.5349 234,59.5C 245.568,77.7405 245.234,95.7405 233,113.5C 219.619,127.239 203.785,131.239 185.5,125.5C 184.667,138.154 184.167,150.82 184,163.5C 183.716,167.12 181.883,169.62 178.5,171C 158.167,171.667 137.833,171.667 117.5,171C 112.668,167.83 111.501,163.664 114,158.5C 126.784,144.841 126.617,131.341 113.5,118C 102.083,110.594 91.0827,111.26 80.5,120C 69.5931,133.835 70.4265,147.002 83,159.5C 84.0981,163.505 83.2648,167.005 80.5,170C 69.7603,171.145 58.9269,171.645 48,171.5C 37.0731,171.645 26.2397,171.145 15.5,170C 14.2986,169.097 13.4652,167.931 13,166.5C 12.5752,114.193 32.0752,71.0264 71.5,37C 96.7891,16.8549 125.456,4.68824 157.5,0.5 Z M 158.5,17.5 C 161.5,17.5 164.5,17.5 167.5,17.5C 167.029,34.5946 167.529,51.5946 169,68.5C 172.472,71.6585 176.306,72.1585 180.5,70C 192.895,57.9767 205.729,57.4767 219,68.5C 228.592,81.9911 227.425,94.4911 215.5,106C 202.252,114.029 190.252,112.363 179.5,101C 174.788,99.5568 170.955,100.723 168,104.5C 167.5,121.163 167.333,137.83 167.5,154.5C 157.494,154.666 147.494,154.5 137.5,154C 145.274,127.553 136.607,108.887 111.5,98C 86.2588,92.0374 68.4255,100.871 58,124.5C 54.907,134.544 55.0736,144.544 58.5,154.5C 48.8333,154.5 39.1667,154.5 29.5,154.5C 35.9886,93.9889 66.9886,51.4889 122.5,27C 134.332,22.658 146.332,19.4913 158.5,17.5 Z"/></g>
<g><path style="opacity:0.923" fill="#000000" d="M 250.5,0.5 C 255.535,-0.497902 259.702,0.835431 263,4.5C 263.667,20.5 263.667,36.5 263,52.5C 257.26,58.9679 251.927,58.6345 247,51.5C 246.333,36.5 246.333,21.5 247,6.5C 247.564,4.11327 248.73,2.11327 250.5,0.5 Z"/></g>
<g><path style="opacity:0.909" fill="#000000" d="M 368.5,31.5 C 377.711,30.5418 381.545,34.5418 380,43.5C 373,55.8333 366,68.1667 359,80.5C 354.057,84.3691 349.39,84.0357 345,79.5C 343,76.1667 343,72.8333 345,69.5C 352.3,56.3961 360.134,43.7294 368.5,31.5 Z"/></g>
<g><path style="opacity:0.936" fill="#000000" d="M 253.5,80.5 C 318.104,82.3699 366.604,111.037 399,166.5C 427.384,224.879 424.384,281.546 390,336.5C 384,343.833 378,351.167 372,358.5C 358.887,370.289 345.22,381.289 331,391.5C 329.725,393.717 328.725,396.051 328,398.5C 327.944,415.886 327.277,433.219 326,450.5C 322.911,460.424 316.411,466.757 306.5,469.5C 305.807,490.362 295.473,503.862 275.5,510C 262.167,510.667 248.833,510.667 235.5,510C 215.6,504.38 205.1,491.214 204,470.5C 191.348,465.502 184.348,456.169 183,442.5C 182.667,427.5 182.333,412.5 182,397.5C 180.383,393.103 177.883,389.269 174.5,386C 119.685,352.783 92.5184,303.95 93,239.5C 94.214,237.951 95.714,236.785 97.5,236C 111.179,235.833 124.846,235.333 138.5,234.5C 131.89,214.167 136.89,197.334 153.5,184C 177.221,171.368 197.388,175.534 214,196.5C 220.983,208.995 222.15,221.995 217.5,235.5C 227.167,235.5 236.833,235.5 246.5,235.5C 246.043,218.43 246.543,201.43 248,184.5C 251.338,181.682 255.171,180.849 259.5,182C 272.335,194.735 285.502,195.235 299,183.5C 308.713,169.702 307.213,157.202 294.5,146C 282.445,139.004 271.445,140.337 261.5,150C 256.527,153.561 252.027,153.061 248,148.5C 246.357,127.923 246.024,107.256 247,86.5C 248.436,83.5581 250.603,81.5581 253.5,80.5 Z M 263.5,98.5 C 321.912,103.768 363.745,132.768 389,185.5C 395.986,201.445 399.82,218.112 400.5,235.5C 383.738,235.029 367.072,235.529 350.5,237C 347.572,240.257 346.738,244.091 348,248.5C 357.18,256.714 359.846,266.714 356,278.5C 346.995,293.836 334.495,297.669 318.5,290C 306.969,280.495 304.469,268.995 311,255.5C 312.626,252.872 314.626,250.539 317,248.5C 318.262,244.091 317.428,240.257 314.5,237C 297.595,235.529 280.595,235.029 263.5,235.5C 263.334,225.494 263.5,215.494 264,205.5C 288.383,213.699 306.717,206.365 319,183.5C 326.35,162.223 321.183,144.723 303.5,131C 291.027,123.891 278.027,122.724 264.5,127.5C 263.502,117.856 263.168,108.19 263.5,98.5 Z M 174.5,193.5 C 195.579,194.736 204.746,205.736 202,226.5C 200.01,231.813 197.01,236.48 193,240.5C 191.902,244.505 192.735,248.005 195.5,251C 212.405,252.471 229.405,252.971 246.5,252.5C 246.5,262.167 246.5,271.833 246.5,281.5C 227.24,275.44 210.74,279.773 197,294.5C 186.045,311.641 185.712,328.974 196,346.5C 209.439,362.524 226.105,367.191 246,360.5C 246.5,379.497 246.667,398.497 246.5,417.5C 230.833,417.5 215.167,417.5 199.5,417.5C 203.269,398.694 197.936,383.194 183.5,371C 139.138,344.073 114.472,304.573 109.5,252.5C 125.503,252.667 141.503,252.5 157.5,252C 162.102,249.962 163.936,246.462 163,241.5C 159.606,237.102 156.606,232.435 154,227.5C 150.708,209.976 157.541,198.643 174.5,193.5 Z M 263.5,252.5 C 273.506,252.334 283.506,252.5 293.5,253C 286.141,275.259 292.141,292.925 311.5,306C 333.869,315.859 352.703,311.359 368,292.5C 375.175,279.839 376.342,266.673 371.5,253C 381.161,252.5 390.828,252.334 400.5,252.5C 395.77,305.82 370.436,345.987 324.5,373C 317.034,379.096 312.534,386.929 311,396.5C 310.5,403.492 310.334,410.492 310.5,417.5C 294.833,417.5 279.167,417.5 263.5,417.5C 263.982,391.078 263.482,364.744 262,338.5C 258.491,335.329 254.657,334.829 250.5,337C 236.854,349.786 223.354,349.62 210,336.5C 200.3,314.566 207.134,300.9 230.5,295.5C 234.674,296.101 238.674,297.267 242.5,299C 245.5,301.333 248.5,303.667 251.5,306C 255.505,307.098 259.005,306.265 262,303.5C 263.471,286.595 263.971,269.595 263.5,252.5 Z M 199.5,434.5 C 236.5,434.5 273.5,434.5 310.5,434.5C 312.04,442.578 309.374,448.744 302.5,453C 286.731,454.144 270.898,454.644 255,454.5C 239.102,454.644 223.269,454.144 207.5,453C 204.667,451.5 202.5,449.333 201,446.5C 199.985,442.56 199.485,438.56 199.5,434.5 Z M 221.5,471.5 C 244.176,471.167 266.843,471.5 289.5,472.5C 284.779,489.967 273.279,497.3 255,494.5C 245.323,495.476 236.489,493.309 228.5,488C 224.105,483.377 221.772,477.877 221.5,471.5 Z"/></g>
<g><path style="opacity:0.912" fill="#000000" d="M 454.5,117.5 C 463.108,116.276 466.941,119.943 466,128.5C 465.215,130.286 464.049,131.786 462.5,133C 449.686,140.824 436.519,147.99 423,154.5C 414.614,151.677 412.781,146.51 417.5,139C 429.896,131.807 442.23,124.64 454.5,117.5 Z"/></g>
<g><path style="opacity:0.92" fill="#000000" d="M 17.5,234.5 C 33.1702,234.333 48.8369,234.5 64.5,235C 69.8266,238.436 70.8266,242.936 67.5,248.5C 66.3349,249.584 65.0016,250.417 63.5,251C 48.5,251.667 33.5,251.667 18.5,251C 12.4572,248.116 10.9572,243.616 14,237.5C 15.1451,236.364 16.3117,235.364 17.5,234.5 Z"/></g>
<g><path style="opacity:0.916" fill="#000000" d="M 446.5,234.5 C 462.17,234.333 477.837,234.5 493.5,235C 498.069,237.541 499.569,241.375 498,246.5C 497.065,249.102 495.232,250.602 492.5,251C 477.5,251.667 462.5,251.667 447.5,251C 441.458,248.163 439.958,243.663 443,237.5C 444.145,236.364 445.312,235.364 446.5,234.5 Z"/></g>
<g><path style="opacity:0.909" fill="#000000" d="M 83.5,331.5 C 92.6584,330.491 96.4918,334.491 95,343.5C 94.1667,344.5 93.3333,345.5 92.5,346.5C 80.1667,353.667 67.8333,360.833 55.5,368C 46.1425,368.648 42.6425,364.481 45,355.5C 46.1667,354.333 47.3333,353.167 48.5,352C 60.5583,345.645 72.225,338.811 83.5,331.5 Z"/></g>
<g><path style="opacity:0.908" fill="#000000" d="M 419.5,331.5 C 421.857,331.337 424.19,331.503 426.5,332C 438.996,338.747 451.329,345.747 463.5,353C 466.803,356.795 467.303,360.962 465,365.5C 462.237,367.97 459.07,368.804 455.5,368C 441.811,360.963 428.644,353.13 416,344.5C 413.651,339.204 414.817,334.871 419.5,331.5 Z"/></g>
</svg>
